<?xml version="1.0" encoding="utf-8"?>
<!-- Generator: Adobe Illustrator 25.0.0, SVG Export Plug-In . SVG Version: 6.00 Build 0)  -->
<svg version="1.1" id="Layer_1" xmlns="http://www.w3.org/2000/svg" xmlns:xlink="http://www.w3.org/1999/xlink" x="0px" y="0px"
	 viewBox="0 0 150 150" style="enable-background:new 0 0 150 150;" xml:space="preserve">
<style type="text/css">
	.st0{fill:#90A0B2;}
</style>
<g id="sunset-2">
	<path class="st0" d="M75,57.69c3.19,0,5.77-2.58,5.77-5.77V40.38c0-3.19-2.58-5.77-5.77-5.77c-3.19,0-5.77,2.58-5.77,5.77v11.54
		C69.23,55.11,71.81,57.69,75,57.69z"/>
	<path class="st0" d="M38.31,64.73l-8.19-8.13c-2.42-2.07-6.06-1.79-8.13,0.63c-1.85,2.16-1.85,5.35,0,7.51l8.13,8.19
		c1.09,1.08,2.56,1.68,4.1,1.67c1.53,0.01,3.01-0.59,4.1-1.67c2.26-2.24,2.28-5.9,0.03-8.16C38.33,64.75,38.32,64.74,38.31,64.73z"
		/>
	<path class="st0" d="M17.31,103.85H5.77c-3.19,0-5.77,2.58-5.77,5.77s2.58,5.77,5.77,5.77h11.54c3.19,0,5.77-2.58,5.77-5.77
		S20.49,103.85,17.31,103.85z"/>
	<path class="st0" d="M144.23,103.85h-11.54c-3.19,0-5.77,2.58-5.77,5.77s2.58,5.77,5.77,5.77h11.54c3.19,0,5.77-2.58,5.77-5.77
		S147.42,103.85,144.23,103.85z"/>
	<path class="st0" d="M128.02,56.6c-2.25-2.24-5.88-2.24-8.13,0l-8.19,8.13c-2.26,2.24-2.28,5.9-0.03,8.16
		c0.01,0.01,0.02,0.02,0.03,0.03c1.09,1.08,2.56,1.68,4.1,1.67c1.53,0.01,3.01-0.59,4.1-1.67l8.13-8.19
		C130.26,62.48,130.26,58.85,128.02,56.6z"/>
	<path class="st0" d="M75,69.23c-22.3,0-40.38,18.08-40.38,40.38c0,3.19,2.58,5.77,5.77,5.77h69.23c3.19,0,5.77-2.58,5.77-5.77
		C115.38,87.31,97.3,69.23,75,69.23z M46.73,103.85c3.17-15.61,18.4-25.7,34.01-22.53c11.35,2.31,20.22,11.18,22.53,22.53H46.73z"/>
</g>
</svg>
