<?xml version="1.0" encoding="utf-8"?>
<!-- Generator: Adobe Illustrator 25.0.0, SVG Export Plug-In . SVG Version: 6.00 Build 0)  -->
<svg version="1.1" id="Layer_1" xmlns="http://www.w3.org/2000/svg" xmlns:xlink="http://www.w3.org/1999/xlink" x="0px" y="0px"
	 viewBox="0 0 450 450" style="enable-background:new 0 0 450 450;" xml:space="preserve">
<style type="text/css">
	.st0{opacity:0.12;fill:url(#SVGID_1_);}
	.st1{fill:url(#SVGID_2_);}
	.st2{fill:#F0F0F0;}
	.st3{fill:#F2F2F2;}
	.st4{fill:#FCFCFC;}
	.st5{fill:#FFC278;}
	.st6{fill:#FFB44A;}
	.st7{opacity:0.78;fill:#FCFCFC;}
	.st8{fill:#263D51;}
	.st9{fill:url(#SVGID_3_);}
	.st10{fill:url(#SVGID_4_);}
	.st11{fill:url(#SVGID_5_);}
	.st12{fill:url(#SVGID_6_);}
	.st13{fill:url(#SVGID_7_);}
	.st14{fill:url(#SVGID_8_);}
	.st15{fill:url(#SVGID_9_);}
	.st16{fill:#5BDB98;}
	.st17{fill:url(#SVGID_10_);}
	.st18{fill:url(#SVGID_11_);}
	.st19{fill:url(#SVGID_12_);}
	.st20{fill:url(#SVGID_13_);}
	.st21{opacity:0.37;fill:#FCFCFC;}
	.st22{fill:url(#SVGID_14_);}
	.st23{fill:url(#SVGID_15_);}
	.st24{fill:url(#SVGID_16_);}
	.st25{fill:url(#SVGID_17_);}
	.st26{fill:url(#SVGID_18_);}
	.st27{fill:url(#SVGID_19_);}
	.st28{fill:url(#SVGID_20_);}
	.st29{fill:url(#SVGID_21_);}
	.st30{fill:url(#SVGID_22_);}
	.st31{fill:url(#SVGID_23_);}
	.st32{fill:url(#SVGID_24_);}
	.st33{fill:url(#SVGID_25_);}
	.st34{fill:url(#SVGID_26_);}
	.st35{fill:url(#SVGID_27_);}
	.st36{fill:url(#SVGID_28_);}
	.st37{fill:url(#SVGID_29_);}
	.st38{fill:url(#SVGID_30_);}
</style>
<g>
	<linearGradient id="SVGID_1_" gradientUnits="userSpaceOnUse" x1="491.1247" y1="515.0358" x2="173.833" y2="177.2738">
		<stop  offset="0" style="stop-color:#5BDB98"/>
		<stop  offset="1" style="stop-color:#60E99C"/>
	</linearGradient>
	<path class="st0" d="M395.86,379.53c-11.71,12.07-22.19,19.17-30.22,24.53c-78.26,52.25-167.72,37.19-195.38,32.05
		c-44.62-8.31-82.29-14.16-114.66-43.4c-73.54-66.44-69.96-205.04-13.77-290.9C48.5,91.62,104.61,8.45,194.26-3.27
		c2.19-0.29,3.83-0.45,5.26-0.6c13.87-1.47,99.81-9.22,169.89,49.49c10.03,8.4,26.17,23.56,41.14,46.68
		C465.3,176.84,465.47,307.77,395.86,379.53z"/>
	<g>
		
			<linearGradient id="SVGID_2_" gradientUnits="userSpaceOnUse" x1="3781.0828" y1="633.2169" x2="3736.5117" y2="849.448" gradientTransform="matrix(0.9809 -0.1946 0.1946 0.9809 -3541.1296 194.9499)">
			<stop  offset="0" style="stop-color:#2B3582"/>
			<stop  offset="1" style="stop-color:#150E42"/>
		</linearGradient>
		<path class="st1" d="M280.22,300.95c-0.21,0.04-0.43,0.04-0.64-0.02c-0.77-0.2-1.23-0.99-1.03-1.76
			C305.69,195.44,297.38,83,297.29,81.88c-0.06-0.79,0.53-1.48,1.32-1.55c0.79-0.06,1.48,0.53,1.55,1.32
			c0.09,1.13,8.44,114.05-18.83,218.25C281.19,300.45,280.74,300.85,280.22,300.95z"/>
		<path class="st2" d="M253.62,281.15c-0.22,0.04-0.45-0.02-0.61-0.18c-28.72-28.09-41.3-51.7-37.39-70.18
			c3.48-16.43,19.3-22.5,19.46-22.55c0.36-0.13,0.75,0.05,0.88,0.4c0.13,0.35-0.05,0.75-0.4,0.88c-0.15,0.06-15.28,5.88-18.59,21.57
			c-3.8,17.99,8.65,41.16,37.01,68.89c0.27,0.27,0.28,0.7,0.01,0.97C253.87,281.05,253.75,281.12,253.62,281.15z"/>
	</g>
	<g>
		<g>
			<path class="st3" d="M66.25,215.85c0,90.79,76.38,164.39,170.6,164.39s174.82-76.81,174.82-167.6
				c0-90.79-80.6-161.17-174.82-161.17S66.25,125.07,66.25,215.85z"/>
			<g>
				<path class="st4" d="M372.21,124.51c0.25,0,0.5-0.08,0.71-0.23c0.52-0.38,0.62-1.09,0.23-1.59
					c-31.61-40.39-82.52-64.5-136.2-64.5c-22.92,0-45.09,4.48-65.9,13.31c-0.59,0.25-0.87,0.92-0.6,1.5
					c0.26,0.57,0.96,0.83,1.55,0.58c20.5-8.7,42.35-13.12,64.95-13.12c52.94,0,103.15,23.77,134.31,63.59
					C371.5,124.36,371.85,124.51,372.21,124.51z"/>
			</g>
			<path class="st5" d="M89.46,215.85c0,78.59,66.12,142.29,147.67,142.29s151.33-66.49,151.33-145.08
				c0-78.59-69.77-139.51-151.33-139.51S89.46,137.27,89.46,215.85z"/>
			<path class="st6" d="M89.46,215.85c0-78.59,66.12-142.29,147.67-142.29c44.16,0,84.86,17.87,112.91,46.73l-113.76,91.2
				L212.9,356.23C142.88,345.09,89.46,286.49,89.46,215.85z"/>
			<path class="st7" d="M350.73,208.47c0.37,6.04,5.74,10.65,12.01,10.3c6.27-0.35,11.05-5.53,10.69-11.57
				c-0.36-6.04-5.74-10.65-12.01-10.3C355.15,197.25,350.36,202.43,350.73,208.47z"/>
			<path class="st7" d="M105.1,222.25c0.36,6.04,5.74,10.65,12.01,10.3c6.27-0.35,11.05-5.53,10.69-11.57
				c-0.36-6.04-5.74-10.65-12.01-10.3C109.52,211.03,104.73,216.21,105.1,222.25z"/>
			<path class="st7" d="M259.32,320.56c-6.18,1.09-10.27,6.79-9.14,12.75c1.13,5.95,7.05,9.9,13.23,8.81
				c6.18-1.09,10.27-6.79,9.14-12.75C271.42,323.42,265.5,319.47,259.32,320.56z"/>
			<path class="st7" d="M215.12,87.34c-6.18,1.09-10.27,6.79-9.14,12.75c1.13,5.95,7.05,9.9,13.23,8.81
				c6.18-1.09,10.27-6.79,9.14-12.75C227.21,90.2,221.29,86.25,215.12,87.34z"/>
			<path class="st7" d="M178.5,326.82c-1.16,2.81-0.87,5.44,0.64,5.87c1.51,0.44,3.67-1.49,4.83-4.3c1.16-2.81,0.87-5.44-0.64-5.87
				C181.81,322.09,179.65,324.01,178.5,326.82z"/>
			<path class="st7" d="M277.31,105.61c-1.16,2.81-0.87,5.44,0.64,5.87c1.51,0.44,3.67-1.49,4.83-4.3c1.16-2.81,0.87-5.44-0.64-5.87
				C280.63,100.88,278.47,102.8,277.31,105.61z"/>
			<path class="st7" d="M126.9,284.77c-2.5,1.82-3.67,4.21-2.61,5.34c1.06,1.13,3.94,0.57,6.44-1.26c2.5-1.82,3.67-4.21,2.61-5.34
				C132.29,282.38,129.4,282.95,126.9,284.77z"/>
			<path class="st7" d="M330.55,145.15c-2.5,1.82-3.67,4.21-2.61,5.34c1.06,1.13,3.94,0.57,6.44-1.26c2.5-1.82,3.67-4.21,2.61-5.34
				C335.94,142.77,333.05,143.33,330.55,145.15z"/>
			<path class="st7" d="M120.42,159.52c-2.83-1.3-5.57-1.2-6.13,0.23c-0.55,1.42,1.29,3.63,4.13,4.93c2.83,1.3,5.57,1.2,6.13-0.23
				C125.1,163.02,123.25,160.82,120.42,159.52z"/>
			<path class="st7" d="M342.86,269.33c-2.83-1.3-5.57-1.2-6.13,0.23c-0.55,1.42,1.29,3.63,4.13,4.93c2.83,1.3,5.57,1.2,6.13-0.23
				C347.54,272.84,345.69,270.63,342.86,269.33z"/>
			<path class="st7" d="M167.42,112.73c-1.72-2.53-4.12-3.81-5.36-2.87c-1.24,0.94-0.85,3.75,0.87,6.28
				c1.72,2.53,4.12,3.81,5.36,2.87C169.53,118.07,169.14,115.26,167.42,112.73z"/>
			<path class="st7" d="M298.35,317.87c-1.72-2.53-4.12-3.81-5.36-2.87c-1.24,0.94-0.85,3.75,0.87,6.28
				c1.72,2.53,4.12,3.81,5.36,2.87C300.46,323.21,300.07,320.4,298.35,317.87z"/>
			<path class="st8" d="M241.74,211.45l91.33,43.89c1.77,0.85,3.84-0.43,3.78-2.33l-0.36-11.33c-0.07-2.2,2.62-3.42,4.34-1.97
				l66.04,56.02c2.02,1.71,0.36,4.9-2.27,4.35l-85.05-17.5c-2.04-0.42-2.77-2.85-1.29-4.26l9.96-9.46c1.23-1.17,0.97-3.15-0.53-3.98
				l-88.41-49.01c-1.23-0.68-1.67-2.19-0.99-3.39l0,0C238.95,211.3,240.48,210.84,241.74,211.45z"/>
			<path class="st8" d="M232.21,207.12l0.18-86.05c-0.03-1.91-2.16-3.09-3.89-2.16l-10.27,5.52c-2,1.07-4.36-0.67-3.81-2.81
				l21.25-82.27c0.65-2.52,4.35-2.56,5.06-0.06l23,80.82c0.55,1.93-1.35,3.68-3.33,3.06l-13.3-4.17c-1.64-0.52-3.34,0.62-3.42,2.28
				l-6.24,85.9c-0.06,1.37-1.25,2.44-2.67,2.41l0,0C233.36,209.57,232.23,208.48,232.21,207.12z"/>
			<ellipse class="st8" cx="237.9" cy="211.74" rx="12.14" ry="11.7"/>
		</g>
	</g>
	<g>
		
			<linearGradient id="SVGID_3_" gradientUnits="userSpaceOnUse" x1="-6888.6328" y1="439.5123" x2="-6842.8188" y2="439.5123" gradientTransform="matrix(-1 0 0 1 -6731.8828 0)">
			<stop  offset="0" style="stop-color:#53D8FF"/>
			<stop  offset="1" style="stop-color:#3840F7"/>
		</linearGradient>
		<path class="st9" d="M112.23,437.3c7.85,0.68,21.47,1.78,32.21,2.25c6.46,0.28,10.17-0.35,12.31-1.2c0,0.24-0.01,0.47-0.02,0.68
			c-0.05,1.13-0.97,2.03-2.11,2.1c-20.29,1.13-36.43,0.39-42.17,0.04c-1.19-0.07-1.9-1.36-1.29-2.38
			C111.46,438.28,111.83,437.79,112.23,437.3z"/>
		
			<linearGradient id="SVGID_4_" gradientUnits="userSpaceOnUse" x1="-6888.6357" y1="430.5333" x2="-6844.1128" y2="430.5333" gradientTransform="matrix(-1 0 0 1 -6731.8828 0)">
			<stop  offset="0" style="stop-color:#2B3582"/>
			<stop  offset="1" style="stop-color:#150E42"/>
		</linearGradient>
		<path class="st10" d="M144.44,439.55c-10.74-0.47-24.36-1.57-32.21-2.25c7.72-9.47,32.21-15.85,32.21-15.85h6.92
			c4.76,6.86,5.45,13.39,5.39,16.9C154.61,439.2,150.89,439.83,144.44,439.55z"/>
		
			<linearGradient id="SVGID_5_" gradientUnits="userSpaceOnUse" x1="-6884.4033" y1="417.9974" x2="-6871.4985" y2="417.9974" gradientTransform="matrix(-1 0 0 1 -6731.8828 0)">
			<stop  offset="0" style="stop-color:#F9B776"/>
			<stop  offset="1" style="stop-color:#F47960"/>
		</linearGradient>
		<path class="st11" d="M152.52,410.16l-0.65,12.81c-0.07,1.39-1.11,2.55-2.5,2.75c-1.38,0.2-3.23,0.22-5.2-0.43
			c-1.21-0.4-2.1-1.42-2.33-2.66l-2.24-12.47H152.52z"/>
		<g>
			
				<linearGradient id="SVGID_6_" gradientUnits="userSpaceOnUse" x1="-6970.4053" y1="450.8727" x2="-6952.8486" y2="450.8727" gradientTransform="matrix(-1 0 0 1 -6731.8828 0)">
				<stop  offset="0" style="stop-color:#53D8FF"/>
				<stop  offset="1" style="stop-color:#3840F7"/>
			</linearGradient>
			<path class="st12" d="M232.81,452.07c3.4-0.61,4.94-2.9,5.59-5.34c0,0.02,0.01,0.04,0.01,0.07c0.5,2.58-0.66,5.25-2.98,6.52
				c-2.81,1.54-5.87,1.8-8.25,1.67c-2.55-0.14-4.9-1.5-6.19-3.69l-0.02-0.03C223.53,452.9,227.13,453.1,232.81,452.07z"/>
			
				<linearGradient id="SVGID_7_" gradientUnits="userSpaceOnUse" x1="-6970.2773" y1="433.4017" x2="-6944.5078" y2="433.4017" gradientTransform="matrix(-1 0 0 1 -6731.8828 0)">
				<stop  offset="0" style="stop-color:#2B3582"/>
				<stop  offset="1" style="stop-color:#150E42"/>
			</linearGradient>
			<path class="st13" d="M216.76,414.1h5.7c8.69-0.23,14.15,23.46,15.93,32.63c-0.65,2.44-2.19,4.73-5.59,5.34
				c-5.68,1.02-9.28,0.83-11.84-0.81c-4.69-7.98-7.02-19.68-8.14-26.5C211.55,417,216.76,414.1,216.76,414.1z"/>
		</g>
		
			<linearGradient id="SVGID_8_" gradientUnits="userSpaceOnUse" x1="-6956.8828" y1="411.268" x2="-6941.46" y2="411.268" gradientTransform="matrix(-1 0 0 1 -6731.8828 0)">
			<stop  offset="0" style="stop-color:#F9B776"/>
			<stop  offset="1" style="stop-color:#F47960"/>
		</linearGradient>
		<path class="st14" d="M221.73,402.21l3.17,12.6c0.39,1.54-0.35,3.14-1.78,3.88c-1.77,0.91-4.27,1.87-6.56,1.59
			c-1.08-0.13-1.97-0.89-2.33-1.9l-4.65-13.26L221.73,402.21z"/>
		<linearGradient id="SVGID_9_" gradientUnits="userSpaceOnUse" x1="274.8347" y1="173.3709" x2="223.0598" y2="244.28">
			<stop  offset="0" style="stop-color:#2B3582"/>
			<stop  offset="0.5464" style="stop-color:#1F205F"/>
			<stop  offset="1" style="stop-color:#150E42"/>
		</linearGradient>
		<path class="st15" d="M110.3,236.28c0,0,28.31,176.95,27.84,177.92c0,0,7.82,3.55,16.34,0.45c0,0-2.56-94.59-8.56-130.86
			c0,0,48.31,84.55,63.65,126.67c0,0,8-0.95,14.63-5.31c0,0-52.02-152.18-65.9-172.45L110.3,236.28z"/>
		<path class="st16" d="M105.83,112.72c-2.02,0.12-4.02,0.51-5.93,1.17c-20.75,7.19-37.04,5.38-49.56-0.28
			c-2.9,3.85-7.58,11.87-9.61,25.34c22.8,16.97,51.47,12.5,60.85,10.4c-2.45,18.21-2.43,47.02,7.59,89.26
			c0.26,1.11,1.21,1.92,2.36,2.02c6.41,0.53,27.84,1.79,48.46-2.84c0.93-0.21,1.43-1.2,1.06-2.07l-0.19-0.44
			c-1.72-4.04-2.49-8.42-2.24-12.8c0.75-13.3,4.33-43.36,11.96-63.97c0.44,0.75,0.86,1.49,1.26,2.23
			c1.38-13.55,6.57-26.88,10.24-40.32C152.21,110.94,116.72,112.09,105.83,112.72z"/>
		
			<linearGradient id="SVGID_10_" gradientUnits="userSpaceOnUse" x1="-6880.9023" y1="137.7663" x2="-6874.2197" y2="102.6831" gradientTransform="matrix(-1 0 0 1 -6731.8828 0)">
			<stop  offset="0" style="stop-color:#F9B776"/>
			<stop  offset="1" style="stop-color:#F47960"/>
		</linearGradient>
		<path class="st17" d="M152.4,88.12c0,0,2.09,22.05,3.92,28.57c0.28,0.99-0.15,2.03-1.05,2.55c-3.12,1.78-10.59,4.68-20.81-0.33
			c-1.66-0.81-2.65-2.54-2.57-4.37l0.9-21.31L152.4,88.12z"/>
		<g>
			
				<linearGradient id="SVGID_11_" gradientUnits="userSpaceOnUse" x1="-6862.8203" y1="73.3999" x2="-6900.9482" y2="102.5734" gradientTransform="matrix(-1 0 0 1 -6731.8828 0)">
				<stop  offset="0" style="stop-color:#F9B776"/>
				<stop  offset="1" style="stop-color:#F47960"/>
			</linearGradient>
			<path class="st18" d="M132.34,59.91c0,0-6.67,15.32-7.12,23.36c-0.45,8.04-2.18,13.26,7.12,14.88
				c9.3,1.62,17.13-3.01,21.37-11.02c0,0,6.65-12.34,5.16-17.4C157.38,64.68,132.34,59.91,132.34,59.91z"/>
			
				<linearGradient id="SVGID_12_" gradientUnits="userSpaceOnUse" x1="-6893.6216" y1="53.3773" x2="-6858.1118" y2="99.0964" gradientTransform="matrix(-1 0 0 1 -6731.8828 0)">
				<stop  offset="0" style="stop-color:#2B3582"/>
				<stop  offset="1" style="stop-color:#150E42"/>
			</linearGradient>
			<path class="st19" d="M150.53,81.37L150,81.14c-0.67-0.3-0.96-1.1-0.62-1.75c1.31-2.53,3.87-8.34,0.57-9.69
				c-3.11-1.28-6.48-1.99-9.68-3.02c-2.97-0.95-8.74-1.95-10.28-5.08c-0.45-0.91,0.04-1.97,0.53-2.86c0.9-1.66,1.81-3.32,2.71-4.98
				c0.76-1.4,1.55-2.84,2.77-3.88c2.79-2.37,6.11-0.29,9.2,0.28c11.47,2.12,19.05,6.76,19.24,14.69c0.01,0.5,0.55,0.78,0.98,0.52
				c0.85-0.52,2.2-0.76,4.01,0.76c3.15,2.65,1.86,9.52-5.04,15.17c-0.33,0.27-0.33,0.78,0.03,1.01c1.25,0.81,3.12,2.75-1.72,5.34
				c-5,2.67-8.74,2.45-10.18,2.22c-0.36-0.06-0.59-0.41-0.51-0.76l1.54-6.97c0.09-0.39-0.21-0.77-0.62-0.77H150.53z"/>
			
				<linearGradient id="SVGID_13_" gradientUnits="userSpaceOnUse" x1="-6867.5493" y1="67.2189" x2="-6905.6772" y2="96.3926" gradientTransform="matrix(-1 0 0 1 -6731.8828 0)">
				<stop  offset="0" style="stop-color:#F9B776"/>
				<stop  offset="1" style="stop-color:#F47960"/>
			</linearGradient>
			<path class="st20" d="M150.24,82.84c0,0,2.54-9.79,6.93-7.04c4.39,2.74-2.28,10.97-5.8,11.33L150.24,82.84z"/>
		</g>
		<g>
			<g>
				<path class="st16" d="M126.82,62.52c10.91-32.34,56.17-11.95,41.24,16.23C152.4,71.65,134.15,60.28,126.82,62.52z"/>
			</g>
			<path class="st16" d="M153.49,71.12l-28.45,3.74c-0.72,0.09-1.44-0.2-1.89-0.77c-3.28-4.17-7.47-6.48-12.37-7.32
				c-0.62-0.11-0.64-0.99-0.03-1.14l17.16-4.01c0.02,0,0.04-0.01,0.06-0.01c8.76-0.74,17.26,3.21,25.67,8.84
				C153.93,70.63,153.83,71.07,153.49,71.12z"/>
		</g>
		<g>
			<path class="st6" d="M159.68,234.42c6.52,0.12,11.88-5.13,11.88-11.66v-51.87c0-6.82-5.48-12.36-12.29-12.43
				c-20.45-0.22-62.63-0.23-97.15,2.67c-4.71,0.4-8.37,4.26-8.54,8.98l-3.23,50.15c-0.24,6.63,5,12.17,11.64,12.3L159.68,234.42z"/>
			<path class="st4" d="M159.71,176.51c0.09,4.41-0.04,11.42-0.15,15.94c-0.06,2.35-2.12,4.15-4.46,3.87l-16.83-1.97
				c-2.24-0.26-3.82-2.33-3.49-4.56l2.07-13.78c0.29-1.96,1.97-3.4,3.95-3.4h14.92C157.89,172.6,159.67,174.33,159.71,176.51z"/>
			<path class="st21" d="M115.73,202.63l-14.04,1.51c-1.96,0.21-3.64-1.41-3.5-3.38l3.07-41.77c5.89-0.19,11.69-0.32,17.29-0.42
				v40.9C118.55,201.1,117.33,202.45,115.73,202.63z"/>
			<path class="st4" d="M109.97,195.39c-0.04,0.75-0.67,1.33-1.41,1.33c-0.03,0-0.06,0-0.08,0c-0.78-0.05-1.37-0.71-1.33-1.49
				l2.12-36.45c0.95-0.02,1.89-0.04,2.83-0.07L109.97,195.39z"/>
			<g>
				
					<linearGradient id="SVGID_14_" gradientUnits="userSpaceOnUse" x1="-1843.056" y1="175.1803" x2="-1873.1858" y2="218.9626" gradientTransform="matrix(-1 0 0 1 -1696.4536 0)">
					<stop  offset="0" style="stop-color:#2B3582"/>
					<stop  offset="1" style="stop-color:#150E42"/>
				</linearGradient>
				<path class="st22" d="M151.93,189.66c0.25,0,0.45-0.19,0.47-0.44l0.73-11.48c0.02-0.26-0.18-0.48-0.44-0.5
					c-0.27-0.02-0.48,0.18-0.5,0.44l-0.73,11.48c-0.02,0.26,0.18,0.48,0.44,0.5C151.91,189.66,151.92,189.66,151.93,189.66z"/>
				
					<linearGradient id="SVGID_15_" gradientUnits="userSpaceOnUse" x1="-1841.9725" y1="175.9259" x2="-1872.1024" y2="219.7082" gradientTransform="matrix(-1 0 0 1 -1696.4536 0)">
					<stop  offset="0" style="stop-color:#2B3582"/>
					<stop  offset="1" style="stop-color:#150E42"/>
				</linearGradient>
				<path class="st23" d="M150.43,189.66c0.25,0,0.46-0.2,0.47-0.46l0.38-11.7c0.01-0.26-0.2-0.48-0.46-0.49
					c-0.3-0.01-0.48,0.2-0.49,0.46l-0.38,11.7c-0.01,0.26,0.2,0.48,0.46,0.49C150.42,189.66,150.43,189.66,150.43,189.66z"/>
				
					<linearGradient id="SVGID_16_" gradientUnits="userSpaceOnUse" x1="-1840.6654" y1="176.8255" x2="-1870.7952" y2="220.6078" gradientTransform="matrix(-1 0 0 1 -1696.4536 0)">
					<stop  offset="0" style="stop-color:#2B3582"/>
					<stop  offset="1" style="stop-color:#150E42"/>
				</linearGradient>
				<path class="st24" d="M148.4,189.66c-0.26-0.01-0.46-0.23-0.45-0.49c0.19-3.93,0.54-11.43,0.55-11.68
					c0-0.26,0.21-0.47,0.47-0.47c0.26,0,0.47,0.21,0.47,0.47c0,0.19-0.46,9.8-0.55,11.72c-0.01,0.25-0.22,0.45-0.47,0.45
					C148.41,189.66,148.41,189.66,148.4,189.66z M148.49,177.49L148.49,177.49L148.49,177.49z"/>
				
					<linearGradient id="SVGID_17_" gradientUnits="userSpaceOnUse" x1="-1838.4044" y1="178.3814" x2="-1868.5341" y2="222.1636" gradientTransform="matrix(-1 0 0 1 -1696.4536 0)">
					<stop  offset="0" style="stop-color:#2B3582"/>
					<stop  offset="1" style="stop-color:#150E42"/>
				</linearGradient>
				<path class="st25" d="M145.28,190.13c0.5,0,0.92-0.4,0.94-0.91c0.4-11.34,0.33-11.59,0.28-11.76c-0.14-0.5-0.66-0.8-1.16-0.66
					c-0.46,0.13-0.75,0.57-0.69,1.03c0.03,0.68-0.18,7.28-0.32,11.32c-0.02,0.52,0.39,0.96,0.91,0.97
					C145.26,190.13,145.27,190.13,145.28,190.13z"/>
				
					<linearGradient id="SVGID_18_" gradientUnits="userSpaceOnUse" x1="-1836.9136" y1="179.4074" x2="-1867.0433" y2="223.1897" gradientTransform="matrix(-1 0 0 1 -1696.4536 0)">
					<stop  offset="0" style="stop-color:#2B3582"/>
					<stop  offset="1" style="stop-color:#150E42"/>
				</linearGradient>
				<path class="st26" d="M143.24,189.66c0.26,0,0.47-0.21,0.47-0.47v-11.48c0-0.26-0.21-0.47-0.47-0.47
					c-0.26,0-0.47,0.21-0.47,0.47v11.48C142.77,189.45,142.98,189.66,143.24,189.66z"/>
				
					<linearGradient id="SVGID_19_" gradientUnits="userSpaceOnUse" x1="-1835.988" y1="180.0444" x2="-1866.1176" y2="223.8263" gradientTransform="matrix(-1 0 0 1 -1696.4536 0)">
					<stop  offset="0" style="stop-color:#2B3582"/>
					<stop  offset="1" style="stop-color:#150E42"/>
				</linearGradient>
				<path class="st27" d="M141.6,189.66c0.26,0,0.47-0.2,0.47-0.46c0.09-3.99,0.3-10.51,0.49-11.29c0.08-0.15,0.08-0.34-0.02-0.49
					c-0.14-0.22-0.43-0.28-0.65-0.14c-0.26,0.17-0.5,0.33-0.76,11.89c-0.01,0.26,0.2,0.48,0.46,0.48H141.6z"/>
				
					<linearGradient id="SVGID_20_" gradientUnits="userSpaceOnUse" x1="-1844.6062" y1="174.1136" x2="-1874.736" y2="217.8956" gradientTransform="matrix(-1 0 0 1 -1696.4536 0)">
					<stop  offset="0" style="stop-color:#2B3582"/>
					<stop  offset="1" style="stop-color:#150E42"/>
				</linearGradient>
				<path class="st28" d="M154.46,190.71c0.5,0,0.91-0.39,0.94-0.89l0.63-12.06c0.03-0.52-0.37-0.96-0.89-0.99
					c-0.49-0.03-0.96,0.37-0.99,0.89l-0.63,12.06c-0.03,0.52,0.37,0.96,0.89,0.99C154.43,190.71,154.45,190.71,154.46,190.71z"/>
			</g>
		</g>
		<g>
			<path class="st6" d="M124.95,160.39c4.88,0.09,8.89-3.84,8.89-8.73v-38.83c0-5.1-4.1-9.25-9.2-9.31
				c-15.31-0.17-46.89-0.18-72.73,2c-3.53,0.3-6.27,3.19-6.4,6.72l-2.41,37.54c-0.18,4.97,3.75,9.11,8.71,9.21L124.95,160.39z"/>
			<path class="st4" d="M124.98,117.03c0.07,3.3-0.03,8.55-0.11,11.93c-0.04,1.76-1.59,3.11-3.34,2.9l-12.6-1.48
				c-1.68-0.2-2.86-1.74-2.61-3.42l1.55-10.32c0.22-1.46,1.48-2.55,2.96-2.55h11.17C123.61,114.11,124.94,115.4,124.98,117.03z"/>
			<path class="st21" d="M92.05,136.58l-10.51,1.13c-1.47,0.16-2.73-1.05-2.62-2.53l2.3-31.27c4.41-0.14,8.75-0.24,12.95-0.31v30.62
				C94.16,135.44,93.25,136.45,92.05,136.58z"/>
			<path class="st4" d="M87.74,131.17c-0.03,0.56-0.5,1-1.05,1c-0.02,0-0.04,0-0.06,0c-0.58-0.03-1.03-0.53-0.99-1.12l1.58-27.29
				c0.71-0.02,1.42-0.03,2.12-0.05L87.74,131.17z"/>
			<g>
				
					<linearGradient id="SVGID_21_" gradientUnits="userSpaceOnUse" x1="-1811.6135" y1="116.0392" x2="-1834.1687" y2="148.8146" gradientTransform="matrix(-1 0 0 1 -1696.4536 0)">
					<stop  offset="0" style="stop-color:#2B3582"/>
					<stop  offset="1" style="stop-color:#150E42"/>
				</linearGradient>
				<path class="st29" d="M119.15,126.88c0.18,0,0.34-0.14,0.35-0.33l0.55-8.6c0.01-0.19-0.13-0.36-0.33-0.37
					c-0.2-0.02-0.36,0.14-0.37,0.33l-0.55,8.6c-0.01,0.19,0.13,0.36,0.33,0.37C119.13,126.88,119.14,126.88,119.15,126.88z"/>
				
					<linearGradient id="SVGID_22_" gradientUnits="userSpaceOnUse" x1="-1810.8025" y1="116.5974" x2="-1833.3577" y2="149.3728" gradientTransform="matrix(-1 0 0 1 -1696.4536 0)">
					<stop  offset="0" style="stop-color:#2B3582"/>
					<stop  offset="1" style="stop-color:#150E42"/>
				</linearGradient>
				<path class="st30" d="M118.03,126.88c0.19,0,0.35-0.15,0.35-0.34l0.29-8.76c0.01-0.19-0.15-0.36-0.34-0.36
					c-0.22-0.01-0.36,0.15-0.36,0.34l-0.29,8.76c-0.01,0.19,0.15,0.36,0.34,0.36C118.01,126.88,118.02,126.88,118.03,126.88z"/>
				
					<linearGradient id="SVGID_23_" gradientUnits="userSpaceOnUse" x1="-1809.824" y1="117.2708" x2="-1832.3792" y2="150.0462" gradientTransform="matrix(-1 0 0 1 -1696.4536 0)">
					<stop  offset="0" style="stop-color:#2B3582"/>
					<stop  offset="1" style="stop-color:#150E42"/>
				</linearGradient>
				<path class="st31" d="M116.51,126.88c-0.19-0.01-0.34-0.17-0.34-0.37c0.14-2.94,0.41-8.56,0.41-8.75c0-0.19,0.16-0.35,0.35-0.35
					c0.19,0,0.35,0.16,0.35,0.35c0,0.15-0.34,7.34-0.41,8.78c-0.01,0.19-0.16,0.34-0.35,0.34
					C116.52,126.88,116.51,126.88,116.51,126.88z M116.57,117.77L116.57,117.77L116.57,117.77z"/>
				
					<linearGradient id="SVGID_24_" gradientUnits="userSpaceOnUse" x1="-1808.1313" y1="118.4356" x2="-1830.6865" y2="151.2109" gradientTransform="matrix(-1 0 0 1 -1696.4536 0)">
					<stop  offset="0" style="stop-color:#2B3582"/>
					<stop  offset="1" style="stop-color:#150E42"/>
				</linearGradient>
				<path class="st32" d="M114.17,127.23c0.38,0,0.69-0.3,0.7-0.68c0.3-8.49,0.25-8.68,0.21-8.81c-0.1-0.38-0.49-0.6-0.87-0.49
					c-0.34,0.09-0.56,0.43-0.51,0.77c0.02,0.51-0.13,5.45-0.24,8.48c-0.01,0.39,0.29,0.72,0.68,0.73
					C114.16,127.23,114.16,127.23,114.17,127.23z"/>
				
					<linearGradient id="SVGID_25_" gradientUnits="userSpaceOnUse" x1="-1807.0153" y1="119.2036" x2="-1829.5704" y2="151.979" gradientTransform="matrix(-1 0 0 1 -1696.4536 0)">
					<stop  offset="0" style="stop-color:#2B3582"/>
					<stop  offset="1" style="stop-color:#150E42"/>
				</linearGradient>
				<path class="st33" d="M112.64,126.88c0.19,0,0.35-0.16,0.35-0.35v-8.6c0-0.19-0.16-0.35-0.35-0.35c-0.19,0-0.35,0.16-0.35,0.35
					v8.6C112.29,126.72,112.45,126.88,112.64,126.88z"/>
				
					<linearGradient id="SVGID_26_" gradientUnits="userSpaceOnUse" x1="-1806.3224" y1="119.6805" x2="-1828.8774" y2="152.4557" gradientTransform="matrix(-1 0 0 1 -1696.4536 0)">
					<stop  offset="0" style="stop-color:#2B3582"/>
					<stop  offset="1" style="stop-color:#150E42"/>
				</linearGradient>
				<path class="st34" d="M111.41,126.88c0.19,0,0.35-0.15,0.35-0.34c0.07-2.99,0.23-7.86,0.37-8.45c0.06-0.11,0.06-0.25-0.01-0.37
					c-0.11-0.16-0.32-0.21-0.49-0.1c-0.19,0.13-0.37,0.25-0.57,8.9C111.05,126.71,111.21,126.88,111.41,126.88L111.41,126.88z"/>
				
					<linearGradient id="SVGID_27_" gradientUnits="userSpaceOnUse" x1="-1812.774" y1="115.2406" x2="-1835.3291" y2="148.0159" gradientTransform="matrix(-1 0 0 1 -1696.4536 0)">
					<stop  offset="0" style="stop-color:#2B3582"/>
					<stop  offset="1" style="stop-color:#150E42"/>
				</linearGradient>
				<path class="st35" d="M121.04,127.66c0.37,0,0.68-0.29,0.7-0.67l0.47-9.03c0.02-0.39-0.28-0.72-0.67-0.74
					c-0.37-0.03-0.72,0.28-0.74,0.67l-0.47,9.03c-0.02,0.39,0.28,0.72,0.67,0.74C121.02,127.66,121.03,127.66,121.04,127.66z"/>
			</g>
		</g>
		
			<linearGradient id="SVGID_28_" gradientUnits="userSpaceOnUse" x1="338.7" y1="212.016" x2="375.7429" y2="386.4598" gradientTransform="matrix(-0.9937 -0.1123 -0.1123 0.9937 415.2338 -76.2524)">
			<stop  offset="0" style="stop-color:#F9B776"/>
			<stop  offset="1" style="stop-color:#F47960"/>
		</linearGradient>
		<path class="st36" d="M39.66,125.97c2.15-0.53,6.97-7.06,7.49-4.67c0.51,2.39-0.94,5.41-0.73,6.42c0.22,1.01,1.84,6.7,0.55,9.08
			c-0.93,1.72-2.75,7.13-3.69,10.01c-0.31,0.96-0.57,2.22-1.57,2.11c-1-0.11-1.77-1.46-1.87-2.46
			C39.8,146.06,37.51,126.5,39.66,125.97z"/>
		<g>
			<path class="st16" d="M193.58,134.03c-2.65-6.07-11.08-13.46-11.52-13.6c-3.66,13.44-10.11,24.54-11.49,38.09
				c9.04,16.61,6.97,36.19,1.32,45.71c2.78,4.12,6.02,9.74,8.84,16.72C215.49,200.15,201.73,152.72,193.58,134.03z"/>
			
				<linearGradient id="SVGID_29_" gradientUnits="userSpaceOnUse" x1="-6850.9336" y1="180.3246" x2="-6872.812" y2="213.1425" gradientTransform="matrix(-1 0 0 1 -6731.8828 0)">
				<stop  offset="0" style="stop-color:#F9B776"/>
				<stop  offset="1" style="stop-color:#F47960"/>
			</linearGradient>
			<path class="st37" d="M148.93,236.01l-30.1-0.66c0,0,26.25-7.42,27.87-5.4c0,0,16.27-10.69,25.18-25.73
				c2.78,4.12,6.02,9.74,8.84,16.72C172.74,225.65,162.24,233.8,148.93,236.01z"/>
			<linearGradient id="SVGID_30_" gradientUnits="userSpaceOnUse" x1="162.6959" y1="185.6253" x2="141.2575" y2="217.7827">
				<stop  offset="0" style="stop-color:#F9B776"/>
				<stop  offset="1" style="stop-color:#F47960"/>
			</linearGradient>
			<path class="st38" d="M149.78,230.8c0,0,0.62,11.99-15.12,10.25c-8.56-0.95-22.37-8.92-22.37-8.92S148.29,232.03,149.78,230.8z"
				/>
		</g>
	</g>
</g>
</svg>
