<?xml version="1.0" encoding="utf-8"?>
<!-- Generator: Adobe Illustrator 25.0.0, SVG Export Plug-In . SVG Version: 6.00 Build 0)  -->
<svg version="1.1" id="Layer_1" xmlns="http://www.w3.org/2000/svg" xmlns:xlink="http://www.w3.org/1999/xlink" x="0px" y="0px"
	 viewBox="0 0 450 450" style="enable-background:new 0 0 450 450;" xml:space="preserve">
<style type="text/css">
	.st0{clip-path:url(#SVGID_2_);}
	.st1{fill:#FCFCFC;}
	.st2{opacity:0.12;fill:url(#SVGID_3_);}
	.st3{fill:#9BC1F9;}
	.st4{fill:#466EB6;}
	.st5{fill:#86B1F2;}
	.st6{fill:#F7CC7F;}
	.st7{fill:#F47458;}
	.st8{fill:#FAE0B2;}
	.st9{fill:#56CD93;}
	.st10{fill:#FF7446;}
	.st11{fill:#001653;}
	.st12{fill:#957447;}
	.st13{fill:#F25C12;}
	.st14{fill:#E6A500;}
	.st15{fill:#021F6E;}
	.st16{fill:#021753;}
	.st17{fill:#5D70A2;}
	.st18{fill:#FCC332;}
	.st19{opacity:0.6;fill:#B5450E;}
	.st20{fill:#00424C;}
	.st21{fill:#F29913;}
	.st22{fill:#50BFA5;}
	.st23{fill:#100062;}
	.st24{fill:#0C004A;}
	.st25{fill:#FCB500;}
	.st26{fill:#FC9700;}
	.st27{fill:#F7A491;}
	.st28{fill:#184655;}
	.st29{fill:#355389;}
	.st30{fill:#F8A492;}
	.st31{fill:#3C8F7C;}
	.st32{fill:#FE875E;}
	.st33{fill:#13375B;}
	.st34{fill:#60E99C;}
</style>
<g>
	<defs>
		<circle id="SVGID_1_" cx="225" cy="225" r="225"/>
	</defs>
	<clipPath id="SVGID_2_">
		<use xlink:href="#SVGID_1_"  style="overflow:visible;"/>
	</clipPath>
	<g class="st0">
		<g>
			
				<rect x="-105.33" y="-8.65" transform="matrix(-1 -1.224647e-16 1.224647e-16 -1 418.3081 438.3796)" class="st1" width="628.97" height="455.68"/>
			<linearGradient id="SVGID_3_" gradientUnits="userSpaceOnUse" x1="-54.0654" y1="220.1229" x2="482.5299" y2="220.1229">
				<stop  offset="0" style="stop-color:#5BDB98"/>
				<stop  offset="1" style="stop-color:#60E99C"/>
			</linearGradient>
			<path class="st2" d="M16.63,76.33c-120.89,117.26-50.09,341.05-50.09,341.05l477.32,0.97c0,0,88.94-159.19-2.95-288.55
				C356.05,10.36,109.31-13.57,16.63,76.33z"/>
		</g>
		<g>
			
				<rect x="-25.19" y="76.33" transform="matrix(-1 -1.224647e-16 1.224647e-16 -1 96.6168 490.8303)" class="st3" width="147" height="338.17"/>
			<g>
				
					<rect x="64.13" y="56.35" transform="matrix(-1 -1.224647e-16 1.224647e-16 -1 137.8797 470.9547)" class="st4" width="9.61" height="358.25"/>
				<g>
					<path class="st5" d="M64.15,56.36c0,0.91,0.07,358.1,0.07,358.1h-88.97V76.11L64.15,56.36z"/>
					<path class="st3" d="M-14.58,105.76l0.44,94.57c0.37-0.05,0.75-0.07,1.11-0.07c4.86,0,8.93,3.94,8.96,8.93l49.38-6.08
						c-0.02-4.55,3.36-8.39,7.88-8.95l-0.44-98.99c-0.63,0.13-1.27,0.2-1.88,0.2c-4.81,0-8.93-3.9-8.96-8.94L-7.47,96.94
						C-7.45,101.2-10.42,104.88-14.58,105.76z M-11.11,108.21c3.4-1.62,5.91-4.73,6.77-8.4l43.51-9.25
						c1.55,4.35,5.44,7.59,10.14,8.18l0.42,92.78c-3.71,1.46-6.5,4.64-7.49,8.5l-43.47,5.35c-1.39-4.24-5.02-7.49-9.47-8.34
						L-11.11,108.21z"/>
					<path class="st3" d="M-14.42,278.1l0.2,112.71c0.01,0,0.01,0,0.02,0c4.95,0,8.96,4.01,8.97,8.96l12.9-0.02
						c0-4.95,4.01-8.97,8.96-8.97V276.95c-0.26,0.02-0.52,0.03-0.78,0.03c-4.9,0-8.96-3.98-8.96-8.98l-13.1,1.13
						C-6.21,273.81-9.78,277.7-14.42,278.1z M-10.97,280.84c3.79-1.39,6.72-4.59,7.78-8.49L4,271.73c1.32,4.21,4.82,7.47,9.18,8.42
						v107.66C9.1,389,5.88,392.23,4.7,396.3l-6.98,0.01c-1.19-4.08-4.42-7.3-8.5-8.47L-10.97,280.84z"/>
					<path class="st3" d="M22.38,274.91v115.82h0.02c4.96,0,8.97,4.02,8.97,8.97l10.54-0.02c0.04-4.92,4.03-8.9,8.96-8.91L51.76,274
						c-0.26,0.02-0.52,0.03-0.78,0.03c-4.92,0-9-4.02-8.96-9.04l-11.43,0.99C30.58,270.63,27.02,274.51,22.38,274.91z M25.83,277.67
						c3.85-1.37,6.76-4.54,7.79-8.5l5.48-0.47c0.58,1.9,1.62,3.65,3.06,5.1c1.7,1.72,3.82,2.88,6.12,3.38l-0.85,110.63
						c-4.05,1.18-7.27,4.38-8.47,8.42l-4.63,0.01c-1.18-4.08-4.41-7.31-8.5-8.49V277.67z"/>
				</g>
			</g>
			<g>
				<ellipse class="st6" cx="43.83" cy="235.6" rx="3.62" ry="7.03"/>
				<path class="st7" d="M36.81,233.12v5.54h7.6c0.22-0.91,0.35-1.94,0.35-3.02c0-0.89-0.09-1.74-0.24-2.53H36.81z"/>
				<path class="st8" d="M31.58,235.6c0,5.85,2.45,10.6,5.46,10.6c3.02,0,5.46-4.74,5.46-10.6c0-5.85-2.45-10.6-5.46-10.6
					C34.02,225,31.58,229.74,31.58,235.6z"/>
				<ellipse class="st8" cx="35.58" cy="235.6" rx="5.46" ry="10.6"/>
			</g>
			<g>
				<path class="st9" d="M-55.57,421.48h529.45c1.34,0,2.43-1.59,2.43-3.56c0-1.96-1.09-3.56-2.43-3.56H-55.57
					c-1.34,0-2.43,1.59-2.43,3.56C-58.01,419.88-56.92,421.48-55.57,421.48z"/>
			</g>
			<g>
				<path class="st10" d="M411.65,397.73c0,0,0.04,0.34,0.04,0.91c0,1.71-0.33,5.47-3,8.24c-3.56,3.7-3.58,8.3,0.18,9.09
					c3.76,0.79,12.72-0.25,12.72-0.25s2.03-3.52,0.64-12.92c-1.38-9.4-2.19-19.71-2.19-19.71l-10.21-1.59L411.65,397.73z"/>
				<path class="st11" d="M409.65,401.72c0,0-3.79,5.14-4.67,7.28c-0.89,2.14-0.7,7.48,0,8.03c6.12,4.83,17.73,0.48,17.73,0.48
					s0.8-3.55,1.2-7.9c0.4-4.35,0.18-8.41-1.2-8.41c-1.38,0-1.62,2.28-4.76,1.64C414.81,402.21,412.87,401.08,409.65,401.72z"/>
				<path class="st1" d="M423.67,411.79c-2.36,0.92-5.56,2-8.54,2.43c-3.18,0.45-7.46-0.96-10.69-2.38
					c-0.17,2.28,0.07,4.83,0.54,5.2c6.12,4.83,17.73,0.48,17.73,0.48S423.26,415.09,423.67,411.79z"/>
				<path class="st12" d="M423.67,411.79c-8.78,2.64-10.4,3.11-19.24,0.04c1.47,0.79,3.02,1.45,4.62,1.95
					c3.4,1.05,5.4,0.96,7.52,0.49C419.1,413.7,421.48,412.85,423.67,411.79z"/>
				<path class="st13" d="M309.52,237.8c2.51,0.95,5.84,2.35,5.84,2.35c0.43-1.04-7.86-2.81-9.03-5.34
					c-0.62-1.35,9.52,3.62,10.22,3.03c0.29-0.25-11.47-4.08-10.93-5c0.46-0.78,12.37,3.42,12.43,2.84
					c0.09-0.81-10.31-2.89-9.38-4.06c0.48-0.6,13.11,2.82,14.47,3.02c1.67,0-4.37-4.1-2.31-4.65c2.79-0.74,9.8,7.29,10.35,7.4
					c1.59,0.33,15.1,1.98,21.71-2.34c5.34-3.49,10.53-8.87,11.79-13.49c1.24-4.54,2.97-11.02,1.49-16.01
					c6.02-0.92,11.85-1.13,17.96-0.4c0.37,7.51-8.62,37.25-12.37,39.69c-8.27,5.38-23.01,4.07-33.41,3.21
					c-8.38-0.69-16.59-2.34-24.13-6.17c-1.69-0.86-3.95-1.82-5.25-3.31C308.64,238.21,309.04,237.62,309.52,237.8z"/>
				<path class="st14" d="M369.94,180.37c-4.48,4.63-9,32.34-7.34,38.94c2.87,5.37,15.89,6.29,20.09,8.84
					c9.71-3.99,3.06-21.89,3.06-21.89l3.54-34.87C389.3,171.39,378.47,171.56,369.94,180.37z"/>
				<path class="st10" d="M382.19,391.53c1.33,4.17,0.02,8.75-3.38,11.51c-1.17,0.95-2.53,1.84-4.07,2.51
					c-5.95,2.6-13.65,2.02-14.72,7.35c-1.07,5.34,37.71-1.5,37.71-1.5s-2.69-12.99-2.86-15.16c-0.17-2.17,0.24-10.16,0.24-10.16
					L380.11,385L382.19,391.53z"/>
				<path class="st11" d="M396.14,402.21c0,0,0.47,2.06,1.56,5.56c1.09,3.5,0.41,6.79,0.41,6.79s-36.32,1.72-37.79,0.57
					c-1.47-1.15-0.72-5.34-0.34-5.71c0.37-0.37,4.98-1.62,7.35-3.07c2.36-1.46,10.44-6.98,13.17-6.75c2.73,0.22,3.99,2.24,9.17,2.47
					C394.83,402.29,394.85,401.21,396.14,402.21z"/>
				<path class="st1" d="M360.31,415.13c1.47,1.15,37.79-0.57,37.79-0.57s0.44-2.16,0.04-4.84c-18.96,3.51-38.17-0.3-38.17-0.3
					C359.6,409.79,358.84,413.98,360.31,415.13z"/>
				<path class="st12" d="M398.15,409.72c-12.95,2.59-27.3,2.04-38.17-0.3c19.77,2.99,35.71,0.67,34.61,0.78
					C394.63,410.2,398.38,409.69,398.15,409.72z"/>
				<path class="st15" d="M426.2,265.67c6.23,22.79-1.51,125.01-1.51,125.01l-18.66-1.28c0,0-4.24-101.69-7.32-104.77
					c-0.9-0.9-1.87-0.62-2.61-0.1c-0.75,0.52-1.28,1.3-1.54,2.17c-1.92,6.27-12.89,42.8-10.68,50.8
					c2.42,8.76,13.23,55.68,13.23,55.68l-15.66,0.63c0,0-21.46-35.84-21.46-60.87s3.49-58.19,13.63-71.69
					c4.62-6.14,27.35-10.89,27.35-10.89S424.25,258.55,426.2,265.67z"/>
				<g>
					<path class="st16" d="M392.48,393.13c0,0-10.81-50.03-13.23-59.37c-1.76-6.78,4.82-32.79,8.55-46.53
						c1.12-4.12,6.07-5.78,9.46-3.17l0,0c0,0-15.81,44.68-13.38,53.43c2.42,8.76,13.23,55.68,13.23,55.68l-15.66,0.63
						c0,0-0.04-0.07-0.11-0.19L392.48,393.13z"/>
					<path class="st16" d="M422.33,260.94c2,1.56,3.45,3.17,3.87,4.73c6.23,22.79-1.51,125.01-1.51,125.01l-4.62-0.32
						C420.33,386.67,427.03,290.45,422.33,260.94z"/>
				</g>
				<path class="st16" d="M370.04,267.35c1.09-2.32,2.28-4.38,3.58-6.11c0.54-0.71,1.32-1.41,2.28-2.08
					c2.59,1.32,6.18,2.77,11.14,4.3c14.96,4.6,31.08,2.15,37.78-0.19c0.68,0.8,1.16,1.61,1.38,2.4c0.54,1.98,0.98,4.55,1.32,7.6
					c-3.35,2.49-22.79,8.5-40.48,2.87C375.81,272.57,371.62,270.4,370.04,267.35z"/>
				<path class="st17" d="M424.69,398.42c-4.78,1.55-16.29,1.17-19.03,0c-2.53-1.08-2.71-10.5,0-11.01c3.8-0.72,14.57-0.64,19.03,0
					C427.41,387.8,427.3,397.57,424.69,398.42z"/>
				<path class="st17" d="M396.31,394.21c-4.78,1.55-16.29,1.17-19.04,0c-2.53-1.08-2.7-10.5,0-11.01c3.8-0.72,14.57-0.64,19.04,0
					C399.04,383.59,398.93,393.36,396.31,394.21z"/>
				<path class="st18" d="M403.44,170.61c0,0,15.56-0.8,21.92,6.74c6.36,7.54,5.84,86.7,3.27,88.91
					c-2.57,2.21-24.69,8.88-42.25,3.68c-17.56-5.2-18.68-12.33-18.68-12.33s4.67-53.24,4.67-67.79
					C372.37,175.26,386.57,166.69,403.44,170.61z"/>
				<path class="st14" d="M417.17,250.8c1.38-3.82-0.1-15.98-1.66-24.78c-1.22,0.23-2.4,0.51-3.52,0.83
					c-1.88-5.82-3.54-20.92-3.59-30.41c-0.1-17.81,8.91-22.99,8.91-22.99c1.79-0.41,4.64,1.27,9.11,5.93
					c5.16,14.12,4.08,79.82,1.66,81.89c-1.03,0.89-3.05,6.44-8.25,7.54C418.48,263.51,415.89,254.33,417.17,250.8z"/>
				<path class="st14" d="M404.78,170.77c3.37,3.1,3.64,3.16,0.13,7.23c-3.51,4.07-15.11,8.7-16.77,7.91
					c-4.11-1.94-0.29-8.41,2.45-13.07C391.45,171.39,401.41,167.67,404.78,170.77z"/>
				<path class="st13" d="M389.7,159.05c0,0-0.91,21.43,0,22.36c0.91,0.94,13.93-3.6,15.07-6.26c1.14-2.66-4.75-41.39-4.75-41.39
					L389.7,159.05z"/>
				<path class="st19" d="M389.31,173.17c2.3-0.41,4.28-1,4.87-1.66c5.31-6,1.33-15.74,1.75-18.27c0.83-5.04,2.52-9.2,1.67-13.55
					l-7.9,19.34C389.7,159.05,389.37,166.79,389.31,173.17z"/>
				<g>
					<path class="st20" d="M319.88,183.39c-0.89,2.23,0.96,4.39,2.88,3.44c0.45-0.23,0.8-0.63,0.99-1.1
						c0.89-2.23-0.96-4.4-2.88-3.44C320.41,182.51,320.07,182.92,319.88,183.39z"/>
					<path class="st20" d="M321.07,184.46l0.66,0.92l0.4-1.11c0.52-1.44,4.94-14.18,0.06-17.08c-1.44-0.86-2.8-0.58-3.73,0.75
						C316.33,171.02,316.99,178.73,321.07,184.46z M319.44,168.86c0.45-0.65,1.01-0.85,1.7-0.61c0.16,0.06,0.32,0.13,0.49,0.23
						c2.97,1.76,1.1,9.88-0.24,14.06C318.12,177.25,317.98,170.95,319.44,168.86z"/>
					<g>
						<path class="st20" d="M321.69,183.75l1.02,0.22c0.93,0.2,1.85,0.29,2.75,0.29c4.53,0,8.49-2.34,9.45-5.05
							c0.51-1.44,0.1-2.8-1.11-3.75c-4.07-3.16-10.72,6.26-11.46,7.35L321.69,183.75z M324.02,182.73c1.9-2.53,5.42-6.47,7.89-6.47
							c0.44,0,0.84,0.12,1.19,0.4c0.72,0.56,0.93,1.22,0.66,2C333,180.81,328.84,183.31,324.02,182.73z"/>
					</g>
					<path class="st18" d="M309.81,240.09h20.08c14.71,0,26.63-11.92,26.63-26.63v-2.08c0-14.71-11.92-26.63-26.63-26.63h-20.08
						c-14.71,0-26.63,11.92-26.63,26.63v2.09C283.18,228.17,295.1,240.09,309.81,240.09z"/>
					<path class="st21" d="M287.98,184.75h22.92v55.34h-22.92c-2.65,0-4.8-3.43-4.8-7.67v-40
						C283.18,188.18,285.33,184.75,287.98,184.75z"/>
					<path class="st20" d="M331.52,184.75h1.81c9.78,17.66,3.79,48.6,2.31,55.34h-1.41c1.01-4.54,8-38.19-2.63-55.18
						C331.57,184.86,331.54,184.8,331.52,184.75z"/>
					<path class="st20" d="M297.69,239.88c0.01,0.07,0.01,0.14,0.01,0.21h-1.34c-3.95-31.53,0.41-48.21,3.35-55.34h1.66
						C298.7,190.71,293.56,207.14,297.69,239.88z"/>
				</g>
				<g>
					<path class="st22" d="M411.85,299.93h35.08c3.8,0,6.87-3.08,6.87-6.87V274c0-3.8-3.08-6.87-6.87-6.87h-35.08
						c-3.8,0-6.87,3.08-6.87,6.87v19.05C404.98,296.85,408.06,299.93,411.85,299.93z"/>
					
						<rect x="406.84" y="270.91" transform="matrix(-1 -1.224647e-16 1.224647e-16 -1 855.0388 567.0568)" class="st1" width="41.35" height="25.24"/>
					<path class="st21" d="M406.12,290.74L406.12,290.74c1.2,0,2.18-0.98,2.18-2.18v-10.07c0-1.2-0.98-2.18-2.18-2.18l0,0
						c-1.2,0-2.18,0.98-2.18,2.18v10.07C403.94,289.77,404.91,290.74,406.12,290.74z"/>
				</g>
				<path class="st13" d="M420.92,250.8c-3.08,9.37,7.76,29.63,3.36,36.11c-4.4,6.48-2.19,13.29,3.15,16.67
					c5.33,3.38,11.97-1.36,11.43-3.92c-0.53-2.57-1.97-9.49-2.63-12.65c-0.66-3.16,11.75-28.5,3.02-43.86
					c-5.18-9.12,2.48-24.81-1.57-34.95c-3.62,6.75-20.77,2.53-19.79,9.94C419.45,224.46,422.65,245.53,420.92,250.8z"/>
				<path class="st10" d="M382.06,136.83c0,0-2.23,7.69-2.23,14c0,6.31,0.15,17.23,4.62,17.23s10.87-1.23,12.36-10.15
					c1.49-8.92,0-18.76-4.47-21.07C387.87,134.52,382.06,136.83,382.06,136.83z"/>
				<path class="st23" d="M383.8,142.51c1.2-0.5,2.44,0.58,2.21,1.89c-0.37,2.11-0.28,4.42,1.69,4.9c3.8,0.93,5.59,0,6.21,0.64
					c0.62,0.64-1.79,4.06,0,4.71c1.79,0.64,2.76-5.49,4.35-5.49c1.59,0,1.93,8.84,0,10.84c-1.93,2,0.28,4.71,2.83,4.71
					c2.55,0-0.32,3.21,3.12,4.28c3.44,1.07,6.2,1.07,7.3-3.28s0-6.77,0-6.77s3.52-4.11,2.62-8.17c-0.5-2.26-2.78-6.32-2.78-6.32
					s-1.77-4.82-2.26-7.6c-0.48-2.78-7.33-5.56-12.01-6.06c-4.69-0.5-2.34-3.35-6.27-3.35c-3.93,0-4.47,5.2-4.47,5.2
					s-5.62-3.36-5.88-3.2c-3.27,1.99-0.55,5.49-0.55,5.49s-2.69,0.29-3.24,3.78c-0.55,3.49,1.73,5.63,5.31,4.49
					C382.66,142.96,383.27,142.73,383.8,142.51z"/>
				<path class="st24" d="M379.92,129.81c0.69,0.1,1.6,0.32,2.7,0.64c1.68,0.94,3.73,2.16,3.73,2.16s7.33,2.05,11.53,4.05
					c5.39,2.57,10.1,5.14,13.27,7.17c0.13,0.37,0.21,0.59,0.21,0.59s0.84,1.49,1.61,3.17c-3.34-0.73-9.85-3.24-17.12-6.7
					C387.66,136.99,379.45,130.2,379.92,129.81z"/>
				<path class="st10" d="M395.78,148.68c0,0,1.9-3.49,3.59-1.54c1.69,1.95,0.8,10.2-1.79,10.2
					C394.98,157.33,394.86,150.89,395.78,148.68z"/>
				<path class="st18" d="M416.83,173.62c0,0-5.29,4.03-5.2,21.84c0.05,9.49,2.84,25.58,4.55,31.4c7.13-2.25,17.18-2.4,24.46,0
					c0.98-7.77-1-24.35-2.24-29.71C435.37,183.98,424.39,170.61,416.83,173.62z"/>
				<path class="st25" d="M384.81,130.74c3.52-7.38,12.41-10.49,19.87-6.94c7.45,3.55,10.64,12.42,7.12,19.8
					c-0.14,0.28-0.28,0.56-0.43,0.83l-26.93-12.84C384.55,131.31,384.67,131.02,384.81,130.74z"/>
				<path class="st18" d="M390.4,134.1c0.12-0.29,0.24-0.58,0.37-0.86c2.94-6.17,9.63-9.35,16.1-8.16c-0.69-0.48-1.42-0.91-2.2-1.29
					c-7.45-3.55-16.35-0.45-19.87,6.94c-0.14,0.28-0.26,0.57-0.37,0.86l26.93,12.84C411.41,144.34,390.4,134.1,390.4,134.1z"/>
				<path class="st26" d="M372.41,126.23c0.29-0.6,14.31,5.12,23.27,9.39c8.96,4.27,16,8.22,15.71,8.83
					c-0.29,0.6-15.16-2.89-24.12-7.16C378.31,133.01,372.12,126.83,372.41,126.23z"/>
			</g>
			<g>
				<path class="st27" d="M107.28,391.14c0,0-3.17,3.13-3.24,4.28c-0.07,1.15-0.28,13.47,1.01,14.62c1.29,1.15,5.09,1.97,3.87,3.26
					c-0.92,0.98-8.03,0.77-12.73,0.51c-1.37-0.08-3.1-11.19-3.64-12.82c-0.79-2.37-3.29-8.34-2.57-9.99
					c0.35-0.81,2.6-1.84,4.96-3.38c2.48-1.63,4.86-5.25,4.86-5.25L107.28,391.14z"/>
				<path class="st27" d="M149.67,398.83c0,0-2.84,8.12-2.84,8.14c-0.21,1.29-1.04,4.47-1.04,5.63c0,4.39,19.55-3.73,15.17-5.68
					c-0.4-0.18-1.64-1.58-1.77-3.08c-0.2-2.3,1.65-5.19,1.65-5.19L149.67,398.83z"/>
				<g>
					<path class="st28" d="M148.04,254.05l-10.12,11.81L128,327.63l-31.23,57.62c0,0,4.7,7.21,9.74,8.34l44.33-58.24l24.02-72.91
						l-0.84-16.2L148.04,254.05z"/>
					<path class="st29" d="M173.38,242.66l6.99,21.57c0,0,6.16,64.26,5.28,68.69c-2.14,10.8-23.73,69.6-23.73,69.6l-13.83-1.76
						l15.18-69.53l-25.29-65.32L173.38,242.66z"/>
				</g>
				<path class="st30" d="M240.53,169.22c-3.27,3.61-2.56,4.04-2.99,4.49c-0.51,0.53-10,2.56-10,2.56s-27.93,6.15-29.45,6.43
					l-28.98-6.59l-7.06,14.04c0,0,31.7,6.3,33.41,6.32c1.71,0.03,38.49-12.89,41.76-13.92c0,0,4.36,0.28,7.1,0.37
					c2.74,0.08,5.36-1.11,6.13-1.21c0.11-0.01,2.67-0.5,5.65-1.99c2.57-1.28-0.44-1.3-0.44-1.3s-5.18,1.47-5.22,1.02
					c-0.04-0.34,2.84-0.97,5.7-2.35c0.74-0.35,1.46-0.71,2.12-1.04c1.74-0.87,1.71-2.23-0.25-1.63c-0.69,0.21-1.83,0.59-2.61,0.99
					c-0.84,0.43-1.74,0.53-2.5,0.78c-1.51,0.48-2.6,0.86-2.58,0.78c0.02-0.1-0.35-0.22,0.42-0.63c0.92-0.48,3.11-1.05,4.42-1.88
					c0.74-0.47,2.34-1.34,2.34-1.34s2.68-1.75,2.42-2.11c-0.57-0.79-2.44,0.01-3.37,0.78c-0.83,0.17-2.5,1.14-2.5,1.14
					s-3.79,1.17-3.96,0.61c-0.07-0.22,1.89-1.36,3.84-2.71c2.07-1.43,3.49-2.57,3.29-3.03c-0.31-0.73-2.05,0.29-2.05,0.29
					s-1.53,0.9-2.07,1.16c-0.62,0.3-2.56,1.06-2.56,1.06s-6.86,2.3-6.98,1.75c-0.12-0.54,0.1-2.06,0.48-2.36
					c0.38-0.3,1.34-0.46,1.72-0.76c0.38-0.3,1.12-1.01,0.8-1.53c-0.32-0.51-3.17,0.17-3.17,0.17S241.48,168.18,240.53,169.22z"/>
				<path class="st31" d="M179.04,177.6c0,0-1,6.16-1.64,8.43c-0.53,1.89-4.28,9.68-4.28,9.68s-13.44-4.41-19.79-6.92
					c-7.7-3.06-16.61-9.64-16.03-10.47c1.62-2.34,4.24-5.07,7.94-5.99C158.03,169.12,179.04,177.6,179.04,177.6z"/>
				<path class="st9" d="M180.59,263.78c-12.82,5.06-42.95,2.14-42.95,2.14s1.91-13.16,2.58-22.04c0.67-8.88-4.98-22.94-7.37-47.34
					c-0.51-5.17,1.52-19.15,8.77-23.53c2.55-1.54,4.11-1.74,4.11-1.74c0.07,0,9.98-2.02,15.04-0.46c1.44,1.28,5.92,4.98,8.49,9.3
					c3.39,5.73,6.17,12.33,6.82,14.51c2.92,9.67,4.16,37.69,4.16,42.97C180.26,242.86,180.59,263.78,180.59,263.78z"/>
				<path class="st27" d="M169.27,180.1c-0.01,0.01-0.02,0.01-0.03,0.01c-4.93,1.53-23.51-8.8-23.51-8.8l0.01-0.05l2.25-14.73
					c0,0,11.6-2.73,10.92,1.46c-0.67,4.18,1.57,12.55,1.57,12.55c0.07,0.08,0.17,0.16,0.29,0.26
					C162.22,172.08,166.7,175.78,169.27,180.1z"/>
				<path class="st32" d="M158.92,157.99c0.67-4.19-10.92-1.45-10.92-1.45l-0.19,1.23c0.34,0.82,0.75,1.52,1.26,2.06
					c2.59,2.77,6.64,4.43,10.14,4.56C158.85,162.12,158.64,159.7,158.92,157.99z"/>
				<g>
					<path class="st27" d="M145.75,133.88c-0.35-0.13-2.85,18.24,1.88,23.29c4.73,5.05,13.94,6.71,17.24,2.73
						c3.66-4.4,3.47-24.14-3.88-29.34C153.65,125.36,145.75,133.88,145.75,133.88z"/>
					<path class="st33" d="M158.2,120.73c-5.68,1.15-9.36,4.6-10.71,6.07c-2.58,0.3-6.09,1.72-9.71,7.67
						c-4.45,7.32-1.16,15.44,4.02,19.42c5.18,3.98,5.12,8.6,5.12,8.6s8.78-4.51,7.93-11.45c-0.36-2.91-1.62-3.57-0.67-5.86
						c0.98-2.37,0.25-6.05,0.43-9.25l0.53-2.02c0,0,3.68-2.84,7.28-2.04C166.01,132.68,165.49,119.25,158.2,120.73z"/>
					<path class="st27" d="M155.61,147.1c0.04,2.24-0.42,4.04-1.72,4.06c-1.3,0.02-1.67-0.86-2.75-4.02
						c-1.01-2.97,0.22-4.08,1.52-4.1C153.97,143.02,155.58,144.86,155.61,147.1z"/>
				</g>
				<path class="st31" d="M95.09,387.53c0,0,6.62,20.33,9.48,21.34c0.76,0.27,5.09,1.45,5.77,3.09c0.02,0.04,0.03,0.09,0.04,0.15
					c0.22,1.03-0.65,1.99-1.71,1.99H95.12c0,0-1.93-9.18-2.69-13.22c0,0-4.03-9.86-3.58-10.76
					C89.3,389.22,95.09,387.53,95.09,387.53z"/>
				<path class="st31" d="M144.68,414.06l2.24-7.17c0,0,4.7,2.02,7.05,1.68c2.35-0.34,6.94-1.68,6.94-1.68
					c9.38,3.13,17.07,4.65,15.67,7.17l0,0H144.68z"/>
				<path class="st30" d="M241.34,200.27c-4.32,2.62-4.06,2.93-4.63,3.25c-0.67,0.38-10.93-0.07-10.93-0.07s-30.25-1.13-31.88-1.25
					l-27.89-13.53l-10.99,11.61c0,0,30.76,13.93,32.5,14.39c1.74,0.45,42.86-2.65,46.49-2.81c0,0,4.38,1.36,7.17,2.13
					c2.78,0.77,5.79,0.29,6.6,0.38c0.12,0.01,2.87,0.19,6.32-0.48c2.97-0.57-0.1-1.35-0.1-1.35s-5.7,0.1-5.62-0.34
					c0.06-0.34,3.17-0.21,6.47-0.81c0.85-0.15,1.68-0.31,2.45-0.46c2.01-0.39,2.35-1.7,0.18-1.62c-0.77,0.03-2.04,0.11-2.94,0.29
					c-0.97,0.19-1.93,0.07-2.77,0.11c-1.67,0.08-2.79,0.16-2.76,0.1c0.04-0.09-0.39-0.3,0.5-0.49c1.08-0.23,3.47-0.23,5.02-0.68
					c0.88-0.26,2.76-0.69,2.76-0.69s2.23-1.33,2.21-1.51c-0.08-0.96-1.67-0.5-2.83,0c-0.9-0.05-2.86,0.46-2.86,0.46
					s-4.2,0.16-4.22-0.41c-0.01-0.22,2.41-0.38,4.91-1.18c2.86-0.91,3.57-2.19,3.49-2.7c-0.12-0.78-1.73-0.05-1.73-0.05
					s-2.21,1-2.82,1.12c-0.72,0.13-10.15,0.3-10.13-0.24c0.02-0.55,0.93-1.27,1.4-1.46c0.46-0.19,1.35-0.44,1.81-0.63
					c0.46-0.19,0.78-1.15,0.6-1.72c-0.19-0.57-2.24-0.26-2.24-0.26S242.58,199.51,241.34,200.27z"/>
				<path class="st34" d="M163.28,212.73c0,0,5.49-6.92,7.4-9.73c3.71-5.44,6.82-11.57,6.82-11.57s-15.29-8.81-20.99-11.81
					c-20.91-11.02-20.43,5.42-19.46,9.06C139.23,196.84,163.28,212.73,163.28,212.73z"/>
				<path class="st32" d="M240.88,176.85c1.81-1.03,3.21-2.65,2.75-4.68C245.18,173.78,243.23,176.76,240.88,176.85z"/>
			</g>
		</g>
	</g>
</g>
</svg>
