<?xml version="1.0" encoding="utf-8"?>
<!-- Generator: Adobe Illustrator 25.0.0, SVG Export Plug-In . SVG Version: 6.00 Build 0)  -->
<svg version="1.1" id="Layer_1" xmlns="http://www.w3.org/2000/svg" xmlns:xlink="http://www.w3.org/1999/xlink" x="0px" y="0px"
	 viewBox="0 0 450 450" style="enable-background:new 0 0 450 450;" xml:space="preserve">
<style type="text/css">
	.st0{clip-path:url(#SVGID_2_);fill:#FAFAFA;}
	.st1{clip-path:url(#SVGID_2_);}
	.st2{fill:#F5F5F5;}
	.st3{fill:#EBEBEB;}
	.st4{fill:#E0E0E0;}
	.st5{fill:#FAFAFA;}
	.st6{fill:#FFFFFF;}
	.st7{fill:#263238;}
	.st8{fill:#5BDB98;}
	.st9{opacity:0.3;}
	.st10{opacity:0.4;}
	.st11{fill:#455A64;}
</style>
<g>
	<defs>
		<circle id="SVGID_1_" cx="225" cy="225" r="225"/>
	</defs>
	<clipPath id="SVGID_2_">
		<use xlink:href="#SVGID_1_"  style="overflow:visible;"/>
	</clipPath>
	<circle class="st0" cx="225" cy="225" r="225"/>
	<g class="st1">
		<g>
			<g>
				<path class="st2" d="M438.03,127.72c0.38-2.77-3.53-5.05-6.47-5.29c-1.4-0.11-2.86,0.1-4.18-0.36c-2.88-1-4.02-4.72-6.83-5.9
					c-2.1-0.88-4.51-0.1-6.55,0.93c-2.03,1.02-4.04,2.31-6.32,2.46c-1.98,0.13-4.12-0.61-5.85,0.36c-1.29,0.72-1.96,2.2-3.15,3.08
					c-1.16,0.86-2.68,1.04-4.12,1.12c-1.44,0.08-2.93,0.09-4.25,0.69c-1.31,0.6-2.4,1.99-2.13,3.41L438.03,127.72z"/>
			</g>
		</g>
	</g>
	<g class="st1">
		<g>
			<g>
				<rect x="68.12" y="177.06" class="st2" width="55.22" height="174.99"/>
			</g>
		</g>
		<g>
			<g>
				<rect x="95.73" y="177.06" class="st3" width="27.61" height="174.51"/>
			</g>
		</g>
		<g>
			<g>
				<rect x="74.42" y="159.88" class="st2" width="19.5" height="17.18"/>
			</g>
		</g>
		<g>
			<g>
				<rect x="89.27" y="159.88" class="st3" width="4.65" height="17.18"/>
			</g>
		</g>
		<g>
			<g>
				<polyline class="st4" points="63.52,177.06 63.52,176.06 124.95,176.06 124.95,177.06 				"/>
			</g>
		</g>
		<g>
			<g>
				<rect x="79.02" y="184.55" class="st5" width="4.67" height="9.86"/>
			</g>
		</g>
		<g>
			<g>
				<g>
					<path class="st4" d="M95.73,198.27c0,0.1-6.18,0.19-13.8,0.19c-7.63,0-13.8-0.08-13.8-0.19c0-0.1,6.18-0.19,13.8-0.19
						C89.54,198.09,95.73,198.17,95.73,198.27z"/>
				</g>
			</g>
		</g>
		<g>
			<g>
				<g>
					<rect x="106.86" y="184.55" class="st4" width="4.67" height="9.86"/>
				</g>
			</g>
			<g>
				<g>
					<g>
						<path class="st4" d="M123.57,198.27c0,0.1-6.18,0.19-13.8,0.19c-7.63,0-13.8-0.08-13.8-0.19c0-0.1,6.18-0.19,13.8-0.19
							C117.39,198.09,123.57,198.17,123.57,198.27z"/>
					</g>
				</g>
			</g>
		</g>
		<g>
			<g>
				<g>
					<rect x="106.86" y="204.12" class="st4" width="4.67" height="9.86"/>
				</g>
			</g>
			<g>
				<g>
					<g>
						<path class="st4" d="M123.57,217.84c0,0.1-6.18,0.19-13.8,0.19c-7.63,0-13.8-0.08-13.8-0.19c0-0.1,6.18-0.19,13.8-0.19
							C117.39,217.65,123.57,217.74,123.57,217.84z"/>
					</g>
				</g>
			</g>
		</g>
		<g>
			<g>
				<g>
					<rect x="106.86" y="224.27" class="st4" width="4.67" height="9.86"/>
				</g>
			</g>
			<g>
				<g>
					<g>
						<path class="st4" d="M123.57,238c0,0.1-6.18,0.19-13.8,0.19c-7.63,0-13.8-0.08-13.8-0.19c0-0.1,6.18-0.19,13.8-0.19
							C117.39,237.81,123.57,237.89,123.57,238z"/>
					</g>
				</g>
			</g>
		</g>
		<g>
			<g>
				<g>
					<rect x="106.86" y="244.43" class="st4" width="4.67" height="9.86"/>
				</g>
			</g>
			<g>
				<g>
					<g>
						<path class="st4" d="M123.57,258.15c0,0.1-6.18,0.19-13.8,0.19c-7.63,0-13.8-0.08-13.8-0.19c0-0.1,6.18-0.19,13.8-0.19
							C117.39,257.97,123.57,258.05,123.57,258.15z"/>
					</g>
				</g>
			</g>
		</g>
		<g>
			<g>
				<g>
					<rect x="106.86" y="264.01" class="st4" width="4.67" height="9.86"/>
				</g>
			</g>
			<g>
				<g>
					<g>
						<path class="st4" d="M123.57,277.73c0,0.1-6.18,0.19-13.8,0.19c-7.63,0-13.8-0.08-13.8-0.19c0-0.1,6.18-0.19,13.8-0.19
							C117.39,277.55,123.57,277.63,123.57,277.73z"/>
					</g>
				</g>
			</g>
		</g>
		<g>
			<g>
				<g>
					<rect x="106.86" y="283.67" class="st4" width="4.67" height="9.86"/>
				</g>
			</g>
			<g>
				<g>
					<rect x="106.86" y="303.59" class="st4" width="4.67" height="9.86"/>
				</g>
			</g>
			<g>
				<g>
					<g>
						<path class="st4" d="M123.57,297.39c0,0.1-6.18,0.19-13.8,0.19c-7.63,0-13.8-0.08-13.8-0.19s6.18-0.19,13.8-0.19
							C117.39,297.2,123.57,297.29,123.57,297.39z"/>
					</g>
				</g>
			</g>
		</g>
		<g>
			<g>
				<rect x="79.02" y="204.42" class="st5" width="4.67" height="9.86"/>
			</g>
		</g>
		<g>
			<g>
				<g>
					<path class="st4" d="M95.73,218.14c0,0.1-6.18,0.19-13.8,0.19c-7.63,0-13.8-0.08-13.8-0.19c0-0.1,6.18-0.19,13.8-0.19
						C89.54,217.95,95.73,218.03,95.73,218.14z"/>
				</g>
			</g>
		</g>
		<g>
			<g>
				<rect x="79.02" y="224.28" class="st5" width="4.67" height="9.86"/>
			</g>
		</g>
		<g>
			<g>
				<g>
					<path class="st4" d="M95.73,238c0,0.1-6.18,0.19-13.8,0.19c-7.63,0-13.8-0.08-13.8-0.19c0-0.1,6.18-0.19,13.8-0.19
						C89.54,237.82,95.73,237.9,95.73,238z"/>
				</g>
			</g>
		</g>
		<g>
			<g>
				<rect x="79.02" y="244.15" class="st5" width="4.67" height="9.86"/>
			</g>
		</g>
		<g>
			<g>
				<g>
					<path class="st4" d="M95.73,257.87c0,0.1-6.18,0.19-13.8,0.19c-7.63,0-13.8-0.08-13.8-0.19c0-0.1,6.18-0.19,13.8-0.19
						C89.54,257.68,95.73,257.76,95.73,257.87z"/>
				</g>
			</g>
		</g>
		<g>
			<g>
				<rect x="79.02" y="264.01" class="st5" width="4.67" height="9.86"/>
			</g>
		</g>
		<g>
			<g>
				<g>
					<path class="st4" d="M95.73,277.73c0,0.1-6.18,0.19-13.8,0.19c-7.63,0-13.8-0.08-13.8-0.19c0-0.1,6.18-0.19,13.8-0.19
						C89.54,277.55,95.73,277.63,95.73,277.73z"/>
				</g>
			</g>
		</g>
		<g>
			<g>
				<rect x="79.02" y="283.88" class="st5" width="4.67" height="9.86"/>
			</g>
		</g>
		<g>
			<g>
				<g>
					<path class="st4" d="M95.73,297.6c0,0.1-6.18,0.19-13.8,0.19c-7.63,0-13.8-0.08-13.8-0.19c0-0.1,6.18-0.19,13.8-0.19
						C89.54,297.41,95.73,297.49,95.73,297.6z"/>
				</g>
			</g>
		</g>
		<g>
			<g>
				<g>
					<rect x="79.02" y="303.74" class="st5" width="4.67" height="9.86"/>
				</g>
			</g>
		</g>
	</g>
	<g class="st1">
		<g>
			<g>
				<rect x="261.62" y="137.15" class="st2" width="79.59" height="252.25"/>
			</g>
		</g>
		<g>
			<g>
				<rect x="301.42" y="137.15" class="st3" width="39.8" height="251.55"/>
			</g>
		</g>
		<g>
			<g>
				<rect x="270.71" y="112.38" class="st2" width="28.11" height="24.76"/>
			</g>
		</g>
		<g>
			<g>
				<rect x="292.12" y="112.38" class="st3" width="6.7" height="24.76"/>
			</g>
		</g>
		<g>
			<g>
				<polyline class="st4" points="254.99,137.15 254.99,135.7 343.54,135.7 343.54,137.15 				"/>
			</g>
		</g>
		<g>
			<g>
				<rect x="277.33" y="147.95" class="st5" width="6.74" height="14.21"/>
			</g>
		</g>
		<g>
			<g>
				<g>
					<path class="st4" d="M301.42,167.73c0,0.15-8.91,0.27-19.9,0.27c-10.99,0-19.9-0.12-19.9-0.27c0-0.15,8.91-0.27,19.9-0.27
						C292.51,167.46,301.42,167.58,301.42,167.73z"/>
				</g>
			</g>
		</g>
		<g>
			<g>
				<g>
					<rect x="317.47" y="147.95" class="st4" width="6.74" height="14.21"/>
				</g>
			</g>
			<g>
				<g>
					<g>
						<path class="st4" d="M341.56,167.73c0,0.15-8.91,0.27-19.9,0.27c-10.99,0-19.9-0.12-19.9-0.27c0-0.15,8.91-0.27,19.9-0.27
							C332.65,167.46,341.56,167.58,341.56,167.73z"/>
					</g>
				</g>
			</g>
		</g>
		<g>
			<g>
				<g>
					<rect x="317.47" y="176.15" class="st4" width="6.74" height="14.21"/>
				</g>
			</g>
			<g>
				<g>
					<g>
						<path class="st4" d="M341.56,195.93c0,0.15-8.91,0.27-19.9,0.27c-10.99,0-19.9-0.12-19.9-0.27c0-0.15,8.91-0.27,19.9-0.27
							C332.65,195.66,341.56,195.79,341.56,195.93z"/>
					</g>
				</g>
			</g>
		</g>
		<g>
			<g>
				<g>
					<rect x="317.47" y="205.21" class="st4" width="6.74" height="14.21"/>
				</g>
			</g>
			<g>
				<g>
					<g>
						<path class="st4" d="M341.56,224.99c0,0.15-8.91,0.27-19.9,0.27c-10.99,0-19.9-0.12-19.9-0.27c0-0.15,8.91-0.27,19.9-0.27
							C332.65,224.72,341.56,224.84,341.56,224.99z"/>
					</g>
				</g>
			</g>
		</g>
		<g>
			<g>
				<g>
					<rect x="317.47" y="234.26" class="st4" width="6.74" height="14.21"/>
				</g>
			</g>
			<g>
				<g>
					<g>
						<path class="st4" d="M341.56,254.05c0,0.15-8.91,0.27-19.9,0.27c-10.99,0-19.9-0.12-19.9-0.27c0-0.15,8.91-0.27,19.9-0.27
							C332.65,253.77,341.56,253.9,341.56,254.05z"/>
					</g>
				</g>
			</g>
		</g>
		<g>
			<g>
				<g>
					<rect x="317.47" y="262.49" class="st4" width="6.74" height="14.21"/>
				</g>
			</g>
			<g>
				<g>
					<g>
						<path class="st4" d="M341.56,282.27c0,0.15-8.91,0.27-19.9,0.27c-10.99,0-19.9-0.12-19.9-0.27c0-0.15,8.91-0.27,19.9-0.27
							C332.65,282,341.56,282.12,341.56,282.27z"/>
					</g>
				</g>
			</g>
		</g>
		<g>
			<g>
				<g>
					<rect x="317.47" y="290.83" class="st4" width="6.74" height="14.21"/>
				</g>
			</g>
			<g>
				<g>
					<rect x="317.47" y="319.54" class="st4" width="6.74" height="14.21"/>
				</g>
			</g>
			<g>
				<g>
					<g>
						<path class="st4" d="M341.56,310.61c0,0.15-8.91,0.27-19.9,0.27c-10.99,0-19.9-0.12-19.9-0.27s8.91-0.27,19.9-0.27
							C332.65,310.34,341.56,310.46,341.56,310.61z"/>
					</g>
				</g>
			</g>
		</g>
		<g>
			<g>
				<rect x="277.33" y="176.58" class="st5" width="6.74" height="14.21"/>
			</g>
		</g>
		<g>
			<g>
				<g>
					<path class="st4" d="M301.42,196.37c0,0.15-8.91,0.27-19.9,0.27c-10.99,0-19.9-0.12-19.9-0.27c0-0.15,8.91-0.27,19.9-0.27
						C292.51,196.09,301.42,196.22,301.42,196.37z"/>
				</g>
			</g>
		</g>
		<g>
			<g>
				<rect x="277.33" y="205.22" class="st5" width="6.74" height="14.21"/>
			</g>
		</g>
		<g>
			<g>
				<g>
					<path class="st4" d="M301.42,225c0,0.15-8.91,0.27-19.9,0.27c-10.99,0-19.9-0.12-19.9-0.27c0-0.15,8.91-0.27,19.9-0.27
						C292.51,224.73,301.42,224.85,301.42,225z"/>
				</g>
			</g>
		</g>
		<g>
			<g>
				<rect x="277.33" y="233.85" class="st5" width="6.74" height="14.21"/>
			</g>
		</g>
		<g>
			<g>
				<g>
					<path class="st4" d="M301.42,253.63c0,0.15-8.91,0.27-19.9,0.27c-10.99,0-19.9-0.12-19.9-0.27c0-0.15,8.91-0.27,19.9-0.27
						C292.51,253.36,301.42,253.49,301.42,253.63z"/>
				</g>
			</g>
		</g>
		<g>
			<g>
				<rect x="277.33" y="262.49" class="st5" width="6.74" height="14.21"/>
			</g>
		</g>
		<g>
			<g>
				<g>
					<path class="st4" d="M301.42,282.27c0,0.15-8.91,0.27-19.9,0.27c-10.99,0-19.9-0.12-19.9-0.27c0-0.15,8.91-0.27,19.9-0.27
						C292.51,282,301.42,282.12,301.42,282.27z"/>
				</g>
			</g>
		</g>
		<g>
			<g>
				<rect x="277.33" y="291.12" class="st5" width="6.74" height="14.21"/>
			</g>
		</g>
		<g>
			<g>
				<g>
					<path class="st4" d="M301.42,310.9c0,0.15-8.91,0.27-19.9,0.27c-10.99,0-19.9-0.12-19.9-0.27c0-0.15,8.91-0.27,19.9-0.27
						C292.51,310.63,301.42,310.75,301.42,310.9z"/>
				</g>
			</g>
		</g>
		<g>
			<g>
				<g>
					<rect x="277.33" y="319.76" class="st5" width="6.74" height="14.21"/>
				</g>
			</g>
		</g>
	</g>
	<g class="st1">
		<g>
			<g>
				<rect x="325.82" y="251.57" class="st2" width="43.48" height="137.81"/>
			</g>
		</g>
		<g>
			<g>
				<rect x="347.56" y="251.57" class="st3" width="21.74" height="137.43"/>
			</g>
		</g>
		<g>
			<g>
				<rect x="330.78" y="238.04" class="st2" width="15.36" height="13.53"/>
			</g>
		</g>
		<g>
			<g>
				<rect x="342.48" y="238.04" class="st3" width="3.66" height="13.53"/>
			</g>
		</g>
		<g>
			<g>
				<polyline class="st4" points="322.19,251.57 322.19,250.79 370.57,250.79 370.57,251.57 				"/>
			</g>
		</g>
		<g>
			<g>
				<rect x="334.4" y="257.48" class="st5" width="3.68" height="7.76"/>
			</g>
		</g>
		<g>
			<g>
				<g>
					<path class="st4" d="M347.56,268.28c0,0.08-4.87,0.15-10.87,0.15c-6.01,0-10.87-0.07-10.87-0.15c0-0.08,4.87-0.15,10.87-0.15
						C342.69,268.13,347.56,268.2,347.56,268.28z"/>
				</g>
			</g>
		</g>
		<g>
			<g>
				<g>
					<rect x="356.33" y="257.48" class="st4" width="3.68" height="7.76"/>
				</g>
			</g>
			<g>
				<g>
					<g>
						<path class="st4" d="M369.49,268.28c0,0.08-4.87,0.15-10.87,0.15c-6.01,0-10.87-0.07-10.87-0.15c0-0.08,4.87-0.15,10.87-0.15
							C364.62,268.13,369.49,268.2,369.49,268.28z"/>
					</g>
				</g>
			</g>
		</g>
		<g>
			<g>
				<g>
					<rect x="356.33" y="272.88" class="st4" width="3.68" height="7.76"/>
				</g>
			</g>
			<g>
				<g>
					<g>
						<path class="st4" d="M369.49,283.69c0,0.08-4.87,0.15-10.87,0.15c-6.01,0-10.87-0.07-10.87-0.15c0-0.08,4.87-0.15,10.87-0.15
							C364.62,283.54,369.49,283.61,369.49,283.69z"/>
					</g>
				</g>
			</g>
		</g>
		<g>
			<g>
				<g>
					<rect x="356.33" y="288.76" class="st4" width="3.68" height="7.76"/>
				</g>
			</g>
			<g>
				<g>
					<g>
						<path class="st4" d="M369.49,299.57c0,0.08-4.87,0.15-10.87,0.15c-6.01,0-10.87-0.07-10.87-0.15c0-0.08,4.87-0.15,10.87-0.15
							C364.62,299.42,369.49,299.48,369.49,299.57z"/>
					</g>
				</g>
			</g>
		</g>
		<g>
			<g>
				<g>
					<rect x="356.33" y="304.63" class="st4" width="3.68" height="7.76"/>
				</g>
			</g>
			<g>
				<g>
					<g>
						<path class="st4" d="M369.49,315.44c0,0.08-4.87,0.15-10.87,0.15c-6.01,0-10.87-0.07-10.87-0.15c0-0.08,4.87-0.15,10.87-0.15
							C364.62,315.29,369.49,315.36,369.49,315.44z"/>
					</g>
				</g>
			</g>
		</g>
		<g>
			<g>
				<g>
					<rect x="356.33" y="320.05" class="st4" width="3.68" height="7.76"/>
				</g>
			</g>
			<g>
				<g>
					<g>
						<path class="st4" d="M369.49,330.86c0,0.08-4.87,0.15-10.87,0.15c-6.01,0-10.87-0.07-10.87-0.15c0-0.08,4.87-0.15,10.87-0.15
							C364.62,330.71,369.49,330.78,369.49,330.86z"/>
					</g>
				</g>
			</g>
		</g>
		<g>
			<g>
				<g>
					<rect x="356.33" y="335.53" class="st4" width="3.68" height="7.76"/>
				</g>
			</g>
			<g>
				<g>
					<rect x="356.33" y="351.22" class="st4" width="3.68" height="7.76"/>
				</g>
			</g>
			<g>
				<g>
					<g>
						<path class="st4" d="M369.49,346.34c0,0.08-4.87,0.15-10.87,0.15c-6.01,0-10.87-0.07-10.87-0.15c0-0.08,4.87-0.15,10.87-0.15
							C364.62,346.19,369.49,346.26,369.49,346.34z"/>
					</g>
				</g>
			</g>
		</g>
		<g>
			<g>
				<rect x="334.4" y="273.12" class="st5" width="3.68" height="7.76"/>
			</g>
		</g>
		<g>
			<g>
				<g>
					<path class="st4" d="M347.56,283.93c0,0.08-4.87,0.15-10.87,0.15c-6.01,0-10.87-0.07-10.87-0.15c0-0.08,4.87-0.15,10.87-0.15
						C342.69,283.78,347.56,283.84,347.56,283.93z"/>
				</g>
			</g>
		</g>
		<g>
			<g>
				<rect x="334.4" y="288.76" class="st5" width="3.68" height="7.76"/>
			</g>
		</g>
		<g>
			<g>
				<g>
					<path class="st4" d="M347.56,299.57c0,0.08-4.87,0.15-10.87,0.15c-6.01,0-10.87-0.07-10.87-0.15c0-0.08,4.87-0.15,10.87-0.15
						C342.69,299.42,347.56,299.49,347.56,299.57z"/>
				</g>
			</g>
		</g>
		<g>
			<g>
				<rect x="334.4" y="304.41" class="st5" width="3.68" height="7.76"/>
			</g>
		</g>
		<g>
			<g>
				<g>
					<path class="st4" d="M347.56,315.21c0,0.08-4.87,0.15-10.87,0.15c-6.01,0-10.87-0.07-10.87-0.15c0-0.08,4.87-0.15,10.87-0.15
						C342.69,315.07,347.56,315.13,347.56,315.21z"/>
				</g>
			</g>
		</g>
		<g>
			<g>
				<rect x="334.4" y="320.05" class="st5" width="3.68" height="7.76"/>
			</g>
		</g>
		<g>
			<g>
				<g>
					<path class="st4" d="M347.56,330.86c0,0.08-4.87,0.15-10.87,0.15c-6.01,0-10.87-0.07-10.87-0.15c0-0.08,4.87-0.15,10.87-0.15
						C342.69,330.71,347.56,330.78,347.56,330.86z"/>
				</g>
			</g>
		</g>
		<g>
			<g>
				<rect x="334.4" y="335.7" class="st5" width="3.68" height="7.76"/>
			</g>
		</g>
		<g>
			<g>
				<g>
					<path class="st4" d="M347.56,346.5c0,0.08-4.87,0.15-10.87,0.15c-6.01,0-10.87-0.07-10.87-0.15c0-0.08,4.87-0.15,10.87-0.15
						C342.69,346.36,347.56,346.42,347.56,346.5z"/>
				</g>
			</g>
		</g>
		<g>
			<g>
				<g>
					<rect x="334.4" y="351.34" class="st5" width="3.68" height="7.76"/>
				</g>
			</g>
		</g>
	</g>
	<g class="st1">
		<g>
			<g>
				<g>
					<rect x="104.41" y="300.54" class="st4" width="46.82" height="88.85"/>
				</g>
			</g>
			<g>
				<g>
					<rect x="129.27" y="300.54" class="st3" width="21.95" height="88.85"/>
				</g>
			</g>
		</g>
		<g>
			<g>
				<g>
					<rect x="114.23" y="308.9" class="st2" width="4.21" height="10.23"/>
				</g>
			</g>
			<g>
				<g>
					<rect x="114.23" y="348.92" class="st2" width="4.21" height="10.23"/>
				</g>
			</g>
			<g>
				<g>
					<g>
						<path class="st2" d="M129.27,323.14c0,0.09-5.57,0.16-12.43,0.16c-6.87,0-12.43-0.07-12.43-0.16c0-0.09,5.57-0.16,12.43-0.16
							C123.71,322.98,129.27,323.05,129.27,323.14z"/>
					</g>
				</g>
			</g>
		</g>
		<g>
			<g>
				<g>
					<rect x="114.23" y="329.06" class="st2" width="4.21" height="10.23"/>
				</g>
			</g>
			<g>
				<g>
					<g>
						<path class="st2" d="M129.27,343.3c0,0.09-5.57,0.16-12.43,0.16c-6.87,0-12.43-0.07-12.43-0.16s5.57-0.16,12.43-0.16
							C123.71,343.14,129.27,343.21,129.27,343.3z"/>
					</g>
				</g>
			</g>
		</g>
		<g>
			<g>
				<rect x="133.94" y="308.9" class="st4" width="4.21" height="10.23"/>
			</g>
		</g>
		<g>
			<g>
				<rect x="143.07" y="308.9" class="st4" width="4.21" height="10.23"/>
			</g>
		</g>
		<g>
			<g>
				<rect x="133.94" y="328.3" class="st4" width="4.21" height="10.23"/>
			</g>
		</g>
		<g>
			<g>
				<rect x="143.07" y="328.3" class="st4" width="4.21" height="10.23"/>
			</g>
		</g>
		<g>
			<g>
				<rect x="133.94" y="347.71" class="st4" width="4.21" height="10.23"/>
			</g>
		</g>
		<g>
			<g>
				<rect x="143.07" y="347.71" class="st4" width="4.21" height="10.23"/>
			</g>
		</g>
		<g>
			<g>
				<rect x="100.89" y="298.39" class="st4" width="53.85" height="2.23"/>
			</g>
		</g>
		<g>
			<g>
				<g>
					<path class="st3" d="M151.55,300.82c0,0.09-10.46,0.16-23.37,0.16c-12.91,0-23.37-0.07-23.37-0.16
						c0-0.09,10.46-0.16,23.37-0.16C141.09,300.66,151.55,300.74,151.55,300.82z"/>
				</g>
			</g>
		</g>
	</g>
	<g class="st1">
		<g>
			<g>
				<g>
					<polygon class="st3" points="104.95,389.33 29.55,389.33 29.22,270.17 104.62,270.17 					"/>
				</g>
			</g>
			<g>
				<g>
					<rect x="66.92" y="270.17" class="st4" width="37.7" height="119.16"/>
				</g>
			</g>
			<g>
				<g>
					<rect x="37.83" y="246.71" class="st3" width="26.62" height="23.46"/>
				</g>
			</g>
			<g>
				<g>
					<rect x="58.11" y="246.71" class="st4" width="6.35" height="23.46"/>
				</g>
			</g>
			<g>
				<g>
					<rect x="22.94" y="268.8" class="st4" width="83.89" height="1.37"/>
				</g>
			</g>
			<g>
				<g>
					<rect x="44.1" y="280.4" class="st6" width="6.38" height="13.46"/>
				</g>
			</g>
			<g>
				<g>
					<g>
						<path class="st4" d="M66.92,299.13c0,0.14-8.44,0.26-18.85,0.26c-10.41,0-18.85-0.11-18.85-0.26c0-0.14,8.44-0.26,18.85-0.26
							C58.48,298.88,66.92,298.99,66.92,299.13z"/>
					</g>
				</g>
			</g>
			<g>
				<g>
					<g>
						<rect x="82.13" y="280.4" class="st2" width="6.38" height="13.46"/>
					</g>
				</g>
				<g>
					<g>
						<g>
							<path class="st3" d="M104.95,299.13c0,0.14-8.44,0.26-18.85,0.26c-10.41,0-18.85-0.11-18.85-0.26
								c0-0.14,8.44-0.26,18.85-0.26C96.51,298.88,104.95,298.99,104.95,299.13z"/>
						</g>
					</g>
				</g>
			</g>
			<g>
				<g>
					<g>
						<rect x="82.13" y="307.11" class="st2" width="6.38" height="13.46"/>
					</g>
				</g>
				<g>
					<g>
						<g>
							<path class="st3" d="M104.95,325.85c0,0.14-8.44,0.26-18.85,0.26c-10.41,0-18.85-0.11-18.85-0.26
								c0-0.14,8.44-0.26,18.85-0.26C96.51,325.6,104.95,325.71,104.95,325.85z"/>
						</g>
					</g>
				</g>
			</g>
			<g>
				<g>
					<g>
						<rect x="82.13" y="334.64" class="st2" width="6.38" height="13.46"/>
					</g>
				</g>
				<g>
					<g>
						<g>
							<path class="st3" d="M104.95,353.38c0,0.14-8.44,0.26-18.85,0.26c-10.41,0-18.85-0.12-18.85-0.26
								c0-0.14,8.44-0.26,18.85-0.26C96.51,353.12,104.95,353.23,104.95,353.38z"/>
						</g>
					</g>
				</g>
			</g>
			<g>
				<g>
					<g>
						<rect x="82.13" y="362.16" class="st2" width="6.38" height="13.46"/>
					</g>
				</g>
				<g>
					<g>
						<g>
							<path class="st3" d="M104.95,380.9c0,0.14-8.44,0.26-18.85,0.26c-10.41,0-18.85-0.12-18.85-0.26c0-0.14,8.44-0.26,18.85-0.26
								C96.51,380.64,104.95,380.76,104.95,380.9z"/>
						</g>
					</g>
				</g>
			</g>
			<g>
				<g>
					<rect x="44.1" y="307.52" class="st6" width="6.38" height="13.46"/>
				</g>
			</g>
			<g>
				<g>
					<g>
						<path class="st4" d="M66.92,326.26c0,0.14-8.44,0.26-18.85,0.26c-10.41,0-18.85-0.12-18.85-0.26c0-0.14,8.44-0.26,18.85-0.26
							C58.48,326,66.92,326.12,66.92,326.26z"/>
					</g>
				</g>
			</g>
			<g>
				<g>
					<rect x="44.1" y="334.65" class="st6" width="6.38" height="13.46"/>
				</g>
			</g>
			<g>
				<g>
					<g>
						<path class="st4" d="M66.92,353.39c0,0.14-8.44,0.26-18.85,0.26c-10.41,0-18.85-0.11-18.85-0.26c0-0.14,8.44-0.26,18.85-0.26
							C58.48,353.13,66.92,353.24,66.92,353.39z"/>
					</g>
				</g>
			</g>
			<g>
				<g>
					<rect x="44.1" y="361.77" class="st6" width="6.38" height="13.46"/>
				</g>
			</g>
			<g>
				<g>
					<g>
						<path class="st4" d="M66.92,380.51c0,0.14-8.44,0.26-18.85,0.26c-10.41,0-18.85-0.11-18.85-0.26c0-0.14,8.44-0.26,18.85-0.26
							C58.48,380.25,66.92,380.37,66.92,380.51z"/>
					</g>
				</g>
			</g>
		</g>
	</g>
	<g class="st1">
		<g>
			<g>
				<path class="st2" d="M462.34,204.81c0.55-3.96-5.04-7.22-9.24-7.56c-2-0.16-4.08,0.14-5.98-0.52c-4.11-1.43-5.75-6.74-9.76-8.43
					c-3-1.26-6.45-0.14-9.36,1.32c-2.91,1.46-5.78,3.3-9.03,3.51c-2.82,0.18-5.89-0.87-8.36,0.51c-1.84,1.03-2.81,3.15-4.5,4.4
					c-1.66,1.22-3.83,1.48-5.89,1.6c-2.06,0.11-4.19,0.13-6.07,0.99c-1.88,0.86-3.43,2.84-3.04,4.87L462.34,204.81z"/>
			</g>
		</g>
	</g>
	<g class="st1">
		<g>
			<g>
				<g>
					<g>
						<rect x="418.4" y="345.78" class="st3" width="60.65" height="43.6"/>
					</g>
				</g>
				<g>
					<g>
						<path class="st2" d="M434.67,345.78c0.09,0,0,9.21,0,9.21h-4.49v-9.21H434.67z"/>
					</g>
				</g>
			</g>
			<g>
				<g>
					
						<rect x="448.73" y="345.78" transform="matrix(-1 -1.224647e-16 1.224647e-16 -1 927.7769 735.1672)" class="st4" width="30.33" height="43.6"/>
				</g>
			</g>
		</g>
		<g>
			<g>
				<rect x="420.25" y="380.85" class="st6" width="8.12" height="5.75"/>
			</g>
		</g>
		<g>
			<g>
				<rect x="429.87" y="380.85" class="st6" width="4.06" height="5.75"/>
			</g>
		</g>
	</g>
	<g class="st1">
		<g>
			<g>
				<g>
					<g>
						<rect x="433.8" y="317.39" class="st3" width="39.49" height="28.39"/>
					</g>
				</g>
				<g>
					<g>
						<path class="st2" d="M444.39,317.39c0.06,0,0,5.99,0,5.99h-2.92v-5.99H444.39z"/>
					</g>
				</g>
			</g>
			<g>
				<g>
					
						<rect x="453.54" y="317.39" transform="matrix(-1 -1.224647e-16 1.224647e-16 -1 926.834 663.1713)" class="st4" width="19.75" height="28.39"/>
				</g>
			</g>
		</g>
		<g>
			<g>
				<rect x="435" y="340.22" class="st6" width="5.29" height="3.74"/>
			</g>
		</g>
		<g>
			<g>
				<rect x="441.26" y="340.22" class="st6" width="2.64" height="3.74"/>
			</g>
		</g>
	</g>
	<g class="st1">
		<g>
			<g>
				<path class="st3" d="M69.61,128.7c0.31-2.24-2.86-4.09-5.23-4.28c-1.13-0.09-2.31,0.08-3.39-0.29
					c-2.33-0.81-3.26-3.82-5.53-4.78c-1.7-0.72-3.65-0.08-5.3,0.75c-1.65,0.83-3.27,1.87-5.11,1.99c-1.6,0.1-3.34-0.49-4.74,0.29
					c-1.04,0.58-1.59,1.78-2.55,2.49c-0.94,0.69-2.17,0.84-3.33,0.9c-1.17,0.06-2.37,0.08-3.44,0.56c-1.06,0.49-1.94,1.61-1.72,2.76
					L69.61,128.7z"/>
			</g>
		</g>
	</g>
	<g class="st1">
		<g>
			<g>
				<path class="st3" d="M473.36,174.22c0.3-2.19-2.79-3.99-5.1-4.17c-1.11-0.09-2.25,0.08-3.3-0.29c-2.27-0.79-3.18-3.72-5.39-4.66
					c-1.66-0.7-3.56-0.08-5.17,0.73c-1.61,0.81-3.19,1.82-4.99,1.94c-1.56,0.1-3.25-0.48-4.62,0.28c-1.02,0.57-1.55,1.74-2.49,2.43
					c-0.92,0.68-2.11,0.82-3.25,0.88c-1.14,0.06-2.32,0.07-3.35,0.55c-1.04,0.47-1.89,1.57-1.68,2.69L473.36,174.22z"/>
			</g>
		</g>
	</g>
	<g class="st1">
		<g>
			<g>
				<path class="st2" d="M139.06,142.59c0.56-4.1-5.22-7.46-9.56-7.81c-2.07-0.17-4.22,0.15-6.18-0.53
					c-4.25-1.48-5.95-6.97-10.1-8.72c-3.1-1.31-6.67-0.14-9.68,1.37c-3.01,1.51-5.98,3.42-9.34,3.63c-2.92,0.19-6.09-0.9-8.65,0.53
					c-1.9,1.06-2.9,3.26-4.66,4.55c-1.72,1.27-3.96,1.54-6.09,1.65c-2.13,0.12-4.34,0.14-6.28,1.03c-1.94,0.89-3.55,2.94-3.14,5.04
					L139.06,142.59z"/>
			</g>
		</g>
	</g>
	<g class="st1">
		<g>
			<g>
				<path class="st7" d="M478.83,389.39c0,0.09-99.76,0.17-222.79,0.17c-123.07,0-222.81-0.08-222.81-0.17
					c0-0.09,99.74-0.17,222.81-0.17C379.07,389.22,478.83,389.29,478.83,389.39z"/>
			</g>
		</g>
	</g>
	<g class="st1">
		<g>
			<g>
				<g>
					<g>
						<g>
							<path class="st8" d="M211.47,362.03c1.4,0.27,2.59,1.24,3.35,2.45c0.76,1.2,1.11,2.62,1.26,4.04
								c0.28,2.74-0.64,5.76-1.8,8.26c-2.68-1.47-3.95-4.78-4.49-6.5C208.94,367.56,209.05,362.13,211.47,362.03"/>
						</g>
					</g>
				</g>
			</g>
		</g>
		<g>
			<g>
				<g>
					<g>
						<g>
							<path class="st8" d="M217.86,380.6c-0.69-1.43-0.43-3.22,0.5-4.51c0.93-1.29,2.45-2.08,4.03-2.3
								c0.73-0.1,1.55-0.06,2.08,0.43c0.5,0.47,0.63,1.24,0.45,1.91c-0.18,0.66-0.62,1.22-1.11,1.71
								C222.13,379.49,220.21,380.78,217.86,380.6"/>
						</g>
					</g>
				</g>
			</g>
		</g>
		<g>
			<g>
				<g>
					<g>
						<g>
							<g>
								<path class="st7" d="M216.77,389.42c-0.01,0-0.03-0.2-0.04-0.57c-0.01-0.4-0.03-0.92-0.05-1.54
									c-0.02-1.29-0.09-3.14,0.49-5.07c0.57-1.93,1.62-3.48,2.6-4.36c0.49-0.44,0.93-0.74,1.25-0.92
									c0.16-0.09,0.29-0.15,0.38-0.19c0.09-0.04,0.14-0.06,0.14-0.05c0.03,0.04-0.74,0.36-1.67,1.26
									c-0.94,0.88-1.95,2.42-2.51,4.31c-0.57,1.89-0.53,3.72-0.54,5.01c0,0.65,0,1.18-0.01,1.54
									C216.8,389.22,216.79,389.42,216.77,389.42z"/>
							</g>
						</g>
					</g>
				</g>
			</g>
		</g>
		<g>
			<g>
				<g>
					<g>
						<g>
							<g>
								<path class="st7" d="M211.75,366.17c0.01,0,0.03,0.08,0.08,0.23c0.05,0.18,0.11,0.4,0.19,0.68
									c0.16,0.59,0.39,1.45,0.66,2.51c0.54,2.12,1.24,5.07,1.95,8.34c0.7,3.27,1.27,6.24,1.66,8.4c0.19,1.08,0.34,1.95,0.43,2.56
									c0.04,0.29,0.08,0.52,0.1,0.7c0.02,0.16,0.03,0.24,0.02,0.25c-0.01,0-0.03-0.08-0.06-0.24c-0.04-0.18-0.08-0.41-0.14-0.69
									c-0.12-0.63-0.29-1.49-0.5-2.55c-0.42-2.15-1.01-5.12-1.71-8.39c-0.7-3.27-1.39-6.21-1.89-8.35
									c-0.25-1.05-0.45-1.9-0.6-2.52c-0.06-0.28-0.12-0.51-0.16-0.69C211.76,366.25,211.75,366.17,211.75,366.17z"/>
							</g>
						</g>
					</g>
				</g>
			</g>
		</g>
		<g>
			<g>
				<g>
					<g>
						<g>
							<path class="st8" d="M214.33,383.08c-1.22-3.12-4.04-5.56-7.3-6.32c-0.83-0.19-1.86-0.21-2.36,0.48
								c-0.5,0.7-0.14,1.67,0.34,2.38c1.97,2.96,5.85,4.5,9.32,3.69"/>
						</g>
					</g>
				</g>
			</g>
		</g>
		<g>
			<g>
				<g>
					<g>
						<g>
							<g>
								<path class="st7" d="M207.95,379.21c0-0.01,0.19,0.02,0.52,0.1c0.17,0.04,0.37,0.09,0.6,0.17c0.23,0.08,0.5,0.15,0.78,0.28
									c0.28,0.12,0.6,0.24,0.92,0.42c0.33,0.16,0.66,0.36,1,0.58c0.68,0.45,1.39,1.01,2.04,1.69c0.64,0.69,1.16,1.43,1.57,2.13
									c0.19,0.36,0.37,0.7,0.51,1.04c0.15,0.33,0.25,0.65,0.35,0.94c0.11,0.29,0.15,0.57,0.22,0.8c0.06,0.24,0.09,0.44,0.12,0.61
									c0.05,0.34,0.07,0.53,0.06,0.53c-0.04,0.01-0.13-0.75-0.52-1.9c-0.1-0.29-0.21-0.6-0.37-0.92
									c-0.14-0.33-0.32-0.66-0.51-1.02c-0.41-0.69-0.92-1.41-1.55-2.09c-0.64-0.67-1.33-1.22-1.99-1.67
									c-0.34-0.22-0.66-0.42-0.98-0.58c-0.31-0.18-0.62-0.31-0.89-0.43C208.68,379.41,207.93,379.25,207.95,379.21z"/>
							</g>
						</g>
					</g>
				</g>
			</g>
		</g>
	</g>
	<g class="st1">
		<g>
			<g>
				<g>
					<g>
						<g>
							<path class="st8" d="M419.51,382.54c0.25-0.96-0.38-1.92-1.09-2.62c-0.7-0.7-1.55-1.32-1.91-2.24
								c-0.59-1.49,0.2-3.42-0.81-4.66c-0.6-0.73-1.66-0.98-2.19-1.76c-0.28-0.41-0.37-0.91-0.48-1.4c-0.56-2.46-1.79-4.77-3.52-6.6
								c-0.12,2.19,0.36,4.41,1.38,6.36c0.41,0.78,0.91,1.54,1.05,2.41c0.22,1.42-0.57,2.87-0.22,4.26c0.4,1.59,2.18,2.65,2.27,4.29
								c0.07,1.38-1.13,2.6-1.04,3.98c0.04,0.59,0.31,1.14,0.62,1.64c1.07,1.78,2.64,3,5.02,2.96l2.92,0.1L419.51,382.54z"/>
						</g>
					</g>
				</g>
			</g>
		</g>
		<g class="st9">
			<g>
				<g>
					<g>
						<g>
							<g>
								<path d="M419.51,382.54c0.25-0.96-0.38-1.92-1.09-2.62c-0.7-0.7-1.55-1.32-1.91-2.24c-0.59-1.49,0.2-3.42-0.81-4.66
									c-0.6-0.73-1.66-0.98-2.19-1.76c-0.28-0.41-0.37-0.91-0.48-1.4c-0.56-2.46-1.79-4.77-3.52-6.6
									c-0.12,2.19,0.36,4.41,1.38,6.36c0.41,0.78,0.91,1.54,1.05,2.41c0.22,1.42-0.57,2.87-0.22,4.26
									c0.4,1.59,2.18,2.65,2.27,4.29c0.07,1.38-1.13,2.6-1.04,3.98c0.04,0.59,0.31,1.14,0.62,1.64c1.07,1.78,2.64,3,5.02,2.96
									l2.92,0.1L419.51,382.54z"/>
							</g>
						</g>
					</g>
				</g>
			</g>
		</g>
		<g>
			<g>
				<g>
					<g>
						<g>
							<g>
								<g>
									<g>
										<path class="st7" d="M422.09,389.37c0,0,0.28,0.06,0.8-0.02c0.26-0.04,0.58-0.11,0.95-0.24c0.36-0.13,0.78-0.32,1.17-0.64
											c0.19-0.17,0.38-0.37,0.48-0.64c0.1-0.27,0.12-0.57,0.14-0.87c0.02-0.3,0.02-0.62,0.07-0.94
											c0.05-0.32,0.18-0.64,0.36-0.94c0.34-0.6,0.92-1.18,1.1-2c0.2-0.81,0.06-1.68-0.08-2.56c-0.14-0.87-0.27-1.83,0.07-2.74
											c0.31-0.91,0.95-1.74,1.27-2.76c0.32-1.04,0.17-2.16,0.24-3.26c0.03-0.55,0.14-1.11,0.38-1.62c0.24-0.52,0.56-1,0.82-1.55
											c0.52-1.1,0.61-2.34,0.75-3.57c0.07-0.61,0.14-1.24,0.21-1.86c0.07-0.63,0.13-1.26,0.32-1.87c0.18-0.61,0.44-1.2,0.7-1.81
											c0.13-0.3,0.26-0.61,0.34-0.94c0.06-0.34,0.07-0.67,0.09-1c0.03-0.67,0.01-1.35-0.08-2.02c-0.08-0.67-0.2-1.34-0.27-2.02
											c0-0.04-0.01-0.08-0.01-0.12l-0.02-0.13l-0.12,0.06c-0.62,0.31-1.16,0.78-1.57,1.33c-0.42,0.54-0.72,1.16-0.96,1.78
											c-0.49,1.25-0.66,2.57-0.91,3.82c-0.24,1.25-0.56,2.49-1.2,3.53c-0.32,0.52-0.71,0.99-1.04,1.5
											c-0.34,0.5-0.63,1.06-0.72,1.66c-0.17,1.23,0.51,2.32,0.37,3.41c-0.05,0.54-0.27,1.05-0.53,1.51
											c-0.26,0.47-0.58,0.9-0.87,1.33c-0.3,0.43-0.58,0.88-0.78,1.35c-0.21,0.47-0.33,0.97-0.36,1.46
											c-0.07,0.98,0.07,1.92,0,2.8c-0.06,0.88-0.37,1.68-0.72,2.4c-0.35,0.72-0.75,1.37-1.07,2c-0.17,0.31-0.32,0.62-0.44,0.93
											c-0.13,0.31-0.2,0.62-0.26,0.92c-0.1,0.6-0.09,1.17-0.02,1.67c0.13,1,0.5,1.72,0.83,2.12c0.08,0.11,0.17,0.18,0.24,0.26
											c0.07,0.07,0.14,0.12,0.19,0.16C422.03,389.33,422.09,389.37,422.09,389.37c0.01-0.01-0.24-0.15-0.56-0.56
											c-0.32-0.41-0.68-1.12-0.79-2.11c-0.06-0.49-0.06-1.05,0.04-1.64c0.06-0.29,0.13-0.6,0.26-0.9
											c0.12-0.3,0.28-0.61,0.44-0.92c0.33-0.62,0.73-1.27,1.09-1.99c0.36-0.72,0.68-1.53,0.75-2.44c0.08-0.9-0.06-1.84,0.02-2.8
											c0.03-0.48,0.15-0.96,0.35-1.41c0.2-0.46,0.48-0.89,0.77-1.32c0.3-0.43,0.61-0.87,0.88-1.34c0.27-0.47,0.5-1,0.56-1.58
											c0.14-1.16-0.53-2.26-0.36-3.4c0.08-0.57,0.37-1.1,0.7-1.59c0.33-0.5,0.72-0.97,1.05-1.5c0.66-1.07,0.98-2.33,1.23-3.59
											c0.25-1.26,0.42-2.56,0.9-3.79c0.24-0.61,0.54-1.21,0.94-1.73c0.4-0.53,0.91-0.97,1.5-1.27l-0.13-0.07
											c0,0.04,0.01,0.08,0.01,0.12c0.07,0.68,0.2,1.35,0.27,2.02c0.08,0.67,0.11,1.33,0.08,1.99c-0.02,0.33-0.04,0.67-0.09,0.97
											c-0.07,0.31-0.2,0.61-0.33,0.91c-0.26,0.6-0.52,1.2-0.7,1.83c-0.2,0.62-0.26,1.27-0.33,1.9
											c-0.07,0.63-0.14,1.25-0.21,1.87c-0.14,1.23-0.23,2.45-0.73,3.51c-0.25,0.53-0.57,1.02-0.82,1.55
											c-0.25,0.53-0.36,1.12-0.39,1.68c-0.06,1.13,0.08,2.23-0.22,3.22c-0.3,0.99-0.94,1.82-1.26,2.76
											c-0.34,0.95-0.2,1.94-0.06,2.81c0.14,0.88,0.28,1.73,0.09,2.51c-0.17,0.78-0.72,1.35-1.07,1.97
											c-0.18,0.31-0.31,0.64-0.36,0.98c-0.05,0.33-0.05,0.65-0.06,0.96c-0.02,0.3-0.03,0.6-0.12,0.85
											c-0.09,0.25-0.27,0.45-0.45,0.61c-0.38,0.32-0.79,0.51-1.14,0.64c-0.36,0.14-0.68,0.21-0.93,0.25
											c-0.26,0.05-0.46,0.05-0.59,0.06C422.16,389.37,422.09,389.37,422.09,389.37z"/>
									</g>
								</g>
							</g>
						</g>
					</g>
				</g>
				<g>
					<g>
						<g>
							<g>
								<g>
									<g>
										<path class="st7" d="M431.31,355c0,0-0.01,0.03-0.03,0.09c-0.02,0.07-0.04,0.16-0.06,0.26c-0.06,0.23-0.13,0.58-0.24,1.01
											c-0.11,0.43-0.38,0.92-0.61,1.52c-0.24,0.6-0.47,1.29-0.69,2.07c-0.22,0.78-0.42,1.64-0.63,2.57
											c-0.21,0.92-0.42,1.91-0.93,2.85c-0.24,0.47-0.51,0.95-0.72,1.48c-0.22,0.52-0.34,1.1-0.42,1.67
											c-0.14,1.16-0.35,2.33-0.63,3.53c-0.58,2.39-1.14,4.67-1.65,6.74c-0.52,2.07-0.99,3.93-1.38,5.5
											c-0.38,1.56-0.7,2.82-0.92,3.71c-0.1,0.43-0.18,0.77-0.24,1.01c-0.02,0.11-0.04,0.19-0.06,0.26
											c-0.01,0.06-0.02,0.09-0.01,0.09c0,0,0.01-0.03,0.03-0.09c0.02-0.07,0.05-0.15,0.08-0.26c0.07-0.24,0.16-0.58,0.27-1
											c0.23-0.89,0.57-2.15,0.97-3.7c0.41-1.57,0.89-3.43,1.42-5.49c0.51-2.07,1.07-4.35,1.66-6.74
											c0.28-1.2,0.49-2.39,0.63-3.54c0.08-0.57,0.19-1.12,0.4-1.63c0.21-0.51,0.47-0.99,0.71-1.47
											c0.51-0.95,0.73-1.97,0.93-2.89c0.2-0.93,0.39-1.79,0.6-2.57c0.21-0.78,0.44-1.47,0.66-2.07c0.21-0.6,0.47-1.1,0.58-1.54
											c0.1-0.44,0.16-0.79,0.2-1.02c0.02-0.11,0.03-0.2,0.05-0.27C431.31,355.03,431.31,355,431.31,355z"/>
									</g>
								</g>
							</g>
						</g>
					</g>
				</g>
			</g>
			<g>
				<g>
					<g>
						<g>
							<g>
								<g>
									<path class="st8" d="M422.6,389.38c1.91-1.13,2.45-4.57,1.66-6.64c-0.79-2.07-2.19-3.96-2.4-6.17
										c-0.16-1.7,0.39-3.44,0-5.09c-0.53-2.24-2.72-3.97-2.69-6.27c0.01-1.29,0.75-2.5,0.69-3.79c-0.07-1.58-1.29-2.84-2.04-4.23
										c-1.15-2.13-1.23-4.65-1.62-7.04c-0.39-2.39-1.3-4.95-3.42-6.13c-0.31,2.03-0.85,3.42-0.68,6.17
										c0.06,0.99,1.21,2.88,1.36,5.04c0.09,1.29,0.16,2.59,0.24,3.88c0.08,1.26,0.16,2.54,0.61,3.72c0.35,0.9,0.9,1.72,1.16,2.66
										c0.48,1.75-0.15,3.65,0.24,5.43c0.33,1.51,1.37,2.8,1.59,4.33c0.3,2.14-1.09,4.37-0.38,6.42c0.35,1.02,1.19,1.83,1.42,2.88
										c0.18,0.81-0.02,1.67,0.15,2.49c0.27,1.32,2.78,2.34,4.12,2.26"/>
								</g>
							</g>
						</g>
					</g>
				</g>
				<g>
					<g>
						<g>
							<g>
								<g>
									<g>
										<path class="st7" d="M413.3,346.03c0,0,0,0.04,0.01,0.11c0.01,0.09,0.03,0.2,0.04,0.33c0.04,0.29,0.09,0.72,0.19,1.28
											c0.11,0.56,0.39,1.19,0.63,1.95c0.24,0.76,0.48,1.63,0.7,2.61c0.22,0.98,0.4,2.06,0.59,3.22c0.2,1.16,0.4,2.43,0.98,3.65
											c0.27,0.61,0.57,1.22,0.79,1.87c0.23,0.65,0.34,1.34,0.4,2.06c0.1,1.44,0.29,2.93,0.56,4.44
											c0.58,3.01,1.14,5.87,1.65,8.48c0.53,2.6,1.01,4.94,1.42,6.91c0.41,1.96,0.74,3.54,0.97,4.65
											c0.12,0.54,0.21,0.96,0.27,1.26c0.03,0.14,0.06,0.24,0.08,0.33c0.02,0.07,0.03,0.11,0.03,0.11c0,0,0-0.04-0.01-0.11
											c-0.01-0.08-0.03-0.19-0.06-0.33c-0.06-0.3-0.14-0.73-0.24-1.27c-0.22-1.11-0.53-2.7-0.91-4.66
											c-0.39-1.97-0.86-4.31-1.38-6.91c-0.5-2.61-1.05-5.47-1.63-8.48c-0.27-1.51-0.46-2.98-0.56-4.42
											c-0.07-0.72-0.18-1.44-0.42-2.1c-0.23-0.66-0.54-1.28-0.8-1.88c-0.57-1.19-0.78-2.44-0.98-3.6
											c-0.2-1.16-0.39-2.25-0.61-3.23c-0.22-0.98-0.47-1.86-0.73-2.61c-0.24-0.76-0.54-1.39-0.65-1.93
											c-0.11-0.55-0.17-0.98-0.23-1.27c-0.03-0.14-0.05-0.25-0.06-0.33C413.31,346.07,413.3,346.03,413.3,346.03z"/>
									</g>
								</g>
							</g>
						</g>
					</g>
				</g>
			</g>
		</g>
	</g>
	<g class="st1">
		<g>
			<g>
				<rect x="76.85" y="303.16" class="st8" width="290.12" height="28.99"/>
			</g>
		</g>
		<g class="st10">
			<g>
				<rect x="76.85" y="303.16" width="290.12" height="28.99"/>
			</g>
		</g>
	</g>
	<g class="st1">
		<g>
			<rect x="218.48" y="335.81" class="st11" width="85.64" height="26.85"/>
		</g>
	</g>
	<g class="st1">
		<g>
			<polygon class="st7" points="158.63,323.66 158.63,359.16 187.87,359.16 199.59,342.17 413.1,342.17 413.1,323.66 			"/>
		</g>
	</g>
	<g class="st1">
		<g>
			<path class="st8" d="M156.81,211.27c-0.07-1.19-1.07-2.1-2.26-2.05c-11.55,0.47-66.42,2.99-77.71,8.41
				c-8.63,4.15-18.1,19.66-24.77,30.11c-4.78,7.49-15.35,24.11-17.48,32.61c-1.81,7.2-2.9,22.13-2.77,29.55l3.02,39.23h49.73
				l4.98-12.96c3.25-8.45,11.37-14.03,20.42-14.03h49.41v-65.11L156.81,211.27z"/>
		</g>
	</g>
	<g class="st1">
		<g>
			<g>
				<path class="st11" d="M70.95,221.97c-6.84,6.53-13.7,17.67-18.87,25.77c-4.43,6.93-13.81,21.69-16.87,30.59
					c-0.06,0.17-0.1,0.32-0.16,0.48c1.51-0.42,3.84-1.28,4.56-2.71c1.09-2.18,2.49-9.63,19.77-37.77
					C64.64,229.76,69.77,224.74,70.95,221.97z"/>
			</g>
		</g>
	</g>
	<g class="st1">
		<g>
			<g>
				<path class="st7" d="M131.27,219.07c-12.71,0.73-40.28,2.58-49.08,5.6c-11.47,3.93-24.35,34.29-24.96,35.62l-8.68,22.21
					c-0.21,0.63,0.26,1.28,0.92,1.28h22.43c0.85,0,1.69-0.15,2.48-0.45l58.99-21.98c2.67-0.99,4.44-3.54,4.44-6.39v-29.71
					C137.81,221.69,134.82,218.86,131.27,219.07z"/>
			</g>
		</g>
		<g>
			<g>
				<path class="st11" d="M51.04,281.6c0,0,8.32-18.65,11.11-24.75c4.22-9.23,14.08-28.12,20.74-30.12
					c6.12-1.84,23.72-4.07,48.5-5.49c0.08,0,0.16-0.01,0.24-0.01c2.21,0,4.01,1.8,4.01,4.02v30.38c0,1.52-0.96,2.91-2.39,3.44
					l-43.58,5.38c-3.53,0.44-6.7,2.4-8.65,5.38l-7.55,11.51c-0.44,0.17-0.91,0.25-1.39,0.25H51.04z"/>
			</g>
		</g>
		<g>
			<g>
				<path class="st7" d="M88.08,264.79l-14.84,16.5l8.2-54.79l2.05-0.71l-4.03,40.59c-0.09,0.89,0.8,1.56,1.63,1.23L88.08,264.79z"
					/>
			</g>
		</g>
	</g>
	<g class="st1">
		<g>
			<path class="st3" d="M30.85,313.7c-0.05-0.71,0.19-1.29,0.55-1.33l7.95-0.73c0.67-0.06,1.26,1.17,1.34,2.64l0.36,6.1
				c0.06,0.98-0.24,1.81-0.67,1.88l-8.1,1.4c-0.37,0.06-0.71-0.48-0.77-1.2L30.85,313.7z"/>
		</g>
	</g>
	<g class="st1">
		<g>
			<rect x="30.84" y="342.18" class="st7" width="57.24" height="22.95"/>
		</g>
	</g>
	<g class="st1">
		<g>
			<g>
				<g>
					<g>
						<g>
							<g>
								<g>
									<g>
										<g>
											
												<ellipse transform="matrix(0.9993 -0.0384 0.0384 0.9993 -13.658 5.0722)" class="st7" cx="125.11" cy="357.8" rx="31.32" ry="31.32"/>
										</g>
									</g>
								</g>
							</g>
						</g>
					</g>
				</g>
			</g>
		</g>
		<g>
			<g>
				<g>
					<g>
						<g>
							<g>
								<g>
									<g>
										<g>
											<path class="st7" d="M93.8,357.27c0,0.03-0.01,0.05-0.01,0.08c-0.25,17.29,13.57,31.52,30.86,31.76
												c17.29,0.25,31.52-13.57,31.77-30.86c0-0.03,0-0.05,0-0.08L93.8,357.27z"/>
										</g>
									</g>
								</g>
							</g>
						</g>
					</g>
				</g>
			</g>
		</g>
		<g>
			<g>
				<g>
					<g>
						<g>
							<g>
								<g>
									<g>
										<g>
											<path class="st5" d="M103.12,357.48c-0.18,12.14,9.53,22.13,21.67,22.3c12.14,0.18,22.13-9.53,22.3-21.67
												c0.18-12.14-9.53-22.13-21.67-22.3C113.28,335.64,103.3,345.34,103.12,357.48z"/>
										</g>
									</g>
								</g>
							</g>
						</g>
					</g>
				</g>
			</g>
		</g>
		<g>
			<g>
				<g>
					<g>
						<g>
							<g>
								<g>
									<g>
										<g>
											<path class="st4" d="M125.42,335.82c-12.14-0.18-22.13,9.53-22.3,21.67l43.97,0.63
												C147.27,345.98,137.57,335.99,125.42,335.82z"/>
										</g>
									</g>
								</g>
							</g>
						</g>
					</g>
				</g>
			</g>
		</g>
		<g>
			<g>
				<g>
					<g>
						<g>
							<g>
								<g>
									<g>
										<g>
											<path class="st7" d="M111.72,357.61c-0.11,7.4,5.8,13.48,13.2,13.58c7.4,0.11,13.48-5.8,13.59-13.2
												c0.11-7.4-5.8-13.48-13.2-13.58C117.91,344.3,111.82,350.21,111.72,357.61z"/>
										</g>
									</g>
								</g>
							</g>
						</g>
					</g>
				</g>
			</g>
		</g>
	</g>
	<g class="st1">
		<g>
			<g>
				<path class="st7" d="M63.09,270.11L63.09,270.11c-3.59,0-6.49-2.91-6.49-6.49v-18.17c0-3.58,2.91-6.49,6.49-6.49h0
					c3.58,0,6.49,2.91,6.49,6.49v18.17C69.58,267.21,66.67,270.11,63.09,270.11z"/>
			</g>
		</g>
		<g>
			<g>
				<path class="st7" d="M51.22,289.37h-0.65v-32.94c0-3.27,2.66-5.93,5.93-5.93h1.57v0.65h-1.57c-2.91,0-5.27,2.37-5.27,5.27
					V289.37z"/>
			</g>
		</g>
		<g>
			<g>
				<path class="st7" d="M55.67,289.42l-1.82-30.81c-0.06-1.08,0.31-2.1,1.05-2.89c0.74-0.79,1.74-1.22,2.82-1.22v0.65
					c-0.9,0-1.73,0.36-2.35,1.01c-0.62,0.65-0.93,1.51-0.87,2.4l1.82,30.81L55.67,289.42z"/>
			</g>
		</g>
		<g>
			<g>
				<rect x="48.92" y="286.41" class="st7" width="8.81" height="10.2"/>
			</g>
		</g>
		<g>
			<g>
				<rect x="50.89" y="267.05" class="st7" width="3.58" height="0.65"/>
			</g>
		</g>
	</g>
	<g class="st1">
		<g>
			<g>
				<path class="st7" d="M84.36,219.95c0,0,0.26-0.04,0.78-0.1c0.52-0.06,1.29-0.15,2.29-0.27c2.03-0.23,5.01-0.58,8.88-1.03
					c7.75-0.88,19.01-2.16,33.1-3.77c1.77-0.19,3.56-0.43,5.43-0.59c0.94-0.1,1.89,0.02,2.84,0.19c0.93,0.23,1.86,0.54,2.72,1.03
					c1.72,0.96,3.2,2.44,4.12,4.28c0.46,0.92,0.81,1.91,0.95,2.95c0.11,0.51,0.1,1.04,0.14,1.57c0,0.52,0,1.05,0,1.57
					c0.01,8.43,0.01,17.49,0.02,27.09c0.01,19.19,0.01,40.54,0.02,63.35l0,0.17h-0.17c-7.35,0-14.9,0-22.59,0
					c-3.85,0-7.74,0-11.65,0c-1.96,0.01-3.93-0.04-5.86,0.28c-1.95,0.23-3.83,0.87-5.67,1.58c-5.69,2.44-10.22,7.21-12.39,12.83
					c-0.25,0.71-0.56,1.4-0.72,2.14c-0.17,0.73-0.42,1.44-0.5,2.19l-0.17,1.11l-0.08,0.55l-0.03,0.56l-0.06,1.12l-0.03,0.56l0,0.07
					c0.15-0.15-0.2,0.22-0.17,0.18h-0.02h-0.04h-0.14l-0.28,0c-2.99,0-5.97,0-8.91,0c-11.79,0-23.19-0.01-34.07-0.01l-0.16,0l0-0.16
					c0-9.85,0.01-19.34,0.01-28.41c0-4.53,0-8.96,0.01-13.28c0-2.16,0-4.29,0-6.39c0-1.05-0.01-2.09,0.01-3.13
					c0.02-1.04,0.1-2.07,0.22-3.09c0.5-4.07,1.83-7.9,3.7-11.25c1.8-3.38,3.54-6.65,5.22-9.79c3.35-6.29,6.44-12.09,9.25-17.35
					c2.8-5.26,5.32-9.97,7.51-14.09c0.55-1.03,1.08-2.02,1.59-2.97c0.26-0.47,0.49-0.95,0.76-1.39c0.27-0.44,0.57-0.86,0.88-1.25
					c1.24-1.56,2.63-2.76,3.96-3.68c2.7-1.83,5.15-2.56,6.78-2.95C83.48,219.99,84.36,219.95,84.36,219.95s-0.22,0.04-0.64,0.1
					c-0.42,0.06-1.05,0.17-1.87,0.37c-1.62,0.4-4.06,1.15-6.73,2.98c-1.32,0.92-2.69,2.12-3.92,3.67c-0.3,0.39-0.6,0.8-0.87,1.24
					c-0.27,0.44-0.5,0.92-0.76,1.39c-0.51,0.95-1.03,1.95-1.58,2.98c-2.18,4.12-4.69,8.84-7.48,14.11
					c-2.79,5.27-5.87,11.07-9.21,17.37c-1.67,3.15-3.4,6.42-5.2,9.8c-1.85,3.34-3.16,7.13-3.65,11.17
					c-0.12,1.01-0.19,2.03-0.22,3.06c-0.02,1.03,0,2.08-0.01,3.13c0,2.1,0,4.23,0,6.39c0,4.32,0,8.75,0.01,13.28
					c0,9.07,0.01,18.56,0.01,28.41l-0.16-0.16c10.88,0,22.28-0.01,34.07-0.01c2.95,0,5.92,0,8.91,0l0.28,0h0.14h0.04h0.02
					c0.05-0.03-0.32,0.31-0.16,0.16l0-0.07l0.03-0.57l0.06-1.13l0.03-0.57l0.08-0.56l0.17-1.13c0.08-0.76,0.33-1.48,0.51-2.22
					c0.16-0.75,0.48-1.45,0.73-2.17c2.21-5.71,6.8-10.55,12.57-13.02c1.86-0.73,3.77-1.37,5.75-1.61c1.97-0.33,3.96-0.27,5.91-0.28
					c3.92,0,7.81,0,11.65,0c7.7,0,15.24,0,22.59,0l-0.17,0.17c0.01-22.8,0.02-44.15,0.02-63.35c0.01-9.6,0.01-18.65,0.02-27.09
					c0-1.06,0.04-2.1-0.13-3.11c-0.14-1.01-0.47-1.98-0.92-2.88c-0.89-1.8-2.34-3.25-4.02-4.19c-0.84-0.48-1.75-0.78-2.66-1.01
					c-0.92-0.16-1.86-0.29-2.78-0.19c-1.84,0.16-3.66,0.39-5.42,0.58c-14.1,1.56-25.37,2.81-33.12,3.67
					c-3.87,0.42-6.86,0.75-8.89,0.97c-1.01,0.11-1.78,0.19-2.3,0.24C84.62,219.93,84.36,219.95,84.36,219.95z"/>
			</g>
		</g>
	</g>
	<g class="st1">
		<g>
			<g>
				<g>
					<g>
						<g>
							<g>
								<path class="st7" d="M135.22,292.15c0-0.02,0.18-0.02,0.51-0.08c0.33-0.06,0.82-0.19,1.34-0.54
									c0.52-0.34,1.09-0.93,1.37-1.78c0.15-0.42,0.2-0.89,0.17-1.41c-0.01-0.5-0.14-1.03-0.4-1.52c-0.51-0.98-1.63-1.79-2.94-1.79
									c-1.35,0-2.79,0.01-4.31,0.01c-3.04,0-6.38,0.01-9.88,0.01c-0.84,0-1.65,0.33-2.25,0.88c-0.6,0.55-0.98,1.31-1.07,2.09
									c-0.08,0.8,0.03,1.59,0.41,2.26c0.37,0.67,0.97,1.17,1.64,1.45c0.67,0.3,1.4,0.26,2.13,0.26c0.72,0,1.42,0.01,2.09,0.01
									c1.35,0.01,2.61,0.01,3.76,0.02c2.27,0.02,4.12,0.04,5.44,0.05c0.62,0.01,1.11,0.02,1.48,0.03
									C135.04,292.13,135.22,292.14,135.22,292.15c0,0.01-0.18,0.02-0.52,0.03c-0.37,0.01-0.86,0.02-1.48,0.03
									c-1.32,0.01-3.17,0.03-5.44,0.05c-1.15,0.01-2.41,0.01-3.76,0.02c-0.68,0-1.37,0.01-2.09,0.01c-0.36,0-0.71,0.02-1.1-0.01
									c-0.38-0.03-0.77-0.11-1.14-0.26c-0.73-0.3-1.39-0.85-1.8-1.58c-0.42-0.72-0.54-1.61-0.46-2.45c0.09-0.86,0.51-1.7,1.17-2.3
									c0.66-0.61,1.56-0.97,2.47-0.97c3.5,0,6.84,0.01,9.88,0.01c1.52,0.01,2.96,0.01,4.31,0.02c1.43,0.01,2.62,0.91,3.15,1.96
									c0.27,0.53,0.4,1.09,0.4,1.63c0.01,0.52-0.05,1.03-0.21,1.47c-0.32,0.89-0.92,1.49-1.47,1.83c-0.56,0.34-1.07,0.46-1.4,0.49
									C135.4,292.18,135.22,292.15,135.22,292.15z"/>
							</g>
						</g>
					</g>
				</g>
			</g>
		</g>
		<g>
			<g>
				<g>
					<g>
						<g>
							<g>
								<path class="st6" d="M134.01,283.94c0,0.09-2.51,0.17-5.6,0.17c-3.09,0-5.6-0.07-5.6-0.17c0-0.09,2.51-0.17,5.6-0.17
									C131.5,283.78,134.01,283.85,134.01,283.94z"/>
							</g>
						</g>
					</g>
				</g>
			</g>
		</g>
	</g>
	<g class="st1">
		<g>
			<path class="st7" d="M90.69,365.32l-5.21-0.38c1.36-18.72,3.36-29.91,6.11-34.23c5.28-8.3,10.53-9.79,16.35-10.79
				c5.41-0.92,10.87-0.7,16.15-0.49l1.3,0.05c10.9,0.42,33.72,0.05,33.95,0.04l0.09,5.23c-0.23,0-23.2,0.38-34.25-0.05l-1.3-0.05
				c-5.01-0.2-10.19-0.41-15.06,0.42c-5.2,0.89-8.65,1.9-12.82,8.44C94.73,335.5,92.37,342.26,90.69,365.32z"/>
		</g>
	</g>
	<g class="st1">
		<g>
			<rect x="162.12" y="152.11" class="st8" width="257.39" height="171.38"/>
		</g>
	</g>
	<g class="st1">
		<g>
			<g>
				<path class="st7" d="M416.42,320.09c0-1.1-0.05-63.96-0.14-164.11l0.13,0.14c-68.96,0.01-156.53,0.02-251.53,0.04h-0.02
					l0.17-0.17c0,58.34-0.01,113.86-0.01,164.11l-0.16-0.16C312.87,320.03,415.02,320.09,416.42,320.09
					c-1.4,0-103.55,0.06-251.55,0.16l-0.16,0v-0.16c0-50.25-0.01-105.78-0.01-164.11v-0.17h0.17h0.02
					c95.01,0.01,182.57,0.03,251.53,0.04h0.14l0,0.14C416.48,256.13,416.43,318.99,416.42,320.09z"/>
			</g>
		</g>
	</g>
	<g class="st1">
		<g>
			<g>
				<path class="st5" d="M125.5,233.26c0.01,0.01-0.08,0.08-0.24,0.2c-0.2,0.14-0.43,0.31-0.72,0.52c-0.63,0.45-1.55,1.08-2.69,1.85
					c-2.28,1.55-5.46,3.65-8.99,5.91c-3.54,2.27-6.78,4.28-9.13,5.7c-1.18,0.71-2.14,1.28-2.8,1.67c-0.31,0.17-0.56,0.32-0.77,0.44
					c-0.18,0.1-0.28,0.14-0.28,0.13s0.08-0.08,0.25-0.19c0.2-0.13,0.45-0.3,0.74-0.49c0.69-0.45,1.62-1.04,2.75-1.76
					c2.37-1.51,5.55-3.54,9.08-5.79c3.51-2.26,6.69-4.31,9.05-5.83c1.13-0.72,2.05-1.31,2.75-1.76c0.3-0.18,0.55-0.34,0.76-0.47
					C125.4,233.3,125.5,233.25,125.5,233.26z"/>
			</g>
		</g>
	</g>
	<g class="st1">
		<g>
			<g>
				<path class="st5" d="M114.36,236.21c0.01,0.01-0.08,0.08-0.24,0.2c-0.2,0.14-0.43,0.31-0.72,0.52
					c-0.63,0.44-1.55,1.08-2.69,1.85c-2.28,1.55-5.46,3.65-8.99,5.91c-3.54,2.27-6.78,4.28-9.13,5.7c-1.18,0.71-2.14,1.28-2.8,1.67
					c-0.31,0.17-0.56,0.32-0.77,0.44c-0.18,0.1-0.28,0.14-0.28,0.13s0.08-0.08,0.25-0.19c0.2-0.13,0.45-0.3,0.74-0.49
					c0.69-0.45,1.62-1.04,2.75-1.76c2.37-1.51,5.55-3.54,9.08-5.79c3.51-2.26,6.69-4.31,9.05-5.83c1.13-0.72,2.05-1.31,2.75-1.76
					c0.3-0.18,0.55-0.34,0.76-0.47C114.26,236.25,114.36,236.2,114.36,236.21z"/>
			</g>
		</g>
	</g>
	<g class="st1">
		<g>
			<g>
				<path class="st5" d="M59.36,255.23c-0.02,0.01-0.09-0.2-0.2-0.57c-0.11-0.38-0.25-0.92-0.41-1.6c-0.31-1.36-0.71-3.27-0.69-5.42
					c0.02-2.16,0.57-4.08,1.24-5.32c0.33-0.62,0.67-1.09,0.93-1.38c0.26-0.3,0.42-0.44,0.44-0.43c0.05,0.04-0.55,0.68-1.15,1.92
					c-0.6,1.23-1.1,3.11-1.12,5.22c-0.02,2.11,0.34,4,0.59,5.37C59.24,254.37,59.41,255.22,59.36,255.23z"/>
			</g>
		</g>
	</g>
	<g class="st1">
		<g>
			<g>
				<path class="st5" d="M32.78,301.55c-0.02,0-0.03-0.26-0.04-0.73c0-0.47,0.01-1.15,0.04-1.99c0.05-1.68,0.17-3.99,0.38-6.55
					c0.2-2.55,0.45-4.86,0.65-6.53c0.1-0.83,0.2-1.51,0.27-1.97c0.07-0.46,0.13-0.72,0.15-0.72c0.02,0,0.02,0.26-0.02,0.73
					c-0.04,0.54-0.1,1.2-0.16,1.98c-0.15,1.75-0.34,4.02-0.55,6.53c-0.18,2.51-0.35,4.78-0.47,6.53c-0.06,0.78-0.11,1.44-0.15,1.98
					C32.83,301.29,32.8,301.55,32.78,301.55z"/>
			</g>
		</g>
	</g>
	<g class="st1">
		<g>
			<g>
				<path class="st5" d="M104.35,314.23c0.01,0.07-1.26,0.25-3.21,0.88c-0.98,0.31-2.12,0.77-3.34,1.36
					c-1.21,0.61-2.5,1.37-3.76,2.28c-1.26,0.93-2.36,1.94-3.31,2.91c-0.93,0.99-1.7,1.93-2.29,2.78c-1.19,1.68-1.74,2.83-1.8,2.8
					c-0.02-0.01,0.11-0.3,0.36-0.82c0.12-0.26,0.28-0.58,0.5-0.93c0.21-0.35,0.44-0.77,0.74-1.19c0.57-0.87,1.33-1.84,2.26-2.86
					c0.94-1,2.06-2.02,3.33-2.97c1.28-0.93,2.6-1.69,3.83-2.29c1.24-0.58,2.4-1.02,3.4-1.3c0.49-0.16,0.95-0.25,1.35-0.35
					c0.4-0.1,0.75-0.16,1.04-0.2C104.03,314.25,104.35,314.21,104.35,314.23z"/>
			</g>
		</g>
	</g>
	<g class="st1">
		<g>
			<g>
				<g>
					<g>
						<g>
							<g>
								<g>
									<g>
										<g>
											<g>
												
													<ellipse transform="matrix(0.9992 -0.0399 0.0399 0.9992 -13.9848 14.4989)" class="st7" cx="356.45" cy="357.8" rx="31.32" ry="31.32"/>
											</g>
										</g>
									</g>
								</g>
							</g>
						</g>
					</g>
				</g>
			</g>
			<g>
				<g>
					<g>
						<g>
							<g>
								<g>
									<g>
										<g>
											<g>
												<path class="st7" d="M325.14,357.27c0,0.03-0.01,0.05-0.01,0.08c-0.25,17.29,13.57,31.52,30.86,31.76
													c17.29,0.25,31.52-13.57,31.77-30.86c0-0.03,0-0.05,0-0.08L325.14,357.27z"/>
											</g>
										</g>
									</g>
								</g>
							</g>
						</g>
					</g>
				</g>
			</g>
			<g>
				<g>
					<g>
						<g>
							<g>
								<g>
									<g>
										<g>
											<g>
												<path class="st5" d="M334.46,357.48c-0.18,12.14,9.53,22.13,21.67,22.3c12.14,0.18,22.13-9.53,22.3-21.67
													c0.18-12.14-9.53-22.13-21.67-22.3C344.62,335.64,334.64,345.34,334.46,357.48z"/>
											</g>
										</g>
									</g>
								</g>
							</g>
						</g>
					</g>
				</g>
			</g>
			<g>
				<g>
					<g>
						<g>
							<g>
								<g>
									<g>
										<g>
											<g>
												<path class="st4" d="M356.76,335.82c-12.14-0.18-22.13,9.53-22.3,21.67l43.97,0.63
													C378.6,345.98,368.9,335.99,356.76,335.82z"/>
											</g>
										</g>
									</g>
								</g>
							</g>
						</g>
					</g>
				</g>
			</g>
			<g>
				<g>
					<g>
						<g>
							<g>
								<g>
									<g>
										<g>
											<g>
												<path class="st7" d="M343.05,357.61c-0.11,7.4,5.8,13.48,13.2,13.58c7.4,0.11,13.48-5.8,13.59-13.2
													c0.11-7.4-5.8-13.48-13.2-13.58C349.24,344.3,343.16,350.21,343.05,357.61z"/>
											</g>
										</g>
									</g>
								</g>
							</g>
						</g>
					</g>
				</g>
			</g>
		</g>
		<g>
			<g>
				<path class="st11" d="M315.28,366.38c0,0-4.77-44.41,41.26-44.41c42.47,0,41.53,38.21,41.12,44.12H391
					c0,0,3.39-37.65-34.46-37.65c-37.86,0-34.56,38.42-34.56,38.42S319.18,366.7,315.28,366.38z"/>
			</g>
		</g>
		<g>
			<g>
				<g>
					<path class="st5" d="M339.93,326.56c0,0.01-0.12,0.06-0.36,0.13c-0.24,0.08-0.6,0.17-1.05,0.32c-0.91,0.28-2.2,0.75-3.74,1.46
						c-3.07,1.4-7.11,3.99-10.44,7.96c-3.34,3.97-5.19,8.4-6.03,11.66c-0.43,1.64-0.67,3-0.79,3.94c-0.08,0.47-0.1,0.84-0.14,1.09
						c-0.03,0.25-0.06,0.38-0.07,0.38c-0.01,0-0.01-0.13,0-0.38c0.02-0.25,0.02-0.62,0.07-1.1c0.08-0.95,0.28-2.32,0.69-3.98
						c0.79-3.31,2.63-7.8,6.01-11.82c3.37-4.02,7.48-6.6,10.6-7.96c1.56-0.69,2.88-1.12,3.8-1.37c0.46-0.14,0.82-0.2,1.07-0.26
						C339.8,326.57,339.93,326.54,339.93,326.56z"/>
				</g>
			</g>
		</g>
	</g>
</g>
</svg>
