<svg xmlns="http://www.w3.org/2000/svg" xmlns:xlink="http://www.w3.org/1999/xlink" width="231.568" height="231.568" viewBox="0 0 231.568 231.568">
    <defs>
        <clipPath id="clip-path">
            <path id="Path_1316" data-name="Path 1316" d="M176.935,130.316A115.784,115.784,0,1,0,292.719,14.532,115.784,115.784,0,0,0,176.935,130.316" transform="translate(-176.935 -14.532)" fill="none"/>
        </clipPath>
        <clipPath id="clip-path-2">
            <rect id="Rectangle_2335" data-name="Rectangle 2335" width="276.129" height="204.016" fill="none"/>
        </clipPath>
        <clipPath id="clip-path-3">
            <path id="Path_1250" data-name="Path 1250" d="M122.494,79.321c-62.207,60.341-25.776,175.5-25.776,175.5l245.629.5s45.769-81.921-1.519-148.484C297.16,45.376,170.187,33.06,122.494,79.321" transform="translate(-86.116 -51.31)" fill="none"/>
        </clipPath>
        <linearGradient id="linear-gradient" x1="-0.002" y1="1.073" x2="-0.001" y2="1.073" gradientUnits="objectBoundingBox">
            <stop offset="0" stop-color="#5bdb98"/>
            <stop offset="1" stop-color="#60e99c"/>
        </linearGradient>
        <clipPath id="clip-path-4">
            <rect id="Rectangle_2338" data-name="Rectangle 2338" width="4.384" height="17.225" fill="none"/>
        </clipPath>
    </defs>
    <g id="Group_1136" data-name="Group 1136" transform="translate(0 0)">
        <g id="Group_1135" data-name="Group 1135" clip-path="url(#clip-path)">
            <rect id="Rectangle_2333" data-name="Rectangle 2333" width="323.665" height="234.492" transform="translate(-54.203 -4.452)" fill="#fff"/>
            <g id="Group_1131" data-name="Group 1131" transform="translate(-27.822 11.267)" opacity="0.12">
                <g id="Group_1130" data-name="Group 1130">
                    <g id="Group_1129" data-name="Group 1129" clip-path="url(#clip-path-2)">
                        <g id="Group_1128" data-name="Group 1128" transform="translate(0 0)">
                            <g id="Group_1127" data-name="Group 1127" clip-path="url(#clip-path-3)">
                                <rect id="Rectangle_2334" data-name="Rectangle 2334" width="327.829" height="222.266" transform="translate(-25.83 -18.25)" fill="url(#linear-gradient)"/>
                            </g>
                        </g>
                    </g>
                </g>
            </g>
            <rect id="Rectangle_2336" data-name="Rectangle 2336" width="75.644" height="174.023" transform="translate(-12.963 39.278)" fill="#9bc1f9"/>
            <rect id="Rectangle_2337" data-name="Rectangle 2337" width="4.946" height="184.352" transform="translate(33.003 29)" fill="#466eb6"/>
            <path id="Path_1251" data-name="Path 1251" d="M181.093,109.2c0,.468.034,184.276.034,184.276H135.342V119.37Z" transform="translate(-148.084 -80.203)" fill="#86b1f2"/>
            <path id="Path_1252" data-name="Path 1252" d="M152.45,169.7l.225,48.666a4.715,4.715,0,0,1,.573-.035,4.619,4.619,0,0,1,4.61,4.6l25.408-3.127a4.619,4.619,0,0,1,4.054-4.6l-.229-50.938a4.67,4.67,0,0,1-.969.1,4.621,4.621,0,0,1-4.609-4.6l-25.405,5.4a4.618,4.618,0,0,1-3.658,4.539m1.782,1.258a6.445,6.445,0,0,0,3.483-4.322l22.389-4.758a6.416,6.416,0,0,0,5.219,4.21l.214,47.743a6.409,6.409,0,0,0-3.852,4.375l-22.37,2.753a6.422,6.422,0,0,0-4.872-4.292Z" transform="translate(-159.951 -115.269)" fill="#9bc1f9"/>
            <path id="Path_1253" data-name="Path 1253" d="M152.707,469.934l.1,58h.009a4.619,4.619,0,0,1,4.618,4.61l6.639-.012a4.618,4.618,0,0,1,4.61-4.618V469.345c-.136.012-.27.017-.4.017a4.619,4.619,0,0,1-4.611-4.618l-6.742.581a4.618,4.618,0,0,1-4.221,4.609m1.779,1.409a6.475,6.475,0,0,0,4-4.369l3.7-.319a6.414,6.414,0,0,0,4.723,4.335v55.4a6.426,6.426,0,0,0-4.36,4.367l-3.592.006a6.424,6.424,0,0,0-4.375-4.359Z" transform="translate(-160.129 -326.825)" fill="#9bc1f9"/>
            <path id="Path_1254" data-name="Path 1254" d="M214.527,464.764v59.6h.008a4.618,4.618,0,0,1,4.618,4.618l5.423-.01a4.618,4.618,0,0,1,4.61-4.583l.459-60.1c-.136.012-.27.018-.4.018a4.618,4.618,0,0,1-4.611-4.654l-5.882.507a4.618,4.618,0,0,1-4.221,4.6m1.776,1.418a6.339,6.339,0,0,0,4.011-4.372l2.818-.243a6.418,6.418,0,0,0,4.724,4.367l-.435,56.93a6.446,6.446,0,0,0-4.36,4.334l-2.384,0a6.422,6.422,0,0,0-4.375-4.367Z" transform="translate(-203.011 -323.296)" fill="#9bc1f9"/>
            <path id="Path_1255" data-name="Path 1255" d="M244.47,402.095c0,2,.835,3.618,1.865,3.618s1.865-1.62,1.865-3.618-.835-3.618-1.865-3.618-1.865,1.62-1.865,3.618" transform="translate(-223.781 -280.858)" fill="#f7cc7f"/>
            <path id="Path_1256" data-name="Path 1256" d="M238.768,406.13v2.853h3.909a6.8,6.8,0,0,0,.055-2.853Z" transform="translate(-219.826 -286.167)" fill="#f47458"/>
            <path id="Path_1257" data-name="Path 1257" d="M229.982,397.941c0,3.012,1.258,5.453,2.811,5.453s2.811-2.441,2.811-5.453-1.259-5.452-2.811-5.452-2.811,2.441-2.811,5.452" transform="translate(-213.731 -276.705)" fill="#fae0b2"/>
            <path id="Path_1258" data-name="Path 1258" d="M227.52,397.941c0,3.012,1.258,5.453,2.811,5.453s2.811-2.441,2.811-5.453-1.258-5.452-2.811-5.452-2.811,2.441-2.811,5.452" transform="translate(-212.024 -276.705)" fill="#fae0b2"/>
            <path id="Path_1259" data-name="Path 1259" d="M80.749,714.242H353.2c.691,0,1.252-.819,1.252-1.83s-.56-1.83-1.252-1.83H80.749c-.692,0-1.252.82-1.252,1.83s.56,1.83,1.252,1.83" transform="translate(-109.346 -497.352)" fill="#56cd93"/>
            <path id="Path_1260" data-name="Path 1260" d="M861.884,663.713s.019.175.019.468a6.211,6.211,0,0,1-1.543,4.241c-1.83,1.9-1.841,4.272.092,4.677s6.544-.13,6.544-.13,1.043-1.811.331-6.649-1.125-10.144-1.125-10.144l-5.253-.82Z" transform="translate(-650.051 -459.045)" fill="#ff7446"/>
            <path id="Path_1261" data-name="Path 1261" d="M858.927,688.757a30.037,30.037,0,0,0-2.4,3.747c-.456,1.1-.358,3.847,0,4.13,3.151,2.488,9.125.249,9.125.249a35.528,35.528,0,0,0,.618-4.063c.207-2.239.091-4.325-.618-4.325s-.833,1.174-2.45.842-2.612-.912-4.27-.58" transform="translate(-648.123 -482.032)" fill="#001653"/>
            <path id="Path_1262" data-name="Path 1262" d="M866.143,706.253a20.954,20.954,0,0,1-4.4,1.248,11.469,11.469,0,0,1-5.5-1.227,5.351,5.351,0,0,0,.279,2.678c3.151,2.488,9.125.249,9.125.249s.281-1.249.5-2.948" transform="translate(-648.124 -494.35)" fill="#fff"/>
            <path id="Path_1263" data-name="Path 1263" d="M866.206,706.253c-4.52,1.358-5.352,1.6-9.9.021a13.817,13.817,0,0,0,2.377,1.005,6.773,6.773,0,0,0,3.87.25,16.782,16.782,0,0,0,3.653-1.276" transform="translate(-648.186 -494.35)" fill="#957447"/>
            <path id="Path_1264" data-name="Path 1264" d="M692.316,375.451c1.293.486,3.008,1.208,3.008,1.208.221-.533-4.047-1.446-4.646-2.745-.321-.7,4.9,1.865,5.261,1.56.15-.126-5.9-2.1-5.624-2.573.234-.4,6.365,1.761,6.4,1.462.047-.415-5.308-1.489-4.828-2.088.246-.306,6.744,1.451,7.446,1.554.858,0-2.247-2.109-1.189-2.391,1.436-.383,5.043,3.752,5.325,3.81.816.169,7.768,1.02,11.171-1.206,2.749-1.8,5.417-4.563,6.07-6.944.64-2.334,1.527-5.668.769-8.24a33.76,33.76,0,0,1,9.243-.2c.191,3.862-4.433,19.166-6.367,20.426-4.254,2.77-11.843,2.093-17.193,1.652a33.073,33.073,0,0,1-12.419-3.175,9.007,9.007,0,0,1-2.7-1.7.253.253,0,0,1,.279-.4" transform="translate(-533.038 -253.078)" fill="#f25c12"/>
            <path id="Path_1265" data-name="Path 1265" d="M789.41,307.052c-2.3,2.38-4.632,16.641-3.775,20.04,1.479,2.761,8.175,3.237,10.341,4.547,5-2.054,1.573-11.266,1.573-11.266l1.821-17.942a15.45,15.45,0,0,0-9.96,4.621" transform="translate(-599.038 -214.235)" fill="#e6a500"/>
            <path id="Path_1266" data-name="Path 1266" d="M793.066,664.62a5.481,5.481,0,0,1-1.74,5.92,9.206,9.206,0,0,1-2.1,1.294c-3.06,1.338-7.023,1.037-7.576,3.785s19.4-.771,19.4-.771-1.385-6.683-1.474-7.8.122-5.23.122-5.23L792,661.261Z" transform="translate(-596.395 -463.141)" fill="#ff7446"/>
            <path id="Path_1267" data-name="Path 1267" d="M799.615,687.112s.244,1.062.8,2.861a7.8,7.8,0,0,1,.21,3.494s-18.692.886-19.449.294-.368-2.747-.177-2.938,2.564-.831,3.78-1.582,5.372-3.59,6.775-3.476,2.052,1.152,4.718,1.27,2.677-.44,3.339.078" transform="translate(-595.763 -480.135)" fill="#001653"/>
            <path id="Path_1268" data-name="Path 1268" d="M781.178,705.22c.757.592,19.449-.294,19.449-.294a7.823,7.823,0,0,0,.019-2.491A59.3,59.3,0,0,1,781,702.282c-.191.191-.58,2.346.177,2.938" transform="translate(-595.762 -491.595)" fill="#fff"/>
            <path id="Path_1269" data-name="Path 1269" d="M801.26,702.437a51,51,0,0,1-19.644-.154,68.38,68.38,0,0,0,17.811.4l1.833-.25" transform="translate(-596.377 -491.596)" fill="#957447"/>
            <path id="Path_1270" data-name="Path 1270" d="M815.714,442.944c3.207,11.727-.775,64.332-.775,64.332l-9.6-.657s-2.185-52.331-3.769-53.915a.968.968,0,0,0-1.344-.054,2.082,2.082,0,0,0-.794,1.115c-.988,3.229-6.635,22.025-5.5,26.141,1.247,4.507,6.81,28.651,6.81,28.651l-8.056.322s-11.046-18.445-11.046-31.322,1.8-29.946,7.017-36.891c2.376-3.161,14.072-5.607,14.072-5.607s11.982,4.222,12.984,7.886" transform="translate(-596.394 -306.233)" fill="#021f6e"/>
            <path id="Path_1271" data-name="Path 1271" d="M820.461,546.358s-5.563-25.744-6.81-30.55c-.905-3.489,2.48-16.876,4.4-23.945a3.087,3.087,0,0,1,4.867-1.632s-8.133,22.99-6.887,27.5,6.81,28.651,6.81,28.651l-8.056.322-.059-.1Z" transform="translate(-618.494 -344.056)" fill="#021753"/>
            <path id="Path_1272" data-name="Path 1272" d="M883.734,452.854a5.327,5.327,0,0,1,1.993,2.434c3.207,11.727-.775,64.331-.775,64.331l-2.378-.163c.134-1.9,3.581-51.417,1.16-66.6" transform="translate(-666.408 -318.577)" fill="#021753"/>
            <path id="Path_1273" data-name="Path 1273" d="M798.524,454.082a17.928,17.928,0,0,1,1.844-3.145,5.134,5.134,0,0,1,1.172-1.07,36.077,36.077,0,0,0,5.732,2.211,34.9,34.9,0,0,0,19.443-.1,3.332,3.332,0,0,1,.709,1.234,26.915,26.915,0,0,1,.68,3.913c-1.722,1.281-11.728,4.374-20.832,1.477-5.778-1.839-7.932-2.953-8.749-4.524" transform="translate(-608.105 -316.506)" fill="#021753"/>
            <path id="Path_1274" data-name="Path 1274" d="M865.855,670.376c-2.46.8-8.381.6-9.8,0-1.3-.554-1.392-5.4,0-5.667a45.928,45.928,0,0,1,9.8,0c1.4.2,1.347,5.23,0,5.667" transform="translate(-647.313 -465.351)" fill="#5d70a2"/>
            <path id="Path_1275" data-name="Path 1275" d="M818.2,663.3c-2.46.8-8.381.6-9.8,0-1.3-.554-1.392-5.4,0-5.667a45.927,45.927,0,0,1,9.8,0c1.4.2,1.347,5.229,0,5.667" transform="translate(-614.254 -460.445)" fill="#5d70a2"/>
            <path id="Path_1276" data-name="Path 1276" d="M812.984,300.015s8.007-.412,11.279,3.466,3.005,44.618,1.68,45.754-12.7,4.571-21.742,1.9-9.614-6.346-9.614-6.346,2.405-27.4,2.405-34.886,7.311-11.9,15.991-9.885" transform="translate(-605.375 -212.222)" fill="#fcc332"/>
            <path id="Path_1277" data-name="Path 1277" d="M867.475,345.635c.708-1.967-.05-8.224-.856-12.751-.63.12-1.236.264-1.809.429-.967-2.994-1.82-10.765-1.848-15.65-.054-9.164,4.585-11.829,4.585-11.829.919-.21,2.39.655,4.691,3.05,2.657,7.265,2.1,41.073.855,42.142-.531.456-1.569,3.313-4.247,3.88-.7-2.733-2.027-7.453-1.372-9.272" transform="translate(-652.803 -216.575)" fill="#e6a500"/>
            <path id="Path_1278" data-name="Path 1278" d="M835.407,300c1.736,1.6,1.871,1.626.067,3.721s-7.777,4.474-8.628,4.072c-2.114-1-.147-4.33,1.26-6.726.44-.748,5.564-2.662,7.3-1.066" transform="translate(-627.107 -212.117)" fill="#e6a500"/>
            <path id="Path_1279" data-name="Path 1279" d="M831.09,252.237s-.467,11.026,0,11.508,7.168-1.851,7.753-3.219-2.442-21.3-2.442-21.3Z" transform="translate(-630.551 -170.393)" fill="#f25c12"/>
            <g id="Group_1134" data-name="Group 1134" transform="translate(200.337 71.89)" opacity="0.6">
                <g id="Group_1133" data-name="Group 1133">
                    <g id="Group_1132" data-name="Group 1132" clip-path="url(#clip-path-4)">
                        <path id="Path_1280" data-name="Path 1280" d="M830.9,266.428a5.565,5.565,0,0,0,2.5-.853c2.733-3.088.685-8.1.9-9.4.428-2.593,1.3-4.735.862-6.971l-4.063,9.955s-.169,3.986-.2,7.27" transform="translate(-830.901 -249.203)" fill="#b5450e"/>
                    </g>
                </g>
            </g>
            <path id="Path_1281" data-name="Path 1281" d="M714,321.027c-.456,1.148.492,2.261,1.484,1.768a1.07,1.07,0,0,0,.508-.567c.457-1.149-.492-2.264-1.484-1.769a1.074,1.074,0,0,0-.508.568" transform="translate(-549.395 -226.658)" fill="#00424c"/>
            <path id="Path_1282" data-name="Path 1282" d="M711.849,303.7l.339.476.206-.569c.267-.742,2.544-7.3.031-8.788a1.32,1.32,0,0,0-1.919.387c-1.1,1.579-.757,5.548,1.344,8.5m-.843-8.029a.7.7,0,0,1,.872-.312,1.437,1.437,0,0,1,.253.121c1.527.906.564,5.085-.126,7.236-1.679-2.724-1.747-5.968-1-7.044" transform="translate(-546.626 -208.783)" fill="#00424c"/>
            <path id="Path_1283" data-name="Path 1283" d="M717.314,312.795l.524.114a6.72,6.72,0,0,0,1.417.151c2.333,0,4.37-1.205,4.863-2.6a1.638,1.638,0,0,0-.573-1.931c-2.093-1.626-5.515,3.221-5.9,3.781Zm1.2-.524c.978-1.3,2.791-3.328,4.06-3.328a.971.971,0,0,1,.614.206.846.846,0,0,1,.337,1.032c-.39,1.1-2.528,2.389-5.011,2.091" transform="translate(-551.773 -218.237)" fill="#00424c"/>
            <path id="Path_1284" data-name="Path 1284" d="M660.782,353.35h21.427a8.158,8.158,0,0,0,8.158-8.158V333.028a8.158,8.158,0,0,0-8.158-8.158H660.782a8.158,8.158,0,0,0-8.158,8.158v12.165a8.158,8.158,0,0,0,8.158,8.158" transform="translate(-506.9 -229.8)" fill="#fcc332"/>
            <path id="Path_1285" data-name="Path 1285" d="M655.094,324.871h11.8v28.48h-11.8c-1.364,0-2.47-1.767-2.47-3.947V328.818c0-2.18,1.106-3.947,2.47-3.947" transform="translate(-506.9 -229.801)" fill="#f29913"/>
            <path id="Path_1286" data-name="Path 1286" d="M733.825,324.871h.931c5.034,9.089,1.95,25.009,1.191,28.48h-.727c.521-2.339,4.118-19.654-1.352-28.4a.57.57,0,0,1-.043-.084" transform="translate(-563.226 -229.801)" fill="#00424c"/>
            <path id="Path_1287" data-name="Path 1287" d="M673.617,353.243a.843.843,0,0,1,.007.108h-.69c-2.032-16.226.21-24.81,1.723-28.48h.853c-1.377,3.068-4.019,11.524-1.894,28.372" transform="translate(-520.426 -229.801)" fill="#00424c"/>
            <path id="Path_1288" data-name="Path 1288" d="M859.328,480.137H880.24a2.106,2.106,0,0,0,2.106-2.106V465.366a2.105,2.105,0,0,0-2.105-2.106H859.327a2.105,2.105,0,0,0-2.105,2.106v12.664a2.106,2.106,0,0,0,2.106,2.106" transform="translate(-648.821 -325.796)" fill="#50bfa5"/>
            <rect id="Rectangle_2339" data-name="Rectangle 2339" width="21.28" height="12.989" transform="translate(209.359 139.408)" fill="#fff"/>
            <path id="Path_1289" data-name="Path 1289" d="M856.59,486.111h0a1.122,1.122,0,0,0,1.122-1.122v-5.183a1.122,1.122,0,0,0-2.244,0v5.183a1.122,1.122,0,0,0,1.122,1.122" transform="translate(-647.605 -336.495)" fill="#f29913"/>
            <path id="Path_1290" data-name="Path 1290" d="M880.409,386.175c-1.584,4.82,3.993,15.245,1.728,18.581a5.833,5.833,0,0,0,1.62,8.576c2.745,1.737,6.157-.7,5.882-2.019l-1.354-6.51c-.339-1.628,6.047-14.665,1.552-22.572-2.667-4.692,1.276-12.766-.806-17.984-1.864,3.475-10.69,1.3-10.184,5.117.805,3.257,2.453,14.1,1.563,16.811" transform="translate(-663.806 -257.115)" fill="#f25c12"/>
            <path id="Path_1291" data-name="Path 1291" d="M816.118,243.186a31.025,31.025,0,0,0-1.149,7.2c0,3.245.077,8.864,2.375,8.864s5.593-.633,6.359-5.223,0-9.656-2.3-10.843-5.287,0-5.287,0" transform="translate(-619.512 -172.774)" fill="#ff7446"/>
            <path id="Path_1292" data-name="Path 1292" d="M813.242,236.336a.853.853,0,0,1,1.139.974c-.19,1.085-.143,2.273.872,2.521,1.954.477,2.877,0,3.2.33s-.924,2.091,0,2.422,1.42-2.825,2.237-2.825.995,4.549,0,5.576.142,2.421,1.456,2.421-.166,1.651,1.6,2.2,3.191.55,3.759-1.688a5.643,5.643,0,0,0,0-3.485s1.809-2.115,1.35-4.206a16.943,16.943,0,0,0-1.432-3.253,30.632,30.632,0,0,1-1.161-3.913c-.249-1.431-3.771-2.862-6.183-3.118s-1.2-1.724-3.229-1.724-2.3,2.673-2.3,2.673a29.123,29.123,0,0,0-3.025-1.646c-1.683,1.025-.284,2.825-.284,2.825a2.082,2.082,0,0,0-1.669,1.944c-.284,1.8.888,2.9,2.735,2.311.349-.111.661-.226.936-.34" transform="translate(-615.739 -163)" fill="#100062"/>
            <path id="Path_1293" data-name="Path 1293" d="M815.1,232.582a10.22,10.22,0,0,1,1.387.331c.865.481,1.92,1.112,1.92,1.112a47.613,47.613,0,0,1,5.936,2.086,66.511,66.511,0,0,1,6.83,3.69c.068.192.109.305.109.305s.432.769.83,1.633a50.391,50.391,0,0,1-8.808-3.45c-4.222-2.013-8.443-5.507-8.205-5.709" transform="translate(-619.595 -165.784)" fill="#0c004a"/>
            <path id="Path_1294" data-name="Path 1294" d="M841.159,261.8s.977-1.8,1.846-.795.413,5.247-.923,5.247-1.4-3.315-.923-4.452" transform="translate(-637.492 -185.287)" fill="#ff7446"/>
            <path id="Path_1295" data-name="Path 1295" d="M871.072,305.682s-2.723,2.072-2.674,11.236a79.015,79.015,0,0,0,2.344,16.157,22.505,22.505,0,0,1,12.585,0c.5-4-.515-12.53-1.151-15.286-1.563-6.778-7.213-13.658-11.1-12.107" transform="translate(-656.573 -216.337)" fill="#fcc332"/>
            <path id="Path_1296" data-name="Path 1296" d="M822.9,224.345a7.694,7.694,0,0,1,13.89,6.62c-.07.146-.145.288-.223.428L822.7,224.787c.06-.148.122-.3.192-.442" transform="translate(-624.878 -157.069)" fill="#fcb500"/>
            <path id="Path_1297" data-name="Path 1297" d="M825.779,226.078c.059-.148.122-.3.192-.442a7.636,7.636,0,0,1,8.284-4.2,7.812,7.812,0,0,0-1.133-.661,7.658,7.658,0,0,0-10.224,3.57c-.07.146-.133.294-.192.442l13.859,6.605c.025-.046-10.786-5.314-10.786-5.314" transform="translate(-624.879 -157.069)" fill="#fcc332"/>
            <path id="Path_1298" data-name="Path 1298" d="M802.494,226.521c.147-.309,7.363,2.634,11.977,4.833s8.234,4.232,8.086,4.542-7.8-1.488-12.412-3.686-7.8-5.378-7.65-5.688" transform="translate(-610.855 -161.564)" fill="#fc9700"/>
            <path id="Path_1299" data-name="Path 1299" d="M336.835,661.342s-1.631,1.613-1.668,2.2-.144,6.933.521,7.525,2.621,1.012,1.993,1.677c-.475.5-4.131.4-6.553.261-.707-.039-1.594-5.759-1.874-6.6-.407-1.221-1.692-4.292-1.322-5.143.18-.415,1.338-.945,2.553-1.74a11.2,11.2,0,0,0,2.5-2.7Z" transform="translate(-281.629 -460.066)" fill="#f7a491"/>
            <path id="Path_1300" data-name="Path 1300" d="M423.832,684.294s-1.459,4.179-1.461,4.189c-.108.662-.536,2.3-.536,2.9,0,2.261,10.06-1.919,7.805-2.921a2.418,2.418,0,0,1-.912-1.584,5.343,5.343,0,0,1,.847-2.672Z" transform="translate(-346.812 -479.056)" fill="#f7a491"/>
            <path id="Path_1301" data-name="Path 1301" d="M365.877,432.2l-5.208,6.076-5.106,31.785-16.071,29.652s2.417,3.71,5.011,4.294l22.81-29.969,12.362-37.517-.434-8.336Z" transform="translate(-289.694 -301.466)" fill="#184655"/>
            <path id="Path_1302" data-name="Path 1302" d="M426.931,422.15l3.6,11.1s3.169,33.069,2.718,35.347c-1.1,5.557-12.21,35.818-12.21,35.818l-7.118-.906,7.812-35.779-13.016-33.612Z" transform="translate(-337.712 -297.279)" fill="#355389"/>
            <path id="Path_1303" data-name="Path 1303" d="M489.535,296.475A5.479,5.479,0,0,0,488,298.787a46.841,46.841,0,0,1-5.147,1.315s-14.375,3.166-15.157,3.309l-14.912-3.392-3.63,7.225s16.312,3.24,17.192,3.254,19.806-6.634,21.491-7.163c0,0,2.242.146,3.651.189a11.423,11.423,0,0,0,3.157-.622,12.011,12.011,0,0,0,2.908-1.022c1.323-.656-.227-.669-.227-.669s-2.665.755-2.688.524c-.018-.177,1.462-.5,2.933-1.21.378-.183.751-.365,1.091-.534.9-.445.883-1.149-.127-.839a9.586,9.586,0,0,0-1.344.508,7.9,7.9,0,0,1-1.287.4,10.433,10.433,0,0,1-1.33.4c.009-.051-.179-.115.217-.322a24.215,24.215,0,0,0,2.272-.966c.381-.24,1.206-.69,1.206-.69s1.377-.9,1.243-1.086c-.293-.407-1.256,0-1.732.4a6.464,6.464,0,0,0-1.284.588s-1.951.6-2.04.313a13.539,13.539,0,0,1,1.976-1.4c1.063-.737,1.793-1.321,1.691-1.558-.161-.378-1.057.146-1.057.146s-.789.463-1.063.6c-.321.155-1.317.543-1.317.543s-3.53,1.182-3.592.9a1.9,1.9,0,0,1,.246-1.213c.193-.153.691-.236.884-.389s.578-.52.413-.785-1.633.089-1.633.089a3.886,3.886,0,0,0-1.467.836" transform="translate(-365.759 -209.394)" fill="#f8a492"/>
            <path id="Path_1304" data-name="Path 1304" d="M429.031,305.87s-.513,3.168-.844,4.339c-.274.974-2.2,4.979-2.2,4.979s-6.914-2.267-10.182-3.563c-3.964-1.573-8.546-4.961-8.248-5.39a7.336,7.336,0,0,1,4.084-3.083c6.581-1.645,17.393,2.719,17.393,2.719" transform="translate(-336.896 -214.478)" fill="#3c8f7c"/>
            <path id="Path_1305" data-name="Path 1305" d="M424.594,348.6c-6.6,2.6-22.1,1.1-22.1,1.1s.982-6.77,1.33-11.343-2.562-11.8-3.791-24.358c-.26-2.663.781-9.853,4.514-12.11a6.172,6.172,0,0,1,2.114-.9c.035,0,5.136-1.041,7.739-.239a21.9,21.9,0,0,1,4.371,4.788,44.045,44.045,0,0,1,3.51,7.464c1.5,4.979,2.142,19.394,2.142,22.112s.174,13.481.174,13.481" transform="translate(-331.661 -212.864)" fill="#56cd93"/>
            <path id="Path_1306" data-name="Path 1306" d="M433.853,288.586s-.01,0-.017.006c-2.534.788-12.1-4.527-12.1-4.527l0-.028,1.159-7.583s5.968-1.406,5.621.75.809,6.457.809,6.457c.038.039.087.084.149.136a21.874,21.874,0,0,1,4.371,4.788" transform="translate(-346.746 -195.904)" fill="#f7a491"/>
            <path id="Path_1307" data-name="Path 1307" d="M430.936,277.206c.347-2.154-5.622-.748-5.622-.748l-.1.631a3.5,3.5,0,0,0,.647,1.06,7.885,7.885,0,0,0,5.219,2.346,11.666,11.666,0,0,1-.148-3.289" transform="translate(-349.158 -195.906)" fill="#fe875e"/>
            <path id="Path_1308" data-name="Path 1308" d="M420.637,233.592c-.183-.066-1.465,9.386.968,11.986s7.173,3.452,8.873,1.4c1.881-2.265,1.786-12.424-2-15.1s-7.845,1.709-7.845,1.709" transform="translate(-345.634 -164.699)" fill="#f7a491"/>
            <path id="Path_1309" data-name="Path 1309" d="M416.448,217.2a10.518,10.518,0,0,0-5.513,3.123c-1.327.155-3.132.884-4.995,3.949a7.632,7.632,0,0,0,2.067,9.992,5.994,5.994,0,0,1,2.637,4.426s4.519-2.319,4.08-5.892c-.184-1.5-.835-1.839-.347-3.013.506-1.219.127-3.113.222-4.759l.271-1.038a5.239,5.239,0,0,1,3.744-1.05c1.852.413,1.585-6.5-2.166-5.738" transform="translate(-335.04 -155.077)" fill="#13375b"/>
            <path id="Path_1310" data-name="Path 1310" d="M432.7,256.905c.019,1.153-.215,2.077-.886,2.088s-.859-.44-1.414-2.068c-.52-1.526.112-2.1.782-2.108s1.5.935,1.518,2.088" transform="translate(-352.617 -181.208)" fill="#f7a491"/>
            <path id="Path_1311" data-name="Path 1311" d="M329.362,665.506s3.406,10.464,4.877,10.982c.391.137,2.618.748,2.971,1.588a.463.463,0,0,1,.022.075.875.875,0,0,1-.878,1.024h-6.979s-.991-4.726-1.383-6.8c0,0-2.074-5.073-1.843-5.534s3.211-1.332,3.211-1.332" transform="translate(-280.427 -466.085)" fill="#3c8f7c"/>
            <path id="Path_1312" data-name="Path 1312" d="M419.967,701.72l1.152-3.689a9.9,9.9,0,0,0,3.629.865,36.307,36.307,0,0,0,3.572-.865c4.828,1.611,8.783,2.393,8.064,3.689Z" transform="translate(-345.516 -488.646)" fill="#3c8f7c"/>
            <path id="Path_1313" data-name="Path 1313" d="M481.757,337.43a12.949,12.949,0,0,0-2.38,1.674,53.227,53.227,0,0,1-5.622-.036s-15.566-.581-16.4-.641L443,331.463l-5.657,5.975s15.828,7.17,16.725,7.4,22.057-1.363,23.924-1.445c0,0,2.256.7,3.687,1.094a12.961,12.961,0,0,0,3.4.2,13.639,13.639,0,0,0,3.252-.245c1.531-.294-.052-.694-.052-.694s-2.931.052-2.893-.174c.029-.173,1.63-.11,3.327-.418.436-.079.867-.159,1.261-.235,1.036-.2,1.212-.874.095-.832a10.82,10.82,0,0,0-1.512.148,8.961,8.961,0,0,1-1.425.058,11.089,11.089,0,0,1-1.42.05c.023-.046-.2-.153.259-.251.554-.118,1.784-.116,2.585-.351.454-.133,1.42-.355,1.42-.355a7.946,7.946,0,0,0,1.138-.775c-.042-.492-.861-.258-1.455,0a7.268,7.268,0,0,0-1.472.238s-2.159.085-2.173-.211c-.005-.114,1.24-.2,2.525-.606,1.471-.468,1.836-1.128,1.794-1.389-.064-.4-.893-.025-.893-.025a12.7,12.7,0,0,1-1.451.575c-.37.067-5.222.156-5.211-.126s.48-.652.719-.749.694-.229.933-.325a.835.835,0,0,0,.306-.884c-.1-.293-1.153-.135-1.153-.135a4.914,4.914,0,0,0-1.822.456" transform="translate(-357.566 -234.374)" fill="#f8a492"/>
            <path id="Path_1314" data-name="Path 1314" d="M420.242,328.928s2.825-3.563,3.809-5.005a61.6,61.6,0,0,0,3.511-5.955s-7.87-4.533-10.8-6.078c-10.762-5.673-10.512,2.787-10.012,4.664,1.119,4.2,13.494,12.374,13.494,12.374" transform="translate(-336.218 -219.458)" fill="#60e99c"/>
            <path id="Path_1315" data-name="Path 1315" d="M581.572,306.157a2.286,2.286,0,0,0,1.414-2.41c.8.829-.208,2.361-1.414,2.41" transform="translate(-457.615 -215.148)" fill="#fe875e"/>
        </g>
    </g>
</svg>
