<?xml version="1.0" encoding="utf-8"?>
<!-- Generator: Adobe Illustrator 25.0.0, SVG Export Plug-In . SVG Version: 6.00 Build 0)  -->
<svg version="1.1" id="Layer_1" xmlns="http://www.w3.org/2000/svg" xmlns:xlink="http://www.w3.org/1999/xlink" x="0px" y="0px"
	 viewBox="0 0 1920 1080" style="enable-background:new 0 0 1920 1080;" xml:space="preserve">
<style type="text/css">
	.st0{clip-path:url(#SVGID_2_);fill:url(#Path_7300_1_);}
	.st1{clip-path:url(#SVGID_2_);}
	.st2{clip-path:url(#SVGID_4_);}
	.st3{clip-path:url(#SVGID_6_);}
	.st4{fill-rule:evenodd;clip-rule:evenodd;fill:#FFB693;}
	.st5{clip-path:url(#SVGID_8_);}
	.st6{fill-rule:evenodd;clip-rule:evenodd;fill:#292526;}
	.st7{clip-path:url(#SVGID_10_);}
	.st8{fill:#292526;}
	.st9{fill:#2D292A;}
	.st10{fill-rule:evenodd;clip-rule:evenodd;fill:#FFFFFF;}
	.st11{fill:#FFB693;}
	.st12{fill-rule:evenodd;clip-rule:evenodd;fill:#2D292A;}
	.st13{fill-rule:evenodd;clip-rule:evenodd;fill:#FFBD6E;}
	.st14{clip-path:url(#SVGID_12_);}
	.st15{clip-path:url(#SVGID_14_);}
	.st16{fill:#FFFFFF;}
	.st17{fill:#808080;}
	.st18{fill:#263D51;}
	.st19{clip-path:url(#SVGID_16_);}
	.st20{clip-path:url(#SVGID_18_);}
	.st21{clip-path:url(#SVGID_20_);}
	.st22{clip-path:url(#SVGID_22_);}
	.st23{fill-rule:evenodd;clip-rule:evenodd;fill:#1B3149;}
	.st24{clip-path:url(#SVGID_24_);}
	.st25{clip-path:url(#SVGID_26_);}
	.st26{fill:#FFBD6E;}
	.st27{fill:#D7AA7E;}
	.st28{clip-path:url(#SVGID_28_);}
	.st29{fill:#EADCCE;}
	.st30{clip-path:url(#SVGID_30_);}
	.st31{fill:#D6B698;}
	.st32{clip-path:url(#SVGID_32_);}
	.st33{clip-path:url(#SVGID_34_);}
	.st34{fill:#DDB792;}
	.st35{fill-rule:evenodd;clip-rule:evenodd;fill:#E58D76;}
	.st36{fill:#E58D76;}
	.st37{clip-path:url(#SVGID_36_);}
	.st38{clip-path:url(#SVGID_38_);}
	.st39{fill:#EA9C7D;}
</style>
<g>
	<defs>
		<rect id="SVGID_1_" width="1920" height="1080"/>
	</defs>
	<clipPath id="SVGID_2_">
		<use xlink:href="#SVGID_1_"  style="overflow:visible;"/>
	</clipPath>
	
		<linearGradient id="Path_7300_1_" gradientUnits="userSpaceOnUse" x1="886.4483" y1="616.1448" x2="885.8573" y2="615.5018" gradientTransform="matrix(2237.0088 0 0 -1204.7297 -1981334.75 742279.875)">
		<stop  offset="0" style="stop-color:#60E99C"/>
		<stop  offset="1" style="stop-color:#5BDB98"/>
	</linearGradient>
	<path id="Path_7300" class="st0" d="M-68.14,1080c0,0,343.05-243,756.38-180.24s642.78,303.25,1194.46,57.37
		c591.37-245.88-38.77-1081.8-38.77-1081.8S-99.4-128.27-99.4-80.06s-3.97,456.18,0,514.04S-68.14,1080-68.14,1080z"/>
	<g class="st1">
		<defs>
			<path id="SVGID_3_" d="M-12.48,1053.55c0,0,285.39-216.55,698.72-153.79s642.78,303.25,1194.46,57.37
				c591.37-245.88-38.77-1081.8-38.77-1081.8S16.22-172.88,16.22-124.66s-32.67,524.39-28.7,582.25S-12.48,1053.55-12.48,1053.55z"
				/>
		</defs>
		<clipPath id="SVGID_4_">
			<use xlink:href="#SVGID_3_"  style="overflow:visible;"/>
		</clipPath>
		<g id="Mask_Group_23" transform="translate(88.348)" class="st2">
			<g id="Group_2779" transform="translate(1175.926 318.624)">
				<g id="Group_2746">
					<g>
						<defs>
							<rect id="SVGID_5_" x="-101.16" y="-146.09" width="447.39" height="1365.45"/>
						</defs>
						<clipPath id="SVGID_6_">
							<use xlink:href="#SVGID_5_"  style="overflow:visible;"/>
						</clipPath>
						<g id="Group_2745" class="st3">
							<path id="Path_7301" class="st4" d="M119.37,65c0,0,67.04,12.71,68.14,0.33c1.66-18.79,1.37-42.61,3.31-84.4L122.86-7.34
								c0,0-0.08,7.19-0.35,18.59C122.43,14.83,119.37,65,119.37,65"/>
						</g>
					</g>
				</g>
				<g id="Group_2748" transform="translate(220.533 127.028)">
					<g>
						<defs>
							<path id="SVGID_7_" d="M-97.67-134.36c0,0-0.08,7.19-0.35,18.59c-0.08,3.57-3.14,53.75-3.14,53.75s67.04,12.71,68.14,0.33
								c1.66-18.79,1.37-42.6,3.31-84.4L-97.67-134.36z"/>
						</defs>
						<clipPath id="SVGID_8_">
							<use xlink:href="#SVGID_7_"  style="overflow:visible;"/>
						</clipPath>
						<g id="Group_2747" class="st5">
							<path id="Path_7302" class="st6" d="M-23.96-117.11c7.76,1.66-9.93-15.73,8.89-30.6c10.37-8.2-24.46,11.72-23.4,2.66
								c2.54-21.58-53.81,24.59-53.81,24.59s17.06,10.02,32.04,10.11C-45.2-110.25-23.96-117.11-23.96-117.11"/>
						</g>
					</g>
				</g>
				<g id="Group_2750">
					<g>
						<defs>
							<rect id="SVGID_9_" x="-101.16" y="-146.09" width="447.39" height="1365.45"/>
						</defs>
						<clipPath id="SVGID_10_">
							<use xlink:href="#SVGID_9_"  style="overflow:visible;"/>
						</clipPath>
						<g id="Group_2749" class="st7">
							<path id="Path_7304" class="st4" d="M185.92-91.37c3.27,8.58,18.22,44.3,6.51,71.43c-2.47,5.76-4.13,13.86-8.67,18.19
								c-9.56,9.11-22.25,14.19-35.45,14.2c-9.76-0.02-37.5-3.79-38.78-37.89c-0.02-0.52,1.13-32.99,2.28-38.73
								c5.94-29.57,19.13-34.42,32.82-44.15C152.98-114.23,176.52-116.03,185.92-91.37"/>
							<path id="Path_7305" class="st8" d="M164.26-45.96c0.18,2.11-1.36,3.97-3.47,4.17c-2.1,0.07-3.86-1.57-3.93-3.66
								c0-0.01,0-0.01,0-0.02c-0.18-2.11,1.36-3.97,3.47-4.17c2.09-0.08,3.85,1.56,3.93,3.65
								C164.26-45.98,164.26-45.97,164.26-45.96"/>
							<path id="Path_7306" class="st8" d="M169.65-56.88c0.26-1.58-0.82-3.08-2.4-3.34c-3.71-0.61-9.84-1.55-10.96-1.26
								c-2.93,0.77-3.37,5.07-0.49,5.81c1.02,0.26,6.82,0.93,10.44,1.34C167.87-54.12,169.38-55.25,169.65-56.88L169.65-56.88z"/>
							<path id="Path_7307" class="st8" d="M126.05-49.31c-0.83,1.95,0.04,4.21,1.96,5.11c1.9,0.77,4.06-0.14,4.83-2.04
								c0.02-0.04,0.03-0.08,0.05-0.13c0.83-1.95-0.04-4.21-1.97-5.11c-1.9-0.77-4.06,0.14-4.83,2.04
								C126.08-49.39,126.06-49.35,126.05-49.31"/>
							<path id="Path_7308" class="st8" d="M121.65-60.4c-0.1-1.6,1.12-2.98,2.71-3.07c0,0,0,0,0,0c3.75-0.23,9.94-0.53,11.02-0.12
								c2.84,1.07,2.87,5.39-0.07,5.83c-1.04,0.15-6.87,0.22-10.51,0.25C123.15-57.48,121.76-58.75,121.65-60.4L121.65-60.4z"/>
							<path id="Path_7309" class="st9" d="M138.08-24.46c-2.86,0.17-5.41-1.77-6.02-4.56c-0.53-2.71,1.23-5.34,3.94-5.87
								c0.01,0,0.03-0.01,0.04-0.01c3.88-0.95,3.67-10.42,3.26-13.99c-0.03-0.3,0.18-0.57,0.48-0.61s0.57,0.18,0.61,0.48
								c0.07,0.56,1.52,13.82-4.08,15.18c-2.12,0.36-3.55,2.37-3.19,4.5c0.01,0.04,0.01,0.08,0.02,0.12c0.4,2.07,2.46,4.08,6,3.6
								c0.3-0.04,0.57,0.17,0.62,0.47c0.04,0.3-0.17,0.57-0.47,0.62l0,0C138.89-24.49,138.48-24.46,138.08-24.46"/>
							<path id="Path_7310" class="st10" d="M144.86-15.66c7.25-2.93,11.77-5.14,14.82-5.83s5.48,9.86-3.16,13.22
								C146.42-4.38,143.51-15.11,144.86-15.66"/>
							<path id="Path_7311" class="st9" d="M196.21-34.21c0.48-3.5,0.51-7.05,0.09-10.56c-0.99-12.87-5.44-24.29-14.94-32.6
								c-7.7-6.73-15.73-10.35-25.9-9.78s-25.95,7.72-34.91,2.89c-14.41-7.78-15.46-28.44-5.23-28.98
								c4.72-0.25,30.65,2.78,23.95-8.89c-0.87-1.51,7.81-2.84,15.61-2.88c9.39-0.05,19.34-3.02,28.55-1.53
								c11.96,1.94,24.17,7,31.74,16.32c8.31,10.22,9.55,26.83,9.05,40.07c-0.59,15.72-11.18,29.75-21.67,40.42
								c-0.65,0.74-1.42,1.36-2.29,1.83c-1.82,0.79-3.95,0.17-5.05-1.49c-1.03-1.74-0.75-3.96,0.67-5.39L196.21-34.21z"/>
							<path id="Path_7312" class="st9" d="M213.3-111.46c18.78,1.77,19.07,29.12,18.45,43.34c0.22-0.49-0.62-0.85-1-0.47
								c-0.32,0.44-0.43,0.99-0.32,1.52c1,13.77-7.42,27.88-19.87,33.28c-0.06-1.17,0.09-2.33,0.43-3.45
								c4.35-17.87,6.98-36.12,7.85-54.5L213.3-111.46z"/>
							<path id="Path_7313" class="st9" d="M213.3-112.34c3.49,0.29,6.8,1.63,9.52,3.84c2.49,2.17,4.46,4.87,5.74,7.91
								c1.44,3.33,2.47,6.82,3.04,10.4c0.61,3.66,0.98,7.36,1.09,11.07c0.12,3.29,0.08,6.59-0.04,9.89l-0.04,1.09l-1.67-0.2
								c0.08-0.24,0.05,0.28,0.06,0.32c0.05,0.13,0.23,0.22,0.08,0.12c0.04,0.02,0.18,0.03,0.09,0.03c-0.14,0.01,0.15-0.06,0.1-0.06
								c0.11-0.01,0.06-0.08,0.01,0.14c-0.03,0.21-0.03,0.42,0,0.63c0.04,0.71,0.08,1.42,0.08,2.14c0,1.44-0.09,2.88-0.27,4.31
								c-0.37,2.9-1.1,5.74-2.18,8.46c-2.12,5.43-5.52,10.27-9.9,14.11c-2.46,2.13-5.23,3.89-8.22,5.19
								c-0.56,0.24-1.02-0.33-1.07-0.82c-0.18-1.85,0.48-3.74,0.9-5.52c0.44-1.83,0.85-3.67,1.25-5.51
								c0.81-3.74,1.54-7.49,2.2-11.26c1.32-7.55,2.33-15.13,3.04-22.76c0.4-4.29,0.7-8.59,0.9-12.89c0.05-1.12,1.75-1.16,1.7-0.03
								c-0.36,7.63-1.02,15.25-1.99,22.85c-0.97,7.64-2.25,15.23-3.82,22.78c-0.44,2.1-0.9,4.19-1.39,6.27
								c-0.24,1.05-0.5,2.1-0.75,3.14c-0.27,0.94-0.38,1.93-0.32,2.91l-1.07-0.82c5.37-2.43,9.95-6.31,13.25-11.2
								c3.41-4.92,5.47-10.64,5.98-16.6c0.07-0.83,0.1-1.67,0.09-2.5c0-0.85-0.09-1.69-0.1-2.54c-0.01-0.98,0.47-2.16,1.59-2.15
								c0.76-0.05,1.41,0.53,1.46,1.29c0.01,0.14-0.01,0.29-0.04,0.43c-0.3,0.88-1.71,0.85-1.67-0.2c0.14-3.14,0.2-6.29,0.13-9.43
								c-0.06-3.54-0.33-7.07-0.82-10.58c-0.47-3.51-1.34-6.96-2.58-10.28c-1.08-2.94-2.77-5.63-4.95-7.89
								c-2.24-2.2-5.1-3.64-8.19-4.14c-0.45-0.08-0.8-0.12-1.2-0.16c-0.47-0.01-0.85-0.39-0.85-0.86
								C212.44-111.92,212.82-112.31,213.3-112.34"/>
							<path id="Path_7314" class="st11" d="M194.02-10.63c18.75,1.28,30.56-7.05,32.91-17.62c2.43-11.68-4.93-23.16-16.55-25.83
								c-4.99-1.2-10.24-0.58-14.82,1.74C193.08-51.64,182.81-10.04,194.02-10.63"/>
							<path id="Path_7315" class="st9" d="M212.34-20.42c-0.3,0-0.55-0.25-0.54-0.55c0-0.21,0.13-0.41,0.32-0.5
								c2.12-0.94,7.3-6.44,7.26-12.37c-0.03-5-3.61-9.08-10.64-12.11c-0.28-0.1-0.43-0.42-0.33-0.7c0.1-0.28,0.42-0.43,0.7-0.33
								c0.02,0.01,0.04,0.02,0.06,0.03c9.3,4.01,11.28,9.34,11.3,13.11c0.04,6.49-5.53,12.32-7.91,13.38
								C212.5-20.43,212.42-20.41,212.34-20.42"/>
							<path id="Path_7316" class="st12" d="M129.54-99.03c0,0-31.96-12-52.21-21.08c-5.47-2.45-4.82-5.48-3.9-8.56
								c3.42-11.4,55.92,20.24,55.92,20.24L129.54-99.03z"/>
							<path id="Path_7317" class="st13" d="M232.46-66.63c0,0,11.01-63.94-41.4-77.06c-47.37-11.85-67.67,37.08-67.67,37.08
								L232.46-66.63z"/>
							<path id="Path_7318" class="st9" d="M204.45-75.81c-0.06,0-0.11-0.01-0.17-0.03c-0.29-0.09-0.44-0.4-0.35-0.69c0,0,0,0,0,0
								c2.32-7.87,3.65-16,3.97-24.2c0.45-12.24-1.6-29.21-13.85-40.56c-0.21-0.22-0.2-0.57,0.02-0.77c0.2-0.19,0.51-0.2,0.72-0.03
								c12.57,11.63,14.66,28.95,14.2,41.43c-0.33,8.29-1.68,16.51-4.02,24.47C204.9-75.96,204.69-75.81,204.45-75.81"/>
							<path id="Path_7319" class="st9" d="M144.4-98.46c-0.07,0-0.14-0.01-0.21-0.04c-0.28-0.12-0.41-0.44-0.29-0.72c0,0,0,0,0,0
								c3.34-7.37,7.53-14.32,12.5-20.71c7.5-9.59,19.83-21.24,36-22.29c0.3-0.03,0.57,0.19,0.6,0.49c0.03,0.3-0.19,0.57-0.49,0.6
								c-0.01,0-0.03,0-0.04,0c-15.75,1.02-27.83,12.45-35.19,21.85c-4.91,6.32-9.07,13.19-12.37,20.48
								C144.82-98.58,144.62-98.45,144.4-98.46"/>
							<path id="Path_7320" class="st13" d="M131.82-113.71l-53.48-19.65c-2.54-0.94-5.36,0.31-6.39,2.81
								c-0.98,2.38,0.15,5.1,2.53,6.08c0.06,0.03,0.12,0.05,0.18,0.07c12.91,4.71,48.75,17.79,48.75,17.79l0.49,0.12L131.82-113.71z
								"/>
							<path id="Path_7321" class="st13" d="M195.27-144.25c-4.56-1.59-8.64-1.73-9.11-0.31s2.85,3.86,7.41,5.45
								c4.56,1.59,8.65,1.73,9.11,0.31S199.84-142.66,195.27-144.25"/>
							<path id="Path_7322" class="st9" d="M200-137.27c-2.26-0.09-4.49-0.53-6.61-1.32c-4.36-1.52-8.42-4.12-7.75-6.14
								c0.15-0.43,0.48-0.77,0.9-0.95c1.58-0.78,5.08-0.42,8.91,0.92c4.36,1.52,8.42,4.12,7.76,6.14c-0.16,0.43-0.48,0.77-0.9,0.95
								C201.58-137.37,200.79-137.23,200-137.27 M188.81-144.99c-0.61-0.03-1.22,0.07-1.79,0.29c-0.15,0.06-0.27,0.17-0.34,0.32
								c-0.28,0.84,2.34,3.12,7.07,4.76c3.86,1.35,6.98,1.5,8.07,0.97c0.15-0.05,0.27-0.17,0.34-0.32c0.28-0.84-2.34-3.11-7.08-4.76
								C193.08-144.49,190.96-144.91,188.81-144.99"/>
							<path id="Path_7323" class="st4" d="M109.69,1064.11l-0.11,76.03l-106.26-8.93l8.21-70.94L109.69,1064.11z"/>
						</g>
					</g>
				</g>
				<g id="Group_2752" transform="translate(104.488 1206.368)">
					<g>
						<defs>
							<polygon id="SVGID_11_" points="-101.16,-75.16 5.1,-66.23 5.2,-142.26 -92.95,-146.09 							"/>
						</defs>
						<clipPath id="SVGID_12_">
							<use xlink:href="#SVGID_11_"  style="overflow:visible;"/>
						</clipPath>
						<g id="Group_2751" class="st14">
							<path id="Path_7324" class="st12" d="M5.92-143.09l4.23,34.93l-118.4-29.34L5.92-143.09z"/>
						</g>
					</g>
				</g>
				<g id="Group_2754">
					<g>
						<defs>
							<rect id="SVGID_13_" x="-101.16" y="-146.09" width="447.39" height="1365.45"/>
						</defs>
						<clipPath id="SVGID_14_">
							<use xlink:href="#SVGID_13_"  style="overflow:visible;"/>
						</clipPath>
						<g id="Group_2753" class="st15">
							<path id="Path_7326" class="st16" d="M-82.61,1163.99c5.99-3.82,12.5-6.74,19.33-8.69c14.98-4.33,37.59-10.54,45.85-13.27
								c5.54-1.83,10-11.2,12.8-15.44L3,1112l0.12-0.08c9.65-6.39,23.85-6.31,33.83,0.18l10.7,8.72c6.93,5.65,18.13,5.97,25.21,0.74
								c8.04-5.95,30.33-8.85,41.47-8.24l0.01,0.68l1.37,84.47c0,0-203.71,6.51-207.18,0.35c-2.38-4.22-1.28-10.32-0.57-14.72
								C-90.89,1177.09-89.24,1169.14-82.61,1163.99"/>
							<path id="Path_7327" class="st13" d="M114.8,1141.88c0,0-47.23-7.16-63.46,47.3l64.02-0.9L114.8,1141.88z"/>
							<path id="Path_7328" class="st8" d="M-98.8,1205.31c-0.04-0.82-0.05-1.67-0.06-2.56c-0.08-5.3-0.15-10.6-0.21-15.91
								l2.37-0.01l207.95-0.9l4.33-0.02c-0.35,0.07,0.1,8.35,0.11,8.95c0.04,2.38,0.08,4.77,0.12,7.15
								c0.1,6.27,0.01,12.1-6.42,15.12c-4.98,2.33-12.48,2.81-16.87-1.31c-2.06-1.93-4.16-4.9-7.19-4.93
								c-3.03-0.03-4.47,1.59-6.28,3.64c-2.01,2.28-4.29,4.86-8.92,4.8s-7.01-2.69-9.09-5.01c-1.89-2.1-3.37-3.76-6.4-3.79
								s-4.47,1.59-6.29,3.64c-2,2.28-4.28,4.86-8.93,4.8s-7-2.69-9.09-5.01c-1.88-2.1-3.36-3.76-6.4-3.79s-4.47,1.59-6.28,3.64
								c-2.01,2.28-4.28,4.86-8.92,4.8s-7-2.69-9.08-5.01c-1.88-2.1-3.37-3.76-6.4-3.79s-4.47,1.59-6.29,3.64
								c-2,2.28-4.28,4.86-8.93,4.8s-7-2.69-9.08-5.01c-1.88-2.1-3.36-3.76-6.4-3.79s-4.47,1.59-6.28,3.64
								c-2.01,2.28-4.29,4.86-8.92,4.8s-7.01-2.68-9.09-5.01c-1.88-2.1-3.36-3.76-6.4-3.79s-4.47,1.59-6.29,3.64
								c-2.78,3.44-7.12,5.23-11.51,4.74c-6.61-0.59-12.54-5.5-12.87-12.19"/>
							<path id="Path_7329" class="st17" d="M-24.22,1139.9c0,0,17.42-33.3,22.47-48.19c5.06-14.89,32.73-13.7,26.38,12.09
								c-6.35,25.79-19.02,42.6-31.37,42.75C-19.1,1146.69-24.22,1139.9-24.22,1139.9"/>
							<path id="Path_7330" class="st16" d="M-98.13,1193.78l214.64-0.37c0.7,0.01,1.27-0.55,1.28-1.24c0-0.02,0-0.03,0-0.05
								c-0.02-0.73-0.63-1.31-1.36-1.29l-214.62,0.37c-0.7-0.01-1.27,0.55-1.29,1.25c0,0.02,0,0.03,0,0.05
								C-99.44,1193.21-98.85,1193.77-98.13,1193.78"/>
							<path id="Path_7331" class="st8" d="M-25.34,1086.69c2.37,0.01,4.64,0.94,6.34,2.59c7.58,7.04,8.48,25.95,8.52,33.53
								c-8.08-8.97-22.65-27.11-20.19-33.72c0.51-1.37,1.87-2.15,4.16-2.35C-26.12,1086.71-25.73,1086.69-25.34,1086.69
								 M-9.17,1127.42c0.15,0,0.3-0.02,0.44-0.07c0.49-0.16,0.84-0.61,0.86-1.14c0.05-1.18,1.1-29.1-9.33-38.78
								c-2.57-2.46-6.09-3.66-9.63-3.27c-3.33,0.31-5.46,1.65-6.33,3.99c-3.76,10.09,20.25,35.93,23,38.84
								C-9.9,1127.26-9.55,1127.42-9.17,1127.42"/>
							<path id="Path_7332" class="st8" d="M22.68,1098.06c1.51,0.04,2.98,0.43,4.31,1.14c2.07,1.06,3.07,2.29,3.08,3.77
								c0.04,7.11-19.75,18.55-30.36,23.88c2.63-7.07,9.92-24.39,19.4-28.1C20.25,1098.29,21.46,1098.05,22.68,1098.06
								 M-2.59,1130.74c0.2,0,0.4-0.04,0.58-0.13c3.56-1.68,34.79-16.76,34.73-27.6c-0.02-2.51-1.55-4.57-4.55-6.11
								c-3.11-1.69-6.82-1.9-10.1-0.57c-13.04,5.11-21.59,31.57-21.94,32.69c-0.15,0.5,0.01,1.05,0.41,1.38
								C-3.22,1130.62-2.91,1130.73-2.59,1130.74"/>
							<path id="Path_7333" class="st18" d="M155.75,480.27c60.4-113.93,118.07-67.28,108.16-124.02
								c-5.24-30.02-24.6-43.96-36.22-71.67c-2.06-4.92-4.44-10.11-8.7-12.75c-5.63-3.5-12.61-1.48-18.81,0.5
								c-49.56,15.84-101.42,23.3-153.44,22.08c-21.76,90.1-75.82,349.99-87.16,404.69c-1.4,6.75-1.74,13.67-1.02,20.52
								c4.56,43.89,22.07,218.56,25.76,349.86c36.87,0.08,98.47,1.06,135.34,1.14c-3.31-102.66-8.87-302.95-10.02-344.73
								c-0.14-5.15,0.31-10.3,1.36-15.35C117.5,679.08,142.49,557.25,155.75,480.27"/>
						</g>
					</g>
				</g>
				<g id="Group_2756" transform="translate(59.358 416.004)">
					<g>
						<defs>
							<path id="SVGID_15_" d="M140.82-143.68c-49.56,15.84-101.42,23.3-153.44,22.08c-21.76,90.1-75.82,349.99-87.16,404.69
								c-1.4,6.74-1.74,13.67-1.02,20.52c4.57,43.89,22.07,218.56,25.76,349.87c36.87,0.08,98.47,1.06,135.34,1.14
								c-3.31-102.66-8.87-302.95-10.02-344.73c-0.14-5.15,0.31-10.31,1.36-15.35c6.49-31.45,31.49-153.27,44.75-230.26
								C156.79-49.67,214.47-3.02,204.56-59.76c-5.24-30.02-24.6-43.96-36.22-71.67c-2.06-4.92-4.44-10.11-8.7-12.76
								c-2.17-1.31-4.66-1.97-7.19-1.91C148.6-146.09,144.57-144.88,140.82-143.68"/>
						</defs>
						<clipPath id="SVGID_16_">
							<use xlink:href="#SVGID_15_"  style="overflow:visible;"/>
						</clipPath>
						<g id="Group_2755" class="st19">
							<path id="Path_7334" class="st9" d="M-67.51,82.07c-0.1,0-0.17,0-0.19,0c-0.3-0.02-0.53-0.27-0.52-0.57s0.27-0.53,0.57-0.52
								l0,0c0.08,0,7.77,0.24,20.55-9.54c11.83-9.06,30.54-28.78,52.54-71.32C5.6-0.15,5.93-0.23,6.19-0.08
								c0.24,0.14,0.33,0.44,0.22,0.69c-22.16,42.85-41.05,62.7-53,71.8C-58.69,81.64-66.2,82.07-67.51,82.07"/>
						</g>
					</g>
				</g>
				<g id="Group_2758">
					<g>
						<defs>
							<rect id="SVGID_17_" x="-101.16" y="-146.09" width="447.39" height="1365.45"/>
						</defs>
						<clipPath id="SVGID_18_">
							<use xlink:href="#SVGID_17_"  style="overflow:visible;"/>
						</clipPath>
						<g id="Group_2757" class="st20">
							<path id="Path_7336" class="st12" d="M134.84,592.15l-6.63-56.85l-3.55,47.21l-4.48,83.22L134.84,592.15z"/>
							<path id="Path_7337" class="st4" d="M323.28,1052.95l10.89,76.55l-104.89,6.91l-2.25-72.64L323.28,1052.95z"/>
						</g>
					</g>
				</g>
				<g id="Group_2760" transform="translate(328.188 1199.044)">
					<g>
						<defs>
							<polygon id="SVGID_19_" points="-101.16,-135.26 -98.91,-62.63 5.98,-69.53 -4.91,-146.09 							"/>
						</defs>
						<clipPath id="SVGID_20_">
							<use xlink:href="#SVGID_19_"  style="overflow:visible;"/>
						</clipPath>
						<g id="Group_2759" class="st21">
							<path id="Path_7338" class="st12" d="M-3.33-135.11l4.43,30.84l-110.56-22.63L-3.33-135.11z"/>
						</g>
					</g>
				</g>
				<g id="Group_2762">
					<g>
						<defs>
							<rect id="SVGID_21_" x="-101.16" y="-146.09" width="447.39" height="1365.45"/>
						</defs>
						<clipPath id="SVGID_22_">
							<use xlink:href="#SVGID_21_"  style="overflow:visible;"/>
						</clipPath>
						<g id="Group_2761" class="st22">
							<path id="Path_7340" class="st16" d="M140.17,1164.38c5.87-3.97,12.28-7.07,19.04-9.2c14.81-4.74,37.18-11.56,45.34-14.52
								c5.48-1.98,9.67-11.44,12.35-15.74l7.23-14.76l0.12-0.08c9.45-6.64,23.6-6.97,33.72-0.78l10.9,8.39
								c7.06,5.43,18.23,5.44,25.14,0.03c7.86-6.16,30-9.67,41.11-9.39l0.03,0.68l3.6,84.15c0,0-202.85,12.24-206.47,6.2
								c-2.48-4.14-1.56-10.25-0.96-14.65C132.26,1177.67,133.7,1169.71,140.17,1164.38"/>
							<path id="Path_7341" class="st13" d="M336.32,1136.77c0,0-47.26-5.8-61.99,48.93l63.77-2.7L336.32,1136.77z"/>
							<path id="Path_7342" class="st8" d="M125.13,1206.02c-0.06-0.82-0.09-1.66-0.13-2.55c-0.21-5.28-0.43-10.56-0.63-15.84
								l2.37-0.07l207.22-6.77l4.32-0.14c-0.35,0.08,0.32,8.32,0.34,8.92c0.1,2.38,0.2,4.75,0.3,7.13c0.26,6.25,0.33,12.06-6,15.25
								c-4.9,2.47-12.36,3.16-16.85-0.83c-2.1-1.87-4.28-4.77-7.3-4.71c-3.02,0.05-4.41,1.7-6.16,3.81
								c-1.94,2.33-4.15,4.96-8.77,5.04c-4.62,0.07-7.05-2.48-9.18-4.74c-1.94-2.04-3.46-3.65-6.48-3.6
								c-3.02,0.05-4.41,1.71-6.17,3.81c-1.93,2.33-4.14,4.96-8.77,5.04s-7.04-2.48-9.19-4.74c-1.93-2.04-3.45-3.65-6.48-3.6
								s-4.41,1.71-6.16,3.81c-1.95,2.33-4.14,4.96-8.77,5.04s-7.05-2.48-9.18-4.74c-1.93-2.04-3.46-3.65-6.48-3.6
								c-3.02,0.05-4.41,1.71-6.17,3.81c-1.93,2.33-4.14,4.96-8.77,5.04c-4.63,0.08-7.05-2.48-9.19-4.74
								c-1.93-2.04-3.45-3.65-6.48-3.6s-4.41,1.71-6.16,3.81c-1.94,2.33-4.15,4.96-8.77,5.04c-4.62,0.08-7.05-2.48-9.19-4.74
								c-1.93-2.04-3.45-3.65-6.48-3.6c-3.03,0.05-4.41,1.71-6.17,3.81c-2.67,3.51-6.95,5.41-11.35,5.04
								c-6.61-0.4-12.64-5.13-13.15-11.78"/>
							<path id="Path_7343" class="st17" d="M197.72,1138.72c0,0,16.48-33.68,21.12-48.66s32.25-14.58,26.61,11.31
								s-17.83,43-30.14,43.49S197.72,1138.72,197.72,1138.72"/>
							<path id="Path_7344" class="st16" d="M125.5,1194.51l213.89-6.43c0.7-0.01,1.26-0.58,1.25-1.28c0-0.02,0-0.03,0-0.05
								c-0.04-0.73-0.66-1.29-1.39-1.25l-213.87,6.44c-0.7,0.01-1.25,0.58-1.25,1.28c0,0.02,0,0.04,0,0.05
								C124.18,1193.97,124.78,1194.52,125.5,1194.51"/>
							<path id="Path_7345" class="st8" d="M195.21,1085.73c2.36-0.06,4.65,0.8,6.39,2.4c7.75,6.8,9.13,25.62,9.38,33.18
								c-8.28-8.71-23.29-26.38-21.01-33.04c0.47-1.39,1.81-2.19,4.09-2.47C194.43,1085.76,194.82,1085.73,195.21,1085.73
								 M212.39,1125.86c0.15,0,0.3-0.03,0.44-0.08c0.49-0.18,0.82-0.64,0.82-1.16c0.02-1.18,0.33-29.03-10.32-38.39
								c-2.62-2.38-6.17-3.48-9.68-2.98c-3.31,0.4-5.4,1.8-6.21,4.15c-3.48,10.16,21.13,35.23,23.95,38.06
								C211.66,1125.72,212.02,1125.86,212.39,1125.86"/>
							<path id="Path_7346" class="st8" d="M243.36,1095.7c1.5-0.01,2.98,0.34,4.33,1.01c2.09,1,3.12,2.2,3.17,3.67
								c0.23,7.09-19.2,19.04-29.62,24.66c2.43-7.12,9.24-24.59,18.59-28.55C240.94,1096,242.14,1095.73,243.36,1095.7
								 M219.04,1128.98c0.2,0,0.4-0.05,0.58-0.14c3.5-1.78,34.23-17.69,33.88-28.48c-0.08-2.5-1.66-4.51-4.7-5.96
								c-3.15-1.6-6.85-1.7-10.08-0.28c-12.86,5.46-20.68,32.07-21.01,33.2c-0.14,0.5,0.04,1.04,0.45,1.37
								C218.41,1128.88,218.72,1128.99,219.04,1128.98"/>
							<path id="Path_7347" class="st23" d="M267.5,368.77c0,0,21.1,69.84,23.06,106.2c3.39,62.82-2.72,270.72-2.72,270.72
								l53.61,329.28l-142.54,9.13l-51.17-346.57l-14.95-163.8l-6.54-182.92L267.5,368.77z"/>
						</g>
					</g>
				</g>
				<g id="Group_2764" transform="translate(227.421 514.865)">
					<g>
						<defs>
							<path id="SVGID_23_" d="M-101.17-124.06l6.54,182.92l14.94,163.8l51.17,346.57l142.54-9.13L60.42,230.82
								c0,0,6.11-207.9,2.72-270.72c-1.96-36.36-23.06-106.2-23.06-106.2L-101.17-124.06z"/>
						</defs>
						<clipPath id="SVGID_24_">
							<use xlink:href="#SVGID_23_"  style="overflow:visible;"/>
						</clipPath>
						<g id="Group_2763" class="st24">
							<path id="Path_7348" class="st9" d="M65.17,30.04c-0.05,0-0.1-0.01-0.15-0.02C43.23,23.63,25.03,13.89,10.92,1.09
								C-0.26-8.99-9.1-21.39-14.98-35.25C-25-58.86-23.32-79.32-23.3-79.53c0.03-0.3,0.29-0.52,0.6-0.49s0.52,0.29,0.49,0.6l0,0
								c-0.02,0.2-1.68,20.44,8.25,43.8c9.16,21.54,30.35,50.24,79.27,64.6c0.29,0.09,0.45,0.39,0.37,0.68
								C65.61,29.89,65.4,30.04,65.17,30.04"/>
						</g>
					</g>
				</g>
				<g id="Group_2766">
					<g>
						<defs>
							<rect id="SVGID_25_" x="-101.16" y="-146.09" width="447.39" height="1365.45"/>
						</defs>
						<clipPath id="SVGID_26_">
							<use xlink:href="#SVGID_25_"  style="overflow:visible;"/>
						</clipPath>
						<g id="Group_2765" class="st25">
							<path id="Path_7350" class="st9" d="M258.31,747.41c-2.71,0-5.17-0.06-7.13-0.2c-0.3-0.02-0.53-0.28-0.51-0.58
								s0.28-0.53,0.58-0.51c0,0,0.01,0,0.01,0c10.61,0.78,36.3-0.96,36.55-0.98c0.3-0.02,0.56,0.21,0.58,0.51s-0.21,0.56-0.51,0.58
								l0,0C287.68,746.25,270.44,747.42,258.31,747.41"/>
							<path id="Path_7351" class="st11" d="M37.91,56.38c34.33,0.23,60.66,31.74,53.65,64.22L46.6,329
								c-3.9,17.1-18.97,29.21-37.06,29.79c-25.69,0.82-62.79-23.68-59.73-48.46l37.56-212.97C-8.39,73.34,12.73,56.21,37.91,56.38"
								/>
							<path id="Path_7352" class="st26" d="M-41.43,195.15l116.54,31.31l24.92-105.61c7.9-33.46-10.34-66.49-45-75.51
								S-9.19,58.21-17.08,91.66L-41.43,195.15z"/>
							<path id="Path_7353" class="st8" d="M-42.24,196.99c-0.17-0.06-0.32-0.18-0.42-0.33c-0.11-0.17-0.15-0.38-0.1-0.58
								l22.36-94.75c0.1-0.4,0.5-0.64,0.9-0.54c0.01,0,0.02,0,0.03,0.01c0.41,0.1,0.67,0.51,0.58,0.93l-22.19,94.01L72.9,223.86
								c0.41,0.1,0.68,0.5,0.6,0.92c-0.09,0.4-0.5,0.65-0.89,0.55c-0.01,0-0.02,0-0.03-0.01l-114.75-28.31
								C-42.2,197.01-42.22,197-42.24,196.99"/>
							<path id="Path_7354" class="st8" d="M72.77,225.89c-0.11,0-0.22-0.01-0.32-0.04L-42.3,197.54c-0.04-0.01-0.08-0.02-0.12-0.04
								c-0.29-0.1-0.54-0.29-0.7-0.55c-0.19-0.3-0.25-0.66-0.17-1l22.36-94.75c0.08-0.33,0.29-0.62,0.58-0.79
								c0.64-0.38,1.46-0.17,1.84,0.47c0.17,0.29,0.23,0.64,0.16,0.97l-22.06,93.49l113.45,27.99c0.7,0.17,1.14,0.86,1,1.57
								c-0.07,0.33-0.28,0.62-0.57,0.8C73.26,225.82,73.02,225.89,72.77,225.89 M-19.68,101.32c-0.04,0-0.08,0.01-0.11,0.03
								c-0.04,0.02-0.07,0.06-0.08,0.11l-22.36,94.75c-0.01,0.05,0,0.11,0.03,0.16c0.03,0.05,0.08,0.09,0.14,0.11l0.02,0.01
								L72.7,224.79c0.06,0.02,0.12,0.01,0.18-0.02c0.04-0.02,0.07-0.06,0.08-0.11c0.01-0.13-0.07-0.25-0.2-0.27l-113.97-28.12
								c-0.29-0.07-0.47-0.36-0.4-0.66l22.19-94.01c0.02-0.12-0.06-0.24-0.18-0.27C-19.63,101.33-19.65,101.32-19.68,101.32"/>
							<path id="Path_7355" class="st8" d="M-30.49,198.66l95.38,45.59l4.26-19.78L-30.49,198.66z"/>
							<path id="Path_7356" class="st12" d="M12.05,428.13l277.98,34.08l-5.92-44.66L12.05,428.13z"/>
							<path id="Path_7357" class="st26" d="M276.27,45.54l2.05,22.73c9.33,19.84,12.69,34.88,14.52,53.8
								c0.64,6.64,0.71,13.33,0.22,19.98l14.31,89.36l4.77,201.15l-323.35,0.32L36.06,43.2L276.27,45.54z"/>
							<rect id="Rectangle_4237" x="-86.16" y="199.16" class="st27" width="231.97" height="179.44"/>
						</g>
					</g>
				</g>
				<g id="Group_2768" transform="translate(15.008 345.254)">
					<g>
						<defs>
							<rect id="SVGID_27_" x="-101.16" y="-146.09" width="231.97" height="179.44"/>
						</defs>
						<clipPath id="SVGID_28_">
							<use xlink:href="#SVGID_27_"  style="overflow:visible;"/>
						</clipPath>
						<g id="Group_2767" class="st28">
							<rect id="Rectangle_4239" x="-0.53" y="-148.47" class="st29" width="34.82" height="182.75"/>
							<path id="Path_7358" class="st6" d="M-102.02-98.2l235.85-4.77l1.1,22.23L-102.02-98.2z"/>
						</g>
					</g>
				</g>
				<g id="Group_2770">
					<g>
						<defs>
							<rect id="SVGID_29_" x="-101.16" y="-146.09" width="447.39" height="1365.45"/>
						</defs>
						<clipPath id="SVGID_30_">
							<use xlink:href="#SVGID_29_"  style="overflow:visible;"/>
						</clipPath>
						<g id="Group_2769" class="st30">
							<rect id="Rectangle_4241" x="-90.32" y="198.37" class="st27" width="241.77" height="49.69"/>
							<rect id="Rectangle_4242" x="-63.18" y="102.58" class="st31" width="169.63" height="95.93"/>
						</g>
					</g>
				</g>
				<g id="Group_2772" transform="translate(37.987 248.669)">
					<g>
						<defs>
							<rect id="SVGID_31_" x="-101.16" y="-146.09" width="169.63" height="95.92"/>
						</defs>
						<clipPath id="SVGID_32_">
							<use xlink:href="#SVGID_31_"  style="overflow:visible;"/>
						</clipPath>
						<g id="Group_2771" class="st32">
							<rect id="Rectangle_4244" x="-27.58" y="-143.8" class="st29" width="25.47" height="94.13"/>
							<path id="Path_7359" class="st6" d="M-104.68-145.27l175.44-4.23l0.82,19.7L-104.68-145.27z"/>
						</g>
					</g>
				</g>
				<g id="Group_2774">
					<g>
						<defs>
							<rect id="SVGID_33_" x="-101.16" y="-146.09" width="447.39" height="1365.45"/>
						</defs>
						<clipPath id="SVGID_34_">
							<use xlink:href="#SVGID_33_"  style="overflow:visible;"/>
						</clipPath>
						<g id="Group_2773" class="st33">
							<rect id="Rectangle_4246" x="-66.22" y="78.89" class="st34" width="176.8" height="24.14"/>
							<rect id="Rectangle_4247" x="-45.07" y="158.05" class="st16" width="48.58" height="26.65"/>
							<path id="Path_7360" class="st8" d="M-2.26,165.34l-37.53-0.01c-0.3,0-0.55-0.24-0.55-0.55c0-0.3,0.24-0.55,0.55-0.55
								c0,0,0,0,0,0l37.53,0.01c0.3,0,0.55,0.25,0.55,0.55C-1.71,165.1-1.96,165.34-2.26,165.34"/>
							<path id="Path_7361" class="st8" d="M-2.26,172.43l-37.53-0.02c-0.3,0-0.55-0.25-0.55-0.55c0-0.3,0.24-0.54,0.55-0.55
								l37.53,0.01c0.3,0,0.55,0.25,0.55,0.55C-1.71,172.18-1.96,172.42-2.26,172.43"/>
							<path id="Path_7362" class="st8" d="M-2.26,179.51l-37.53-0.01c-0.3,0-0.55-0.25-0.55-0.55c0-0.3,0.24-0.54,0.55-0.55
								l37.53,0.02c0.3,0,0.55,0.24,0.55,0.55C-1.71,179.27-1.96,179.51-2.26,179.51L-2.26,179.51"/>
							<rect id="Rectangle_4248" x="-45.07" y="158.05" class="st16" width="48.58" height="26.65"/>
							<path id="Path_7363" class="st8" d="M-2.26,165.34l-37.53-0.01c-0.3,0-0.55-0.24-0.55-0.55c0-0.3,0.24-0.55,0.55-0.55
								c0,0,0,0,0,0l37.53,0.01c0.3,0,0.55,0.25,0.55,0.55C-1.71,165.1-1.96,165.34-2.26,165.34"/>
							<path id="Path_7364" class="st8" d="M-2.26,172.43l-37.53-0.02c-0.3,0-0.55-0.25-0.55-0.55c0-0.3,0.24-0.54,0.55-0.55
								l37.53,0.01c0.3,0,0.55,0.25,0.55,0.55C-1.71,172.18-1.96,172.42-2.26,172.43"/>
							<path id="Path_7365" class="st8" d="M-2.26,179.51l-37.53-0.01c-0.3,0-0.55-0.25-0.55-0.55c0-0.3,0.24-0.54,0.55-0.55
								l37.53,0.02c0.3,0,0.55,0.24,0.55,0.55C-1.71,179.27-1.96,179.51-2.26,179.51L-2.26,179.51"/>
							<rect id="Rectangle_4249" x="-67.41" y="273.46" class="st16" width="48.58" height="26.65"/>
							<path id="Path_7366" class="st8" d="M-24.6,280.76l-37.53-0.01c-0.3,0-0.55-0.24-0.55-0.55c0-0.3,0.24-0.55,0.55-0.55l0,0
								l37.53,0.01c0.3,0,0.55,0.24,0.55,0.55C-24.05,280.51-24.3,280.76-24.6,280.76"/>
							<path id="Path_7367" class="st8" d="M-24.6,287.84l-37.53-0.01c-0.3,0-0.55-0.24-0.55-0.55c0-0.3,0.24-0.55,0.55-0.55l0,0
								l37.53,0.01c0.3,0,0.55,0.24,0.55,0.55C-24.05,287.6-24.3,287.84-24.6,287.84"/>
							<path id="Path_7368" class="st8" d="M-24.6,294.93l-37.53-0.02c-0.3,0-0.55-0.24-0.55-0.55c0-0.3,0.24-0.55,0.55-0.55l0,0
								l37.53,0.02c0.3,0,0.55,0.24,0.55,0.55C-24.05,294.69-24.3,294.93-24.6,294.93C-24.6,294.93-24.6,294.93-24.6,294.93"/>
							<path id="Path_7369" class="st35" d="M-98.73,276.93c0,0,38.69-9.41,42.13,6.71c3.43,16.06-31.74,14.91-38.77,12.86
								S-102.4,277.1-98.73,276.93"/>
							<path id="Path_7370" class="st35" d="M-97.64,296.59c0,0,47.98-10.37,51.42,5.75c3.43,16.06-41.04,15.87-48.07,13.82
								C-101.31,314.12-101.32,296.77-97.64,296.59"/>
							<path id="Path_7371" class="st35" d="M-95.88,317.32c0,0,41.36-10.17,44.8,5.96c3.43,16.06-34.42,15.67-41.44,13.62
								S-99.55,317.49-95.88,317.32"/>
							<path id="Path_7372" class="st35" d="M-95.25,337.23c0,0,35.4-10.84,38.19,5.39c2.04,11.88-28.37,15.12-35.4,13.08
								C-99.49,353.66-98.92,337.4-95.25,337.23"/>
							<path id="Path_7373" class="st36" d="M275.84,60.63c33.74-5.87,65.46,20.5,64.63,53.73l-7.22,229.56
								c-0.64,17.53-14.93,33.92-32.58,37.71c-25.06,5.37-62.36-30.23-63.98-55.2l-2.82-216.46
								C233.55,85.56,251.09,64.93,275.84,60.63"/>
						</g>
					</g>
				</g>
				<g id="Group_2776" transform="translate(335.029 205.901)">
					<g>
						<defs>
							<path id="SVGID_35_" d="M-59.19-145.27c-24.75,4.3-42.29,24.93-41.97,49.34l2.82,216.46c1.62,24.96,38.91,60.56,63.98,55.19
								c17.65-3.78,31.94-20.17,32.58-37.7L5.44-91.53c0.75-30.1-25.18-54.56-55.14-54.56C-52.88-146.09-56.06-145.82-59.19-145.27"
								/>
						</defs>
						<clipPath id="SVGID_36_">
							<use xlink:href="#SVGID_35_"  style="overflow:visible;"/>
						</clipPath>
						<g id="Group_2775" class="st37">
							<path id="Path_7374" class="st8" d="M-99.81,7.03L2.31,35.01l0.5-20.24L-99.81,7.03z"/>
						</g>
					</g>
				</g>
				<g id="Group_2778">
					<g>
						<defs>
							<rect id="SVGID_37_" x="-101.16" y="-146.09" width="447.39" height="1365.45"/>
						</defs>
						<clipPath id="SVGID_38_">
							<use xlink:href="#SVGID_37_"  style="overflow:visible;"/>
						</clipPath>
						<g id="Group_2777" class="st38">
							<path id="Path_7376" class="st26" d="M223.47,212.63l117.91,7.51l4.78-108.46c1.52-34.36-22.54-63.65-58.25-66.39
								s-58.14,24.53-59.66,58.88L223.47,212.63z"/>
							<path id="Path_7377" class="st8" d="M223.37,213.38c-0.18-0.03-0.35-0.12-0.47-0.25c-0.14-0.15-0.22-0.35-0.21-0.55
								l4.29-97.31c0.02-0.41,0.37-0.72,0.78-0.69c0.01,0,0.02,0,0.04,0c0.43,0.02,0.76,0.38,0.75,0.81l-4.26,96.55l117.12,7.46
								c0.43,0.02,0.76,0.37,0.76,0.8c-0.02,0.41-0.36,0.72-0.77,0.7c-0.01,0-0.02,0-0.03,0l-117.92-7.51
								C223.41,213.38,223.39,213.38,223.37,213.38"/>
							<path id="Path_7378" class="st8" d="M118.42,323.75c-0.27,0-0.5-0.2-0.54-0.47c-0.04-0.3,0.09-0.72,0.39-0.77l140.46-19.56
								c0.29-0.04,0.57,0.16,0.61,0.45c0,0,0,0.01,0,0.01c0.04,0.3,0.07,1.19-0.23,1.23L118.5,323.74
								C118.47,323.74,118.44,323.74,118.42,323.75"/>
							<path id="Path_7379" class="st39" d="M20.19,386.58c-4.65,0.43-9.34,0.19-13.92-0.71c3.19-4.11,10.84-1.16,20.64-2.77
								c2.35-0.39,18.62-4.38,21.68-4.24C49.14,378.89,26.64,385.97,20.19,386.58"/>
							<path id="Path_7380" class="st39" d="M69.28,392.7c-13.89,6.72-22.32,7.52-36.67,9.71c-1.74,0.26-3.58,0.55-5.51,0.89
								C32.1,395.3,59.51,397.4,69.28,392.7"/>
							<path id="Path_7381" class="st39" d="M107.11,398.03v0.03C107,398.06,107.01,398.04,107.11,398.03"/>
							<path id="Path_7382" class="st35" d="M315.74,310.91c-8.87-13.98-52.6-5.4-62.75-5.33l-134.04,17.17
								c-7.44-2.67-15.04-4.86-22.76-6.54c-9.09-2.69-23.28-7-25.5-7.97c-8.21-3.61-19.27-8.45-24.67-10.8
								c-2.03-0.93-4.45-0.3-5.76,1.51c-2.22,3.14-4.53,8.36-0.51,13.4c4.08,5.12,17.07,13.4,25.75,18.61
								c-1.39,0.67-2.79,1.44-4.21,2.28c-11.52,6.88-27.59,11.32-40.93,13.5c-9.01,1.45-29.79-4.77-31.28,4.89
								c-1.71,11.19,15.15,13.19,28.26,14.06c11.39,0.74,26.83-4.43,30.81-4.8c8.53-0.81-11.33,6.59-14.15,7.53
								c-11.15,3.7-10,2.11-24.54,0.93c-4.76-0.38-19.03-6.47-18.59,2.76c0.38,8.17,7.5,12.16,15.4,13.77
								c3.19-4.11,10.84-1.16,20.64-2.77c2.35-0.39,18.62-4.38,21.68-4.24c0.55,0.03-21.94,7.11-28.4,7.72
								c-4.65,0.43-9.34,0.19-13.92-0.71c-0.83,1.17-1.34,2.54-1.47,3.98c-1.45,10.49,17.08,14.32,21.13,13.64
								c0.39-0.07,0.78-0.13,1.16-0.19c5.01-8,32.42-5.89,42.19-10.59c-13.89,6.72-22.32,7.52-36.67,9.71
								c-1.74,0.26-3.58,0.55-5.51,0.89c-0.76,1.22-1,2.68-0.68,4.08c1.67,8.66,17,8.48,21.64,8.32c8.29-0.28,22.19-2.18,32.1-8.35
								c2.13-1.32,8.78-3.8,11.15-4.6c8.56-2.9,16.72-3.8,24.57-4.41c28.55,1.29,119.48,5.73,169.77-1.77
								c35.64-5.31,42.81-27.78,46.47-43.77C338.87,323.32,322.83,322.12,315.74,310.91 M107.11,398.07c-0.12,0-0.1-0.02,0-0.03
								V398.07z"/>
							<path id="Path_7383" class="st9" d="M146.54,705.49c-0.28,0-0.51-0.21-0.54-0.49L122.5,485.74c-0.04-0.3,0.16-0.58,0.46-0.62
								c0.3-0.04,0.58,0.16,0.62,0.46c0,0.01,0,0.03,0,0.04l23.49,219.27c0.03,0.3-0.18,0.57-0.48,0.6c0,0,0,0,0,0
								C146.58,705.49,146.56,705.49,146.54,705.49"/>
							<path id="Path_7384" class="st9" d="M342.77,196.23h-0.02l-118.39-3.94c-0.3-0.01-0.54-0.26-0.53-0.57
								c0.02-0.3,0.27-0.53,0.57-0.53l118.39,3.93c0.3,0.02,0.53,0.27,0.52,0.58C343.29,195.99,343.06,196.22,342.77,196.23"/>
						</g>
					</g>
				</g>
			</g>
		</g>
	</g>
</g>
</svg>
