<?xml version="1.0" encoding="utf-8"?>
<!-- Generator: Adobe Illustrator 25.0.0, SVG Export Plug-In . SVG Version: 6.00 Build 0)  -->
<svg version="1.1" id="Layer_1" xmlns="http://www.w3.org/2000/svg" xmlns:xlink="http://www.w3.org/1999/xlink" x="0px" y="0px"
	 viewBox="0 0 450 450" style="enable-background:new 0 0 450 450;" xml:space="preserve">
<style type="text/css">
	.st0{opacity:0.12;fill-rule:evenodd;clip-rule:evenodd;fill:url(#SVGID_1_);}
	.st1{fill-rule:evenodd;clip-rule:evenodd;fill:#FCFCFC;}
	.st2{fill-rule:evenodd;clip-rule:evenodd;fill:#5BDB98;}
	.st3{fill-rule:evenodd;clip-rule:evenodd;fill:#4CB08A;}
	.st4{fill:#5BDB98;}
	.st5{fill:#4CB08A;}
	.st6{fill:#BAF4D2;}
	.st7{fill:#1B3149;}
	.st8{fill:#FCFCFC;}
	.st9{fill:#00081A;}
	.st10{fill:url(#SVGID_2_);}
	.st11{fill:url(#SVGID_3_);}
	.st12{fill:url(#SVGID_4_);}
	.st13{fill:#60E99C;}
	.st14{fill:#FFB44A;}
	.st15{fill:#FFD6A4;}
	.st16{fill:#FCB3BB;}
	.st17{fill:#442F6E;}
	.st18{fill:#FFCCD3;}
	.st19{fill:#F4BAC3;}
	.st20{fill:url(#SVGID_5_);}
	.st21{fill:url(#SVGID_6_);}
	.st22{fill:#FA8B98;}
</style>
<g>
	<g>
		<g>
			<linearGradient id="SVGID_1_" gradientUnits="userSpaceOnUse" x1="0.0616" y1="223.5342" x2="449.9384" y2="223.5342">
				<stop  offset="0" style="stop-color:#5BDB98"/>
				<stop  offset="1" style="stop-color:#60E99C"/>
			</linearGradient>
			<path class="st0" d="M30.04,363.68c-36.63-21.58-40.99-78.85-5.85-108.06c47.09-39.15,7.02-73.66,5.85-109.39
				c-1.11-33.86,15.99-74.4,93.93-69.38c77.95,5.02,135.96,64.3,236.23,21.14c68.92-29.67,107.58,47.06,81.61,113.16
				c-25.97,66.09-44.93,72.05-35.05,115.5c9.88,43.45-43.36,43.35-57.28,43.93C335.56,371.18,30.04,363.68,30.04,363.68z"/>
			<g>
				<path class="st1" d="M158.29,138.76c-1.16-0.19-2.29-0.21-3.39-0.13c0-0.01,0-0.03,0-0.04c0-1.86-1.51-3.37-3.37-3.37
					c-0.04,0-0.08,0.01-0.11,0.01c0.07-0.41,0.11-0.82,0.11-1.25c0-3.73-2.81-6.8-6.42-7.23c0.24-1,0.37-2.05,0.37-3.12
					c0-7.52-6.1-13.61-13.61-13.61c-4.48,0-8.45,2.18-10.93,5.52c-1.29-0.64-2.74-1-4.28-1c-1.16,0-2.27,0.21-3.31,0.59
					c0.03-0.38,0.06-0.76,0.06-1.14c0-8.88-7.2-16.07-16.07-16.07s-16.07,7.2-16.07,16.07c0,0.46,0.03,0.91,0.07,1.36
					c-0.29-0.08-0.58-0.14-0.89-0.14c-1.41,0-2.62,0.87-3.12,2.1c-0.78-0.2-1.6-0.32-2.45-0.32c-5.37,0-9.73,4.35-9.73,9.73
					c0,1.06,0.18,2.08,0.49,3.03c-0.18-0.03-0.37-0.06-0.56-0.06c-1.36,0-2.53,0.81-3.06,1.97c-1.25-1.22-2.95-1.97-4.83-1.97
					c-3.82,0-6.92,3.1-6.92,6.92c0,0,0,0.01,0,0.01c-0.48-0.26-1.02-0.42-1.6-0.42c-1.26,0-2.34,0.7-2.92,1.72
					c-0.34-0.11-7.81-2.35-13.94,0.98c-4.83,2.63-5.9,7.1-5.9,7.1h138.49C164.38,145.98,164.96,139.88,158.29,138.76z M82.99,121.21
					l-0.07,0.04c-0.06-0.08-0.12-0.16-0.18-0.24c0.04-0.03,0.07-0.06,0.11-0.1C82.9,121.01,82.94,121.11,82.99,121.21z"/>
				<path class="st1" d="M205.94,128.13c0,3.47-2.81,6.28-6.28,6.28c-3.47,0-6.28-2.81-6.28-6.28c0-3.47,2.81-6.28,6.28-6.28
					C203.13,121.85,205.94,124.67,205.94,128.13z"/>
				<path class="st1" d="M422.57,148.83c0,3.47-2.81,6.28-6.28,6.28c-3.47,0-6.28-2.81-6.28-6.28c0-3.47,2.81-6.28,6.28-6.28
					C419.76,142.56,422.57,145.37,422.57,148.83z"/>
				<path class="st2" d="M289.33,94.15c0,3.47-2.81,6.28-6.28,6.28s-6.28-2.81-6.28-6.28c0-3.47,2.81-6.28,6.28-6.28
					S289.33,90.69,289.33,94.15z"/>
				<path class="st2" d="M390.24,263.97c0,3.47-2.81,6.28-6.28,6.28c-3.47,0-6.28-2.81-6.28-6.28c0-3.47,2.81-6.28,6.28-6.28
					C387.43,257.69,390.24,260.5,390.24,263.97z"/>
				<path class="st2" d="M75.04,182.04c0,3.47-2.81,6.28-6.28,6.28c-3.47,0-6.28-2.81-6.28-6.28c0-3.47,2.81-6.28,6.28-6.28
					C72.23,175.76,75.04,178.58,75.04,182.04z"/>
				<path class="st2" d="M137.22,238.67c0,1.99-1.61,3.6-3.6,3.6c-1.99,0-3.6-1.61-3.6-3.6c0-1.99,1.61-3.6,3.6-3.6
					C135.61,235.06,137.22,236.68,137.22,238.67z"/>
				<path class="st2" d="M280.38,152.83c0,1.99-1.61,3.6-3.6,3.6c-1.99,0-3.6-1.61-3.6-3.6c0-1.99,1.61-3.6,3.6-3.6
					C278.76,149.23,280.38,150.84,280.38,152.83z"/>
				<path class="st1" d="M288.33,208.77c0,1.99-1.61,3.6-3.6,3.6s-3.6-1.61-3.6-3.6c0-1.99,1.61-3.6,3.6-3.6
					S288.33,206.78,288.33,208.77z"/>
				<path class="st1" d="M145,178.5c0,1.99-1.61,3.6-3.6,3.6c-1.99,0-3.6-1.61-3.6-3.6c0-1.99,1.61-3.6,3.6-3.6
					C143.39,174.89,145,176.51,145,178.5z"/>
				<path class="st1" d="M405.11,206.77c0,1.99-1.61,3.6-3.6,3.6c-1.99,0-3.6-1.61-3.6-3.6c0-1.99,1.61-3.6,3.6-3.6
					C403.49,203.17,405.11,204.78,405.11,206.77z"/>
			</g>
		</g>
		<g>
			<g>
				<g>
					<path class="st3" d="M66.09,360.89c0,0-13.8-18.01-4.07-18.25c0,0-21.31-40.51-3.48-37.29c0,0-14.59-42.22,5.58-35.89
						c0,0,2.88-23.83,11.4-20.67c8.52,3.16,2.74,24.13,2.74,24.13s15.72,3.37-4.81,32.43c0,0,18.49-4.08-2.92,36.07
						c0,0,9.32-0.49,1.38,19.47H66.09z"/>
					<g>
						<path class="st4" d="M70.02,363.4c-0.32,0-0.61-0.21-0.7-0.53c-11.94-42.62,2.14-100.46,2.28-101.04
							c0.1-0.39,0.49-0.63,0.88-0.53c0.39,0.1,0.63,0.49,0.53,0.88c-0.14,0.58-14.13,58.05-2.29,100.29
							c0.11,0.39-0.12,0.79-0.51,0.9C70.15,363.4,70.08,363.4,70.02,363.4z"/>
					</g>
					<path class="st1" d="M54.29,360.07c-12.33-4.02-8.61-10.86-6.42-11.35c2.19-0.49-30.9-21.05-13.63-25.98
						c0,0-20.77-17.21-13.38-25.73c7.91-9.12,24.09,10.22,26.52,20.26c0,0,14.14-10.95,10.95,23.72c0,0,12.37-6.24,4.07,19.89
						L54.29,360.07z"/>
					<path class="st2" d="M76.15,360.89c0,0,18.41-21.3,6.39-19.44c0,0,28.29-28.75,10.95-29.11c0,0,23.91-24.45,9.49-32.3
						c-14.31-7.79-18.8,28.83-18.8,28.83s-17.27-11.86-10.58,29.56c0,0-12.04-4.74-1.64,22.08L76.15,360.89z"/>
					<g>
						<path class="st4" d="M60.44,366.35c-0.33,0-0.63-0.22-0.71-0.56c-0.02-0.1-2.54-10.24-7.51-22.65
							c-4.57-11.42-12.22-27.16-22.68-37.28c-0.29-0.28-0.3-0.74-0.02-1.03c0.28-0.29,0.74-0.3,1.03-0.02
							c10.65,10.3,18.4,26.24,23.03,37.8c5,12.5,7.54,22.72,7.56,22.82c0.1,0.39-0.14,0.79-0.53,0.88
							C60.55,366.35,60.5,366.35,60.44,366.35z"/>
					</g>
					<g>
						<path class="st5" d="M74.22,363.4c-0.38,0-0.71-0.3-0.73-0.69c-0.51-9.16,3.39-24.21,11.59-44.74
							c6.09-15.25,12.41-27.99,12.47-28.12c0.18-0.36,0.62-0.51,0.98-0.33c0.36,0.18,0.51,0.62,0.33,0.98
							c-0.25,0.5-25.1,50.74-23.91,72.12c0.02,0.4-0.29,0.75-0.69,0.77C74.25,363.4,74.23,363.4,74.22,363.4z"/>
					</g>
				</g>
				<ellipse class="st6" cx="225" cy="364.8" rx="217.7" ry="8.76"/>
				<g>
					<ellipse class="st4" cx="339.64" cy="174.53" rx="38.04" ry="86.65"/>
					<g>
						<g>
							<path class="st7" d="M339.64,359.66c-0.81,0-1.46-0.65-1.46-1.46V164.15c0-0.81,0.65-1.46,1.46-1.46s1.46,0.65,1.46,1.46
								V358.2C341.1,359.01,340.45,359.66,339.64,359.66z"/>
						</g>
						<g>
							<path class="st7" d="M339.64,223.94c-0.37,0-0.75-0.14-1.03-0.43c-0.57-0.57-0.57-1.49,0-2.06l22.96-22.96
								c0.57-0.57,1.49-0.57,2.06,0c0.57,0.57,0.57,1.49,0,2.06l-22.96,22.96C340.39,223.8,340.02,223.94,339.64,223.94z"/>
						</g>
						<g>
							<path class="st7" d="M339.64,195.12c-0.37,0-0.75-0.14-1.03-0.43c-0.57-0.57-0.57-1.49,0-2.06l11.65-11.65
								c0.57-0.57,1.49-0.57,2.06,0c0.57,0.57,0.57,1.49,0,2.06l-11.65,11.65C340.39,194.98,340.02,195.12,339.64,195.12z"/>
						</g>
						<g>
							<path class="st7" d="M339.64,213.29c-0.37,0-0.75-0.14-1.03-0.43l-19.34-19.34c-0.57-0.57-0.57-1.49,0-2.06
								c0.57-0.57,1.49-0.57,2.06,0l19.34,19.34c0.57,0.57,0.57,1.49,0,2.06C340.39,213.15,340.02,213.29,339.64,213.29z"/>
						</g>
					</g>
					<path class="st7" d="M334.82,359.9c0,0-1.29-8.61-12.55-15.29c0,0,13.4,4.13,18.64,12.81c0,0,4.66-29.66,8.15-38.67
						l-1.15,38.84c0,0,11.03-16.18,22.65-21.99c0,0-13.22,14.38-13.36,24.29H334.82z"/>
				</g>
			</g>
			<g>
				<path class="st7" d="M102.63,359.97c-0.35,0-0.63-0.28-0.63-0.63V138.24c0-0.35,0.28-0.63,0.63-0.63c0.35,0,0.63,0.28,0.63,0.63
					v221.09C103.26,359.68,102.97,359.97,102.63,359.97z"/>
			</g>
			<g>
				<polygon class="st8" points="87.66,121.16 94.73,151.92 102.63,151.92 102.63,121.16 				"/>
				<g>
					<g>
						<polygon class="st8" points="117.59,121.16 110.52,151.92 102.63,151.92 102.63,121.16 						"/>
					</g>
					<g>
						<path class="st7" d="M115.5,122.82l-6.3,27.44h-6.57h-6.57l-6.3-27.44h12.88H115.5 M117.59,121.16L117.59,121.16
							L117.59,121.16z M117.59,121.16h-14.96H87.66l7.07,30.76h7.9h7.9L117.59,121.16L117.59,121.16z"/>
					</g>
					<g>
						<polygon class="st7" points="102.63,113.68 87.66,121.16 102.63,121.16 117.59,121.16 						"/>
					</g>
					<g>
						<rect x="101.81" y="121.28" class="st7" width="1.64" height="30.21"/>
					</g>
				</g>
			</g>
		</g>
	</g>
	<g>
		<g>
			<g>
				<g>
					<path class="st4" d="M176.86,220.38l-0.71-0.17l3.43-14.74c0.22-0.94,1.05-1.6,2.02-1.6h4.76v0.73h-4.76
						c-0.63,0-1.16,0.43-1.31,1.04L176.86,220.38z"/>
				</g>
				<g>
					<path class="st8" d="M177.48,220.43l-0.68-0.26l7.21-19.15c0.32-0.86,1.16-1.43,2.07-1.43h5.38v0.73h-5.38
						c-0.61,0-1.17,0.39-1.39,0.96L177.48,220.43z"/>
				</g>
				<path class="st4" d="M188.12,200.31c-0.97,0-1.76,1.76-1.76,3.93c0,2.17,0.79,3.93,1.76,3.93V200.31z"/>
				<path class="st8" d="M197.03,200.16c0,3.43-1.25,6.2-2.78,6.2c-1.54,0-2.78-2.78-2.78-6.2c0-3.43,1.25-6.2,2.78-6.2
					C195.79,193.96,197.03,196.74,197.03,200.16z"/>
			</g>
			<g>
				<g>
					<path class="st9" d="M145.79,305.7c-14.33,0-25.94,11.61-25.94,25.94s11.61,25.94,25.94,25.94c14.33,0,25.94-11.61,25.94-25.94
						S160.12,305.7,145.79,305.7z M145.79,347.58c-8.8,0-15.94-7.14-15.94-15.94s7.14-15.94,15.94-15.94
						c8.8,0,15.94,7.14,15.94,15.94S154.59,347.58,145.79,347.58z"/>
					<circle class="st8" cx="145.79" cy="331.65" r="4.76"/>
				</g>
				<g>
					<path class="st8" d="M290.79,331.65c0,2.63-2.13,4.76-4.76,4.76c-2.63,0-4.76-2.13-4.76-4.76c0-2.63,2.13-4.76,4.76-4.76
						C288.66,326.88,290.79,329.02,290.79,331.65z"/>
					<path class="st9" d="M286.03,305.7c-14.33,0-25.94,11.61-25.94,25.94s11.61,25.94,25.94,25.94c14.33,0,25.94-11.61,25.94-25.94
						S300.36,305.7,286.03,305.7z M286.03,347.58c-8.8,0-15.94-7.14-15.94-15.94s7.14-15.94,15.94-15.94
						c8.8,0,15.94,7.14,15.94,15.94S294.83,347.58,286.03,347.58z"/>
				</g>
			</g>
			<path class="st8" d="M164.25,228.82c0,3.8,3.08,6.87,6.87,6.87v-13.75C167.32,221.94,164.25,225.02,164.25,228.82z"/>
			<linearGradient id="SVGID_2_" gradientUnits="userSpaceOnUse" x1="151.4735" y1="250.8189" x2="303.4904" y2="350.7688">
				<stop  offset="0" style="stop-color:#5BDB98"/>
				<stop  offset="1" style="stop-color:#4CB08A"/>
			</linearGradient>
			<path class="st10" d="M192.46,229.33c0,0-0.08-2.25-3-2.4c-2.92-0.15-5.84-1.98-6.3-3.89c-0.11-0.47-0.17-0.91-0.19-1.32
				c-0.07-1.22-1.11-2.15-2.33-2.15h-7.1c-1.29,0-2.34,1.05-2.34,2.34v13.76c0,1.29,1.05,2.34,2.34,2.34h5.42
				c0,0,3.19,2.19-0.64,7.48c-3.83,5.29-20.9,27.74-25.46,35.59c-4.56,7.85-5.11,16.42-5.11,16.42l3.65,15.15l23.36,13.14l7.12,6.66
				c0.94,0.88,2.17,1.37,3.46,1.37h77.57v-11.86h60.95c0,0-3.83-23.72-29.38-38.87h-57.12c0,0,9.73,10.58,7.7,25.37
				c-2.04,14.78-17,19.34-23.21,19.34c-6.2,0-21.35,0-29.2,0c-7.85,0-17.52-15.51-18.43-31.57c-0.91-16.06,4.62-29.99,11.31-39.27
				c4.24-5.88,7.48-11.65,7.85-16.21C193.75,236.18,192.46,229.33,192.46,229.33z"/>
			<path class="st9" d="M327.64,316.11h-15.19c-1.61,0-2.92,1.31-2.92,2.92l0,0c0,1.61,1.31,2.92,2.92,2.92h15.19
				c1.61,0,2.92-1.31,2.92-2.92l0,0C330.56,317.42,329.25,316.11,327.64,316.11z"/>
			<linearGradient id="SVGID_3_" gradientUnits="userSpaceOnUse" x1="113.6123" y1="312.4889" x2="177.9723" y2="312.4889">
				<stop  offset="0" style="stop-color:#5BDB98"/>
				<stop  offset="1" style="stop-color:#4CB08A"/>
			</linearGradient>
			<path class="st11" d="M145.79,296.4c-17.77,0-32.18,14.41-32.18,32.18h64.36C177.97,310.81,163.56,296.4,145.79,296.4z"/>
			<linearGradient id="SVGID_4_" gradientUnits="userSpaceOnUse" x1="257.3804" y1="301.6498" x2="313.6312" y2="339.3053">
				<stop  offset="0" style="stop-color:#5BDB98"/>
				<stop  offset="1" style="stop-color:#4CB08A"/>
			</linearGradient>
			<path class="st12" d="M320.58,329.25h-65.15c0,0-8.56-11.46-2.92-24.45c7.48-17.25,29.61-14.24,42.2-6.94
				C307.3,305.16,316.57,318.48,320.58,329.25z"/>
			<path class="st9" d="M236.29,284.59l-1.59,2.24c-0.32,0.45-0.83,0.71-1.37,0.71l0,0c-0.93,0-1.68-0.75-1.68-1.68v-12.51
				c0-0.37,0.3-0.68,0.68-0.68h35.58c6.01,0,11.36-1.98,13.95-4.1c0.82-0.67,2.05-0.44,2.57,0.48c1.48,2.59,3.16,7.67-1.1,13.74
				c-0.13,0.18-0.34,0.29-0.56,0.29h-43.54C238.06,283.08,236.97,283.64,236.29,284.59z"/>
			<g>
				<path class="st13" d="M305.07,319.76h-41.43c-0.6,0-1.1,0.49-1.1,1.1l0,0c0,0.6,0.49,1.09,1.1,1.09h41.43
					c0.6,0,1.09-0.49,1.09-1.09l0,0C306.17,320.25,305.68,319.76,305.07,319.76z"/>
				<path class="st13" d="M293.63,313.65h-29.99c-0.6,0-1.1,0.49-1.1,1.09l0,0c0,0.6,0.49,1.09,1.1,1.09h29.99
					c0.6,0,1.09-0.49,1.09-1.09l0,0C294.73,314.14,294.24,313.65,293.63,313.65z"/>
				<path class="st13" d="M283.26,307.54h-19.62c-0.6,0-1.1,0.49-1.1,1.09l0,0c0,0.6,0.49,1.1,1.1,1.1h19.62
					c0.6,0,1.09-0.49,1.09-1.1l0,0C284.36,308.03,283.87,307.54,283.26,307.54z"/>
			</g>
			<g>
				<rect x="287.98" y="254.97" class="st14" width="42.58" height="26.71"/>
				<rect x="294.67" y="238.05" class="st15" width="29.2" height="16.92"/>
				<g>
					<g>
						<path d="M301.24,282.71c-0.02,0-0.04,0-0.05,0c-0.2-0.03-0.34-0.21-0.31-0.41l6.57-44.3c0.03-0.2,0.22-0.34,0.41-0.31
							c0.2,0.03,0.34,0.21,0.31,0.41l-6.57,44.3C301.57,282.58,301.42,282.71,301.24,282.71z"/>
					</g>
					<g>
						<path d="M318.22,282.71c-0.18,0-0.33-0.13-0.36-0.31l-6.57-44.3c-0.03-0.2,0.11-0.38,0.31-0.41c0.19-0.03,0.38,0.11,0.41,0.31
							l6.57,44.3c0.03,0.2-0.11,0.38-0.31,0.41C318.26,282.71,318.24,282.71,318.22,282.71z"/>
					</g>
				</g>
			</g>
			<path class="st1" d="M173.3,270.16c0,0-4.91,7.14-6.59,16.09l-4.65,0.27c0,0,2.96-8.54,7.03-14.42L173.3,270.16z"/>
			<g>
				<path d="M335.66,283.08h-52.97c-0.4,0-0.73-0.33-0.73-0.73c0-0.4,0.33-0.73,0.73-0.73h52.97c0.4,0,0.73,0.33,0.73,0.73
					C336.39,282.75,336.06,283.08,335.66,283.08z"/>
			</g>
			<path class="st14" d="M193.41,241.22c-0.03,0.43-0.26,1.02-0.33,1.46c-1.06,0.14-1.61,0.2-2.06,0.23
				c-2.05,0.14-6.3-5.34-6.3-6.98c0-1.28,4.51-5.4,7.58-7.29C192.54,229.28,193.81,236.16,193.41,241.22z"/>
			<path class="st9" d="M200.06,238.64c-0.25-0.38-0.59-0.68-0.98-0.91v-0.01c-0.35-0.18-3.82-2.16-3.82-2.16v0.01
				c-0.4-0.2-0.85-0.31-1.32-0.31c-1.72,0-3.1,1.39-3.1,3.11c0,0.56,0.14,1.07,0.4,1.52c0.22,0.39,0.53,0.74,0.91,1l0.01,0.01
				c0.14,0.1,0.28,0.17,0.43,0.25l1.17,0.66l1.99,1.13c0,0,0.01,0.01,0.03,0.01l0.36,0.21c0.42,0.2,0.86,0.31,1.34,0.31
				c1.58,0,2.87-1.17,3.08-2.68c0.01-0.14,0.03-0.28,0.03-0.42C200.6,239.74,200.4,239.12,200.06,238.64z"/>
		</g>
		<g>
			<g>
				<g>
					<path class="st9" d="M210.49,315.47h-6.71c0,0-2.43,3.29-5.72,3.71c-1.85,0.24-5.27,0.21-7.91,0.14
						c-2-0.05-3.64,1.55-3.64,3.55l0,0c0,1.96,1.59,3.55,3.55,3.55h20.43c0.87,0,1.58-0.71,1.58-1.58L210.49,315.47z"/>
					<path class="st9" d="M211.04,316.66h-6.71c0,0-2.43,3.29-5.72,3.71c-1.85,0.24-5.27,0.21-7.91,0.14
						c-2-0.05-3.64,1.55-3.64,3.55l0,0c0,1.96,1.59,3.55,3.55,3.55h20.43c0.87,0,1.58-0.71,1.58-1.58L211.04,316.66z"/>
					<path class="st16" d="M204.96,316.11c0.26,1.41,1.49,2.46,2.95,2.46c1.47,0,2.69-1.06,2.95-2.46H204.96z"/>
				</g>
				<path class="st9" d="M261.96,256.95c0,0-42.35,0-52.38,0c-13.42,0-13.42,13.98-13.42,19.88c0,5.9,4.77,39.01,4.77,39.01h10.16
					l3.14-39.01c0,0,30.6,0,38.63,0S265.85,267.8,261.96,256.95z"/>
				<path class="st7" d="M262.92,258.99c0,0-41.97,0-51.71,0c-13.02,0-13.02,13.57-13.02,19.28s4.62,37.84,4.62,37.84h9.85
					l3.04-37.84c0,0,29.69,0,37.47,0C260.97,278.27,266.69,269.51,262.92,258.99z"/>
			</g>
			<g>
				<path class="st17" d="M246.38,189.07c0,0,3.56-3.83,5.62-9.91c0,0-10.23-14.28-27.44-6.55L246.38,189.07z"/>
				<path class="st18" d="M224.52,172.6c0,0-1.21,9,2.09,15.99c3.3,6.99,4.12,7.15,10.06,5.98l1.01,7.69l11.28-3.99
					c0,0-4.31-12.04-2.61-14.2c1.44-1.82,1.95-5.02-0.15-6.13c-3.31-1.75-5.73,2.11-5.87,3.72l-1.63-6.05
					C238.71,175.61,227.05,171.65,224.52,172.6z"/>
				<g>
					<path class="st15" d="M227.95,173.52c-0.04,0-0.08,0-0.13-0.01l-18.7-3.72c-0.34-0.07-0.56-0.39-0.49-0.73
						c0.07-0.34,0.4-0.55,0.73-0.49l18.7,3.72c0.34,0.07,0.56,0.39,0.49,0.73C228.5,173.31,228.24,173.52,227.95,173.52z"/>
				</g>
				<path class="st14" d="M224.59,172.91l27.53,6.19c0,0,2.88-13.23-9.2-16.65S224.92,166.77,224.59,172.91z"/>
			</g>
			<path class="st19" d="M249.29,226.52c0,0-0.31,0.84-0.82,2.11c-0.15,0.39-0.33,0.84-0.53,1.31c-0.08,0.17-0.15,0.35-0.22,0.52
				c-0.08,0.17-0.15,0.35-0.22,0.52c-1.46,3.35-3.57,7.48-5.26,8.33c-0.95,0.47-5.62,0.53-11.45,0.4
				c-11.92-0.28-28.69-1.38-28.69-1.38s-0.82,0.13-2.04,0.32c-0.25-0.38-0.59-0.68-0.98-0.91v-0.01c-0.35-0.18-3.82-2.16-3.82-2.16
				v0.01c-0.4-0.2-0.85-0.31-1.32-0.31c-1.72,0-3.1,1.39-3.1,3.11c0,0.56,0.14,1.07,0.4,1.52c-0.03,0.01-0.07,0.01-0.1,0.01
				c-1.45,0.08-4.11-2.93-5.16-4.92c1.16-1.6,4.3-4.3,6.47-5.65c0,0-0.03-0.96-0.86-1.67c1.14-0.8,2.16-1.35,2.71-1.39
				c1.83-0.13,9.73,5.24,9.73,5.24l26.11-1.41l5.77-0.31l0.18-0.57l0.18-0.52l0.17-0.53l1.17-3.49L249.29,226.52z"/>
			<g>
				<linearGradient id="SVGID_5_" gradientUnits="userSpaceOnUse" x1="227.2322" y1="214.8244" x2="259.796" y2="245.3315">
					<stop  offset="0" style="stop-color:#60E99C"/>
					<stop  offset="1" style="stop-color:#4CB08A"/>
				</linearGradient>
				<path class="st20" d="M232.95,257.53c0,0-2.33-35.31,0.96-47.63c3.21-12,13.68-16.79,19.52-9.12
					c5.84,7.66,3.53,20.03,4.01,30.11c0.91,18.8,5.29,24.64,5.47,28.1h-29.97V257.53z"/>
				<polygon class="st3" points="255.13,212.96 250.87,231.87 233.83,229.28 238.46,210.52 				"/>
			</g>
			<path class="st18" d="M249.29,228.75c0,0-0.18,0.5-0.5,1.31c-0.06,0.17-0.14,0.33-0.21,0.53c-0.06,0.17-0.14,0.33-0.21,0.52
				c-1.38,3.4-4.06,9.39-6.14,10.42c-0.95,0.47-5.49,0.54-11.24,0.42h-0.01c-11.92-0.28-28.88-1.38-28.88-1.38s-0.6,0.1-1.52,0.24
				c0.01-0.14,0.03-0.28,0.03-0.42c0-0.64-0.2-1.26-0.54-1.74c-0.25-0.38-0.59-0.68-0.98-0.91v-0.01c-0.35-0.18-3.82-2.16-3.82-2.16
				v0.01c-0.4-0.2-0.85-0.31-1.32-0.31c-1.72,0-3.1,1.39-3.1,3.11c0,0.56,0.14,1.07,0.4,1.52c0.22,0.39,0.53,0.74,0.91,1l0.01,0.01
				c0.14,0.1,0.28,0.17,0.43,0.25l1.17,0.66c-0.18,0.03-0.36,0.04-0.53,0.07c-0.93,0.13-1.7,0.22-2.09,0.25
				c-1.83,0.13-5.61-4.74-5.61-6.21c0-0.22,0.17-0.54,0.45-0.95c1.16-1.6,4.3-4.3,6.47-5.65c0.78-0.49,1.44-0.79,1.84-0.82
				c1.83-0.13,9.73,5.23,9.73,5.23l26.21-1.39h0.01l5.66-0.31l0.89-2.71l0.18-0.52l0.17-0.53l0.46-1.37l10.85,1.7L249.29,228.75z"/>
			<linearGradient id="SVGID_6_" gradientUnits="userSpaceOnUse" x1="232.069" y1="208.2492" x2="265.192" y2="239.2802">
				<stop  offset="0" style="stop-color:#60E99C"/>
				<stop  offset="1" style="stop-color:#4CB08A"/>
			</linearGradient>
			<polygon class="st21" points="238.46,209.9 234.99,228.51 250.14,230.82 255.13,212.33 			"/>
			<polygon class="st22" points="233.92,205.25 233.92,205.26 233.91,205.25 			"/>
		</g>
	</g>
</g>
</svg>
