<?xml version="1.0" encoding="utf-8"?>
<!-- Generator: Adobe Illustrator 25.0.0, SVG Export Plug-In . SVG Version: 6.00 Build 0)  -->
<svg version="1.1" id="Layer_1" xmlns="http://www.w3.org/2000/svg" xmlns:xlink="http://www.w3.org/1999/xlink" x="0px" y="0px"
	 viewBox="0 0 450 450" style="enable-background:new 0 0 450 450;" xml:space="preserve">
<style type="text/css">
	.st0{fill:url(#SVGID_1_);}
	.st1{fill:#E5E5E5;}
	.st2{fill:url(#SVGID_2_);}
	.st3{fill:url(#SVGID_3_);}
	.st4{fill:url(#SVGID_4_);}
	.st5{fill:#A86725;}
	.st6{fill:#D79641;}
	.st7{fill:#E7B160;}
	.st8{fill:#B56B2B;}
	.st9{fill:#ECC180;}
	.st10{fill:#B98551;}
	.st11{fill:#FCFCFC;}
	.st12{fill:#56CD93;}
	.st13{fill:#F5F5F5;}
	.st14{fill:#60E99C;}
	.st15{fill:#4014C5;}
	.st16{fill:#BFBFBF;}
	.st17{fill:#32965D;}
	.st18{fill:#3AA06A;}
	.st19{fill:#C48955;}
	.st20{fill:#96571B;}
	.st21{fill:#F2F2F2;}
	.st22{fill:#CF3F0A;}
</style>
<g>
	<g>
		<g>
			<radialGradient id="SVGID_1_" cx="141.7934" cy="221.1269" r="11.1752" gradientUnits="userSpaceOnUse">
				<stop  offset="0" style="stop-color:#56CD93"/>
				<stop  offset="1" style="stop-color:#60E99C"/>
			</radialGradient>
			<path class="st0" d="M150.86,221.37c0-0.07,0.01-0.14,0.01-0.2c0-2.16-1.98-3.92-4.42-3.92c-0.34,0-0.67,0.04-0.99,0.1
				c-0.17-2.14-2.08-3.82-4.41-3.82c-2.44,0-4.43,1.85-4.43,4.13c0,0.19,0.02,0.37,0.04,0.55c-0.13-0.01-0.26-0.02-0.39-0.02
				c-2.45,0-4.43,1.76-4.43,3.94c0,0.11,0.01,0.21,0.02,0.31c-0.01,0-0.01,0-0.02,0c-2.02,0-3.77,0.73-3.9,3
				c-0.05,0.87,0.27,2.22,2.14,2.98c1.03,0.42,3.27,0.3,9.18,0.3c7.23,0,13.75,0.02,13.75,0.02c1.66-0.29,2.48-1.66,2.62-2.95
				C155.9,223.27,153.58,221.3,150.86,221.37z"/>
			<path class="st1" d="M140.4,223.2c0.01-0.09,0.02-0.19,0.02-0.28c0-3.08-2.82-5.58-6.29-5.58c-0.49,0-0.96,0.05-1.42,0.15
				c-0.24-3.04-2.95-5.44-6.27-5.44c-3.48,0-6.3,2.63-6.3,5.87c0,0.26,0.03,0.53,0.06,0.78c-0.19-0.02-0.37-0.03-0.56-0.03
				c-3.48,0-6.3,2.51-6.3,5.6c0,0.15,0.02,0.3,0.03,0.44c-0.01,0-0.02,0-0.03,0c-2.87,0-5.37,1.04-5.55,4.27
				c-0.07,1.23,0.38,3.16,3.04,4.24c1.47,0.59,4.66,0.42,13.05,0.42c10.29,0,19.56,0.02,19.56,0.02c2.35-0.42,3.53-2.35,3.72-4.19
				C147.57,225.91,144.27,223.11,140.4,223.2z"/>
		</g>
	</g>
	<g>
		<g>
			<radialGradient id="SVGID_2_" cx="164.8975" cy="124.4255" r="13.1588" gradientUnits="userSpaceOnUse">
				<stop  offset="0" style="stop-color:#56CD93"/>
				<stop  offset="1" style="stop-color:#60E99C"/>
			</radialGradient>
			<path class="st2" d="M175.58,124.71c0-0.08,0.01-0.16,0.01-0.24c0-2.55-2.33-4.61-5.21-4.61c-0.41,0-0.79,0.04-1.17,0.12
				c-0.2-2.52-2.45-4.5-5.19-4.5c-2.88,0-5.21,2.18-5.21,4.86c0,0.22,0.02,0.43,0.05,0.64c-0.15-0.01-0.3-0.02-0.46-0.02
				c-2.88,0-5.21,2.08-5.21,4.64c0,0.13,0.01,0.25,0.02,0.37c-0.01,0-0.01,0-0.02,0c-2.38,0-4.44,0.86-4.59,3.53
				c-0.06,1.02,0.32,2.62,2.51,3.51c1.22,0.49,3.86,0.35,10.81,0.35c8.52,0,16.19,0.02,16.19,0.02c1.95-0.35,2.92-1.95,3.08-3.47
				C181.5,126.95,178.77,124.63,175.58,124.71z"/>
			<path class="st1" d="M163.26,126.87c0.01-0.11,0.02-0.22,0.02-0.33c0-3.63-3.32-6.57-7.41-6.57c-0.58,0-1.13,0.06-1.67,0.17
				c-0.28-3.58-3.48-6.4-7.38-6.4c-4.09,0-7.41,3.1-7.41,6.92c0,0.31,0.03,0.62,0.08,0.92c-0.22-0.02-0.43-0.03-0.66-0.03
				c-4.09,0-7.41,2.95-7.41,6.6c0,0.18,0.02,0.35,0.03,0.52c-0.01,0-0.02,0-0.03,0c-3.38,0-6.33,1.22-6.53,5.03
				c-0.08,1.45,0.45,3.73,3.58,4.99c1.73,0.7,5.48,0.5,15.37,0.5c12.12,0,23.04,0.02,23.04,0.02c2.77-0.49,4.16-2.77,4.38-4.93
				C171.7,130.05,167.81,126.76,163.26,126.87z"/>
		</g>
	</g>
	<g>
		<g>
			<radialGradient id="SVGID_3_" cx="328.4674" cy="126.8463" r="11.0737" gradientUnits="userSpaceOnUse">
				<stop  offset="0" style="stop-color:#56CD93"/>
				<stop  offset="1" style="stop-color:#60E99C"/>
			</radialGradient>
			<path class="st3" d="M337.45,127.08c0-0.07,0.01-0.13,0.01-0.2c0-2.14-1.96-3.88-4.38-3.88c-0.34,0-0.67,0.04-0.99,0.1
				c-0.17-2.12-2.06-3.79-4.37-3.79c-2.42,0-4.39,1.83-4.39,4.09c0,0.18,0.02,0.36,0.04,0.54c-0.13-0.01-0.26-0.02-0.39-0.02
				c-2.42,0-4.39,1.75-4.39,3.9c0,0.11,0.01,0.21,0.02,0.31c-0.01,0-0.01,0-0.02,0c-2,0-3.74,0.72-3.87,2.97
				c-0.05,0.86,0.27,2.2,2.11,2.95c1.02,0.41,3.25,0.29,9.1,0.29c7.17,0,13.63,0.02,13.63,0.02c1.64-0.29,2.46-1.64,2.6-2.92
				C342.44,128.97,340.14,127.02,337.45,127.08z"/>
			<path class="st1" d="M327.09,128.9c0.01-0.09,0.02-0.19,0.02-0.28c0-3.05-2.79-5.53-6.23-5.53c-0.49,0-0.95,0.05-1.4,0.14
				c-0.24-3.01-2.93-5.39-6.21-5.39c-3.45,0-6.24,2.61-6.24,5.82c0,0.26,0.03,0.52,0.06,0.77c-0.18-0.02-0.37-0.03-0.55-0.03
				c-3.45,0-6.24,2.49-6.24,5.55c0,0.15,0.02,0.29,0.03,0.44c-0.01,0-0.02,0-0.03,0c-2.85,0-5.32,1.03-5.5,4.23
				c-0.07,1.22,0.38,3.13,3.01,4.2c1.45,0.59,4.62,0.42,12.93,0.42c10.2,0,19.39,0.02,19.39,0.02c2.33-0.41,3.5-2.33,3.69-4.15
				C334.19,131.58,330.92,128.81,327.09,128.9z"/>
		</g>
	</g>
	<g>
		<g>
			<radialGradient id="SVGID_4_" cx="317.162" cy="253.1983" r="13.5206" gradientUnits="userSpaceOnUse">
				<stop  offset="0" style="stop-color:#56CD93"/>
				<stop  offset="1" style="stop-color:#60E99C"/>
			</radialGradient>
			<path class="st4" d="M328.14,253.49c0-0.08,0.01-0.16,0.01-0.24c0-2.62-2.4-4.74-5.35-4.74c-0.42,0-0.81,0.04-1.2,0.12
				c-0.21-2.59-2.51-4.62-5.33-4.62c-2.96,0-5.35,2.24-5.35,5c0,0.22,0.02,0.44,0.05,0.66c-0.16-0.01-0.31-0.02-0.47-0.02
				c-2.96,0-5.36,2.13-5.36,4.76c0,0.13,0.01,0.25,0.02,0.38c-0.01,0-0.01,0-0.02,0c-2.45,0-4.57,0.88-4.72,3.63
				c-0.06,1.05,0.33,2.69,2.58,3.61c1.25,0.5,3.96,0.36,11.11,0.36c8.75,0,16.64,0.02,16.64,0.02c2-0.36,3-2.01,3.17-3.57
				C334.22,255.79,331.42,253.41,328.14,253.49z"/>
			<path class="st1" d="M315.48,255.71c0.01-0.12,0.02-0.23,0.02-0.34c0-3.73-3.41-6.75-7.61-6.75c-0.59,0-1.16,0.06-1.71,0.18
				c-0.29-3.68-3.57-6.58-7.59-6.58c-4.21,0-7.62,3.18-7.62,7.11c0,0.32,0.03,0.64,0.08,0.95c-0.23-0.02-0.45-0.03-0.67-0.03
				c-4.21,0-7.62,3.04-7.62,6.78c0,0.18,0.02,0.36,0.03,0.54c-0.01,0-0.02,0-0.03,0c-3.48,0-6.5,1.25-6.71,5.16
				c-0.08,1.49,0.47,3.83,3.67,5.13c1.78,0.72,5.64,0.51,15.79,0.51c12.45,0,23.67,0.03,23.67,0.03c2.85-0.5,4.27-2.85,4.51-5.07
				C324.15,258.98,320.16,255.59,315.48,255.71z"/>
		</g>
	</g>
	<polygon class="st5" points="275.87,344.67 227.12,356.84 232.79,297.67 281.27,288.4 	"/>
	<polygon class="st6" points="162.55,341.9 227.12,356.84 232.79,297.67 167.95,285.62 	"/>
	<polygon class="st7" points="167.95,285.62 234.64,278.32 281.27,288.4 232.79,297.67 	"/>
	<g>
		<path class="st8" d="M223.88,349.88c-0.56-0.96-1.14-1.92-1.7-2.88l-1.71-2.88l-3.44-5.73l-1.74-2.86l-1.74-2.85l-1.76-2.85
			l-1.76-2.85l-3.53-5.68l-0.58-0.92l-1.43,1.13l0.49,0.76l3.63,5.62l1.83,2.8l1.83,2.8l1.84,2.8l1.85,2.79l3.72,5.56l1.87,2.77
			c0.63,0.92,1.25,1.85,1.89,2.77l1.89,2.76c0.64,0.91,1.27,1.83,1.92,2.74c-0.55-0.97-1.11-1.94-1.67-2.9L223.88,349.88z"/>
		<path class="st8" d="M188.98,317.69l-2.23,1.99l-2.23,1.99l-4.44,4l-2.22,2.01c-0.74,0.67-1.47,1.35-2.2,2.02l-2.2,2.02
			c-0.74,0.67-1.47,1.34-2.2,2.02l-2.19,2.03c-0.73,0.68-1.46,1.36-2.18,2.04l-2.17,2.05c-0.72,0.69-1.45,1.37-2.16,2.06
			c0.79-0.62,1.56-1.24,2.34-1.86l2.32-1.88c0.77-0.63,1.55-1.26,2.32-1.89l2.32-1.89c0.77-0.63,1.53-1.27,2.3-1.9l2.3-1.91
			c0.77-0.64,1.53-1.27,2.3-1.91l2.29-1.92l4.56-3.86l2.28-1.94l2.27-1.94l0.43-0.37c-0.34-0.48-0.68-0.96-1.02-1.44L188.98,317.69z
			"/>
		<path class="st8" d="M206.51,319.92l2.21-1.75l2.21-1.75l4.4-3.52l2.19-1.77c0.73-0.59,1.46-1.18,2.19-1.78l2.18-1.78
			c0.73-0.6,1.46-1.19,2.18-1.79l2.17-1.8c0.73-0.6,1.45-1.2,2.17-1.8l2.16-1.81c0.71-0.61,1.44-1.22,2.14-1.83
			c-0.77,0.53-1.54,1.08-2.31,1.62l-2.3,1.63c-0.76,0.55-1.53,1.1-2.29,1.65l-2.28,1.65c-0.77,0.55-1.52,1.11-2.27,1.66l-2.27,1.67
			c-0.76,0.56-1.52,1.11-2.27,1.67l-2.26,1.68l-4.51,3.38l-2.25,1.7l-2.25,1.7l-0.47,0.35l-1.47,1.11l-0.31,0.24l-2.24,1.71
			l-2.23,1.71l-1.46,1.13l-1.26-1.75l-1.82-2.53c-0.74-1.03-1.48-2.05-2.22-3.07c-0.36-0.48-0.71-0.97-1.05-1.45
			c-0.13-0.18-0.26-0.35-0.38-0.53l-3.68-5.03l-1.85-2.51l-1.86-2.5l-1.86-2.5l-1.87-2.49l-3.77-4.97l-1.9-2.47
			c-0.63-0.82-1.26-1.65-1.9-2.47l-1.92-2.46c-0.65-0.82-1.29-1.63-1.94-2.44c0.56,0.88,1.13,1.74,1.7,2.62l1.72,2.6
			c0.57,0.87,1.15,1.73,1.74,2.59l1.74,2.59l3.51,5.16l1.77,2.57l1.77,2.56l1.78,2.56l1.79,2.56l3.59,5.1
			c0.16,0.23,0.33,0.46,0.49,0.68c0.34,0.48,0.68,0.96,1.02,1.44c0.7,0.99,1.4,1.98,2.11,2.96l1.82,2.53l1.82,2.53l0.57,0.79
			l0.76-0.59l2.23-1.73l2.22-1.74l2.21-1.73l0.19-0.15l1.43-1.13L206.51,319.92z"/>
	</g>
	<polygon class="st9" points="189.01,283.31 248.06,294.75 260.58,292.35 205.43,281.51 	"/>
	<polygon class="st10" points="260.58,292.35 248.06,294.75 247.28,302.87 259.82,300.26 	"/>
	<polygon class="st10" points="258.58,341.27 246.01,344.11 245.23,352.32 257.82,349.17 	"/>
	<path class="st8" d="M223.99,286.54c0,0,0.04-0.16,0.11-0.45c0.07-0.29,0.16-0.72,0.27-1.27c0.11-0.55,0.22-1.21,0.32-1.98
		c0.1-0.76,0.18-1.63,0.22-2.58c0.03-0.94,0.03-1.96-0.08-3.03c-0.01-0.13-0.03-0.27-0.04-0.4c-0.02-0.13-0.03-0.27-0.05-0.41
		c-0.04-0.27-0.09-0.54-0.15-0.81c-0.11-0.55-0.25-1.1-0.43-1.64l-0.04-0.1l-0.02-0.05l-0.01-0.03c0.02,0.05,0,0.01,0,0.01
		l-0.01-0.01L224,273.6l-0.09-0.21l-0.09-0.17l-0.09-0.17l-0.11-0.17l-0.11-0.17l-0.13-0.16c-0.35-0.42-0.78-0.77-1.26-1.03
		c-0.97-0.52-2.17-0.64-3.23-0.27l-0.42,0.16c-0.11,0.06-0.22,0.12-0.34,0.18c-0.11,0.08-0.23,0.15-0.35,0.23
		c-0.11,0.09-0.22,0.17-0.32,0.26c-0.42,0.37-0.75,0.82-0.98,1.32c-0.23,0.5-0.37,1.04-0.39,1.58l-0.01,0.2l0.01,0.2l0.01,0.2
		l0.03,0.2l0.03,0.2l0.05,0.2l0.05,0.19l0.01,0.01c0,0,0,0.02,0,0l0.01,0.03l0.02,0.05l0.03,0.11c0.05,0.14,0.1,0.29,0.15,0.42
		c0.05,0.13,0.1,0.26,0.15,0.39c0.05,0.13,0.11,0.26,0.16,0.39c0.06,0.13,0.12,0.26,0.18,0.38c0.24,0.5,0.5,0.98,0.78,1.44
		c0.55,0.92,1.16,1.74,1.75,2.47c0.6,0.73,1.18,1.38,1.72,1.93c0.54,0.55,1.03,1.02,1.44,1.39c0.41,0.37,0.75,0.66,0.97,0.85
		C223.86,286.44,223.99,286.54,223.99,286.54z M223.99,286.54c0,0-0.14-0.08-0.4-0.24c-0.25-0.16-0.63-0.4-1.08-0.72
		c-0.45-0.33-1-0.74-1.6-1.25c-0.6-0.5-1.25-1.1-1.92-1.81c-0.66-0.71-1.35-1.52-1.98-2.44c-0.32-0.47-0.63-0.96-0.9-1.48
		c-0.15-0.26-0.27-0.53-0.4-0.81c-0.06-0.14-0.13-0.29-0.19-0.43c-0.06-0.14-0.1-0.28-0.16-0.42l-0.04-0.1l-0.02-0.05l-0.01-0.03
		l-0.01-0.04l-0.07-0.24l-0.07-0.24l-0.05-0.25l-0.04-0.25l-0.02-0.25l-0.02-0.26c0-0.08,0.01-0.17,0.01-0.26
		c0.01-0.69,0.16-1.38,0.45-2.03c0.29-0.64,0.71-1.23,1.24-1.71c0.13-0.12,0.28-0.23,0.42-0.34c0.14-0.1,0.3-0.2,0.45-0.3
		c0.17-0.09,0.34-0.17,0.51-0.26l0.47-0.19c0.68-0.23,1.41-0.31,2.12-0.24c0.71,0.06,1.41,0.29,2.02,0.63
		c0.62,0.34,1.15,0.81,1.58,1.35c0.05,0.07,0.1,0.13,0.15,0.2l0.14,0.22l0.14,0.22l0.12,0.24l0.12,0.24l0.08,0.21l0.08,0.21
		l0.02,0.05l0.01,0.03l0.01,0.05l0.03,0.11c0.18,0.6,0.31,1.19,0.4,1.78c0.09,0.59,0.15,1.17,0.17,1.73
		c0.05,1.12-0.01,2.18-0.12,3.15c-0.12,0.96-0.28,1.84-0.46,2.6c-0.17,0.76-0.36,1.42-0.53,1.96c-0.17,0.53-0.33,0.95-0.43,1.23
		C224.05,286.4,223.99,286.54,223.99,286.54z"/>
	<path class="st8" d="M224.51,287.17c0,0-0.04-0.15-0.11-0.45c-0.07-0.29-0.16-0.72-0.25-1.27c-0.09-0.55-0.19-1.23-0.25-2.01
		c-0.07-0.78-0.11-1.67-0.08-2.64c0.03-0.97,0.11-2.03,0.32-3.13c0.1-0.55,0.24-1.12,0.41-1.69c0.17-0.57,0.38-1.14,0.64-1.71
		l0.05-0.1l0.03-0.05l0.01-0.03l0.03-0.05l0.1-0.2l0.11-0.2l0.15-0.22l0.15-0.22c0.06-0.07,0.11-0.13,0.17-0.19l0.16-0.2
		c0.06-0.06,0.12-0.12,0.19-0.18c0.49-0.48,1.09-0.86,1.75-1.11c0.66-0.25,1.37-0.37,2.09-0.34c0.71,0.03,1.42,0.22,2.07,0.54
		l0.44,0.25c0.15,0.11,0.31,0.22,0.46,0.33c0.13,0.12,0.27,0.23,0.4,0.36c0.12,0.13,0.25,0.26,0.37,0.4
		c0.46,0.55,0.79,1.19,0.98,1.87c0.19,0.68,0.25,1.39,0.16,2.07c-0.01,0.09-0.02,0.17-0.03,0.25l-0.06,0.25l-0.06,0.25l-0.08,0.24
		l-0.08,0.24l-0.1,0.23l-0.1,0.23l-0.02,0.04l-0.01,0.02l-0.03,0.05l-0.06,0.1c-0.07,0.13-0.14,0.26-0.22,0.39
		c-0.08,0.14-0.16,0.27-0.24,0.4c-0.17,0.26-0.33,0.51-0.51,0.74c-0.35,0.48-0.72,0.93-1.1,1.34c-0.76,0.83-1.55,1.53-2.31,2.14
		c-0.76,0.6-1.49,1.1-2.16,1.52c-0.66,0.42-1.26,0.75-1.76,1c-0.5,0.26-0.9,0.44-1.17,0.56
		C224.66,287.12,224.51,287.17,224.51,287.17z M224.51,287.17c0,0,0.14-0.08,0.4-0.24c0.26-0.16,0.62-0.39,1.09-0.7
		c0.46-0.31,1.01-0.71,1.62-1.17c0.62-0.47,1.28-1.03,1.98-1.66c0.69-0.64,1.41-1.37,2.08-2.2c0.17-0.21,0.33-0.42,0.5-0.64
		c0.16-0.22,0.33-0.44,0.48-0.68c0.08-0.11,0.15-0.23,0.23-0.35c0.07-0.12,0.15-0.24,0.22-0.36c0.07-0.12,0.14-0.24,0.2-0.36
		c0.07-0.12,0.14-0.26,0.2-0.39l0.05-0.1l0.02-0.05l0.02-0.03c-0.01,0.02,0,0,0,0l0.01-0.01l0.08-0.18l0.08-0.19l0.06-0.19
		l0.06-0.19l0.04-0.2l0.04-0.2l0.02-0.2c0.05-0.54,0-1.09-0.16-1.62c-0.16-0.53-0.43-1.02-0.78-1.45c-0.09-0.11-0.19-0.2-0.29-0.31
		c-0.1-0.1-0.21-0.18-0.31-0.27c-0.1-0.08-0.21-0.15-0.32-0.23l-0.39-0.22c-1-0.51-2.2-0.57-3.23-0.19c-0.52,0.19-1,0.48-1.39,0.84
		l-0.15,0.14l-0.14,0.15l-0.13,0.15l-0.11,0.15l-0.12,0.15l-0.11,0.19l-0.12,0.19l-0.01,0.01c0-0.01-0.02,0.03,0.01-0.01l-0.01,0.02
		l-0.02,0.05l-0.05,0.1c-0.26,0.51-0.48,1.04-0.67,1.56c-0.1,0.26-0.18,0.53-0.26,0.79c-0.04,0.13-0.07,0.26-0.11,0.39
		c-0.04,0.13-0.08,0.26-0.11,0.39c-0.26,1.04-0.41,2.05-0.51,2.98c-0.09,0.94-0.14,1.81-0.15,2.58c-0.01,0.77,0.01,1.45,0.04,2
		c0.03,0.56,0.06,0.99,0.09,1.29C224.49,287.01,224.51,287.17,224.51,287.17z"/>
	<path class="st11" d="M183.14,167.84c-1.73,5.74-3.04,11.79-3.88,18.09l0,0C180.1,179.63,181.41,173.58,183.14,167.84
		L183.14,167.84z"/>
	<g>
		<path class="st12" d="M170.57,119.22c-14.17,14.06-23.71,32.91-25.82,54.27l29.76,2.85c1.39-14.15,4.92-27.3,10.03-38.77
			C178.58,132.37,173.8,126.15,170.57,119.22z"/>
		<path class="st12" d="M291.59,114.04c-1.71,4.95-4.2,9.62-7.32,13.89c7.72,16.46,11.36,37.43,9.27,59.82l29.76,2.85
			C326.09,160.37,313.35,132.23,291.59,114.04z"/>
		<path class="st13" d="M256.7,148.88c0.07,10.85-0.45,22.75-1.64,35.19l38.47,3.69c2.1-22.39-1.55-43.36-9.27-59.82
			C277.62,137.02,268.05,144.34,256.7,148.88z"/>
		<path class="st13" d="M184.54,137.57c-5.11,11.47-8.64,24.63-10.03,38.77l38.47,3.68c0.92-9.55,2.16-18.71,3.65-27.26
			C204.24,150.5,193.16,145.11,184.54,137.57z"/>
		<path class="st11" d="M184.54,137.57c-5.11,11.47-8.64,24.63-10.03,38.77l0,0C175.89,162.2,179.42,149.05,184.54,137.57
			C184.54,137.57,184.54,137.57,184.54,137.57z"/>
		<path class="st12" d="M230.74,153.96c-4.85,0.06-9.57-0.36-14.12-1.19c-1.49,8.55-2.73,17.71-3.65,27.26l42.09,4.03
			c1.19-12.44,1.71-24.34,1.64-35.19C248.79,152.04,240,153.85,230.74,153.96z"/>
		<path class="st14" d="M184.54,137.57c12.55-28.17,34.65-46.23,57.96-43.99c-27.71-2.65-53.67,7.52-71.93,25.64
			C173.8,126.15,178.58,132.37,184.54,137.57z"/>
		<path class="st14" d="M242.5,93.58c17.78,1.71,32.63,14.87,41.77,34.36c3.13-4.28,5.61-8.94,7.32-13.89
			C278.15,102.82,261.28,95.38,242.5,93.58L242.5,93.58z"/>
		<path class="st11" d="M242.5,93.58L242.5,93.58c8.66,0.83,13.99,23.55,14.21,55.3c11.35-4.54,20.92-11.85,27.56-20.94
			C275.13,108.45,260.28,95.28,242.5,93.58z"/>
		<path class="st11" d="M242.5,93.58c-23.31-2.23-45.41,15.82-57.96,43.99c8.62,7.53,19.7,12.92,32.09,15.19
			C222.76,117.56,233.15,92.68,242.5,93.58z"/>
		<polygon class="st15" points="242.5,93.58 242.49,93.58 242.5,93.58 		"/>
		<path class="st15" d="M242.5,93.58L242.5,93.58C242.49,93.58,242.49,93.58,242.5,93.58c-23.31-2.23-45.41,15.82-57.96,43.99
			c0,0,0,0,0,0C197.09,109.4,219.18,91.35,242.5,93.58z"/>
		<path class="st14" d="M242.5,93.58L242.5,93.58c-9.35-0.89-19.73,23.98-25.87,59.19c4.55,0.83,9.27,1.25,14.12,1.19
			c9.26-0.1,18.04-1.92,25.96-5.08C256.49,117.13,251.16,94.41,242.5,93.58z"/>
	</g>
	<path class="st16" d="M155.83,169.15c-6.7,0.92-10.66,2.32-11.05,4.18c2.95-0.11,6.22-0.16,9.78-0.17
		C154.95,171.8,155.37,170.47,155.83,169.15z"/>
	<path class="st16" d="M323.19,189.9c-0.63-1.76-4.16-3.7-9.96-5.67c0.18,1.26,0.33,2.52,0.46,3.79
		C317.37,192.8,320.27,189.28,323.19,189.9z"/>
	<path class="st17" d="M181.52,173.83c0.49-2.03,1.03-4.03,1.62-5.99c-11.26-0.06-20.64,0.39-27.31,1.31
		c-0.46,1.32-0.88,2.66-1.27,4.01C162.47,178.16,172.04,181.39,181.52,173.83z"/>
	<path class="st17" d="M313.69,188.02c-0.12-1.27-0.27-2.54-0.46-3.79c-6.37-2.17-15.5-4.39-26.56-6.47
		c0.2,1.97,0.35,3.97,0.44,5.99C296.59,190.31,304.7,191.69,313.69,188.02z"/>
	<path class="st16" d="M287.11,183.75c-0.09-2.02-0.24-4.02-0.44-5.99c-9.8-1.84-21.12-3.58-33.4-5.08
		c-0.04,2.24-0.12,4.52-0.21,6.83C264.21,188.43,272.84,192.04,287.11,183.75z"/>
	<path class="st16" d="M216.9,169.2c-12.34-0.86-23.79-1.3-33.76-1.35c-0.59,1.96-1.13,3.96-1.62,5.99
		c6.88,9.42,21.34,9.9,34.28,2.17C216.15,173.69,216.52,171.42,216.9,169.2z"/>
	<path class="st17" d="M235.67,183.63c5.64,0.54,9.35,1.93,17.38-4.12c0.09-2.31,0.17-4.59,0.21-6.83
		c-5.86-0.72-11.93-1.38-18.16-1.98c-6.23-0.6-12.32-1.1-18.2-1.51c-0.39,2.23-0.75,4.5-1.1,6.81
		C222.07,182.32,228.61,182.95,235.67,183.63z"/>
	<path class="st18" d="M153.04,179.24c6.03,2.23,15.06,4.52,26.21,6.69c0.56-4.14,1.31-8.18,2.26-12.1
		c-10.12-0.46-19.22-0.69-26.96-0.67C153.98,175.15,153.47,177.18,153.04,179.24z"/>
	<path class="st18" d="M287.11,183.75c0.2,4.08,0.18,8.26-0.06,12.5c11.35-0.01,20.66-0.55,26.99-1.59
		c-0.02-2.24-0.15-4.45-0.36-6.65C305.94,186.6,296.99,185.15,287.11,183.75z"/>
	<path class="st1" d="M253.05,179.51c-0.21,5-0.55,10.17-1.02,15.45c12.89,0.88,24.78,1.3,35.02,1.3c0.24-4.24,0.26-8.42,0.06-12.5
		C276.67,182.27,265.2,180.84,253.05,179.51z"/>
	<path class="st1" d="M213.87,191.3c0.54-5.25,1.19-10.37,1.93-15.3c-12.27-0.97-23.82-1.7-34.28-2.17
		c-0.95,3.91-1.7,7.95-2.26,12.1C189.3,187.88,201.05,189.72,213.87,191.3z"/>
	<path class="st18" d="M236.46,177.81c-7.05-0.68-13.96-1.28-20.66-1.81c-0.74,4.93-1.39,10.05-1.93,15.3
		c6.13,0.76,12.51,1.46,19.06,2.09c6.54,0.63,12.94,1.15,19.1,1.57c0.47-5.28,0.8-10.45,1.02-15.45
		C247.65,178.92,242.11,178.35,236.46,177.81z"/>
	<g>
		<polygon class="st19" points="224.88,287.4 224.2,286.95 294.5,179.33 295.36,179.51 		"/>
		<polygon class="st8" points="224.85,287.47 224.27,286.88 321.9,190.6 322.69,191.05 		"/>
		<polygon class="st8" points="224.96,287.29 224.17,287.07 256.12,173.03 256.94,173.14 		"/>
	</g>
	<g>
		<polygon class="st19" points="224.18,287.33 175.71,167.88 176.63,167.87 224.94,287.02 		"/>
		<polygon class="st8" points="224.23,287.41 145.6,175.21 147.02,175.81 224.9,286.94 		"/>
		<polygon class="st8" points="224.15,287.21 214.31,169.02 215.15,169.08 224.97,287.14 		"/>
	</g>
	<polygon class="st8" points="195.24,349.46 194.43,349.28 199.85,291.55 250.41,281.73 252.38,282.15 201.7,291.89 	"/>
	<path class="st1" d="M153.04,179.24c0.43-2.06,0.93-4.09,1.52-6.08c-3.56,0.01-6.83,0.06-9.78,0.17c-0.02,0.05-0.03,0.11-0.03,0.17
		C144.58,175.25,147.57,177.22,153.04,179.24z"/>
	<path class="st1" d="M314.04,194.67c5.77-0.95,9.07-2.31,9.25-4.07c0.02-0.23-0.01-0.46-0.1-0.7c-2.92-0.62-6.09-1.25-9.51-1.88
		C313.9,190.22,314.02,192.44,314.04,194.67z"/>
	<g>
		<polygon class="st8" points="199.98,282.11 197.73,282.36 256.41,293.15 257.5,292.94 		"/>
		<polygon class="st20" points="256.41,293.15 251.07,350.86 251.92,350.65 257.5,292.94 		"/>
	</g>
	<path class="st21" d="M204.94,322.33c-0.39,4.11-4.05,7.13-8.16,6.73c-4.11-0.39-7.12-4.05-6.73-8.16c0.4-4.11,4.05-7.12,8.16-6.73
		C202.32,314.57,205.33,318.22,204.94,322.33z"/>
	<path class="st22" d="M196.74,329.52c-4.36-0.42-7.56-4.3-7.15-8.66c0.42-4.36,4.31-7.56,8.66-7.15c4.36,0.42,7.57,4.3,7.15,8.66
		C204.99,326.73,201.1,329.94,196.74,329.52z M198.2,314.3c-4.03-0.39-7.63,2.58-8.02,6.62c-0.39,4.04,2.58,7.64,6.62,8.02
		c4.04,0.39,7.64-2.58,8.02-6.62C205.2,318.28,202.23,314.68,198.2,314.3z"/>
	<path class="st22" d="M217.55,321.85c-2-0.19-2.96-0.77-3.9-1.34c-0.92-0.55-1.79-1.08-3.66-1.26c-1.87-0.18-2.82,0.17-3.83,0.54
		c-1.03,0.38-2.09,0.77-4.09,0.57c-2-0.19-2.97-0.78-3.9-1.34c-0.92-0.56-1.79-1.08-3.66-1.26c-0.16-0.02-0.28-0.16-0.26-0.32
		c0.02-0.16,0.16-0.28,0.32-0.26c2,0.19,2.97,0.77,3.9,1.34c0.92,0.56,1.78,1.08,3.65,1.26c1.87,0.18,2.82-0.17,3.83-0.54
		c1.03-0.38,2.09-0.77,4.09-0.57c2,0.19,2.97,0.77,3.9,1.34c0.92,0.56,1.79,1.08,3.65,1.26c0.16,0.02,0.28,0.16,0.27,0.32
		C217.86,321.75,217.71,321.87,217.55,321.85z"/>
	<path class="st22" d="M216.89,324.71c-2-0.19-2.97-0.78-3.9-1.34c-0.91-0.55-1.79-1.08-3.66-1.26c-1.87-0.18-2.82,0.17-3.83,0.54
		c-1.02,0.37-2.08,0.76-4.09,0.57c-2-0.19-2.97-0.78-3.9-1.34c-0.92-0.55-1.79-1.08-3.65-1.26c-0.16-0.02-0.28-0.16-0.26-0.32
		c0.01-0.16,0.16-0.28,0.32-0.26c2,0.19,2.97,0.78,3.9,1.34c0.92,0.55,1.79,1.08,3.65,1.26c1.87,0.18,2.82-0.17,3.83-0.54
		c1.02-0.38,2.08-0.76,4.09-0.57c2,0.19,2.96,0.78,3.9,1.34c0.92,0.56,1.79,1.08,3.66,1.26c0.16,0.02,0.27,0.16,0.26,0.32
		C217.19,324.61,217.05,324.72,216.89,324.71z"/>
	<path class="st22" d="M216.22,327.56c-2-0.19-2.97-0.77-3.9-1.34c-0.92-0.56-1.79-1.08-3.66-1.26c-1.86-0.18-2.82,0.17-3.82,0.54
		c-1.03,0.38-2.09,0.76-4.09,0.57c-2-0.19-2.97-0.77-3.91-1.34c-0.92-0.56-1.79-1.08-3.65-1.26c-0.16-0.02-0.28-0.16-0.27-0.32
		c0.02-0.16,0.16-0.28,0.32-0.26c2,0.19,2.97,0.77,3.9,1.34c0.92,0.55,1.79,1.08,3.65,1.26c1.87,0.18,2.82-0.17,3.83-0.54
		c1.02-0.38,2.09-0.77,4.09-0.58c2,0.19,2.97,0.77,3.9,1.34c0.92,0.55,1.79,1.08,3.66,1.26c0.16,0.02,0.28,0.16,0.27,0.32
		C216.53,327.46,216.38,327.58,216.22,327.56z"/>
</g>
</svg>
