<?xml version="1.0" encoding="utf-8"?>
<!-- Generator: Adobe Illustrator 25.0.0, SVG Export Plug-In . SVG Version: 6.00 Build 0)  -->
<svg version="1.1" id="Layer_1" xmlns="http://www.w3.org/2000/svg" xmlns:xlink="http://www.w3.org/1999/xlink" x="0px" y="0px"
	 viewBox="0 0 450 450" style="enable-background:new 0 0 450 450;" xml:space="preserve">
<style type="text/css">
	.st0{opacity:0.12;fill:url(#SVGID_1_);}
	.st1{fill:#60E99C;}
	.st2{fill:#4CB08A;}
	.st3{fill:none;stroke:#5E5ED7;stroke-miterlimit:10;}
	.st4{fill:none;stroke:#4545B6;stroke-miterlimit:10;}
	.st5{fill:#FCC1B1;}
	.st6{fill:#E5A393;}
	.st7{fill:#3B4369;}
	.st8{fill:#141930;}
	.st9{fill:#FCFCFC;}
	.st10{fill:#88D1FE;}
	.st11{fill:#E6E6E6;}
	.st12{fill:#A3EFC2;}
	.st13{fill:#04005A;}
	.st14{fill:#000038;}
</style>
<g>
	<linearGradient id="SVGID_1_" gradientUnits="userSpaceOnUse" x1="70.0695" y1="226.5605" x2="390.0113" y2="226.5605">
		<stop  offset="0" style="stop-color:#5BDB98"/>
		<stop  offset="1" style="stop-color:#60E99C"/>
	</linearGradient>
	<path class="st0" d="M193,383.21c0,0-13.34-32.27-62.93-43.85c-49.59-11.58-73.05-63.71-52.63-108.38
		c20.42-44.68,59.31-52.95,78.34-127.41C174.8,29.11,262.5,14.21,326.21,39.86s72.81,80.25,57.09,120.79
		c-15.72,40.54-49.64,71.98-33.92,119.97c15.72,47.99,19.03,114.17-28.96,134.03C272.43,434.5,219.48,426.23,193,383.21z"/>
	<g>
		<path class="st1" d="M65,181.37l-5.01,68.51c0,0,66.09,32.33,109.43,14.52l-0.53-58.87C168.89,205.53,116.04,232.3,65,181.37z"/>
		
			<ellipse transform="matrix(0.7887 -0.6148 0.6148 0.7887 -122.4484 120.1437)" class="st2" cx="113.55" cy="238.2" rx="17.68" ry="19.11"/>
		<g>
			<path class="st2" d="M79.01,226.94c-0.57-0.33-1.09-0.66-1.55-0.98c-0.46-0.32-0.84-0.67-1.15-1.05
				c-0.3-0.38-0.51-0.81-0.63-1.27c-0.12-0.47-0.11-1.01,0.01-1.63c0.19-0.95,0.65-1.7,1.37-2.23c0.72-0.53,1.65-0.81,2.79-0.83
				l0.34-1.7c0.13,0,0.33,0,0.61,0.01c0.27,0.01,0.55,0.05,0.83,0.1c0.55,0.11,0.96,0.29,1.23,0.54c0.27,0.25,0.34,0.69,0.22,1.3
				l-0.06,0.27c0.85,0.29,1.5,0.65,1.96,1.09c0.46,0.44,0.63,0.96,0.51,1.55c-0.07,0.36-0.22,0.66-0.44,0.89
				c-0.22,0.22-0.47,0.4-0.74,0.54c-0.27-0.26-0.65-0.51-1.14-0.76c-0.49-0.25-1.04-0.44-1.66-0.56c-0.63-0.13-1.11-0.13-1.44-0.02
				c-0.33,0.12-0.52,0.31-0.57,0.57c-0.04,0.21,0.01,0.4,0.17,0.57c0.16,0.17,0.4,0.35,0.75,0.53l1.04,0.58
				c1.23,0.69,2.14,1.43,2.72,2.22c0.58,0.79,0.75,1.75,0.53,2.87c-0.19,0.95-0.65,1.7-1.39,2.25c-0.74,0.54-1.71,0.82-2.92,0.83
				l-0.34,1.68c-0.13,0-0.34,0-0.61-0.01c-0.27-0.01-0.55-0.05-0.83-0.1c-0.55-0.11-0.95-0.29-1.23-0.54
				c-0.27-0.25-0.34-0.68-0.22-1.3l0.04-0.21c-0.49-0.16-0.93-0.34-1.32-0.55c-0.39-0.21-0.71-0.44-0.97-0.7
				c-0.26-0.26-0.45-0.53-0.57-0.83c-0.11-0.3-0.14-0.62-0.07-0.96c0.08-0.41,0.27-0.73,0.57-0.97c0.3-0.24,0.6-0.41,0.91-0.51
				c0.33,0.39,0.76,0.75,1.28,1.09c0.52,0.34,1.12,0.58,1.79,0.71c0.69,0.14,1.19,0.13,1.51-0.03c0.32-0.15,0.51-0.37,0.57-0.65
				c0.06-0.28-0.01-0.52-0.21-0.71s-0.48-0.4-0.86-0.62L79.01,226.94z"/>
		</g>
		<g>
			<path class="st2" d="M148.16,239.87c-0.61-0.26-1.17-0.51-1.67-0.77c-0.5-0.26-0.92-0.55-1.27-0.89
				c-0.35-0.34-0.61-0.73-0.79-1.18c-0.18-0.45-0.25-0.99-0.2-1.62c0.07-0.97,0.42-1.77,1.06-2.39c0.64-0.62,1.53-1.02,2.66-1.19
				l0.12-1.73c0.13-0.02,0.33-0.04,0.61-0.07c0.27-0.02,0.55-0.03,0.84-0.01c0.56,0.04,0.99,0.16,1.29,0.37
				c0.3,0.21,0.43,0.64,0.39,1.26l-0.02,0.28c0.88,0.17,1.57,0.45,2.08,0.83c0.51,0.38,0.75,0.87,0.71,1.47
				c-0.02,0.37-0.13,0.68-0.32,0.94c-0.19,0.25-0.41,0.46-0.67,0.63c-0.3-0.22-0.71-0.42-1.23-0.61c-0.52-0.19-1.09-0.3-1.72-0.34
				c-0.64-0.04-1.12,0.01-1.43,0.17c-0.31,0.16-0.48,0.37-0.49,0.64c-0.01,0.21,0.07,0.4,0.24,0.54c0.18,0.15,0.45,0.29,0.81,0.43
				l1.11,0.44c1.31,0.52,2.31,1.13,2.98,1.84c0.68,0.71,0.98,1.64,0.9,2.78c-0.07,0.97-0.43,1.77-1.09,2.41
				c-0.66,0.64-1.59,1.04-2.79,1.2l-0.11,1.71c-0.13,0.02-0.33,0.04-0.61,0.07c-0.27,0.03-0.55,0.03-0.84,0.01
				c-0.56-0.04-0.98-0.16-1.29-0.38c-0.3-0.21-0.43-0.63-0.39-1.26l0.01-0.21c-0.51-0.09-0.97-0.22-1.38-0.37
				c-0.41-0.16-0.76-0.35-1.06-0.57c-0.29-0.22-0.52-0.47-0.67-0.75c-0.15-0.28-0.22-0.6-0.2-0.94c0.03-0.41,0.17-0.76,0.43-1.03
				c0.26-0.28,0.54-0.48,0.84-0.62c0.38,0.34,0.85,0.64,1.41,0.91c0.56,0.27,1.19,0.42,1.87,0.47c0.7,0.05,1.2-0.03,1.5-0.22
				c0.3-0.19,0.46-0.43,0.48-0.72c0.02-0.28-0.08-0.51-0.3-0.67c-0.22-0.17-0.53-0.33-0.93-0.5L148.16,239.87z"/>
		</g>
		<path class="st3" d="M68.13,188.33l-4.34,59.29c0,0,59,28.38,101.04,15.31l-0.46-51.71C164.37,211.23,114.24,231.64,68.13,188.33z
			"/>
		<path class="st4" d="M123.54,251.02c-6.56,5.11-16.35,3.51-21.87-3.57c-5.52-7.08-4.68-16.97,1.87-22.08
			c6.56-5.11,16.35-3.51,21.87,3.57C130.94,236.02,130.1,245.91,123.54,251.02z"/>
	</g>
	<g>
		<path class="st1" d="M77.67,157.13l69.97,63.27c0,0,90.82-44.29,108.12-106.26l-64.2-49.13
			C191.57,65.01,175.93,144.85,77.67,157.13z"/>
		<ellipse class="st2" cx="180.21" cy="152.54" rx="26.24" ry="24.29"/>
		<g>
			<path class="st2" d="M138.86,180.43c-0.85,0.34-1.64,0.63-2.37,0.86c-0.73,0.23-1.44,0.35-2.1,0.35
				c-0.67,0.01-1.31-0.13-1.91-0.39c-0.61-0.27-1.19-0.73-1.76-1.38c-0.87-1.01-1.29-2.13-1.26-3.36c0.03-1.23,0.52-2.47,1.46-3.72
				l-1.56-1.81c0.11-0.14,0.28-0.36,0.53-0.65c0.24-0.29,0.52-0.56,0.81-0.81c0.58-0.5,1.12-0.79,1.62-0.87
				c0.5-0.08,1.03,0.21,1.6,0.86l0.25,0.29c1.02-0.68,1.97-1.08,2.84-1.2c0.87-0.12,1.57,0.13,2.11,0.75
				c0.33,0.39,0.53,0.79,0.59,1.22c0.06,0.43,0.04,0.85-0.04,1.26c-0.51,0.07-1.1,0.27-1.79,0.59c-0.68,0.32-1.36,0.76-2.01,1.32
				c-0.67,0.58-1.08,1.09-1.23,1.55c-0.15,0.46-0.11,0.82,0.14,1.11c0.19,0.22,0.45,0.32,0.76,0.3c0.32-0.02,0.72-0.14,1.21-0.36
				l1.51-0.64c1.78-0.76,3.35-1.11,4.69-1.07c1.35,0.05,2.53,0.66,3.56,1.85c0.87,1.01,1.29,2.15,1.26,3.4
				c-0.03,1.26-0.56,2.55-1.57,3.86l1.54,1.79c-0.11,0.14-0.28,0.36-0.53,0.65c-0.24,0.29-0.52,0.56-0.81,0.82
				c-0.58,0.5-1.12,0.79-1.62,0.87c-0.5,0.08-1.03-0.21-1.59-0.86l-0.19-0.22c-0.59,0.4-1.16,0.72-1.71,0.97
				c-0.56,0.24-1.08,0.4-1.58,0.47c-0.5,0.07-0.96,0.04-1.38-0.09c-0.42-0.13-0.79-0.37-1.09-0.73c-0.37-0.43-0.56-0.91-0.57-1.43
				c-0.01-0.52,0.06-0.99,0.22-1.41c0.7-0.03,1.45-0.19,2.26-0.47c0.81-0.28,1.57-0.73,2.28-1.34c0.73-0.63,1.15-1.18,1.25-1.66
				c0.11-0.48,0.03-0.87-0.23-1.16c-0.25-0.3-0.57-0.42-0.94-0.37c-0.37,0.05-0.84,0.18-1.4,0.41L138.86,180.43z"/>
		</g>
		<g>
			<path class="st2" d="M211.25,116.47c-0.8,0.45-1.54,0.83-2.24,1.16c-0.7,0.32-1.38,0.53-2.04,0.63
				c-0.66,0.09-1.31,0.05-1.95-0.14c-0.64-0.19-1.28-0.57-1.92-1.14c-1-0.89-1.56-1.95-1.69-3.17c-0.13-1.22,0.19-2.52,0.96-3.88
				l-1.78-1.59c0.09-0.16,0.23-0.4,0.44-0.71c0.21-0.32,0.44-0.62,0.7-0.91c0.51-0.57,1.01-0.93,1.49-1.08
				c0.49-0.15,1.05,0.07,1.7,0.65l0.29,0.26c0.93-0.8,1.81-1.32,2.65-1.56c0.84-0.23,1.57-0.08,2.19,0.47
				c0.38,0.34,0.63,0.72,0.74,1.14c0.11,0.42,0.15,0.83,0.12,1.26c-0.49,0.14-1.06,0.41-1.7,0.82c-0.64,0.4-1.24,0.93-1.82,1.57
				c-0.59,0.66-0.93,1.22-1.02,1.69c-0.09,0.47,0,0.83,0.28,1.08c0.22,0.2,0.48,0.26,0.79,0.2c0.31-0.07,0.69-0.24,1.15-0.51
				l1.41-0.83c1.67-0.98,3.18-1.54,4.51-1.67c1.34-0.13,2.6,0.33,3.77,1.37c1,0.89,1.56,1.96,1.69,3.21
				c0.13,1.25-0.22,2.6-1.06,4.03l1.76,1.57c-0.09,0.16-0.23,0.4-0.44,0.71c-0.2,0.32-0.44,0.62-0.7,0.92
				c-0.51,0.57-1.01,0.93-1.49,1.07c-0.48,0.15-1.05-0.07-1.69-0.64l-0.22-0.2c-0.53,0.47-1.05,0.87-1.57,1.18
				c-0.52,0.31-1.02,0.54-1.51,0.67c-0.49,0.13-0.95,0.16-1.38,0.09c-0.44-0.07-0.83-0.27-1.18-0.58c-0.42-0.38-0.68-0.83-0.75-1.34
				c-0.08-0.52-0.07-0.99,0.03-1.43c0.69-0.12,1.41-0.37,2.18-0.76c0.76-0.38,1.46-0.93,2.09-1.63c0.64-0.72,0.98-1.32,1.02-1.81
				c0.04-0.49-0.08-0.86-0.38-1.13c-0.29-0.26-0.62-0.34-0.98-0.25c-0.36,0.1-0.81,0.29-1.33,0.59L211.25,116.47z"/>
		</g>
		<path class="st3" d="M87.86,159.62l60.56,54.76c0,0,80.55-39.94,101.89-96.5l-56.4-43.16C193.91,74.72,173.7,146.25,87.86,159.62z
			"/>
		<ellipse class="st4" cx="180.21" cy="152.54" rx="22.33" ry="20.67"/>
	</g>
	<g>
		<path class="st5" d="M358.45,184.14c-2.11-8.13-5.72-8.43-5.72-8.43s31.91-41.85,31.31-50.58c-0.6-8.73-7.23-9.33-13.85-3.61
			c0,0-2.11-5.05-7.83-3.73c-5.72,1.32-33.43,22.09-33.43,22.09s-57.79,31.61-95.42,46.06c-37.57,14.43-41,16.85-41.01,16.86
			c-1.76,6.76-2.95,12.05-2.95,12.05s13.23,37.33,12.79,59.61c-0.44,22.28-14.9,108.99-16.1,111.4c0,0,10.54-1.2,21.07-6.02
			c0,0,14.45-60.21,26.49-66.24c12.04-6.02,69.25-31.31,92.13-51.18c22.88-19.87,28.9-23.48,19.87-43.96
			C345.81,218.46,362.07,194.98,358.45,184.14z"/>
		<path class="st6" d="M202.35,265.39c0,0,73.66,19.22,92.93,2.11c19.27-17.1,33.81-45.9,31.91-71.3
			c-1.89-25.4-3.06-45.18-3.06-45.18L202.35,265.39z"/>
		<path class="st7" d="M267.65,284.56l-91.18-26.77c-6.74-1.98-10.61-9.05-8.63-15.8l56.62-192.84c1.98-6.74,9.05-10.61,15.8-8.63
			l91.18,26.77c6.74,1.98,10.61,9.05,8.63,15.8l-56.62,192.84C281.47,282.68,274.4,286.54,267.65,284.56z"/>
		<path class="st8" d="M335.23,68.41l-3.69-1.08c6.69,1.96,10.52,8.98,8.56,15.67l-56.68,193.04c-1.96,6.69-8.98,10.52-15.67,8.56
			l3.69,1.08c6.69,1.96,13.7-1.87,15.67-8.56l56.68-193.04C345.75,77.39,341.92,70.38,335.23,68.41z"/>
		<path class="st9" d="M265.53,279.77l-84.68-24.86c-6.21-1.82-9.77-8.34-7.95-14.55l54.9-186.99c1.82-6.21,8.34-9.77,14.55-7.95
			l84.68,24.86c6.21,1.82,9.77,8.34,7.95,14.55l-54.9,186.99C278.26,278.03,271.75,281.59,265.53,279.77z"/>
		<path class="st10" d="M289.96,203.01l-88.75-26.06c-2.23-0.66-3.51-3-2.86-5.23l15.19-51.73c0.66-2.23,3-3.51,5.23-2.86
			l88.75,26.06c2.23,0.66,3.51,3,2.86,5.23l-15.19,51.73C294.53,202.39,292.19,203.67,289.96,203.01z"/>
		<path class="st11" d="M280.67,222.38l-82.13-24.11c-4.06-1.19-6.39-5.45-5.2-9.52l0,0c1.19-4.06,5.45-6.39,9.52-5.2l82.13,24.11
			c4.06,1.19,6.39,5.45,5.2,9.52v0C288.99,221.25,284.73,223.58,280.67,222.38z"/>
		<path class="st11" d="M305.92,136.38l-82.13-24.11c-4.06-1.19-6.39-5.45-5.2-9.52l0,0c1.19-4.06,5.45-6.39,9.52-5.2l82.13,24.11
			c4.06,1.19,6.39,5.45,5.2,9.52l0,0C314.24,135.24,309.98,137.57,305.92,136.38z"/>
		<path class="st11" d="M313.15,111.75l-51.81-15.21c-4.06-1.19-6.39-5.45-5.2-9.52l0,0c1.19-4.06,5.45-6.39,9.52-5.2l51.81,15.21
			c4.06,1.19,6.39,5.45,5.2,9.52l0,0C321.48,110.61,317.21,112.94,313.15,111.75z"/>
		<path class="st11" d="M274.7,242.73l-82.13-24.11c-4.06-1.19-6.39-5.45-5.2-9.52l0,0c1.19-4.06,5.45-6.39,9.52-5.2l82.13,24.11
			c4.06,1.19,6.39,5.45,5.2,9.52l0,0C283.02,241.59,278.76,243.92,274.7,242.73z"/>
		<path class="st11" d="M250.18,85.27c-1.85,6.32-8.48,9.93-14.79,8.08c-6.32-1.85-9.93-8.48-8.08-14.79
			c1.85-6.32,8.48-9.93,14.79-8.08C248.42,72.33,252.03,78.95,250.18,85.27z"/>
		<path class="st5" d="M104.95,355.14c0,0,18.06-71.65,22.88-87.91c4.82-16.26,38.54-70.45,45.16-86.11
			c6.62-15.66,14.45-34.92,22.28-33.72c7.83,1.2,9.03,21.68,4.21,33.12c-4.82,11.44-9.93,34.32-9.93,34.32s13.23,37.33,12.79,59.61
			c-0.44,22.28-14.9,108.99-16.1,111.4c-1.2,2.41-29.5,2.41-45.76,0C124.22,383.44,97.8,383.31,104.95,355.14z"/>
		<path class="st9" d="M276.59,179.14l-68.16-20.01c-1.04-0.31-1.64-1.4-1.33-2.44l0.56-1.91c0.31-1.04,1.4-1.64,2.44-1.33
			l68.16,20.01c1.04,0.31,1.64,1.4,1.33,2.44l-0.56,1.91C278.72,178.85,277.63,179.44,276.59,179.14z"/>
		<path class="st9" d="M224.81,172.26l-19.5-5.73c-0.56-0.16-0.88-0.75-0.72-1.32l1.07-3.64c0.16-0.56,0.75-0.88,1.32-0.72
			l19.5,5.73c0.56,0.16,0.88,0.75,0.72,1.32l-1.07,3.64C225.97,172.1,225.38,172.42,224.81,172.26z"/>
		<path class="st9" d="M235.14,140.18l-19.5-5.73c-0.56-0.16-0.88-0.75-0.72-1.32l2.46-8.37c0.16-0.56,0.75-0.88,1.32-0.72
			l19.5,5.73c0.56,0.16,0.88,0.75,0.72,1.32l-2.46,8.37C236.29,140.02,235.71,140.35,235.14,140.18z"/>
		<path class="st9" d="M250.01,179.65l-19.5-5.73c-0.56-0.16-0.88-0.75-0.72-1.32l1.07-3.64c0.16-0.56,0.75-0.88,1.32-0.72
			l19.5,5.73c0.56,0.16,0.88,0.75,0.72,1.32l-1.07,3.64C251.16,179.5,250.57,179.82,250.01,179.65z"/>
		<path class="st5" d="M332.99,173.03c0,0-35.77-7.53-49.98-6.92c-14.21,0.6-14.75,5.42-12.04,9.94
			c2.71,4.52,24.09,12.34,41.25,13.85l-3.31,12.64c0,0-9.63,2.11-24.09,6.62c-14.45,4.52-24.09,7.83-19.87,17.46
			c4.21,9.63,41.55-1.2,41.55-1.2s4.82-0.9,7.53,2.11c2.71,3.01,6.62,12.34,6.62,12.34s14.75-5.12,12.34-22.58
			C332.99,217.29,349.25,187.48,332.99,173.03z"/>
		<path class="st6" d="M312.22,189.89c0,0,10.54,3.7,13.62,7.53c3.09,3.84,4.37,7.53,4.37,7.53s-9.48-5.42-21.3-2.41L312.22,189.89z
			"/>
		<polygon class="st6" points="370.19,121.51 325.34,170 325.44,171.53 327,171.83 		"/>
		<path class="st6" d="M230.04,317.05c0,0-28.84,21.11-63.62,23.82c0,0,28.5,13.33,40.89,38.96
			C207.32,379.83,219.59,332.07,230.04,317.05z"/>
	</g>
	<g>
		<path class="st1" d="M171.77,50.39c1.07,4.2-9.01,10.4-22.53,13.85c-13.52,3.45-25.34,2.85-26.41-1.35
			c-1.07-4.2,9.01-10.4,22.53-13.85C158.88,45.59,170.7,46.19,171.77,50.39z"/>
		<path class="st2" d="M149.24,64.24c-13.52,3.45-25.34,2.85-26.41-1.35l1.57,6.13c1.07,4.2,12.9,4.8,26.41,1.35
			c13.52-3.45,23.6-9.65,22.53-13.85l-1.57-6.13C172.85,54.59,162.76,60.79,149.24,64.24z"/>
		<path class="st12" d="M164.9,52.15c0.77,3.02-6.48,7.48-16.2,9.96c-9.72,2.48-18.22,2.05-18.99-0.97
			c-0.77-3.02,6.48-7.48,16.2-9.96C155.62,48.69,164.13,49.13,164.9,52.15z"/>
		<path class="st2" d="M146.26,52.58c8.95-2.29,16.86-2.09,18.65,0.31c0.04-0.25,0.04-0.5-0.02-0.74
			c-0.77-3.02-9.27-3.45-18.99-0.97s-16.97,6.94-16.2,9.96c0.06,0.24,0.19,0.45,0.34,0.66C130.47,58.83,137.31,54.86,146.26,52.58z"
			/>
	</g>
	<g>
		
			<ellipse transform="matrix(0.2293 -0.9734 0.9734 0.2293 221.2831 348.8577)" class="st1" cx="330.93" cy="34.7" rx="7.85" ry="25.26"/>
		<path class="st2" d="M329.13,42.34c-13.58-3.2-23.78-9.21-22.79-13.43l-1.45,6.16c-0.99,4.22,9.21,10.23,22.79,13.43
			c13.58,3.2,25.39,2.37,26.38-1.85l1.45-6.16C354.52,44.71,342.71,45.53,329.13,42.34z"/>
		<path class="st12" d="M348.61,38.86c-0.71,3.03-9.21,3.63-18.97,1.33c-9.76-2.3-17.1-6.62-16.38-9.66
			c0.71-3.03,9.21-3.63,18.97-1.33C341.99,31.51,349.32,35.83,348.61,38.86z"/>
		<path class="st2" d="M331.89,30.61c8.99,2.12,15.91,5.95,16.39,8.91c0.15-0.21,0.27-0.43,0.33-0.67
			c0.71-3.03-6.62-7.36-16.38-9.66c-9.76-2.3-18.26-1.71-18.97,1.33c-0.06,0.24-0.05,0.49,0,0.74
			C315,28.84,322.9,28.49,331.89,30.61z"/>
	</g>
	<g>
		<path class="st1" d="M355.48,325.3c-0.99,4.22-12.81,5.04-26.38,1.85c-13.58-3.2-23.78-9.21-22.79-13.43
			c0.99-4.22,12.81-5.04,26.38-1.85S356.47,321.08,355.48,325.3z"/>
		<path class="st2" d="M329.1,327.15c-13.58-3.2-23.78-9.21-22.79-13.43l-1.45,6.16c-0.99,4.22,9.21,10.23,22.79,13.43
			c13.58,3.2,25.39,2.37,26.38-1.85l1.45-6.16C354.49,329.52,342.68,330.34,329.1,327.15z"/>
		<path class="st12" d="M348.57,323.67c-0.71,3.03-9.21,3.63-18.97,1.33c-9.76-2.3-17.1-6.62-16.38-9.66
			c0.71-3.03,9.21-3.63,18.97-1.33C341.95,316.32,349.29,320.64,348.57,323.67z"/>
		<path class="st2" d="M331.86,315.42c8.99,2.12,15.91,5.95,16.39,8.91c0.15-0.21,0.27-0.43,0.33-0.67
			c0.71-3.03-6.62-7.36-16.38-9.66c-9.76-2.3-18.26-1.71-18.97,1.33c-0.06,0.24-0.05,0.49,0,0.74
			C314.96,313.65,322.86,313.31,331.86,315.42z"/>
	</g>
	<g>
		<g>
			<path class="st2" d="M251.05,341.12c-0.14-0.03-0.27-0.06-0.41-0.11c-1.9-0.64-2.92-2.69-2.29-4.59
				c0.37-1.09,9.14-26.61,27.14-23.39c0.19,0.03,0.38,0.07,0.56,0.11c17.57,3.73,15.38,31.18,15.28,32.36
				c-0.17,1.99-1.93,3.47-3.93,3.3c-1.96-0.16-3.47-1.93-3.3-3.92c0.02-0.23,1.59-22.56-9.89-24.71
				c-11.71-2.1-18.92,18.35-18.98,18.55C254.65,340.49,252.83,341.5,251.05,341.12z"/>
		</g>
		<path class="st1" d="M239.78,335.03l-9.99,47.11l59.96,12.71l9.99-47.11L239.78,335.03z M267.58,378.96l-13.38-2.84l5.55-8.25
			c-2.9-1.96-4.49-5.53-3.72-9.17c1.01-4.78,5.71-7.83,10.49-6.82c4.78,1.01,7.83,5.71,6.82,10.49c-0.78,3.69-3.77,6.33-7.28,6.88
			L267.58,378.96z"/>
		<path class="st2" d="M299.74,347.74l-9.99,47.11l5.96,1.26l9.99-47.11L299.74,347.74z"/>
		<path class="st13" d="M267.58,378.96l-13.38-2.84l5.55-8.25c-2.9-1.96-4.49-5.53-3.72-9.17c1.01-4.78,5.71-7.83,10.49-6.82
			c4.78,1.01,7.83,5.71,6.82,10.49c-0.78,3.69-3.77,6.33-7.28,6.88L267.58,378.96z"/>
		<path class="st14" d="M258.67,359.26c0.92-4.33,4.86-7.23,9.14-6.99c-0.42-0.16-0.85-0.3-1.3-0.39
			c-4.78-1.01-9.48,2.04-10.49,6.82c-0.77,3.64,0.82,7.21,3.72,9.17l-5.55,8.25l2.65,0.56l5.55-8.25
			C259.49,366.48,257.9,362.9,258.67,359.26z"/>
	</g>
	<g>
		<path class="st1" d="M72.75,311.63c-7.8,3.68-11.14,12.99-7.46,20.79c3.68,7.8,12.99,11.14,20.79,7.46
			c7.8-3.68,11.14-12.99,7.46-20.79C89.86,311.29,80.55,307.95,72.75,311.63z M84.13,335.74c-5.52,2.6-12.1,0.24-14.7-5.28
			c-2.6-5.52-0.24-12.1,5.28-14.7c5.52-2.6,12.1-0.24,14.7,5.28C92.01,326.56,89.64,333.14,84.13,335.74z"/>
		
			<rect x="88.65" y="304.96" transform="matrix(0.9044 -0.4266 0.4266 0.9044 -119.9645 79.7058)" class="st1" width="58.53" height="5.27"/>
		
			<rect x="139.42" y="298.85" transform="matrix(0.9044 -0.4266 0.4266 0.9044 -116.5026 90.6488)" class="st1" width="9.29" height="12.98"/>
		
			<rect x="129.93" y="303.02" transform="matrix(0.9044 -0.4266 0.4266 0.9044 -117.9349 86.7171)" class="st1" width="9.29" height="7.1"/>
	</g>
</g>
</svg>
