<?xml version="1.0" encoding="utf-8"?>
<!-- Generator: Adobe Illustrator 25.0.0, SVG Export Plug-In . SVG Version: 6.00 Build 0)  -->
<svg version="1.1" id="Layer_1" xmlns="http://www.w3.org/2000/svg" xmlns:xlink="http://www.w3.org/1999/xlink" x="0px" y="0px"
	 viewBox="0 0 450 450" style="enable-background:new 0 0 450 450;" xml:space="preserve">
<style type="text/css">
	.st0{opacity:0.12;}
	.st1{fill:url(#SVGID_1_);}
	.st2{fill:#FFC7B6;}
	.st3{fill:#202640;}
	.st4{fill:#60E99C;}
	.st5{fill:#FCFCFC;}
	.st6{fill:#133479;}
	.st7{font-family:'Gilroy-ExtraBold';}
	.st8{font-size:25.7988px;}
	.st9{opacity:0.12;fill:url(#SVGID_2_);}
	.st10{fill:#88B7E6;}
</style>
<g>
	<g class="st0">
		<linearGradient id="SVGID_1_" gradientUnits="userSpaceOnUse" x1="23.1553" y1="291.45" x2="425.5692" y2="291.45">
			<stop  offset="0" style="stop-color:#5BDB98"/>
			<stop  offset="1" style="stop-color:#60E99C"/>
		</linearGradient>
		<path class="st1" d="M425.57,351.69c0,28.71-6.02,56.03-16.87,80.74H40c-10.82-24.71-16.84-52.03-16.84-80.74
			c0-111.14,90.08-201.22,201.19-201.22C335.48,150.47,425.57,240.55,425.57,351.69z"/>
	</g>
	<g>
		<g>
			<path class="st2" d="M217.76,232.32c0,0,36.79-49.25,49.93-38.74c13.14,10.51-38.76,61.76-38.76,61.76L217.76,232.32z"/>
			<path class="st2" d="M217.76,267.96c0,0,36.79-49.25,49.93-38.74c13.14,10.51-38.76,61.76-38.76,61.76L217.76,267.96z"/>
			<path class="st2" d="M217.76,303.6c0,0,36.79-49.25,49.93-38.74c13.14,10.51-38.76,61.76-38.76,61.76L217.76,303.6z"/>
			<path class="st3" d="M248.29,199.48v34.9c2.35-2.76,4.71-5.63,6.97-8.54v-31.15C253.02,195.93,250.67,197.59,248.29,199.48z"/>
			<path class="st3" d="M248.29,235.12v34.9c2.35-2.76,4.71-5.63,6.97-8.54v-31.15C253.02,231.58,250.67,233.23,248.29,235.12z"/>
			<path class="st3" d="M248.29,270.76v34.9c2.35-2.76,4.71-5.63,6.97-8.54v-31.15C253.02,267.22,250.67,268.88,248.29,270.76z"/>
			<rect x="111.32" y="338.51" class="st2" width="98.57" height="93.93"/>
			<path class="st2" d="M239.79,338.51c-0.4,3.93-1.57,7.41-3.23,10.48c-2.95,5.41-7.47,9.53-12.36,12.6
				c-4.89,3.13-10.11,5.22-14.32,6.55c-4.95,1.63-8.51,2.18-8.51,2.18v-31.81H239.79z"/>
			<path class="st3" d="M236.56,341.09v7.9c-2.95,5.41-7.47,9.53-12.36,12.6l-14.32-1.23l-8.51-0.74l-65.99-5.75l2.67-12.79H236.56z
				"/>
			<path class="st4" d="M236.22,353.89h-91.47c-8.67,0-15.7-7.03-15.7-15.7V160c0-8.67,7.03-15.7,15.7-15.7h91.47
				c8.67,0,15.7,7.03,15.7,15.7v178.19C251.92,346.86,244.89,353.89,236.22,353.89z"/>
			<path class="st5" d="M144.43,333.31V164.87c0-2.88,2.33-5.21,5.21-5.21h81.71c2.88,0,5.21,2.33,5.21,5.21v168.44
				c0,2.88-2.33,5.21-5.21,5.21h-81.71C146.76,338.52,144.43,336.19,144.43,333.31z"/>
			<path class="st2" d="M136.94,361.11c0,0,45.99-56.5-3.29-80.81c0,0,28.25-28.25,17.74-40.08c-9.86-11.09-67.64,13.05-63.45,57.25
				c0.58,6.12,2.6,12.01,5.33,17.51C108.16,345.06,136.94,361.11,136.94,361.11z"/>
			<path class="st4" d="M217.64,271.76h-54.3c-5.2,0-9.42-4.22-9.42-9.42v-8.76c0-5.2,4.22-9.42,9.42-9.42h54.3
				c5.2,0,9.42,4.22,9.42,9.42v8.76C227.06,267.54,222.84,271.76,217.64,271.76z"/>
			<text transform="matrix(1 0 0 1 167.583 262.3945)" class="st6 st7 st8">pay</text>
		</g>
		<g>
			<g>
				<polygon class="st2" points="386.21,432.43 284.48,432.43 275.84,391.52 284.3,354.43 364.21,338.51 				"/>
				<path class="st2" d="M364.21,338.51l-5.56,30.67l-16.11-59.84l-3.84-14.32c1.48-0.09,2.86,0,4.15,0.25h0.03
					C362.85,298.98,364.21,338.51,364.21,338.51z"/>
				<path class="st3" d="M356.74,343.27l-14.2-33.93l-3.84-14.32c1.48-0.09,2.86,0,4.15,0.25h0.03c4.21,3.35,9.04,9.56,11.77,21.02
					C358.64,330.36,356.74,343.27,356.74,343.27z"/>
				<path class="st2" d="M358.64,353.23c-0.31,15.95-19.89,19.85-19.89,19.85l-25.48-28.31L288.2,283c0,0,6.82-2.61,16.9-2.8
					c3.17-0.09,6.7,0.09,10.42,0.71c4.43,0.65,9.16,1.91,14.02,4.03C351.3,294.37,358.98,337.31,358.64,353.23z"/>
				<path class="st3" d="M332.09,336.42L305.1,280.2c3.17-0.09,6.7,0.09,10.42,0.71C320.32,288.1,332.46,308.97,332.09,336.42z"/>
				<path class="st2" d="M333.47,354.79c-0.31,18.07-19.89,22.5-19.89,22.5l-25.48-32.12L263,275.04c0,0,1.69-0.74,4.61-1.48
					c2.7-0.74,6.52-1.44,11.03-1.66c7.19-0.34,16.26,0.71,25.73,5.35C326.13,287.98,333.78,336.69,333.47,354.79z"/>
				<path class="st3" d="M305.1,334.91l-37.5-61.35c2.7-0.74,6.52-1.44,11.03-1.66c4.79,3.41,10.17,6.67,15.98,13.92
					C302.84,303.41,305.1,334.91,305.1,334.91z"/>
			</g>
			<path class="st2" d="M298.45,389.86l-22.61,1.68c0,0-39.53,5.7-51.28-36.75c-8.06-32.85,1.47-47.55,7.07-47.99
				c14.38-1.13,15.28,23.68,19.63,34.08c1.06,2.53,3.73,3.97,6.42,3.49l0,0c3.15-0.56,5.27-3.56,4.75-6.72l-5.7-34.54
				c0,0-46.88-34.33-39.5-49.84c7.38-15.5,68.29,26.21,72.35,32.49c4.06,6.28,11.81,30.64,11.81,30.64l12.18,60.91L298.45,389.86z"
				/>
		</g>
	</g>
	<g>
		<g>
			<rect x="366.34" y="236.39" class="st4" width="28.81" height="2.31"/>
		</g>
	</g>
	<g>
		<g>
			<rect x="38.79" y="325.48" class="st4" width="28.81" height="2.31"/>
		</g>
	</g>
	<linearGradient id="SVGID_2_" gradientUnits="userSpaceOnUse" x1="275.754" y1="99.3193" x2="441.5637" y2="99.3193">
		<stop  offset="0" style="stop-color:#5BDB98"/>
		<stop  offset="1" style="stop-color:#60E99C"/>
	</linearGradient>
	<circle class="st9" cx="358.66" cy="99.32" r="82.9"/>
	<g>
		<path class="st10" d="M445.81,149.89H315.67c-1.15,0-2.09-0.93-2.09-2.09V69.24c0-1.15,0.93-2.09,2.09-2.09h130.14
			c1.15,0,2.09,0.93,2.09,2.09v78.56C447.9,148.95,446.96,149.89,445.81,149.89z"/>
		<rect x="313.58" y="84.33" class="st6" width="134.31" height="15.29"/>
		<path class="st6" d="M380.24,126.15h-56.31c-0.28,0-0.5-0.22-0.5-0.5v-12.66c0-0.28,0.22-0.5,0.5-0.5h56.31
			c0.28,0,0.5,0.22,0.5,0.5v12.66C380.74,125.92,380.52,126.15,380.24,126.15z"/>
		<path class="st6" d="M413.06,131.6h-15.31c-0.28,0-0.5-0.22-0.5-0.5v-18.12c0-0.28,0.22-0.5,0.5-0.5h15.31
			c0.28,0,0.5,0.22,0.5,0.5v18.12C413.56,131.37,413.33,131.6,413.06,131.6z"/>
		<path class="st6" d="M438.65,131.6h-15.31c-0.28,0-0.5-0.22-0.5-0.5v-18.12c0-0.28,0.22-0.5,0.5-0.5h15.31
			c0.28,0,0.5,0.22,0.5,0.5v18.12C439.15,131.37,438.93,131.6,438.65,131.6z"/>
	</g>
	<g>
		<rect x="2.1" y="431.28" class="st4" width="444.52" height="2.31"/>
	</g>
</g>
</svg>
