<?xml version="1.0" encoding="utf-8"?>
<!-- Generator: Adobe Illustrator 25.0.0, SVG Export Plug-In . SVG Version: 6.00 Build 0)  -->
<svg version="1.1" id="Layer_1" xmlns="http://www.w3.org/2000/svg" xmlns:xlink="http://www.w3.org/1999/xlink" x="0px" y="0px"
	 viewBox="0 0 450 450" style="enable-background:new 0 0 450 450;" xml:space="preserve">
<style type="text/css">
	.st0{fill:#F2F2F2;}
	.st1{fill:#304D63;}
	.st2{fill:#FFB44A;}
	.st3{fill:#A05708;}
	.st4{fill:#F2DAD4;}
	.st5{fill:#1B3149;}
	.st6{fill:#56CD93;}
	.st7{fill:#BDFFD8;}
	.st8{fill:#C6B3AF;}
	.st9{fill:#60E99C;}
	.st10{fill:#51BE8F;}
	.st11{opacity:0.32;fill:#FFFFFF;}
	.st12{fill:#F0F2F5;}
	.st13{fill:#D3D6DB;}
	.st14{fill:#FFFFFF;}
	.st15{filter:url(#Adobe_OpacityMaskFilter);}
	.st16{filter:url(#Adobe_OpacityMaskFilter_1_);}
	.st17{mask:url(#SVGID_1_);fill:url(#SVGID_2_);}
	.st18{filter:url(#Adobe_OpacityMaskFilter_2_);}
	.st19{filter:url(#Adobe_OpacityMaskFilter_3_);}
	.st20{mask:url(#SVGID_3_);fill:url(#SVGID_4_);}
	.st21{filter:url(#Adobe_OpacityMaskFilter_4_);}
	.st22{filter:url(#Adobe_OpacityMaskFilter_5_);}
	.st23{mask:url(#SVGID_5_);fill:url(#SVGID_6_);}
	.st24{filter:url(#Adobe_OpacityMaskFilter_6_);}
	.st25{filter:url(#Adobe_OpacityMaskFilter_7_);}
	.st26{mask:url(#SVGID_7_);fill:url(#SVGID_8_);}
	.st27{filter:url(#Adobe_OpacityMaskFilter_8_);}
	.st28{filter:url(#Adobe_OpacityMaskFilter_9_);}
	.st29{mask:url(#SVGID_9_);fill:url(#SVGID_10_);}
	.st30{filter:url(#Adobe_OpacityMaskFilter_10_);}
	.st31{filter:url(#Adobe_OpacityMaskFilter_11_);}
	.st32{mask:url(#SVGID_11_);fill:url(#SVGID_12_);}
	.st33{filter:url(#Adobe_OpacityMaskFilter_12_);}
	.st34{filter:url(#Adobe_OpacityMaskFilter_13_);}
	.st35{mask:url(#SVGID_13_);fill:url(#SVGID_14_);}
	.st36{filter:url(#Adobe_OpacityMaskFilter_14_);}
	.st37{filter:url(#Adobe_OpacityMaskFilter_15_);}
	.st38{mask:url(#SVGID_15_);fill:url(#SVGID_16_);}
	.st39{filter:url(#Adobe_OpacityMaskFilter_16_);}
	.st40{filter:url(#Adobe_OpacityMaskFilter_17_);}
	.st41{mask:url(#SVGID_17_);fill:url(#SVGID_18_);}
	.st42{filter:url(#Adobe_OpacityMaskFilter_18_);}
	.st43{filter:url(#Adobe_OpacityMaskFilter_19_);}
	.st44{mask:url(#SVGID_19_);fill:url(#SVGID_20_);}
	.st45{filter:url(#Adobe_OpacityMaskFilter_20_);}
	.st46{filter:url(#Adobe_OpacityMaskFilter_21_);}
	.st47{mask:url(#SVGID_21_);fill:url(#SVGID_22_);}
	.st48{filter:url(#Adobe_OpacityMaskFilter_22_);}
	.st49{filter:url(#Adobe_OpacityMaskFilter_23_);}
	.st50{mask:url(#SVGID_23_);fill:url(#SVGID_24_);}
	.st51{fill:#1C2B6B;}
</style>
<g>
	<path class="st0" d="M73.54,402.08c-7.43,1.02-19.49,2.89-19.57,5.58c-0.07,2.43,9.65,4.42,13.04,5.11
		c38.88,7.96,85.52-6.69,136.97-0.93c26.98,3.02,22.91,8.03,46.84,9.29c32.74,1.72,44.45-7.44,85.38-6.97
		c17.46,0.2,17.74,1.9,41.51,3.25c9.34,0.53,74.73,4.18,75.9-1.39c0.21-1.01-1.37-3.82-29.65-10.69
		C423.97,405.33,288.95,372.54,73.54,402.08z"/>
	<g>
		<path class="st1" d="M140.88,313.74c0,0,20-13.85,33.29-6.94c13.29,6.91,71.52,27.58,73.49,29.73
			c1.97,2.15-10.25,11.19-10.25,11.19l-79.19-21.26L140.88,313.74z"/>
		<path class="st2" d="M52.29,364.51c0,0-3.01-5.1-6.73-4.57c-3.72,0.53-3.72,2.66-5.85,2.66c-2.13,0-11.16,0-14.35-1.06
			s-11.16-4.78-14.88-4.78c-3.72,0-4.78,4.78-3.19,9.03c1.59,4.25,6.38,13.82,14.88,18.6c8.5,4.78,23.38,15.94,25.51,17.54
			c2.13,1.59,7.44,4.25,12.22,3.72c4.78-0.53,5.31-2.66,5.31-3.72s1.06-2.66,1.59-3.19c0.53-0.53,3.19-4.25,3.72-6.91
			c0.53-2.66,1.59-3.19,2.13-3.72c0.53-0.53,1.59-1.59,0.53-3.19c-1.06-1.59-1.73-0.5-2.46-1.05s-11.36-12.77-11.36-12.77
			L52.29,364.51z"/>
		<path class="st0" d="M56.3,365.46c0,0-3.83-1.27-7.55-1.27c-3.72,0-6.91,1.06-7.44,5.31c-0.53,4.25,4.25,12.76,10.1,15.94
			c5.85,3.19,8.5,4.25,11.69,3.19c3.19-1.06,6.91-3.19,6.91-5.85C70.01,380.14,56.3,365.46,56.3,365.46z"/>
		<path class="st3" d="M44.27,365.02c1.26-0.61,2.81-0.83,4.47-0.83c0.54,0,1.07,0.03,1.6,0.07c0.28-0.05,0.44-0.07,0.44-0.07
			s-2.04-3.19-4.17-3.19c-2.13,0-2.66,0.53-2.66,1.06C43.96,362.6,44.05,364.79,44.27,365.02
			C44.27,365.02,44.27,365.02,44.27,365.02z"/>
		<path class="st4" d="M64.16,363.67c0,0-3.72,1.59-5.31,1.59c-1.59,0-3.72,0-4.25,1.59c-0.53,1.59-1.59,11.16,2.13,14.35
			c3.72,3.19,7.44,4.25,10.1,3.72c2.66-0.53,9.57-3.72,9.57-3.72L64.16,363.67z"/>
		<path class="st5" d="M63.1,362.07c-0.3,2.69,7.23,19.71,13.82,21.26c9.03,2.13,31.36-8.5,38.27-12.76
			c6.73-4.14,42.52-17.54,43.58-18.07c1.06-0.53,2.13-2.13,2.66-1.06c0.53,1.06,0,6.38,3.72,9.57c3.72,3.19,28.7,19.13,31.89,22.32
			c3.19,3.19,17.54,14.88,22.32,17.54c4.78,2.66,28.17,5.85,41.45,4.25c13.29-1.59,22.32-13.82,22.32-13.82l-27.1-47.83
			c0,0-9.31-7.51-12.89-9.07c-3.58-1.56-8.9,0.56-9.43,2.16c-0.53,1.59-1.59,3.72-3.72,2.13s-48.89-27.64-63.78-31.36
			c-14.88-3.72-34.55,12.76-38.8,15.41c-4.25,2.66-47.3,32.95-50.49,33.48S63.63,357.29,63.1,362.07z"/>
		<path class="st4" d="M230.51,210.07c0,0,1.06,11.16,2.13,12.22c1.06,1.06,2.66,0.53,2.66,4.25s0.53,12.22,1.59,12.76
			c1.06,0.53,4.78-1.59,5.31-1.59c0.53,0,5.85,4.25,6.91,6.38c1.06,2.13,4.78,7.97,7.97,8.5c3.19,0.53,7.44-5.85,9.57-4.25
			c2.13,1.59,3.19,4.78,3.19,6.38c0,1.59,25.51-5.85,25.51-15.41c0-2.71-6.91-17.01-8.5-20.2c-1.59-3.19-3.72-17.01-4.25-20.73
			c-0.53-3.72-6.91-14.35-17.54-18.07C254.42,176.59,229.44,197.85,230.51,210.07z"/>
		<path class="st5" d="M262.93,176.59c7.01,1.75,17.54,12.76,19.13,18.07c1.59,5.31,5.56,19.09,5.31,21.79
			c-0.53,5.85-10.63,13.82-12.22,11.16c-1.59-2.66-6.59-11.66-6.91-14.88c-0.53-5.31-3.19-10.63-6.91-10.63
			c-1.06,0-4.25,4.78-4.78,7.44c-0.63,3.17,2.66,9.57,4.78,11.16c2.13,1.59,7.62,4.73,8.5,7.97c1.59,5.85-1.59,18.07-3.19,19.66
			c-1.59,1.59-6.56,5-9.57,4.25c-4.25-1.06-6.91-7.44-9.49-10.47c-1.08-1.27-3.26-2.29-4.36-3.81c-1.17-1.61,11.47-7.48,11.2-10.7
			c-1.06-12.76-4.77-28.04-12.76-27.1c-9.03,1.06-10.1,9.57-15.94,10.63c-3.18,0.58-16.48,2.66-19.13-13.82
			c-0.85-5.25,13.29,0.53,25.51-7.44C235.31,187.78,248.05,172.87,262.93,176.59z"/>
		<path class="st6" d="M267.18,258.44c0-2.71,4.25-5.85,6.91-8.5c2.66-2.66,20.73-14.88,21.26-17.01
			c0.53-2.13,18.07,5.85,24.45,21.79c6.38,15.94,13.82,66.96-4.78,100.98c-18.6,34.01-33.48,43.05-34.01,39.86
			c-0.53-3.19,0-5.85-5.85-9.03c-5.85-3.19-17.01-16.48-19.66-21.26c-2.66-4.78-14.88-27.64-13.82-30.29
			c1.06-2.66,11.69-38.8,17.01-49.43c5.31-10.63,10.1-18.07,10.1-21.26S267.18,260.56,267.18,258.44z"/>
		<polygon class="st7" points="181.61,314.77 189.58,306.8 243.79,320.62 253.36,331.78 		"/>
		<path class="st8" d="M209.78,302.02c0,0-5.31,4.78-6.38,9.03l3.72-1.06l6.91-3.19l4.78-2.66l-2.13-2.13H209.78z"/>
		<path class="st4" d="M238.66,300.86c0,0-5.5-0.44-8.16-1.5c-2.66-1.06-5.31-1.59-7.97-1.06c-2.66,0.53-7.97-2.13-10.63-1.59
			c-2.66,0.53-11.69,0-12.22,0.53c-0.53,0.53-1.06,1.06-1.06,2.66c0,1.59,2.13,2.13,2.66,2.13c0.53,0,10.63,0.53,13.29,1.59
			c0,0-4.78,0.53-7.44,3.19c-2.66,2.66-6.91,6.38-6.91,6.91c0,0.53,0,2.66,0.53,2.66c0.53,0,1.06,0,1.06,0s0.53,1.06,1.06,1.06
			c0,0,2.66-1.59,3.19-1.59c0.53,0-1.59,1.06-1.06,2.13c0.53,1.06,1.59,1.59,2.66,1.59s7.44-3.19,9.57-2.66
			c2.13,0.53,5.85,1.06,7.44,2.13c1.59,1.06,6.91,2.13,7.97,1.59C233.7,320.09,238.66,300.86,238.66,300.86z"/>
		<path class="st9" d="M296.94,251.53c-10.76,1.34-13.82,20.2-12.76,27.64c0,0,10.1,36.67,6.38,36.67c-3.72,0-26.57-9.03-30.29-10.1
			c-3.72-1.06-16.48-6.91-18.6-6.91c-2.13,0-6.91,6.38-8.5,10.63c-1.59,4.25-3.72,14.35-1.06,14.35c2.66,0,12.76,0,14.88,1.59
			s16.48,13.29,24.45,16.48c7.97,3.19,36.67,11.16,41.45,9.57c4.78-1.59,11.16-9.57,11.16-12.76s-0.53-42.52-3.72-52.61
			C317.14,275.97,318.2,248.87,296.94,251.53z"/>
		<g>
			<path class="st7" d="M183.74,314.77l-40.39-63.24h11.12c0.36,0,0.69,0.18,0.89,0.48l35.37,54.09c0.27,0.41,0.22,0.95-0.11,1.31
				L183.74,314.77z"/>
			<path class="st10" d="M181.64,314.75l-39.28-61.43c-0.5-0.77,0.06-1.79,0.98-1.79h0l40.39,63.24l0,0
				C183.24,315.52,182.13,315.51,181.64,314.75z"/>
			<polygon class="st11" points="162.11,280.9 164.7,284.96 160.98,260.62 158.41,256.68 			"/>
			<polygon class="st11" points="166.51,287.79 170.68,294.32 166.92,269.7 162.78,263.37 			"/>
		</g>
		<path class="st10" d="M251.69,334.32l-69.2-15.67c-0.51-0.09-0.87-0.53-0.87-1.05v-2.83l71.13,16.61
			c0.77,0.18,1.08,1.11,0.57,1.72l-0.63,0.86C252.45,334.25,252.06,334.39,251.69,334.32z"/>
	</g>
	<g>
		<path class="st12" d="M177.77,236.12H85.88c-4.42,0-8-3.58-8-8v-68.5c0-4.42,3.58-8,8-8h91.89c4.42,0,8,3.58,8,8v68.5
			C185.77,232.54,182.19,236.12,177.77,236.12z"/>
		<rect x="85.33" y="157.46" class="st13" width="32.42" height="4.78"/>
		<path class="st14" d="M173.93,215.92h-82.6c-3.31,0-6-2.69-6-6v-35.83c0-3.31,2.69-6,6-6h82.6c3.31,0,6,2.69,6,6v35.83
			C179.93,213.24,177.24,215.92,173.93,215.92z"/>
		<rect x="90.64" y="184.03" class="st13" width="47.83" height="2.13"/>
		<rect x="90.64" y="190.94" class="st13" width="47.83" height="2.13"/>
		<rect x="90.64" y="197.85" class="st13" width="31.89" height="2.13"/>
		<path class="st13" d="M166.47,210.61h-3.92c-3.61,0-6.55-2.93-6.55-6.55v-3.92c0-3.61,2.93-6.55,6.55-6.55h3.92
			c3.61,0,6.55,2.93,6.55,6.55v3.92C173.02,207.68,170.09,210.61,166.47,210.61z"/>
		<path class="st9" d="M114.55,178.19H93.3c-1.47,0-2.66-1.19-2.66-2.66v-1.59c0-1.47,1.19-2.66,2.66-2.66h21.26
			c1.47,0,2.66,1.19,2.66,2.66v1.59C117.21,177,116.02,178.19,114.55,178.19z"/>
	</g>
	<g>
		<path class="st12" d="M357.94,143.11h-91.89c-4.42,0-8-3.58-8-8v-68.5c0-4.42,3.58-8,8-8h91.89c4.42,0,8,3.58,8,8v68.5
			C365.94,139.53,362.36,143.11,357.94,143.11z"/>
		<rect x="265.49" y="64.45" class="st13" width="32.42" height="4.78"/>
		<g>
			<path class="st14" d="M354.09,122.92h-82.6c-3.31,0-6-2.69-6-6V81.08c0-3.31,2.69-6,6-6h82.6c3.31,0,6,2.69,6,6v35.83
				C360.09,120.23,357.41,122.92,354.09,122.92z"/>
			<rect x="270.81" y="91.03" class="st13" width="47.83" height="2.13"/>
			<rect x="270.81" y="97.94" class="st13" width="47.83" height="2.13"/>
			<rect x="270.81" y="104.85" class="st13" width="31.89" height="2.13"/>
			<path class="st2" d="M294.72,85.18h-21.26c-1.47,0-2.66-1.19-2.66-2.66v-1.59c0-1.47,1.19-2.66,2.66-2.66h21.26
				c1.47,0,2.66,1.19,2.66,2.66v1.59C297.38,83.99,296.19,85.18,294.72,85.18z"/>
			<path class="st10" d="M323.95,85.18H302.7c-1.47,0-2.66-1.19-2.66-2.66v-1.59c0-1.47,1.19-2.66,2.66-2.66h21.26
				c1.47,0,2.66,1.19,2.66,2.66v1.59C326.61,83.99,325.42,85.18,323.95,85.18z"/>
		</g>
	</g>
	<g>
		<defs>
			<filter id="Adobe_OpacityMaskFilter" filterUnits="userSpaceOnUse" x="382.68" y="50.67" width="1.59" height="3.19">
				<feFlood  style="flood-color:white;flood-opacity:1" result="back"/>
				<feBlend  in="SourceGraphic" in2="back" mode="normal"/>
			</filter>
		</defs>
		<mask maskUnits="userSpaceOnUse" x="382.68" y="50.67" width="1.59" height="3.19" id="SVGID_1_">
			<g class="st15">
				<defs>
					<filter id="Adobe_OpacityMaskFilter_1_" filterUnits="userSpaceOnUse" x="382.68" y="50.67" width="1.59" height="3.19">
						<feFlood  style="flood-color:white;flood-opacity:1" result="back"/>
						<feBlend  in="SourceGraphic" in2="back" mode="normal"/>
					</filter>
				</defs>
				<mask maskUnits="userSpaceOnUse" x="382.68" y="50.67" width="1.59" height="3.19" id="SVGID_1_">
					<g class="st16">
					</g>
				</mask>
				
					<linearGradient id="SVGID_2_" gradientUnits="userSpaceOnUse" x1="-937.5237" y1="188.1267" x2="-937.5237" y2="80.324" gradientTransform="matrix(1 0 0 1 1321 14)">
					<stop  offset="0" style="stop-color:#000000"/>
					<stop  offset="1" style="stop-color:#FFFFFF"/>
				</linearGradient>
				<rect x="382.68" y="50.67" class="st17" width="1.59" height="3.19"/>
			</g>
		</mask>
		<rect x="382.68" y="50.67" class="st9" width="1.59" height="3.19"/>
		<defs>
			<filter id="Adobe_OpacityMaskFilter_2_" filterUnits="userSpaceOnUse" x="382.68" y="60.51" width="1.59" height="126.46">
				<feFlood  style="flood-color:white;flood-opacity:1" result="back"/>
				<feBlend  in="SourceGraphic" in2="back" mode="normal"/>
			</filter>
		</defs>
		<mask maskUnits="userSpaceOnUse" x="382.68" y="60.51" width="1.59" height="126.46" id="SVGID_3_">
			<g class="st18">
				<defs>
					<filter id="Adobe_OpacityMaskFilter_3_" filterUnits="userSpaceOnUse" x="382.68" y="60.51" width="1.59" height="126.46">
						<feFlood  style="flood-color:white;flood-opacity:1" result="back"/>
						<feBlend  in="SourceGraphic" in2="back" mode="normal"/>
					</filter>
				</defs>
				<mask maskUnits="userSpaceOnUse" x="382.68" y="60.51" width="1.59" height="126.46" id="SVGID_3_">
					<g class="st19">
					</g>
				</mask>
				
					<linearGradient id="SVGID_4_" gradientUnits="userSpaceOnUse" x1="-937.5237" y1="188.127" x2="-937.5237" y2="80.3242" gradientTransform="matrix(1 0 0 1 1321 14)">
					<stop  offset="0" style="stop-color:#000000"/>
					<stop  offset="1" style="stop-color:#FFFFFF"/>
				</linearGradient>
				<path class="st20" d="M384.27,186.98h-1.59v-6.66h1.59V186.98z M384.27,173.67h-1.59v-6.66h1.59V173.67z M384.27,160.35h-1.59
					v-6.66h1.59V160.35z M384.27,147.04h-1.59v-6.66h1.59V147.04z M384.27,133.73h-1.59v-6.66h1.59V133.73z M384.27,120.42h-1.59
					v-6.66h1.59V120.42z M384.27,107.11h-1.59v-6.66h1.59V107.11z M384.27,93.79h-1.59v-6.66h1.59V93.79z M384.27,80.48h-1.59v-6.66
					h1.59V80.48z M384.27,67.17h-1.59v-6.66h1.59V67.17z"/>
			</g>
		</mask>
		<path class="st9" d="M384.27,186.98h-1.59v-6.66h1.59V186.98z M384.27,173.67h-1.59v-6.66h1.59V173.67z M384.27,160.35h-1.59
			v-6.66h1.59V160.35z M384.27,147.04h-1.59v-6.66h1.59V147.04z M384.27,133.73h-1.59v-6.66h1.59V133.73z M384.27,120.42h-1.59
			v-6.66h1.59V120.42z M384.27,107.11h-1.59v-6.66h1.59V107.11z M384.27,93.79h-1.59v-6.66h1.59V93.79z M384.27,80.48h-1.59v-6.66
			h1.59V80.48z M384.27,67.17h-1.59v-6.66h1.59V67.17z"/>
		<defs>
			<filter id="Adobe_OpacityMaskFilter_4_" filterUnits="userSpaceOnUse" x="382.68" y="193.63" width="1.59" height="3.19">
				<feFlood  style="flood-color:white;flood-opacity:1" result="back"/>
				<feBlend  in="SourceGraphic" in2="back" mode="normal"/>
			</filter>
		</defs>
		<mask maskUnits="userSpaceOnUse" x="382.68" y="193.63" width="1.59" height="3.19" id="SVGID_5_">
			<g class="st21">
				<defs>
					<filter id="Adobe_OpacityMaskFilter_5_" filterUnits="userSpaceOnUse" x="382.68" y="193.63" width="1.59" height="3.19">
						<feFlood  style="flood-color:white;flood-opacity:1" result="back"/>
						<feBlend  in="SourceGraphic" in2="back" mode="normal"/>
					</filter>
				</defs>
				<mask maskUnits="userSpaceOnUse" x="382.68" y="193.63" width="1.59" height="3.19" id="SVGID_5_">
					<g class="st22">
					</g>
				</mask>
				
					<linearGradient id="SVGID_6_" gradientUnits="userSpaceOnUse" x1="-937.5237" y1="188.127" x2="-937.5237" y2="80.3244" gradientTransform="matrix(1 0 0 1 1321 14)">
					<stop  offset="0" style="stop-color:#000000"/>
					<stop  offset="1" style="stop-color:#FFFFFF"/>
				</linearGradient>
				<rect x="382.68" y="193.63" class="st23" width="1.59" height="3.19"/>
			</g>
		</mask>
		<rect x="382.68" y="193.63" class="st9" width="1.59" height="3.19"/>
	</g>
	<g>
		<defs>
			<filter id="Adobe_OpacityMaskFilter_6_" filterUnits="userSpaceOnUse" x="253.8" y="158.56" width="3.19" height="1.59">
				<feFlood  style="flood-color:white;flood-opacity:1" result="back"/>
				<feBlend  in="SourceGraphic" in2="back" mode="normal"/>
			</filter>
		</defs>
		<mask maskUnits="userSpaceOnUse" x="253.8" y="158.56" width="3.19" height="1.59" id="SVGID_7_">
			<g class="st24">
				<defs>
					<filter id="Adobe_OpacityMaskFilter_7_" filterUnits="userSpaceOnUse" x="253.8" y="158.56" width="3.19" height="1.59">
						<feFlood  style="flood-color:white;flood-opacity:1" result="back"/>
						<feBlend  in="SourceGraphic" in2="back" mode="normal"/>
					</filter>
				</defs>
				<mask maskUnits="userSpaceOnUse" x="253.8" y="158.56" width="3.19" height="1.59" id="SVGID_7_">
					<g class="st25">
					</g>
				</mask>
				
					<linearGradient id="SVGID_8_" gradientUnits="userSpaceOnUse" x1="-471.8546" y1="71.6463" x2="-430.5925" y2="71.6463" gradientTransform="matrix(-1 0 0 -1 -51 231)">
					<stop  offset="0" style="stop-color:#000000"/>
					<stop  offset="1" style="stop-color:#FFFFFF"/>
				</linearGradient>
				<rect x="253.8" y="158.56" class="st26" width="3.19" height="1.59"/>
			</g>
		</mask>
		<rect x="253.8" y="158.56" class="st9" width="3.19" height="1.59"/>
		<defs>
			<filter id="Adobe_OpacityMaskFilter_8_" filterUnits="userSpaceOnUse" x="263.17" y="158.56" width="142.28" height="1.59">
				<feFlood  style="flood-color:white;flood-opacity:1" result="back"/>
				<feBlend  in="SourceGraphic" in2="back" mode="normal"/>
			</filter>
		</defs>
		<mask maskUnits="userSpaceOnUse" x="263.17" y="158.56" width="142.28" height="1.59" id="SVGID_9_">
			<g class="st27">
				<defs>
					<filter id="Adobe_OpacityMaskFilter_9_" filterUnits="userSpaceOnUse" x="263.17" y="158.56" width="142.28" height="1.59">
						<feFlood  style="flood-color:white;flood-opacity:1" result="back"/>
						<feBlend  in="SourceGraphic" in2="back" mode="normal"/>
					</filter>
				</defs>
				<mask maskUnits="userSpaceOnUse" x="263.17" y="158.56" width="142.28" height="1.59" id="SVGID_9_">
					<g class="st28">
					</g>
				</mask>
				
					<linearGradient id="SVGID_10_" gradientUnits="userSpaceOnUse" x1="-471.8549" y1="71.6463" x2="-430.5929" y2="71.6463" gradientTransform="matrix(-1 0 0 -1 -51 231)">
					<stop  offset="0" style="stop-color:#000000"/>
					<stop  offset="1" style="stop-color:#FFFFFF"/>
				</linearGradient>
				<path class="st29" d="M263.17,158.56h6.19v1.59h-6.19V158.56z M275.55,158.56h6.19v1.59h-6.19V158.56z M287.92,158.56h6.19v1.59
					h-6.19V158.56z M300.29,158.56h6.19v1.59h-6.19V158.56z M312.66,158.56h6.19v1.59h-6.19V158.56z M325.04,158.56h6.19v1.59h-6.19
					V158.56z M337.41,158.56h6.19v1.59h-6.19V158.56z M349.78,158.56h6.19v1.59h-6.19V158.56z M362.15,158.56h6.19v1.59h-6.19
					V158.56z M374.53,158.56h6.19v1.59h-6.19V158.56z M386.9,158.56h6.19v1.59h-6.19V158.56z M399.27,158.56h6.19v1.59h-6.19V158.56
					z"/>
			</g>
		</mask>
		<path class="st9" d="M263.17,158.56h6.19v1.59h-6.19V158.56z M275.55,158.56h6.19v1.59h-6.19V158.56z M287.92,158.56h6.19v1.59
			h-6.19V158.56z M300.29,158.56h6.19v1.59h-6.19V158.56z M312.66,158.56h6.19v1.59h-6.19V158.56z M325.04,158.56h6.19v1.59h-6.19
			V158.56z M337.41,158.56h6.19v1.59h-6.19V158.56z M349.78,158.56h6.19v1.59h-6.19V158.56z M362.15,158.56h6.19v1.59h-6.19V158.56z
			 M374.53,158.56h6.19v1.59h-6.19V158.56z M386.9,158.56h6.19v1.59h-6.19V158.56z M399.27,158.56h6.19v1.59h-6.19V158.56z"/>
		<defs>
			<filter id="Adobe_OpacityMaskFilter_10_" filterUnits="userSpaceOnUse" x="411.64" y="158.56" width="3.19" height="1.59">
				<feFlood  style="flood-color:white;flood-opacity:1" result="back"/>
				<feBlend  in="SourceGraphic" in2="back" mode="normal"/>
			</filter>
		</defs>
		<mask maskUnits="userSpaceOnUse" x="411.64" y="158.56" width="3.19" height="1.59" id="SVGID_11_">
			<g class="st30">
				<defs>
					<filter id="Adobe_OpacityMaskFilter_11_" filterUnits="userSpaceOnUse" x="411.64" y="158.56" width="3.19" height="1.59">
						<feFlood  style="flood-color:white;flood-opacity:1" result="back"/>
						<feBlend  in="SourceGraphic" in2="back" mode="normal"/>
					</filter>
				</defs>
				<mask maskUnits="userSpaceOnUse" x="411.64" y="158.56" width="3.19" height="1.59" id="SVGID_11_">
					<g class="st31">
					</g>
				</mask>
				
					<linearGradient id="SVGID_12_" gradientUnits="userSpaceOnUse" x1="-471.8549" y1="71.6463" x2="-430.593" y2="71.6463" gradientTransform="matrix(-1 0 0 -1 -51 231)">
					<stop  offset="0" style="stop-color:#000000"/>
					<stop  offset="1" style="stop-color:#FFFFFF"/>
				</linearGradient>
				<rect x="411.64" y="158.56" class="st32" width="3.19" height="1.59"/>
			</g>
		</mask>
		<rect x="411.64" y="158.56" class="st9" width="3.19" height="1.59"/>
	</g>
	<g>
		<defs>
			<filter id="Adobe_OpacityMaskFilter_12_" filterUnits="userSpaceOnUse" x="64.33" y="124.01" width="1.59" height="3.19">
				<feFlood  style="flood-color:white;flood-opacity:1" result="back"/>
				<feBlend  in="SourceGraphic" in2="back" mode="normal"/>
			</filter>
		</defs>
		<mask maskUnits="userSpaceOnUse" x="64.33" y="124.01" width="1.59" height="3.19" id="SVGID_13_">
			<g class="st33">
				<defs>
					<filter id="Adobe_OpacityMaskFilter_13_" filterUnits="userSpaceOnUse" x="64.33" y="124.01" width="1.59" height="3.19">
						<feFlood  style="flood-color:white;flood-opacity:1" result="back"/>
						<feBlend  in="SourceGraphic" in2="back" mode="normal"/>
					</filter>
				</defs>
				<mask maskUnits="userSpaceOnUse" x="64.33" y="124.01" width="1.59" height="3.19" id="SVGID_13_">
					<g class="st34">
					</g>
				</mask>
				<linearGradient id="SVGID_14_" gradientUnits="userSpaceOnUse" x1="65.1295" y1="275.4686" x2="65.1295" y2="167.666">
					<stop  offset="0" style="stop-color:#000000"/>
					<stop  offset="1" style="stop-color:#FFFFFF"/>
				</linearGradient>
				<rect x="64.33" y="124.01" class="st35" width="1.59" height="3.19"/>
			</g>
		</mask>
		<rect x="64.33" y="124.01" class="st9" width="1.59" height="3.19"/>
		<defs>
			<filter id="Adobe_OpacityMaskFilter_14_" filterUnits="userSpaceOnUse" x="64.33" y="133.86" width="1.59" height="126.46">
				<feFlood  style="flood-color:white;flood-opacity:1" result="back"/>
				<feBlend  in="SourceGraphic" in2="back" mode="normal"/>
			</filter>
		</defs>
		<mask maskUnits="userSpaceOnUse" x="64.33" y="133.86" width="1.59" height="126.46" id="SVGID_15_">
			<g class="st36">
				<defs>
					<filter id="Adobe_OpacityMaskFilter_15_" filterUnits="userSpaceOnUse" x="64.33" y="133.86" width="1.59" height="126.46">
						<feFlood  style="flood-color:white;flood-opacity:1" result="back"/>
						<feBlend  in="SourceGraphic" in2="back" mode="normal"/>
					</filter>
				</defs>
				<mask maskUnits="userSpaceOnUse" x="64.33" y="133.86" width="1.59" height="126.46" id="SVGID_15_">
					<g class="st37">
					</g>
				</mask>
				<linearGradient id="SVGID_16_" gradientUnits="userSpaceOnUse" x1="65.1295" y1="275.469" x2="65.1295" y2="167.6662">
					<stop  offset="0" style="stop-color:#000000"/>
					<stop  offset="1" style="stop-color:#FFFFFF"/>
				</linearGradient>
				<path class="st38" d="M65.93,260.32h-1.59v-6.66h1.59V260.32z M65.93,247.01h-1.59v-6.66h1.59V247.01z M65.93,233.7h-1.59v-6.66
					h1.59V233.7z M65.93,220.38h-1.59v-6.66h1.59V220.38z M65.93,207.07h-1.59v-6.66h1.59V207.07z M65.93,193.76h-1.59v-6.66h1.59
					V193.76z M65.93,180.45h-1.59v-6.66h1.59V180.45z M65.93,167.14h-1.59v-6.66h1.59V167.14z M65.93,153.82h-1.59v-6.66h1.59
					V153.82z M65.93,140.51h-1.59v-6.66h1.59V140.51z"/>
			</g>
		</mask>
		<path class="st9" d="M65.93,260.32h-1.59v-6.66h1.59V260.32z M65.93,247.01h-1.59v-6.66h1.59V247.01z M65.93,233.7h-1.59v-6.66
			h1.59V233.7z M65.93,220.38h-1.59v-6.66h1.59V220.38z M65.93,207.07h-1.59v-6.66h1.59V207.07z M65.93,193.76h-1.59v-6.66h1.59
			V193.76z M65.93,180.45h-1.59v-6.66h1.59V180.45z M65.93,167.14h-1.59v-6.66h1.59V167.14z M65.93,153.82h-1.59v-6.66h1.59V153.82z
			 M65.93,140.51h-1.59v-6.66h1.59V140.51z"/>
		<defs>
			<filter id="Adobe_OpacityMaskFilter_16_" filterUnits="userSpaceOnUse" x="64.33" y="266.98" width="1.59" height="3.19">
				<feFlood  style="flood-color:white;flood-opacity:1" result="back"/>
				<feBlend  in="SourceGraphic" in2="back" mode="normal"/>
			</filter>
		</defs>
		<mask maskUnits="userSpaceOnUse" x="64.33" y="266.98" width="1.59" height="3.19" id="SVGID_17_">
			<g class="st39">
				<defs>
					<filter id="Adobe_OpacityMaskFilter_17_" filterUnits="userSpaceOnUse" x="64.33" y="266.98" width="1.59" height="3.19">
						<feFlood  style="flood-color:white;flood-opacity:1" result="back"/>
						<feBlend  in="SourceGraphic" in2="back" mode="normal"/>
					</filter>
				</defs>
				<mask maskUnits="userSpaceOnUse" x="64.33" y="266.98" width="1.59" height="3.19" id="SVGID_17_">
					<g class="st40">
					</g>
				</mask>
				<linearGradient id="SVGID_18_" gradientUnits="userSpaceOnUse" x1="65.1295" y1="275.469" x2="65.1295" y2="167.6664">
					<stop  offset="0" style="stop-color:#000000"/>
					<stop  offset="1" style="stop-color:#FFFFFF"/>
				</linearGradient>
				<rect x="64.33" y="266.98" class="st41" width="1.59" height="3.19"/>
			</g>
		</mask>
		<rect x="64.33" y="266.98" class="st9" width="1.59" height="3.19"/>
	</g>
	<g>
		<defs>
			<filter id="Adobe_OpacityMaskFilter_18_" filterUnits="userSpaceOnUse" x="191.62" y="137.3" width="3.19" height="1.59">
				<feFlood  style="flood-color:white;flood-opacity:1" result="back"/>
				<feBlend  in="SourceGraphic" in2="back" mode="normal"/>
			</filter>
		</defs>
		<mask maskUnits="userSpaceOnUse" x="191.62" y="137.3" width="3.19" height="1.59" id="SVGID_19_">
			<g class="st42">
				<defs>
					<filter id="Adobe_OpacityMaskFilter_19_" filterUnits="userSpaceOnUse" x="191.62" y="137.3" width="3.19" height="1.59">
						<feFlood  style="flood-color:white;flood-opacity:1" result="back"/>
						<feBlend  in="SourceGraphic" in2="back" mode="normal"/>
					</filter>
				</defs>
				<mask maskUnits="userSpaceOnUse" x="191.62" y="137.3" width="3.19" height="1.59" id="SVGID_19_">
					<g class="st43">
					</g>
				</mask>
				<linearGradient id="SVGID_20_" gradientUnits="userSpaceOnUse" x1="27.7511" y1="138.0951" x2="69.0133" y2="138.0951">
					<stop  offset="0" style="stop-color:#000000"/>
					<stop  offset="1" style="stop-color:#FFFFFF"/>
				</linearGradient>
				<rect x="191.62" y="137.3" class="st44" width="3.19" height="1.59"/>
			</g>
		</mask>
		<rect x="191.62" y="137.3" class="st9" width="3.19" height="1.59"/>
		<defs>
			<filter id="Adobe_OpacityMaskFilter_20_" filterUnits="userSpaceOnUse" x="43.15" y="137.3" width="142.28" height="1.59">
				<feFlood  style="flood-color:white;flood-opacity:1" result="back"/>
				<feBlend  in="SourceGraphic" in2="back" mode="normal"/>
			</filter>
		</defs>
		<mask maskUnits="userSpaceOnUse" x="43.15" y="137.3" width="142.28" height="1.59" id="SVGID_21_">
			<g class="st45">
				<defs>
					<filter id="Adobe_OpacityMaskFilter_21_" filterUnits="userSpaceOnUse" x="43.15" y="137.3" width="142.28" height="1.59">
						<feFlood  style="flood-color:white;flood-opacity:1" result="back"/>
						<feBlend  in="SourceGraphic" in2="back" mode="normal"/>
					</filter>
				</defs>
				<mask maskUnits="userSpaceOnUse" x="43.15" y="137.3" width="142.28" height="1.59" id="SVGID_21_">
					<g class="st46">
					</g>
				</mask>
				<linearGradient id="SVGID_22_" gradientUnits="userSpaceOnUse" x1="27.7509" y1="138.0951" x2="69.0129" y2="138.0951">
					<stop  offset="0" style="stop-color:#000000"/>
					<stop  offset="1" style="stop-color:#FFFFFF"/>
				</linearGradient>
				<path class="st47" d="M185.43,138.89h-6.19v-1.59h6.19V138.89z M173.06,138.89h-6.19v-1.59h6.19V138.89z M160.69,138.89h-6.19
					v-1.59h6.19V138.89z M148.31,138.89h-6.19v-1.59h6.19V138.89z M135.94,138.89h-6.19v-1.59h6.19V138.89z M123.57,138.89h-6.19
					v-1.59h6.19V138.89z M111.2,138.89h-6.19v-1.59h6.19V138.89z M98.82,138.89h-6.19v-1.59h6.19V138.89z M86.45,138.89h-6.19v-1.59
					h6.19V138.89z M74.08,138.89h-6.19v-1.59h6.19V138.89z M61.71,138.89h-6.19v-1.59h6.19V138.89z M49.33,138.89h-6.19v-1.59h6.19
					V138.89z"/>
			</g>
		</mask>
		<path class="st9" d="M185.43,138.89h-6.19v-1.59h6.19V138.89z M173.06,138.89h-6.19v-1.59h6.19V138.89z M160.69,138.89h-6.19
			v-1.59h6.19V138.89z M148.31,138.89h-6.19v-1.59h6.19V138.89z M135.94,138.89h-6.19v-1.59h6.19V138.89z M123.57,138.89h-6.19
			v-1.59h6.19V138.89z M111.2,138.89h-6.19v-1.59h6.19V138.89z M98.82,138.89h-6.19v-1.59h6.19V138.89z M86.45,138.89h-6.19v-1.59
			h6.19V138.89z M74.08,138.89h-6.19v-1.59h6.19V138.89z M61.71,138.89h-6.19v-1.59h6.19V138.89z M49.33,138.89h-6.19v-1.59h6.19
			V138.89z"/>
		<defs>
			<filter id="Adobe_OpacityMaskFilter_22_" filterUnits="userSpaceOnUse" x="33.77" y="137.3" width="3.19" height="1.59">
				<feFlood  style="flood-color:white;flood-opacity:1" result="back"/>
				<feBlend  in="SourceGraphic" in2="back" mode="normal"/>
			</filter>
		</defs>
		<mask maskUnits="userSpaceOnUse" x="33.77" y="137.3" width="3.19" height="1.59" id="SVGID_23_">
			<g class="st48">
				<defs>
					<filter id="Adobe_OpacityMaskFilter_23_" filterUnits="userSpaceOnUse" x="33.77" y="137.3" width="3.19" height="1.59">
						<feFlood  style="flood-color:white;flood-opacity:1" result="back"/>
						<feBlend  in="SourceGraphic" in2="back" mode="normal"/>
					</filter>
				</defs>
				<mask maskUnits="userSpaceOnUse" x="33.77" y="137.3" width="3.19" height="1.59" id="SVGID_23_">
					<g class="st49">
					</g>
				</mask>
				<linearGradient id="SVGID_24_" gradientUnits="userSpaceOnUse" x1="27.7508" y1="138.0951" x2="69.013" y2="138.0951">
					<stop  offset="0" style="stop-color:#000000"/>
					<stop  offset="1" style="stop-color:#FFFFFF"/>
				</linearGradient>
				<rect x="33.77" y="137.3" class="st50" width="3.19" height="1.59"/>
			</g>
		</mask>
		<rect x="33.77" y="137.3" class="st9" width="3.19" height="1.59"/>
	</g>
	<g>
		<path id="XMLID_1_" class="st10" d="M397.66,405.72h-40.18c-1.34,0-2.47-1.01-2.62-2.34l-6.34-55.76h58.11l-6.34,55.76
			C400.13,404.71,399,405.72,397.66,405.72z"/>
		<ellipse class="st51" cx="377.56" cy="348.28" rx="29.05" ry="3.3"/>
		<path class="st9" d="M374.92,240.65c-15.85,1.32-10.56,48.86-10.56,48.86c3.96,40.94,9.24,59.43,13.21,60.75
			c3.96,1.32,11.89-58.11,11.89-72.63C389.45,277.62,390.77,239.33,374.92,240.65z"/>
		<path class="st14" d="M376.9,343.65c-0.03,0-0.05,0-0.08,0c-0.36-0.04-0.62-0.37-0.58-0.74c5.21-43-1.25-97.02-1.32-97.56
			c-0.04-0.36,0.21-0.69,0.58-0.74c0.35-0.05,0.69,0.21,0.74,0.58c0.07,0.54,6.55,54.72,1.32,97.88
			C377.52,343.41,377.23,343.65,376.9,343.65z"/>
		<path class="st2" d="M327.38,218.2c-1.32,6.6,6.6,7.92,7.92,17.17c1.32,9.24-2.64,11.89-1.32,17.17
			c1.32,5.28,9.24,6.6,10.56,19.81c1.32,13.21-3.96,11.89-2.64,19.81c1.32,7.92,9.24,7.92,10.56,14.53
			c1.32,6.6,1.32,15.85,3.96,23.77c2.64,7.92,10.56,19.81,14.53,19.81c3.96,0,14.53-22.45,11.89-29.05c-2.64-6.6-6.6-7.92-6.6-13.21
			s5.28-18.49,3.96-27.73c-1.32-9.24-13.21-13.21-14.53-19.81c-1.32-6.6,2.64-23.77-6.6-31.69S328.7,211.6,327.38,218.2z"/>
		<path class="st6" d="M452.84,232.73c4.67,4.67-10.56,6.6-11.89,15.85c-1.32,9.24-1.32,13.21-6.6,18.49
			c-5.28,5.28-13.21,6.6-11.89,14.53c1.32,7.92,3.96,15.85,0,19.81c-3.96,3.96-13.21,3.96-15.85,10.56
			c-2.64,6.6-1.32,14.53-6.6,21.13c-5.28,6.6-13.21,19.81-19.81,17.17c-6.6-2.64-2.64-33.01,0-38.3c2.64-5.28,5.28-9.24,5.28-13.21
			c0-3.96-1.32-10.56,1.32-17.17c2.64-6.6,17.17-9.24,18.49-13.21c1.32-3.96,2.64-25.09,10.56-30.37
			C423.78,232.73,444.91,224.8,452.84,232.73z"/>
		<path class="st14" d="M382.25,347.99c-0.12,0-0.23-0.03-0.34-0.09c-0.31-0.19-0.41-0.59-0.23-0.91c0.05-0.09,5.34-8.93,6.46-13.4
			c0.29-1.15,0.64-2.9,1.04-4.91c1.46-7.33,3.67-18.41,7.06-21.8c4.93-4.93,12.8-20.02,18.32-39.33
			c6.8-23.79,29.27-30.76,29.5-30.82c0.36-0.11,0.72,0.09,0.82,0.44c0.1,0.35-0.09,0.72-0.44,0.82
			c-0.22,0.07-22.01,6.84-28.61,29.92c-5.58,19.53-13.61,34.86-18.66,39.9c-3.11,3.11-5.36,14.39-6.7,21.13
			c-0.41,2.04-0.76,3.79-1.05,4.98c-1.16,4.66-6.39,13.39-6.61,13.76C382.7,347.88,382.48,347.99,382.25,347.99z"/>
		<path class="st14" d="M370.89,345.1c-0.36,0-0.66-0.29-0.66-0.66c0-0.17-0.11-17.33-5.14-22.36c-5.1-5.1-8.01-20.71-9.44-50.62
			c-1.29-27.17-20.77-49.55-20.97-49.78c-0.24-0.27-0.22-0.69,0.06-0.93c0.28-0.24,0.69-0.22,0.93,0.06
			c0.2,0.23,19.98,22.94,21.29,50.59c1.39,29.15,4.26,44.96,9.05,49.75c5.41,5.41,5.53,22.56,5.53,23.29
			C371.55,344.8,371.25,345.1,370.89,345.1C370.89,345.1,370.89,345.1,370.89,345.1z"/>
	</g>
</g>
</svg>
