<?xml version="1.0" encoding="utf-8"?>
<!-- Generator: Adobe Illustrator 25.0.0, SVG Export Plug-In . SVG Version: 6.00 Build 0)  -->
<svg version="1.1" id="Layer_1" xmlns="http://www.w3.org/2000/svg" xmlns:xlink="http://www.w3.org/1999/xlink" x="0px" y="0px"
	 viewBox="0 0 450 450" style="enable-background:new 0 0 450 450;" xml:space="preserve">
<style type="text/css">
	.st0{opacity:0.12;fill:url(#SVGID_1_);}
	.st1{fill:#60E99C;}
	.st2{fill:#082947;}
	.st3{fill:#1B3149;}
	.st4{fill:#F0FBFF;}
	.st5{fill:url(#SVGID_2_);}
	.st6{fill:#1B4360;}
	.st7{fill:#FCFCFC;}
	.st8{fill:#FFB44A;}
	.st9{clip-path:url(#SVGID_4_);}
	.st10{fill:#0F1B29;}
	.st11{fill:#F4BE9A;}
	.st12{fill:url(#SVGID_5_);}
	.st13{fill:url(#SVGID_6_);}
	.st14{fill:#56CD93;}
	.st15{fill:url(#SVGID_7_);}
	.st16{fill:url(#SVGID_8_);}
	.st17{fill:#014F6D;}
	.st18{fill:#7C7C7C;}
	.st19{fill:#F23C06;}
	.st20{fill:#DD2A00;}
	.st21{opacity:0.5;fill:url(#SVGID_9_);}
	.st22{fill:#F2A040;}
	.st23{fill:#62CAEF;}
	.st24{opacity:0.75;fill:url(#SVGID_10_);}
	.st25{fill:url(#SVGID_11_);}
	.st26{fill:url(#SVGID_12_);}
	.st27{fill:url(#SVGID_13_);}
	.st28{opacity:0.5;fill:#56CD93;}
</style>
<g>
	
		<linearGradient id="SVGID_1_" gradientUnits="userSpaceOnUse" x1="-1287.7837" y1="-1583.9907" x2="-828.2316" y2="-1583.9907" gradientTransform="matrix(0.7935 0.6085 -0.6085 0.7935 86.607 2120.261)">
		<stop  offset="0" style="stop-color:#5BDB98"/>
		<stop  offset="1" style="stop-color:#60E99C"/>
	</linearGradient>
	<path class="st0" d="M6,218.29C-17.16,129.92,23.78-2.4,181.15,64.92c77.55,33.17,25.48,82.12,45.86,85.66
		c23.46,4.08,34.67-54.09,70.75-63.17c55.88-14.07,164.45,91.36,151.11,178.11c-14.97,97.29-183.39,171.82-306.21,122.15
		C40.34,346.3,10.41,235.12,6,218.29z"/>
	<g>
		<g>
			<g>
				<path class="st1" d="M298.51,211.6c-0.22-0.31,10.11,6.97,15.65,17.22c5.89,9.81,7,22.58-3.6,23
					c-10.54,0.85-10.71-7.75-11.29-18.12C299.16,223.57,298.63,211.67,298.51,211.6z"/>
				<g>
					<path class="st1" d="M296.79,204.15c0.28-0.08,10.18,12.81,19,18.39c9.71,6.25,14.07-4.59,4.58-11.16
						C310.3,205.1,303.04,208.3,296.79,204.15z"/>
					<g>
						<path class="st2" d="M288.73,199.81C288.73,199.81,288.73,199.81,288.73,199.81c-0.15,0.17-0.13,0.42,0.03,0.57
							c0.17,0.15,0.42,0.13,0.56-0.03v0c0,0,0,0,0,0c0.41-0.46,0.77-0.67,1.17-0.68c0.82-0.02,2.03,0.82,3.69,2.57
							c7.51,7.75,19.07,12.98,22.86,14.7c0.52,0.24,0.98,0.44,1.1,0.51c0.12,0.11,0.31,0.14,0.46,0.05
							c0.19-0.11,0.26-0.35,0.15-0.54c-0.09-0.16-0.14-0.18-1.38-0.74c-3.76-1.7-15.21-6.89-22.62-14.53
							c-1.87-1.96-3.2-2.83-4.29-2.81C289.65,198.88,289.08,199.41,288.73,199.81z"/>
					</g>
				</g>
				<path class="st1" d="M276.75,186.02c0.38-0.27,17.22,11.77,29.73,15.97c13.92,4.78,15.5-10.75,1.44-15.79
					C293.31,181.89,285.87,188.7,276.75,186.02z"/>
				<g>
					<path class="st1" d="M282.36,199.03c-0.08,0.01,4.56,3.46,8.44,9.13c3.95,5.56,7.14,13.33,5.69,19.45
						c-1.52,6.54-7.04,8.28-11.5,7.94c-4.55-0.47-8.03-3.02-7.66-8.35C277.81,215.65,286.44,207.54,282.36,199.03z"/>
					<g>
						<path class="st2" d="M277.71,190.86c0,0-0.01,0.01-0.01,0.01c-1.12,1.37-1.09,2.5,2.02,5.58c4.71,4.6,6.85,12.93,7.29,19.19
							c0.47,5.48-0.29,9.9-0.54,11.35c-0.1,0.59-0.12,0.67,0.02,0.82c0.08,0.09,0.19,0.14,0.31,0.14c0.22,0,0.4-0.18,0.4-0.4
							c0-0.01,0-0.02,0-0.03c0.01-0.07,0.04-0.23,0.07-0.39c0.26-1.48,1.04-5.97,0.55-11.55c-0.45-6.4-2.66-14.93-7.52-19.69
							c-3.12-3.09-2.61-3.71-1.96-4.5c0.14-0.17,0.11-0.42-0.06-0.56C278.09,190.68,277.85,190.7,277.71,190.86z"/>
					</g>
				</g>
				<path class="st2" d="M271.47,182.89l-0.84,0.49c0.46,0.2,0.96,0.45,1.53,0.76c11.62,6.17,26.52,9.82,32.13,11.2
					c1.06,0.26,1.99,0.49,2.18,0.56c0.15,0.1,0.34,0.09,0.48-0.03c0.17-0.14,0.19-0.4,0.04-0.56c-0.13-0.15-0.14-0.16-2.51-0.75
					c-5.58-1.37-20.41-5.01-31.94-11.13C272.16,183.23,271.8,183.04,271.47,182.89z"/>
				<path class="st2" d="M267.65,185.13c22.36,11.5,39.46,33.34,40.4,52.91c0.01,0.22,0.2,0.39,0.42,0.38
					c0.22-0.01,0.39-0.2,0.38-0.42c-0.95-19.71-18.02-41.66-40.39-53.35L267.65,185.13z"/>
			</g>
			<g>
				<path class="st1" d="M312.03,100.42c0.02,0.38,3.87-11.65,2.12-23.17c-1.21-11.38-8.01-22.24-16.73-16.19
					c-8.93,5.67-3.88,12.63,1.9,21.26C305.33,90.47,312.08,100.29,312.03,100.42z"/>
				<g>
					<path class="st1" d="M315.14,107.4c0.27-0.11,0.41-16.35,4.09-26.12c3.99-10.84,14-4.81,10.38,6.15
						C325.35,98.5,317.63,100.32,315.14,107.4z"/>
					<g>
						<path class="st2" d="M311.33,115.72C311.33,115.72,311.32,115.72,311.33,115.72c-0.22-0.04-0.36-0.26-0.32-0.47
							c0.04-0.22,0.26-0.36,0.47-0.31h0l0,0c0.6,0.12,1.01,0.07,1.34-0.17c0.67-0.48,1.13-1.88,1.4-4.27
							c1.33-10.71,7.4-21.85,9.39-25.51c0.28-0.51,0.52-0.95,0.57-1.07c0.03-0.16,0.17-0.29,0.34-0.32
							c0.22-0.03,0.42,0.13,0.45,0.34c0.02,0.18,0,0.23-0.65,1.43c-1.98,3.63-7.99,14.66-9.3,25.22c-0.31,2.7-0.84,4.19-1.73,4.83
							C312.62,115.91,311.85,115.83,311.33,115.72z"/>
					</g>
				</g>
				<path class="st1" d="M273.08,179.63c0.27,0.03,10.3-10.29,19.92-13.79c10.59-4.1,13.22,7.23,2.72,11.86
					C284.68,181.8,281.86,175.56,273.08,179.63z"/>
				<g>
					<path class="st1" d="M310.07,133.95c0.46-0.01,6.65-19.77,14.11-30.65c8.23-12.2,18.85-0.76,10.66,11.74
						C325.78,127.26,315.73,126.31,310.07,133.95z"/>
					<g>
						<path class="st2" d="M304,142.46c-0.42-0.08-0.8-0.25-1.14-0.42c-0.2-0.1-0.28-0.34-0.18-0.54c0.1-0.2,0.34-0.28,0.54-0.18
							c0.77,0.39,1.31,0.48,1.79,0.31c0.8-0.29,1.61-1.37,2.53-3.42c5.56-11.92,15.25-23.82,18.9-28.3c0.69-0.85,1.29-1.58,1.4-1.76
							c0.06-0.16,0.22-0.28,0.4-0.27c0.22,0.01,0.39,0.2,0.37,0.43c-0.01,0.2-0.01,0.21-1.56,2.11
							c-3.63,4.46-13.27,16.3-18.79,28.12c-1.03,2.28-1.95,3.47-2.98,3.84C304.84,142.55,304.4,142.55,304,142.46z"/>
					</g>
				</g>
				<g>
					<path class="st1" d="M292.79,161.33c0.47,0.01,11.57-16.9,23.42-25.68c6.46-4.69,11.2-2.37,12.46,3.1
						c1.32,5.32-0.84,13.79-6.82,17.85C309.2,164.97,300.43,155.69,292.79,161.33z"/>
					<g>
						<path class="st2" d="M285.21,168.06c-0.36-0.07-0.69-0.26-1-0.56c-0.16-0.15-0.16-0.41-0.01-0.57
							c0.15-0.16,0.41-0.16,0.57-0.01c0.28,0.27,0.54,0.38,0.84,0.37c0.8-0.03,1.99-0.93,3.52-2.66
							c5.54-6.29,13.04-10.89,19.63-14.71c3.7-2.09,6.71-3.71,8.18-4.49c3.6-1.91,3.61-1.9,3.86-1.74c0.13,0.08,0.2,0.22,0.19,0.37
							c-0.01,0.18-0.15,0.33-0.32,0.36c-0.56,0.23-5.54,2.82-11.51,6.2c-6.54,3.79-13.97,8.35-19.43,14.55
							c-1.73,1.96-3.03,2.89-4.09,2.93C285.5,168.09,285.35,168.08,285.21,168.06z"/>
					</g>
				</g>
				<g>
					<path class="st1" d="M306.93,120.16c-0.07,0.04,1.56-5.51,1.24-12.37c-0.2-6.82-2.33-14.94-7.18-18.96
						c-5.15-4.3-10.61-2.36-13.96,0.58c-3.34,3.12-4.59,7.25-1.08,11.28C293.28,109.63,305.06,110.9,306.93,120.16z"/>
					<g>
						<path class="st2" d="M308.14,129.48c0,0-0.01,0-0.02,0c-1.72-0.42-2.38-1.34-1.75-5.67c0.98-6.51-2.32-14.45-5.74-19.7
							c-2.92-4.66-6.2-7.73-7.27-8.73c-0.44-0.41-0.49-0.46-0.48-0.67c0.01-0.12,0.07-0.23,0.16-0.3c0.18-0.13,0.43-0.09,0.56,0.08
							c0.01,0.01,0.01,0.02,0.02,0.02c0.05,0.05,0.17,0.16,0.29,0.28c1.1,1.03,4.43,4.15,7.4,8.89c3.5,5.37,6.88,13.52,5.86,20.25
							c-0.63,4.34,0.16,4.53,1.15,4.78c0.21,0.05,0.35,0.27,0.29,0.48C308.55,129.39,308.34,129.52,308.14,129.48z"/>
					</g>
				</g>
				<g>
					<path class="st1" d="M294.89,149.77c-0.11,0.04,3.75-5.63,5.64-13.46c2.03-7.73,2.1-17.61-2.35-23.65
						c-4.73-6.48-11.43-6.19-16.04-4.21c-4.67,2.2-7.24,6.09-5.02,11.83C281.74,134.01,293.63,139.23,294.89,149.77z"/>
					<g>
						<path class="st2" d="M292.32,158.6c-0.06-0.01-0.11-0.04-0.16-0.07l-0.03-0.02c-1.22-0.93-1.77-1.76,0.86-5.47
							c3.33-4.59,2.89-13.93,1.08-20.67c-1.47-6.01-4.06-10.57-4.91-12.07c-0.33-0.57-0.37-0.65-0.27-0.85
							c0.06-0.12,0.17-0.2,0.3-0.22c0.21-0.03,0.4,0.1,0.45,0.29c0.04,0.07,0.12,0.22,0.22,0.39c0.87,1.52,3.5,6.16,4.99,12.27
							c1.86,6.91,2.28,16.54-1.2,21.33c-2.38,3.35-1.84,3.75-1.03,4.37l0.03,0.02c0.18,0.13,0.21,0.38,0.08,0.56
							C292.62,158.58,292.47,158.63,292.32,158.6z"/>
					</g>
				</g>
				<g>
					<path class="st1" d="M276.09,171.74c-0.11,0.05,4.88-5.16,7.98-12.56c3.25-7.3,4.61-16.8,0.84-23.03
						c-4.02-6.62-10.58-7.09-15.29-5.64c-4.8,1.66-7.76,5.23-6.63,11.56C264.96,157.03,275.88,161.49,276.09,171.74z"/>
					<g>
						<path class="st2" d="M269.74,179.41c-0.1-0.02-0.19-0.07-0.25-0.16c-0.28-0.4-0.38-0.82-0.29-1.25
							c0.21-0.96,1.35-1.99,3.7-3.35c4.92-2.82,6.01-12.04,4.93-19.42c-0.76-6.43-3.12-11.7-3.89-13.44
							c-0.29-0.64-0.32-0.71-0.2-0.91c0.07-0.11,0.19-0.19,0.32-0.19c0.21-0.01,0.39,0.13,0.42,0.34c0.03,0.08,0.11,0.25,0.19,0.43
							c0.78,1.76,3.17,7.12,3.95,13.66c1.11,7.63-0.09,17.22-5.33,20.22c-2.05,1.19-3.16,2.14-3.31,2.83c-0.05,0.21,0,0.4,0.16,0.62
							c0.13,0.18,0.09,0.43-0.1,0.56C269.95,179.41,269.84,179.43,269.74,179.41z"/>
					</g>
				</g>
				<path class="st2" d="M304.38,73.12c-0.12-0.18-0.37-0.23-0.56-0.1c-0.18,0.12-0.23,0.37-0.11,0.56
					c12.44,18.24,10.24,51.14-5.02,74.91c-6.91,11.8-17.18,22.28-30.53,31.15l1.1,0.22c13.13-8.84,23.26-19.25,30.11-30.95
					C314.79,124.89,316.99,91.6,304.38,73.12z"/>
				<path class="st2" d="M294.82,171.25L294.82,171.25c-0.09-0.02-10.17,0.2-23.44,9.03l1.11,0.22c12.47-8.09,21.93-8.46,22.18-8.46
					c0.2,0.03,0.4-0.11,0.44-0.31C295.17,171.51,295.04,171.3,294.82,171.25z"/>
			</g>
			<g>
				<path class="st3" d="M258.31,107.84c-26.26,6.42-52.53,12.83-78.79,19.25c-7.62,1.91-13.85,10.9-13.85,19.98
					c0,67.01,0,134.02,0,201.02c0,9.07,6.23,18.07,13.85,19.98c26.27,6.41,52.53,12.83,78.79,19.25c7.62,1.91,13.85-5.7,13.85-16.9
					c0-81.9,0-163.79,0-245.69C272.16,113.54,265.93,105.93,258.31,107.84z"/>
				<path class="st4" d="M262.22,360.48c0,6.11-3.42,10.32-7.64,9.37c-26.27-5.83-52.52-11.66-78.79-17.48
					c-4.21-0.95-7.64-5.86-7.64-10.96c0-64.5,0-127.51,0-192.02c0-5.1,3.43-9.99,7.64-10.91c3.01-0.65,6.02-1.3,9.03-1.94
					c0.24,4.93,3.51,8.25,7.54,7.47c15.22-3,30.44-6,45.65-9c4.03-0.79,7.3-5.86,7.54-11.53c3.01-0.65,6.02-1.29,9.03-1.94
					c4.22-0.92,7.65,3.31,7.64,9.43C262.22,207.96,262.22,283.48,262.22,360.48z"/>
				<linearGradient id="SVGID_2_" gradientUnits="userSpaceOnUse" x1="215.1878" y1="23.7841" x2="215.1878" y2="327.2357">
					<stop  offset="0" style="stop-color:#FFFFFF"/>
					<stop  offset="0.3448" style="stop-color:#9D9D9D"/>
					<stop  offset="0.6659" style="stop-color:#494949"/>
					<stop  offset="0.8906" style="stop-color:#141414"/>
					<stop  offset="1" style="stop-color:#000000"/>
				</linearGradient>
				<path class="st5" d="M262.22,360.48c0,6.11-3.42,10.32-7.64,9.37c-26.27-5.83-52.52-11.66-78.79-17.48
					c-4.21-0.95-7.64-5.86-7.64-10.96c0-64.5,0-127.51,0-192.02c0-5.1,3.43-9.99,7.64-10.91c3.01-0.65,6.02-1.3,9.03-1.94
					c0.24,4.93,3.51,8.25,7.54,7.47c15.22-3,30.44-6,45.65-9c4.03-0.79,7.3-5.86,7.54-11.53c3.01-0.65,6.02-1.29,9.03-1.94
					c4.22-0.92,7.65,3.31,7.64,9.43C262.22,207.96,262.22,283.48,262.22,360.48z"/>
				<g>
					<g>
						<path class="st4" d="M191.92,140.45c-1.05,0-1.99-0.73-2.21-1.8c-0.26-1.22,0.53-2.42,1.75-2.67l28.84-6
							c1.23-0.26,2.42,0.53,2.67,1.75c0.25,1.22-0.53,2.42-1.75,2.67l-28.84,6C192.23,140.43,192.08,140.45,191.92,140.45z"/>
					</g>
					<g>
						<path class="st4" d="M226.75,133.11c-1.05,0-1.99-0.73-2.21-1.8c-0.25-1.22,0.53-2.42,1.75-2.67l10.08-2.1
							c1.23-0.26,2.42,0.53,2.67,1.75c0.25,1.22-0.53,2.42-1.75,2.67l-10.08,2.1C227.06,133.09,226.91,133.11,226.75,133.11z"/>
					</g>
				</g>
				<path class="st6" d="M259.11,107.68c5.39,0.99,9.36,7.79,9.36,17.06c0,81.9,0,163.79,0,245.69c0,9.26-3.97,16.07-9.37,17.06
					c7.25,1.21,13.06-6.26,13.06-17.06c0-81.9,0-163.79,0-245.69C272.16,113.93,266.36,106.47,259.11,107.68z"/>
				<path class="st7" d="M255.17,121.44c3.32,0.37,5.8,4.24,5.79,9.52c0,77,0,152.52,0,229.52c0,5.25-2.46,9.09-5.76,9.47
					c3.93,0.42,7.02-3.66,7.02-9.47c0-77,0-152.52,0-229.52C262.23,125.13,259.12,121.02,255.17,121.44z"/>
				<path class="st8" d="M169.41,341.4c0-64.5,0-127.51,0-192.02c0-5.1,3.33-9.99,7.43-10.91c2.66-0.59,5.32-1.18,7.99-1.76
					c0-0.06-0.01-0.12-0.01-0.18c-3.01,0.65-6.02,1.29-9.03,1.94c-4.21,0.92-7.64,5.81-7.64,10.91c0,64.51,0,127.52,0,192.02
					c0,5.1,3.43,10.01,7.64,10.96c13.13,2.91,26.26,5.83,39.39,8.74c-12.78-2.91-25.56-5.83-38.34-8.74
					C172.74,351.41,169.41,346.5,169.41,341.4z"/>
			</g>
		</g>
		<g>
			<defs>
				<path id="SVGID_3_" d="M254.58,121.53c-3.01,0.65-1.73,0.37-1.73,0.37l-194.7,41.84c0,51.14,0,101.72,0,153.24
					c0,5.1,3.43,10.01,7.64,10.96c25.42,5.64,50.84,11.28,76.26,16.92c0.01,0,0.01,0,0.02,0.01c26.26,5.83,52.52,11.65,78.79,17.48
					c0.06,0.01,0.11,0.02,0.17,0.03c11.18,2.48,22.37,4.96,33.55,7.45c4.22,0.95,7.64-3.25,7.64-9.37c0-77,0-152.52,0-229.52
					C262.23,124.84,258.8,120.61,254.58,121.53z"/>
			</defs>
			<clipPath id="SVGID_4_">
				<use xlink:href="#SVGID_3_"  style="overflow:visible;"/>
			</clipPath>
			<g class="st9">
				<g>
					<g>
						<g>
							<path class="st10" d="M226.12,382.41c1.29-4.97,4.26-15.71,4.51-16.88c0.28-1.3,0.64-3.4,4.39-1.55
								c3.74,1.85,4.95,2.36,4.95,2.36s-8.82,15.98-9.99,17.58C228.83,385.51,225.2,385.96,226.12,382.41z"/>
							<g>
								<path class="st11" d="M230.77,369.63c0,0,1.4-0.6,1.77-1.87c0.55-1.91-0.42-2.59-0.42-2.59s-10.17-4.33-16.21-9.06
									c-1.36-1.07-4.53-3.24-8.31-5.89l-3.37,10.84C218.2,365.57,230.77,369.63,230.77,369.63z"/>
								<linearGradient id="SVGID_5_" gradientUnits="userSpaceOnUse" x1="172.663" y1="301.1936" x2="174.294" y2="359.915">
									<stop  offset="0" style="stop-color:#0F1E2D"/>
									<stop  offset="1" style="stop-color:#082947"/>
								</linearGradient>
								<path class="st12" d="M141.87,324.5c-4.8,9.51-2.47,16.28,2.92,18.16c12.29,4.3,12.64,3.47,27.65,8.22
									c6.87,2.17,20.16,6.76,31.98,10.56l3.92-10.99c-13.8-9.35-39.94-25.97-46.12-29.75
									C154.25,315.82,146.67,314.99,141.87,324.5z"/>
							</g>
						</g>
						<g>
							<g>
								<path class="st11" d="M145.24,237.84c0,0-11.9,5.03-15.7,5.88c-2.72,0.61-4.09-3.25-3.63-5.58
									c0.69-3.5,5.88-8.67,12.58-12.05C143.62,223.5,145.87,236.91,145.24,237.84z"/>
								<path class="st1" d="M175.54,232.98c-8.64,6.37-31.29,16.21-31.29,16.21s-3.24-1.48-6.87-7.42
									c-5.46-8.93-4.77-13.41-4.77-13.41s19.07-15.11,32.84-24.01c10.9-7.04,15.35-0.74,15.91,8.82
									C181.85,221.45,180.37,229.42,175.54,232.98z"/>
							</g>
						</g>
						<linearGradient id="SVGID_6_" gradientUnits="userSpaceOnUse" x1="173.2458" y1="301.1778" x2="174.8768" y2="359.8992">
							<stop  offset="0" style="stop-color:#0F1E2D"/>
							<stop  offset="1" style="stop-color:#082947"/>
						</linearGradient>
						<path class="st13" d="M177.25,275.09c0,0-33.01,41.51-39.27,50.09c-1.12,1.53-1.56,4.79-1.27,7.83
							c0.78,8.08,11.68,14.17,22.41,8.4c13.06-7.01,30.96-17.02,39.88-27.76c8.92-10.75,13.1-21.1,10.57-33.88
							C207.04,267,186.13,263.9,177.25,275.09z"/>
						<g>
							<g>
								<path class="st10" d="M272.85,417.13c0.8-1.06,2.02-2.82,4.62,0.43c2.59,3.25,3.47,4.26,3.47,4.26s-4.35,3.17-8.61,6.11
									h-8.52C266.92,424.02,272.33,417.81,272.85,417.13z"/>
								<path class="st10" d="M261.72,423.87c2.46-0.75,5.3-1.44,7.08-1.92l3.18,5.99c0,0-6.55,0-9.3,0
									C260.81,427.94,258.22,424.94,261.72,423.87z"/>
							</g>
							<g>
								<path class="st11" d="M271.14,420.42c0,0,1.48,0.35,2.53-0.46c1.57-1.22,1.19-2.33,1.19-2.33s-5.63-9.52-7.7-16.9
									c-0.47-1.67-1.73-5.29-3.21-9.67l-9.13,6.74C263.42,409.7,271.14,420.42,271.14,420.42z"/>
								<path class="st2" d="M226.24,331.41c-9.5,4.82-11.63,11.66-8.4,16.36c7.36,10.74,8.13,10.28,17.41,23
									c4.25,5.82,12.24,17.38,19.51,27.45l9.67-6.53c-5.58-15.71-16.8-44.58-19.54-51.29
									C241.36,331.74,235.74,326.59,226.24,331.41z"/>
							</g>
						</g>
						<path class="st2" d="M188.35,282.28c0,0,23.72,53.67,28.13,63.1c4.41,9.43,23.77,4.04,23.91-10.48
							c0.14-14.52,6.48-52.25-13.78-71.24C214.36,252.19,182.93,269.38,188.35,282.28z"/>
						<path class="st14" d="M193.16,194.26c16.53-2.39,21.88,8.18,25.76,20.02c10.04,30.68,18.3,64.41,18.3,64.41
							s-9.73,8.79-37.56,15.32c-27.52,6.45-34.93-6.02-34.93-6.02s-3.95-40.83-1.09-75.22c0.69-8.34,5.62-12.19,18.67-16.24
							C186.03,195.38,189.08,194.84,193.16,194.26z"/>
						<path class="st2" d="M175.13,198.62c-0.12,5-1.76,16.28,9.7,13.8c13.47-2.91,14.09-17.43,13.07-18.9
							c-2.31-3.33-7.39-0.48-10.78,0.3C183.72,194.61,175.22,194.38,175.13,198.62z"/>
						<path class="st11" d="M194.28,193.83c-0.67,0.05-1.34,0.12-2.03,0.21c-3.87,0.51-6.85,1.31-10.8,2.48
							c-1.24,0.37-2.38,0.8-3.4,1.29c0.09,3.22-1.6,12.47,7.07,10.85C194.03,207,194.98,196.82,194.28,193.83z"/>
						<g>
							<path class="st2" d="M165.45,182.65c-6.34-2.78-9.91-16.06-3.26-22.17c10.3-9.47,8.22,3.27,13.45,1.75
								c11.37-3.31,16.57,3.12,17.74,12.46c0.72,5.78-2.97,10.14-7.71,13.01c-2.1,1.27-3.28-4.82-9.87-6.02
								C169.19,180.47,165.45,182.65,165.45,182.65z"/>
							<g>
								<path class="st11" d="M189.46,190.81c-4.83-8.67-6.79-9.53-11.5-15.82c-0.07-0.26-10.26,4.52-14.53-0.14
									c0,0,1.2,7.26,3.8,12.84c2.45,5.26,4.92,7.81,9.6,3.67c0.74,2.7,2.47,5.53,3.09,7.9c1.25,4.79,4.86,4.92,7.02,4.01
									C189.11,202.36,193.92,198.84,189.46,190.81z"/>
							</g>
							<path class="st11" d="M184.37,175.56c1.37,0.83,1.49,3.15,0.26,5.18c-1.23,2.02-2.81,2.69-3.78,1.42
								c-1.33-1.74-2.04-3.08-1.18-4.43C180.94,175.73,183,174.73,184.37,175.56z"/>
						</g>
						<path class="st11" d="M127.3,233.26c4.72,0.81,6.05,3.82,4.85,8.25c-0.75,2.78-6.75,3.1-10.76,3.02
							c-8.81-0.16-39.88-3.13-43.55-2.06l0.3-5.79C83.98,238.48,114.59,231.09,127.3,233.26z"/>
						<g>
							
								<linearGradient id="SVGID_7_" gradientUnits="userSpaceOnUse" x1="13323.9961" y1="166.1498" x2="13330.1943" y2="221.6096" gradientTransform="matrix(-0.9999 0.0115 0.0115 0.9999 13397.2412 -88.0072)">
								<stop  offset="0" style="stop-color:#F4AA74"/>
								<stop  offset="0.4273" style="stop-color:#F4B386"/>
								<stop  offset="1" style="stop-color:#F4BE9A"/>
							</linearGradient>
							<path class="st15" d="M78.57,232.62c-0.74-1.34-3.35-5.32-4.42-4.73c-2.53,1.39,0.16,2.89-0.09,6.52
								c-0.16,2.35,5.42,2.91,5.42,2.91S80.11,235.42,78.57,232.62z"/>
							
								<linearGradient id="SVGID_8_" gradientUnits="userSpaceOnUse" x1="13327.0576" y1="166.8466" x2="13332.7256" y2="217.5549" gradientTransform="matrix(-0.9999 0.0115 0.0115 0.9999 13397.2412 -88.0072)">
								<stop  offset="0" style="stop-color:#F4AA74"/>
								<stop  offset="0.4273" style="stop-color:#F4B386"/>
								<stop  offset="1" style="stop-color:#F4BE9A"/>
							</linearGradient>
							<path class="st16" d="M71.28,243.28c4.67,1.46,5.09,0.03,7.14-1.06c0,0,0.01,0,0.02,0c0,0,1.79-4.28,0.97-6.13
								c-3.06-6.94-2.69-2.96-9.97-4.64C64.69,230.36,65.76,241.56,71.28,243.28z"/>
						</g>
						<path class="st14" d="M221.27,216.47c-7.02-23.93-19.89-23.05-20.79-23.05c-0.9,0,2.45,18.92-16.56,22.75
							c-16.33,3.29-10.15-16.88-10.15-16.88s-5.22,2.05-8.66,6.71c-3.77,5.1-3.85,23.63-3.69,39.69
							c0.16,16.06,1.18,38.26,1.18,38.26s3.36,5.77,26.55,5.71c26.05-0.07,49.42-16.15,49.42-16.15S228.29,240.4,221.27,216.47z
							 M209.53,232.41c-4.65-6.44-7.5-9.87-7.83-16.39c-0.17-3.36-0.77-10.8,4.51-12.7c6.61-2.39,11.66,5.42,14.5,18.47
							C223.89,236.41,214.18,238.85,209.53,232.41z"/>
						<g>
							<path class="st17" d="M180.84,217.45c-2.97,0-5.26-0.9-6.84-2.7c-4.46-5.07-1.3-15.32-1.17-15.75
								c0.16-0.52,0.71-0.8,1.23-0.64c0.52,0.16,0.8,0.71,0.64,1.23c-0.03,0.1-2.96,9.64,0.77,13.88c1.63,1.85,4.42,2.44,8.28,1.75
								c14.83-2.66,15.33-15.38,15.52-20.17c0.06-1.56,0.1-2.6,1.2-2.6c0.54,0,0.98,0.44,0.98,0.98c0,0.2-0.06,0.39-0.16,0.54
								c-0.03,0.25-0.05,0.72-0.06,1.15c-0.19,4.72-0.76,19.09-17.13,22.02C182.93,217.35,181.85,217.45,180.84,217.45z"/>
						</g>
						<g>
							<g>
								<g>
									<path class="st18" d="M187.12,230.47c-0.54,0.02-0.95,0.48-0.91,1.01l0.71,10.17c0.04,0.54,0.43,1.23,0.86,1.55l5.11,3.67
										c0.44,0.31,1.11,0.26,1.49-0.12l3.93-3.86c0.38-0.38,0.68-1.13,0.66-1.67l-0.35-10.21c-0.02-0.54-0.47-0.96-1.01-0.94
										L187.12,230.47z"/>
								</g>
							</g>
							<path class="st17" d="M198.63,231.01c-0.02-0.54-0.47-0.96-1.01-0.94l-10.49,0.4c-0.54,0.02-0.95,0.48-0.91,1.01l0.13,1.93
								c3.9-0.1,8.05-0.24,12.35-0.45L198.63,231.01z"/>
						</g>
						<g>
							<path class="st19" d="M174.04,164.79c0,0-1.98,11.56,6.09,13.36c9.38,2.09,12.01-7.89,12.01-7.89L174.04,164.79z
								 M180.87,177.22c-0.99-0.1-1.7-0.99-1.6-1.98c0.11-0.99,0.99-1.7,1.98-1.6c0.99,0.11,1.7,0.99,1.6,1.98
								C182.74,176.61,181.86,177.32,180.87,177.22z"/>
							<path class="st8" d="M174.04,164.79c0,0-1.98,11.56,6.09,13.36c9.38,2.09,12.01-7.89,12.01-7.89L174.04,164.79z
								 M180.87,177.22c-0.99-0.1-1.7-0.99-1.6-1.98c0.11-0.99,0.99-1.7,1.98-1.6c0.99,0.11,1.7,0.99,1.6,1.98
								C182.74,176.61,181.86,177.32,180.87,177.22z"/>
							<g>
								<path class="st19" d="M193.19,171.35c0.01-0.04,0.03-0.08,0.04-0.12c2.59-8.91-2.53-18.22-11.43-20.82
									c-8.9-2.59-18.23,2.53-20.82,11.43c-0.01,0.04-0.02,0.08-0.03,0.12L193.19,171.35z"/>
								<path class="st8" d="M164.48,162.99l1.93,0.56c2.25-7.12,7.94-12.05,14.07-12.78c0.73-0.09,1.47-0.11,2.22-0.07
									c-0.29-0.1-0.59-0.2-0.89-0.29c-1.83-0.53-3.67-0.73-5.47-0.65C170.93,151.85,166.43,156.76,164.48,162.99z"/>
								<path class="st8" d="M183.92,151.24c1.14,1.92,3.41,7.58-0.94,17.52l2.25,0.96c3.43-7.84,3.07-13.39,2.05-16.78
									c-0.81-0.53-1.67-1-2.59-1.39C184.44,151.44,184.18,151.34,183.92,151.24z"/>
								<g>
									<g>
										<path class="st20" d="M194.86,173.68c-0.23,0.03-0.46,0.01-0.7-0.06l-40.99-11.91c-0.93-0.27-1.47-1.24-1.19-2.17
											c0.27-0.93,1.24-1.47,2.17-1.2l40.99,11.91c0.93,0.27,1.47,1.24,1.19,2.17C196.14,173.12,195.54,173.6,194.86,173.68z"/>
									</g>
									<g>
										<path class="st8" d="M194.86,173.68c-0.23,0.03-0.46,0.01-0.7-0.06l-40.99-11.91c-0.93-0.27-1.47-1.24-1.19-2.17
											c0.27-0.93,1.24-1.47,2.17-1.2l40.99,11.91c0.93,0.27,1.47,1.24,1.19,2.17C196.14,173.12,195.54,173.6,194.86,173.68z"/>
									</g>
								</g>
							</g>
						</g>
						<linearGradient id="SVGID_9_" gradientUnits="userSpaceOnUse" x1="66.043" y1="236.0572" x2="79.8474" y2="236.0572">
							<stop  offset="0" style="stop-color:#054592"/>
							<stop  offset="0.6031" style="stop-color:#0D6BA9"/>
							<stop  offset="1" style="stop-color:#127FB5"/>
						</linearGradient>
						<path class="st21" d="M79.79,237.64c0,0,0.31-2.36-0.55-4.23c-0.86-1.88-3.2-5.1-4.29-5.53c-1.09-0.43-1.74,0.41-1.93,1.03
							c-0.18,0.62,0.17,1.61,0.28,2c0.1,0.39,0.05,0.77,0.05,0.77s-1.46,0.08-2.56-0.11c-1.1-0.19-3.72-1.51-4.54,2.2
							c-0.82,3.71,0.63,8.57,5.77,10.13c5.14,1.55,6.8-1.35,7.14-2.79S79.75,238.34,79.79,237.64z"/>
					</g>
					<g>
						<rect x="63.86" y="235.31" class="st8" width="40.66" height="36.95"/>
						<rect x="63.86" y="241.43" class="st8" width="73.77" height="15.97"/>
						<rect x="61.74" y="233.27" class="st22" width="42.78" height="8.16"/>
						<rect x="104.52" y="235.31" class="st23" width="33.11" height="36.95"/>
						<rect x="104.52" y="235.31" class="st8" width="33.11" height="36.95"/>
						<rect x="104.52" y="233.27" class="st22" width="34.74" height="8.16"/>
					</g>
					<g>
						<linearGradient id="SVGID_10_" gradientUnits="userSpaceOnUse" x1="144.3973" y1="259.9086" x2="148.231" y2="258.522">
							<stop  offset="0" style="stop-color:#054592"/>
							<stop  offset="0.6031" style="stop-color:#0D6BA9"/>
							<stop  offset="1" style="stop-color:#127FB5"/>
						</linearGradient>
						<path class="st24" d="M144.55,252.49c-0.16,0.05-0.3,0.13-0.44,0.25C144.39,252.58,144.55,252.49,144.55,252.49z
							 M144.55,252.49c-1,0.8-0.88,3.67-0.71,4.9c0.32,2.36,1.59,8,4.04,8.62C151.71,264.75,145.77,252.11,144.55,252.49z"/>
						<g>
							<g>
								<path class="st11" d="M186.87,244.28c0,0-10.95,6.87-14.56,8.31c-2.59,1.04-3.73-2.67-4.47-4.93
									c-0.73-2.26,4.42-9.49,10.49-13.9C182.99,230.38,187.35,243.26,186.87,244.28z"/>
								<path class="st1" d="M216.01,234.65c-7.52,7.67-28.31,20.99-28.31,20.99s-3.43-0.94-7.97-6.23
									c-6.81-7.95-6.85-12.48-6.85-12.48s13.93-16,26.11-26.98c9.63-8.69,14.75-4.81,18.18,5.52
									C219.79,223.33,220.21,230.36,216.01,234.65z"/>
							</g>
						</g>
						
							<linearGradient id="SVGID_11_" gradientUnits="userSpaceOnUse" x1="5433.6938" y1="-4473.605" x2="5439.8926" y2="-4418.1455" gradientTransform="matrix(0.4983 0.867 0.867 -0.4983 1289.8723 -6670.6309)">
							<stop  offset="0" style="stop-color:#F4AA74"/>
							<stop  offset="0.4273" style="stop-color:#F4B386"/>
							<stop  offset="1" style="stop-color:#F4BE9A"/>
						</linearGradient>
						<path class="st25" d="M167.98,242.55c4.69-0.95,7.02,1.39,7.49,5.95c0.3,2.87-5.19,5.32-8.95,6.69
							c-8.27,3.02-38.34,11.42-41.37,13.74l-1.8-5.51C129.43,262.99,155.33,245.1,167.98,242.55z"/>
						<g>
							
								<linearGradient id="SVGID_12_" gradientUnits="userSpaceOnUse" x1="8633.4922" y1="-5135.4497" x2="8639.6914" y2="-5079.9873" gradientTransform="matrix(-0.0936 0.9956 0.9956 0.0936 6038.6094 -7848.9922)">
								<stop  offset="0" style="stop-color:#F4AA74"/>
								<stop  offset="0.4273" style="stop-color:#F4B386"/>
								<stop  offset="1" style="stop-color:#F4BE9A"/>
							</linearGradient>
							<path class="st26" d="M119.14,263.9c-1.41,0.59-5.64,2.77-5.17,3.9c1.12,2.66,2.89,0.15,6.48,0.78
								c2.32,0.41,3.46-5.08,3.46-5.08S122.09,262.66,119.14,263.9z"/>
							
								<linearGradient id="SVGID_13_" gradientUnits="userSpaceOnUse" x1="8636" y1="-5135.7446" x2="8642.1758" y2="-5080.4922" gradientTransform="matrix(-0.0936 0.9956 0.9956 0.0936 6038.6094 -7848.9922)">
								<stop  offset="0" style="stop-color:#F4AA74"/>
								<stop  offset="0.4273" style="stop-color:#F4B386"/>
								<stop  offset="1" style="stop-color:#F4BE9A"/>
							</linearGradient>
							<path class="st27" d="M128.98,272.27c1.94-4.49,0.56-5.06-0.31-7.21c0,0,0-0.01,0-0.02c0,0-4.07-2.23-6-1.61
								c-7.22,2.31-0.27,2.61-6.52,8.44C112.59,275.19,126.68,277.58,128.98,272.27z"/>
						</g>
						<path class="st28" d="M144.55,252.49c0,0-18.47,10.46-20.21,10.34c-4.32-0.31-5.55,0.61-7.93,2.02
							c-2.39,1.41-3.82,2.88-2.14,4.19c1.68,1.31,4.21-0.73,3.13,0.74c-0.93,1.27-4.48,3.78-0.04,5.22
							c4.14,1.34,9.02,0.93,11.08-1.49c2.27-2.65,2.27-4.12,1.98-5.59c5.75-2.12,7.67-1.1,17.45-1.92
							c-2.45-0.61-3.72-6.26-4.04-8.62C143.67,256.17,143.55,253.29,144.55,252.49z"/>
					</g>
				</g>
			</g>
		</g>
	</g>
</g>
</svg>
