<?xml version="1.0" encoding="utf-8"?>
<!-- Generator: Adobe Illustrator 25.0.0, SVG Export Plug-In . SVG Version: 6.00 Build 0)  -->
<svg version="1.1" id="Layer_1" xmlns="http://www.w3.org/2000/svg" xmlns:xlink="http://www.w3.org/1999/xlink" x="0px" y="0px"
	 viewBox="0 0 150 150" style="enable-background:new 0 0 150 150;" xml:space="preserve">
<style type="text/css">
	.st0{fill:#90A0B2;}
</style>
<path class="st0" d="M123.75,35.7V0h-97.5v35.7c-0.01,7.96,3.15,15.59,8.78,21.23L53.18,75L35.03,93.07
	c-5.58,5.66-8.73,13.28-8.78,21.22V150h97.5v-35.7c-0.04-7.95-3.19-15.57-8.78-21.22L96.82,75l18.15-18.07
	C120.6,51.29,123.76,43.66,123.75,35.7z M108.75,35.7c-0.02,3.97-1.61,7.77-4.43,10.58l-20.7,20.78c-4.39,4.39-4.39,11.51,0,15.9
	l20.7,20.77c2.82,2.8,4.41,6.6,4.43,10.57V135h-67.5v-20.7c0.02-3.97,1.61-7.77,4.43-10.57l20.7-20.78c4.39-4.39,4.39-11.51,0-15.9
	l-20.7-20.77c-2.82-2.8-4.41-6.6-4.43-10.58V15h67.5V35.7z"/>
</svg>
