<?xml version="1.0" encoding="utf-8"?>
<!-- Generator: Adobe Illustrator 25.0.0, SVG Export Plug-In . SVG Version: 6.00 Build 0)  -->
<svg version="1.1" id="Layer_1" xmlns="http://www.w3.org/2000/svg" xmlns:xlink="http://www.w3.org/1999/xlink" x="0px" y="0px"
	 viewBox="0 0 150 150" style="enable-background:new 0 0 150 150;" xml:space="preserve">
<style type="text/css">
	.st0{clip-path:url(#SVGID_2_);}
	.st1{clip-path:url(#SVGID_4_);}
	.st2{opacity:0.1;}
	.st3{clip-path:url(#SVGID_6_);}
	.st4{opacity:0.2;}
	.st5{clip-path:url(#SVGID_8_);}
	.st6{clip-path:url(#SVGID_10_);}
	.st7{clip-path:url(#SVGID_12_);}
</style>
<g id="Group_2916" transform="translate(-12473.178 3621.986)">
	<g>
		<defs>
			<rect id="SVGID_1_" x="12491.19" y="-3615.38" width="113.98" height="136.78"/>
		</defs>
		<clipPath id="SVGID_2_">
			<use xlink:href="#SVGID_1_"  style="overflow:visible;"/>
		</clipPath>
		<g id="Group_2915" class="st0">
			<g id="Group_2914">
				<g>
					<defs>
						<rect id="SVGID_3_" x="12491.19" y="-3615.38" width="113.98" height="136.78"/>
					</defs>
					<clipPath id="SVGID_4_">
						<use xlink:href="#SVGID_3_"  style="overflow:visible;"/>
					</clipPath>
					<g id="Group_2913" class="st1">
						<path id="Path_7419" d="M12582.39-3544.14c0-11.86,6.71-22.7,17.32-28c-6.35-5.66-14.51-8.87-23.02-9.04
							c-4.6,0.1-9.14,1.1-13.36,2.96c-3.88,1.72-8.06,2.66-12.3,2.74c-4.24-0.08-8.42-1.02-12.29-2.74
							c-4.21-1.86-8.75-2.86-13.36-2.96c-3.5,0-34.2,1.12-34.2,39.92c0,31.71,21.64,62.69,34.2,62.69
							c5.52,0.05,10.99-1.1,16.01-3.39c3.01-1.45,6.29-2.24,9.63-2.31c3.34,0.07,6.62,0.86,9.63,2.31
							c5.03,2.28,10.49,3.43,16.01,3.38c8.8,0,21.36-15.22,28.48-35.23c-13.67-3.65-23.07-16.17-22.78-30.31"/>
						<path id="Path_7420" d="M12548.19-3581.18c16.55-2.95,28.58-17.38,28.5-34.2C12560.13-3612.43,12548.1-3598,12548.19-3581.18"
							/>
						<g id="Group_2903" transform="translate(0 5.443)" class="st2">
							<g id="Group_2902">
								<g>
									<defs>
										<rect id="SVGID_5_" x="12491.19" y="-3586.62" width="108.52" height="40.68"/>
									</defs>
									<clipPath id="SVGID_6_">
										<use xlink:href="#SVGID_5_"  style="overflow:visible;"/>
									</clipPath>
									<g id="Group_2901" class="st3">
										<path id="Path_7421" d="M12525.39-3585.2c4.6,0.1,9.14,1.1,13.36,2.96c3.88,1.72,8.06,2.65,12.3,2.74
											c4.24-0.08,8.42-1.02,12.29-2.74c4.21-1.86,8.75-2.86,13.36-2.96c8.04,0.22,15.78,3.11,21.99,8.22
											c0.35-0.19,0.67-0.42,1.02-0.63c-6.35-5.66-14.51-8.87-23.02-9.04c-4.6,0.1-9.14,1.1-13.36,2.96
											c-3.87,1.72-8.05,2.66-12.29,2.74c-4.24-0.08-8.42-1.02-12.3-2.74c-4.21-1.86-8.75-2.86-13.36-2.96
											c-3.49,0.03-34.19,1.14-34.19,39.94c0,0.26,0,0.52,0.03,0.79c0.36-38.11,30.69-39.26,34.17-39.26"/>
									</g>
								</g>
							</g>
						</g>
						<g id="Group_2906" transform="translate(0 11.691)" class="st4">
							<g id="Group_2905">
								<g>
									<defs>
										<rect id="SVGID_7_" x="12491.19" y="-3553.62" width="113.98" height="63.33"/>
									</defs>
									<clipPath id="SVGID_8_">
										<use xlink:href="#SVGID_7_"  style="overflow:visible;"/>
									</clipPath>
									<g id="Group_2904" class="st5">
										<path id="Path_7422" d="M12576.69-3491.71c-5.52,0.05-10.99-1.1-16.02-3.38c-3.01-1.45-6.29-2.24-9.63-2.31
											c-3.34,0.07-6.62,0.86-9.63,2.31c-5.03,2.28-10.49,3.44-16.01,3.39c-12.46,0-33.82-30.47-34.17-61.9
											c0,0.23-0.03,0.41-0.03,0.63c0,31.71,21.64,62.69,34.2,62.69c5.52,0.05,10.99-1.1,16.01-3.39
											c3.01-1.45,6.29-2.24,9.63-2.31c3.34,0.07,6.62,0.86,9.63,2.31c5.03,2.28,10.49,3.43,16.02,3.38
											c8.8,0,21.36-15.22,28.48-35.23c-0.16-0.04-0.31-0.12-0.48-0.17c-7.24,19.38-19.39,33.97-28,33.97"/>
									</g>
								</g>
							</g>
						</g>
						<g id="Group_2909" transform="translate(9.073 0.236)" class="st4">
							<g id="Group_2908">
								<g>
									<defs>
										<rect id="SVGID_9_" x="12539.12" y="-3614.13" width="28.49" height="32.71"/>
									</defs>
									<clipPath id="SVGID_10_">
										<use xlink:href="#SVGID_9_"  style="overflow:visible;"/>
									</clipPath>
									<g id="Group_2907" class="st6">
										<path id="Path_7423" d="M12567.48-3613.09c-1.42,15.38-13.09,27.83-28.35,30.23c0,0.5,0,0.94,0,1.45
											c15.99-2.88,27.83-16.48,28.48-32.71c-0.05,0.26,0,0.72-0.11,1.04"/>
									</g>
								</g>
							</g>
						</g>
						<g id="Group_2912" transform="translate(9.076)" class="st2">
							<g id="Group_2911">
								<g>
									<defs>
										<rect id="SVGID_11_" x="12539.13" y="-3615.38" width="28.48" height="32.68"/>
									</defs>
									<clipPath id="SVGID_12_">
										<use xlink:href="#SVGID_11_"  style="overflow:visible;"/>
									</clipPath>
									<g id="Group_2910" class="st7">
										<path id="Path_7424" d="M12539.13-3582.7c0.07-0.37,0.15-1.41,0.23-2.03c0.06-0.78,0.14-1.55,0.26-2.31
											c2.47-14.09,13.79-24.96,27.97-26.85c0-0.5,0-0.99,0-1.49c-15.99,2.84-27.85,16.44-28.48,32.67"/>
									</g>
								</g>
							</g>
						</g>
						<path id="Path_7425" d="M12582.39-3544.14c0-11.86,6.71-22.7,17.32-28c-6.35-5.66-14.51-8.87-23.02-9.04
							c-4.6,0.1-9.14,1.1-13.36,2.96c-3.88,1.72-8.06,2.66-12.3,2.74c-4.24-0.09-8.42-1.02-12.29-2.74
							c-4.21-1.86-8.75-2.86-13.36-2.96c-3.51,0-34.2,1.12-34.2,39.9c0,31.71,21.64,62.69,34.2,62.69
							c5.52,0.05,10.99-1.1,16.02-3.39c3.01-1.45,6.29-2.24,9.63-2.31c3.34,0.07,6.62,0.86,9.63,2.31
							c5.03,2.28,10.49,3.43,16.01,3.38c8.8,0,21.36-15.22,28.48-35.23c-13.67-3.65-23.07-16.17-22.78-30.31 M12576.69-3615.38
							c-16.55,2.95-28.58,17.38-28.5,34.2C12564.75-3584.13,12576.78-3598.56,12576.69-3615.38"/>
					</g>
				</g>
			</g>
		</g>
	</g>
</g>
</svg>
