<svg id="Group_3175" data-name="Group 3175" xmlns="http://www.w3.org/2000/svg" width="160.366" height="47.977" viewBox="0 0 160.366 47.977">
    <path id="Path_818" data-name="Path 818" d="M155.118,47.871H6.268a5.45,5.45,0,0,1-5.46-5.44V7.3a5.451,5.451,0,0,1,5.46-5.44h148.85a5.451,5.451,0,0,1,5.46,5.44V42.431a5.45,5.45,0,0,1-5.46,5.44" transform="translate(-0.213 -0.489)"/>
    <path id="Path_819" data-name="Path 819" d="M154.329,48.254H6.035A6.042,6.042,0,0,1,0,42.219V7.087A6.042,6.042,0,0,1,6.035,1.052H154.329a6.042,6.042,0,0,1,6.035,6.035V42.219a6.042,6.042,0,0,1-6.035,6.035M6.035,2.242A4.85,4.85,0,0,0,1.19,7.087V42.219a4.85,4.85,0,0,0,4.845,4.845H154.329a4.851,4.851,0,0,0,4.845-4.845V7.087a4.851,4.851,0,0,0-4.845-4.845Z" transform="translate(0 -0.277)" fill="#96999c"/>
    <path id="Path_820" data-name="Path 820" d="M71.688,17.283l-.667,2.2H69.56l2.485-7.753h1.806L76.37,19.48H74.852l-.7-2.2Zm2.22-1.07L73.3,14.3c-.149-.472-.276-1-.391-1.45h-.024c-.114.449-.23.989-.368,1.45l-.6,1.909Z" transform="translate(-18.3 -3.085)" fill="#fff"/>
    <path id="Path_821" data-name="Path 821" d="M81.125,14.646l.909,2.842c.161.494.276.943.379,1.4h.035c.1-.46.23-.9.38-1.4l.9-2.842h1.484l-2.139,5.6H81.677l-2.082-5.6Z" transform="translate(-20.94 -3.853)" fill="#fff"/>
    <path id="Path_822" data-name="Path 822" d="M93.183,18.856a7.524,7.524,0,0,0,.092,1.346H92l-.1-.62H91.86a2.05,2.05,0,0,1-1.657.747,1.662,1.662,0,0,1-1.76-1.668c0-1.4,1.254-2.128,3.324-2.117v-.092c0-.368-.15-.977-1.139-.977a2.966,2.966,0,0,0-1.507.414l-.276-.92a4.038,4.038,0,0,1,2.024-.494,2.1,2.1,0,0,1,2.312,2.369ZM91.8,17.464c-1-.012-1.956.2-1.956,1.047a.742.742,0,0,0,.805.8,1.161,1.161,0,0,0,1.116-.771.948.948,0,0,0,.035-.31Z" transform="translate(-23.268 -3.808)" fill="#fff"/>
    <path id="Path_823" data-name="Path 823" d="M98.262,13.007a.8.8,0,1,1,.012,0Zm-.7.805h1.415v5.6H97.56Z" transform="translate(-25.645 -3.019)" fill="#fff"/>
    <rect id="Rectangle_711" data-name="Rectangle 711" width="1.415" height="8.179" transform="translate(75.365 8.216)" fill="#fff"/>
    <path id="Path_824" data-name="Path 824" d="M111.177,18.856a7.6,7.6,0,0,0,.091,1.346h-1.276l-.1-.62h-.035a2.048,2.048,0,0,1-1.657.747,1.662,1.662,0,0,1-1.76-1.668c0-1.4,1.254-2.128,3.324-2.117v-.092c0-.368-.149-.977-1.139-.977a2.966,2.966,0,0,0-1.507.414l-.276-.92a4.039,4.039,0,0,1,2.025-.494,2.1,2.1,0,0,1,2.312,2.369ZM109.8,17.464c-1-.012-1.956.2-1.956,1.047a.742.742,0,0,0,.805.8,1.16,1.16,0,0,0,1.116-.771.949.949,0,0,0,.035-.31Z" transform="translate(-28.001 -3.808)" fill="#fff"/>
    <path id="Path_825" data-name="Path 825" d="M115.567,11.149h1.415V14.5H117a2.028,2.028,0,0,1,1.8-.9c1.368,0,2.346,1.139,2.335,2.842,0,2.013-1.277,3.014-2.542,3.014a1.929,1.929,0,0,1-1.772-.967H116.8l-.069.84h-1.207c.023-.38.046-1,.046-1.564Zm1.415,5.867a1.575,1.575,0,0,0,.035.334,1.292,1.292,0,0,0,1.253.989c.886,0,1.427-.7,1.427-1.84,0-.99-.472-1.794-1.415-1.794a1.315,1.315,0,0,0-1.254,1.035,1.7,1.7,0,0,0-.046.368Z" transform="translate(-30.391 -2.933)" fill="#fff"/>
    <rect id="Rectangle_712" data-name="Rectangle 712" width="1.415" height="8.179" transform="translate(92.408 8.216)" fill="#fff"/>
    <path id="Path_826" data-name="Path 826" d="M130.969,17.8a1.522,1.522,0,0,0,1.725,1.45A4.5,4.5,0,0,0,134.247,19l.208.966a5.035,5.035,0,0,1-1.956.357,2.651,2.651,0,0,1-2.888-2.83,2.774,2.774,0,0,1,2.738-3.013,2.435,2.435,0,0,1,2.416,2.726,3.586,3.586,0,0,1-.046.6Zm2.461-.99a1.2,1.2,0,0,0-1.161-1.368,1.384,1.384,0,0,0-1.3,1.368Z" transform="translate(-34.098 -3.808)" fill="#fff"/>
    <path id="Path_827" data-name="Path 827" d="M145.075,20.33a2.709,2.709,0,0,1-2.808-2.887,2.766,2.766,0,0,1,2.9-2.968,2.688,2.688,0,0,1,2.784,2.876,2.773,2.773,0,0,1-2.864,2.979Zm.046-1.024c.8,0,1.368-.782,1.368-1.92,0-.875-.391-1.887-1.357-1.887-1,0-1.4.978-1.4,1.91,0,1.081.542,1.9,1.381,1.9Z" transform="translate(-37.428 -3.808)" fill="#fff"/>
    <path id="Path_828" data-name="Path 828" d="M152.224,16.268c0-.645-.023-1.185-.046-1.668h1.23l.069.84h.035a2.058,2.058,0,0,1,1.8-.966c.977,0,1.99.632,1.99,2.4V20.2h-1.415V17.039c0-.805-.3-1.416-1.07-1.416a1.187,1.187,0,0,0-1.1.829,1.3,1.3,0,0,0-.069.448v3.3h-1.415Z" transform="translate(-40.035 -3.808)" fill="#fff"/>
    <path id="Path_829" data-name="Path 829" d="M167.191,12.695v1.438h1.346v1.058h-1.346v2.462c0,.69.184,1.035.724,1.035a1.852,1.852,0,0,0,.552-.057l.024,1.069a3.1,3.1,0,0,1-1.024.15,1.619,1.619,0,0,1-1.219-.46,2.206,2.206,0,0,1-.449-1.576V15.191h-.794V14.133h.794V13.086Z" transform="translate(-43.41 -3.34)" fill="#fff"/>
    <path id="Path_830" data-name="Path 830" d="M171.934,11.149h1.415v3.336h.023a1.869,1.869,0,0,1,.7-.633,2,2,0,0,1,.978-.253c.954,0,1.956.633,1.956,2.427v3.3h-1.415V16.176c0-.805-.3-1.427-1.082-1.427a1.18,1.18,0,0,0-1.1.794,1.281,1.281,0,0,0-.057.426v3.359h-1.415Z" transform="translate(-45.232 -2.933)" fill="#fff"/>
    <path id="Path_831" data-name="Path 831" d="M182.42,17.8a1.522,1.522,0,0,0,1.725,1.45A4.5,4.5,0,0,0,185.7,19l.208.966a5.035,5.035,0,0,1-1.956.357,2.651,2.651,0,0,1-2.888-2.83,2.774,2.774,0,0,1,2.738-3.013,2.435,2.435,0,0,1,2.416,2.726,3.586,3.586,0,0,1-.046.6Zm2.461-.99a1.2,1.2,0,0,0-1.161-1.368,1.384,1.384,0,0,0-1.3,1.368Z" transform="translate(-47.634 -3.808)" fill="#fff"/>
    <path id="Path_832" data-name="Path 832" d="M41.2,29.3a6.9,6.9,0,0,1,3.287-5.79A7.06,7.06,0,0,0,38.917,20.5c-2.341-.246-4.614,1.4-5.8,1.4-1.217,0-3.057-1.378-5.035-1.338a7.415,7.415,0,0,0-6.239,3.805c-2.7,4.671-.685,11.534,1.9,15.312,1.294,1.848,2.8,3.913,4.782,3.839,1.934-.08,2.656-1.232,4.992-1.232,2.315,0,2.993,1.232,5.01,1.186,2.077-.034,3.382-1.857,4.629-3.724a15.2,15.2,0,0,0,2.119-4.313A6.67,6.67,0,0,1,41.2,29.3" transform="translate(-5.408 -5.387)" fill="#fff"/>
    <path id="Path_833" data-name="Path 833" d="M41.769,15.4a6.779,6.779,0,0,0,1.553-4.869,6.913,6.913,0,0,0-4.472,2.315,6.461,6.461,0,0,0-1.6,4.689A5.719,5.719,0,0,0,41.769,15.4" transform="translate(-9.792 -2.771)" fill="#fff"/>
    <path id="Path_834" data-name="Path 834" d="M81.749,45.7H79.054l-1.477-4.642H72.446L71.038,45.7H68.414L73.5,29.9H76.64Zm-4.616-6.589L75.8,34.982q-.214-.63-.8-2.975h-.046q-.235,1.009-.752,2.975L72.89,39.107Z" transform="translate(-17.998 -7.866)" fill="#fff"/>
    <path id="Path_835" data-name="Path 835" d="M100.344,41.348a6.473,6.473,0,0,1-1.571,4.594,4.59,4.59,0,0,1-3.491,1.5,3.5,3.5,0,0,1-3.236-1.618H92v6H89.468V39.543q0-1.827-.093-3.749H91.6l.142,1.805h.048A4.5,4.5,0,0,1,99,37.154a6.281,6.281,0,0,1,1.348,4.195m-2.578.093a4.7,4.7,0,0,0-.75-2.743,2.6,2.6,0,0,0-2.2-1.125,2.631,2.631,0,0,0-1.7.621,2.894,2.894,0,0,0-1,1.632A3.3,3.3,0,0,0,92,40.6v1.9a3.042,3.042,0,0,0,.759,2.1,2.525,2.525,0,0,0,1.982.855,2.583,2.583,0,0,0,2.226-1.1,4.837,4.837,0,0,0,.8-2.907" transform="translate(-23.513 -9.355)" fill="#fff"/>
    <path id="Path_836" data-name="Path 836" d="M118.121,41.348a6.469,6.469,0,0,1-1.57,4.594,4.586,4.586,0,0,1-3.492,1.5,3.5,3.5,0,0,1-3.234-1.618h-.046v6h-2.531V39.543q0-1.827-.094-3.749h2.225l.141,1.805h.049a4.5,4.5,0,0,1,7.206-.445,6.28,6.28,0,0,1,1.345,4.195m-2.576.093a4.687,4.687,0,0,0-.752-2.743,2.591,2.591,0,0,0-2.2-1.125,2.631,2.631,0,0,0-1.7.621,2.882,2.882,0,0,0-.995,1.632,3.206,3.206,0,0,0-.118.771v1.9a3.036,3.036,0,0,0,.76,2.1,2.519,2.519,0,0,0,1.982.855,2.586,2.586,0,0,0,2.225-1.1,4.862,4.862,0,0,0,.8-2.907" transform="translate(-28.19 -9.355)" fill="#fff"/>
    <path id="Path_837" data-name="Path 837" d="M138.418,41.181a4.207,4.207,0,0,1-1.4,3.281,6.215,6.215,0,0,1-4.3,1.382,7.551,7.551,0,0,1-4.1-.984l.587-2.109a6.941,6.941,0,0,0,3.66,1.007,3.462,3.462,0,0,0,2.228-.643,2.114,2.114,0,0,0,.794-1.727,2.2,2.2,0,0,0-.654-1.62,6.12,6.12,0,0,0-2.183-1.222Q128.9,37,128.9,34.016a4,4,0,0,1,1.452-3.192,5.739,5.739,0,0,1,3.867-1.246,7.68,7.68,0,0,1,3.585.75l-.632,2.063a6.235,6.235,0,0,0-3.024-.727,3.05,3.05,0,0,0-2.084.657,1.881,1.881,0,0,0-.632,1.43,1.926,1.926,0,0,0,.725,1.546,8.186,8.186,0,0,0,2.3,1.22,7.815,7.815,0,0,1,3,1.921,4.032,4.032,0,0,1,.961,2.743" transform="translate(-33.836 -7.781)" fill="#fff"/>
    <path id="Path_838" data-name="Path 838" d="M150.794,36.761H148v5.531q0,2.11,1.478,2.11a4.586,4.586,0,0,0,1.122-.116l.07,1.921a5.691,5.691,0,0,1-1.968.281,3.033,3.033,0,0,1-2.344-.912,4.491,4.491,0,0,1-.844-3.071V36.761h-1.664v-1.9h1.664V32.778L148,32.026v2.836h2.789Z" transform="translate(-37.846 -8.425)" fill="#fff"/>
    <path id="Path_839" data-name="Path 839" d="M166.368,41.394a6.245,6.245,0,0,1-1.5,4.313,5.357,5.357,0,0,1-4.172,1.733,5.094,5.094,0,0,1-4-1.664,6.057,6.057,0,0,1-1.488-4.193,6.18,6.18,0,0,1,1.535-4.336,5.3,5.3,0,0,1,4.135-1.69,5.209,5.209,0,0,1,4.033,1.665,6,6,0,0,1,1.452,4.172m-2.626.082a5.125,5.125,0,0,0-.68-2.7,2.5,2.5,0,0,0-2.272-1.364,2.533,2.533,0,0,0-2.32,1.364,5.223,5.223,0,0,0-.678,2.751,5.12,5.12,0,0,0,.678,2.7,2.551,2.551,0,0,0,2.3,1.363A2.525,2.525,0,0,0,163.04,44.2a5.121,5.121,0,0,0,.7-2.727" transform="translate(-40.833 -9.355)" fill="#fff"/>
    <path id="Path_840" data-name="Path 840" d="M179.339,38.019a4.5,4.5,0,0,0-.8-.069,2.4,2.4,0,0,0-2.065,1.009,3.808,3.808,0,0,0-.632,2.249v5.977h-2.53l.021-7.8q0-1.97-.093-3.587h2.2l.094,2.181h.067a3.906,3.906,0,0,1,1.267-1.8,3.068,3.068,0,0,1,1.831-.61,4.172,4.172,0,0,1,.631.045Z" transform="translate(-45.577 -9.355)" fill="#fff"/>
    <path id="Path_841" data-name="Path 841" d="M193.259,40.94a6.1,6.1,0,0,1-.091,1.149h-7.592a3.309,3.309,0,0,0,1.1,2.58,3.757,3.757,0,0,0,2.485.794,8.4,8.4,0,0,0,3.07-.538l.4,1.759a9.538,9.538,0,0,1-3.822.7,5.523,5.523,0,0,1-4.159-1.561,5.761,5.761,0,0,1-1.512-4.184,6.528,6.528,0,0,1,1.408-4.29,4.846,4.846,0,0,1,3.982-1.827,4.248,4.248,0,0,1,3.73,1.827,6.165,6.165,0,0,1,1,3.587m-2.413-.657a3.423,3.423,0,0,0-.49-1.945,2.215,2.215,0,0,0-2.018-1.055,2.409,2.409,0,0,0-2.015,1.032,3.74,3.74,0,0,0-.747,1.968Z" transform="translate(-48.179 -9.347)" fill="#fff"/>
    <g id="Group_3176" data-name="Group 3176">
        <rect id="Rectangle_713" data-name="Rectangle 713" width="160" height="47.976" fill="none"/>
    </g>
</svg>
