<svg xmlns="http://www.w3.org/2000/svg" width="207.971" height="207.971" viewBox="0 0 207.971 207.971">
    <g id="Group_3060" data-name="Group 3060" transform="translate(0 -4)">
        <g id="Group_3175" data-name="Group 3175" transform="translate(0 4)">
            <path id="Dark_Blue" data-name="Dark Blue" d="M96.974,55.971H-59a26.006,26.006,0,0,1-26-26V-126a26.006,26.006,0,0,1,26-26H96.974a26.006,26.006,0,0,1,26,26V29.974A26.006,26.006,0,0,1,96.974,55.971Z" transform="translate(85 152)" fill="#1da1f2"/>
            <path id="Logo_FIXED" data-name="Logo — FIXED" d="M-32.921-31.591c49.029,0,75.857-40.658,75.857-75.857,0-1.144,0-2.288-.052-3.431a54.317,54.317,0,0,0,13.31-13.83A54.035,54.035,0,0,1,40.857-120.5a26.824,26.824,0,0,0,11.75-14.766,53.031,53.031,0,0,1-16.95,6.447,26.61,26.61,0,0,0-19.445-8.423A26.694,26.694,0,0,0-10.46-110.568a29.471,29.471,0,0,0,.676,6.083A75.707,75.707,0,0,1-64.74-132.353a26.665,26.665,0,0,0-3.588,13.414,26.734,26.734,0,0,0,11.854,22.2,26.966,26.966,0,0,1-12.062-3.328v.364A26.717,26.717,0,0,0-47.167-73.549a26,26,0,0,1-7.019.936,26.206,26.206,0,0,1-4.991-.468,26.66,26.66,0,0,0,24.9,18.51A53.474,53.474,0,0,1-67.392-43.133a51.316,51.316,0,0,1-6.343-.364A75.839,75.839,0,0,0-32.921-31.591" transform="translate(112.775 188.4)" fill="#fff"/>
        </g>
    </g>
</svg>
