<?xml version="1.0" encoding="utf-8"?>
<!-- Generator: Adobe Illustrator 25.0.0, SVG Export Plug-In . SVG Version: 6.00 Build 0)  -->
<svg version="1.1" id="Layer_1" xmlns="http://www.w3.org/2000/svg" xmlns:xlink="http://www.w3.org/1999/xlink" x="0px" y="0px"
	 viewBox="0 0 150 150" style="enable-background:new 0 0 150 150;" xml:space="preserve">
<style type="text/css">
	.st0{fill:#E6E7E8;}
	.st1{fill:#56CD93;}
	.st2{fill:#24323A;}
	.st3{fill:#EEF0F3;}
	.st4{fill:#4CB08A;}
</style>
<g>
	<ellipse class="st0" cx="75" cy="116" rx="74.1" ry="4.9"/>
	<g>
		<g>
			<path d="M29.2,89H17c-1.7,0-3.1,1.4-3.1,3.1v22.1c0,1.7,1.4,3.1,3.1,3.1h12.2c1.7,0,3.1-1.4,3.1-3.1V92.1
				C32.2,90.4,30.9,89,29.2,89z"/>
			<path d="M133,89h-12.2c-1.7,0-3.1,1.4-3.1,3.1v22.1c0,1.7,1.4,3.1,3.1,3.1H133c1.7,0,3.1-1.4,3.1-3.1V92.1
				C136,90.4,134.7,89,133,89z"/>
		</g>
		<path class="st1" d="M140.1,94V78.7c0-12.2-9-19.3-14.3-22.5l1.8-2c0.7,0.8,2,1.3,4,1.3c4.3,0,7.7-2.2,7.7-4.8
			c0-2.7-3.4-4.8-7.7-4.8c-3.9,0-4.8,1.8-5,4.1c-0.3,2.1-1.6,3.8-2.9,5.1c-0.6-0.3-1.1-0.5-1.4-0.7c-6.3-14.7-16.6-24-16.6-24
			c-30.3-2.7-62.7,0-62.7,0c-8,5.2-13.2,17.8-15.5,24.1c-0.3,0.1-0.7,0.3-1.2,0.6c-1.3-1.3-2.6-3-2.9-5.1c-0.2-2.3-1.1-4.1-5-4.1
			c-4.3,0-7.7,2.2-7.7,4.8s3.4,4.8,7.7,4.8c2,0,3.2-0.5,4-1.3l1.8,2C18.9,59.4,9.9,66.5,9.9,78.7V94c0,0-0.9,10.3,14.3,10.3h101.7
			C141,104.2,140.1,94,140.1,94z"/>
		<path d="M32.5,52.1c2.4-5.8,6.5-13.9,11.8-17.8c3.3-0.2,16.1-1.1,31.9-1.1c10.2,0,19.8,0.4,28.3,1.1c2.1,2.1,8.2,8.6,13,17.8
			C117.5,52.1,32.5,52.1,32.5,52.1z"/>
		<path class="st2" d="M56,33.7l18.5,18.5h20.1L75.6,33.2C68.1,33.2,61.4,33.4,56,33.7z"/>
		<g>
			<circle class="st3" cx="24.7" cy="76" r="7"/>
			<circle class="st3" cx="125.3" cy="76" r="7"/>
		</g>
		<path d="M43.7,74h62.5c0,0,1.2,12-11.3,12H55.3C55.3,85.9,43.7,85.5,43.7,74z"/>
		<path class="st4" d="M140.1,94V78.7c0-0.8-0.1-1.6-0.1-2.3c-3.8,5.3-12.6,14.8-27.6,14.8H38c-15.4,0-24.4-10-27.9-15.2
			c-0.1,0.9-0.2,1.8-0.2,2.8V94c0,0-0.9,10.3,14.3,10.3h101.7C141,104.2,140.1,94,140.1,94z"/>
	</g>
</g>
</svg>
