<?xml version="1.0" encoding="utf-8"?>
<!-- Generator: Adobe Illustrator 24.0.1, SVG Export Plug-In . SVG Version: 6.00 Build 0)  -->
<svg version="1.1" id="Layer_1" xmlns="http://www.w3.org/2000/svg" xmlns:xlink="http://www.w3.org/1999/xlink" x="0px" y="0px"
	 viewBox="0 0 200 200" style="enable-background:new 0 0 200 200;" xml:space="preserve">
<style type="text/css">
	.st0{fill:#56CD93;}
</style>
<g>
	<path class="st0" d="M166.67,0h-80C73.79,0.01,63.35,10.45,63.33,23.33v10H70v-10c0.01-9.2,7.47-16.66,16.67-16.67h80
		c9.2,0.01,16.66,7.47,16.67,16.67v153.33c-0.01,9.2-7.47,16.66-16.67,16.67h-80c-9.2-0.01-16.66-7.47-16.67-16.67v-23.33h-6.67
		v23.33c0.01,12.88,10.45,23.32,23.33,23.33h80c12.88-0.01,23.32-10.45,23.33-23.33V23.33C189.99,10.45,179.55,0.01,166.67,0z"/>
	<rect x="96.67" y="13.33" class="st0" width="6.67" height="6.67"/>
	<rect x="110" y="13.33" class="st0" width="33.33" height="6.67"/>
	<path class="st0" d="M120,166.67c-5.52,0-10,4.48-10,10c0,5.52,4.48,10,10,10h13.33c5.52,0,10-4.48,10-10c0-5.52-4.48-10-10-10H120
		z M136.67,176.67c0,1.84-1.49,3.33-3.33,3.33H120c-1.84,0-3.33-1.49-3.33-3.33c0-1.84,1.49-3.33,3.33-3.33h13.33
		C135.17,173.33,136.67,174.83,136.67,176.67z"/>
	<path class="st0" d="M123.33,153.33H130v-120h-6.67V40H56.67c-3.68,0.01-6.66,2.99-6.67,6.67V60h-6.67
		c-0.52,0.01-1.03,0.12-1.5,0.33l-12.6,6.33h-15.9C11.49,66.67,10,68.16,10,70v53.33c0,1.84,1.49,3.33,3.33,3.33H50V140
		c0.01,3.68,2.99,6.66,6.67,6.67h66.67V153.33z M123.33,46.67v9.53c-4.66-1.23-8.3-4.87-9.53-9.53H123.33z M76.67,46.67h9.57
		c-1.23,4.67-4.89,8.32-9.57,9.53V46.67z M66.67,46.67H70V60h-3.33V46.67z M56.67,46.67H60V60h-3.33V46.67z M60,140h-3.33V92.9
		c1.03-1.03,1.96-2.16,2.77-3.37c0.23-0.3,0.37-0.63,0.57-0.93V140z M70,140h-3.33V80H70V140z M73.33,73.37l-10-0.03H60
		c-1.84,0-3.33,1.49-3.33,3.33c0,2.71-0.66,5.38-1.93,7.77c-0.27,0.5-0.53,0.97-0.83,1.43c-3.06,4.69-8.3,7.51-13.9,7.47L39.97,100
		h0.17c3.02-0.01,6.01-0.6,8.8-1.73c0.37-0.17,0.7-0.4,1.07-0.57V120H16.67V73.33H30c0.52,0,1.04-0.13,1.5-0.37l12.6-6.3h29.23
		c0.89-0.02,1.75,0.33,2.37,0.97c0.62,0.62,0.97,1.46,0.97,2.33c0.02,0.91-0.36,1.79-1.03,2.4C75.03,72.99,74.2,73.35,73.33,73.37z
		 M76.67,140v-9.53c4.66,1.23,8.3,4.87,9.53,9.53H76.67z M106.97,140H93.03c-1.42-8.38-7.98-14.95-16.37-16.37V79.4
		c1.4-0.48,2.66-1.28,3.7-2.33c3.91-3.85,3.96-10.14,0.11-14.06c-0.03-0.03-0.05-0.05-0.08-0.08c-0.24-0.23-0.5-0.44-0.77-0.63
		c7.01-2.33,12.16-8.35,13.4-15.63h13.93c1.42,8.38,7.98,14.95,16.37,16.37v60.6C114.95,125.05,108.38,131.62,106.97,140z
		 M113.8,140c1.23-4.66,4.87-8.3,9.53-9.53V140H113.8z"/>
	<path class="st0" d="M100,76.67c-9.2,0-16.67,7.46-16.67,16.67c0.01,9.2,7.47,16.66,16.67,16.67c9.2,0,16.67-7.46,16.67-16.67
		S109.2,76.67,100,76.67z M100,103.33c-5.52,0-10-4.48-10-10c0-5.52,4.48-10,10-10s10,4.48,10,10
		C110,98.86,105.52,103.33,100,103.33z"/>
</g>
</svg>
