<?xml version="1.0" encoding="utf-8"?>
<!-- Generator: Adobe Illustrator 25.0.0, SVG Export Plug-In . SVG Version: 6.00 Build 0)  -->
<svg version="1.1" id="Layer_1" xmlns="http://www.w3.org/2000/svg" xmlns:xlink="http://www.w3.org/1999/xlink" x="0px" y="0px"
	 viewBox="0 0 150 150" style="enable-background:new 0 0 150 150;" xml:space="preserve">
<style type="text/css">
	.st0{fill:#FFFFFF;}
</style>
<g id="Layer_25">
	<path class="st0" d="M123.82,113.99c-1.43,0-2.81-0.53-3.91-1.49L92.26,88H81.01c-27.02,0-48.93-23.27-48.93-51.98
		s21.9-51.98,48.93-51.98h36.69c27.02,0.08,48.86,23.42,48.79,52.13c-0.06,23.59-15.07,44.18-36.55,50.15v21.18
		c0.01,2.54-1.38,4.85-3.55,5.91C125.58,113.79,124.71,113.99,123.82,113.99z M81.01-2.98c-20.27,0-36.69,17.46-36.69,38.99
		S60.74,75,81.01,75h13.45c1.43,0,2.81,0.53,3.91,1.49l19.33,17.09V80.98c-0.03-3.26,2.22-6.04,5.26-6.5
		c20-3.48,33.55-23.53,30.28-44.78c-2.87-18.58-17.82-32.33-35.54-32.68H81.01z"/>
	<rect x="93.24" y="29.51" class="st0" width="12.23" height="13"/>
	<rect x="62.66" y="29.51" class="st0" width="12.23" height="13"/>
	<rect x="123.82" y="29.51" class="st0" width="12.23" height="13"/>
	<path class="st0" d="M25.97,165.97c-0.89,0.01-1.76-0.19-2.57-0.58c-2.17-1.07-3.55-3.38-3.55-5.91v-21.18
		c-26.11-7.39-41.64-35.87-34.68-63.61c3.75-14.97,13.6-27.39,26.85-33.86c2.99-1.67,6.69-0.46,8.26,2.72
		c1.57,3.17,0.43,7.1-2.56,8.78c-0.22,0.12-0.45,0.23-0.69,0.33c-18.46,8.89-26.64,32-18.27,51.61
		c5.15,12.07,15.72,20.53,28.05,22.47c3.04,0.46,5.29,3.24,5.26,6.5v12.61l19.33-17.09c1.07-1.06,2.45-1.69,3.91-1.75h13.45
		c9.9,0.02,19.37-4.25,26.24-11.83c2.36-2.58,6.25-2.64,8.68-0.13c2.43,2.51,2.49,6.64,0.12,9.23l0,0
		c-9.21,10.05-21.84,15.72-35.04,15.73H57.53l-27.64,24.5C28.78,165.45,27.4,165.97,25.97,165.97z"/>
</g>
</svg>
