<?xml version="1.0" encoding="utf-8"?>
<!-- Generator: Adobe Illustrator 25.0.0, SVG Export Plug-In . SVG Version: 6.00 Build 0)  -->
<svg version="1.1" id="Layer_1" xmlns="http://www.w3.org/2000/svg" xmlns:xlink="http://www.w3.org/1999/xlink" x="0px" y="0px"
	 viewBox="0 0 150 150" style="enable-background:new 0 0 150 150;" xml:space="preserve">
<style type="text/css">
	.st0{fill:#FFFFFF;}
</style>
<path class="st0" d="M139.75,65.75h-10.03c-3.91-23.21-22.27-41.57-45.47-45.47V10.25C84.25,5.14,80.11,1,75,1s-9.25,4.14-9.25,9.25
	v10.03c-23.21,3.91-41.57,22.27-45.47,45.47H10.25C5.14,65.75,1,69.89,1,75s4.14,9.25,9.25,9.25h10.03
	c3.91,23.21,22.27,41.57,45.47,45.47v10.03c0,5.11,4.14,9.25,9.25,9.25s9.25-4.14,9.25-9.25v-10.03
	c23.21-3.91,41.57-22.27,45.47-45.47h10.03c5.11,0,9.25-4.14,9.25-9.25S144.86,65.75,139.75,65.75L139.75,65.75z M75,112
	c-20.4,0-37-16.6-37-37s16.6-37,37-37s37,16.6,37,37S95.4,112,75,112z"/>
</svg>
