<?xml version="1.0" encoding="utf-8"?>
<!-- Generator: Adobe Illustrator 25.0.0, SVG Export Plug-In . SVG Version: 6.00 Build 0)  -->
<svg version="1.1" id="Layer_1" xmlns="http://www.w3.org/2000/svg" xmlns:xlink="http://www.w3.org/1999/xlink" x="0px" y="0px"
	 viewBox="0 0 150 150" style="enable-background:new 0 0 150 150;" xml:space="preserve">
<style type="text/css">
	.st0{fill:#9E9E9E;}
</style>
<path id="iconfinder_office-48_809574" class="st0" d="M140.7,32.11c-12.87-12.98-33.83-13.06-46.8-0.19
	c-0.06,0.06-0.12,0.12-0.19,0.19L36.93,88.24c-7.29,8.18-6.57,20.73,1.61,28.02c7.53,6.71,18.88,6.71,26.41,0l47.04-46.98
	c2.49-2.56,2.42-6.65-0.14-9.14c-2.51-2.43-6.49-2.43-9,0l-46.99,47.03c-2.56,2.49-6.65,2.42-9.14-0.14c-2.43-2.51-2.43-6.49,0-9
	l56.79-56.77c7.29-8.18,19.84-8.9,28.02-1.61c8.18,7.29,8.9,19.84,1.61,28.02c-0.51,0.57-1.04,1.11-1.61,1.61l-56.69,56.16
	c-12.98,12.99-34.02,13-47.01,0.02s-13-34.02-0.02-47.01l0,0l75.06-74.4c2.53-2.39,2.64-6.39,0.25-8.92
	c-0.08-0.09-0.16-0.17-0.25-0.25c-2.4-2.52-6.4-2.62-8.92-0.22c-0.08,0.07-0.15,0.15-0.22,0.22L18,69.97
	c-18.08,18.33-17.87,47.84,0.46,65.92c18.15,17.9,47.31,17.9,65.46,0l56.79-56.13C153.1,66.29,153.1,45.57,140.7,32.11z"/>
</svg>
