<?xml version="1.0" encoding="utf-8"?>
<!-- Generator: Adobe Illustrator 25.0.0, SVG Export Plug-In . SVG Version: 6.00 Build 0)  -->
<svg version="1.1" id="Layer_1" xmlns="http://www.w3.org/2000/svg" xmlns:xlink="http://www.w3.org/1999/xlink" x="0px" y="0px"
	 viewBox="0 0 150 150" style="enable-background:new 0 0 150 150;" xml:space="preserve">
<style type="text/css">
	.st0{fill:#5BDB98;}
</style>
<path id="Path_7401" class="st0" d="M75.52,151c-26.05-0.03-47.16-21.14-47.19-47.19V37.75c-0.11-3.48,2.61-6.39,6.08-6.5
	c3.47-0.11,6.38,2.61,6.5,6.09c0,0.14,0,0.28,0,0.41v66.06c0,19.11,15.49,34.6,34.6,34.6c19.11,0,34.6-15.49,34.6-34.6V34.6
	c0.21-12.16-9.48-22.19-21.64-22.4c-12.16-0.21-22.19,9.48-22.4,21.64c0,0.25,0,0.51,0,0.76v62.91c0,5.21,4.23,9.44,9.44,9.44
	c5.21,0,9.44-4.23,9.44-9.44l0,0V37.75c-0.11-3.48,2.61-6.39,6.08-6.5s6.38,2.61,6.5,6.09c0,0.14,0,0.28,0,0.41v59.77
	c0.03,12.16-9.81,22.04-21.97,22.07s-22.04-9.81-22.07-21.98c0-0.03,0-0.06,0-0.09V34.6C53.51,15.49,69,0,88.11,0
	c19.11,0,34.6,15.49,34.6,34.6v69.21C122.69,129.86,101.57,150.98,75.52,151z"/>
</svg>
