<?xml version="1.0" encoding="utf-8"?>
<!-- Generator: Adobe Illustrator 24.0.1, SVG Export Plug-In . SVG Version: 6.00 Build 0)  -->
<svg version="1.1" id="Layer_1" xmlns="http://www.w3.org/2000/svg" xmlns:xlink="http://www.w3.org/1999/xlink" x="0px" y="0px"
	 viewBox="0 0 150 150" style="enable-background:new 0 0 150 150;" xml:space="preserve">
<style type="text/css">
	.st0{fill:#5BDB98;}
</style>
<path class="st0" d="M140.88,98.13c-0.64,0-1.27,0.08-1.9,0.24c-11.05,2.78-23.7,5.71-33.75,6.34c-0.49,0.03-1.1,0.05-1.82,0.05
	c-7.65,0-19.76-1.41-21.96-2.56c-1.55-0.81-2.53-1.81-3.15-2.78h17.4c4.37,0,7.98-2.49,9.19-6.03h34.83c4.56,0,8.26-3.71,8.26-8.26
	V22.3c0-4.56-3.71-8.26-8.26-8.26H67.4c-4.56,0-8.26,3.71-8.26,8.26v53.12c-7.52,0.25-17.89,2.42-24.5,7.88
	c-2.65,2.19-4.57,3.69-6.11,4.89c-0.99,0.78-1.85,1.45-2.66,2.11c-3.26,2.68-6.08,4.99-22.36,4.99c-1.94,0-3.5,1.57-3.5,3.5v33.67
	c0,1.14,0.55,2.21,1.49,2.87c0.6,0.42,1.3,0.64,2.02,0.64c0.4,0,0.8-0.07,1.18-0.21c13.89-4.97,16.37-5.7,22.35-7.45l0.54-0.16
	c0.5-0.15,0.98-0.29,1.45-0.44c2.76-0.84,4.94-1.51,9.03-1.51c4.47,0,10.56,0.8,19.15,2.52c16.82,3.37,24.92,4.85,31.92,4.85h0
	c4.07,0,7.78-0.48,12.58-1.15c10.01-1.41,29.7-7.98,39.74-13.27c3.2-1.68,8.55-4.5,8.55-10.51v-0.23
	C150,103.56,146.26,98.13,140.88,98.13z M95.55,21.04h16.03v29.12H95.55V21.04z M67.4,21.04h21.14v32.62c0,1.94,1.57,3.5,3.5,3.5
	h23.04c1.94,0,3.5-1.57,3.5-3.5V21.04h21.14c0.69,0,1.25,0.56,1.25,1.25v62.82c0,0.69-0.56,1.25-1.25,1.25h-34.72
	c-0.99-4.1-4.38-7.02-8.72-7.31c-4.19-0.27-10.86-1.08-17.31-1.86c-4.71-0.57-9.21-1.12-12.83-1.47V22.3
	C66.14,21.6,66.71,21.04,67.4,21.04z M142.99,108.65c0,1.36-1.12,2.37-4.81,4.31c-9.32,4.91-28.22,11.23-37.45,12.53
	c-4.52,0.64-7.99,1.09-11.6,1.09c-6.02,0-12.91-1.18-30.55-4.71c-9.06-1.81-15.58-2.66-20.53-2.66c-5.14,0-8.16,0.92-11.07,1.81
	c-0.45,0.14-0.9,0.28-1.38,0.41l-0.54,0.16c-5.37,1.57-7.98,2.33-18.06,5.91v-25.24c14.61-0.34,18.8-2.85,23.31-6.55
	c0.74-0.61,1.57-1.26,2.53-2.01c1.57-1.23,3.53-2.76,6.26-5.01c5.27-4.35,14.61-6.3,21.53-6.3c0.8,0,1.55,0.03,2.25,0.08
	c3.78,0.29,9.35,0.97,15.25,1.68c6.55,0.79,13.32,1.62,17.71,1.9c1.39,0.09,2.33,1.05,2.45,2.48c0.02,0.24,0.03,1.36,0.04,2.22
	c0,1.11-1.56,1.63-2.62,1.63H73.73c-1.87,0-3.41,1.47-3.5,3.33c-0.02,0.34-0.31,8.32,7.97,12.66c4.51,2.36,19.86,3.36,25.21,3.36
	c0.87,0,1.63-0.02,2.26-0.06c10.61-0.66,23.66-3.68,35.02-6.54c0.07-0.02,0.13-0.02,0.19-0.02c0.79,0,2.11,1.59,2.11,3.28V108.65
	L142.99,108.65z"/>
</svg>
