<?xml version="1.0" encoding="utf-8"?>
<!-- Generator: Adobe Illustrator 24.0.1, SVG Export Plug-In . SVG Version: 6.00 Build 0)  -->
<svg version="1.1" id="Layer_1" xmlns="http://www.w3.org/2000/svg" xmlns:xlink="http://www.w3.org/1999/xlink" x="0px" y="0px"
	 viewBox="0 0 200 200" style="enable-background:new 0 0 200 200;" xml:space="preserve">
<style type="text/css">
	.st0{fill:#56CD93;}
</style>
<g>
	<path class="st0" d="M55.02,123.82c1.92-1.11,2.58-3.57,1.47-5.49c-1.11-1.92-3.57-2.58-5.49-1.47c-1.92,1.11-2.58,3.57-1.47,5.49
		C50.64,124.27,53.1,124.93,55.02,123.82z"/>
	<path class="st0" d="M38.56,151.55l20.23,35.04c4.37,7.57,14.19,10.37,21.95,5.88c7.68-4.44,10.33-14.26,5.88-21.95l-12.05-20.88
		l10.44-6.03c1.92-1.11,2.58-3.57,1.47-5.49l-5.22-9.05c0.62-0.12,4.72-0.92,76.94-15.09c8.93-0.48,14.28-10.25,9.77-18.06
		l-13.35-23.12l8.53-12.92c0.84-1.27,0.89-2.9,0.13-4.22l-8.03-13.92c-0.76-1.32-2.21-2.09-3.72-2l-15.46,0.93l-14.82-25.67
		c-2.15-3.72-5.99-5.97-10.29-6.02c-0.05,0-0.1,0-0.15,0c-4.15,0-7.92,2.07-10.15,5.56L48.18,81.39l-34.12,19.7
		C0.64,108.83-4,126.04,3.77,139.5C10.87,151.8,25.84,156.64,38.56,151.55z M79.66,174.54c2.22,3.84,0.91,8.75-2.94,10.97
		c-3.86,2.23-8.78,0.86-10.97-2.94l-20.09-34.79l13.92-8.03C82.82,180.02,79.29,173.9,79.66,174.54z M70.55,142.69l-4.02-6.96
		l6.96-4.02l4.02,6.96L70.55,142.69z M149.52,47.92l5.55,9.62l-4.95,7.5l-9.57-16.58L149.52,47.92z M107.37,18.94
		c1.08-1.76,2.79-1.95,3.48-1.93c0.69,0.01,2.39,0.22,3.43,2.01l46.72,80.93c1.52,2.63-0.33,5.95-3.38,6.02
		c-0.55,0.01-0.8,0.11-2.2,0.37L106,20.74C107.04,19.41,107.17,19.28,107.37,18.94z M100.65,27.55l46.44,80.43l-70.08,13.75
		L55.7,84.82L100.65,27.55z M10.73,135.48c-1.76-3.05-2.7-6.52-2.7-10.02c0-7.16,3.85-13.84,10.05-17.42l31.31-18.08l20.09,34.79
		l-31.31,18.08C28.57,148.37,16.26,145.07,10.73,135.48z"/>
	<path class="st0" d="M42.58,126.37c-1.11-1.92-3.57-2.58-5.49-1.47l-6.96,4.02c-1.92,1.11-4.38,0.45-5.49-1.47
		c-1.11-1.92-3.57-2.58-5.49-1.47c-1.92,1.11-2.58,3.57-1.47,5.49c3.31,5.73,10.68,7.75,16.46,4.41l6.96-4.02
		C43.03,130.75,43.68,128.29,42.58,126.37z"/>
	<path class="st0" d="M199.71,17.57l-22.38,12.46c-1.94,1.08-2.64,3.53-1.56,5.46c1.08,1.94,3.52,2.64,5.46,1.56l22.38-12.46
		c1.94-1.08,2.64-3.53,1.56-5.46C204.09,17.19,201.65,16.49,199.71,17.57z"/>
	<path class="st0" d="M197.36,59.18l-15.52-4.16c-2.14-0.57-4.35,0.7-4.92,2.84c-0.57,2.14,0.7,4.35,2.84,4.92l15.52,4.16
		c2.16,0.58,4.35-0.71,4.92-2.84C200.78,61.96,199.5,59.75,197.36,59.18z"/>
	<path class="st0" d="M158.36,2.98l-4.16,15.52c-0.57,2.14,0.7,4.35,2.84,4.92c2.14,0.57,4.35-0.7,4.92-2.84l4.16-15.52
		c0.57-2.14-0.7-4.35-2.84-4.92C161.13-0.44,158.93,0.83,158.36,2.98z"/>
</g>
</svg>
