<?xml version="1.0" encoding="utf-8"?>
<!-- Generator: Adobe Illustrator 25.0.0, SVG Export Plug-In . SVG Version: 6.00 Build 0)  -->
<svg version="1.1" id="Layer_1" xmlns="http://www.w3.org/2000/svg" xmlns:xlink="http://www.w3.org/1999/xlink" x="0px" y="0px"
	 viewBox="0 0 150 150" style="enable-background:new 0 0 150 150;" xml:space="preserve">
<style type="text/css">
	.st0{fill:#FF7E5D;}
</style>
<g>
	<g id="Group_990" transform="translate(1.741 7.462)">
		<path id="Path_2450" class="st0" d="M106.02,149.42H40.93c-13.09-0.03-23.69-10.63-23.71-23.72V53.01
			c-0.22-2.22,1.4-4.2,3.61-4.42c2.22-0.22,4.2,1.4,4.42,3.61c0.03,0.27,0.03,0.54,0,0.81v72.69c0.01,8.65,7.02,15.66,15.67,15.67
			h65.09c8.65-0.01,15.66-7.02,15.67-15.67V53.01c-0.22-2.22,1.4-4.2,3.61-4.42c2.22-0.22,4.2,1.4,4.42,3.61
			c0.03,0.27,0.03,0.54,0,0.81v72.69C129.56,138.73,119.05,149.25,106.02,149.42z"/>
	</g>
	<g id="Group_991" transform="translate(0)">
		<path id="Path_2451" class="st0" d="M129.06,15.85H98.52C96.33,2.98,84.12-5.68,71.25-3.48c-9.9,1.68-17.65,9.44-19.34,19.34
			H21.38c-9-0.1-16.37,7.11-16.48,16.1c0,0.12,0,0.24,0,0.37c-0.07,8.81,7.02,16.01,15.84,16.08c0.21,0,0.43,0,0.64-0.01h108.08
			c8.99,0.15,16.4-7.02,16.55-16.01s-7.02-16.4-16.01-16.55C129.68,15.83,129.37,15.83,129.06,15.85L129.06,15.85z M75.22,4.2
			c7.07-0.08,13.25,4.77,14.87,11.65H59.95C61.86,8.99,68.09,4.23,75.22,4.2z M129.06,40.36H21.38c-4.66-0.14-8.32-4.04-8.18-8.7
			c0.14-4.46,3.72-8.04,8.18-8.18h108.08c4.65,0.03,8.41,3.79,8.44,8.44C137.68,36.65,133.78,40.37,129.06,40.36z"/>
	</g>
	<g id="Group_992" transform="translate(4.726 8.159)">
		<path id="Path_2452" class="st0" d="M42.38,129.01c-2.09,0.14-3.9-1.45-4.04-3.54c-0.01-0.17-0.01-0.33,0-0.5V57.94
			c0.22-2.22,2.2-3.84,4.42-3.61c1.91,0.19,3.42,1.7,3.61,3.61v67.1C46.21,127.17,44.52,128.86,42.38,129.01z"/>
	</g>
	<g id="Group_993" transform="translate(11.691 8.159)">
		<path id="Path_2453" class="st0" d="M91.67,129.01c-2.09,0.14-3.9-1.45-4.04-3.54c-0.01-0.17-0.01-0.33,0-0.5V57.94
			c0.22-2.22,2.2-3.84,4.42-3.61c1.91,0.19,3.42,1.7,3.61,3.61v67.1C95.5,127.17,93.8,128.86,91.67,129.01z"/>
	</g>
	<g id="Group_994" transform="translate(8.208 8.159)">
		<path id="Path_2454" class="st0" d="M67.02,129.01c-2.09,0.14-3.9-1.45-4.04-3.54c-0.01-0.17-0.01-0.33,0-0.5V57.94
			c-0.22-2.22,1.4-4.2,3.61-4.42c2.22-0.22,4.2,1.4,4.42,3.61c0.03,0.27,0.03,0.54,0,0.81v67.1
			C70.86,127.17,69.16,128.86,67.02,129.01z"/>
	</g>
</g>
</svg>
