<?xml version="1.0" encoding="utf-8"?>
<!-- Generator: Adobe Illustrator 25.0.0, SVG Export Plug-In . SVG Version: 6.00 Build 0)  -->
<svg version="1.1" id="Layer_1" xmlns="http://www.w3.org/2000/svg" xmlns:xlink="http://www.w3.org/1999/xlink" x="0px" y="0px"
	 viewBox="0 0 150 150" style="enable-background:new 0 0 150 150;" xml:space="preserve">
<style type="text/css">
	.st0{fill:#FFFFFF;}
</style>
<g>
	<path class="st0" d="M75,0C33.64,0,0,33.65,0,75s33.64,75,75,75c41.36,0,75-33.64,75-75S116.36,0,75,0z M75,138.17
		c-34.83,0-63.17-28.34-63.17-63.17c0-34.83,28.34-63.17,63.17-63.17S138.17,40.17,138.17,75C138.17,109.83,109.83,138.17,75,138.17
		z"/>
	<path class="st0" d="M63.14,60.3c0-4.74,6.94-5.56,12.96-5.56c5.67,0,13.43,2.66,19.91,6.02l1.27-13.08
		c-3.24-1.85-10.76-4.05-18.4-4.51l1.85-13.31H68.35l1.85,13.31c-15.97,1.5-21.18,10.76-21.18,18.51c0,19.56,36.45,15.4,36.45,27.43
		c0,4.52-4.28,6.13-11.8,6.13c-10.18,0-17.82-3.58-21.75-7.29l-1.97,14.7c3.71,2.2,11.22,4.17,20.25,4.63l-1.85,12.85h12.38
		l-1.85-12.96c18.75-1.62,22.1-11.58,22.1-18.17C100.98,65.74,63.14,71.53,63.14,60.3z"/>
</g>
</svg>
