<?xml version="1.0" encoding="utf-8"?>
<!-- Generator: Adobe Illustrator 24.0.1, SVG Export Plug-In . SVG Version: 6.00 Build 0)  -->
<svg version="1.1" id="Layer_1" xmlns="http://www.w3.org/2000/svg" xmlns:xlink="http://www.w3.org/1999/xlink" x="0px" y="0px"
	 viewBox="0 0 150 150" style="enable-background:new 0 0 150 150;" xml:space="preserve">
<style type="text/css">
	.st0{fill:#231F20;}
	.st1{clip-path:url(#SVGID_2_);fill:url(#SVGID_3_);}
	.st2{clip-path:url(#SVGID_2_);fill:url(#SVGID_4_);}
	.st3{clip-path:url(#SVGID_2_);fill:url(#SVGID_5_);}
	.st4{clip-path:url(#SVGID_2_);fill:url(#SVGID_6_);}
	.st5{fill:#F9F9F9;}
	.st6{fill:#FFFFFF;}
</style>
<g>
	<path class="st0" d="M70.92,83.74c0,1.77-1.43,3.2-3.2,3.2H1.66c-1.77,0-3.2-1.43-3.2-3.2v-17.3c0-1.77,1.43-3.2,3.2-3.2h66.05
		c1.77,0,3.2,1.43,3.2,3.2V83.74z"/>
	<g id="PLAY_1_">
		<defs>
			<path id="SVGID_1_" d="M14.16,73.67l-3.27-1.89c0,0-5.95-3.44-6.3-3.64c-0.35-0.2-0.7-0.08-0.7,0.34c0,0.7,0,7.34,0,7.34
				s0,7.17,0,7.49c0,0.32,0.25,0.45,0.55,0.28c0.3-0.18,6.45-3.72,6.45-3.72l3.27-1.89c0,0,2.77-1.6,3.14-1.81
				c0.37-0.21,0.33-0.5,0.02-0.67C17.01,75.33,14.16,73.67,14.16,73.67z"/>
		</defs>
		<clipPath id="SVGID_2_">
			<use xlink:href="#SVGID_1_"  style="overflow:visible;"/>
		</clipPath>
		<linearGradient id="SVGID_3_" gradientUnits="userSpaceOnUse" x1="7.9389" y1="67.8001" x2="7.9389" y2="83.8511">
			<stop  offset="0" style="stop-color:#257DB0"/>
			<stop  offset="0.208" style="stop-color:#3C90B3"/>
			<stop  offset="0.7416" style="stop-color:#73BDB9"/>
			<stop  offset="1" style="stop-color:#89CEBC"/>
		</linearGradient>
		<polygon class="st1" points="3.89,67.8 3.89,75.83 3.89,83.85 11.99,75.83 		"/>
		<linearGradient id="SVGID_4_" gradientUnits="userSpaceOnUse" x1="3.892" y1="71.7837" x2="14.1598" y2="71.7837">
			<stop  offset="0" style="stop-color:#51BFAC"/>
			<stop  offset="1" style="stop-color:#DEE899"/>
		</linearGradient>
		<polygon class="st2" points="14.16,73.67 10.89,71.78 3.89,67.74 3.89,67.8 11.99,75.83 		"/>
		<linearGradient id="SVGID_5_" gradientUnits="userSpaceOnUse" x1="9.0258" y1="75.8257" x2="9.0258" y2="83.9095">
			<stop  offset="0" style="stop-color:#EB403D"/>
			<stop  offset="0.1937" style="stop-color:#D64252"/>
			<stop  offset="0.7369" style="stop-color:#9F4887"/>
			<stop  offset="1" style="stop-color:#894A9C"/>
		</linearGradient>
		<polygon class="st3" points="3.89,83.85 3.89,83.91 10.89,79.87 14.16,77.98 11.99,75.83 		"/>
		<linearGradient id="SVGID_6_" gradientUnits="userSpaceOnUse" x1="14.9396" y1="73.6701" x2="14.9396" y2="77.9811">
			<stop  offset="0" style="stop-color:#F48779"/>
			<stop  offset="0.6121" style="stop-color:#FAB076"/>
			<stop  offset="1" style="stop-color:#FDC674"/>
		</linearGradient>
		<polygon class="st4" points="14.16,73.67 11.99,75.83 14.16,77.98 17.89,75.83 		"/>
	</g>
	<g>
		<path class="st5" d="M54.85,78.96c-0.3,0-0.58-0.06-0.83-0.17c-0.25-0.11-0.46-0.28-0.63-0.52h-0.05
			c0.03,0.27,0.05,0.53,0.05,0.78v1.92h-0.71v-6.76h0.57l0.1,0.64h0.03c0.18-0.26,0.39-0.44,0.63-0.55
			c0.24-0.11,0.52-0.17,0.83-0.17c0.62,0,1.1,0.21,1.43,0.63c0.34,0.42,0.5,1.02,0.5,1.78c0,0.77-0.17,1.36-0.51,1.79
			C55.93,78.75,55.46,78.96,54.85,78.96z M54.75,74.73c-0.48,0-0.82,0.13-1.03,0.4c-0.21,0.26-0.32,0.68-0.33,1.26v0.16
			c0,0.66,0.11,1.13,0.33,1.41c0.22,0.28,0.57,0.42,1.05,0.42c0.4,0,0.72-0.16,0.95-0.49c0.23-0.33,0.34-0.78,0.34-1.35
			c0-0.58-0.11-1.03-0.34-1.34C55.48,74.88,55.16,74.73,54.75,74.73z"/>
		<path class="st5" d="M58.42,78.88h-0.71v-6.63h0.71V78.88z"/>
		<path class="st5" d="M62.49,78.88l-0.14-0.66h-0.03c-0.23,0.29-0.46,0.49-0.7,0.59c-0.23,0.1-0.52,0.16-0.87,0.16
			c-0.46,0-0.83-0.12-1.09-0.36c-0.26-0.24-0.39-0.58-0.39-1.02c0-0.94,0.75-1.44,2.26-1.48l0.79-0.03v-0.29
			c0-0.37-0.08-0.64-0.24-0.81c-0.16-0.17-0.41-0.26-0.76-0.26c-0.39,0-0.83,0.12-1.32,0.36l-0.22-0.54
			c0.23-0.12,0.48-0.22,0.76-0.29c0.27-0.07,0.55-0.11,0.82-0.11c0.56,0,0.97,0.12,1.24,0.37c0.27,0.25,0.4,0.64,0.4,1.19v3.19
			H62.49z M60.89,78.38c0.44,0,0.79-0.12,1.04-0.36c0.25-0.24,0.38-0.58,0.38-1.01v-0.42l-0.71,0.03c-0.56,0.02-0.97,0.11-1.22,0.26
			c-0.25,0.15-0.37,0.4-0.37,0.72c0,0.26,0.08,0.45,0.23,0.58C60.4,78.31,60.61,78.38,60.89,78.38z"/>
		<path class="st5" d="M63.42,74.21h0.76l1.02,2.66c0.22,0.61,0.36,1.05,0.42,1.32h0.03c0.04-0.15,0.11-0.39,0.23-0.74
			c0.12-0.35,0.5-1.43,1.16-3.23h0.76l-2.01,5.32c-0.2,0.53-0.43,0.9-0.7,1.12c-0.27,0.22-0.59,0.33-0.98,0.33
			c-0.22,0-0.43-0.02-0.64-0.07v-0.57c0.16,0.03,0.33,0.05,0.52,0.05c0.49,0,0.83-0.27,1.04-0.82l0.26-0.66L63.42,74.21z"/>
	</g>
	<g>
		<path class="st5" d="M41.75,74.64c0.22,0.19,0.69,0.58,0.69,1.32c0,0.72-0.41,1.06-0.82,1.39c-0.13,0.13-0.27,0.26-0.27,0.48
			c0,0.21,0.15,0.33,0.25,0.42l0.35,0.27c0.43,0.36,0.82,0.69,0.82,1.37c0,0.92-0.89,1.84-2.57,1.84c-1.42,0-2.1-0.67-2.1-1.4
			c0-0.35,0.17-0.85,0.75-1.19c0.6-0.37,1.43-0.42,1.86-0.45c-0.14-0.18-0.29-0.36-0.29-0.66c0-0.17,0.05-0.26,0.1-0.38
			c-0.11,0.01-0.21,0.02-0.31,0.02c-1.03,0-1.62-0.77-1.62-1.53c0-0.45,0.21-0.95,0.62-1.31c0.56-0.46,1.22-0.54,1.75-0.54h2.01
			l-0.62,0.35H41.75z M41.06,78.98c-0.08-0.01-0.13-0.01-0.22-0.01c-0.09,0-0.62,0.02-1.03,0.16c-0.21,0.08-0.84,0.31-0.84,1.01
			c0,0.69,0.67,1.19,1.72,1.19c0.94,0,1.44-0.45,1.44-1.05C42.12,79.77,41.8,79.51,41.06,78.98z M41.34,77.12
			c0.22-0.22,0.24-0.54,0.24-0.71c0-0.7-0.42-1.8-1.23-1.8c-0.25,0-0.53,0.13-0.68,0.32c-0.17,0.21-0.21,0.47-0.21,0.72
			c0,0.65,0.38,1.74,1.22,1.74C40.92,77.4,41.18,77.28,41.34,77.12z"/>
		<path class="st5" d="M35.6,78.82c-1.55,0-2.38-1.21-2.38-2.3c0-1.28,1.04-2.37,2.53-2.37c1.43,0,2.33,1.12,2.33,2.3
			C38.08,77.6,37.19,78.82,35.6,78.82z M36.82,78.03c0.23-0.31,0.29-0.7,0.29-1.08c0-0.86-0.41-2.5-1.62-2.5
			c-0.32,0-0.64,0.13-0.88,0.33c-0.38,0.34-0.45,0.77-0.45,1.19c0,0.96,0.48,2.55,1.66,2.55C36.21,78.53,36.6,78.34,36.82,78.03z"/>
		<path class="st5" d="M30.32,78.82c-1.55,0-2.38-1.21-2.38-2.3c0-1.28,1.04-2.37,2.52-2.37c1.43,0,2.33,1.12,2.33,2.3
			C32.8,77.6,31.91,78.82,30.32,78.82z M31.54,78.03c0.23-0.31,0.29-0.7,0.29-1.08c0-0.86-0.41-2.5-1.62-2.5
			c-0.32,0-0.64,0.13-0.88,0.33c-0.38,0.34-0.45,0.77-0.45,1.19c0,0.96,0.48,2.55,1.66,2.55C30.93,78.53,31.32,78.34,31.54,78.03z"
			/>
		<path class="st5" d="M27.2,78.67l-1.4,0.32c-0.57,0.09-1.08,0.17-1.62,0.17c-2.71,0-3.73-1.99-3.73-3.55
			c0-1.9,1.46-3.66,3.96-3.66c0.53,0,1.04,0.08,1.5,0.21c0.74,0.21,1.08,0.46,1.29,0.61l-0.81,0.77l-0.34,0.08l0.24-0.39
			c-0.33-0.32-0.94-0.92-2.1-0.92c-1.55,0-2.71,1.18-2.71,2.89c0,1.84,1.33,3.58,3.47,3.58c0.63,0,0.95-0.13,1.24-0.25v-1.58
			l-1.48,0.08l0.78-0.42h2.08l-0.25,0.24c-0.07,0.06-0.08,0.08-0.1,0.16c-0.01,0.09-0.02,0.37-0.02,0.47V78.67z"/>
		<path class="st5" d="M44.85,78.39c-0.32-0.03-0.39-0.09-0.39-0.47v-0.11v-5.44c0-0.02,0-0.04,0.01-0.06
			c0.04-0.34,0.14-0.4,0.44-0.58h-1.4l-0.74,0.35h0.75v0l0,0v5.73v0.32c0,0.2-0.04,0.23-0.26,0.52h1.73l0.36-0.21
			C45.18,78.42,45.02,78.41,44.85,78.39z"/>
		<path class="st5" d="M48.84,78.48c-0.11,0.06-0.21,0.13-0.32,0.18c-0.32,0.15-0.65,0.18-0.95,0.18c-0.31,0-0.8-0.02-1.29-0.38
			c-0.69-0.49-0.99-1.32-0.99-2.05c0-1.51,1.23-2.25,2.23-2.25c0.35,0,0.71,0.09,1,0.27c0.49,0.32,0.61,0.74,0.68,0.96l-2.29,0.92
			l-0.75,0.06c0.24,1.24,1.08,1.96,2,1.96c0.5,0,0.86-0.17,1.19-0.34L48.84,78.48z M47.92,75.58c0.18-0.07,0.28-0.13,0.28-0.26
			c0-0.39-0.44-0.84-0.96-0.84c-0.39,0-1.12,0.3-1.12,1.35c0,0.17,0.02,0.34,0.03,0.52L47.92,75.58z"/>
		<g>
			<path class="st5" d="M49.78,74.22v0.64H49.7v-0.64h-0.21v-0.07h0.5v0.07H49.78z"/>
			<path class="st5" d="M50.65,74.87v-0.65h0l-0.2,0.65h-0.06l-0.2-0.65h0v0.65h-0.07v-0.71h0.12l0.18,0.57h0l0.18-0.57h0.12v0.71
				H50.65z"/>
		</g>
	</g>
	<g>
		<path class="st5" d="M22.39,70.04H21.9c0-0.07-0.05-0.26-0.14-0.57h-0.7c-0.1,0.31-0.14,0.5-0.14,0.57h-0.46
			c0-0.04,0.12-0.36,0.36-0.97c0.24-0.61,0.36-0.95,0.36-1.01h0.58c0,0.06,0.11,0.39,0.32,0.99C22.28,69.65,22.39,69.98,22.39,70.04
			z M21.69,69.18c-0.17-0.52-0.26-0.81-0.26-0.85H21.4c0,0.04-0.09,0.32-0.27,0.85H21.69z"/>
		<path class="st5" d="M24.35,70.04h-0.38c0-0.04-0.14-0.26-0.42-0.66c-0.29-0.42-0.46-0.71-0.5-0.86h-0.02
			c0.03,0.22,0.04,0.42,0.04,0.6c0,0.25,0.01,0.56,0.02,0.92h-0.37c0.02-0.31,0.02-0.66,0.02-1.04c0-0.37-0.01-0.69-0.02-0.95h0.45
			c0,0.05,0.13,0.27,0.38,0.64c0.27,0.4,0.42,0.67,0.46,0.81h0.02c-0.02-0.23-0.04-0.43-0.04-0.61c0-0.27-0.01-0.56-0.02-0.85h0.38
			c-0.01,0.25-0.02,0.57-0.02,0.95C24.33,69.38,24.34,69.73,24.35,70.04z"/>
		<path class="st5" d="M26.56,68.98c0,0.29-0.09,0.54-0.28,0.75c-0.18,0.22-0.44,0.32-0.78,0.32c-0.15,0-0.36-0.01-0.62-0.02
			c0.01-0.31,0.02-0.65,0.02-1.04c0-0.37-0.01-0.68-0.02-0.95h0.27c0.04,0,0.11,0,0.19,0c0.09,0,0.14,0,0.17,0
			c0.37,0,0.63,0.09,0.8,0.27C26.48,68.5,26.56,68.72,26.56,68.98z M26.14,69.05c0-0.19-0.06-0.36-0.17-0.49
			c-0.11-0.13-0.29-0.2-0.52-0.2c-0.04,0-0.1,0-0.18,0.01c0.01,0.2,0.02,0.41,0.02,0.64c0,0.24,0.01,0.48,0.02,0.72
			c0.07,0.01,0.13,0.02,0.2,0.02c0.22,0,0.38-0.07,0.48-0.2C26.09,69.41,26.14,69.24,26.14,69.05z"/>
		<path class="st5" d="M28.59,70.04h-0.45c-0.12-0.36-0.21-0.58-0.27-0.67c-0.06-0.08-0.16-0.13-0.3-0.13c-0.06,0-0.12,0-0.17,0
			c0,0.26,0,0.52,0.01,0.79h-0.42c0.01-0.31,0.02-0.65,0.02-1.04c0-0.37-0.01-0.68-0.02-0.95h0.26c0.03,0,0.09,0,0.19,0
			c0.1,0,0.19,0,0.27,0c0.47,0,0.7,0.16,0.7,0.48c0,0.25-0.13,0.43-0.4,0.53v0.02c0.1,0.03,0.19,0.11,0.27,0.24
			C28.36,69.45,28.46,69.69,28.59,70.04z M28.02,68.64c0-0.2-0.13-0.3-0.39-0.3c-0.1,0-0.18,0.01-0.25,0.02
			c0.01,0.16,0.02,0.36,0.02,0.61c0.06,0,0.1,0,0.14,0C27.86,68.98,28.02,68.86,28.02,68.64z"/>
		<path class="st5" d="M30.78,69.01c0,0.31-0.1,0.57-0.29,0.77c-0.19,0.2-0.43,0.31-0.71,0.31c-0.27,0-0.49-0.09-0.67-0.28
			c-0.18-0.19-0.27-0.43-0.27-0.72c0-0.31,0.1-0.57,0.29-0.77c0.19-0.2,0.43-0.31,0.71-0.31c0.27,0,0.49,0.09,0.67,0.28
			C30.68,68.48,30.78,68.72,30.78,69.01z M30.36,69.06c0-0.21-0.05-0.38-0.16-0.52c-0.11-0.13-0.24-0.2-0.4-0.2
			c-0.15,0-0.27,0.07-0.38,0.2c-0.1,0.13-0.16,0.3-0.16,0.5c0,0.21,0.05,0.38,0.16,0.52c0.11,0.13,0.24,0.2,0.4,0.2
			c0.15,0,0.27-0.07,0.38-0.2C30.3,69.43,30.36,69.26,30.36,69.06z"/>
		<path class="st5" d="M31.64,70.04H31.2c0.01-0.31,0.02-0.66,0.02-1.04c0-0.37-0.01-0.69-0.02-0.95h0.43
			c-0.01,0.26-0.02,0.57-0.02,0.95C31.62,69.39,31.62,69.73,31.64,70.04z"/>
		<path class="st5" d="M33.84,68.98c0,0.29-0.09,0.54-0.28,0.75c-0.18,0.22-0.44,0.32-0.78,0.32c-0.15,0-0.36-0.01-0.62-0.02
			c0.01-0.31,0.02-0.65,0.02-1.04c0-0.37-0.01-0.68-0.02-0.95h0.27c0.04,0,0.11,0,0.19,0c0.09,0,0.14,0,0.17,0
			c0.37,0,0.63,0.09,0.8,0.27C33.76,68.5,33.84,68.72,33.84,68.98z M33.43,69.05c0-0.19-0.06-0.36-0.17-0.49
			c-0.11-0.13-0.29-0.2-0.52-0.2c-0.04,0-0.1,0-0.18,0.01c0.01,0.2,0.02,0.41,0.02,0.64c0,0.24,0.01,0.48,0.02,0.72
			c0.07,0.01,0.13,0.02,0.2,0.02c0.22,0,0.38-0.07,0.48-0.2C33.37,69.41,33.43,69.24,33.43,69.05z"/>
		<path class="st5" d="M36.77,70.04h-0.49c0-0.07-0.05-0.26-0.14-0.57h-0.7c-0.1,0.31-0.14,0.5-0.14,0.57h-0.46
			c0-0.04,0.12-0.36,0.36-0.97c0.24-0.61,0.36-0.95,0.36-1.01h0.58c0,0.06,0.11,0.39,0.32,0.99C36.66,69.65,36.77,69.98,36.77,70.04
			z M36.06,69.18c-0.17-0.52-0.26-0.81-0.26-0.85h-0.02c0,0.04-0.09,0.32-0.27,0.85H36.06z"/>
		<path class="st5" d="M38.54,68.58c0,0.24-0.09,0.42-0.27,0.54c-0.18,0.12-0.4,0.17-0.66,0.17c-0.05,0-0.08,0-0.1,0
			c0,0.19,0.01,0.44,0.02,0.75H37.1c0.01-0.29,0.02-0.64,0.02-1.04c0-0.37-0.01-0.68-0.02-0.95h0.26c0.04,0,0.11,0,0.22,0
			c0.11,0,0.2,0,0.28,0c0.19,0,0.36,0.04,0.49,0.13C38.48,68.27,38.54,68.4,38.54,68.58z M38.15,68.66c0-0.22-0.14-0.33-0.43-0.33
			c-0.07,0-0.15,0.01-0.23,0.02c0.01,0.19,0.02,0.41,0.02,0.65c0.03,0,0.05,0,0.09,0C37.96,69.01,38.15,68.89,38.15,68.66z"/>
		<path class="st5" d="M40.37,68.58c0,0.24-0.09,0.42-0.27,0.54c-0.18,0.12-0.4,0.17-0.66,0.17c-0.05,0-0.08,0-0.1,0
			c0,0.19,0.01,0.44,0.02,0.75h-0.43c0.01-0.29,0.02-0.64,0.02-1.04c0-0.37-0.01-0.68-0.02-0.95h0.26c0.04,0,0.11,0,0.22,0
			c0.11,0,0.2,0,0.28,0c0.19,0,0.36,0.04,0.49,0.13C40.3,68.27,40.37,68.4,40.37,68.58z M39.98,68.66c0-0.22-0.14-0.33-0.43-0.33
			c-0.07,0-0.15,0.01-0.23,0.02c0.01,0.19,0.02,0.41,0.02,0.65c0.03,0,0.05,0,0.09,0C39.79,69.01,39.98,68.89,39.98,68.66z"/>
		<path class="st5" d="M43.35,69.01c0,0.31-0.1,0.57-0.29,0.77c-0.19,0.2-0.43,0.31-0.71,0.31c-0.27,0-0.49-0.09-0.67-0.28
			c-0.18-0.19-0.27-0.43-0.27-0.72c0-0.31,0.1-0.57,0.29-0.77c0.19-0.2,0.43-0.31,0.71-0.31c0.27,0,0.49,0.09,0.67,0.28
			C43.26,68.48,43.35,68.72,43.35,69.01z M42.93,69.06c0-0.21-0.05-0.38-0.16-0.52c-0.11-0.13-0.24-0.2-0.4-0.2
			c-0.15,0-0.27,0.07-0.38,0.2c-0.1,0.13-0.16,0.3-0.16,0.5c0,0.21,0.05,0.38,0.16,0.52c0.11,0.13,0.24,0.2,0.4,0.2
			c0.15,0,0.27-0.07,0.38-0.2C42.88,69.43,42.93,69.26,42.93,69.06z"/>
		<path class="st5" d="M45.41,70.04h-0.38c0-0.04-0.14-0.26-0.42-0.66c-0.29-0.42-0.46-0.71-0.5-0.86H44.1
			c0.03,0.22,0.04,0.42,0.04,0.6c0,0.25,0.01,0.56,0.02,0.92h-0.37c0.02-0.31,0.02-0.66,0.02-1.04c0-0.37-0.01-0.69-0.02-0.95h0.45
			c0,0.05,0.13,0.27,0.38,0.64c0.27,0.4,0.42,0.67,0.46,0.81h0.02c-0.02-0.23-0.04-0.43-0.04-0.61c0-0.27-0.01-0.56-0.02-0.85h0.38
			c-0.01,0.25-0.02,0.57-0.02,0.95C45.39,69.38,45.4,69.73,45.41,70.04z"/>
	</g>
</g>
<g>
	<path d="M152.26,83.91c0,1.8-1.46,3.27-3.27,3.27H81.62c-1.8,0-3.27-1.46-3.27-3.27V66.27c0-1.8,1.46-3.27,3.27-3.27H149
		c1.8,0,3.27,1.46,3.27,3.27V83.91z"/>
	<g>
		<path class="st6" d="M97.63,78.98c-0.39,0.87-0.58,1.25-1.08,2.02c-0.7,1.07-1.69,2.4-2.92,2.41c-1.09,0.01-1.37-0.71-2.85-0.7
			c-1.48,0.01-1.79,0.71-2.88,0.7c-1.23-0.01-2.17-1.21-2.87-2.28c-1.97-2.99-2.17-6.5-0.96-8.37c0.86-1.33,2.22-2.1,3.5-2.1
			c1.3,0,2.12,0.71,3.19,0.71c1.04,0,1.68-0.71,3.18-0.71c1.14,0,2.34,0.62,3.2,1.69C94.33,73.89,94.79,77.91,97.63,78.98z"/>
		<g>
			<path class="st6" d="M92.8,69.46c0.55-0.7,0.96-1.69,0.81-2.7c-0.89,0.06-1.94,0.63-2.55,1.37c-0.55,0.67-1.01,1.67-0.83,2.64
				C91.21,70.8,92.22,70.21,92.8,69.46z"/>
		</g>
	</g>
	<g>
		<g>
			<path class="st6" d="M103.62,72.72l-2.82,8.29h1.29l0.84-2.54h2.73l0.86,2.54h1.33l-2.83-8.29H103.62z M104.28,74.08
				c0.1,0.37,0.2,0.75,0.33,1.17l0.76,2.2h-2.16l0.75-2.21C104.08,74.88,104.18,74.49,104.28,74.08z"/>
			<path class="st6" d="M111.49,74.87c-0.85,0-1.54,0.33-1.99,0.96L109.45,75h-1.15l0.01,0.11c0.03,0.51,0.05,1.08,0.05,1.89v6.39
				h1.25V80.4c0.39,0.47,1.01,0.74,1.71,0.74c0.73,0,1.41-0.29,1.9-0.81c0.55-0.58,0.84-1.41,0.84-2.41c0-0.88-0.25-1.64-0.73-2.2
				C112.87,75.17,112.21,74.87,111.49,74.87z M111.18,75.9c1.12,0,1.62,1.04,1.62,2.06c0,1.32-0.64,2.15-1.67,2.15
				c-0.7,0-1.31-0.48-1.48-1.16c-0.03-0.11-0.04-0.25-0.04-0.41v-1.01c0-0.09,0.02-0.2,0.04-0.31c0.01-0.03,0.01-0.07,0.02-0.1
				C109.85,76.4,110.47,75.9,111.18,75.9z"/>
			<path class="st6" d="M117.95,74.87c-0.85,0-1.54,0.33-1.99,0.96L115.9,75h-1.15l0.01,0.11c0.03,0.51,0.05,1.08,0.05,1.89v6.39
				h1.25V80.4c0.39,0.47,1.01,0.74,1.71,0.74c0.73,0,1.41-0.29,1.9-0.81c0.55-0.58,0.84-1.41,0.84-2.41c0-0.88-0.25-1.64-0.73-2.2
				C119.32,75.17,118.67,74.87,117.95,74.87z M117.64,75.9c1.12,0,1.62,1.04,1.62,2.06c0,1.32-0.64,2.15-1.67,2.15
				c-0.7,0-1.31-0.48-1.48-1.16c-0.03-0.11-0.04-0.25-0.04-0.41v-1.01c0-0.09,0.02-0.2,0.04-0.31c0.01-0.03,0.01-0.07,0.02-0.1
				C116.31,76.4,116.93,75.9,117.64,75.9z"/>
			<path class="st6" d="M126.04,76.23c-1.17-0.45-1.55-0.81-1.55-1.47c0-0.55,0.44-1.11,1.43-1.11c0.81,0,1.33,0.28,1.47,0.37
				l0.11,0.07l0.35-1.05L127.78,73c-0.21-0.12-0.81-0.41-1.83-0.41c-1.6,0-2.72,0.94-2.72,2.3c0,1.09,0.7,1.85,2.2,2.4
				c1.06,0.4,1.46,0.81,1.46,1.5c0,0.79-0.61,1.28-1.59,1.28c-0.64,0-1.3-0.19-1.81-0.51l-0.11-0.07l-0.34,1.07l0.06,0.04
				c0.47,0.32,1.36,0.54,2.12,0.54c2.16,0,2.92-1.31,2.92-2.44C128.15,77.54,127.54,76.82,126.04,76.23z"/>
			<path class="st6" d="M130.41,73.57l-1.23,0.39V75h-0.9v1h0.9v3.07c0,0.74,0.14,1.26,0.43,1.59c0.28,0.31,0.71,0.48,1.21,0.48
				c0.47,0,0.81-0.09,0.97-0.15l0.07-0.02l-0.06-1L131.69,80c-0.16,0.05-0.32,0.07-0.58,0.07c-0.49,0-0.69-0.31-0.69-1.03V76h1.51
				v-1h-1.51V73.57z"/>
			<path class="st6" d="M135.03,74.87c-1.75,0-2.98,1.31-2.98,3.18c0,1.82,1.19,3.09,2.88,3.09h0.01c1.44,0,2.98-1,2.98-3.2
				c0-0.89-0.28-1.66-0.8-2.22C136.6,75.16,135.87,74.87,135.03,74.87z M134.99,75.86c1.13,0,1.64,1.1,1.64,2.12
				c0,1.26-0.7,2.17-1.67,2.17h-0.01c-0.95,0-1.64-0.9-1.64-2.13C133.32,76.94,133.83,75.86,134.99,75.86z"/>
			<path class="st6" d="M141.77,74.92l-0.08-0.02c-0.11-0.03-0.2-0.04-0.31-0.04c-0.66,0-1.24,0.39-1.57,1.01L139.77,75h-1.13
				l0.01,0.11c0.03,0.5,0.05,1.05,0.05,1.81l-0.01,4.1h1.25v-3.2c0-0.17,0.01-0.34,0.03-0.49c0.14-0.77,0.66-1.26,1.32-1.26
				c0.13,0,0.23,0.01,0.34,0.02l0.13,0.01V74.92z"/>
			<path class="st6" d="M144.58,74.85c-1.67,0-2.84,1.33-2.84,3.24c0,1.84,1.16,3.03,2.96,3.03c0.94,0,1.6-0.21,1.99-0.38l0.08-0.03
				l-0.24-0.93l-0.1,0.04c-0.34,0.14-0.8,0.28-1.57,0.28c-0.54,0-1.8-0.18-1.88-1.82l4.05,0.01l0.02-0.08
				c0.03-0.13,0.04-0.3,0.04-0.52C147.07,76.38,146.42,74.85,144.58,74.85z M144.5,75.81c0.38,0,0.69,0.12,0.92,0.35
				c0.36,0.37,0.42,0.91,0.43,1.17h-2.86C143.11,76.6,143.56,75.81,144.5,75.81z"/>
		</g>
		<g>
			<path class="st6" d="M100.8,67.06c0.35-0.05,0.76-0.08,1.2-0.08c0.81,0,1.38,0.16,1.77,0.48c0.39,0.32,0.62,0.78,0.62,1.41
				c0,0.64-0.23,1.16-0.63,1.52c-0.41,0.37-1.09,0.56-1.93,0.56c-0.41,0-0.74-0.01-1.03-0.05V67.06z M101.37,70.53
				c0.14,0.02,0.35,0.02,0.57,0.02c1.2,0.01,1.86-0.61,1.86-1.66c0.01-0.94-0.58-1.51-1.77-1.51c-0.29,0-0.51,0.02-0.66,0.05V70.53z
				"/>
			<path class="st6" d="M106.41,70.99c-0.84,0-1.5-0.56-1.5-1.45c0-0.94,0.69-1.5,1.55-1.5c0.9,0,1.51,0.59,1.51,1.44
				C107.97,70.54,107.16,70.99,106.41,70.99L106.41,70.99z M106.43,70.61c0.54,0,0.95-0.46,0.95-1.1c0-0.48-0.27-1.08-0.94-1.08
				c-0.67,0-0.96,0.56-0.96,1.09C105.48,70.14,105.87,70.61,106.43,70.61L106.43,70.61z"/>
			<path class="st6" d="M108.87,68.11l0.42,1.43c0.08,0.31,0.17,0.61,0.23,0.9h0.02c0.07-0.29,0.17-0.59,0.28-0.9l0.51-1.43h0.48
				l0.49,1.41c0.12,0.33,0.21,0.63,0.28,0.92h0.02c0.05-0.29,0.14-0.58,0.24-0.91l0.45-1.41h0.56l-1.01,2.82h-0.52l-0.48-1.34
				c-0.11-0.32-0.2-0.6-0.28-0.93h-0.01c-0.08,0.34-0.17,0.63-0.28,0.94l-0.5,1.34h-0.52l-0.94-2.82H108.87z"/>
			<path class="st6" d="M113.4,68.87c0-0.3-0.01-0.53-0.03-0.76h0.5l0.03,0.46h0.01c0.16-0.26,0.52-0.52,1.03-0.52
				c0.43,0,1.11,0.23,1.11,1.2v1.68h-0.57V69.3c0-0.45-0.19-0.84-0.72-0.84c-0.37,0-0.66,0.24-0.76,0.52
				c-0.03,0.06-0.04,0.16-0.04,0.24v1.7h-0.57V68.87z"/>
			<path class="st6" d="M116.99,66.79h0.57v4.13h-0.57V66.79z"/>
			<path class="st6" d="M119.78,70.99c-0.84,0-1.5-0.56-1.5-1.45c0-0.94,0.69-1.5,1.55-1.5c0.9,0,1.51,0.59,1.51,1.44
				C121.33,70.54,120.53,70.99,119.78,70.99L119.78,70.99z M119.79,70.61c0.54,0,0.95-0.46,0.95-1.1c0-0.48-0.27-1.08-0.94-1.08
				c-0.67,0-0.96,0.56-0.96,1.09C118.85,70.14,119.24,70.61,119.79,70.61L119.79,70.61z"/>
			<path class="st6" d="M124.26,70.25c0,0.24,0.01,0.48,0.05,0.67h-0.51l-0.05-0.35h-0.02c-0.17,0.22-0.51,0.42-0.96,0.42
				c-0.63,0-0.96-0.4-0.96-0.81c0-0.68,0.67-1.05,1.88-1.05v-0.06c0-0.23-0.07-0.66-0.71-0.65c-0.3,0-0.6,0.08-0.82,0.21l-0.13-0.34
				c0.26-0.15,0.64-0.24,1.03-0.24c0.96,0,1.2,0.59,1.2,1.15V70.25z M123.7,69.49c-0.62-0.01-1.33,0.09-1.33,0.63
				c0,0.34,0.25,0.49,0.53,0.49c0.41,0,0.68-0.23,0.77-0.47c0.02-0.05,0.03-0.11,0.03-0.16V69.49z"/>
			<path class="st6" d="M127.87,66.79v3.4c0,0.25,0.01,0.54,0.03,0.73h-0.51l-0.03-0.49h-0.01c-0.17,0.31-0.55,0.55-1.06,0.55
				c-0.76,0-1.35-0.58-1.35-1.43c-0.01-0.94,0.65-1.51,1.4-1.51c0.49,0,0.81,0.2,0.94,0.42h0.01v-1.68H127.87z M127.3,69.26
				c0-0.07-0.01-0.15-0.03-0.22c-0.08-0.32-0.39-0.59-0.82-0.59c-0.59,0-0.94,0.47-0.94,1.08c0,0.58,0.32,1.05,0.92,1.05
				c0.38,0,0.73-0.23,0.83-0.61c0.02-0.07,0.03-0.14,0.03-0.22V69.26z"/>
			<path class="st6" d="M131.46,70.99c-0.84,0-1.5-0.56-1.5-1.45c0-0.94,0.69-1.5,1.55-1.5c0.9,0,1.51,0.59,1.51,1.44
				C133.02,70.54,132.21,70.99,131.46,70.99L131.46,70.99z M131.48,70.61c0.54,0,0.95-0.46,0.95-1.1c0-0.48-0.26-1.08-0.94-1.08
				c-0.67,0-0.96,0.56-0.96,1.09C130.54,70.14,130.92,70.61,131.48,70.61L131.48,70.61z"/>
			<path class="st6" d="M133.74,68.87c0-0.3-0.01-0.53-0.03-0.76h0.5l0.03,0.46h0.01c0.16-0.26,0.52-0.52,1.03-0.52
				c0.43,0,1.11,0.23,1.11,1.2v1.68h-0.57V69.3c0-0.45-0.19-0.84-0.72-0.84c-0.37,0-0.66,0.24-0.76,0.52
				c-0.03,0.06-0.04,0.16-0.04,0.24v1.7h-0.57V68.87z"/>
			<path class="st6" d="M139.38,67.43v0.67h0.81v0.39h-0.81v1.52c0,0.35,0.11,0.55,0.43,0.55c0.15,0,0.25-0.01,0.33-0.03l0.03,0.39
				c-0.11,0.03-0.28,0.07-0.5,0.07c-0.27,0-0.48-0.08-0.61-0.22c-0.16-0.16-0.22-0.41-0.22-0.74V68.5h-0.49v-0.39h0.49v-0.52
				L139.38,67.43z"/>
			<path class="st6" d="M140.84,66.79h0.57v1.76h0.01c0.09-0.15,0.23-0.28,0.41-0.36c0.17-0.09,0.37-0.15,0.58-0.15
				c0.42,0,1.09,0.23,1.09,1.2v1.68h-0.57v-1.62c0-0.46-0.19-0.84-0.72-0.84c-0.37,0-0.65,0.23-0.76,0.51
				c-0.03,0.07-0.04,0.15-0.04,0.24v1.7h-0.57V66.79z"/>
			<path class="st6" d="M144.75,69.6c0.01,0.69,0.5,0.98,1.07,0.98c0.41,0,0.66-0.06,0.87-0.14l0.1,0.36
				c-0.2,0.08-0.55,0.18-1.05,0.18c-0.96,0-1.54-0.58-1.54-1.42c0-0.86,0.56-1.52,1.47-1.52c1.02,0,1.29,0.81,1.29,1.33
				c0,0.1-0.01,0.19-0.02,0.24L144.75,69.6z M146.41,69.24c0.01-0.32-0.15-0.83-0.78-0.83c-0.58,0-0.83,0.48-0.87,0.83H146.41z"/>
		</g>
	</g>
</g>
</svg>
