<?xml version="1.0" encoding="utf-8"?>
<!-- Generator: Adobe Illustrator 25.0.0, SVG Export Plug-In . SVG Version: 6.00 Build 0)  -->
<svg version="1.1" id="Layer_1" xmlns="http://www.w3.org/2000/svg" xmlns:xlink="http://www.w3.org/1999/xlink" x="0px" y="0px"
	 viewBox="0 0 150 150" style="enable-background:new 0 0 150 150;" xml:space="preserve">
<style type="text/css">
	.st0{fill:#9E9E9E;}
</style>
<g>
	<circle id="Ellipse_98" class="st0" cx="54.34" cy="52" r="13.4"/>
	<ellipse id="Ellipse_99" class="st0" cx="94.53" cy="52" rx="8.93" ry="13.4"/>
	<path id="Path_2474" class="st0" d="M76.16,122.73c-26.07-0.02-47.2-21.15-47.23-47.23h10.65c-0.84,20.21,14.87,37.26,35.07,38.1
		s37.26-14.87,38.1-35.07c0.04-1.01,0.04-2.02,0-3.03h10.64C123.36,101.57,102.23,122.7,76.16,122.73L76.16,122.73z"/>
	<path id="Path_2475" class="st0" d="M75.5,10.31c36.01,0,65.19,29.19,65.19,65.19S111.51,140.7,75.5,140.7
		s-65.19-29.19-65.19-65.19C10.31,39.5,39.49,10.31,75.5,10.31C75.5,10.31,75.5,10.31,75.5,10.31 M75.5,1C34.35,1,1,34.35,1,75.5
		S34.35,150,75.5,150S150,116.65,150,75.5l0,0C150,34.35,116.65,1,75.5,1z"/>
</g>
</svg>
