<?xml version="1.0" encoding="utf-8"?>
<!-- Generator: Adobe Illustrator 25.0.0, SVG Export Plug-In . SVG Version: 6.00 Build 0)  -->
<svg version="1.1" id="Layer_1" xmlns="http://www.w3.org/2000/svg" xmlns:xlink="http://www.w3.org/1999/xlink" x="0px" y="0px"
	 viewBox="0 0 150 150" style="enable-background:new 0 0 150 150;" xml:space="preserve">
<style type="text/css">
	.st0{fill:#3B5998;}
	.st1{fill:#FFFFFF;}
</style>
<g id="Group_387" transform="translate(-14136.74 3146.793)">
	<path id="Path_1298" class="st0" d="M14211.74-3125.94c29.9,0,54.14,24.24,54.14,54.14c0,29.9-24.24,54.14-54.14,54.14
		c-29.9,0-54.14-24.24-54.14-54.14C14157.6-3101.7,14181.84-3125.94,14211.74-3125.94L14211.74-3125.94z"/>
	<path id="Path_1299" class="st1" d="M14218.33-3088.66h6.98v-10.28h-8.2v0.04c-9.94,0.35-11.98,5.94-12.15,11.8l0,0v5.15h-6.77
		v10.1h6.77v27.06h10.19v-27.06h8.35l1.62-10.1h-9.96v-3.11c-0.15-1.83,1.21-3.44,3.04-3.59
		C14218.24-3088.66,14218.29-3088.66,14218.33-3088.66z"/>
</g>
</svg>
