<?xml version="1.0" encoding="utf-8"?>
<!-- Generator: Adobe Illustrator 25.0.0, SVG Export Plug-In . SVG Version: 6.00 Build 0)  -->
<svg version="1.1" id="Layer_1" xmlns="http://www.w3.org/2000/svg" xmlns:xlink="http://www.w3.org/1999/xlink" x="0px" y="0px"
	 viewBox="0 0 150 150" style="enable-background:new 0 0 150 150;" xml:space="preserve">
<style type="text/css">
	.st0{fill:#5BDB98;}
</style>
<g>
	<path class="st0" d="M92.58,37.65c2.43,0,4.39-1.97,4.39-4.39c0-2.42,1.97-4.39,4.39-4.39s4.39,1.97,4.39,4.39
		c0,1.56-0.84,3.02-2.2,3.81c-4.06,2.35-6.59,6.73-6.59,11.42c0,2.43,1.97,4.39,4.39,4.39s4.39-1.97,4.39-4.39
		c0-1.56,0.84-3.02,2.2-3.81c4.06-2.35,6.59-6.73,6.59-11.42c0-7.27-5.91-13.18-13.18-13.18s-13.18,5.91-13.18,13.18
		C88.18,35.68,90.15,37.65,92.58,37.65z"/>
	<circle class="st0" cx="101.37" cy="64.01" r="4.39"/>
	<path class="st0" d="M145.61,2.49H57.42c-2.43,0-4.39,1.97-4.39,4.39v52.73H4.39C1.97,59.62,0,61.59,0,64.01v79.1
		c0,2.43,1.97,4.39,4.39,4.39s4.39-1.97,4.39-4.39c0-2.42,1.97-4.39,4.39-4.39h79.39c2.43,0,4.39-1.97,4.39-4.39V85.99h39.84
		c2.42,0,4.39,1.97,4.39,4.39c0,2.43,1.97,4.39,4.39,4.39s4.39-1.97,4.39-4.39V6.88C150,4.46,148.03,2.49,145.61,2.49z
		 M88.18,129.93h-75c-1.54,0-3.02,0.27-4.39,0.75V68.41h44.24v8.79H21.97c-2.43,0-4.39,1.97-4.39,4.39s1.97,4.39,4.39,4.39h66.21
		V129.93z M141.21,77.95c-1.37-0.49-2.85-0.75-4.39-0.75h-75V11.28h79.39V77.95z"/>
	<path class="st0" d="M75,112.35H21.97c-2.43,0-4.39,1.97-4.39,4.39s1.97,4.39,4.39,4.39H75c2.43,0,4.39-1.97,4.39-4.39
		S77.43,112.35,75,112.35z"/>
	<path class="st0" d="M17.58,99.17c0,2.43,1.97,4.39,4.39,4.39H75c2.43,0,4.39-1.97,4.39-4.39s-1.97-4.39-4.39-4.39H21.97
		C19.55,94.78,17.58,96.74,17.58,99.17z"/>
</g>
</svg>
