<?xml version="1.0" encoding="utf-8"?>
<!-- Generator: Adobe Illustrator 25.0.0, SVG Export Plug-In . SVG Version: 6.00 Build 0)  -->
<svg version="1.1" id="Layer_1" xmlns="http://www.w3.org/2000/svg" xmlns:xlink="http://www.w3.org/1999/xlink" x="0px" y="0px"
	 viewBox="0 0 150 150" style="enable-background:new 0 0 150 150;" xml:space="preserve">
<style type="text/css">
	.st0{fill-rule:evenodd;clip-rule:evenodd;fill:#3DE99F;}
	.st1{fill-rule:evenodd;clip-rule:evenodd;fill:#077BB2;}
	.st2{fill-rule:evenodd;clip-rule:evenodd;fill:#223349;}
	.st3{fill:#3DE99F;}
</style>
<g>
	<path class="st0" d="M69.34,108.1h-35.9c-4.17,0-8.22-1.05-11.89-3.03c-9.51-5.16-14.9-15.58-14.9-26.24
		c0-10.66,5.39-21.08,14.9-26.24c3.67-1.99,7.71-3.03,11.89-3.03c1.88,0,3.75,0.22,5.59,0.64c1.6,0.37,3.22-0.59,3.66-2.17
		C46.82,33.1,59.63,21.48,75.5,21.48c15.87,0,28.68,11.62,32.82,26.54c0.44,1.59,2.05,2.54,3.66,2.17c1.83-0.42,3.7-0.64,5.59-0.64
		c4.17,0,8.22,1.05,11.89,3.03c9.51,5.16,14.9,15.58,14.9,26.24c0,10.66-5.39,21.08-14.9,26.24c-3.67,1.99-7.71,3.03-11.89,3.03
		H90.93h-4.25c-1.69,0-3.08,1.38-3.08,3.08c0,1.69,1.38,3.08,3.08,3.08h3.66h27.23c5.2,0,10.25-1.3,14.82-3.78
		c11.5-6.24,18.12-18.72,18.12-31.64c0-12.92-6.62-25.41-18.12-31.64c-4.57-2.48-9.62-3.78-14.82-3.78c-1.39,0-2.78,0.09-4.16,0.28
		c-5.63-16.26-20.23-28.36-37.91-28.36c-17.68,0-32.28,12.1-37.91,28.36c-1.38-0.19-2.76-0.28-4.16-0.28
		c-5.2,0-10.25,1.3-14.82,3.78C7.12,53.43,0.5,65.91,0.5,78.83c0,12.92,6.62,25.41,18.12,31.64c4.57,2.48,9.62,3.78,14.82,3.78
		h33.85"/>
	<line class="st1" x1="69.4" y1="107.92" x2="69.34" y2="108.1"/>
	<g>
		<polygon class="st2" points="74.34,87.53 53.68,87.53 70.77,42.96 95.19,42.96 81.83,73.28 97.81,73.16 59.49,133.27 		"/>
		<path class="st3" d="M93.21,44.26L80.55,72.98c-0.33,0.76,0.22,1.61,1.05,1.61c0,0,0.01,0,0.01,0l13.83-0.11L63.86,124L75.6,87.85
			c0.26-0.8-0.33-1.61-1.17-1.61H55.56l16.1-41.98H93.21 M70.8,41.67c-0.55,0-1.05,0.34-1.25,0.86L53.14,85.31l-0.98,2.56
			c-0.18,0.46,0.16,0.96,0.66,0.96h2.74h16.99L61.4,123.2l-2.77,8.52c-0.53,1.62,1.69,2.66,2.6,1.23l4.82-7.55l31.57-49.53
			l1.86-2.92c0.3-0.47-0.04-1.09-0.6-1.09l-3.47,0.03l-10.81,0.09c-0.37,0-0.62-0.37-0.47-0.71l12.22-27.72
			c0.39-0.88-0.26-1.87-1.22-1.87H70.8z"/>
	</g>
</g>
</svg>
