<?xml version="1.0" encoding="utf-8"?>
<!-- Generator: Adobe Illustrator 25.0.0, SVG Export Plug-In . SVG Version: 6.00 Build 0)  -->
<svg version="1.1" id="Layer_1" xmlns="http://www.w3.org/2000/svg" xmlns:xlink="http://www.w3.org/1999/xlink" x="0px" y="0px"
	 viewBox="0 0 150 150" style="enable-background:new 0 0 150 150;" xml:space="preserve">
<style type="text/css">
	.st0{fill-rule:evenodd;clip-rule:evenodd;fill:#E8E8E8;}
</style>
<path class="st0" d="M78.62,105.55l8.01-12.46l13.89-21.63c0.24-0.38,0.26-0.83,0.04-1.22c-0.22-0.39-0.61-0.62-1.06-0.62
	l-21.05,0.16l15.57-28.11c0.21-0.37,0.21-0.79,0-1.16c-0.21-0.37-0.56-0.59-0.98-0.61l-23.67-1.18c-1.36-0.07-2.55,0.65-3.13,1.88
	L46.01,83.7c-0.31,0.66-0.27,1.36,0.11,1.98c0.38,0.62,0.99,0.97,1.71,1l26.98,0.88l-5.98,17.92h-35.9c-4.17,0-8.22-1.05-11.89-3.03
	c-9.51-5.16-14.9-15.58-14.9-26.24c0-10.66,5.39-21.08,14.9-26.24c3.67-1.99,7.71-3.03,11.89-3.03c1.88,0,3.75,0.22,5.59,0.64
	c1.6,0.37,3.22-0.59,3.66-2.17C46.32,30.48,59.13,18.86,75,18.86c15.87,0,28.68,11.62,32.82,26.54c0.44,1.59,2.05,2.54,3.66,2.17
	c1.83-0.42,3.7-0.64,5.59-0.64c4.17,0,8.22,1.05,11.89,3.03c9.51,5.16,14.9,15.58,14.9,26.24c0,10.66-5.39,21.08-14.9,26.24
	c-3.67,1.99-7.71,3.03-11.89,3.03H90.43h-4.25c-1.69,0-3.08,1.38-3.08,3.08c0,1.69,1.38,3.08,3.08,3.08h3.66h27.23
	c5.2,0,10.25-1.3,14.82-3.78C143.38,101.61,150,89.13,150,76.2c0-12.92-6.62-25.41-18.12-31.64c-4.57-2.48-9.62-3.78-14.82-3.78
	c-1.39,0-2.78,0.09-4.16,0.28C107.28,24.8,92.68,12.71,75,12.71c-17.68,0-32.28,12.1-37.91,28.36c-1.38-0.19-2.76-0.28-4.16-0.28
	c-5.2,0-10.25,1.3-14.82,3.78C6.62,50.8,0,63.28,0,76.2c0,12.92,6.62,25.41,18.12,31.64c4.57,2.48,9.62,3.78,14.82,3.78h33.85
	l-8.56,25.67l15.2-23.66l1.29-2.01l1.98-3.08L78.62,105.55z"/>
</svg>
