<?xml version="1.0" encoding="utf-8"?>
<!-- Generator: Adobe Illustrator 25.0.0, SVG Export Plug-In . SVG Version: 6.00 Build 0)  -->
<svg version="1.1" id="Layer_1" xmlns="http://www.w3.org/2000/svg" xmlns:xlink="http://www.w3.org/1999/xlink" x="0px" y="0px"
	 viewBox="0 0 150 150" style="enable-background:new 0 0 150 150;" xml:space="preserve">
<style type="text/css">
	.st0{fill:#FBBB00;}
	.st1{fill:#518EF8;}
	.st2{fill:#28B446;}
	.st3{fill:#F14336;}
</style>
<g id="Group_386" transform="translate(-14244.021 3255.487)">
	<path id="Path_1294" class="st0" d="M14282.52-3166.81l-4.56,17.03l-16.68,0.35c-10.24-19.08-10.42-41.98-0.48-61.21l0,0
		l14.85,2.72l6.47,14.76c-2.93,8.56-2.8,17.87,0.37,26.34H14282.52z"/>
	<path id="Path_1295" class="st1" d="M14383.42-3192.73c4.54,23.82-4.45,48.19-23.37,63.36l0,0l-18.69-0.96l-2.65-16.53
		c7.72-4.53,13.66-11.57,16.81-19.94h-35.05v-25.93h62.96L14383.42-3192.73z"/>
	<path id="Path_1296" class="st2" d="M14360.05-3129.37L14360.05-3129.37c-28.24,22.67-69.51,18.15-92.18-10.09
		c-2.5-3.11-4.71-6.44-6.6-9.96l21.25-17.39c7.56,20.16,30.04,30.37,50.19,22.8c2.07-0.78,4.07-1.73,5.98-2.85L14360.05-3129.37z"/>
	<path id="Path_1297" class="st3" d="M14360.86-3230.94l-21.24,17.39c-18.26-11.4-42.3-5.83-53.7,12.43
		c-1.56,2.51-2.84,5.18-3.8,7.98l-21.35-17.48l0,0c16.66-32.15,56.22-44.71,88.37-28.05c4.16,2.16,8.08,4.75,11.69,7.74
		L14360.86-3230.94z"/>
</g>
</svg>
