<svg xmlns="http://www.w3.org/2000/svg" xmlns:xlink="http://www.w3.org/1999/xlink" width="1920.889" height="1186.826" viewBox="0 0 1922.889 1186.826">
  <defs>
    <linearGradient id="linear-gradient" x1="0.681" x2="0.09" y2="0.643" gradientUnits="objectBoundingBox">
      <stop offset="0" stop-color="#60e99c"/>
      <stop offset="1" stop-color="#5bdb98"/>
    </linearGradient>
    <clipPath id="clip-path">
      <path id="Path_7385" data-name="Path 7385" d="M-18.849,1106.867S224.66,902.862,577.34,961.986c193.621,32.459,402.573,136.935,614.989,170.113,180.8,39.009,373.975,46.692,602.986-5.465.527-446.8-231.876-1129.719-231.876-1129.719S5.639-48.5,5.639-3.08-22.237,490.929-18.849,545.43-18.849,1106.867-18.849,1106.867Z" transform="translate(19.135 23.267)" fill="url(#linear-gradient)"/>
    </clipPath>
    <clipPath id="clip-path-2">
      <rect id="Rectangle_4232" data-name="Rectangle 4232" width="385.753" height="1286.33" fill="none"/>
    </clipPath>
    <clipPath id="clip-path-3">
      <path id="Path_7303" data-name="Path 7303" d="M154.968,98.576s-.072,6.773-.3,17.51c-.072,3.368-2.708,50.635-2.708,50.635s57.8,11.975,58.75.313c1.434-17.7,1.18-40.136,2.856-79.509Z" transform="translate(-151.957 -87.525)" fill="none"/>
    </clipPath>
    <clipPath id="clip-path-5">
      <path id="Path_7325" data-name="Path 7325" d="M72,898.068l91.619,8.41.092-71.628-84.63-3.608Z" transform="translate(-72 -831.241)" fill="none"/>
    </clipPath>
    <clipPath id="clip-path-7">
      <path id="Path_7335" data-name="Path 7335" d="M249.549,288.913a371.825,371.825,0,0,1-132.3,20.8C98.489,394.591,51.875,639.426,42.1,690.95a68.486,68.486,0,0,0-.877,19.326c3.936,41.35,19.031,205.9,22.212,329.594,31.787.078,84.9.994,116.691,1.072-2.853-96.707-7.644-285.395-8.638-324.753a68.366,68.366,0,0,1,1.171-14.463c5.6-29.624,27.154-144.393,38.584-216.915C263.316,377.478,313.045,421.43,304.5,367.979c-4.522-28.281-21.211-41.411-31.233-67.52-1.78-4.638-3.829-9.522-7.5-12.016a10.741,10.741,0,0,0-6.2-1.8c-3.316,0-6.79,1.143-10.019,2.268" transform="translate(-40.901 -286.644)" fill="none"/>
    </clipPath>
    <clipPath id="clip-path-9">
      <path id="Path_7339" data-name="Path 7339" d="M226.136,836.4l1.944,68.428,90.441-6.509-9.391-72.121Z" transform="translate(-226.136 -826.194)" fill="none"/>
    </clipPath>
    <clipPath id="clip-path-11">
      <path id="Path_7349" data-name="Path 7349" d="M156.7,375.523l5.639,172.321,12.886,154.309,44.122,326.484,122.9-8.6-46.221-310.2s5.272-195.853,2.346-255.029c-1.693-34.251-19.885-100.046-19.885-100.046Z" transform="translate(-156.7 -354.761)" fill="none"/>
    </clipPath>
    <clipPath id="clip-path-13">
      <rect id="Rectangle_4240" data-name="Rectangle 4240" width="200.007" height="169.045" fill="none"/>
    </clipPath>
    <clipPath id="clip-path-15">
      <rect id="Rectangle_4245" data-name="Rectangle 4245" width="146.263" height="90.366" fill="none"/>
    </clipPath>
    <clipPath id="clip-path-17">
      <path id="Path_7375" data-name="Path 7375" d="M267.04,142.652c-21.338,4.051-36.462,23.482-36.186,46.482l2.435,203.916c1.4,23.515,33.554,57.053,55.163,52,15.215-3.56,27.537-19,28.089-35.516l6.227-216.259c.643-28.356-21.711-51.4-47.541-51.4a43.724,43.724,0,0,0-8.176.773" transform="translate(-230.851 -141.876)" fill="none"/>
    </clipPath>
  </defs>
  <g id="Group_3175" data-name="Group 3175" transform="translate(62.484 132.028)">
    <path id="Path_7300" data-name="Path 7300" d="M-108.939,1132.088S205.025,903.718,550.7,962.64s700.922,287.761,1257.495,164.078c8.885-369.047,3.721-1077.41,3.721-1077.41S-44.774,47.038-108.009,42.77c0,45.261-3.319,428.271,0,482.585S-108.939,1132.088-108.939,1132.088Z" transform="translate(47 -108.762)" fill="url(#linear-gradient)"/>
    <g id="Mask_Group_23" data-name="Mask Group 23" transform="translate(25.864 -132.028)" clip-path="url(#clip-path)">
      <g id="Group_2779" data-name="Group 2779" transform="translate(1013.913 300.162)">
        <g id="Group_2746" data-name="Group 2746">
          <g id="Group_2745" data-name="Group 2745" clip-path="url(#clip-path-2)">
            <path id="Path_7301" data-name="Path 7301" d="M151.957,166.722s57.8,11.975,58.75.313c1.434-17.705,1.18-40.138,2.854-79.509l-58.593,11.05s-.072,6.773-.3,17.511c-.072,3.368-2.708,50.635-2.708,50.635" transform="translate(38.192 32.141)" fill="#ffb693" fill-rule="evenodd"/>
          </g>
        </g>
        <g id="Group_2748" data-name="Group 2748" transform="translate(190.149 119.665)">
          <g id="Group_2747" data-name="Group 2747" clip-path="url(#clip-path-3)">
            <path id="Path_7302" data-name="Path 7302" d="M216.987,116.024c6.688,1.566-8.563-14.815,7.666-28.827,8.94-7.725-21.091,11.045-20.176,2.5,2.194-20.328-46.4,23.164-46.4,23.164s14.712,9.438,27.622,9.527c12.977.094,31.286-6.368,31.286-6.368" transform="translate(-150.418 -88.714)" fill="#292526" fill-rule="evenodd"/>
          </g>
        </g>
        <g id="Group_2750" data-name="Group 2750">
          <g id="Group_2749" data-name="Group 2749" clip-path="url(#clip-path-2)">
            <path id="Path_7304" data-name="Path 7304" d="M211.04,42.939c2.822,8.079,15.713,41.733,5.611,67.293-2.13,5.428-3.558,13.058-7.476,17.135a42.44,42.44,0,0,1-30.565,13.377c-8.415-.021-32.333-3.568-33.435-35.7-.015-.49.976-31.083,1.969-36.489,5.118-27.853,16.5-32.426,28.3-41.6,7.2-5.558,27.5-7.254,35.6,15.973" transform="translate(36.487 8.609)" fill="#ffb693" fill-rule="evenodd"/>
            <path id="Path_7305" data-name="Path 7305" d="M184.169,69.929a3.558,3.558,0,0,1-2.988,3.93,3.123,3.123,0,0,1-2.356-.966,3.734,3.734,0,0,1-1.035-2.506,3.558,3.558,0,0,1,2.988-3.929,3.117,3.117,0,0,1,2.357.963,3.728,3.728,0,0,1,1.033,2.507" transform="translate(44.685 24.401)" fill="#292526"/>
            <path id="Path_7306" data-name="Path 7306" d="M189.335,62.652a2.726,2.726,0,0,0-2.069-3.146c-3.2-.578-8.487-1.463-9.447-1.188-2.523.724-2.909,4.777-.425,5.471.879.246,5.879.879,9,1.26a2.686,2.686,0,0,0,2.938-2.4Z" transform="translate(44.165 21.395)" fill="#292526"/>
            <path id="Path_7307" data-name="Path 7307" d="M156.609,67.309a3.863,3.863,0,0,0,1.694,4.814,2.948,2.948,0,0,0,2.5-.043,3.387,3.387,0,0,0,1.707-2,3.862,3.862,0,0,0-1.7-4.813,2.947,2.947,0,0,0-2.5.043,3.386,3.386,0,0,0-1.706,1.994" transform="translate(39.299 23.866)" fill="#292526"/>
            <path id="Path_7308" data-name="Path 7308" d="M153.53,59.9a2.659,2.659,0,0,1,2.34-2.9c3.236-.215,8.571-.5,9.5-.115,2.445,1.005,2.471,5.081-.061,5.49-.9.145-5.923.212-9.066.238a2.761,2.761,0,0,1-2.714-2.717Z" transform="translate(38.587 20.823)" fill="#292526"/>
            <path id="Path_7309" data-name="Path 7309" d="M165.909,90.149A5.189,5.189,0,0,1,161.38,82.3a4.306,4.306,0,0,1,2.773-1.989c3.347-.891,3.162-9.818,2.809-13.182a.507.507,0,0,1,.414-.57.483.483,0,0,1,.522.453c.056.53,1.311,13.015-3.519,14.3a3.349,3.349,0,0,0-2.208,1.542,3.951,3.951,0,0,0-.525,2.805,4.265,4.265,0,0,0,5.173,3.391.48.48,0,0,1,.531.44.509.509,0,0,1-.4.58,7.155,7.155,0,0,1-1.041.081" transform="translate(40.375 24.437)" fill="#2d292a"/>
            <path id="Path_7310" data-name="Path 7310" d="M169.576,91.354c6.248-2.756,10.151-4.841,12.782-5.493s4.727,9.288-2.729,12.455c-8.708,3.668-11.222-6.444-10.054-6.962" transform="translate(42.553 31.516)" fill="#fff" fill-rule="evenodd"/>
            <path id="Path_7311" data-name="Path 7311" d="M220.089,100.556a42.685,42.685,0,0,0,.075-9.952c-.854-12.125-4.694-22.884-12.883-30.711-6.639-6.343-13.563-9.749-22.332-9.21s-22.377,7.271-30.1,2.718c-12.426-7.325-13.331-26.793-4.509-27.3,4.07-.234,26.432,2.618,20.647-8.374-.751-1.424,6.731-2.673,13.459-2.708,8.094-.045,16.678-2.842,24.615-1.437,10.309,1.827,20.84,6.594,27.371,15.375,7.167,9.632,8.233,25.273,7.806,37.747-.507,14.811-9.644,28.022-18.683,38.075a7.268,7.268,0,0,1-1.974,1.723,3.371,3.371,0,0,1-4.354-1.4,4.492,4.492,0,0,1,.579-5.081Z" transform="translate(36.318 4.842)" fill="#2d292a"/>
            <path id="Path_7312" data-name="Path 7312" d="M217.162,23.862c16.19,1.67,16.44,27.433,15.908,40.829.188-.461-.537-.8-.862-.447a1.938,1.938,0,0,0-.272,1.433c.862,12.976-6.4,26.264-17.131,31.353a10.219,10.219,0,0,1,.371-3.251,294.1,294.1,0,0,0,6.766-51.342Z" transform="translate(53.977 8.762)" fill="#2d292a"/>
            <path id="Path_7313" data-name="Path 7313" d="M217.3,23.26a14.278,14.278,0,0,1,8.2,3.617,20.459,20.459,0,0,1,4.952,7.453,43.682,43.682,0,0,1,2.62,9.8,84.251,84.251,0,0,1,.94,10.427c.1,3.1.072,6.208-.035,9.312l-.038,1.03-1.44-.188c.07-.224.041.266.053.3.047.122.2.2.072.112.03.022.159.024.074.028-.124.009.125-.055.086-.052.092-.009.051-.079.011.128a2.447,2.447,0,0,0,0,.6c.038.67.069,1.339.072,2.012a33.582,33.582,0,0,1-.234,4.057,35.459,35.459,0,0,1-1.88,7.972,34.447,34.447,0,0,1-8.536,13.291,27.727,27.727,0,0,1-7.087,4.892c-.48.228-.882-.313-.925-.776a17.715,17.715,0,0,1,.776-5.2q.563-2.59,1.078-5.194,1.043-5.285,1.9-10.61,1.7-10.662,2.617-21.443.512-6.062.776-12.143a.736.736,0,1,1,1.466-.028q-.466,10.785-1.718,21.521-1.26,10.791-3.3,21.455-.566,2.964-1.2,5.909c-.211.988-.431,1.978-.646,2.961a8.917,8.917,0,0,0-.28,2.739l-.923-.776a28.2,28.2,0,0,0,11.422-10.551,34.214,34.214,0,0,0,5.154-15.638q.086-1.179.078-2.355c0-.8-.081-1.6-.086-2.394-.005-.927.407-2.033,1.372-2.029a1.143,1.143,0,0,1,.988.469,1.388,1.388,0,0,1,.232,1.149.727.727,0,0,1-1.44-.188c.117-2.96.172-5.926.113-8.885a89.039,89.039,0,0,0-.708-9.963,47.888,47.888,0,0,0-2.224-9.681,21.687,21.687,0,0,0-4.265-7.429,12.68,12.68,0,0,0-7.062-3.9c-.385-.073-.69-.116-1.035-.152a.791.791,0,0,1-.735-.809.809.809,0,0,1,.731-.839" transform="translate(53.834 8.54)" fill="#2d292a"/>
            <path id="Path_7314" data-name="Path 7314" d="M204.285,104.481c16.166,1.207,26.35-6.641,28.377-16.6,2.1-11-4.247-21.815-14.272-24.33A17.179,17.179,0,0,0,205.613,65.2c-2.138.649-11,39.838-1.328,39.284" transform="translate(50.231 23.132)" fill="#ffb693"/>
            <path id="Path_7315" data-name="Path 7315" d="M216.7,93.319a.484.484,0,0,1-.46-.408.529.529,0,0,1,.268-.577c1.831-.887,6.294-6.071,6.264-11.652-.025-4.715-3.109-8.555-9.172-11.409a.507.507,0,0,1-.3-.414.536.536,0,0,1,.194-.488.438.438,0,0,1,.485-.04c8.019,3.775,9.722,8.8,9.743,12.348.031,6.116-4.767,11.605-6.824,12.6a.43.43,0,0,1-.191.043" transform="translate(53.618 25.074)" fill="#2d292a"/>
            <path id="Path_7316" data-name="Path 7316" d="M168.793,40.551s-27.557-11.3-45.019-19.857c-4.713-2.311-4.159-5.164-3.363-8.065C123.356,1.89,168.628,31.7,168.628,31.7Z" transform="translate(30.13 3.78)" fill="#2d292a" fill-rule="evenodd"/>
            <path id="Path_7317" data-name="Path 7317" d="M248.773,74.715s9.489-60.24-35.7-72.59c-40.844-11.161-58.345,34.931-58.345,34.931Z" transform="translate(38.89 0.14)" fill="#ffbd6e" fill-rule="evenodd"/>
            <path id="Path_7318" data-name="Path 7318" d="M212.416,65.236a.418.418,0,0,1-.145-.026.484.484,0,0,1-.275-.255.557.557,0,0,1-.028-.393,101.707,101.707,0,0,0,3.424-22.8c.385-11.533-1.38-27.521-11.944-38.209a.551.551,0,0,1,0-.705.443.443,0,0,1,.644-.048c10.834,10.96,12.639,27.272,12.244,39.027a102.847,102.847,0,0,1-3.469,23.052.477.477,0,0,1-.448.357" transform="translate(51.091 0.975)" fill="#2d292a"/>
            <path id="Path_7319" data-name="Path 7319" d="M169.3,43.9a.459.459,0,0,1-.183-.04.5.5,0,0,1-.254-.281.559.559,0,0,1,0-.395,99.168,99.168,0,0,1,10.778-19.507c6.467-9.036,17.1-20.014,31.04-21a.458.458,0,0,1,.437.222.556.556,0,0,1,.031.525.47.47,0,0,1-.407.281c-13.582.961-24,11.727-30.343,20.587a97.964,97.964,0,0,0-10.665,19.3.475.475,0,0,1-.435.315" transform="translate(42.432 0.981)" fill="#2d292a"/>
            <path id="Path_7320" data-name="Path 7320" d="M170.965,27.362,124.852,8.854a4.227,4.227,0,0,0-5.51,2.645,4.764,4.764,0,0,0,.037,3.445,4.186,4.186,0,0,0,2.3,2.355c11.128,4.438,42.036,16.759,42.036,16.759l.427.118Z" transform="translate(29.918 3.143)" fill="#ffbd6e" fill-rule="evenodd"/>
            <path id="Path_7321" data-name="Path 7321" d="M205.839,1.593c-3.932-1.5-7.451-1.627-7.855-.29s2.459,3.638,6.393,5.136,7.454,1.628,7.858.29-2.456-3.636-6.4-5.136" transform="translate(49.751 0.139)" fill="#ffbd6e" fill-rule="evenodd"/>
            <path id="Path_7322" data-name="Path 7322" d="M210.012,8.31a16.971,16.971,0,0,1-5.7-1.244c-3.759-1.431-7.262-3.878-6.685-5.783a1.5,1.5,0,0,1,.776-.9c1.364-.734,4.381-.4,7.687.863,3.759,1.431,7.263,3.878,6.687,5.784a1.508,1.508,0,0,1-.776.9,4.287,4.287,0,0,1-1.993.382m-9.642-7.274a3.444,3.444,0,0,0-1.547.27.563.563,0,0,0-.3.3c-.239.791,2.018,2.935,6.1,4.489,3.328,1.267,6.022,1.413,6.962.911a.538.538,0,0,0,.295-.3c.241-.791-2.018-2.933-6.1-4.489a16.137,16.137,0,0,0-5.412-1.181" transform="translate(49.656 0)" fill="#2d292a"/>
            <path id="Path_7323" data-name="Path 7323" d="M163.709,834.849l-.092,71.628L72,898.067l7.08-66.826Z" transform="translate(18.095 305.225)" fill="#ffb693" fill-rule="evenodd"/>
          </g>
        </g>
        <g id="Group_2752" data-name="Group 2752" transform="translate(90.095 1136.466)">
          <g id="Group_2751" data-name="Group 2751" transform="translate(0)" clip-path="url(#clip-path-5)">
            <path id="Path_7324" data-name="Path 7324" d="M165.554,833.312l3.65,32.908L67.117,838.576Z" transform="translate(-73.227 -830.48)" fill="#2d292a" fill-rule="evenodd"/>
          </g>
        </g>
        <g id="Group_2754" data-name="Group 2754">
          <g id="Group_2753" data-name="Group 2753" clip-path="url(#clip-path-2)">
            <path id="Path_7326" data-name="Path 7326" d="M14.568,917.081A60.852,60.852,0,0,1,31.238,908.9c12.913-4.08,32.414-9.927,39.531-12.5,4.778-1.728,8.622-10.551,11.036-14.542L88.389,868.1l.1-.073c8.324-6.019,20.564-5.949,29.173.166l9.226,8.213c5.976,5.32,15.636,5.629,21.733.7,6.934-5.608,26.153-8.333,35.757-7.765l.01.64,1.181,79.576S9.926,955.684,6.931,949.88c-2.051-3.977-1.107-9.722-.488-13.866.986-6.6,2.414-14.085,8.126-18.935" transform="translate(1.427 317.093)" fill="#fff"/>
            <path id="Path_7327" data-name="Path 7327" d="M159.8,887.547S119.074,880.8,105.083,932.1l55.2-.848Z" transform="translate(26.411 325.792)" fill="#ffbd6e" fill-rule="evenodd"/>
            <path id="Path_7328" data-name="Path 7328" d="M1.674,936.077c-.034-.771-.041-1.572-.053-2.411q-.1-7.491-.183-14.984l2.047-.007,179.3-.848,3.735-.016c-.3.064.086,7.868.091,8.435q.049,3.368.1,6.739c.086,5.908.01,11.4-5.537,14.248-4.29,2.2-10.761,2.65-14.544-1.233-1.774-1.821-3.591-4.616-6.2-4.648s-3.852,1.494-5.413,3.432c-1.733,2.147-3.7,4.576-7.694,4.522s-6.042-2.532-7.833-4.723c-1.628-1.978-2.906-3.539-5.518-3.574s-3.851,1.494-5.42,3.433c-1.724,2.147-3.693,4.575-7.7,4.522s-6.036-2.53-7.833-4.723c-1.618-1.978-2.9-3.538-5.518-3.572s-3.851,1.494-5.412,3.433c-1.734,2.145-3.691,4.575-7.695,4.522s-6.036-2.53-7.832-4.724c-1.62-1.978-2.907-3.537-5.518-3.571s-3.852,1.494-5.421,3.433c-1.724,2.145-3.691,4.575-7.7,4.522s-6.036-2.53-7.832-4.723c-1.619-1.978-2.9-3.538-5.518-3.572s-3.851,1.5-5.412,3.433c-1.734,2.147-3.7,4.576-7.694,4.522s-6.042-2.529-7.839-4.723c-1.62-1.978-2.9-3.538-5.518-3.571s-3.851,1.5-5.421,3.433a10.721,10.721,0,0,1-9.927,4.462,12.251,12.251,0,0,1-11.1-11.482" transform="translate(0.361 337.016)" fill="#292526"/>
            <path id="Path_7329" data-name="Path 7329" d="M53.016,900.73s15.016-31.37,19.374-45.4,28.218-12.906,22.745,11.394-16.4,40.132-27.051,40.271-15.067-6.265-15.067-6.265" transform="translate(13.325 310.743)" fill="gray"/>
            <path id="Path_7330" data-name="Path 7330" d="M2.326,923.979l185.065-.349a1.044,1.044,0,0,0,.791-.352,1.252,1.252,0,0,0,.316-.867,1.2,1.2,0,0,0-1.175-1.218l-185.047.349a1.046,1.046,0,0,0-.792.352,1.253,1.253,0,0,0-.317.867,1.221,1.221,0,0,0,1.159,1.218" transform="translate(0.293 338.254)" fill="#fff"/>
            <path id="Path_7331" data-name="Path 7331" d="M53.672,850.1a7.553,7.553,0,0,1,5.466,2.444c6.539,6.631,7.308,24.443,7.344,31.592-6.962-8.452-19.532-25.536-17.407-31.771.441-1.294,1.616-2.021,3.59-2.219a8.714,8.714,0,0,1,1.007-.045m13.936,38.367a1.06,1.06,0,0,0,.383-.066,1.169,1.169,0,0,0,.74-1.069c.044-1.115.948-27.414-8.044-36.536a9.822,9.822,0,0,0-8.3-3.08c-2.872.29-4.709,1.553-5.46,3.756-3.241,9.506,17.463,33.845,19.831,36.588a1.142,1.142,0,0,0,.848.406" transform="translate(11.708 311.254)" fill="#292526"/>
            <path id="Path_7332" data-name="Path 7332" d="M89.942,857.928A7.757,7.757,0,0,1,93.66,859c1.781,1,2.649,2.157,2.657,3.548.036,6.7-17.033,17.474-26.173,22.5,2.268-6.662,8.553-22.976,16.727-26.472a7.553,7.553,0,0,1,3.073-.647M68.155,888.717a1.042,1.042,0,0,0,.5-.119c3.07-1.585,30-15.791,29.944-26-.014-2.365-1.333-4.3-3.926-5.753a9.427,9.427,0,0,0-8.708-.537c-11.242,4.811-18.614,29.739-18.922,30.8a1.3,1.3,0,0,0,.357,1.3,1.124,1.124,0,0,0,.754.308" transform="translate(16.837 314.129)" fill="#292526"/>
            <path id="Path_7333" data-name="Path 7333" d="M211.239,484.811C263.317,377.478,313.045,421.43,304.5,367.978c-4.522-28.281-21.211-41.41-31.233-67.52-1.78-4.636-3.829-9.522-7.5-12.015-4.855-3.3-10.87-1.39-16.216.471a371.85,371.85,0,0,1-132.3,20.8C98.489,394.592,51.877,639.426,42.1,690.948a68.452,68.452,0,0,0-.877,19.328c3.935,41.348,19.03,205.895,22.211,329.59,31.788.078,84.9.994,116.691,1.072-2.852-96.707-7.645-285.4-8.638-324.755a68.363,68.363,0,0,1,1.173-14.463c5.6-29.62,27.152-144.39,38.582-216.91" transform="translate(10.28 105.254)" fill="#263d51"/>
          </g>
        </g>
        <g id="Group_2756" data-name="Group 2756" transform="translate(51.181 391.898)">
          <g id="Group_2755" data-name="Group 2755" transform="translate(0)" clip-path="url(#clip-path-7)">
            <path id="Path_7334" data-name="Path 7334" d="M64.214,464.67h-.164a.5.5,0,0,1-.447-.542.49.49,0,0,1,.5-.488c.066,0,6.7.231,17.715-8.989,10.2-8.531,26.334-27.114,45.3-67.185a.451.451,0,0,1,.622-.2.538.538,0,0,1,.215.667c-19.1,40.371-35.4,59.067-45.7,67.644-10.433,8.682-16.914,9.089-18.034,9.089" transform="translate(-35.194 -249.73)" fill="#2d292a"/>
          </g>
        </g>
        <g id="Group_2758" data-name="Group 2758">
          <g id="Group_2757" data-name="Group 2757" clip-path="url(#clip-path-2)">
            <path id="Path_7336" data-name="Path 7336" d="M165.157,523.064l-5.714-53.553-3.06,44.476-3.859,78.4Z" transform="translate(38.334 172.401)" fill="#2d292a" fill-rule="evenodd"/>
            <path id="Path_7337" data-name="Path 7337" d="M309.129,826.2l9.392,72.119-90.441,6.511L226.136,836.4Z" transform="translate(56.836 303.372)" fill="#ffb693" fill-rule="evenodd"/>
          </g>
        </g>
        <g id="Group_2760" data-name="Group 2760" transform="translate(282.972 1129.566)">
          <g id="Group_2759" data-name="Group 2759" clip-path="url(#clip-path-9)">
            <path id="Path_7338" data-name="Path 7338" d="M311.924,833.758l3.821,29.051-95.327-21.32Z" transform="translate(-227.573 -823.416)" fill="#2d292a" fill-rule="evenodd"/>
          </g>
        </g>
        <g id="Group_2762" data-name="Group 2762">
          <g id="Group_2761" data-name="Group 2761" clip-path="url(#clip-path-2)">
            <path id="Path_7340" data-name="Path 7340" d="M167.942,918.036a61.172,61.172,0,0,1,16.415-8.667c12.769-4.464,32.062-10.894,39.093-13.68,4.722-1.87,8.339-10.778,10.644-14.833l6.23-13.907.1-.076c8.149-6.255,20.349-6.564,29.076-.736l9.4,7.9a17.242,17.242,0,0,0,21.676.024c6.774-5.8,25.867-9.111,35.447-8.843l.026.637,3.1,79.271s-174.9,11.534-178.023,5.841c-2.141-3.9-1.342-9.656-.823-13.8.822-6.608,2.063-14.111,7.639-19.124" transform="translate(40.142 316.505)" fill="#fff"/>
            <path id="Path_7341" data-name="Path 7341" d="M312.184,883.99s-40.747-5.464-53.449,46.091l54.988-2.544Z" transform="translate(65.029 324.534)" fill="#ffbd6e" fill-rule="evenodd"/>
            <path id="Path_7342" data-name="Path 7342" d="M156.057,938.083c-.053-.769-.08-1.567-.111-2.4q-.278-7.463-.544-14.927l2.04-.07,178.667-6.375,3.721-.131c-.3.073.274,7.841.3,8.4q.129,3.358.259,6.714c.227,5.884.286,11.364-5.173,14.369-4.225,2.324-10.661,2.974-14.524-.778-1.811-1.761-3.691-4.49-6.294-4.442s-3.8,1.606-5.31,3.587c-1.675,2.193-3.577,4.674-7.559,4.745s-6.083-2.336-7.92-4.463c-1.67-1.923-2.982-3.438-5.585-3.391s-3.8,1.608-5.319,3.589c-1.668,2.193-3.569,4.672-7.559,4.745s-6.074-2.335-7.92-4.465c-1.662-1.922-2.973-3.436-5.585-3.391s-3.8,1.608-5.31,3.586c-1.677,2.193-3.569,4.675-7.559,4.747s-6.075-2.335-7.92-4.465c-1.662-1.921-2.982-3.437-5.585-3.391s-3.8,1.608-5.319,3.587c-1.668,2.193-3.568,4.673-7.558,4.745s-6.075-2.335-7.921-4.465c-1.662-1.921-2.975-3.436-5.585-3.391s-3.8,1.608-5.31,3.587c-1.675,2.193-3.577,4.673-7.559,4.745s-6.083-2.335-7.927-4.464c-1.663-1.923-2.975-3.437-5.585-3.391s-3.8,1.608-5.319,3.587a10.762,10.762,0,0,1-9.785,4.753,12.11,12.11,0,0,1-11.337-11.1" transform="translate(39.058 335.679)" fill="#292526"/>
            <path id="Path_7343" data-name="Path 7343" d="M205.947,900.132s14.206-31.732,18.209-45.843,27.809-13.734,22.942,10.653-15.37,40.508-25.984,40.969-15.167-5.779-15.167-5.779" transform="translate(51.762 310.232)" fill="gray"/>
            <path id="Path_7344" data-name="Path 7344" d="M156.419,926.011l184.423-6.06a1.048,1.048,0,0,0,.781-.376,1.255,1.255,0,0,0,.293-.875,1.188,1.188,0,0,0-1.2-1.178l-184.407,6.062a1.047,1.047,0,0,0-.781.375,1.254,1.254,0,0,0-.293.876,1.2,1.2,0,0,0,1.184,1.176" transform="translate(39.015 336.907)" fill="#fff"/>
            <path id="Path_7345" data-name="Path 7345" d="M205.615,849.431a7.478,7.478,0,0,1,5.507,2.261c6.679,6.406,7.876,24.134,8.083,31.259-7.143-8.21-20.084-24.848-18.117-31.126.408-1.3,1.561-2.063,3.522-2.323a8.772,8.772,0,0,1,1-.075m14.818,37.807a1.057,1.057,0,0,0,.38-.078,1.174,1.174,0,0,0,.71-1.088c.016-1.112.282-27.352-8.9-36.163a9.73,9.73,0,0,0-8.346-2.812c-2.854.377-4.656,1.7-5.351,3.911-3,9.571,18.222,33.189,20.652,35.852a1.133,1.133,0,0,0,.854.377" transform="translate(49.925 311.013)" fill="#292526"/>
            <path id="Path_7346" data-name="Path 7346" d="M241.841,856.3a7.7,7.7,0,0,1,3.732.953c1.8.942,2.694,2.073,2.734,3.454.2,6.674-16.555,17.94-25.538,23.231,2.1-6.709,7.967-23.161,16.026-26.9a7.568,7.568,0,0,1,3.047-.739m-20.968,31.356a1.05,1.05,0,0,0,.5-.134c3.018-1.675,29.515-16.663,29.214-26.832-.072-2.355-1.433-4.247-4.052-5.613a9.387,9.387,0,0,0-8.692-.268c-11.089,5.144-17.832,30.212-18.113,31.276a1.284,1.284,0,0,0,.388,1.287,1.107,1.107,0,0,0,.756.283" transform="translate(55.215 313.535)" fill="#292526"/>
            <path id="Path_7347" data-name="Path 7347" d="M278.489,354.765s18.193,65.79,19.886,100.046c2.925,59.177-2.346,255.03-2.346,255.03l46.222,310.2-122.9,8.6L175.226,702.152,162.34,547.843l-5.64-172.32Z" transform="translate(39.386 130.266)" fill="#1b3149" fill-rule="evenodd"/>
          </g>
        </g>
        <g id="Group_2764" data-name="Group 2764" transform="translate(196.086 485.028)">
          <g id="Group_2763" data-name="Group 2763" transform="translate(0)" clip-path="url(#clip-path-11)">
            <path id="Path_7348" data-name="Path 7348" d="M286.651,503.978a.454.454,0,0,1-.133-.021c-18.783-6.023-34.474-15.193-46.64-27.255a97.659,97.659,0,0,1-22.332-34.234,104.708,104.708,0,0,1-7.17-41.71.486.486,0,0,1,.513-.466.5.5,0,0,1,.427.561,103.556,103.556,0,0,0,7.116,41.262c7.9,20.3,26.167,47.33,68.348,60.857a.519.519,0,0,1,.332.567.488.488,0,0,1-.464.442" transform="translate(-143.234 -338.046)" fill="#2d292a"/>
          </g>
        </g>
        <g id="Group_2766" data-name="Group 2766">
          <g id="Group_2765" data-name="Group 2765" clip-path="url(#clip-path-2)">
            <path id="Path_7350" data-name="Path 7350" d="M249.017,616.241c-2.341,0-4.461-.055-6.148-.188a.5.5,0,0,1-.436-.552.487.487,0,0,1,.5-.476c9.151.734,31.3-.906,31.518-.921a.487.487,0,0,1,.5.478.5.5,0,0,1-.437.549c-.184.012-15.045,1.113-25.5,1.113" transform="translate(60.932 225.492)" fill="#2d292a"/>
            <path id="Path_7351" data-name="Path 7351" d="M111.113,139.511c29.6.216,52.3,29.9,46.259,60.5L118.609,396.336c-3.363,16.109-16.359,27.52-31.954,28.065-22.147.77-54.137-22.306-51.5-45.655L67.542,178.114c3.652-22.627,21.861-38.763,43.572-38.6" transform="translate(8.797 51.227)" fill="#ffb693"/>
            <path id="Path_7352" data-name="Path 7352" d="M41.16,273.555l100.484,29.493,21.49-99.492c6.807-31.516-8.914-62.633-38.8-71.137s-55.376,12.127-62.183,43.642Z" transform="translate(10.345 47.916)" fill="#ffbd6e"/>
            <path id="Path_7353" data-name="Path 7353" d="M40.694,260.742a.7.7,0,0,1-.363-.312.754.754,0,0,1-.086-.544l19.28-89.262a.7.7,0,0,1,.3-.437.594.594,0,0,1,.5-.065.74.74,0,0,1,.5.872L41.7,259.561l98.272,26.493a.747.747,0,0,1,.517.866.7.7,0,0,1-.3.441.594.594,0,0,1-.5.072L40.756,260.763a.473.473,0,0,1-.061-.021" transform="translate(10.11 62.459)" fill="#292526"/>
            <path id="Path_7354" data-name="Path 7354" d="M139.954,288.109a1.1,1.1,0,0,1-.28-.037L40.737,261.4a1.092,1.092,0,0,1-.105-.036,1.187,1.187,0,0,1-.6-.521,1.313,1.313,0,0,1-.149-.942l19.279-89.26a1.183,1.183,0,0,1,.5-.748,1.078,1.078,0,0,1,1.267.061,1.326,1.326,0,0,1,.457,1.293L42.359,259.321l97.82,26.369a1.275,1.275,0,0,1,.862,1.478,1.175,1.175,0,0,1-.489.754,1.052,1.052,0,0,1-.6.188M60.242,170.753a.171.171,0,0,0-.1.028.156.156,0,0,0-.069.1L40.8,260.144a.215.215,0,0,0,.026.148.225.225,0,0,0,.12.1l.02.007L139.9,287.071a.182.182,0,0,0,.153-.022.165.165,0,0,0,.067-.1.231.231,0,0,0-.172-.255L41.68,260.2a.52.52,0,0,1-.345-.618L60.463,171.02a.219.219,0,0,0-.155-.252.239.239,0,0,0-.065-.009" transform="translate(10.016 62.321)" fill="#292526"/>
            <path id="Path_7355" data-name="Path 7355" d="M48.7,237.547,130.938,280.5l3.677-18.632Z" transform="translate(12.239 87.226)" fill="#292526"/>
            <path id="Path_7356" data-name="Path 7356" d="M78.01,398.341l239.685,32.1-5.1-42.074Z" transform="translate(19.607 142.606)" fill="#2d292a" fill-rule="evenodd"/>
            <path id="Path_7357" data-name="Path 7357" d="M309.859,132.638l1.763,21.416c8.044,18.692,10.945,32.862,12.516,50.683a120.569,120.569,0,0,1,.186,18.822l12.338,84.179,4.115,189.492-278.8.3,40.766-367.1Z" transform="translate(15.577 47.891)" fill="#ffbd6e"/>
            <rect id="Rectangle_4237" data-name="Rectangle 4237" width="200.007" height="169.045" transform="translate(12.94 325.248)" fill="#d7aa7e"/>
          </g>
        </g>
        <g id="Group_2768" data-name="Group 2768" transform="translate(12.94 325.248)">
          <g id="Group_2767" data-name="Group 2767" clip-path="url(#clip-path-13)">
            <rect id="Rectangle_4239" data-name="Rectangle 4239" width="30.024" height="172.163" transform="translate(86.767 -2.236)" fill="#eadcce"/>
            <path id="Path_7358" data-name="Path 7358" d="M9.752,272.1l203.359-4.49.948,20.946Z" transform="translate(-10.489 -226.984)" fill="#292526" fill-rule="evenodd"/>
          </g>
        </g>
        <g id="Group_2770" data-name="Group 2770">
          <g id="Group_2769" data-name="Group 2769" clip-path="url(#clip-path-2)">
            <rect id="Rectangle_4241" data-name="Rectangle 4241" width="208.46" height="46.806" transform="translate(9.35 324.504)" fill="#d7aa7e"/>
            <rect id="Rectangle_4242" data-name="Rectangle 4242" width="146.263" height="90.368" transform="translate(32.753 234.26)" fill="#d6b698"/>
          </g>
        </g>
        <g id="Group_2772" data-name="Group 2772" transform="translate(32.753 234.26)">
          <g id="Group_2771" data-name="Group 2771" clip-path="url(#clip-path-15)">
            <rect id="Rectangle_4244" data-name="Rectangle 4244" width="21.957" height="88.675" transform="translate(63.45 2.161)" fill="#eadcce"/>
            <path id="Path_7359" data-name="Path 7359" d="M23.754,172.98,175.023,169l.7,18.558Z" transform="translate(-26.783 -172.205)" fill="#292526" fill-rule="evenodd"/>
          </g>
        </g>
        <g id="Group_2774" data-name="Group 2774">
          <g id="Group_2773" data-name="Group 2773" clip-path="url(#clip-path-2)">
            <rect id="Rectangle_4246" data-name="Rectangle 4246" width="152.444" height="22.743" transform="translate(30.127 211.949)" fill="#ddb792"/>
            <rect id="Rectangle_4247" data-name="Rectangle 4247" width="41.89" height="25.105" transform="translate(48.367 286.516)" fill="#fff"/>
            <path id="Path_7360" data-name="Path 7360" d="M74.745,214.872l-32.356-.014a.517.517,0,0,1,0-1.031l32.356.014a.517.517,0,0,1,0,1.031" transform="translate(10.536 78.515)" fill="#292526"/>
            <path id="Path_7361" data-name="Path 7361" d="M74.745,219.755l-32.356-.018a.517.517,0,0,1,0-1.031l32.356.013a.517.517,0,0,1,0,1.031" transform="translate(10.536 80.309)" fill="#292526"/>
            <path id="Path_7362" data-name="Path 7362" d="M74.745,224.636l-32.356-.014a.517.517,0,0,1,0-1.031l32.356.015a.517.517,0,0,1,0,1.03" transform="translate(10.536 82.101)" fill="#292526"/>
            <rect id="Rectangle_4248" data-name="Rectangle 4248" width="41.89" height="25.105" transform="translate(48.367 286.516)" fill="#fff"/>
            <path id="Path_7363" data-name="Path 7363" d="M74.745,214.872l-32.356-.014a.517.517,0,0,1,0-1.031l32.356.014a.517.517,0,0,1,0,1.031" transform="translate(10.536 78.515)" fill="#292526"/>
            <path id="Path_7364" data-name="Path 7364" d="M74.745,219.755l-32.356-.018a.517.517,0,0,1,0-1.031l32.356.013a.517.517,0,0,1,0,1.031" transform="translate(10.536 80.309)" fill="#292526"/>
            <path id="Path_7365" data-name="Path 7365" d="M74.745,224.636l-32.356-.014a.517.517,0,0,1,0-1.031l32.356.015a.517.517,0,0,1,0,1.03" transform="translate(10.536 82.101)" fill="#292526"/>
            <rect id="Rectangle_4249" data-name="Rectangle 4249" width="41.89" height="25.103" transform="translate(29.101 395.246)" fill="#fff"/>
            <path id="Path_7366" data-name="Path 7366" d="M59.349,294.4l-32.356-.012a.517.517,0,0,1,0-1.03l32.356.012a.517.517,0,0,1,0,1.03" transform="translate(6.666 107.717)" fill="#292526"/>
            <path id="Path_7367" data-name="Path 7367" d="M59.349,299.281l-32.356-.013a.517.517,0,0,1,0-1.03l32.356.013a.517.517,0,0,1,0,1.03" transform="translate(6.666 109.511)" fill="#292526"/>
            <path id="Path_7368" data-name="Path 7368" d="M59.349,304.166l-32.356-.015a.517.517,0,0,1,0-1.03l32.356.014a.517.517,0,0,1,0,1.031" transform="translate(6.666 111.303)" fill="#292526"/>
            <path id="Path_7369" data-name="Path 7369" d="M2.1,292.17s33.357-8.864,36.326,6.326C41.387,313.622,11.057,312.539,5,310.608S-1.068,292.332,2.1,292.169" transform="translate(0 106.338)" fill="#e58d76" fill-rule="evenodd"/>
            <path id="Path_7370" data-name="Path 7370" d="M2.852,305.861s41.37-9.77,44.338,5.418C50.144,326.4,11.806,326.23,5.746,324.3s-6.065-18.276-2.894-18.439" transform="translate(0.189 111.174)" fill="#e58d76" fill-rule="evenodd"/>
            <path id="Path_7371" data-name="Path 7371" d="M4.064,320.11s35.659-9.577,38.628,5.611c2.954,15.127-29.674,14.759-35.734,12.828S.9,320.276,4.064,320.11" transform="translate(0.494 116.448)" fill="#e58d76" fill-rule="evenodd"/>
            <path id="Path_7372" data-name="Path 7372" d="M4.54,333.929s30.523-10.216,32.931,5.081C39.226,350.2,13.012,353.257,6.948,351.33s-5.579-17.24-2.409-17.4" transform="translate(0.564 121.389)" fill="#e58d76" fill-rule="evenodd"/>
            <path id="Path_7373" data-name="Path 7373" d="M267.04,142.652c29.093-5.532,56.439,19.312,55.727,50.62l-6.225,216.26c-.553,16.517-12.874,31.959-28.09,35.521-21.608,5.056-53.768-28.483-55.163-52l-2.435-203.922c-.275-23,14.848-42.426,36.186-46.482" transform="translate(58.02 52.095)" fill="#e58d76"/>
          </g>
        </g>
        <g id="Group_2776" data-name="Group 2776" transform="translate(288.871 193.971)">
          <g id="Group_2775" data-name="Group 2775" transform="translate(0)" clip-path="url(#clip-path-17)">
            <path id="Path_7374" data-name="Path 7374" d="M231.781,247.384l88.05,26.353.431-19.068Z" transform="translate(-230.617 -103.134)" fill="#292526"/>
          </g>
        </g>
        <g id="Group_2778" data-name="Group 2778">
          <g id="Group_2777" data-name="Group 2777" clip-path="url(#clip-path-2)">
            <path id="Path_7376" data-name="Path 7376" d="M223.688,289.566,325.35,296.64l4.123-102.177c1.306-32.365-19.432-59.967-50.224-62.545s-50.132,23.106-51.439,55.472Z" transform="translate(56.221 48.374)" fill="#ffbd6e"/>
            <path id="Path_7377" data-name="Path 7377" d="M223.737,272.688a.693.693,0,0,1-.408-.236.75.75,0,0,1-.181-.52l3.7-91.669a.718.718,0,0,1,.223-.49.6.6,0,0,1,.478-.161.721.721,0,0,1,.643.761l-3.67,90.954,100.98,7.029a.728.728,0,0,1,.654.754.721.721,0,0,1-.216.49.6.6,0,0,1-.473.169L223.8,272.7a.208.208,0,0,1-.064-.007" transform="translate(56.085 65.952)" fill="#292526"/>
            <path id="Path_7378" data-name="Path 7378" d="M151.4,329a.486.486,0,0,1-.466-.443c-.035-.283.078-.681.336-.721l121.111-18.426a.437.437,0,0,1,.349.1.52.52,0,0,1,.181.34c.037.283.058,1.12-.2,1.16L151.464,329a.53.53,0,0,1-.066,0" transform="translate(37.933 113.612)" fill="#292526"/>
            <path id="Path_7379" data-name="Path 7379" d="M86.026,368.988a38.807,38.807,0,0,1-12-.669c2.753-3.869,9.349-1.095,17.8-2.611,2.029-.37,16.056-4.13,18.695-3.992.474.026-18.922,6.7-24.487,7.272" transform="translate(18.605 132.818)" fill="#ea9c7d"/>
            <path id="Path_7380" data-name="Path 7380" d="M124.75,371.254c-11.974,6.33-19.246,7.082-31.621,9.145-1.5.246-3.089.519-4.753.836,4.317-7.536,27.955-5.552,36.375-9.98" transform="translate(22.211 136.322)" fill="#ea9c7d"/>
            <path id="Path_7381" data-name="Path 7381" d="M143.528,374.924v.027c-.1,0-.086-.014,0-.027" transform="translate(36.056 137.669)" fill="#ea9c7d"/>
            <path id="Path_7382" data-name="Path 7382" d="M343.856,318.407c-7.644-13.166-45.349-5.087-54.108-5.017L174.175,329.562a147.082,147.082,0,0,0-19.621-6.165c-7.833-2.53-20.072-6.594-21.987-7.507-7.082-3.4-16.618-7.957-21.273-10.174a3.848,3.848,0,0,0-4.968,1.422c-1.914,2.953-3.9,7.875-.438,12.624,3.518,4.826,14.716,12.624,22.2,17.527-1.2.629-2.4,1.354-3.629,2.147-9.935,6.48-23.788,10.664-35.287,12.718-7.77,1.367-25.69-4.5-26.966,4.608-1.477,10.541,13.064,12.428,24.365,13.248,9.822.7,23.136-4.17,26.564-4.522,7.358-.766-9.772,6.207-12.2,7.1-9.61,3.486-8.622,1.984-21.16.875-4.1-.355-16.4-6.1-16.03,2.6.325,7.7,6.467,11.457,13.278,12.976,2.753-3.869,9.347-1.095,17.794-2.612,2.029-.369,16.056-4.129,18.695-3.991.475.026-18.92,6.7-24.487,7.272a38.8,38.8,0,0,1-12-.669,8.094,8.094,0,0,0-1.264,3.745c-1.251,9.885,14.729,13.494,18.221,12.852.336-.069.676-.123,1-.178,4.318-7.536,27.955-5.551,36.376-9.979-11.975,6.329-19.246,7.08-31.621,9.145-1.5.246-3.091.52-4.755.834a5.489,5.489,0,0,0-.587,3.842c1.438,8.162,14.654,7.984,18.656,7.834,7.145-.26,19.133-2.051,27.677-7.861,1.841-1.244,7.57-3.58,9.611-4.333,7.382-2.732,14.414-3.58,21.184-4.156,24.614,1.217,103.022,5.4,146.381-1.668,30.733-5,36.914-26.168,40.068-41.233,5.831-27.769-7.995-28.9-14.115-39.458m-179.879,82.1c-.1,0-.086-.014,0-.027Z" transform="translate(15.608 112.114)" fill="#e58d76" fill-rule="evenodd"/>
            <path id="Path_7383" data-name="Path 7383" d="M174.839,642.53a.489.489,0,0,1-.468-.461L154.117,435.51a.538.538,0,0,1,.184-.487.439.439,0,0,1,.479-.056.517.517,0,0,1,.274.434l20.258,206.56a.547.547,0,0,1-.1.378.46.46,0,0,1-.317.188.326.326,0,0,1-.05,0" transform="translate(38.735 159.708)" fill="#2d292a"/>
            <path id="Path_7384" data-name="Path 7384" d="M326.49,237.147h-.016L224.4,233.437a.517.517,0,0,1,.032-1.03l102.076,3.706a.519.519,0,0,1-.015,1.03" transform="translate(56.285 85.34)" fill="#2d292a"/>
          </g>
        </g>
      </g>
    </g>
  </g>
</svg>
