<svg xmlns="http://www.w3.org/2000/svg" xmlns:xlink="http://www.w3.org/1999/xlink" width="2237.008" height="1226.092" viewBox="0 0 2237.008 1226.092">
  <defs>
    <linearGradient id="linear-gradient" x1="0.681" x2="0.09" y2="0.643" gradientUnits="objectBoundingBox">
      <stop offset="0" stop-color="#60e99c"/>
      <stop offset="1" stop-color="#5bdb98"/>
    </linearGradient>
    <clipPath id="clip-path">
      <path id="Path_7385" data-name="Path 7385" d="M-18.8,1176.38s285.388-216.553,698.721-153.792,642.78,303.248,1194.462,57.369c591.371-245.879-38.773-1081.8-38.773-1081.8S9.9-50.05,9.9-1.838-22.77,522.556-18.8,580.41-18.8,1176.38-18.8,1176.38Z" transform="translate(19.136 23.266)" fill="url(#linear-gradient)"/>
    </clipPath>
    <clipPath id="clip-path-2">
      <rect id="Rectangle_4232" data-name="Rectangle 4232" width="447.392" height="1365.453" fill="none"/>
    </clipPath>
    <clipPath id="clip-path-3">
      <path id="Path_7303" data-name="Path 7303" d="M155.449,99.256s-.083,7.19-.351,18.587c-.083,3.575-3.141,53.75-3.141,53.75s67.039,12.712,68.138.332c1.663-18.793,1.369-42.605,3.312-84.4Z" transform="translate(-151.957 -87.528)" fill="none"/>
    </clipPath>
    <clipPath id="clip-path-5">
      <path id="Path_7325" data-name="Path 7325" d="M72,902.178l106.259,8.927.107-76.034-98.153-3.83Z" transform="translate(-71.997 -831.241)" fill="none"/>
    </clipPath>
    <clipPath id="clip-path-7">
      <path id="Path_7335" data-name="Path 7335" d="M282.889,289.053A467.806,467.806,0,0,1,129.45,311.131c-21.759,90.1-75.821,349.994-87.164,404.687a66.642,66.642,0,0,0-1.017,20.515C45.834,780.226,63.341,954.893,67.03,1086.2c36.866.083,98.468,1.055,135.337,1.138-3.309-102.655-8.866-302.949-10.018-344.728a66.582,66.582,0,0,1,1.358-15.353C200.2,695.811,225.2,573.982,238.456,497c60.4-113.935,118.075-67.28,108.164-124.018-5.245-30.021-24.6-43.958-36.224-71.673-2.064-4.923-4.441-10.108-8.7-12.755a13.311,13.311,0,0,0-7.187-1.906c-3.846,0-7.875,1.213-11.62,2.408" transform="translate(-40.9 -286.645)" fill="none"/>
    </clipPath>
    <clipPath id="clip-path-9">
      <path id="Path_7339" data-name="Path 7339" d="M226.136,837.023l2.255,72.637,104.892-6.909-10.892-76.557Z" transform="translate(-226.136 -826.194)" fill="none"/>
    </clipPath>
    <clipPath id="clip-path-11">
      <path id="Path_7349" data-name="Path 7349" d="M156.7,376.8,163.24,559.72l14.945,163.8,51.172,346.566,142.541-9.127L318.291,731.677s6.114-207.9,2.721-270.716c-1.964-36.358-23.062-106.2-23.062-106.2Z" transform="translate(-156.703 -354.765)" fill="none"/>
    </clipPath>
    <clipPath id="clip-path-13">
      <rect id="Rectangle_4240" data-name="Rectangle 4240" width="231.966" height="179.443" fill="none"/>
    </clipPath>
    <clipPath id="clip-path-15">
      <rect id="Rectangle_4245" data-name="Rectangle 4245" width="169.634" height="95.924" fill="none"/>
    </clipPath>
    <clipPath id="clip-path-17">
      <path id="Path_7375" data-name="Path 7375" d="M272.823,142.7c-24.747,4.3-42.288,24.926-41.968,49.341L233.679,408.5c1.618,24.961,38.915,60.562,63.977,55.194,17.646-3.779,31.937-20.171,32.577-37.7l7.222-229.561c.746-30.1-25.18-54.56-55.137-54.557a55.3,55.3,0,0,0-9.494.823" transform="translate(-230.85 -141.875)" fill="none"/>
    </clipPath>
  </defs>
  <g id="Group_3175" data-name="Group 3175" transform="translate(62.484 132.027)">
    <path id="Path_7300" data-name="Path 7300" d="M-76.461,1202.826s343.048-243,756.381-180.238,642.78,303.248,1194.462,57.369c591.371-245.879-38.773-1081.8-38.773-1081.8S-107.72-5.441-107.72,42.77s-3.969,456.183,0,514.037S-76.461,1202.826-76.461,1202.826Z" transform="translate(47 -108.762)" fill="url(#linear-gradient)"/>
    <g id="Mask_Group_23" data-name="Mask Group 23" transform="translate(25.863 -132.027)" clip-path="url(#clip-path)">
      <g id="Group_2779" data-name="Group 2779" transform="translate(1175.926 318.624)">
        <g id="Group_2746" data-name="Group 2746">
          <g id="Group_2745" data-name="Group 2745" clip-path="url(#clip-path-2)">
            <path id="Path_7301" data-name="Path 7301" d="M151.957,171.593s67.039,12.712,68.138.332c1.663-18.794,1.369-42.607,3.31-84.4L155.449,99.255s-.083,7.19-.351,18.588c-.084,3.575-3.141,53.75-3.141,53.75" transform="translate(68.576 39.501)" fill="#ffb693" fill-rule="evenodd"/>
          </g>
        </g>
        <g id="Group_2748" data-name="Group 2748" transform="translate(220.533 127.028)">
          <g id="Group_2747" data-name="Group 2747" clip-path="url(#clip-path-3)">
            <path id="Path_7302" data-name="Path 7302" d="M226.4,117.976c7.757,1.662-9.931-15.726,8.891-30.6,10.369-8.2-24.461,11.724-23.4,2.657,2.544-21.578-53.815,24.589-53.815,24.589s17.063,10.018,32.036,10.113c15.05.1,36.285-6.76,36.285-6.76" transform="translate(-149.194 -88.989)" fill="#292526" fill-rule="evenodd"/>
          </g>
        </g>
        <g id="Group_2750" data-name="Group 2750">
          <g id="Group_2749" data-name="Group 2749" clip-path="url(#clip-path-2)">
            <path id="Path_7304" data-name="Path 7304" d="M221.565,44.138c3.273,8.576,18.224,44.3,6.508,71.432-2.47,5.762-4.126,13.861-8.671,18.189a51.452,51.452,0,0,1-35.449,14.2c-9.76-.022-37.5-3.788-38.778-37.892-.017-.52,1.132-32.995,2.284-38.733,5.936-29.566,19.132-34.42,32.819-44.155,8.348-5.9,31.889-7.7,41.288,16.955" transform="translate(65.515 10.581)" fill="#ffb693" fill-rule="evenodd"/>
            <path id="Path_7305" data-name="Path 7305" d="M185.19,70.143a3.856,3.856,0,0,1-3.466,4.172,3.8,3.8,0,0,1-3.932-3.685,3.856,3.856,0,0,1,3.466-4.171,3.793,3.793,0,0,1,3.932,3.683" transform="translate(80.232 29.989)" fill="#292526"/>
            <path id="Path_7306" data-name="Path 7306" d="M191.511,62.922a2.912,2.912,0,0,0-2.4-3.339c-3.711-.614-9.843-1.553-10.957-1.261-2.926.769-3.374,5.071-.493,5.808,1.02.261,6.818.933,10.441,1.338a3.061,3.061,0,0,0,3.408-2.546Z" transform="translate(79.299 26.295)" fill="#292526"/>
            <path id="Path_7307" data-name="Path 7307" d="M156.652,67.45a3.945,3.945,0,0,0,1.965,5.11,3.707,3.707,0,0,0,4.878-2.164,3.944,3.944,0,0,0-1.966-5.109,3.706,3.706,0,0,0-4.876,2.162" transform="translate(70.56 29.333)" fill="#292526"/>
            <path id="Path_7308" data-name="Path 7308" d="M153.531,60.1a2.9,2.9,0,0,1,2.714-3.075c3.753-.228,9.941-.528,11.021-.122,2.836,1.067,2.866,5.394-.071,5.828-1.041.154-6.87.225-10.515.253a3.08,3.08,0,0,1-3.148-2.884Z" transform="translate(69.284 25.591)" fill="#292526"/>
            <path id="Path_7309" data-name="Path 7309" d="M166.751,91.6a5.8,5.8,0,0,1-6.017-4.564,5,5,0,0,1,3.981-5.882c3.882-.946,3.667-10.422,3.258-13.993a.546.546,0,1,1,1.086-.125c.065.563,1.521,13.815-4.081,15.179a3.9,3.9,0,0,0-3.17,4.614c.4,2.074,2.456,4.085,6,3.6a.546.546,0,1,1,.148,1.083,9.051,9.051,0,0,1-1.207.086" transform="translate(72.495 30.034)" fill="#2d292a"/>
            <path id="Path_7310" data-name="Path 7310" d="M169.619,91.694c7.246-2.926,11.773-5.139,14.825-5.831s5.482,9.859-3.165,13.221c-10.1,3.894-13.015-6.84-11.66-7.39" transform="translate(76.406 38.734)" fill="#fff" fill-rule="evenodd"/>
            <path id="Path_7311" data-name="Path 7311" d="M232.168,105.93a41.5,41.5,0,0,0,.087-10.564c-.991-12.871-5.444-24.292-14.941-32.6-7.7-6.733-15.73-10.349-25.9-9.777s-25.953,7.718-34.912,2.885c-14.411-7.776-15.461-28.441-5.229-28.979,4.72-.248,30.655,2.779,23.946-8.889-.871-1.512,7.806-2.837,15.61-2.875,9.387-.048,19.343-3.017,28.548-1.525,11.956,1.939,24.17,7,31.745,16.321,8.312,10.224,9.549,26.828,9.053,40.069-.588,15.722-11.185,29.746-21.668,40.417a8.256,8.256,0,0,1-2.289,1.829,4.1,4.1,0,0,1-5.05-1.485,4.454,4.454,0,0,1,.672-5.393Z" transform="translate(65.21 5.951)" fill="#2d292a"/>
            <path id="Path_7312" data-name="Path 7312" d="M217.54,23.862c18.777,1.773,19.067,29.12,18.45,43.34.218-.489-.623-.848-1-.475a1.914,1.914,0,0,0-.315,1.521c1,13.774-7.423,27.879-19.868,33.282a9.977,9.977,0,0,1,.43-3.451,287.263,287.263,0,0,0,7.847-54.5Z" transform="translate(96.924 10.769)" fill="#2d292a"/>
            <path id="Path_7313" data-name="Path 7313" d="M217.8,23.26a17.332,17.332,0,0,1,9.516,3.839,21.691,21.691,0,0,1,5.743,7.911,43.29,43.29,0,0,1,3.039,10.4,82.058,82.058,0,0,1,1.09,11.068c.118,3.29.084,6.59-.041,9.885l-.044,1.093-1.67-.2c.081-.238.048.282.062.315.054.129.231.216.083.119.035.023.184.025.086.03-.144.01.145-.058.1-.055.107-.01.059-.084.013.136a2.38,2.38,0,0,0,0,.634c.044.711.08,1.421.083,2.136a32.665,32.665,0,0,1-.271,4.307,35,35,0,0,1-2.18,8.462,36.384,36.384,0,0,1-9.9,14.108,32.4,32.4,0,0,1-8.22,5.193c-.557.242-1.023-.332-1.073-.824-.181-1.849.479-3.736.9-5.518q.653-2.749,1.25-5.513,1.21-5.61,2.2-11.263,1.977-11.318,3.035-22.762.594-6.435.9-12.89c.054-1.122,1.753-1.16,1.7-.03q-.54,11.448-1.993,22.845-1.461,11.455-3.823,22.775-.657,3.146-1.387,6.272c-.245,1.049-.5,2.1-.749,3.143a8.7,8.7,0,0,0-.325,2.908l-1.07-.824a31.791,31.791,0,0,0,13.247-11.2,34.269,34.269,0,0,0,5.978-16.6q.1-1.252.091-2.5c0-.849-.094-1.694-.1-2.541-.006-.984.472-2.158,1.591-2.154a1.375,1.375,0,0,1,1.415,1.718c-.3.884-1.714.845-1.67-.2.136-3.142.2-6.29.131-9.432a86.645,86.645,0,0,0-.821-10.576,47.228,47.228,0,0,0-2.579-10.277,22.627,22.627,0,0,0-4.947-7.886A15.126,15.126,0,0,0,219,25.171c-.447-.077-.8-.123-1.2-.161a.873.873,0,0,1-.853-.859.889.889,0,0,1,.848-.891" transform="translate(96.66 10.496)" fill="#2d292a"/>
            <path id="Path_7314" data-name="Path 7314" d="M204.993,107.033c18.749,1.281,30.56-7.05,32.911-17.617A21.915,21.915,0,0,0,221.352,63.59a21.558,21.558,0,0,0-14.819,1.744c-2.48.689-12.752,42.288-1.54,41.7" transform="translate(90.192 28.429)" fill="#ffb693"/>
            <path id="Path_7315" data-name="Path 7315" d="M217.24,94.859a.547.547,0,0,1-.222-1.046c2.123-.942,7.3-6.444,7.265-12.369-.029-5.005-3.606-9.081-10.638-12.111a.546.546,0,1,1,.434-1c9.3,4.007,11.276,9.339,11.3,13.107.036,6.492-5.529,12.319-7.914,13.376a.538.538,0,0,1-.221.046" transform="translate(96.266 30.816)" fill="#2d292a"/>
            <path id="Path_7316" data-name="Path 7316" d="M176.609,42.412s-31.96-12-52.213-21.078c-5.466-2.453-4.823-5.482-3.9-8.561,3.416-11.4,55.921,20.241,55.921,20.241Z" transform="translate(54.1 4.646)" fill="#2d292a" fill-rule="evenodd"/>
            <path id="Path_7317" data-name="Path 7317" d="M263.8,79.287s11.005-63.945-41.4-77.055c-47.37-11.848-67.668,37.08-67.668,37.08Z" transform="translate(69.829 0.172)" fill="#ffbd6e" fill-rule="evenodd"/>
            <path id="Path_7318" data-name="Path 7318" d="M213.87,69.083a.524.524,0,0,1-.168-.028.545.545,0,0,1-.351-.688,99.509,99.509,0,0,0,3.971-24.2c.446-12.242-1.6-29.214-13.853-40.559a.547.547,0,0,1,.743-.8c12.565,11.634,14.658,28.949,14.2,41.428a100.624,100.624,0,0,1-4.023,24.47.546.546,0,0,1-.52.379" transform="translate(91.743 1.2)" fill="#2d292a"/>
            <path id="Path_7319" data-name="Path 7319" d="M169.373,46.431a.574.574,0,0,1-.212-.042.547.547,0,0,1-.292-.717,103,103,0,0,1,12.5-20.707c7.5-9.592,19.833-21.245,36-22.292a.547.547,0,1,1,.07,1.091c-15.752,1.02-27.833,12.448-35.192,21.853A101.755,101.755,0,0,0,169.878,46.1a.55.55,0,0,1-.505.334" transform="translate(76.189 1.206)" fill="#2d292a"/>
            <path id="Path_7320" data-name="Path 7320" d="M179.262,28.518,125.781,8.872a5.03,5.03,0,0,0-6.391,2.808,4.659,4.659,0,0,0,2.712,6.156c12.906,4.711,48.753,17.79,48.753,17.79l.495.125Z" transform="translate(53.72 3.863)" fill="#ffbd6e" fill-rule="evenodd"/>
            <path id="Path_7321" data-name="Path 7321" d="M207.1,1.668C202.54.077,198.459-.059,197.99,1.36s2.852,3.862,7.415,5.452,8.645,1.728,9.114.308S211.67,3.26,207.1,1.668" transform="translate(89.33 0.171)" fill="#ffbd6e" fill-rule="evenodd"/>
            <path id="Path_7322" data-name="Path 7322" d="M212,8.821A21.244,21.244,0,0,1,205.394,7.5c-4.36-1.519-8.422-4.116-7.753-6.139a1.644,1.644,0,0,1,.9-.953c1.582-.779,5.081-.421,8.915.916,4.36,1.519,8.423,4.116,7.756,6.14a1.653,1.653,0,0,1-.9.952A5.374,5.374,0,0,1,212,8.821M200.817,1.1a4.324,4.324,0,0,0-1.794.287.628.628,0,0,0-.344.315c-.277.84,2.341,3.116,7.075,4.765,3.86,1.345,6.984,1.5,8.074.967a.6.6,0,0,0,.342-.315c.279-.84-2.341-3.113-7.076-4.765A20.2,20.2,0,0,0,200.817,1.1" transform="translate(89.16 0)" fill="#2d292a"/>
            <path id="Path_7323" data-name="Path 7323" d="M178.363,835.071l-.107,76.034L72,902.177l8.211-70.936Z" transform="translate(32.491 375.127)" fill="#ffb693" fill-rule="evenodd"/>
          </g>
        </g>
        <g id="Group_2752" data-name="Group 2752" transform="translate(104.488 1206.368)">
          <g id="Group_2751" data-name="Group 2751" clip-path="url(#clip-path-5)">
            <path id="Path_7324" data-name="Path 7324" d="M181.283,833.312l4.233,34.932L67.117,838.9Z" transform="translate(-74.2 -830.306)" fill="#2d292a" fill-rule="evenodd"/>
          </g>
        </g>
        <g id="Group_2754" data-name="Group 2754">
          <g id="Group_2753" data-name="Group 2753" clip-path="url(#clip-path-2)">
            <path id="Path_7326" data-name="Path 7326" d="M15.989,920.373a73.453,73.453,0,0,1,19.333-8.689c14.976-4.331,37.593-10.538,45.848-13.272,5.541-1.834,10-11.2,12.8-15.436l7.635-14.6.118-.078c9.654-6.389,23.85-6.315,33.834.176l10.7,8.718c6.931,5.647,18.135,5.975,25.206.74,8.042-5.953,30.332-8.846,41.47-8.243l.012.679,1.37,84.471s-203.71,6.512-207.184.351c-2.379-4.222-1.284-10.32-.566-14.719,1.144-7.005,2.8-14.951,9.425-20.1" transform="translate(2.562 389.713)" fill="#fff"/>
            <path id="Path_7327" data-name="Path 7327" d="M168.539,887.565s-47.229-7.162-63.456,47.295l64.018-.9Z" transform="translate(47.422 400.405)" fill="#ffbd6e" fill-rule="evenodd"/>
            <path id="Path_7328" data-name="Path 7328" d="M1.712,937.2c-.039-.819-.048-1.669-.061-2.559q-.113-7.952-.212-15.906l2.374-.007,207.946-.9,4.332-.017c-.348.068.1,8.352.106,8.954q.057,3.575.115,7.153c.1,6.271.012,12.105-6.422,15.124-4.975,2.334-12.48,2.813-16.868-1.309-2.058-1.933-4.165-4.9-7.193-4.934s-4.467,1.586-6.278,3.643c-2.01,2.279-4.29,4.857-8.923,4.8s-7.008-2.688-9.085-5.013c-1.888-2.1-3.37-3.757-6.4-3.794s-4.466,1.586-6.286,3.644c-2,2.279-4.283,4.856-8.925,4.8s-7-2.686-9.085-5.013c-1.877-2.1-3.36-3.756-6.4-3.792s-4.466,1.586-6.277,3.644c-2.011,2.277-4.281,4.856-8.924,4.8s-7-2.686-9.084-5.014c-1.879-2.1-3.371-3.755-6.4-3.791s-4.467,1.586-6.287,3.644c-2,2.277-4.281,4.856-8.925,4.8s-7-2.686-9.084-5.013c-1.878-2.1-3.361-3.756-6.4-3.792s-4.466,1.588-6.277,3.644c-2.011,2.279-4.29,4.858-8.924,4.8s-7.007-2.685-9.092-5.013c-1.879-2.1-3.361-3.756-6.4-3.791s-4.466,1.588-6.287,3.644a12.933,12.933,0,0,1-11.513,4.736c-6.615-.589-12.538-5.5-12.87-12.188" transform="translate(0.649 414.199)" fill="#292526"/>
            <path id="Path_7329" data-name="Path 7329" d="M53.016,904.08s17.415-33.3,22.47-48.193,32.727-13.7,26.379,12.095-19.019,42.6-31.374,42.748-17.475-6.65-17.475-6.65" transform="translate(23.925 381.909)" fill="gray"/>
            <path id="Path_7330" data-name="Path 7330" d="M2.511,924.15l214.636-.37a1.264,1.264,0,0,0,1.284-1.294,1.334,1.334,0,0,0-1.363-1.293l-214.616.37a1.266,1.266,0,0,0-1.286,1.294,1.355,1.355,0,0,0,1.344,1.293" transform="translate(0.526 415.721)" fill="#fff"/>
            <path id="Path_7331" data-name="Path 7331" d="M54.805,850.25a9.144,9.144,0,0,1,6.339,2.594c7.584,7.039,8.476,25.946,8.518,33.535-8.075-8.972-22.653-27.107-20.189-33.725.512-1.374,1.874-2.145,4.164-2.355a11.039,11.039,0,0,1,1.168-.048m16.163,40.727a1.33,1.33,0,0,0,.444-.07,1.251,1.251,0,0,0,.858-1.135c.051-1.184,1.1-29.1-9.329-38.783a12,12,0,0,0-9.626-3.27c-3.331.308-5.461,1.649-6.332,3.987-3.759,10.091,20.253,35.927,23,38.839a1.375,1.375,0,0,0,.983.431" transform="translate(21.023 382.536)" fill="#292526"/>
            <path id="Path_7332" data-name="Path 7332" d="M93.608,858.078a9.625,9.625,0,0,1,4.313,1.138c2.065,1.058,3.072,2.29,3.081,3.766.042,7.111-19.755,18.549-30.355,23.884,2.63-7.072,9.92-24.389,19.4-28.1a9.456,9.456,0,0,1,3.564-.687M68.34,890.761a1.3,1.3,0,0,0,.582-.126c3.56-1.682,34.793-16.762,34.729-27.6-.016-2.511-1.546-4.566-4.553-6.107a11.826,11.826,0,0,0-10.1-.57c-13.038,5.107-21.588,31.568-21.945,32.692a1.3,1.3,0,0,0,.414,1.382,1.37,1.37,0,0,0,.874.327" transform="translate(30.233 386.071)" fill="#292526"/>
            <path id="Path_7333" data-name="Path 7333" d="M238.457,497c60.4-113.935,118.074-67.28,108.163-124.02-5.245-30.021-24.6-43.957-36.224-71.673-2.064-4.921-4.441-10.108-8.7-12.754-5.631-3.5-12.607-1.476-18.807.5a467.839,467.839,0,0,1-153.437,22.078c-21.761,90.1-75.821,349.994-87.164,404.685a66.609,66.609,0,0,0-1.017,20.517c4.564,43.891,22.071,218.559,25.76,349.863,36.867.083,98.47,1.055,135.337,1.138-3.308-102.655-8.866-302.95-10.018-344.73a66.58,66.58,0,0,1,1.36-15.352C200.206,695.81,225.2,573.981,238.457,497" transform="translate(18.458 129.359)" fill="#263d51"/>
          </g>
        </g>
        <g id="Group_2756" data-name="Group 2756" transform="translate(59.358 416.004)">
          <g id="Group_2755" data-name="Group 2755" clip-path="url(#clip-path-7)">
            <path id="Path_7334" data-name="Path 7334" d="M64.312,469.434c-.1,0-.165,0-.19,0a.547.547,0,0,1,.057-1.093c.077,0,7.766.245,20.546-9.542,11.828-9.056,30.542-28.782,52.535-71.318a.547.547,0,0,1,.971.5c-22.157,42.854-41.053,62.7-53,71.805-12.1,9.216-19.617,9.648-20.916,9.648" transform="translate(-30.654 -241.274)" fill="#2d292a"/>
          </g>
        </g>
        <g id="Group_2758" data-name="Group 2758">
          <g id="Group_2757" data-name="Group 2757" clip-path="url(#clip-path-2)">
            <path id="Path_7336" data-name="Path 7336" d="M167.176,526.358l-6.627-56.847L157,516.723l-4.476,83.221Z" transform="translate(68.831 211.884)" fill="#2d292a" fill-rule="evenodd"/>
            <path id="Path_7337" data-name="Path 7337" d="M322.39,826.195l10.893,76.555L228.39,909.661l-2.254-72.637Z" transform="translate(102.052 372.85)" fill="#ffb693" fill-rule="evenodd"/>
          </g>
        </g>
        <g id="Group_2760" data-name="Group 2760" transform="translate(328.188 1199.044)">
          <g id="Group_2759" data-name="Group 2759" clip-path="url(#clip-path-9)">
            <path id="Path_7338" data-name="Path 7338" d="M326.546,833.758l4.432,30.838L220.419,841.965Z" transform="translate(-228.716 -822.78)" fill="#2d292a" fill-rule="evenodd"/>
          </g>
        </g>
        <g id="Group_2762" data-name="Group 2762">
          <g id="Group_2761" data-name="Group 2761" clip-path="url(#clip-path-2)">
            <path id="Path_7340" data-name="Path 7340" d="M169.256,921.485a73.4,73.4,0,0,1,19.038-9.2c14.809-4.738,37.185-11.564,45.34-14.521,5.476-1.985,9.671-11.441,12.345-15.745l7.225-14.762.115-.081c9.451-6.64,23.6-6.968,33.722-.781l10.9,8.387c7.056,5.431,18.23,5.441,25.139.025,7.856-6.159,30-9.671,41.111-9.387l.03.676,3.6,84.147s-202.845,12.243-206.469,6.2c-2.483-4.14-1.556-10.25-.955-14.654.953-7.014,2.393-14.979,8.86-20.3" transform="translate(72.078 388.991)" fill="#fff"/>
            <path id="Path_7341" data-name="Path 7341" d="M320.724,884s-47.258-5.8-61.989,48.926l63.774-2.7Z" transform="translate(116.763 398.858)" fill="#ffbd6e" fill-rule="evenodd"/>
            <path id="Path_7342" data-name="Path 7342" d="M156.162,939.553c-.062-.816-.093-1.663-.129-2.549q-.322-7.922-.631-15.845l2.366-.074,207.216-6.767,4.316-.139c-.345.078.318,8.323.344,8.92q.15,3.564.3,7.127c.263,6.246.332,12.063-6,15.253-4.9,2.467-12.364,3.157-16.845-.826-2.1-1.869-4.281-4.766-7.3-4.715s-4.409,1.705-6.159,3.808c-1.943,2.328-4.148,4.962-8.767,5.037s-7.055-2.48-9.185-4.738c-1.937-2.041-3.458-3.649-6.477-3.6s-4.41,1.707-6.169,3.81c-1.935,2.328-4.139,4.959-8.767,5.037s-7.044-2.479-9.185-4.74c-1.927-2.04-3.448-3.647-6.477-3.6s-4.409,1.707-6.159,3.807c-1.945,2.328-4.139,4.962-8.767,5.039s-7.046-2.479-9.185-4.74c-1.927-2.039-3.458-3.648-6.477-3.6s-4.409,1.707-6.169,3.808c-1.935,2.328-4.138,4.96-8.766,5.037s-7.046-2.479-9.187-4.74c-1.927-2.039-3.45-3.647-6.477-3.6s-4.409,1.707-6.159,3.808c-1.943,2.328-4.148,4.96-8.767,5.037s-7.055-2.479-9.194-4.738c-1.929-2.041-3.45-3.649-6.477-3.6s-4.409,1.707-6.169,3.808a12.916,12.916,0,0,1-11.348,5.045c-6.611-.4-12.641-5.127-13.149-11.783" transform="translate(70.131 412.556)" fill="#292526"/>
            <path id="Path_7343" data-name="Path 7343" d="M205.947,903.53s16.476-33.684,21.119-48.663,32.253-14.579,26.608,11.308-17.826,43-30.136,43.489-17.591-6.135-17.591-6.135" transform="translate(92.941 381.281)" fill="gray"/>
            <path id="Path_7344" data-name="Path 7344" d="M156.608,926.533,370.5,920.1a1.262,1.262,0,0,0,1.245-1.328,1.328,1.328,0,0,0-1.392-1.25L156.48,923.957a1.261,1.261,0,0,0-1.245,1.328,1.345,1.345,0,0,0,1.373,1.248" transform="translate(70.054 414.065)" fill="#fff"/>
            <path id="Path_7345" data-name="Path 7345" d="M206.73,849.582a9.1,9.1,0,0,1,6.387,2.4c7.746,6.8,9.134,25.618,9.375,33.182-8.284-8.715-23.293-26.376-21.012-33.041.473-1.385,1.81-2.19,4.085-2.466a11.11,11.11,0,0,1,1.164-.08m17.186,40.132a1.322,1.322,0,0,0,.441-.083,1.249,1.249,0,0,0,.824-1.155c.019-1.18.327-29.034-10.323-38.387a11.939,11.939,0,0,0-9.68-2.985c-3.31.4-5.4,1.8-6.206,4.152-3.479,10.16,21.134,35.23,23.952,38.057a1.372,1.372,0,0,0,.991.4" transform="translate(89.642 382.24)" fill="#292526"/>
            <path id="Path_7346" data-name="Path 7346" d="M245.381,856.451a9.585,9.585,0,0,1,4.328,1.012c2.087,1,3.125,2.2,3.171,3.666.231,7.085-19.2,19.044-29.619,24.66,2.432-7.122,9.24-24.586,18.587-28.554a9.445,9.445,0,0,1,3.534-.784m-24.319,33.285a1.306,1.306,0,0,0,.578-.142c3.5-1.778,34.231-17.688,33.882-28.483-.083-2.5-1.662-4.508-4.7-5.958a11.782,11.782,0,0,0-10.081-.284c-12.861,5.46-20.681,32.07-21.007,33.2a1.293,1.293,0,0,0,.45,1.366,1.355,1.355,0,0,0,.877.3" transform="translate(99.141 385.341)" fill="#292526"/>
            <path id="Path_7347" data-name="Path 7347" d="M297.949,354.765s21.1,69.837,23.064,106.2c3.392,62.817-2.721,270.716-2.721,270.716L371.9,1060.958l-142.541,9.127L178.186,723.519l-14.945-163.8L156.7,376.8Z" transform="translate(70.718 160.1)" fill="#1b3149" fill-rule="evenodd"/>
          </g>
        </g>
        <g id="Group_2764" data-name="Group 2764" transform="translate(227.421 514.865)">
          <g id="Group_2763" data-name="Group 2763" clip-path="url(#clip-path-11)">
            <path id="Path_7348" data-name="Path 7348" d="M298.855,510.356a.572.572,0,0,1-.154-.022c-21.784-6.394-39.983-16.128-54.092-28.931a103.314,103.314,0,0,1-25.9-36.34c-10.021-23.607-8.335-44.071-8.316-44.276a.547.547,0,0,1,1.09.1c-.019.2-1.678,20.437,8.253,43.8,9.161,21.544,30.348,50.241,79.269,64.6a.547.547,0,0,1-.154,1.071" transform="translate(-132.525 -334.221)" fill="#2d292a"/>
          </g>
        </g>
        <g id="Group_2766" data-name="Group 2766">
          <g id="Group_2765" data-name="Group 2765" clip-path="url(#clip-path-2)">
            <path id="Path_7350" data-name="Path 7350" d="M250.069,616.373c-2.715,0-5.174-.058-7.13-.2a.547.547,0,1,1,.08-1.091c10.613.779,36.3-.962,36.554-.978a.546.546,0,0,1,.076,1.09c-.213.013-17.449,1.181-29.579,1.181" transform="translate(109.406 277.134)" fill="#2d292a"/>
            <path id="Path_7351" data-name="Path 7351" d="M123.275,139.511c34.332.229,60.658,31.743,53.651,64.222l-44.958,208.4c-3.9,17.1-18.973,29.213-37.06,29.791-25.686.817-62.787-23.678-59.728-48.463L72.741,180.488c4.235-24.019,25.354-41.147,50.534-40.977" transform="translate(15.796 62.959)" fill="#ffb693"/>
            <path id="Path_7352" data-name="Path 7352" d="M41.16,282.354,157.7,313.661l24.924-105.612c7.895-33.455-10.338-66.485-45-75.513S73.4,145.409,65.505,178.862Z" transform="translate(18.575 58.89)" fill="#ffbd6e"/>
            <path id="Path_7353" data-name="Path 7353" d="M40.769,266.318a.8.8,0,0,1-.421-.331.742.742,0,0,1-.1-.578l22.361-94.752a.744.744,0,0,1,.929-.533.781.781,0,0,1,.583.926L41.934,265.064l113.975,28.122a.791.791,0,0,1,.6.919.743.743,0,0,1-.922.544L40.84,266.34a.583.583,0,0,1-.071-.022" transform="translate(18.153 76.763)" fill="#292526"/>
            <path id="Path_7354" data-name="Path 7354" d="M155.95,295.391a1.384,1.384,0,0,1-.325-.039L40.879,267.041c-.042-.012-.084-.023-.122-.038a1.349,1.349,0,0,1-.7-.553,1.293,1.293,0,0,1-.173-1l22.36-94.75a1.257,1.257,0,0,1,.578-.794,1.344,1.344,0,0,1,2,1.437L42.76,264.832l113.45,27.991a1.347,1.347,0,0,1,1,1.569,1.245,1.245,0,0,1-.567.8,1.3,1.3,0,0,1-.691.2M63.5,170.817a.212.212,0,0,0-.113.03.166.166,0,0,0-.08.107L40.947,265.706a.212.212,0,0,0,.03.157.256.256,0,0,0,.139.107l.023.007,114.744,28.312a.228.228,0,0,0,.178-.023.175.175,0,0,0,.078-.11.247.247,0,0,0-.2-.271L41.972,265.764a.547.547,0,0,1-.4-.656L63.757,171.1a.232.232,0,0,0-.18-.268.3.3,0,0,0-.075-.01" transform="translate(17.984 76.593)" fill="#292526"/>
            <path id="Path_7355" data-name="Path 7355" d="M48.7,237.547l95.379,45.594,4.265-19.778Z" transform="translate(21.976 107.202)" fill="#292526"/>
            <path id="Path_7356" data-name="Path 7356" d="M78.01,398.954l277.984,34.078-5.917-44.662Z" transform="translate(35.205 175.266)" fill="#2d292a" fill-rule="evenodd"/>
            <path id="Path_7357" data-name="Path 7357" d="M349.468,132.774l2.045,22.733c9.329,19.842,12.694,34.883,14.516,53.8a117.174,117.174,0,0,1,.216,19.98l14.31,89.357,4.773,201.147-323.349.321,47.28-389.683Z" transform="translate(27.97 58.859)" fill="#ffbd6e"/>
            <rect id="Rectangle_4237" data-name="Rectangle 4237" width="231.966" height="179.443" transform="translate(15.008 345.254)" fill="#d7aa7e"/>
          </g>
        </g>
        <g id="Group_2768" data-name="Group 2768" transform="translate(15.008 345.254)">
          <g id="Group_2767" data-name="Group 2767" clip-path="url(#clip-path-13)">
            <rect id="Rectangle_4239" data-name="Rectangle 4239" width="34.822" height="182.752" transform="translate(100.631 -2.374)" fill="#eadcce"/>
            <path id="Path_7358" data-name="Path 7358" d="M9.752,272.376l235.853-4.766,1.1,22.234Z" transform="translate(-10.607 -224.485)" fill="#292526" fill-rule="evenodd"/>
          </g>
        </g>
        <g id="Group_2770" data-name="Group 2770">
          <g id="Group_2769" data-name="Group 2769" clip-path="url(#clip-path-2)">
            <rect id="Rectangle_4241" data-name="Rectangle 4241" width="241.77" height="49.685" transform="translate(10.844 344.464)" fill="#d7aa7e"/>
            <rect id="Rectangle_4242" data-name="Rectangle 4242" width="169.634" height="95.926" transform="translate(37.987 248.669)" fill="#d6b698"/>
          </g>
        </g>
        <g id="Group_2772" data-name="Group 2772" transform="translate(37.987 248.669)">
          <g id="Group_2771" data-name="Group 2771" clip-path="url(#clip-path-15)">
            <rect id="Rectangle_4244" data-name="Rectangle 4244" width="25.466" height="94.129" transform="translate(73.589 2.294)" fill="#eadcce"/>
            <path id="Path_7359" data-name="Path 7359" d="M23.754,173.225,199.194,169l.816,19.7Z" transform="translate(-27.267 -172.402)" fill="#292526" fill-rule="evenodd"/>
          </g>
        </g>
        <g id="Group_2774" data-name="Group 2774">
          <g id="Group_2773" data-name="Group 2773" clip-path="url(#clip-path-2)">
            <rect id="Rectangle_4246" data-name="Rectangle 4246" width="176.803" height="24.142" transform="translate(34.941 224.986)" fill="#ddb792"/>
            <rect id="Rectangle_4247" data-name="Rectangle 4247" width="48.583" height="26.649" transform="translate(56.095 304.139)" fill="#fff"/>
            <path id="Path_7360" data-name="Path 7360" d="M79.99,214.936l-37.526-.015a.547.547,0,1,1,0-1.094l37.526.015a.547.547,0,0,1,0,1.094" transform="translate(18.917 96.497)" fill="#292526"/>
            <path id="Path_7361" data-name="Path 7361" d="M79.99,219.819,42.464,219.8a.547.547,0,0,1,0-1.094l37.526.014a.547.547,0,0,1,0,1.094" transform="translate(18.917 98.701)" fill="#292526"/>
            <path id="Path_7362" data-name="Path 7362" d="M79.99,224.7l-37.526-.015a.547.547,0,0,1,0-1.094l37.526.016a.546.546,0,0,1,0,1.093" transform="translate(18.917 100.904)" fill="#292526"/>
            <rect id="Rectangle_4248" data-name="Rectangle 4248" width="48.583" height="26.649" transform="translate(56.095 304.139)" fill="#fff"/>
            <path id="Path_7363" data-name="Path 7363" d="M79.99,214.936l-37.526-.015a.547.547,0,1,1,0-1.094l37.526.015a.547.547,0,0,1,0,1.094" transform="translate(18.917 96.497)" fill="#292526"/>
            <path id="Path_7364" data-name="Path 7364" d="M79.99,219.819,42.464,219.8a.547.547,0,0,1,0-1.094l37.526.014a.547.547,0,0,1,0,1.094" transform="translate(18.917 98.701)" fill="#292526"/>
            <path id="Path_7365" data-name="Path 7365" d="M79.99,224.7l-37.526-.015a.547.547,0,0,1,0-1.094l37.526.016a.546.546,0,0,1,0,1.093" transform="translate(18.917 100.904)" fill="#292526"/>
            <rect id="Rectangle_4249" data-name="Rectangle 4249" width="48.583" height="26.647" transform="translate(33.751 419.557)" fill="#fff"/>
            <path id="Path_7366" data-name="Path 7366" d="M64.594,294.462l-37.526-.013a.546.546,0,0,1,0-1.093l37.526.013a.546.546,0,1,1,0,1.093" transform="translate(11.969 132.387)" fill="#292526"/>
            <path id="Path_7367" data-name="Path 7367" d="M64.594,299.345l-37.526-.014a.546.546,0,0,1,0-1.093l37.526.014a.546.546,0,1,1,0,1.093" transform="translate(11.969 134.591)" fill="#292526"/>
            <path id="Path_7368" data-name="Path 7368" d="M64.594,304.23l-37.526-.016a.546.546,0,0,1,0-1.093l37.526.015a.547.547,0,1,1,0,1.094" transform="translate(11.969 136.794)" fill="#292526"/>
            <path id="Path_7369" data-name="Path 7369" d="M2.438,292.328s38.687-9.409,42.131,6.715C48,315.1,12.824,313.95,5.795,311.9s-7.034-19.4-3.357-19.573" transform="translate(0 130.692)" fill="#e58d76" fill-rule="evenodd"/>
            <path id="Path_7370" data-name="Path 7370" d="M3.188,306.051s47.98-10.371,51.423,5.751c3.426,16.056-41.038,15.871-48.067,13.822s-7.034-19.4-3.357-19.573" transform="translate(0.339 136.635)" fill="#e58d76" fill-rule="evenodd"/>
            <path id="Path_7371" data-name="Path 7371" d="M4.4,320.293s41.357-10.166,44.8,5.956c3.426,16.057-34.416,15.667-41.444,13.617S.727,320.469,4.4,320.293" transform="translate(0.887 143.117)" fill="#e58d76" fill-rule="evenodd"/>
            <path id="Path_7372" data-name="Path 7372" d="M4.907,334.134s35.4-10.844,38.193,5.393c2.036,11.877-28.367,15.124-35.4,13.079s-6.471-18.3-2.794-18.472" transform="translate(1.012 149.189)" fill="#e58d76" fill-rule="evenodd"/>
            <path id="Path_7373" data-name="Path 7373" d="M272.823,142.7c33.742-5.872,65.457,20.5,64.632,53.734l-7.22,229.562c-.641,17.533-14.931,33.925-32.578,37.706-25.061,5.367-62.359-30.235-63.977-55.2l-2.824-216.465c-.319-24.414,17.221-45.036,41.968-49.341" transform="translate(104.179 64.026)" fill="#e58d76"/>
          </g>
        </g>
        <g id="Group_2776" data-name="Group 2776" transform="translate(335.029 205.901)">
          <g id="Group_2775" data-name="Group 2775" clip-path="url(#clip-path-17)">
            <path id="Path_7374" data-name="Path 7374" d="M231.781,247.384,333.9,275.358l.5-20.241Z" transform="translate(-230.43 -94.26)" fill="#292526"/>
          </g>
        </g>
        <g id="Group_2778" data-name="Group 2778">
          <g id="Group_2777" data-name="Group 2777" clip-path="url(#clip-path-2)">
            <path id="Path_7376" data-name="Path 7376" d="M223.688,299.274l117.907,7.509,4.782-108.462c1.515-34.356-22.537-63.655-58.249-66.392s-58.143,24.527-59.658,58.884Z" transform="translate(100.947 59.452)" fill="#ffbd6e"/>
            <path id="Path_7377" data-name="Path 7377" d="M223.831,278.413a.823.823,0,0,1-.473-.251.756.756,0,0,1-.21-.552l4.291-97.307a.736.736,0,0,1,.813-.691.79.79,0,0,1,.746.808l-4.257,96.548,117.116,7.461a.8.8,0,0,1,.758.8.737.737,0,0,1-.8.7L223.9,278.421c-.026,0-.049,0-.074-.007" transform="translate(100.703 81.056)" fill="#292526"/>
            <path id="Path_7378" data-name="Path 7378" d="M151.474,330.208a.546.546,0,0,1-.541-.47c-.041-.3.091-.723.39-.765l140.463-19.559a.54.54,0,0,1,.615.464c.043.3.067,1.189-.232,1.231L151.55,330.2a.67.67,0,0,1-.077,0" transform="translate(68.11 139.631)" fill="#292526"/>
            <path id="Path_7379" data-name="Path 7379" d="M87.944,369.436a49.089,49.089,0,0,1-13.921-.71c3.193-4.107,10.843-1.162,20.639-2.772,2.353-.393,18.621-4.384,21.682-4.238.55.028-21.945,7.11-28.4,7.719" transform="translate(33.406 163.236)" fill="#ea9c7d"/>
            <path id="Path_7380" data-name="Path 7380" d="M130.562,371.254c-13.887,6.719-22.321,7.518-36.674,9.708-1.742.261-3.583.551-5.513.887,5.007-8,32.422-5.894,42.187-10.594" transform="translate(39.882 167.542)" fill="#ea9c7d"/>
            <path id="Path_7381" data-name="Path 7381" d="M143.539,374.924v.029c-.116,0-.1-.015,0-.029" transform="translate(64.74 169.198)" fill="#ea9c7d"/>
            <path id="Path_7382" data-name="Path 7382" d="M388.877,319.212c-8.866-13.976-52.595-5.4-62.754-5.326L192.083,331.054a182.284,182.284,0,0,0-22.756-6.544c-9.085-2.686-23.279-7-25.5-7.969-8.214-3.614-19.273-8.446-24.672-10.8a4.7,4.7,0,0,0-5.762,1.509c-2.22,3.135-4.527,8.359-.508,13.4,4.08,5.123,17.067,13.4,25.746,18.605-1.393.668-2.786,1.437-4.209,2.279-11.523,6.879-27.589,11.32-40.926,13.5-9.012,1.451-29.795-4.775-31.275,4.891-1.713,11.189,15.151,13.192,28.258,14.063,11.391.74,26.833-4.426,30.809-4.8,8.534-.813-11.333,6.589-14.15,7.532-11.146,3.7-10,2.106-24.541.929-4.76-.377-19.025-6.473-18.591,2.757.377,8.171,7.5,12.162,15.4,13.774,3.193-4.107,10.841-1.162,20.637-2.773,2.353-.392,18.621-4.383,21.682-4.236.551.028-21.943,7.11-28.4,7.719a49.079,49.079,0,0,1-13.919-.71,8.117,8.117,0,0,0-1.466,3.975c-1.451,10.493,17.083,14.324,21.132,13.642.39-.073.784-.131,1.16-.189,5.008-8,32.422-5.892,42.189-10.593-13.889,6.718-22.321,7.516-36.674,9.708-1.742.261-3.585.552-5.515.885a5.4,5.4,0,0,0-.681,4.078c1.668,8.664,16.995,8.475,21.637,8.316,8.287-.276,22.19-2.177,32.1-8.345,2.135-1.321,8.78-3.8,11.147-4.6,8.561-2.9,16.717-3.8,24.569-4.412,28.547,1.292,119.484,5.733,169.771-1.771,35.644-5.31,42.813-27.778,46.47-43.769,6.763-29.477-9.272-30.682-16.37-41.885m-208.622,87.15c-.116,0-.1-.015,0-.029Z" transform="translate(28.025 137.789)" fill="#e58d76" fill-rule="evenodd"/>
            <path id="Path_7383" data-name="Path 7383" d="M178.151,655.3a.547.547,0,0,1-.543-.489l-23.49-219.265a.547.547,0,1,1,1.087-.116L178.7,654.695a.545.545,0,0,1-.486.6.4.4,0,0,1-.058,0" transform="translate(69.55 196.283)" fill="#2d292a"/>
            <path id="Path_7384" data-name="Path 7384" d="M342.876,237.439h-.019L224.47,233.5a.548.548,0,0,1-.528-.566.559.559,0,0,1,.565-.527l118.387,3.934a.547.547,0,0,1-.017,1.093" transform="translate(101.062 104.884)" fill="#2d292a"/>
          </g>
        </g>
      </g>
    </g>
  </g>
</svg>
