<?xml version="1.0" encoding="utf-8"?>
<!-- Generator: Adobe Illustrator 25.0.0, SVG Export Plug-In . SVG Version: 6.00 Build 0)  -->
<svg version="1.1" id="Layer_1" xmlns="http://www.w3.org/2000/svg" xmlns:xlink="http://www.w3.org/1999/xlink" x="0px" y="0px"
	 viewBox="0 0 150 150" style="enable-background:new 0 0 150 150;" xml:space="preserve">
<style type="text/css">
	.st0{fill:#5BDB98;}
</style>
<g>
	<path class="st0" d="M75,150c-4.41-0.03-8.6-1.91-11.54-5.19c-18.17-20.13-48.63-57.69-48.63-82.85C14.38,28.25,41.29,0.54,75,0
		c33.71,0.54,60.62,28.25,60.17,61.96c0,25.1-30.46,62.71-48.63,82.85C83.6,148.09,79.41,149.97,75,150z M75,11.54
		c-27.34,0.54-49.08,23.09-48.63,50.42c0,15.29,17.31,43.38,45.69,75c1.52,1.59,4.03,1.66,5.63,0.14c0.05-0.05,0.1-0.09,0.14-0.14
		c28.85-31.79,45.69-59.88,45.69-75C123.97,34.67,102.29,12.14,75,11.54z"/>
	<path class="st0" d="M75,90.63c-16.86,0-30.52-13.66-30.52-30.52C44.48,43.26,58.14,29.6,75,29.6c16.86,0,30.52,13.66,30.52,30.52
		c0,0.02,0,0.04,0,0.06C105.46,76.99,91.82,90.6,75,90.63z M75,41.19c-10.48,0-18.98,8.5-18.98,18.98c0,10.48,8.5,18.98,18.98,18.98
		c10.48,0,18.98-8.5,18.98-18.98C93.95,49.7,85.47,41.22,75,41.19z"/>
</g>
</svg>
