<?xml version="1.0" encoding="utf-8"?>
<!-- Generator: Adobe Illustrator 24.0.1, SVG Export Plug-In . SVG Version: 6.00 Build 0)  -->
<svg version="1.1" id="Layer_1" xmlns="http://www.w3.org/2000/svg" xmlns:xlink="http://www.w3.org/1999/xlink" x="0px" y="0px"
	 viewBox="0 0 200 200" style="enable-background:new 0 0 200 200;" xml:space="preserve">
<style type="text/css">
	.st0{fill:#5BDB98;}
</style>
<g id="logout" transform="translate(0 -0.008)">
	<path id="Path_461" class="st0" d="M12.25,89.22c-0.12-3.04,2.25-5.59,5.29-5.71h69.63c2.87,0.11,5.18,2.41,5.29,5.29
		c0.12,3.04-2.25,5.59-5.29,5.71H17.54C14.66,94.4,12.36,92.09,12.25,89.22z"/>
	<path id="Path_462" class="st0" d="M41.14,120.38L13.65,92.89c0,0,0,0,0,0c-2.15-2.15-2.15-5.63,0-7.78l27.48-27.48
		c2.12-1.99,5.41-1.99,7.53,0c2.22,2.08,2.33,5.56,0.25,7.78L25.31,89l23.61,23.61c1.03,1.03,1.61,2.42,1.61,3.88
		c0,3.04-2.46,5.51-5.49,5.51C43.57,122,42.16,121.42,41.14,120.38z"/>
	<path id="Path_463" class="st0" d="M114.66,173.31V41.37c0.02-6.3,4.02-11.9,9.98-13.95l44.13-14.7c1.47-0.46,3-0.68,4.53-0.68
		c8.09,0.01,14.65,6.57,14.66,14.66v131.94c-0.02,6.3-4.02,11.9-9.98,13.95l-44.12,14.7c-1.47,0.46-3,0.69-4.54,0.68
		C121.23,187.96,114.67,181.4,114.66,173.31z M173.3,23.02c-0.4-0.01-0.8,0.05-1.19,0.16l-43.92,14.66
		c-1.5,0.53-2.52,1.94-2.54,3.53v131.94c0.01,2.02,1.64,3.65,3.66,3.66c0.41,0.01,0.81-0.05,1.2-0.16l43.91-14.63
		c1.5-0.53,2.52-1.94,2.54-3.53V26.7c-0.01-2.02-1.64-3.65-3.66-3.66V23.02z"/>
	<path id="Path_464" class="st0" d="M76.18,70.68c-3.04,0-5.51-2.46-5.51-5.49V32.21c0.01-11.13,9.03-20.15,20.16-20.16h82.47
		c3.04,0,5.5,2.46,5.5,5.5s-2.46,5.5-5.5,5.5H90.84c-5.06,0-9.16,4.1-9.16,9.16v32.99C81.67,68.22,79.22,70.68,76.18,70.68
		L76.18,70.68z"/>
	<path id="Path_465" class="st0" d="M70.67,145.82v-32.99c0-3.04,2.46-5.5,5.5-5.5c3.04,0,5.5,2.46,5.5,5.5v32.99
		c0,5.06,4.1,9.16,9.16,9.16h29.32c3.04,0,5.5,2.46,5.5,5.5c0,3.04-2.46,5.5-5.5,5.5H90.84C79.71,165.98,70.68,156.95,70.67,145.82z
		"/>
</g>
</svg>
