<?xml version="1.0" encoding="utf-8"?>
<!-- Generator: Adobe Illustrator 24.0.1, SVG Export Plug-In . SVG Version: 6.00 Build 0)  -->
<svg version="1.1" id="Layer_1" xmlns="http://www.w3.org/2000/svg" xmlns:xlink="http://www.w3.org/1999/xlink" x="0px" y="0px"
	 viewBox="0 0 200 200" style="enable-background:new 0 0 200 200;" xml:space="preserve">
<style type="text/css">
	.st0{fill:#5BDB98;}
</style>
<g id="Layer_6">
	<g>
		<path class="st0" d="M178.87,167.09H21.13c-9.4,0-17.06-8.37-17.06-18.66V51.57c0-10.28,7.66-18.66,17.06-18.66h157.74
			c9.4,0,17.06,8.37,17.06,18.66v96.86C195.93,158.72,188.28,167.09,178.87,167.09z M21.13,49.47c-1.95,0-3.15,1.36-3.15,2.1v96.86
			c0,0.74,1.2,2.1,3.15,2.1h157.74c1.95,0,3.15-1.36,3.15-2.1V51.57c0-0.74-1.2-2.1-3.15-2.1L21.13,49.47L21.13,49.47z"/>
	</g>
	<polygon class="st0" points="185.44,46.08 99.93,95.96 16.08,46.1 6.72,58.55 99.73,113.85 194.69,58.6 	"/>
</g>
</svg>
