<?xml version="1.0" encoding="utf-8"?>
<!-- Generator: Adobe Illustrator 24.0.1, SVG Export Plug-In . SVG Version: 6.00 Build 0)  -->
<svg version="1.1" id="Layer_1" xmlns="http://www.w3.org/2000/svg" xmlns:xlink="http://www.w3.org/1999/xlink" x="0px" y="0px"
	 viewBox="0 0 200 200" style="enable-background:new 0 0 200 200;" xml:space="preserve">
<path d="M75,33.03H7.81C3.5,33.03,0,29.53,0,25.22v0c0-4.31,3.5-7.81,7.81-7.81H75c4.31,0,7.81,3.5,7.81,7.81v0
	C82.81,29.53,79.31,33.03,75,33.03z M59.38,48.65H7.81C3.5,48.65,0,52.15,0,56.47v0c0,4.31,3.5,7.81,7.81,7.81h51.56
	c4.31,0,7.81-3.5,7.81-7.81v0C67.19,52.15,63.69,48.65,59.38,48.65z M43.75,79.9H7.81C3.5,79.9,0,83.4,0,87.72v0
	c0,4.31,3.5,7.81,7.81,7.81h35.94c4.31,0,7.81-3.5,7.81-7.81v0C51.56,83.4,48.06,79.9,43.75,79.9z M185.82,167.01h-18.41
	c-3.22,9.09-11.91,15.63-22.09,15.63s-18.87-6.53-22.09-15.63H74.83c-3.22,9.09-11.91,15.63-22.09,15.63s-18.87-6.53-22.09-15.63
	h-7.2C10.49,167.01,0,156.52,0,143.57l0-24.61c0-4.31,3.5-7.81,7.81-7.81h0c4.31,0,7.81,3.5,7.81,7.81v24.61
	c0,4.31,3.5,7.81,7.81,7.81h7.2c3.22-9.09,11.91-15.63,22.09-15.63s18.87,6.53,22.09,15.63h47.05V40.8c0-4.31-3.5-7.81-7.81-7.81
	h-7.81c-4.31,0-7.81-3.5-7.81-7.81v0c0-4.31,3.5-7.81,7.81-7.81h7.81c12.94,0,23.44,10.49,23.44,23.44v15.66h15.65
	c7.35,0,14.28,3.45,18.71,9.32l21.83,28.93c4.09,5.42,6.31,12.03,6.31,18.82v39.29C200,160.66,193.65,167.01,185.82,167.01z
	 M137.5,72.09v29.3h41.66L159.39,75.2c-1.47-1.95-3.8-3.11-6.24-3.11H137.5z M60.55,159.2c0-4.31-3.5-7.81-7.81-7.81
	s-7.81,3.5-7.81,7.81c0,4.31,3.5,7.81,7.81,7.81S60.55,163.51,60.55,159.2z M153.13,159.2c0-4.31-3.5-7.81-7.81-7.81
	s-7.81,3.5-7.81,7.81c0,4.31,3.5,7.81,7.81,7.81S153.13,163.51,153.13,159.2z M184.38,147.23v-30.22H137.5v20.09
	c2.45-0.87,5.07-1.34,7.81-1.34c10.19,0,18.87,6.53,22.09,15.63h12.82C182.52,151.39,184.38,149.53,184.38,147.23z"/>
</svg>
