<?xml version="1.0" encoding="utf-8"?>
<!-- Generator: Adobe Illustrator 24.0.1, SVG Export Plug-In . SVG Version: 6.00 Build 0)  -->
<svg version="1.1" id="Layer_1" xmlns="http://www.w3.org/2000/svg" xmlns:xlink="http://www.w3.org/1999/xlink" x="0px" y="0px"
	 viewBox="0 0 150 150" style="enable-background:new 0 0 150 150;" xml:space="preserve">
<style type="text/css">
	.st0{fill:#101820;}
</style>
<g id="Layer_30">
	<path class="st0" d="M136.08,127.78H13.86c-3.07-0.01-5.55-2.5-5.54-5.57c0-0.86,0.21-1.71,0.59-2.48
		c6.85-13.82,10.45-29.02,10.5-44.44V55.56C19.42,24.87,44.29,0,74.97,0s55.56,24.87,55.56,55.56v19.61
		c0.05,15.42,3.65,30.63,10.5,44.44c1.44,2.71,0.42,6.07-2.29,7.51C137.92,127.56,137.01,127.78,136.08,127.78z M22.47,116.67h105
		c-5.3-13.2-8.03-27.28-8.06-41.5V55.56c0-24.55-19.9-44.44-44.44-44.44s-44.44,19.9-44.44,44.44v19.61
		C30.5,89.39,27.77,103.47,22.47,116.67z"/>
	<path class="st0" d="M74.97,150c-15.34,0-27.78-12.44-27.78-27.78c0-3.07,2.49-5.56,5.56-5.56c3.07,0,5.56,2.49,5.56,5.56
		c0,4.42,1.76,8.66,4.89,11.78c6.6,6.26,16.95,6.26,23.56,0c2.18-2.18,5.71-2.18,7.89,0s2.18,5.71,0,7.89
		C89.42,147.1,82.34,150.01,74.97,150z"/>
</g>
</svg>
