<?xml version="1.0" encoding="utf-8"?>
<!-- Generator: Adobe Illustrator 25.0.0, SVG Export Plug-In . SVG Version: 6.00 Build 0)  -->
<svg version="1.1" id="Layer_1" xmlns="http://www.w3.org/2000/svg" xmlns:xlink="http://www.w3.org/1999/xlink" x="0px" y="0px"
	 viewBox="0 0 150 150" style="enable-background:new 0 0 150 150;" xml:space="preserve">
<style type="text/css">
	.st0{fill:#5BDB98;}
</style>
<g id="Layer_30">
	<path class="st0" d="M122.14,134.59H-6.6c-3.23-0.01-5.84-2.64-5.83-5.87c0-0.91,0.22-1.8,0.63-2.62
		c7.22-14.55,11-30.57,11.06-46.81V58.52C-0.75,26.2,25.45,0,57.77,0s58.52,26.2,58.52,58.52v20.66
		c0.06,16.24,3.84,32.26,11.06,46.81c1.52,2.85,0.44,6.4-2.41,7.92C124.07,134.36,123.11,134.59,122.14,134.59z M2.47,122.88h110.6
		c-5.58-13.9-8.46-28.73-8.48-43.71V58.52c0-25.85-20.96-46.81-46.81-46.81S10.96,32.66,10.96,58.52v20.66
		C10.93,94.15,8.05,108.98,2.47,122.88z"/>
	<path class="st0" d="M57.77,157.99c-16.16,0-29.26-13.1-29.26-29.26c0-3.23,2.62-5.85,5.85-5.85s5.85,2.62,5.85,5.85
		c0,4.65,1.86,9.12,5.15,12.41c6.95,6.6,17.86,6.6,24.81,0c2.29-2.29,6.01-2.29,8.31,0c2.29,2.29,2.29,6.01,0,8.31
		C72.98,154.93,65.53,158.01,57.77,157.99z"/>
</g>
</svg>
