<?xml version="1.0" encoding="utf-8"?>
<!-- Generator: Adobe Illustrator 24.0.1, SVG Export Plug-In . SVG Version: 6.00 Build 0)  -->
<svg version="1.1" id="Layer_1" xmlns="http://www.w3.org/2000/svg" xmlns:xlink="http://www.w3.org/1999/xlink" x="0px" y="0px"
	 viewBox="0 0 200 200" style="enable-background:new 0 0 200 200;" xml:space="preserve">
<style type="text/css">
	.st0{fill:#5BDB98;}
</style>
<g id="Layer_2_5_">
	<g>
		<path class="st0" d="M245.9,50.55c-1.4-2-3.7-3.2-6.1-3.2h-46.5v-19.8c0-4.1-3.4-7.5-7.5-7.5H17.3c-4.1,0-7.5,3.4-7.5,7.5v121.2
			c0,4.1,3.4,7.5,7.5,7.5h21.2c3.9,13.6,16.5,23.7,31.3,23.7s27.4-10,31.3-23.7h83.1c3.9,13.6,16.5,23.7,31.3,23.7
			s27.4-10,31.3-23.7h15.5c4.1,0,7.5-3.4,7.5-7.5v-61.7c0-1.6-0.5-3.1-1.4-4.3L245.9,50.55z M254.9,89.25h-33.6v-26.8H236
			L254.9,89.25z M24.8,35.15h153.5v106.2h-76.5c-2.9-15.1-16.1-26.5-32-26.5s-29.2,11.4-32,26.5h-13L24.8,35.15L24.8,35.15z
			 M69.8,164.95c-9.7,0-17.6-7.9-17.6-17.6s7.9-17.6,17.6-17.6s17.6,7.9,17.6,17.6S79.5,164.95,69.8,164.95z M215.6,164.95
			c-9.7,0-17.6-7.9-17.6-17.6s7.9-17.6,17.6-17.6s17.6,7.9,17.6,17.6S225.3,164.95,215.6,164.95z M247.6,141.35
			c-2.9-15.1-16.1-26.5-32-26.5c-8.6,0-16.5,3.4-22.3,8.9v-61.3h12.9v34.3c0,4.1,3.4,7.5,7.5,7.5H255v37.1H247.6z"/>
		<path class="st0" d="M-62.3,35.15h53.5c4.1,0,7.5-3.4,7.5-7.5s-3.4-7.5-7.5-7.5h-53.5c-4.1,0-7.5,3.4-7.5,7.5
			S-66.4,35.15-62.3,35.15z"/>
		<path class="st0" d="M-8.8,47.45H-50c-4.1,0-7.5,3.4-7.5,7.5s3.4,7.5,7.5,7.5h41.2c4.1,0,7.5-3.4,7.5-7.5S-4.6,47.45-8.8,47.45z"
			/>
		<path class="st0" d="M-8.8,74.75h-26c-4.1,0-7.5,3.4-7.5,7.5s3.4,7.5,7.5,7.5h26c4.1,0,7.5-3.4,7.5-7.5S-4.6,74.75-8.8,74.75z"/>
		<path class="st0" d="M-8.8,102.05h-9c-4.1,0-7.5,3.4-7.5,7.5s3.4,7.5,7.5,7.5h9c4.1,0,7.5-3.4,7.5-7.5S-4.6,102.05-8.8,102.05z"/>
	</g>
</g>
</svg>
