<?xml version="1.0" encoding="utf-8"?>
<!-- Generator: Adobe Illustrator 25.0.0, SVG Export Plug-In . SVG Version: 6.00 Build 0)  -->
<svg version="1.1" id="Layer_1" xmlns="http://www.w3.org/2000/svg" xmlns:xlink="http://www.w3.org/1999/xlink" x="0px" y="0px"
	 viewBox="0 0 150 150" style="enable-background:new 0 0 150 150;" xml:space="preserve">
<style type="text/css">
	.st0{fill:#60E99C;}
</style>
<g id="iconfinder_Cart_2742767" transform="translate(-6.5 -6.6)">
	<path id="Path_2424" class="st0" d="M120.18,118.06c-9.67,0-17.52,7.84-17.52,17.52c0,9.67,7.84,17.52,17.52,17.52
		c9.67,0,17.52-7.84,17.52-17.52l0,0C137.59,125.95,129.81,118.17,120.18,118.06z"/>
	<path id="Path_2425" class="st0" d="M151,34.53c-0.34,0-0.84-0.17-1.35-0.17H43.55l-1.68-11.28c-1.05-7.46-7.45-13-14.99-12.97
		H13.24c-3.72,0-6.74,3.02-6.74,6.74c0,3.72,3.02,6.74,6.74,6.74l0,0h13.64c0.85,0.05,1.55,0.68,1.68,1.52l10.42,71.07
		c1.39,8.98,9.1,15.61,18.19,15.64h70.09c8.78-0.05,16.35-6.21,18.19-14.8l10.95-54.74c0.66-3.62-1.74-7.08-5.36-7.74
		C151.02,34.53,151.01,34.53,151,34.53z"/>
	<path id="Path_2426" class="st0" d="M59.92,118.06c-9.65,0.42-17.16,8.53-16.84,18.19c0.3,9.27,7.88,16.64,17.15,16.7h0.34
		c9.63-0.18,17.3-8.13,17.12-17.77C77.51,125.55,69.55,117.88,59.92,118.06z"/>
</g>
</svg>
