<?xml version="1.0" encoding="utf-8"?>
<!-- Generator: Adobe Illustrator 25.0.0, SVG Export Plug-In . SVG Version: 6.00 Build 0)  -->
<svg version="1.1" id="Layer_1" xmlns="http://www.w3.org/2000/svg" xmlns:xlink="http://www.w3.org/1999/xlink" x="0px" y="0px"
	 viewBox="0 0 150 150" style="enable-background:new 0 0 150 150;" xml:space="preserve">
<style type="text/css">
	.st0{fill:#5BDB98;}
</style>
<g id="Layer_x0020_1_1_">
	<path class="st0" d="M96.03,64.65H-32.64c-3.38,0-6.12,2.74-6.12,6.12s2.74,6.12,6.12,6.12H96.03c8.58,0,15.57,6.98,15.57,15.58
		v0.58H-32.64c-3.38,0-6.12,2.74-6.12,6.12c0,3.4,2.74,6.13,6.12,6.13H111.6v66.26c0,8.58-6.99,15.56-15.57,15.56H-32.03
		c-8.58,0-15.57-6.98-15.57-15.56V91.87c0-3.39-2.75-6.13-6.13-6.13c-3.37,0-6.11,2.75-6.11,6.13v79.68
		c0,15.33,12.48,27.8,27.82,27.8H96.03c15.34,0,27.82-12.47,27.82-27.8V92.47C123.85,77.12,111.37,64.65,96.03,64.65z M15.82,167.16
		c1.19,0,2.38-0.35,3.43-1.05l53.74-36.5c2.8-1.9,3.53-5.72,1.63-8.51c-1.89-2.79-5.7-3.53-8.5-1.61l-49.3,33.47l-17.8-19.97
		c-2.25-2.53-6.13-2.76-8.64-0.49c-2.52,2.25-2.75,6.12-0.49,8.64l21.36,23.97C12.44,166.46,14.12,167.16,15.82,167.16z"/>
</g>
</svg>
