<?xml version="1.0" ?><svg enable-background="new 0 0 32 32" version="1.1" viewBox="0 0 32 32" xml:space="preserve" xmlns="http://www.w3.org/2000/svg" xmlns:xlink="http://www.w3.org/1999/xlink"><g id="OUTLINE_copy_2"><g><path d="M16,0C7.163,0,0,7.164,0,16s7.164,16,16,16c8.837,0,16-7.164,16-16S24.837,0,16,0z M17.404,20.053    c-1.129,0-2.19-0.61-2.554-1.303c0,0-0.607,2.409-0.735,2.874c-0.453,1.643-1.784,3.286-1.887,3.421    c-0.073,0.094-0.231,0.064-0.248-0.06c-0.029-0.209-0.368-2.282,0.031-3.973c0.2-0.849,1.344-5.696,1.344-5.696    s-0.333-0.667-0.333-1.654c0-1.55,0.898-2.706,2.016-2.706c0.951,0,1.41,0.713,1.41,1.569c0,0.956-0.608,2.385-0.923,3.709    c-0.262,1.109,0.556,2.014,1.65,2.014c1.98,0,3.314-2.544,3.314-5.559c0-2.291-1.543-4.006-4.35-4.006    c-3.17,0-5.147,2.365-5.147,5.007c0,0.911,0.269,1.554,0.69,2.05c0.193,0.229,0.22,0.32,0.15,0.583    c-0.051,0.193-0.165,0.655-0.214,0.839c-0.069,0.265-0.284,0.359-0.523,0.262c-1.46-0.596-2.141-2.196-2.141-3.994    c0-2.969,2.505-6.53,7.471-6.53c3.992,0,6.618,2.887,6.618,5.989C23.045,16.989,20.765,20.053,17.404,20.053z"/></g></g></svg>