<?xml version="1.0" encoding="utf-8"?>
<!-- Generator: Adobe Illustrator 24.0.1, SVG Export Plug-In . SVG Version: 6.00 Build 0)  -->
<svg version="1.1" id="Layer_1" xmlns="http://www.w3.org/2000/svg" xmlns:xlink="http://www.w3.org/1999/xlink" x="0px" y="0px"
	 viewBox="0 0 200 200" style="enable-background:new 0 0 200 200;" xml:space="preserve">
<style type="text/css">
	.st0{fill:#5BDB98;}
</style>
<g>
	<path class="st0" d="M100,86.58c-24.7,0-44.72-20.02-44.72-44.72S75.3-2.85,100-2.85s44.72,20.02,44.72,44.72
		S124.7,86.58,100,86.58z M100,15.04c-14.82,0-26.83,12.01-26.83,26.83S85.18,68.7,100,68.7s26.83-12.01,26.83-26.83
		S114.82,15.04,100,15.04z"/>
	<path class="st0" d="M180.49,202.85H19.51c-4.94,0-8.94-4-8.94-8.94v-26.83c0-39.52,32.03-71.55,71.55-71.55h35.77
		c39.52,0,71.55,32.03,71.55,71.55v26.83C189.44,198.85,185.43,202.85,180.49,202.85z M28.45,184.96h143.1v-17.89
		c0-29.64-24.02-53.66-53.66-53.66H82.11c-29.64,0-53.66,24.02-53.66,53.66V184.96z"/>
</g>
</svg>
