<?xml version="1.0" encoding="utf-8"?>
<!-- Generator: Adobe Illustrator 25.0.0, SVG Export Plug-In . SVG Version: 6.00 Build 0)  -->
<svg version="1.1" id="Layer_1" xmlns="http://www.w3.org/2000/svg" xmlns:xlink="http://www.w3.org/1999/xlink" x="0px" y="0px"
	 viewBox="0 0 150 150" style="enable-background:new 0 0 150 150;" xml:space="preserve">
<style type="text/css">
	.st0{fill:#5BDB98;}
</style>
<g>
	<path class="st0" d="M75,65.31c-17.85,0-32.31-14.47-32.31-32.31S57.15,0.68,75,0.68s32.31,14.47,32.31,32.31S92.85,65.31,75,65.31
		z M75,13.6c-10.71,0-19.39,8.68-19.39,19.39S64.29,52.38,75,52.38s19.39-8.68,19.39-19.39S85.71,13.6,75,13.6z"/>
	<path class="st0" d="M133.16,149.32H16.84c-3.57,0-6.46-2.89-6.46-6.46v-19.39c0-28.55,23.15-51.7,51.7-51.7h25.85
		c28.55,0,51.7,23.15,51.7,51.7v19.39C139.63,146.43,136.73,149.32,133.16,149.32z M23.3,136.4h103.4v-12.93
		c0-21.42-17.36-38.78-38.78-38.78H62.07c-21.42,0-38.78,17.36-38.78,38.78V136.4z"/>
</g>
</svg>
