<?xml version="1.0" encoding="utf-8"?>
<!-- Generator: Adobe Illustrator 25.0.0, SVG Export Plug-In . SVG Version: 6.00 Build 0)  -->
<svg version="1.1" id="Layer_1" xmlns="http://www.w3.org/2000/svg" xmlns:xlink="http://www.w3.org/1999/xlink" x="0px" y="0px"
	 viewBox="0 0 150 150" style="enable-background:new 0 0 150 150;" xml:space="preserve">
<style type="text/css">
	.st0{fill:#5BDB98;}
</style>
<g>
	<path class="st0" d="M-181,97.23c-30.87,0-55.9-25.03-55.9-55.9s25.03-55.9,55.9-55.9s55.9,25.03,55.9,55.9
		S-150.13,97.23-181,97.23z M-181,7.8c-18.52,0-33.54,15.02-33.54,33.54s15.02,33.54,33.54,33.54s33.54-15.02,33.54-33.54
		S-162.48,7.8-181,7.8z"/>
	<path class="st0" d="M-80.39,242.56h-201.23c-6.17,0-11.18-5.01-11.18-11.18v-33.54c0-49.39,40.04-89.44,89.44-89.44h44.72
		c49.39,0,89.44,40.04,89.44,89.44v33.54C-69.21,237.56-74.21,242.56-80.39,242.56z M-270.44,220.2h178.87v-22.36
		c0-37.05-30.03-67.08-67.08-67.08h-44.72c-37.05,0-67.08,30.03-67.08,67.08V220.2z"/>
</g>
</svg>
