<?xml version="1.0" encoding="utf-8"?>
<!-- Generator: Adobe Illustrator 25.0.0, SVG Export Plug-In . SVG Version: 6.00 Build 0)  -->
<svg version="1.1" id="Layer_1" xmlns="http://www.w3.org/2000/svg" xmlns:xlink="http://www.w3.org/1999/xlink" x="0px" y="0px"
	 viewBox="0 0 150 150" style="enable-background:new 0 0 150 150;" xml:space="preserve">
<style type="text/css">
	.st0{fill:#56CD93;}
</style>
<g id="Layer_2_13_">
	<g>
		<g>
			<path class="st0" d="M134.98,151.63H15.02c-3.67,0-6.65-2.98-6.65-6.65V65c0-3.67,2.98-6.65,6.65-6.65h119.97
				c3.67,0,6.65,2.98,6.65,6.65v79.98C141.64,148.66,138.66,151.63,134.98,151.63z M21.67,138.33h106.66V71.66H21.67V138.33z"/>
		</g>
		<g>
			<path class="st0" d="M144.98,71.66H5.02c-3.67,0-6.65-2.98-6.65-6.65V35.01c0-3.67,2.98-6.65,6.65-6.65h139.96
				c3.67,0,6.65,2.98,6.65,6.65V65C151.63,68.68,148.66,71.66,144.98,71.66z M11.67,58.35h126.66V41.66H11.67V58.35z"/>
		</g>
		<g>
			<path class="st0" d="M90,151.63H60c-3.67,0-6.65-2.98-6.65-6.65V65c0-3.67,2.98-6.65,6.65-6.65H90c3.67,0,6.65,2.98,6.65,6.65
				v79.98C96.65,148.66,93.67,151.63,90,151.63z M66.66,138.33h16.69V71.66H66.66V138.33z"/>
		</g>
		<g>
			<path class="st0" d="M90,71.66H60c-3.67,0-6.65-2.98-6.65-6.65V35.01c0-3.67,2.98-6.65,6.65-6.65H90c3.67,0,6.65,2.98,6.65,6.65
				V65C96.65,68.68,93.67,71.66,90,71.66z M66.66,58.35h16.69V41.66H66.66V58.35z"/>
		</g>
		<g>
			<path class="st0" d="M75,36.66c-1.7,0-3.41-0.65-4.7-1.95l-15-15c-2.03-2.02-2.53-5.12-1.25-7.68l5-10
				c1.13-2.25,3.43-3.68,5.95-3.68H85c2.52,0,4.82,1.42,5.95,3.68l5,10c1.28,2.56,0.78,5.65-1.25,7.68l-15,15
				C78.41,36.02,76.7,36.66,75,36.66z M68.1,13.7l6.9,6.9l6.9-6.9l-1.02-2.03H69.11L68.1,13.7z"/>
		</g>
		<g>
			<path class="st0" d="M119.99,41.66c-3.67,0-6.65-2.98-6.65-6.65V22.77l-5.39-5.38l-16.34,4.08c-3.56,0.89-7.18-1.28-8.07-4.84
				c-0.89-3.56,1.28-7.18,4.84-8.07l19.99-5c2.27-0.57,4.67,0.1,6.32,1.75l10,10c1.25,1.25,1.95,2.94,1.95,4.7v15
				C126.64,38.68,123.66,41.66,119.99,41.66z"/>
		</g>
		<g>
			<path class="st0" d="M30.01,41.66c-3.67,0-6.65-2.98-6.65-6.65v-15c0-1.76,0.7-3.46,1.95-4.7l10-10
				c1.65-1.65,4.05-2.32,6.32-1.75l20,5c3.56,0.89,5.73,4.5,4.84,8.07c-0.89,3.56-4.5,5.73-8.07,4.84l-16.34-4.08l-5.39,5.38v12.24
				C36.66,38.68,33.69,41.66,30.01,41.66z"/>
		</g>
	</g>
</g>
</svg>
