<?xml version="1.0" encoding="utf-8"?>
<!-- Generator: Adobe Illustrator 25.0.0, SVG Export Plug-In . SVG Version: 6.00 Build 0)  -->
<svg version="1.1" id="Layer_1" xmlns="http://www.w3.org/2000/svg" xmlns:xlink="http://www.w3.org/1999/xlink" x="0px" y="0px"
	 viewBox="0 0 150 150" style="enable-background:new 0 0 150 150;" xml:space="preserve">
<style type="text/css">
	.st0{fill:#5BDB98;}
	.st1{fill:#B3B3B3;}
</style>
<g>
	<g>
		<path class="st0" d="M58.24,61.43c-16.18,0-29.3-13.12-29.3-29.3s13.12-29.3,29.3-29.3s29.3,13.12,29.3,29.3
			S74.42,61.43,58.24,61.43L58.24,61.43z M58.24,12.45c-10.87,0-19.68,8.81-19.68,19.68s8.81,19.68,19.68,19.68
			S77.92,43,77.92,32.13l0,0C77.92,21.26,69.11,12.45,58.24,12.45z"/>
		<path class="st0" d="M91.92,147.17H24.56c-14.47-0.03-26.2-11.75-26.22-26.22c0.03-28.01,22.71-50.71,50.71-50.76h18.38
			c28.01,0.05,50.69,22.76,50.71,50.76C118.12,135.42,106.39,147.15,91.92,147.17z M49.05,79.81c-22.7,0.03-41.09,18.44-41.09,41.14
			c0.03,9.16,7.44,16.57,16.6,16.6h67.36c9.16-0.03,16.57-7.44,16.6-16.6c0-22.7-18.39-41.11-41.09-41.14H49.05z"/>
	</g>
	<g>
		<path class="st1" d="M128.94,25.06v23.63h22.72v6.03h-22.72v23.83h-6.43V54.72H99.78v-6.03h22.72V25.06H128.94z"/>
	</g>
</g>
</svg>
