<?xml version="1.0" encoding="utf-8"?>
<!-- Generator: Adobe Illustrator 25.0.0, SVG Export Plug-In . SVG Version: 6.00 Build 0)  -->
<svg version="1.1" id="Layer_1" xmlns="http://www.w3.org/2000/svg" xmlns:xlink="http://www.w3.org/1999/xlink" x="0px" y="0px"
	 viewBox="0 0 150 150" style="enable-background:new 0 0 150 150;" xml:space="preserve">
<style type="text/css">
	.st0{fill:#FFFFFF;}
</style>
<g id="Layer_2_8_">
	<path class="st0" d="M121.36,150.4H29.7c-15.82,0-28.64-12.82-28.64-28.64v-80.2c0-3.16,2.56-5.73,5.73-5.73h114.57
		c15.82,0,28.64,12.82,28.64,28.64v57.29C150,137.57,137.18,150.4,121.36,150.4z M12.51,47.28v74.47c0,9.49,7.69,17.19,17.19,17.19
		h91.66c9.49,0,17.19-7.69,17.19-17.19V64.47c0-9.49-7.69-17.19-17.19-17.19H12.51z"/>
	<path class="st0" d="M132.81,47.28c-3.16,0-5.73-2.56-5.73-5.73V25.8c0.22-4.07-1.42-8.01-4.47-10.71
		c-2.74-2.05-6.27-2.73-9.57-1.83L16.98,35.08c-2.66,0.6-4.54,3-4.47,5.73c0,3.16-2.56,5.73-5.73,5.73s-5.73-2.56-5.73-5.73
		c-0.07-8.07,5.48-15.1,13.35-16.9l96.13-21.83c6.7-1.69,13.81-0.19,19.25,4.07c5.75,4.88,8.98,12.11,8.76,19.65v15.75
		C138.54,44.72,135.98,47.28,132.81,47.28z"/>
	<path class="st0" d="M144.27,116.03h-40.1c-12.66,0-22.91-10.26-22.91-22.91S91.52,70.2,104.17,70.2h40.1
		c3.16,0,5.73,2.56,5.73,5.73v34.37C150,113.46,147.44,116.03,144.27,116.03z M104.17,81.65c-6.33,0-11.46,5.13-11.46,11.46
		c0,6.33,5.13,11.46,11.46,11.46h34.37V81.65H104.17z"/>
</g>
</svg>
