<?xml version="1.0" encoding="utf-8"?>
<!-- Generator: Adobe Illustrator 24.0.1, SVG Export Plug-In . SVG Version: 6.00 Build 0)  -->
<svg version="1.1" id="Layer_1" xmlns="http://www.w3.org/2000/svg" xmlns:xlink="http://www.w3.org/1999/xlink" x="0px" y="0px"
	 viewBox="0 0 200 200" style="enable-background:new 0 0 200 200;" xml:space="preserve">
<style type="text/css">
	.st0{fill:#56CD93;}
</style>
<g>
	<g>
		<g>
			<path class="st0" d="M193.76,121.1c-3.44,0-6.24,2.8-6.24,6.24v43.68H12.79V96.14h68.64c3.44,0,6.24-2.8,6.24-6.24
				c0-3.44-2.8-6.24-6.24-6.24H12.79V58.69h68.64c3.44,0,6.24-2.8,6.24-6.24s-2.8-6.24-6.24-6.24H12.79
				c-6.89,0-12.48,5.59-12.48,12.48v112.32c0,6.89,5.59,12.48,12.48,12.48h174.73c6.89,0,12.48-5.59,12.48-12.48v-43.68
				C200,123.89,197.2,121.1,193.76,121.1z"/>
		</g>
	</g>
	<g>
		<g>
			<path class="st0" d="M56.47,121.1H31.51c-3.44,0-6.24,2.8-6.24,6.24c0,3.44,2.8,6.24,6.24,6.24h24.96c3.44,0,6.24-2.8,6.24-6.24
				C62.71,123.89,59.92,121.1,56.47,121.1z"/>
		</g>
	</g>
	<g>
		<g>
			<path class="st0" d="M196.22,27.99L152.54,9.27c-1.59-0.66-3.34-0.66-4.93,0l-43.68,18.72c-2.28,0.99-3.77,3.24-3.77,5.74v24.96
				c0,34.33,12.69,54.4,46.81,74.06c0.96,0.55,2.03,0.82,3.11,0.82s2.15-0.27,3.11-0.82C187.31,113.15,200,93.08,200,58.69V33.73
				C200,31.24,198.51,28.98,196.22,27.99z M187.52,58.69c0,28.82-9.54,44.68-37.44,61.4c-27.91-16.76-37.44-32.62-37.44-61.4V37.85
				l37.44-16.05l37.44,16.05V58.69z"/>
		</g>
	</g>
	<g>
		<g>
			<path class="st0" d="M172.71,47.57c-2.68-2.12-6.6-1.71-8.77,0.97l-19.62,24.54l-7.76-11.61c-1.93-2.87-5.82-3.63-8.65-1.73
				c-2.86,1.91-3.64,5.79-1.73,8.65l12.48,18.72c1.11,1.66,2.93,2.68,4.93,2.78c0.09,0,0.19,0,0.26,0c1.88,0,3.68-0.85,4.88-2.35
				l24.96-31.2C175.83,53.65,175.4,49.73,172.71,47.57z"/>
		</g>
	</g>
</g>
</svg>
