<?xml version="1.0" encoding="utf-8"?>
<!-- Generator: Adobe Illustrator 25.0.0, SVG Export Plug-In . SVG Version: 6.00 Build 0)  -->
<svg version="1.1" id="Layer_1" xmlns="http://www.w3.org/2000/svg" xmlns:xlink="http://www.w3.org/1999/xlink" x="0px" y="0px"
	 viewBox="0 0 150 150" style="enable-background:new 0 0 150 150;" xml:space="preserve">
<style type="text/css">
	.st0{fill:#90A0B2;}
</style>
<g>
	<path class="st0" d="M75,0C33.58,0,0,33.58,0,75s33.58,75,75,75s75-33.58,75-75S116.42,0,75,0z M75,131.25
		c-31.07,0-56.25-25.18-56.25-56.25S43.93,18.75,75,18.75S131.25,43.93,131.25,75S106.07,131.25,75,131.25z"/>
	<path class="st0" d="M90.94,79.23l-15.63-2.38c0,0-2.35-15.83-2.42-15.76l20.27-20.26c-4.56-2.06-9.59-3.24-14.93-3.24
		c-20.01,0-36.24,16.23-36.24,36.25c0,5.33,1.17,10.36,3.24,14.92l-6.16,6.16c2.78,6.12,8.14,13.53,18.25,17.94l6.01-6.01
		c4.55,2.05,9.59,3.24,14.91,3.24c20.02,0,36.25-16.23,36.25-36.25c0-5.33-1.17-10.36-3.24-14.93L90.94,79.23z"/>
</g>
</svg>
