<?xml version="1.0" encoding="utf-8"?>
<!-- Generator: Adobe Illustrator 25.0.0, SVG Export Plug-In . SVG Version: 6.00 Build 0)  -->
<svg version="1.1" id="Layer_1" xmlns="http://www.w3.org/2000/svg" xmlns:xlink="http://www.w3.org/1999/xlink" x="0px" y="0px"
	 viewBox="0 0 150 150" style="enable-background:new 0 0 150 150;" xml:space="preserve">
<style type="text/css">
	.st0{fill:#D0DBE5;}
</style>
<path id="Path_124" class="st0" d="M87.6,99.29v22.73l62.9-47.18L87.6,27.67v22.26c-8.64,0.27-17.18,1.87-25.33,4.77
	c-24.31,9.14-43.79,27.88-53.86,51.82L0.5,123.33l16.41-8.71C38.89,103.88,63.15,98.63,87.6,99.29z M93.04,62.4l6.92,0.84V52.38
	l29.93,22.44L99.97,97.27v-9.51l-5.61-0.53c-0.51-0.05-4.27-0.38-10.28-0.38c-18.86-0.04-37.6,3.05-55.45,9.14
	c13.87-21.97,38.46-34.8,64.4-33.6H93.04z"/>
</svg>
