<?xml version="1.0" encoding="utf-8"?>
<!-- Generator: Adobe Illustrator 24.0.1, SVG Export Plug-In . SVG Version: 6.00 Build 0)  -->
<svg version="1.1" id="Layer_1" xmlns="http://www.w3.org/2000/svg" xmlns:xlink="http://www.w3.org/1999/xlink" x="0px" y="0px"
	 viewBox="0 0 200 200" style="enable-background:new 0 0 200 200;" xml:space="preserve">
<g id="Layer_29">
	<path d="M186.67,200H120c-3.68,0.01-6.68-2.96-6.69-6.64c0-0.21,0.01-0.42,0.03-0.63l13.33-146.67c0.31-3.45,3.21-6.08,6.67-6.07
		h40c3.46-0.01,6.36,2.62,6.67,6.07l13.33,146.67c0.33,3.67-2.37,6.91-6.04,7.24C187.09,199.99,186.88,200,186.67,200z
		 M127.27,186.67h52.13L167.27,53.33H139.4L127.27,186.67z"/>
	<path d="M120,200H13.33c-3.68,0.01-6.68-2.96-6.69-6.64c0-0.21,0.01-0.42,0.03-0.63L20,46.07c0.31-3.45,3.21-6.08,6.67-6.07h106.67
		c3.68-0.01,6.68,2.96,6.69,6.64c0,0.21-0.01,0.42-0.03,0.63l-13.33,146.67C126.36,197.38,123.46,200.01,120,200z M20.6,186.67
		h93.33l12.13-133.33H32.73L20.6,186.67z"/>
	<rect x="146.67" y="153.33" width="13.33" height="40"/>
	<path d="M106.67,80c-3.68,0-6.67-2.98-6.67-6.67v-40c0-11.05-8.95-20-20-20s-20,8.95-20,20v40c0,3.68-2.98,6.67-6.67,6.67
		s-6.67-2.98-6.67-6.67v-40C46.67,14.92,61.59,0,80,0s33.33,14.92,33.33,33.33v40C113.33,77.02,110.35,80,106.67,80z"/>
	<path d="M146.67,53.33c-3.68,0-6.67-2.98-6.67-6.67V33.33c0-11.05-8.95-20-20-20c-3.68,0-6.67-2.98-6.67-6.67S116.32,0,120,0
		c18.41,0,33.33,14.92,33.33,33.33v13.33C153.33,50.35,150.35,53.33,146.67,53.33z"/>
</g>
</svg>
