<?xml version="1.0" encoding="utf-8"?>
<!-- Generator: Adobe Illustrator 24.0.1, SVG Export Plug-In . SVG Version: 6.00 Build 0)  -->
<svg version="1.1" id="Layer_1" xmlns="http://www.w3.org/2000/svg" xmlns:xlink="http://www.w3.org/1999/xlink" x="0px" y="0px"
	 viewBox="0 0 150 150" style="enable-background:new 0 0 150 150;" xml:space="preserve">
<style type="text/css">
	.st0{fill:#5BDB98;}
</style>
<g id="Layer_29">
	<path class="st0" d="M142.74,153.16H90.63c-2.88,0.01-5.22-2.31-5.23-5.19c0-0.16,0.01-0.33,0.02-0.49L95.84,32.84
		c0.24-2.69,2.51-4.75,5.21-4.74h31.27c2.7-0.01,4.97,2.05,5.21,4.74l10.42,114.64c0.26,2.87-1.85,5.4-4.72,5.66
		C143.07,153.16,142.9,153.16,142.74,153.16z M96.31,142.74h40.75l-9.48-104.22H105.8L96.31,142.74z"/>
	<path class="st0" d="M90.63,153.16H7.26c-2.88,0.01-5.22-2.31-5.23-5.19c0-0.16,0.01-0.33,0.02-0.49L12.47,32.84
		c0.24-2.69,2.51-4.75,5.21-4.74h83.37c2.88-0.01,5.22,2.31,5.23,5.19c0,0.16-0.01,0.33-0.02,0.49L95.84,148.42
		C95.6,151.11,93.34,153.17,90.63,153.16z M12.94,142.74h72.95l9.48-104.22H22.42L12.94,142.74z"/>
	<rect x="111.48" y="116.69" class="st0" width="10.42" height="31.27"/>
	<path class="st0" d="M80.21,59.37c-2.88,0-5.21-2.33-5.21-5.21V22.89c0-8.63-7-15.63-15.63-15.63s-15.63,7-15.63,15.63v31.27
		c0,2.88-2.33,5.21-5.21,5.21c-2.88,0-5.21-2.33-5.21-5.21V22.89c0-14.39,11.66-26.05,26.05-26.05S85.42,8.5,85.42,22.89v31.27
		C85.42,57.03,83.09,59.37,80.21,59.37z"/>
	<path class="st0" d="M111.48,38.52c-2.88,0-5.21-2.33-5.21-5.21V22.89c0-8.63-7-15.63-15.63-15.63c-2.88,0-5.21-2.33-5.21-5.21
		s2.33-5.21,5.21-5.21c14.39,0,26.05,11.66,26.05,26.05v10.42C116.69,36.19,114.35,38.52,111.48,38.52z"/>
</g>
</svg>
