<?xml version="1.0" encoding="utf-8"?>
<!-- Generator: Adobe Illustrator 24.0.1, SVG Export Plug-In . SVG Version: 6.00 Build 0)  -->
<svg version="1.1" id="Layer_1" xmlns="http://www.w3.org/2000/svg" xmlns:xlink="http://www.w3.org/1999/xlink" x="0px" y="0px"
	 viewBox="0 0 200 200" style="enable-background:new 0 0 200 200;" xml:space="preserve">
<style type="text/css">
	.st0{fill:#4267B2;}
	.st1{fill:#1DA1F2;}
	.st2{fill:#FFFFFF;}
	.st3{fill:url(#SVGID_1_);}
</style>
<g>
	<g id="FB">
		<path class="st0" d="M125.45,77.94v44.12c0,1.87-1.53,3.39-3.39,3.39h-11.88v-22.06h5.09v-6.79h-5.09v-8.48
			c0-0.93,0.76-1.7,1.7-1.7h5.09v-6.79h-6.87c-3.65,0-6.7,2.97-6.7,6.7v10.27H98.3v6.79h5.09v22.06H77.94
			c-1.87,0-3.39-1.53-3.39-3.39V77.94c0-1.87,1.53-3.39,3.39-3.39h44.12C123.93,74.55,125.45,76.07,125.45,77.94z"/>
	</g>
	<g>
		<path id="Dark_Blue" class="st1" d="M45.27,125.45H7.09c-3.51,0-6.36-2.85-6.36-6.36V80.91c0-3.51,2.85-6.36,6.36-6.36h38.18
			c3.51,0,6.36,2.85,6.36,6.36v38.18C51.64,122.6,48.79,125.45,45.27,125.45z"/>
		<path id="Logo__x2014__FIXED" class="st2" d="M20.28,112.93c12,0,18.57-9.95,18.57-18.57c0-0.28,0-0.56-0.01-0.84
			c1.27-0.92,2.38-2.07,3.26-3.39c-1.17,0.52-2.43,0.87-3.75,1.03c1.35-0.8,2.38-2.09,2.88-3.61c-1.26,0.75-2.66,1.29-4.15,1.58
			c-1.2-1.27-2.89-2.06-4.76-2.06c-3.6,0-6.53,2.93-6.53,6.53c0,0.51,0.06,1.01,0.17,1.49c-5.42-0.27-10.23-2.88-13.45-6.82
			c-0.56,0.97-0.88,2.09-0.88,3.28c0,2.27,1.16,4.26,2.9,5.43c-1.07-0.04-2.07-0.33-2.95-0.81v0.09c0,3.16,2.25,5.8,5.23,6.4
			c-0.55,0.15-1.12,0.23-1.72,0.23c-0.42,0-0.83-0.04-1.22-0.11c0.83,2.6,3.25,4.48,6.1,4.53c-2.24,1.76-5.05,2.8-8.11,2.8
			c-0.52,0-1.04-0.03-1.55-0.09C13.16,111.85,16.6,112.93,20.28,112.93"/>
	</g>
	<g>
		<linearGradient id="SVGID_1_" gradientUnits="userSpaceOnUse" x1="148.3622" y1="100" x2="199.2698" y2="100">
			<stop  offset="0" style="stop-color:#F15A24"/>
			<stop  offset="1" style="stop-color:#ED1E79"/>
		</linearGradient>
		<path class="st3" d="M199.27,119.09c0,3.5-2.86,6.36-6.36,6.36h-38.18c-3.5,0-6.36-2.86-6.36-6.36V80.91
			c0-3.5,2.86-6.36,6.36-6.36h38.18c3.5,0,6.36,2.86,6.36,6.36V119.09z"/>
		<g>
			<g>
				<path class="st2" d="M182.57,119.09h-17.5c-5.7,0-10.34-4.64-10.34-10.34v-17.5c0-5.7,4.64-10.34,10.34-10.34h17.5
					c5.7,0,10.34,4.64,10.34,10.34v17.5C192.91,114.45,188.27,119.09,182.57,119.09z M165.07,84.09c-3.95,0-7.16,3.21-7.16,7.16
					v17.5c0,3.95,3.21,7.16,7.16,7.16h17.5c3.95,0,7.16-3.21,7.16-7.16v-17.5c0-3.95-3.21-7.16-7.16-7.16H165.07z"/>
			</g>
			<g>
				<path class="st2" d="M173.82,109.55c-5.26,0-9.55-4.28-9.55-9.55c0-5.26,4.28-9.55,9.55-9.55c5.26,0,9.55,4.28,9.55,9.55
					C183.36,105.26,179.08,109.55,173.82,109.55z M173.82,93.64c-3.51,0-6.36,2.85-6.36,6.36s2.85,6.36,6.36,6.36
					c3.51,0,6.36-2.85,6.36-6.36S177.32,93.64,173.82,93.64z"/>
			</g>
			<g>
				<circle class="st2" cx="183.96" cy="89.86" r="2.19"/>
			</g>
		</g>
	</g>
</g>
</svg>
