<?xml version="1.0" encoding="utf-8"?>
<!-- Generator: Adobe Illustrator 24.0.1, SVG Export Plug-In . SVG Version: 6.00 Build 0)  -->
<svg version="1.1" id="Layer_1" xmlns="http://www.w3.org/2000/svg" xmlns:xlink="http://www.w3.org/1999/xlink" x="0px" y="0px"
	 viewBox="0 0 200 200" style="enable-background:new 0 0 200 200;" xml:space="preserve">
<style type="text/css">
	.st0{fill:#FFB44A;}
</style>
<path class="st0" d="M104.11,1.52l29.2,59.17c0.67,1.35,1.96,2.29,3.45,2.51l65.3,9.49c3.76,0.55,5.26,5.17,2.54,7.82l-47.25,46.06
	c-1.08,1.05-1.57,2.57-1.32,4.06l11.15,65.04c0.64,3.75-3.29,6.6-6.65,4.83l-58.41-30.71c-1.34-0.7-2.93-0.7-4.27,0L39.46,200.5
	c-3.36,1.77-7.3-1.09-6.65-4.83l11.15-65.04c0.26-1.49-0.24-3.01-1.32-4.06L-4.61,80.51c-2.72-2.65-1.22-7.28,2.54-7.82l65.3-9.49
	c1.49-0.22,2.79-1.16,3.45-2.51l29.2-59.17C97.57-1.89,102.43-1.89,104.11,1.52z"/>
</svg>
