<?xml version="1.0" encoding="utf-8"?>
<!-- Generator: Adobe Illustrator 25.0.0, SVG Export Plug-In . SVG Version: 6.00 Build 0)  -->
<svg version="1.1" id="Layer_1" xmlns="http://www.w3.org/2000/svg" xmlns:xlink="http://www.w3.org/1999/xlink" x="0px" y="0px"
	 viewBox="0 0 150 150" style="enable-background:new 0 0 150 150;" xml:space="preserve">
<style type="text/css">
	.st0{fill:#5BDB98;}
</style>
<g id="_1_1_">
	<path class="st0" d="M120.81,150.62c-1.66,0-3.24-0.72-4.33-1.96l-18.59-21.24c-7.48,1.92-15.17,2.89-22.89,2.88
		c-20.58,0-39.97-6.68-54.6-18.81C5.45,99.1-2.77,82.53-2.77,64.84S5.46,30.58,20.4,18.19C35.03,6.06,54.43-0.62,75-0.62
		s39.96,6.68,54.6,18.81c14.95,12.39,23.18,28.96,23.18,46.65c0,18.89-9.52,36.61-26.22,49.04v30.99
		C126.56,148.05,123.98,150.62,120.81,150.62z M99.83,115.16c1.66,0,3.24,0.72,4.33,1.96l10.9,12.45v-18.65
		c0-1.9,0.93-3.67,2.5-4.75c15.07-10.31,23.71-25.37,23.71-41.33c0-29.75-29.73-53.96-66.27-53.96S8.73,35.09,8.73,64.84
		S38.46,118.8,75,118.8c7.84,0.02,15.65-1.13,23.15-3.4C98.7,115.24,99.26,115.16,99.83,115.16z"/>
	<path class="st0" d="M99.07,48.38H50.93c-3.18,0-5.75-2.57-5.75-5.75s2.57-5.75,5.75-5.75l0,0h48.13c3.18,0,5.75,2.57,5.75,5.75
		S102.24,48.38,99.07,48.38z"/>
	<path class="st0" d="M99.07,70.08H50.93c-3.18,0-5.75-2.57-5.75-5.75s2.57-5.75,5.75-5.75h48.13c3.18,0,5.75,2.57,5.75,5.75
		S102.24,70.08,99.07,70.08z"/>
	<path class="st0" d="M99.07,91.78H50.93c-3.18,0-5.75-2.57-5.75-5.75s2.57-5.75,5.75-5.75h48.13c3.18,0,5.75,2.57,5.75,5.75
		S102.24,91.78,99.07,91.78z"/>
</g>
</svg>
