<?xml version="1.0" encoding="utf-8"?>
<!-- Generator: Adobe Illustrator 24.0.1, SVG Export Plug-In . SVG Version: 6.00 Build 0)  -->
<svg version="1.1" id="Layer_1" xmlns="http://www.w3.org/2000/svg" xmlns:xlink="http://www.w3.org/1999/xlink" x="0px" y="0px"
	 viewBox="0 0 200 200" style="enable-background:new 0 0 200 200;" xml:space="preserve">
<style type="text/css">
	.st0{fill:#5BDB98;}
</style>
<g>
	<path class="st0" d="M183.53,159.51V66.69c0-13.63-12.08-24.72-26.93-24.72h-7.38v-1.48c0-13.63-12.08-24.72-26.93-24.72h-9.95h-57
		H43.4c-14.85,0-26.93,11.09-26.93,24.72v92.83c0,13.63,12.08,24.72,26.93,24.72h7.38v1.48c0,13.63,12.08,24.72,26.93,24.72h11.94
		h57h5.12h4.82C171.46,184.23,183.53,173.15,183.53,159.51z M146.66,176.14h-57H77.71c-10.01,0-18.12-7.44-18.12-16.63v-1.48v-8.09
		V66.69c0-9.18,8.11-16.63,18.12-16.63h11.94h50.76h6.24h2.57h7.38c10.01,0,18.12,7.44,18.12,16.63v92.83
		c0,9.18-8.11,16.63-18.12,16.63h-4.82H146.66z"/>
	<path class="st0" d="M74.69,82.27h70.1c1.94,0,3.5-1.57,3.5-3.5c0-1.94-1.57-3.5-3.5-3.5h-70.1c-1.94,0-3.5,1.57-3.5,3.5
		C71.19,80.7,72.76,82.27,74.69,82.27z"/>
	<path class="st0" d="M85.77,102.58c0,1.94,1.57,3.5,3.51,3.5h65.69c1.94,0,3.51-1.57,3.51-3.5s-1.57-3.51-3.51-3.51H89.28
		C87.34,99.07,85.77,100.64,85.77,102.58z"/>
	<path class="st0" d="M139.76,126.39c0-1.94-1.57-3.5-3.5-3.5H74.69c-1.94,0-3.5,1.57-3.5,3.5c0,1.94,1.57,3.51,3.5,3.51h61.57
		C138.2,129.9,139.76,128.32,139.76,126.39z"/>
	<path class="st0" d="M158.48,150.2c0-1.94-1.57-3.5-3.51-3.5H97.27c-1.94,0-3.5,1.57-3.5,3.5c0,1.94,1.57,3.5,3.5,3.5h57.69
		C156.91,153.71,158.48,152.14,158.48,150.2z"/>
</g>
</svg>
