<?xml version="1.0" encoding="utf-8"?>
<!-- Generator: Adobe Illustrator 25.0.0, SVG Export Plug-In . SVG Version: 6.00 Build 0)  -->
<svg version="1.1" id="Layer_1" xmlns="http://www.w3.org/2000/svg" xmlns:xlink="http://www.w3.org/1999/xlink" x="0px" y="0px"
	 viewBox="0 0 150 150" style="enable-background:new 0 0 150 150;" xml:space="preserve">
<style type="text/css">
	.st0{fill:#FFB44A;}
</style>
<path class="st0" d="M63.41,138.28H31.22c-6.46,0-11.72-5.26-11.72-11.72V38.09c0-6.46,5.26-11.72,11.72-11.72h18.42v2.93
	c0,9.69,7.88,17.58,17.58,17.58c9.69,0,17.58-7.88,17.58-17.58v-2.93h18.46c6.46,0,11.72,5.26,11.72,11.72v47.56
	c0,3.24,2.62,5.86,5.86,5.86c3.24,0,5.86-2.62,5.86-5.86V38.09c0-12.92-10.51-23.44-23.44-23.44H84.8V5.86
	C84.8,2.62,82.17,0,78.94,0H55.5c-3.24,0-5.86,2.62-5.86,5.86v8.79H31.22c-12.92,0-23.44,10.51-23.44,23.44v88.48
	c0,12.92,10.51,23.44,23.44,23.44h32.19c3.24,0,5.86-2.62,5.86-5.86S66.65,138.28,63.41,138.28z M61.36,11.72h11.72V29.3
	c0,3.23-2.63,5.86-5.86,5.86s-5.86-2.63-5.86-5.86V11.72z M106.77,79.1c-19.55,0-35.45,15.9-35.45,35.45S87.22,150,106.77,150
	c19.55,0,35.45-15.9,35.45-35.45S126.32,79.1,106.77,79.1z M106.77,138.28c-13.09,0-23.73-10.65-23.73-23.73
	s10.65-23.73,23.73-23.73s23.73,10.65,23.73,23.73S119.86,138.28,106.77,138.28z M121.13,114.55c0,3.24-2.62,5.86-5.86,5.86h-8.5
	c-3.24,0-5.86-2.62-5.86-5.86v-12.01c0-3.24,2.62-5.86,5.86-5.86c3.24,0,5.86,2.62,5.86,5.86v6.15h2.64
	C118.5,108.69,121.13,111.31,121.13,114.55z"/>
</svg>
