<?xml version="1.0" encoding="utf-8"?>
<!-- Generator: Adobe Illustrator 25.0.0, SVG Export Plug-In . SVG Version: 6.00 Build 0)  -->
<svg version="1.1" id="Layer_1" xmlns="http://www.w3.org/2000/svg" xmlns:xlink="http://www.w3.org/1999/xlink" x="0px" y="0px"
	 viewBox="0 0 150 150" style="enable-background:new 0 0 150 150;" xml:space="preserve">
<style type="text/css">
	.st0{fill:#FFFFFF;}
</style>
<g id="_x30_1">
	<g>
		<path class="st0" d="M129.71,6.61H20.29c-3.78,0-6.84,3.06-6.84,6.84v123.1c0,3.78,3.06,6.84,6.84,6.84h109.43
			c3.78,0,6.84-3.06,6.84-6.84V13.45C136.55,9.67,133.49,6.61,129.71,6.61z M122.87,129.71H27.13V20.29h95.75V129.71z"/>
		<path class="st0" d="M81.84,47.64h27.36c3.78,0,6.84-3.06,6.84-6.84s-3.06-6.84-6.84-6.84H81.84c-3.78,0-6.84,3.06-6.84,6.84
			S78.06,47.64,81.84,47.64z"/>
		<path class="st0" d="M81.84,81.84h27.36c3.78,0,6.84-3.06,6.84-6.84s-3.06-6.84-6.84-6.84H81.84C78.06,68.16,75,71.22,75,75
			S78.06,81.84,81.84,81.84z"/>
		<path class="st0" d="M81.84,116.03h27.36c3.78,0,6.84-3.06,6.84-6.84c0-3.78-3.06-6.84-6.84-6.84H81.84
			c-3.78,0-6.84,3.06-6.84,6.84C75,112.98,78.06,116.03,81.84,116.03z"/>
		<path class="st0" d="M42.81,52.48c1.34,1.34,3.09,2,4.84,2s3.5-0.67,4.84-2L66.16,38.8c2.67-2.67,2.67-7,0-9.67s-7-2.67-9.67,0
			l-8.84,8.84l-2-2c-2.67-2.67-7-2.67-9.67,0s-2.67,7,0,9.67L42.81,52.48z"/>
		<path class="st0" d="M42.81,86.67c1.34,1.34,3.09,2,4.84,2s3.5-0.67,4.84-2L66.16,73c2.67-2.67,2.67-7,0-9.67s-7-2.67-9.67,0
			l-8.84,8.84l-2-2c-2.67-2.67-7-2.67-9.67,0s-2.67,7,0,9.67L42.81,86.67z"/>
		<path class="st0" d="M42.81,120.87c1.34,1.34,3.09,2,4.84,2s3.5-0.67,4.84-2l13.68-13.68c2.67-2.67,2.67-7,0-9.67s-7-2.67-9.67,0
			l-8.84,8.84l-2-2c-2.67-2.67-7-2.67-9.67,0s-2.67,7,0,9.67L42.81,120.87z"/>
	</g>
</g>
</svg>
