<?xml version="1.0" encoding="utf-8"?>
<!-- Generator: Adobe Illustrator 25.0.0, SVG Export Plug-In . SVG Version: 6.00 Build 0)  -->
<svg version="1.1" id="Layer_1" xmlns="http://www.w3.org/2000/svg" xmlns:xlink="http://www.w3.org/1999/xlink" x="0px" y="0px"
	 viewBox="0 0 150 150" style="enable-background:new 0 0 150 150;" xml:space="preserve">
<style type="text/css">
	.st0{fill:#5BDB98;}
</style>
<g id="Layer_2_10_">
	<path class="st0" d="M138.25,149.75H34.75c-3.18,0-5.75-2.57-5.75-5.75V75c0-3.18,2.57-5.75,5.75-5.75S40.5,71.82,40.5,75v63.25h92
		V17.5c0-3.18-2.57-5.75-5.75-5.75H23.25c-3.18,0-5.75-2.57-5.75-5.75s2.57-5.75,5.75-5.75h103.5c9.53,0,17.25,7.72,17.25,17.25V144
		C144,147.18,141.43,149.75,138.25,149.75z"/>
	<path class="st0" d="M34.75,80.75h-23C8.57,80.75,6,78.18,6,75V17.5C6,7.97,13.72,0.25,23.25,0.25S40.5,7.97,40.5,17.5V75
		C40.5,78.18,37.93,80.75,34.75,80.75z M17.5,69.25H29V17.5c0-3.18-2.57-5.75-5.75-5.75s-5.75,2.57-5.75,5.75V69.25z"/>
	<path class="st0" d="M92.25,92.25h-34.5c-3.18,0-5.75-2.57-5.75-5.75s2.57-5.75,5.75-5.75h34.5c3.18,0,5.75,2.57,5.75,5.75
		S95.43,92.25,92.25,92.25z"/>
	<path class="st0" d="M115.25,115.25h-57.5c-3.18,0-5.75-2.57-5.75-5.75s2.57-5.75,5.75-5.75h57.5c3.18,0,5.75,2.57,5.75,5.75
		S118.43,115.25,115.25,115.25z"/>
	<path class="st0" d="M103.75,69.25h-46c-3.18,0-5.75-2.57-5.75-5.75c0-3.18,2.57-5.75,5.75-5.75h46c3.18,0,5.75,2.57,5.75,5.75
		C109.5,66.68,106.93,69.25,103.75,69.25z"/>
	<path class="st0" d="M115.25,29h-57.5C54.57,29,52,26.43,52,23.25V6c0-3.18,2.57-5.75,5.75-5.75h57.5c3.18,0,5.75,2.57,5.75,5.75
		v17.25C121,26.43,118.43,29,115.25,29z M63.5,17.5h46v-5.75h-46V17.5z"/>
</g>
</svg>
