<?xml version="1.0" encoding="utf-8"?>
<!-- Generator: Adobe Illustrator 25.0.0, SVG Export Plug-In . SVG Version: 6.00 Build 0)  -->
<svg version="1.1" id="Layer_1" xmlns="http://www.w3.org/2000/svg" xmlns:xlink="http://www.w3.org/1999/xlink" x="0px" y="0px"
	 viewBox="0 0 150 150" style="enable-background:new 0 0 150 150;" xml:space="preserve">
<style type="text/css">
	.st0{fill-rule:evenodd;clip-rule:evenodd;fill:#FFFFFF;}
</style>
<g id="Layer_x0020_1_2_">
	<path class="st0" d="M75,0c41.42,0,75,33.58,75,75c0,41.42-33.58,75-75,75c-41.42,0-75-33.58-75-75C0,33.58,33.58,0,75,0z
		 M61.67,56.19l9.22,9.22c1.26-0.54,2.65-0.85,4.11-0.85c5.76,0,10.44,4.67,10.44,10.44c0,1.46-0.3,2.85-0.84,4.11l28.78,28.78
		l-4.97,4.97l-28.6-28.6c-1.44,0.75-3.07,1.17-4.8,1.17c-5.77,0-10.44-4.67-10.44-10.44c0-1.73,0.43-3.37,1.17-4.81l-9.04-9.04
		L61.67,56.19z M33.65,100.38l25.82-19.51c1.13,3,3.11,5.59,5.64,7.47L39.3,107.85L33.65,100.38z M70.31,59.08V30.87h9.38v28.21
		c-1.49-0.44-3.06-0.67-4.69-0.67C73.37,58.41,71.8,58.64,70.31,59.08z M75,14.46c33.43,0,60.54,27.11,60.54,60.54
		s-27.1,60.54-60.54,60.54S14.46,108.44,14.46,75S41.57,14.46,75,14.46z"/>
</g>
</svg>
