<?xml version="1.0" encoding="utf-8"?>
<!-- Generator: Adobe Illustrator 25.0.0, SVG Export Plug-In . SVG Version: 6.00 Build 0)  -->
<svg version="1.1" id="Layer_1" xmlns="http://www.w3.org/2000/svg" xmlns:xlink="http://www.w3.org/1999/xlink" x="0px" y="0px"
	 viewBox="0 0 150 150" style="enable-background:new 0 0 150 150;" xml:space="preserve">
<style type="text/css">
	.st0{fill:#E6E7E8;}
	.st1{fill:#60E99C;}
	.st2{fill:#A3EFC2;}
	.st3{fill:#4CB08A;}
	.st4{fill:#56CD93;}
	.st5{fill:#FFFFFF;}
	.st6{fill:#364048;}
	.st7{fill:#24323A;}
</style>
<g>
	<ellipse class="st0" cx="75" cy="146.6" rx="67.4" ry="3"/>
	<g>
		<g>
			<path class="st1" d="M127.2,0.4H22.8c-3.1,0-5.7,2.6-5.7,5.7v98.4c0,3.1,2.6,5.7,5.7,5.7h104.3c3.1,0,5.7-2.6,5.7-5.7V6.1
				C132.9,3,130.3,0.4,127.2,0.4z"/>
			<path class="st2" d="M121.4,5.9H28.6c-3.1,0-5.7,2.6-5.7,5.7v87.6c0,3.1,2.6,5.7,5.7,5.7h92.9c3.1,0,5.7-2.6,5.7-5.7V11.6
				C127.2,8.4,124.6,5.9,121.4,5.9z"/>
		</g>
		<g>
			<g>
				<g>
					<g>
						<g>
							<path d="M113.7,122.8h9.6c1.3,0,2.4,1.1,2.4,2.4v19.3c0,1.3-1.1,2.4-2.4,2.4h-9.6c-1.3,0-2.4-1.1-2.4-2.4v-19.3
								C111.3,123.9,112.3,122.8,113.7,122.8z"/>
						</g>
					</g>
					<g>
						<g>
							<path d="M36.3,122.8h-9.6c-1.3,0-2.4,1.1-2.4,2.4v19.3c0,1.3,1.1,2.4,2.4,2.4h9.6c1.3,0,2.4-1.1,2.4-2.4v-19.3
								C38.7,123.9,37.7,122.8,36.3,122.8z"/>
						</g>
					</g>
				</g>
				<path class="st3" d="M113.7,38.3c0,0-8-5.1-38.4-5.2l0,0c-0.1,0-0.4,0-0.5,0l0,0c-30.5,0.1-38.4,5.2-38.4,5.2
					c-21.9,33.7-13,93.6-13,93.6h103.4C126.7,131.9,135.6,72,113.7,38.3z"/>
				<path class="st4" d="M25.8,76.6c-3.4,23.2-1.2,46.1-0.4,52.9h99.2c0.8-6.9,3-29.7-0.4-52.9C124.2,76.6,25.8,76.6,25.8,76.6z"/>
				<g>
					<g>
						<ellipse class="st5" cx="32.6" cy="99.1" rx="5.9" ry="5.9"/>
						<ellipse class="st5" cx="117.4" cy="99.1" rx="5.9" ry="5.9"/>
					</g>
				</g>
				<path d="M46.2,94.2c0,2,10.6,2.4,10.6,2.4h36.3c0,0,10.6-0.3,10.6-2.4H46.2z"/>
				<path d="M46.2,99.4c0,2,10.6,2.4,10.6,2.4h36.3c0,0,10.6-0.3,10.6-2.4H46.2z"/>
				<path d="M46.2,104.6c0,2,10.6,2.4,10.6,2.4h36.3c0,0,10.6-0.3,10.6-2.4H46.2z"/>
				<path class="st3" d="M25,75.8l-3-1.2V63.2c0-1.7-1.7-3.2-3.8-3.2h-3c-2.1,0-3.8,1.4-3.8,3.2v12.4c0,1.7,1.7,3.2,3.8,3.2h3
					c0.8,0,1.5-0.2,2.1-0.6l3.9,5L25,75.8z"/>
				<path class="st3" d="M125,75.8l3-1.2V63.2c0-1.7,1.7-3.2,3.8-3.2h3c2.1,0,3.8,1.4,3.8,3.2v12.4c0,1.7-1.7,3.2-3.8,3.2h-3
					c-0.8,0-1.5-0.2-2.1-0.6l-3.9,5L125,75.8z"/>
				<path class="st3" d="M21.5,107.4c0.1,9,0.8,16.4,1.3,20.7h104.4c0.5-4.2,1.1-11.6,1.3-20.7c-2.7,2.2-8.2,5.8-15.2,5.8H36.7
					C29.7,113.2,24.2,109.6,21.5,107.4z"/>
				<g>
					<path class="st6" d="M128.1,121.1H21.7c-1.9,0-3.4,1.5-3.4,3.4v7.2c0,1.9,1.5,3.4,3.4,3.4h106.4c1.9,0,3.4-1.5,3.4-3.4v-7.2
						C131.5,122.7,130,121.1,128.1,121.1z"/>
					<path class="st7" d="M128.1,130.3H21.7c-1.9,0-3.4-1.5-3.4-3.4v4.9c0,1.9,1.5,3.4,3.4,3.4h106.4c1.9,0,3.4-1.5,3.4-3.4v-4.9
						C131.5,128.8,130,130.3,128.1,130.3z"/>
				</g>
				<g>
					<path d="M124.2,76.6c-1.9-12.9-5.5-25.8-12.1-36.2c-2.9-1-11.2-3.5-36.8-3.6h-0.5c-25.6,0-34,2.6-36.9,3.6
						c-6.6,10.4-10.2,23.4-12.1,36.2H124.2z"/>
					<path class="st7" d="M96.6,76.6h27.6c-1.9-12.9-5.5-25.8-12.1-36.2c-2.9-1-11.2-3.5-36.8-3.6h-0.5c-7,0-12.7,0.2-17.4,0.5
						L96.6,76.6z"/>
				</g>
			</g>
		</g>
	</g>
</g>
</svg>
