<?xml version="1.0" encoding="utf-8"?>
<!-- Generator: Adobe Illustrator 25.0.0, SVG Export Plug-In . SVG Version: 6.00 Build 0)  -->
<svg version="1.1" id="Layer_1" xmlns="http://www.w3.org/2000/svg" xmlns:xlink="http://www.w3.org/1999/xlink" x="0px" y="0px"
	 viewBox="0 0 150 150" style="enable-background:new 0 0 150 150;" xml:space="preserve">
<style type="text/css">
	.st0{fill:#5BDB98;}
</style>
<g>
	<g>
		<g>
			<path class="st0" d="M124.98,55.14c-6.93-27.62-34.94-44.39-62.56-37.45C40.84,23.1,25.17,41.76,23.55,63.95
				c-15.32,2.53-25.7,17-23.17,32.32c2.25,13.62,14.05,23.6,27.86,23.55h23.43v-9.37H28.24c-10.35,0-18.75-8.39-18.75-18.75
				s8.39-18.75,18.75-18.75c2.59,0,4.69-2.1,4.69-4.69c-0.02-23.3,18.84-42.2,42.14-42.23c20.17-0.02,37.53,14.24,41.43,34.02
				c0.39,1.98,1.99,3.48,3.98,3.75c12.81,1.82,21.72,13.69,19.9,26.5c-1.64,11.51-11.46,20.07-23.08,20.13H98.54v9.37h18.75
				c18.12-0.05,32.76-14.79,32.71-32.91C149.95,71.83,139.63,58.72,124.98,55.14z"/>
			<path class="st0" d="M71.78,74.31L53.03,93.06l6.61,6.61l10.78-10.73v44.95h9.37V88.93l10.73,10.73l6.61-6.61L78.39,74.31
				C76.56,72.49,73.61,72.49,71.78,74.31z"/>
		</g>
	</g>
</g>
</svg>
