<?xml version="1.0" encoding="utf-8"?>
<!-- Generator: Adobe Illustrator 25.0.0, SVG Export Plug-In . SVG Version: 6.00 Build 0)  -->
<svg version="1.1" id="Layer_1" xmlns="http://www.w3.org/2000/svg" xmlns:xlink="http://www.w3.org/1999/xlink" x="0px" y="0px"
	 viewBox="0 0 150 150" style="enable-background:new 0 0 150 150;" xml:space="preserve">
<style type="text/css">
	.st0{fill:#E6E7E8;}
	.st1{fill:#56CD93;}
	.st2{fill:#4CB08A;}
	.st3{fill:#A2DFFC;}
	.st4{fill:#312A20;}
	.st5{fill:#48443E;}
	.st6{fill:#111133;}
	.st7{fill:#3D687D;}
	.st8{clip-path:url(#SVGID_2_);fill:#3D687D;}
	.st9{clip-path:url(#SVGID_4_);fill:#3D687D;}
	.st10{clip-path:url(#SVGID_6_);fill:#3D687D;}
	.st11{clip-path:url(#SVGID_8_);}
	.st12{fill:#EEF0F3;}
	.st13{fill:#201600;}
	.st14{fill:#E2E2E2;}
</style>
<g>
	<ellipse class="st0" cx="75" cy="117.7" rx="75" ry="4.9"/>
	<g>
		<g>
			<path class="st1" d="M138.7,53.2c0.1,1.2-0.9,2.3-2.2,2.3h-10.2v-3.2l12.2-1.3L138.7,53.2z"/>
			<path class="st2" d="M127.6,49l8.2-1.7c1.2-0.2,2.3,0.5,2.4,1.6l0.2,2.1l-12.2,1.3v-1.5C126.3,50,126.9,49.2,127.6,49z"/>
			<path class="st3" d="M128.4,49.4l7.2-1.5c1.1-0.2,2,0.4,2.1,1.4l0.2,1.8l0.2,1.9c0.1,1.1-0.8,2-1.9,2h-8.9v-2.8V51
				C127.2,50.2,127.7,49.6,128.4,49.4z"/>
		</g>
		<g>
			<path class="st1" d="M11.5,53.2c-0.1,1.2,0.9,2.3,2.1,2.3h9.8v-3.2l-11.7-1.3L11.5,53.2z"/>
			<path class="st2" d="M22.2,49l-7.9-1.7c-1.2-0.2-2.2,0.5-2.4,1.6l-0.2,2.1l11.7,1.3v-1.5C23.5,50,22.9,49.2,22.2,49z"/>
			<path class="st3" d="M21.8,49.4l-7.2-1.5c-1.1-0.2-2,0.4-2.1,1.4l-0.2,1.8l-0.2,1.9c-0.1,1.1,0.8,2,1.9,2h8.9v-2.8v-1.3
				C22.9,50.2,22.4,49.5,21.8,49.4z"/>
		</g>
		<path class="st4" d="M32.2,117.9h-9.4c-2.2,0-3.9-1.8-3.9-3.9V96.1h17.3V114C36.1,116.1,34.3,117.9,32.2,117.9z"/>
		<path class="st5" d="M21.4,116.3c-1,0-1.8-0.9-1.8-2v-12.9h2.8v13.9C22.3,115.8,21.9,116.3,21.4,116.3z"/>
		<path class="st4" d="M126.6,117.9h-9.4c-2.2,0-3.9-1.8-3.9-3.9V96.1h17.3V114C130.5,116.1,128.8,117.9,126.6,117.9z"/>
		<path class="st5" d="M126.9,116.3c1,0,1.8-0.9,1.8-2v-12.9H126v13.9C126,115.8,126.4,116.3,126.9,116.3z"/>
		<path class="st1" d="M131.5,93.4l-56.6,6.8l-56.3-6.8c-2.7,0-4.8-2.3-4.8-5.2V75c0-4,0.9-7.9,2.5-11.4l5.2-11.2h107.1l5.2,11.2
			c1.7,3.6,2.5,7.5,2.5,11.5v13.2C136.3,91.1,134.1,93.4,131.5,93.4z"/>
		<g>
			
				<rect x="131" y="72.5" transform="matrix(0.7626 -0.6469 0.6469 0.7626 -20.0864 103.7477)" class="st6" width="0.7" height="13.5"/>
		</g>
		<g>
			
				<rect x="11.3" y="78.9" transform="matrix(0.6236 -0.7817 0.7817 0.6236 -54.7535 44.772)" class="st6" width="15.6" height="0.7"/>
		</g>
		<path class="st1" d="M117.5,29.6c-10.5-1.1-31.9-2.2-42.7-2.2c-25.3,0-32,1-42.3,2.2c-5.3,0.6-8,2.8-8.6,7.1l-2.4,15.7h107.1
			l-2.4-15.7C125.5,32.5,122.5,30.1,117.5,29.6z"/>
		<path class="st1" d="M30.4,30.9c10.9-1.2,17.9-2.2,44.5-2.2c11.3,0,33.8,1.1,44.8,2.2c1.3,0.1,2.5,0.4,3.5,0.7
			c-1.4-1.1-3.3-1.7-5.7-2c-10.5-1.1-31.9-2.2-42.7-2.2c-25.3,0-32,1-42.3,2.2c-2.5,0.3-4.4,1-5.8,2C27.8,31.3,29,31,30.4,30.9z"/>
		<path class="st6" d="M115,33.4c-26.5-2.2-53.7-2.2-80.3,0c-3.9,0.3-6.7,3.6-7.2,7.8c-0.5,4.2-1,8-1.5,11.4
			c-0.2,1.1,1.1,2.5,2.3,2.6c31.3,2.8,61.8,2.8,93,0c1.2-0.1,2.5-1.5,2.3-2.6c-0.5-3.4-1.1-7.2-1.5-11.4
			C121.7,37,118.9,33.8,115,33.4z"/>
		<path class="st7" d="M74.9,56.1c-15.3,0-31-0.7-46.8-2.2c-0.3,0-0.5-0.3-0.6-0.3c-0.1-0.1-0.2-0.2-0.2-0.4
			c0.6-3.3,1.1-7.1,1.6-11.3c0.5-3.8,2.9-6.5,6.3-6.8c13-1.1,26.3-1.6,39.6-1.6s26.7,0.5,39.6,1.6c3.3,0.3,5.8,3,6.3,6.8
			c0.5,4.2,1.1,8,1.6,11.3c0,0.2-0.1,0.3-0.2,0.4c-0.1,0.1-0.3,0.3-0.6,0.3C105.8,55.4,90.2,56.1,74.9,56.1z"/>
		<path class="st1" d="M20,55.6c0,0,0.6,7.3,1.1,8c0.6,0.7-3.6,3.7-1.3,8.9c1.8,4.2-5.9-0.4-5.9-0.4s0.8-5.2,2.4-8.6
			C17.8,60.1,20,55.6,20,55.6z"/>
		<path class="st1" d="M130,55.6c0,0-0.6,7.3-1.1,8c-0.6,0.7,4.6,2.3,2.6,9.6c-1.2,4.4,4.6-1,4.6-1s-0.8-5.2-2.4-8.6
			C132.2,60.1,130,55.6,130,55.6z"/>
		<g>
			<g>
				<defs>
					<path id="SVGID_1_" d="M74.9,56.1c-15.3,0-31-0.7-46.8-2.2c-0.3,0-0.5-0.3-0.6-0.3c-0.1-0.1-0.2-0.2-0.2-0.4
						c0.6-3.3,1.1-7.1,1.6-11.3c0.5-3.8,2.9-6.5,6.3-6.8c13-1.1,26.3-1.6,39.6-1.6s26.7,0.5,39.6,1.6c3.3,0.3,5.8,3,6.3,6.8
						c0.5,4.2,1.1,8,1.6,11.3c0,0.2-0.1,0.3-0.2,0.4c-0.1,0.1-0.3,0.3-0.6,0.3C105.8,55.4,90.2,56.1,74.9,56.1z"/>
				</defs>
				<clipPath id="SVGID_2_">
					<use xlink:href="#SVGID_1_"  style="overflow:visible;"/>
				</clipPath>
				<path class="st8" d="M74.9,53.2c-12.3,0-24.8-0.4-37.3-1.3c-0.2,0-0.4-0.2-0.4-0.2c0,0-0.1-0.2-0.1-0.2c0.8-2,1.6-4.2,2.4-6.7
					c0.7-2.1,2.8-3.7,5.4-3.8c9.9-0.6,20-0.9,30-0.9s20.1,0.3,30,0.9c2.5,0.2,4.7,1.7,5.4,3.8c0.8,2.4,1.6,4.7,2.4,6.7
					c0,0.1,0,0.2-0.1,0.3c-0.1,0.1-0.2,0.2-0.4,0.2C99.6,52.7,87.1,53.2,74.9,53.2z"/>
			</g>
			<g>
				<defs>
					<path id="SVGID_3_" d="M74.9,56.1c-15.3,0-31-0.7-46.8-2.2c-0.3,0-0.5-0.3-0.6-0.3c-0.1-0.1-0.2-0.2-0.2-0.4
						c0.6-3.3,1.1-7.1,1.6-11.3c0.5-3.8,2.9-6.5,6.3-6.8c13-1.1,26.3-1.6,39.6-1.6s26.7,0.5,39.6,1.6c3.3,0.3,5.8,3,6.3,6.8
						c0.5,4.2,1.1,8,1.6,11.3c0,0.2-0.1,0.3-0.2,0.4c-0.1,0.1-0.3,0.3-0.6,0.3C105.8,55.4,90.2,56.1,74.9,56.1z"/>
				</defs>
				<clipPath id="SVGID_4_">
					<use xlink:href="#SVGID_3_"  style="overflow:visible;"/>
				</clipPath>
				<path class="st9" d="M111.2,54.3H39.3c-2.2,0-4.1-1.8-4.1-4.1c0-2.2,1.8-4.1,4.1-4.1h71.9c2.2,0,4.1,1.8,4.1,4.1
					C115.3,52.5,113.4,54.3,111.2,54.3z"/>
			</g>
			<g>
				<defs>
					<path id="SVGID_5_" d="M74.9,56.1c-15.3,0-31-0.7-46.8-2.2c-0.3,0-0.5-0.3-0.6-0.3c-0.1-0.1-0.2-0.2-0.2-0.4
						c0.6-3.3,1.1-7.1,1.6-11.3c0.5-3.8,2.9-6.5,6.3-6.8c13-1.1,26.3-1.6,39.6-1.6s26.7,0.5,39.6,1.6c3.3,0.3,5.8,3,6.3,6.8
						c0.5,4.2,1.1,8,1.6,11.3c0,0.2-0.1,0.3-0.2,0.4c-0.1,0.1-0.3,0.3-0.6,0.3C105.8,55.4,90.2,56.1,74.9,56.1z"/>
				</defs>
				<clipPath id="SVGID_6_">
					<use xlink:href="#SVGID_5_"  style="overflow:visible;"/>
				</clipPath>
				<path class="st10" d="M122,50.7c-15.9,1.1-31.6,1.6-47.1,1.6s-31.2-0.6-47.1-1.6c-0.1,0.9-0.3,1.7-0.4,2.5
					c0,0.2,0.1,0.3,0.2,0.4c0.1,0.1,0.3,0.3,0.6,0.3c15.8,1.4,31.5,2.2,46.8,2.2s31-0.7,46.8-2.2c0.2,0,0.4-0.2,0.6-0.3
					c0.1-0.1,0.2-0.3,0.2-0.4C122.2,52.4,122.1,51.6,122,50.7z"/>
			</g>
			<g>
				<defs>
					<path id="SVGID_7_" d="M74.9,56.1c-15.3,0-31-0.7-46.8-2.2c-0.3,0-0.5-0.3-0.6-0.3c-0.1-0.1-0.2-0.2-0.2-0.4
						c0.6-3.3,1.1-7.1,1.6-11.3c0.5-3.8,2.9-6.5,6.3-6.8c13-1.1,26.3-1.6,39.6-1.6s26.7,0.5,39.6,1.6c3.3,0.3,5.8,3,6.3,6.8
						c0.5,4.2,1.1,8,1.6,11.3c0,0.2-0.1,0.3-0.2,0.4c-0.1,0.1-0.3,0.3-0.6,0.3C105.8,55.4,90.2,56.1,74.9,56.1z"/>
				</defs>
				<clipPath id="SVGID_8_">
					<use xlink:href="#SVGID_7_"  style="overflow:visible;"/>
				</clipPath>
				<g class="st11">
					<polygon class="st7" points="96.4,65.4 88.2,65.4 122.9,26.3 133.6,26.3 					"/>
					<polygon class="st7" points="86.3,65.4 84.8,65.4 118.5,26.3 120.5,26.3 					"/>
					<polygon class="st7" points="66.4,66.1 58.2,66.1 83.8,27.4 94.4,27.4 					"/>
					<polygon class="st7" points="56.4,66.1 54.8,66.1 79.5,27.4 81.4,27.4 					"/>
					<polygon class="st7" points="34.6,66.1 26.5,66.1 42.7,27.4 53.3,27.4 					"/>
					<polygon class="st7" points="24.6,66.1 23.1,66.1 38.4,27.4 40.3,27.4 					"/>
					<polygon class="st7" points="69.5,66.1 68,66.1 96.5,27.4 98.5,27.4 					"/>
				</g>
			</g>
		</g>
		<path class="st12" d="M38,74.3l-12.6-0.9c-2.2-0.2-4.1-1.3-4.4-2.8l-0.4-2.1c-0.3-1.6,2-3,4.6-2.6l13.2,1.9c1.5,0.2,2.6,1.1,2.6,2
			v2.8C41,73.6,39.6,74.4,38,74.3z"/>
		<path class="st12" d="M113.5,74.3l12.6-0.9c2.2-0.2,4.1-1.3,4.4-2.8l0.4-2.1c0.3-1.6-2-3-4.6-2.6l-13.2,1.9
			c-1.5,0.2-2.6,1.1-2.6,2v2.8C110.6,73.6,111.9,74.4,113.5,74.3z"/>
		<g>
			<path class="st13" d="M116.8,88.1c-3.7,0.2-7.2,1.6-9.6,4.3c-1.3,1.4-3.2,2.4-5.3,2.6l-2.5,0.2c-7.7,0.7-15.6,1.5-23.5,1.5
				c-7.9,0-15.8-0.8-23.5-1.5L50,95c-2.1-0.2-4-1.2-5.3-2.6c-2.3-2.6-5.9-4-9.5-4.2c-7.5-0.4-14.5-0.9-22-1.6L12.9,95
				c0,2.5,2.2,4.8,5,5c38.2,3.1,76.6,3.1,114.7,0c2.7-0.2,5-2.5,5-5l-0.5-8.3C130.1,87.3,123.7,87.7,116.8,88.1z"/>
			<path class="st2" d="M116.8,77.2c-3.7,0.2-7.2,1.6-9.6,4.3c-1.3,1.4-3.2,2.4-5.3,2.6l-2.5,0.2c-7.7,0.7-15.6,1.5-23.5,1.5
				c-7.9,0-15.8-0.8-23.5-1.5L50,84.1c-2.1-0.2-4-1.2-5.3-2.6c-2.3-2.6-5.9-4-9.5-4.2c-7.5-0.4-14.1-0.9-21.5-1.5l-0.8,18.5
				c0,2.5,2.2,4.8,5,5c38.2,3.1,76.6,3.1,114.7,0c2.7-0.2,5-2.5,5-5l-1.3-18C129.3,76.8,123.7,76.8,116.8,77.2z"/>
		</g>
		<path class="st12" d="M116.8,86l6.8-0.6c1.2-0.1,2.2-0.9,2.4-1.8l0.2-1.4c0.2-1.1-1.1-2-2.5-1.7l-7.1,1.2
			c-0.8,0.1-1.4,0.7-1.4,1.3v1.8C115.3,85.5,116,86,116.8,86z"/>
		<path class="st12" d="M33.3,86l-6.5-0.6c-1.2-0.1-2.1-0.9-2.3-1.8l-0.2-1.4c-0.2-1.1,1.1-2,2.4-1.7l6.8,1.2
			c0.8,0.1,1.3,0.7,1.3,1.3v1.8C34.8,85.5,34.2,86,33.3,86z"/>
		<g>
			<path class="st6" d="M75.1,76.4c-1.6,0-3.2-0.1-4.8-0.2l-19-1.3c-3.1-0.2-5.8-1.9-7.3-4.6l-0.5-1c-0.9-1.6-2.5-2.7-4.3-2.9
				L33,65.8c-2.9-0.3-5.5-1.7-7.3-4L20.1,55l0.5-0.4l5.6,6.8c1.7,2.1,4.2,3.4,6.8,3.7l6.2,0.7c2,0.2,3.8,1.4,4.8,3.2l0.5,1
				c1.4,2.5,3.9,4.1,6.7,4.3l19,1.3c3.2,0.2,6.5,0.2,9.7,0l18.5-1.3c2.8-0.2,5.4-1.8,6.7-4.3l0.5-0.9c1-1.8,2.8-3,4.8-3.2l5.9-0.7
				c2.7-0.3,5.2-1.7,6.9-3.8l5.5-6.8l0.5,0.4l-5.5,6.8c-1.8,2.3-4.4,3.7-7.3,4l-5.9,0.7c-1.8,0.2-3.4,1.3-4.3,2.9l-0.5,0.9
				c-1.5,2.7-4.2,4.4-7.3,4.7L80,76.2C78.4,76.4,76.7,76.4,75.1,76.4z"/>
		</g>
		<g>
			<rect x="63.7" y="90.2" class="st14" width="22.3" height="7"/>
			<path class="st6" d="M86.2,97.4H63.5V90h22.7V97.4z M64,97h21.8v-6.5H64V97z"/>
		</g>
	</g>
</g>
</svg>
