<?xml version="1.0" encoding="utf-8"?>
<!-- Generator: Adobe Illustrator 25.0.0, SVG Export Plug-In . SVG Version: 6.00 Build 0)  -->
<svg version="1.1" id="Layer_1" xmlns="http://www.w3.org/2000/svg" xmlns:xlink="http://www.w3.org/1999/xlink" x="0px" y="0px"
	 viewBox="0 0 150 150" style="enable-background:new 0 0 150 150;" xml:space="preserve">
<style type="text/css">
	.st0{fill:#E6E7E8;}
	.st1{fill:url(#SVGID_1_);}
	.st2{fill:#424242;}
	.st3{fill:url(#SVGID_2_);}
	.st4{fill:#4CB08A;}
	.st5{fill:url(#SVGID_3_);}
	.st6{fill:url(#SVGID_4_);}
	.st7{fill:url(#SVGID_5_);}
	.st8{fill:#303030;}
	.st9{fill:#474747;}
	.st10{fill:url(#SVGID_6_);}
	.st11{fill:#FFFFFF;}
	.st12{fill:url(#SVGID_7_);}
	.st13{fill:#FAD2AC;}
	.st14{fill:url(#SVGID_8_);}
	.st15{fill:url(#SVGID_9_);}
	.st16{fill:url(#SVGID_10_);}
	.st17{fill:#FCFBF9;}
	.st18{fill:#F9F7F4;}
	.st19{fill:#F6F3EE;}
	.st20{fill:#F3EFE9;}
	.st21{fill:#F0EBE3;}
	.st22{fill:#EEE6DE;}
	.st23{fill:#EBE2D8;}
	.st24{fill:#E8DED3;}
	.st25{fill:#E5DACD;}
	.st26{fill:#E2D6C8;}
	.st27{fill:#DFD2C2;}
	.st28{fill:url(#SVGID_11_);}
	.st29{fill:url(#SVGID_12_);}
	.st30{fill:url(#SVGID_13_);}
	.st31{fill:url(#SVGID_14_);}
</style>
<g>
	<ellipse class="st0" cx="75" cy="123.4" rx="75" ry="4.9"/>
	<g>
		<g>
			<g>
				
					<linearGradient id="SVGID_1_" gradientUnits="userSpaceOnUse" x1="117.5887" y1="49.3078" x2="134.8229" y2="49.3078" gradientTransform="matrix(1 0 0 -1 0 152)">
					<stop  offset="0" style="stop-color:#5F5A5E"/>
					<stop  offset="0.411" style="stop-color:#000000"/>
					<stop  offset="0.531" style="stop-color:#060506"/>
					<stop  offset="0.6864" style="stop-color:#161516"/>
					<stop  offset="0.8604" style="stop-color:#302E30"/>
					<stop  offset="1" style="stop-color:#4A484B"/>
				</linearGradient>
				<path class="st1" d="M122.5,82.3h7.3c2.7,0,5,2.2,5,5v15.4v15.4c0,2.7-2.2,5-5,5h-7.3c-2.7,0-5-2.2-5-5v-15.4V87.3
					C117.6,84.5,119.8,82.3,122.5,82.3z"/>
				<g>
					<polygon class="st2" points="126.2,121.5 134.8,116.4 134.8,114.5 126.2,119.6 					"/>
					<path class="st2" d="M126.2,87.9l7.1-4.2c-0.4-0.4-0.9-0.8-1.5-1l-5.6,3.3L126.2,87.9L126.2,87.9z"/>
					<polygon class="st2" points="126.2,116.7 134.8,111.6 134.8,109.7 126.2,114.8 					"/>
					<path class="st2" d="M129.9,123.1c2.3,0,4.2-1.5,4.8-3.6l-6.2,3.6H129.9z"/>
					<polygon class="st2" points="126.2,111.9 134.8,106.8 134.8,104.9 126.2,110 					"/>
					<polygon class="st2" points="126.2,97.5 134.8,92.4 134.8,90.5 126.2,95.6 					"/>
					<path class="st2" d="M134.6,85.9l-8.4,5v1.9l8.6-5.1v-0.4C134.8,86.8,134.7,86.3,134.6,85.9z"/>
					<polygon class="st2" points="126.2,107.1 134.8,102 134.8,100.1 126.2,105.2 					"/>
					<polygon class="st2" points="126.2,102.3 134.8,97.2 134.8,95.3 126.2,100.4 					"/>
					<polygon class="st2" points="126.2,97.9 117.6,93 117.6,94.9 126.2,99.8 					"/>
					<polygon class="st2" points="126.2,93.1 117.6,88.2 117.6,90.1 126.2,95 					"/>
					<path class="st2" d="M126.2,83.5l-2.1-1.2h-1.6c-0.5,0-1,0.1-1.4,0.2l5.1,2.9V83.5z"/>
					<path class="st2" d="M126.2,88.3l-7.4-4.2c-0.4,0.4-0.7,0.9-0.9,1.4l8.3,4.7L126.2,88.3L126.2,88.3z"/>
					<polygon class="st2" points="126.2,112.3 117.6,107.4 117.6,109.3 126.2,114.2 					"/>
					<path class="st2" d="M117.6,118.1c0,0.3,0,0.6,0.1,0.8l7.3,4.1h1.3v-1.2l-8.6-4.9L117.6,118.1L117.6,118.1z"/>
					<polygon class="st2" points="126.2,117.1 117.6,112.2 117.6,114.1 126.2,119 					"/>
					<polygon class="st2" points="126.2,102.7 117.6,97.8 117.6,99.7 126.2,104.6 					"/>
					<polygon class="st2" points="126.2,107.5 117.6,102.6 117.6,102.7 117.6,104.5 126.2,109.4 					"/>
				</g>
			</g>
			<g>
				
					<linearGradient id="SVGID_2_" gradientUnits="userSpaceOnUse" x1="12.1087" y1="49.451" x2="29.3429" y2="49.451" gradientTransform="matrix(1 0 0 -1 0 152)">
					<stop  offset="0" style="stop-color:#5F5A5E"/>
					<stop  offset="0.411" style="stop-color:#000000"/>
					<stop  offset="0.531" style="stop-color:#060506"/>
					<stop  offset="0.6864" style="stop-color:#161516"/>
					<stop  offset="0.8604" style="stop-color:#302E30"/>
					<stop  offset="1" style="stop-color:#4A484B"/>
				</linearGradient>
				<path class="st3" d="M17.1,82.2h7.3c2.7,0,5,2.2,5,5v15.4V118c0,2.7-2.2,5-5,5h-7.3c-2.7,0-5-2.2-5-5v-15.4V87.1
					C12.1,84.4,14.3,82.2,17.1,82.2z"/>
				<g>
					<polygon class="st2" points="20.7,121.4 29.3,116.3 29.3,114.4 20.7,119.5 					"/>
					<path class="st2" d="M20.7,87.8l7.1-4.2c-0.4-0.4-0.9-0.8-1.5-1l-5.6,3.3V87.8z"/>
					<polygon class="st2" points="20.7,116.6 29.3,111.5 29.3,109.6 20.7,114.7 					"/>
					<path class="st2" d="M24.4,122.9c2.3,0,4.2-1.5,4.8-3.6l-6.2,3.6H24.4z"/>
					<polygon class="st2" points="20.7,111.8 29.3,106.7 29.3,104.8 20.7,109.9 					"/>
					<polygon class="st2" points="20.7,97.4 29.3,92.3 29.3,90.4 20.7,95.5 					"/>
					<path class="st2" d="M29.1,85.7l-8.4,5v1.9l8.6-5.1v-0.4C29.3,86.6,29.3,86.2,29.1,85.7z"/>
					<polygon class="st2" points="20.7,107 29.3,101.9 29.3,100 20.7,105.1 					"/>
					<polygon class="st2" points="20.7,102.2 29.3,97.1 29.3,95.2 20.7,100.3 					"/>
					<polygon class="st2" points="20.7,97.8 12.1,92.9 12.1,94.8 20.7,99.7 					"/>
					<polygon class="st2" points="20.7,93 12.1,88.1 12.1,90 20.7,94.9 					"/>
					<path class="st2" d="M20.7,83.4l-2.1-1.2h-1.6c-0.5,0-1,0.1-1.4,0.2l5.1,2.9L20.7,83.4L20.7,83.4z"/>
					<path class="st2" d="M20.7,88.2l-7.4-4.2c-0.4,0.4-0.7,0.9-0.9,1.4l8.3,4.7L20.7,88.2L20.7,88.2z"/>
					<polygon class="st2" points="20.7,112.2 12.1,107.3 12.1,109.2 20.7,114.1 					"/>
					<path class="st2" d="M12.1,118c0,0.3,0,0.6,0.1,0.8l7.3,4.1h1.3v-1.2l-8.6-4.9V118z"/>
					<polygon class="st2" points="20.7,117 12.1,112.1 12.1,114 20.7,118.9 					"/>
					<polygon class="st2" points="20.7,102.6 12.1,97.7 12.1,99.6 20.7,104.5 					"/>
					<polygon class="st2" points="20.7,107.4 12.1,102.5 12.1,102.6 12.1,104.4 20.7,109.3 					"/>
				</g>
			</g>
			<g>
				<path class="st4" d="M120.5,46.5c0,0-0.9-5.4,5.1-4.1c6,1.4,8,1.2,7.8,7.1c-0.1,2.6-13.9,1.4-13.9,1.4l-2.6-4.2L120.5,46.5z"/>
				<path d="M126.1,50.3c-2.6,0-5.2-0.2-6.2-0.3l-1.7-2.7l3.1-0.1l-0.1-0.9c0,0-0.3-1.7,0.6-2.6c0.4-0.5,1.1-0.7,2-0.7
					c0.5,0,1,0.1,1.6,0.2l1.5,0.3c4.8,1.1,5.8,1.3,5.7,6l0,0C132.5,49.4,131.9,50.3,126.1,50.3z"/>
			</g>
			<g>
				<path class="st4" d="M26.8,46.5c0,0,0.9-5.4-5.1-4.1c-6,1.4-8,1.2-7.8,7.1c0.1,2.6,13.9,1.4,13.9,1.4l2.6-4.2L26.8,46.5z"/>
				<path d="M21.2,50.3c2.6,0,5.2-0.2,6.2-0.3l1.7-2.7l-3.1-0.1l0.1-0.9c0,0,0.3-1.7-0.6-2.6c-0.4-0.5-1.1-0.7-2-0.7
					c-0.5,0-1,0.1-1.6,0.2l-1.5,0.3c-4.8,1.1-5.8,1.3-5.7,6l0,0C14.7,49.4,15.4,50.3,21.2,50.3z"/>
			</g>
			
				<linearGradient id="SVGID_3_" gradientUnits="userSpaceOnUse" x1="73.5114" y1="131.3554" x2="73.5114" y2="60.7301" gradientTransform="matrix(1 0 0 -1 0 152)">
				<stop  offset="0.4218" style="stop-color:#56CD93"/>
				<stop  offset="0.5339" style="stop-color:#4CB08A"/>
			</linearGradient>
			<path class="st5" d="M124,46.2c-2.7-5.9-5.1-16.1-9.1-22.1c-1-1.5-3.4-2.5-5.1-2.5c-12.9,0-59.7,0-72.5,0c-1.8,0-4.1,1.1-5.1,2.5
				c-4,6-6.4,16.2-9.1,22.1c-0.7,1.6-11.6,11.6-11.6,11.6v29.7c0,1.8,1.4,3.2,3.2,3.2l58.8-0.3l58.8,0.3c1.8,0,3.2-1.4,3.2-3.2V57.8
				C135.5,57.8,124.7,47.8,124,46.2z"/>
			
				<linearGradient id="SVGID_4_" gradientUnits="userSpaceOnUse" x1="73.507" y1="95.002" x2="73.507" y2="66.1831" gradientTransform="matrix(1 0 0 -1 0 152)">
				<stop  offset="0" style="stop-color:#4A4A4A"/>
				<stop  offset="0.2272" style="stop-color:#383838"/>
				<stop  offset="1" style="stop-color:#000000"/>
			</linearGradient>
			<polygon class="st6" points="124.1,83.2 22.9,83.2 20,66.1 20,56.1 127,56.1 127,65.3 			"/>
			
				<linearGradient id="SVGID_5_" gradientUnits="userSpaceOnUse" x1="73.5417" y1="66.759" x2="73.5417" y2="50.3493" gradientTransform="matrix(1 0 0 -1 0 152)">
				<stop  offset="0" style="stop-color:#5F5A5E"/>
				<stop  offset="0.2754" style="stop-color:#262529"/>
				<stop  offset="0.4762" style="stop-color:#29282C"/>
				<stop  offset="0.6286" style="stop-color:#333135"/>
				<stop  offset="0.7647" style="stop-color:#434144"/>
				<stop  offset="0.8093" style="stop-color:#4A484B"/>
			</linearGradient>
			<path class="st7" d="M110.9,87.2l-12.2-2h-51l-12.2,2H11.4c0,2.3,0.1,9,0.1,9c0,2.9,4.6,5.3,10.3,5.3h103.5
				c5.7,0,10.3-2.4,10.3-5.3c0-2.9,0-6.8,0-9H110.9z"/>
			<g>
				<path class="st8" d="M35.6,47.9c-0.3,0-0.4-0.1-0.4-0.1c0,0,0-0.2,0.1-0.4l4.7-16.9c1-1.7,4.1-3.4,6.2-3.4h54.7
					c2.2,0,5.2,1.7,6.3,3.4l4.6,16.8c0.1,0.2,0.1,0.4,0.1,0.4c0,0-0.1,0.1-0.4,0.1L35.6,47.9L35.6,47.9z"/>
				<g>
					<path class="st9" d="M100.9,28.6H46.2c-1.8,0-4.3,1.4-5.1,2.6l-1.9,5.5l66.2-6.2C104.2,29.5,102.3,28.6,100.9,28.6z"/>
					<path d="M105.4,30.5l-66.2,6.2l-2.2,9.9h73.2L106,31.3C105.9,31,105.6,30.8,105.4,30.5z"/>
				</g>
			</g>
			
				<linearGradient id="SVGID_6_" gradientUnits="userSpaceOnUse" x1="54.5021" y1="64.7474" x2="92.5163" y2="64.7474" gradientTransform="matrix(1 0 0 -1 0 152)">
				<stop  offset="0" style="stop-color:#5F5A5E"/>
				<stop  offset="0.2754" style="stop-color:#262529"/>
				<stop  offset="0.4762" style="stop-color:#29282C"/>
				<stop  offset="0.6286" style="stop-color:#333135"/>
				<stop  offset="0.7647" style="stop-color:#434144"/>
				<stop  offset="0.8093" style="stop-color:#4A484B"/>
			</linearGradient>
			<rect x="54.5" y="83.2" class="st10" width="38" height="8"/>
			<rect x="55.3" y="84" class="st11" width="36.4" height="6.4"/>
			<g>
				
					<linearGradient id="SVGID_7_" gradientUnits="userSpaceOnUse" x1="121.6336" y1="61.551" x2="121.6336" y2="57.428" gradientTransform="matrix(1 0 0 -1 0 152)">
					<stop  offset="0" style="stop-color:#DB2A24"/>
					<stop  offset="1" style="stop-color:#A10600"/>
				</linearGradient>
				<path class="st12" d="M124.8,93.7c0-1.8-1.4-3.2-3.2-3.2s-3.2,1.4-3.2,3.2c0,0.3,0.1,0.6,0.1,0.9h6.1
					C124.8,94.3,124.8,94,124.8,93.7z"/>
				<path class="st13" d="M118.6,94.6c0.4,1.3,1.6,2.3,3.1,2.3c1.5,0,2.7-1,3.1-2.3H118.6z"/>
			</g>
			<g>
				
					<linearGradient id="SVGID_8_" gradientUnits="userSpaceOnUse" x1="25.4977" y1="61.551" x2="25.4977" y2="57.428" gradientTransform="matrix(1 0 0 -1 0 152)">
					<stop  offset="0" style="stop-color:#DB2A24"/>
					<stop  offset="1" style="stop-color:#A10600"/>
				</linearGradient>
				<path class="st14" d="M28.7,93.7c0-1.8-1.4-3.2-3.2-3.2s-3.2,1.4-3.2,3.2c0,0.3,0.1,0.6,0.1,0.9h6.1
					C28.7,94.3,28.7,94,28.7,93.7z"/>
				<path class="st13" d="M22.4,94.6c0.4,1.3,1.6,2.3,3.1,2.3c1.5,0,2.7-1,3.1-2.3H22.4z"/>
			</g>
			<g>
				
					<linearGradient id="SVGID_9_" gradientUnits="userSpaceOnUse" x1="123.944" y1="90.3563" x2="123.944" y2="73.2609" gradientTransform="matrix(1 0 0 -1 0 152)">
					<stop  offset="0" style="stop-color:#FFFFFF"/>
					<stop  offset="5.980000e-02" style="stop-color:#EAEAEA"/>
					<stop  offset="0.2445" style="stop-color:#B0B0B0"/>
					<stop  offset="0.4229" style="stop-color:#808080"/>
					<stop  offset="0.5908" style="stop-color:#5A5A5A"/>
					<stop  offset="0.7455" style="stop-color:#3F3F3F"/>
					<stop  offset="0.8825" style="stop-color:#2F2F2F"/>
					<stop  offset="0.9873" style="stop-color:#292929"/>
				</linearGradient>
				<path class="st15" d="M127.8,61.9h-0.2c-1.9,0-4.2,1.4-5.1,3.2l-5.1,10.4c-0.9,1.7,0,3.2,2,3.2h5.6c1.9,0,3.8-1.5,4.1-3.5
					l1.7-9.8C131.1,63.4,129.8,61.9,127.8,61.9z"/>
				
					<linearGradient id="SVGID_10_" gradientUnits="userSpaceOnUse" x1="123.9485" y1="89.4536" x2="123.9485" y2="74.1541" gradientTransform="matrix(1 0 0 -1 0 152)">
					<stop  offset="0" style="stop-color:#DB2A24"/>
					<stop  offset="1" style="stop-color:#A10600"/>
				</linearGradient>
				<path class="st16" d="M119.4,77.7c-0.6,0-1.1-0.2-1.3-0.5c-0.2-0.3-0.2-0.8,0.1-1.4l5.1-10.4c0.7-1.4,2.7-2.7,4.3-2.7h0.2
					c0.7,0,1.3,0.2,1.6,0.7c0.4,0.5,0.5,1.1,0.4,1.7l-1.7,9.8c-0.3,1.5-1.7,2.7-3.2,2.7H119.4z"/>
				<g>
					<path class="st11" d="M124.7,67.8c-0.1-0.4,0.3-1.6,1-1.2c0.7,0.4,1.4-0.2,1.8-0.4c0.3-0.1,0.7,0.6,0.4,1.5
						C127.5,68.6,125.4,70.9,124.7,67.8z"/>
					<path class="st17" d="M124.8,67.8c-0.1-0.4,0.3-1.5,0.9-1.1c0.7,0.4,1.3-0.2,1.6-0.4c0.3-0.1,0.7,0.6,0.4,1.4
						C127.5,68.5,125.5,70.7,124.8,67.8z"/>
					<path class="st18" d="M124.9,67.8c-0.1-0.4,0.2-1.3,0.9-1s1.2-0.2,1.5-0.3s0.6,0.5,0.3,1.3C127.4,68.5,125.5,70.4,124.9,67.8z"
						/>
					<path class="st19" d="M125.1,67.8c-0.1-0.3,0.2-1.2,0.8-0.9c0.6,0.3,1.1-0.2,1.4-0.3c0.3-0.1,0.6,0.5,0.3,1.2
						C127.3,68.4,125.6,70.2,125.1,67.8z"/>
					<path class="st20" d="M125.2,67.8c-0.1-0.3,0.2-1.1,0.7-0.8c0.5,0.3,1-0.2,1.2-0.3c0.2-0.1,0.5,0.4,0.3,1.1
						C127.2,68.3,125.7,69.9,125.2,67.8z"/>
					<path class="st21" d="M125.3,67.7c-0.1-0.3,0.2-1,0.6-0.8c0.5,0.2,0.9-0.2,1.1-0.2s0.5,0.4,0.3,0.9
						C127.1,68.2,125.7,69.7,125.3,67.7z"/>
					<path class="st22" d="M125.4,67.7c-0.1-0.2,0.2-0.9,0.6-0.7s0.8-0.1,1-0.2s0.4,0.4,0.2,0.8C127,68.1,125.8,69.5,125.4,67.7z"/>
					<path class="st23" d="M125.5,67.7c0-0.2,0.1-0.8,0.5-0.6c0.4,0.2,0.7-0.1,0.9-0.2c0.2-0.1,0.4,0.3,0.2,0.7
						C126.9,68.1,125.9,69.2,125.5,67.7z"/>
					<path class="st24" d="M125.6,67.7c0-0.2,0.1-0.6,0.4-0.5c0.3,0.2,0.6-0.1,0.7-0.2c0.1-0.1,0.3,0.3,0.2,0.6
						C126.8,68,125.9,69,125.6,67.7z"/>
					<path class="st25" d="M125.8,67.7c0-0.1,0.1-0.5,0.3-0.4c0.3,0.1,0.5-0.1,0.6-0.1c0.1-0.1,0.3,0.2,0.1,0.5
						C126.7,67.9,126,68.7,125.8,67.7z"/>
					<path class="st26" d="M125.9,67.6c0-0.1,0.1-0.4,0.3-0.3s0.4-0.1,0.5-0.1c0.1,0,0.2,0.2,0.1,0.4
						C126.6,67.8,126.1,68.5,125.9,67.6z"/>
					<path class="st27" d="M126,67.6c0-0.1,0.1-0.3,0.2-0.2c0.1,0.1,0.3,0,0.3-0.1c0.1,0,0.1,0.1,0.1,0.3
						C126.5,67.8,126.1,68.2,126,67.6z"/>
				</g>
				<g>
					<path class="st11" d="M126.4,73.7c0,1.7-1.4,3.1-3.2,3.1c-1.7,0-3.2-1.4-3.2-3.1s1.4-3.1,3.2-3.1C125,70.7,126.4,72,126.4,73.7
						z"/>
					<path class="st17" d="M126.2,73.7c0,1.6-1.3,2.9-3,2.9c-1.6,0-3-1.3-3-2.9s1.3-2.9,3-2.9C124.9,70.9,126.2,72.1,126.2,73.7z"/>
					<path class="st18" d="M126.1,73.7c0,1.5-1.3,2.7-2.8,2.7s-2.8-1.2-2.8-2.7s1.3-2.7,2.8-2.7C124.8,71,126.1,72.2,126.1,73.7z"/>
					<path class="st19" d="M125.9,73.7c0,1.4-1.2,2.5-2.6,2.5c-1.4,0-2.6-1.1-2.6-2.5c0-1.4,1.2-2.5,2.6-2.5
						C124.7,71.2,125.9,72.3,125.9,73.7z"/>
					<path class="st20" d="M125.7,73.7c0,1.3-1.1,2.4-2.4,2.4c-1.4,0-2.4-1.1-2.4-2.4s1.1-2.4,2.4-2.4
						C124.6,71.4,125.7,72.4,125.7,73.7z"/>
					<path class="st21" d="M125.5,73.7c0,1.2-1,2.2-2.3,2.2c-1.3,0-2.3-1-2.3-2.2c0-1.2,1-2.2,2.3-2.2
						C124.5,71.5,125.5,72.5,125.5,73.7z"/>
					<path class="st22" d="M125.4,73.7c0,1.1-0.9,2-2.1,2s-2.1-0.9-2.1-2c0-1.1,0.9-2,2.1-2C124.4,71.7,125.4,72.6,125.4,73.7z"/>
					<path class="st23" d="M125.2,73.7c0,1-0.9,1.8-1.9,1.8c-1.1,0-1.9-0.8-1.9-1.8c0-1,0.9-1.8,1.9-1.8
						C124.3,71.9,125.2,72.7,125.2,73.7z"/>
					<path class="st24" d="M125,73.7c0,0.9-0.8,1.7-1.7,1.7c-1,0-1.7-0.8-1.7-1.7c0-0.9,0.8-1.7,1.7-1.7
						C124.2,72.1,125,72.8,125,73.7z"/>
					<path class="st25" d="M124.8,73.7c0,0.8-0.7,1.5-1.6,1.5s-1.6-0.7-1.6-1.5c0-0.8,0.7-1.5,1.6-1.5
						C124.1,72.2,124.8,72.9,124.8,73.7z"/>
					<path class="st26" d="M124.6,73.7c0,0.7-0.6,1.3-1.4,1.3c-0.8,0-1.4-0.6-1.4-1.3c0-0.7,0.6-1.3,1.4-1.3
						C124,72.4,124.6,73,124.6,73.7z"/>
					<path class="st27" d="M124.5,73.7c0,0.6-0.5,1.2-1.2,1.2s-1.2-0.5-1.2-1.2c0-0.6,0.5-1.2,1.2-1.2
						C123.9,72.6,124.5,73.1,124.5,73.7z"/>
				</g>
			</g>
			<g>
				
					<linearGradient id="SVGID_11_" gradientUnits="userSpaceOnUse" x1="-505.0026" y1="90.3563" x2="-505.0026" y2="73.2609" gradientTransform="matrix(-1 0 0 -1 -480.4824 152)">
					<stop  offset="0" style="stop-color:#FFFFFF"/>
					<stop  offset="5.980000e-02" style="stop-color:#EAEAEA"/>
					<stop  offset="0.2445" style="stop-color:#B0B0B0"/>
					<stop  offset="0.4229" style="stop-color:#808080"/>
					<stop  offset="0.5908" style="stop-color:#5A5A5A"/>
					<stop  offset="0.7455" style="stop-color:#3F3F3F"/>
					<stop  offset="0.8825" style="stop-color:#2F2F2F"/>
					<stop  offset="0.9873" style="stop-color:#292929"/>
				</linearGradient>
				<path class="st28" d="M20.6,61.9h0.2c1.9,0,4.2,1.4,5.1,3.2L31,75.4c0.9,1.7,0,3.2-2,3.2h-5.6c-1.9,0-3.8-1.5-4.1-3.5l-1.7-9.8
					C17.4,63.4,18.7,61.9,20.6,61.9z"/>
				
					<linearGradient id="SVGID_12_" gradientUnits="userSpaceOnUse" x1="-505.0019" y1="89.4536" x2="-505.0019" y2="74.1541" gradientTransform="matrix(-1 0 0 -1 -480.4824 152)">
					<stop  offset="0" style="stop-color:#DB2A24"/>
					<stop  offset="1" style="stop-color:#A10600"/>
				</linearGradient>
				<path class="st29" d="M29.1,77.7c0.6,0,1.1-0.2,1.3-0.5c0.2-0.3,0.2-0.8-0.1-1.4l-5.1-10.4c-0.7-1.4-2.7-2.7-4.3-2.7h-0.2
					c-0.7,0-1.3,0.2-1.6,0.7c-0.4,0.5-0.5,1.1-0.4,1.7l1.7,9.8c0.3,1.5,1.7,2.7,3.2,2.7H29.1z"/>
				<g>
					<path class="st11" d="M23.8,67.8c0.1-0.4-0.3-1.6-1-1.2C22,67,21.3,66.4,21,66.3c-0.3-0.1-0.7,0.6-0.4,1.5
						C20.9,68.6,23.1,70.9,23.8,67.8z"/>
					<path class="st17" d="M23.6,67.8c0.1-0.4-0.3-1.5-0.9-1.1c-0.7,0.4-1.3-0.2-1.6-0.4c-0.3-0.1-0.7,0.6-0.4,1.4
						C21,68.5,23,70.7,23.6,67.8z"/>
					<path class="st18" d="M23.5,67.8c0.1-0.4-0.2-1.3-0.9-1s-1.2-0.2-1.5-0.3s-0.6,0.5-0.3,1.3C21.1,68.5,22.9,70.4,23.5,67.8z"/>
					<path class="st19" d="M23.4,67.8c0.1-0.3-0.2-1.2-0.8-0.9c-0.6,0.3-1.1-0.2-1.4-0.3c-0.3-0.1-0.6,0.5-0.3,1.2
						C21.2,68.4,22.9,70.2,23.4,67.8z"/>
					<path class="st20" d="M23.3,67.8c0.1-0.3-0.2-1.1-0.7-0.8c-0.5,0.3-1-0.2-1.2-0.3c-0.2-0.1-0.5,0.4-0.3,1.1
						C21.3,68.3,22.8,69.9,23.3,67.8z"/>
					<path class="st21" d="M23.2,67.7c0.1-0.3-0.2-1-0.6-0.8c-0.5,0.2-0.9-0.2-1.1-0.2s-0.5,0.4-0.3,0.9
						C21.4,68.2,22.7,69.7,23.2,67.7z"/>
					<path class="st22" d="M23,67.7c0.1-0.2-0.2-0.9-0.6-0.7c-0.4,0.2-0.8-0.1-1-0.2c-0.2-0.1-0.4,0.4-0.2,0.8
						C21.5,68.1,22.7,69.5,23,67.7z"/>
					<path class="st23" d="M22.9,67.7c0-0.2-0.1-0.8-0.5-0.6c-0.4,0.2-0.7-0.1-0.9-0.2c-0.2-0.1-0.4,0.3-0.2,0.7
						C21.6,68.1,22.6,69.2,22.9,67.7z"/>
					<path class="st24" d="M22.8,67.7c0-0.2-0.1-0.6-0.4-0.5c-0.3,0.2-0.6-0.1-0.7-0.2c-0.1-0.1-0.3,0.3-0.2,0.6
						C21.7,68,22.5,69,22.8,67.7z"/>
					<path class="st25" d="M22.7,67.7c0-0.1-0.1-0.5-0.3-0.4c-0.3,0.1-0.5-0.1-0.6-0.1c-0.1-0.1-0.3,0.2-0.1,0.5
						C21.7,67.9,22.5,68.7,22.7,67.7z"/>
					<path class="st26" d="M22.6,67.6c0-0.1-0.1-0.4-0.3-0.3c-0.2,0.1-0.4-0.1-0.5-0.1c-0.1,0-0.2,0.2-0.1,0.4
						C21.8,67.8,22.4,68.5,22.6,67.6z"/>
					<path class="st27" d="M22.5,67.6c0-0.1-0.1-0.3-0.2-0.2c-0.1,0.1-0.3,0-0.3-0.1c-0.1,0-0.1,0.1-0.1,0.3
						C21.9,67.8,22.3,68.2,22.5,67.6z"/>
				</g>
				<g>
					<path class="st11" d="M22,73.7c0,1.7,1.4,3.1,3.2,3.1c1.7,0,3.2-1.4,3.2-3.1s-1.4-3.1-3.2-3.1C23.5,70.7,22,72,22,73.7z"/>
					<path class="st17" d="M22.2,73.7c0,1.6,1.3,2.9,3,2.9s3-1.3,3-2.9s-1.3-2.9-3-2.9C23.6,70.9,22.2,72.1,22.2,73.7z"/>
					<path class="st18" d="M22.4,73.7c0,1.5,1.3,2.7,2.8,2.7c1.5,0,2.8-1.2,2.8-2.7S26.8,71,25.2,71C23.7,71,22.4,72.2,22.4,73.7z"
						/>
					<path class="st19" d="M22.6,73.7c0,1.4,1.2,2.5,2.6,2.5c1.4,0,2.6-1.1,2.6-2.5c0-1.4-1.2-2.5-2.6-2.5
						C23.8,71.2,22.6,72.3,22.6,73.7z"/>
					<path class="st20" d="M22.8,73.7c0,1.3,1.1,2.4,2.4,2.4c1.4,0,2.4-1.1,2.4-2.4s-1.1-2.4-2.4-2.4C23.8,71.4,22.8,72.4,22.8,73.7
						z"/>
					<path class="st21" d="M22.9,73.7c0,1.2,1,2.2,2.3,2.2c1.3,0,2.3-1,2.3-2.2c0-1.2-1-2.2-2.3-2.2C23.9,71.5,22.9,72.5,22.9,73.7z
						"/>
					<path class="st22" d="M23.1,73.7c0,1.1,0.9,2,2.1,2c1.2,0,2.1-0.9,2.1-2c0-1.1-0.9-2-2.1-2C24,71.7,23.1,72.6,23.1,73.7z"/>
					<path class="st23" d="M23.3,73.7c0,1,0.9,1.8,1.9,1.8s1.9-0.8,1.9-1.8c0-1-0.9-1.8-1.9-1.8S23.3,72.7,23.3,73.7z"/>
					<path class="st24" d="M23.5,73.7c0,0.9,0.8,1.7,1.7,1.7c1,0,1.7-0.8,1.7-1.7c0-0.9-0.8-1.7-1.7-1.7
						C24.2,72.1,23.5,72.8,23.5,73.7z"/>
					<path class="st25" d="M23.6,73.7c0,0.8,0.7,1.5,1.6,1.5c0.9,0,1.6-0.7,1.6-1.5c0-0.8-0.7-1.5-1.6-1.5
						C24.3,72.2,23.6,72.9,23.6,73.7z"/>
					<path class="st26" d="M23.8,73.7c0,0.7,0.6,1.3,1.4,1.3c0.8,0,1.4-0.6,1.4-1.3c0-0.7-0.6-1.3-1.4-1.3
						C24.4,72.4,23.8,73,23.8,73.7z"/>
					<path class="st27" d="M24,73.7c0,0.6,0.5,1.2,1.2,1.2c0.7,0,1.2-0.5,1.2-1.2c0-0.6-0.5-1.2-1.2-1.2C24.5,72.6,24,73.1,24,73.7z
						"/>
				</g>
			</g>
			
				<linearGradient id="SVGID_13_" gradientUnits="userSpaceOnUse" x1="74.2362" y1="84.3249" x2="74.2362" y2="82.4253" gradientTransform="matrix(1 0 0 -1 0 152)">
				<stop  offset="0" style="stop-color:#4A4A4A"/>
				<stop  offset="0.2272" style="stop-color:#383838"/>
				<stop  offset="1" style="stop-color:#000000"/>
			</linearGradient>
			<path class="st30" d="M78.9,68.5c0,0.5-2.1,0.9-4.6,0.9s-4.6-0.4-4.6-0.9c0-0.5,2.1-0.9,4.6-0.9S78.9,68,78.9,68.5z"/>
			
				<linearGradient id="SVGID_14_" gradientUnits="userSpaceOnUse" x1="73.711" y1="102.0869" x2="73.711" y2="95.2448" gradientTransform="matrix(1 0 0 -1 0 152)">
				<stop  offset="0" style="stop-color:#737373"/>
				<stop  offset="0.493" style="stop-color:#383838"/>
				<stop  offset="1" style="stop-color:#000000"/>
			</linearGradient>
			<polygon class="st31" points="132.4,56.1 15.1,56.1 21,49.7 126.4,49.7 			"/>
		</g>
	</g>
</g>
</svg>
