<?xml version="1.0" encoding="utf-8"?>
<!-- Generator: Adobe Illustrator 25.0.0, SVG Export Plug-In . SVG Version: 6.00 Build 0)  -->
<svg version="1.1" id="Layer_1" xmlns="http://www.w3.org/2000/svg" xmlns:xlink="http://www.w3.org/1999/xlink" x="0px" y="0px"
	 viewBox="0 0 150 150" style="enable-background:new 0 0 150 150;" xml:space="preserve">
<style type="text/css">
	.st0{fill:#90A0B2;}
</style>
<g id="Layer_2_5_">
	<g>
		<path class="st0" d="M139.44,53.16c-0.62-0.88-1.63-1.41-2.69-1.41h-20.54V43c0-1.81-1.5-3.31-3.31-3.31H38.47
			c-1.81,0-3.31,1.5-3.31,3.31v53.53c0,1.81,1.5,3.31,3.31,3.31h9.36c1.72,6.01,7.29,10.47,13.83,10.47s12.1-4.42,13.83-10.47h36.7
			c1.72,6.01,7.29,10.47,13.83,10.47s12.1-4.42,13.83-10.47h6.85c1.81,0,3.31-1.5,3.31-3.31V69.28c0-0.71-0.22-1.37-0.62-1.9
			L139.44,53.16z M143.42,70.25h-14.84V58.41h6.49L143.42,70.25z M41.78,46.36h67.8v46.91H75.8c-1.28-6.67-7.11-11.7-14.13-11.7
			s-12.9,5.04-14.13,11.7h-5.74L41.78,46.36L41.78,46.36z M61.66,103.69c-4.28,0-7.77-3.49-7.77-7.77c0-4.28,3.49-7.77,7.77-7.77
			s7.77,3.49,7.77,7.77C69.43,100.2,65.95,103.69,61.66,103.69z M126.06,103.69c-4.28,0-7.77-3.49-7.77-7.77
			c0-4.28,3.49-7.77,7.77-7.77s7.77,3.49,7.77,7.77C133.83,100.2,130.34,103.69,126.06,103.69z M140.19,93.26
			c-1.28-6.67-7.11-11.7-14.13-11.7c-3.8,0-7.29,1.5-9.85,3.93V58.41h5.7v15.15c0,1.81,1.5,3.31,3.31,3.31h18.24v16.39H140.19z"/>
		<path class="st0" d="M3.31,46.36h23.63c1.81,0,3.31-1.5,3.31-3.31c0-1.81-1.5-3.31-3.31-3.31H3.31C1.5,39.73,0,41.23,0,43.04
			C0,44.85,1.5,46.36,3.31,46.36z"/>
		<path class="st0" d="M26.94,51.79H8.75c-1.81,0-3.31,1.5-3.31,3.31c0,1.81,1.5,3.31,3.31,3.31h18.2c1.81,0,3.31-1.5,3.31-3.31
			C30.26,53.29,28.8,51.79,26.94,51.79z"/>
		<path class="st0" d="M26.94,63.85H15.46c-1.81,0-3.31,1.5-3.31,3.31c0,1.81,1.5,3.31,3.31,3.31h11.48c1.81,0,3.31-1.5,3.31-3.31
			C30.26,65.35,28.8,63.85,26.94,63.85z"/>
		<path class="st0" d="M26.94,75.91h-3.98c-1.81,0-3.31,1.5-3.31,3.31s1.5,3.31,3.31,3.31h3.98c1.81,0,3.31-1.5,3.31-3.31
			S28.8,75.91,26.94,75.91z"/>
	</g>
</g>
</svg>
