<svg width="137" height="19" viewBox="0 0 137 19" fill="none" xmlns="http://www.w3.org/2000/svg">
<path d="M14.0938 18H11.832V10.1133H3.23047V18H0.980469V0.9375H3.23047V8.27344H11.832V0.9375H14.0938V18ZM17.1758 11.543C17.1758 10.3008 17.418 9.18359 17.9023 8.19141C18.3945 7.19922 19.0742 6.43359 19.9414 5.89453C20.8164 5.35547 21.8125 5.08594 22.9297 5.08594C24.6562 5.08594 26.0508 5.68359 27.1133 6.87891C28.1836 8.07422 28.7188 9.66406 28.7188 11.6484V11.8008C28.7188 13.0352 28.4805 14.1445 28.0039 15.1289C27.5352 16.1055 26.8594 16.8672 25.9766 17.4141C25.1016 17.9609 24.0938 18.2344 22.9531 18.2344C21.2344 18.2344 19.8398 17.6367 18.7695 16.4414C17.707 15.2461 17.1758 13.6641 17.1758 11.6953V11.543ZM19.3555 11.8008C19.3555 13.207 19.6797 14.3359 20.3281 15.1875C20.9844 16.0391 21.8594 16.4648 22.9531 16.4648C24.0547 16.4648 24.9297 16.0352 25.5781 15.1758C26.2266 14.3086 26.5508 13.0977 26.5508 11.543C26.5508 10.1523 26.2188 9.02734 25.5547 8.16797C24.8984 7.30078 24.0234 6.86719 22.9297 6.86719C21.8594 6.86719 20.9961 7.29297 20.3398 8.14453C19.6836 8.99609 19.3555 10.2148 19.3555 11.8008ZM42.6641 15.0117L45.1016 5.32031H47.2695L43.5781 18H41.8203L38.7383 8.39062L35.7383 18H33.9805L30.3008 5.32031H32.457L34.9531 14.8125L37.9062 5.32031H39.6523L42.6641 15.0117ZM57.793 18H55.625V5.32031H57.793V18ZM55.4492 1.95703C55.4492 1.60547 55.5547 1.30859 55.7656 1.06641C55.9844 0.824219 56.3047 0.703125 56.7266 0.703125C57.1484 0.703125 57.4688 0.824219 57.6875 1.06641C57.9062 1.30859 58.0156 1.60547 58.0156 1.95703C58.0156 2.30859 57.9062 2.60156 57.6875 2.83594C57.4688 3.07031 57.1484 3.1875 56.7266 3.1875C56.3047 3.1875 55.9844 3.07031 55.7656 2.83594C55.5547 2.60156 55.4492 2.30859 55.4492 1.95703ZM64.2148 2.25V5.32031H66.582V6.99609H64.2148V14.8594C64.2148 15.3672 64.3203 15.75 64.5312 16.0078C64.7422 16.2578 65.1016 16.3828 65.6094 16.3828C65.8594 16.3828 66.2031 16.3359 66.6406 16.2422V18C66.0703 18.1562 65.5156 18.2344 64.9766 18.2344C64.0078 18.2344 63.2773 17.9414 62.7852 17.3555C62.293 16.7695 62.0469 15.9375 62.0469 14.8594V6.99609H59.7383V5.32031H62.0469V2.25H64.2148ZM86.3047 15.0117L88.7422 5.32031H90.9102L87.2188 18H85.4609L82.3789 8.39062L79.3789 18H77.6211L73.9414 5.32031H76.0977L78.5938 14.8125L81.5469 5.32031H83.293L86.3047 15.0117ZM92.5508 11.543C92.5508 10.3008 92.793 9.18359 93.2773 8.19141C93.7695 7.19922 94.4492 6.43359 95.3164 5.89453C96.1914 5.35547 97.1875 5.08594 98.3047 5.08594C100.031 5.08594 101.426 5.68359 102.488 6.87891C103.559 8.07422 104.094 9.66406 104.094 11.6484V11.8008C104.094 13.0352 103.855 14.1445 103.379 15.1289C102.91 16.1055 102.234 16.8672 101.352 17.4141C100.477 17.9609 99.4688 18.2344 98.3281 18.2344C96.6094 18.2344 95.2148 17.6367 94.1445 16.4414C93.082 15.2461 92.5508 13.6641 92.5508 11.6953V11.543ZM94.7305 11.8008C94.7305 13.207 95.0547 14.3359 95.7031 15.1875C96.3594 16.0391 97.2344 16.4648 98.3281 16.4648C99.4297 16.4648 100.305 16.0352 100.953 15.1758C101.602 14.3086 101.926 13.0977 101.926 11.543C101.926 10.1523 101.594 9.02734 100.93 8.16797C100.273 7.30078 99.3984 6.86719 98.3047 6.86719C97.2344 6.86719 96.3711 7.29297 95.7148 8.14453C95.0586 8.99609 94.7305 10.2148 94.7305 11.8008ZM112.941 7.26562C112.613 7.21094 112.258 7.18359 111.875 7.18359C110.453 7.18359 109.488 7.78906 108.98 9V18H106.812V5.32031H108.922L108.957 6.78516C109.668 5.65234 110.676 5.08594 111.98 5.08594C112.402 5.08594 112.723 5.14062 112.941 5.25V7.26562ZM118.484 12.1289L117.125 13.5469V18H114.957V0H117.125V10.8867L118.285 9.49219L122.234 5.32031H124.871L119.938 10.6172L125.445 18H122.902L118.484 12.1289ZM134.492 14.6367C134.492 14.0508 134.27 13.5977 133.824 13.2773C133.387 12.9492 132.617 12.668 131.516 12.4336C130.422 12.1992 129.551 11.918 128.902 11.5898C128.262 11.2617 127.785 10.8711 127.473 10.418C127.168 9.96484 127.016 9.42578 127.016 8.80078C127.016 7.76172 127.453 6.88281 128.328 6.16406C129.211 5.44531 130.336 5.08594 131.703 5.08594C133.141 5.08594 134.305 5.45703 135.195 6.19922C136.094 6.94141 136.543 7.89062 136.543 9.04688H134.363C134.363 8.45312 134.109 7.94141 133.602 7.51172C133.102 7.08203 132.469 6.86719 131.703 6.86719C130.914 6.86719 130.297 7.03906 129.852 7.38281C129.406 7.72656 129.184 8.17578 129.184 8.73047C129.184 9.25391 129.391 9.64844 129.805 9.91406C130.219 10.1797 130.965 10.4336 132.043 10.6758C133.129 10.918 134.008 11.207 134.68 11.543C135.352 11.8789 135.848 12.2852 136.168 12.7617C136.496 13.2305 136.66 13.8047 136.66 14.4844C136.66 15.6172 136.207 16.5273 135.301 17.2148C134.395 17.8945 133.219 18.2344 131.773 18.2344C130.758 18.2344 129.859 18.0547 129.078 17.6953C128.297 17.3359 127.684 16.8359 127.238 16.1953C126.801 15.5469 126.582 14.8477 126.582 14.0977H128.75C128.789 14.8242 129.078 15.4023 129.617 15.832C130.164 16.2539 130.883 16.4648 131.773 16.4648C132.594 16.4648 133.25 16.3008 133.742 15.9727C134.242 15.6367 134.492 15.1914 134.492 14.6367Z" fill="black"/>
</svg>
