<?xml version="1.0" encoding="utf-8"?>
<!-- Generator: Adobe Illustrator 25.0.0, SVG Export Plug-In . SVG Version: 6.00 Build 0)  -->
<svg version="1.1" id="Layer_1" xmlns="http://www.w3.org/2000/svg" xmlns:xlink="http://www.w3.org/1999/xlink" x="0px" y="0px"
	 viewBox="0 0 150 150" style="enable-background:new 0 0 150 150;" xml:space="preserve">
<style type="text/css">
	/* .st0{fill:#90A0B2;} */
</style>
<g id="Layer_1_1_">
	<g>
		<g>
			<g>
				<path class="st0" d="M76.22,119.61c-1.47,0-2.92-0.58-3.99-1.65L32.05,77.78c-1.55-1.55-2.06-3.86-1.32-5.92
					c3.41-9.39,8.1-18.25,13.94-26.34c3.28-4.63,7.14-9.17,11.44-13.47c23.32-23.32,55.49-34.8,88.28-31.49
					c2.67,0.27,4.78,2.38,5.05,5.05c3.3,32.79-8.17,64.96-31.49,88.27c-4.3,4.3-8.84,8.16-13.51,11.47
					c-8.05,5.82-16.91,10.51-26.3,13.91C77.51,119.5,76.86,119.61,76.22,119.61z M42.62,72.38l34.99,34.99
					c7.18-2.91,13.97-6.67,20.25-11.2c4.19-2.98,8.25-6.42,12.1-10.27c0,0,0,0,0,0c19.79-19.79,30.07-46.71,28.6-74.47
					c-27.75-1.47-54.67,8.8-74.47,28.6c-3.85,3.85-7.3,7.91-10.24,12.06C49.3,58.41,45.53,65.21,42.62,72.38z"/>
			</g>
		</g>
		<g>
			<g>
				<path class="st0" d="M79.31,150c-8.44,0-16.88-3.21-23.31-9.64c-5.41-5.41-8.79-12.6-9.51-20.23c-0.29-3.08,1.96-5.83,5.04-6.15
					c7.6-0.79,15.25-2.58,22.75-5.33c8.42-3.06,16.35-7.26,23.59-12.49c2.49-1.8,5.97-1.28,7.82,1.18
					c9.79,12.99,8.47,31.48-3.07,43.01C96.19,146.79,87.75,150,79.31,150z M58.9,124.38c1.06,2.98,2.78,5.69,5.08,8
					c8.45,8.45,22.2,8.45,30.65,0c6.27-6.27,7.95-15.67,4.7-23.55c-6.65,4.24-13.75,7.75-21.19,10.44
					C71.82,121.59,65.36,123.3,58.9,124.38z"/>
			</g>
			<g>
				<path class="st0" d="M30.41,103.54c-0.18,0-0.36-0.01-0.54-0.03c-7.63-0.72-14.82-4.1-20.23-9.51
					c-12.85-12.85-12.85-33.77,0-46.62c11.53-11.53,30.02-12.85,43.01-3.07c2.46,1.85,2.98,5.33,1.18,7.82
					c-5.23,7.24-9.43,15.17-12.48,23.57c-2.75,7.51-4.54,15.16-5.33,22.76C35.71,101.37,33.26,103.54,30.41,103.54z M32.96,49.05
					c-5.58,0-11.15,2.14-15.33,6.32c-8.45,8.45-8.45,22.2,0,30.65c2.3,2.3,5.01,4.02,8,5.08c1.08-6.46,2.79-12.92,5.11-19.26
					c2.69-7.42,6.19-14.52,10.44-21.17C38.55,49.58,35.75,49.05,32.96,49.05z"/>
			</g>
		</g>
		<g>
			<path class="st0" d="M106.35,60.22c-4.43,0-8.59-1.72-11.72-4.85c-6.46-6.46-6.46-16.98,0-23.44c3.13-3.13,7.29-4.85,11.72-4.85
				c4.43,0,8.59,1.72,11.72,4.85c6.46,6.46,6.46,16.98,0,23.44C114.94,58.5,110.78,60.22,106.35,60.22z M106.35,38.37
				c-1.41,0-2.74,0.55-3.73,1.55c-2.06,2.06-2.06,5.41,0,7.47c1,1,2.32,1.55,3.73,1.55c1.41,0,2.74-0.55,3.73-1.55
				c2.06-2.06,2.06-5.41,0-7.47C109.09,38.92,107.76,38.37,106.35,38.37z"/>
		</g>
	</g>
</g>
</svg>
