<?xml version="1.0" encoding="utf-8"?>
<!-- Generator: Adobe Illustrator 25.0.0, SVG Export Plug-In . SVG Version: 6.00 Build 0)  -->
<svg version="1.1" id="Layer_1" xmlns="http://www.w3.org/2000/svg" xmlns:xlink="http://www.w3.org/1999/xlink" x="0px" y="0px"
	 viewBox="0 0 150 150" style="enable-background:new 0 0 150 150;" xml:space="preserve">
<style type="text/css">
	.st0{fill:#90A0B2;}
</style>
<g id="Layer_2_7_">
	<path class="st0" d="M112.5,134.99c-5.3,0.06-10.39-2.06-14.1-5.85c-13.25-12.17-33.62-12.17-46.87,0c-7.7,7.77-20.23,7.82-28,0.12
		c-0.04-0.04-0.08-0.08-0.12-0.12C17.06,123.21,8.69,119.94,0,120v15c5.28-0.04,10.34,2.07,14.02,5.85
		c13.24,12.21,33.63,12.21,46.87,0c7.7-7.77,20.23-7.82,28-0.12c0.04,0.04,0.08,0.08,0.12,0.12c13.25,12.17,33.62,12.17,46.87,0
		c3.7-3.79,8.8-5.91,14.1-5.85v-15c-8.71-0.07-17.11,3.2-23.47,9.15C122.84,132.92,117.77,135.03,112.5,134.99z"/>
	<path class="st0" d="M112.5,105c-5.3,0.06-10.39-2.06-14.1-5.85c-13.25-12.17-33.62-12.17-46.87,0c-7.7,7.77-20.23,7.82-28,0.12
		c-0.04-0.04-0.08-0.08-0.12-0.12C17.06,93.21,8.69,89.94,0,90v15c5.28-0.04,10.34,2.07,14.02,5.85c13.24,12.21,33.63,12.21,46.87,0
		c7.7-7.77,20.23-7.82,28-0.12c0.04,0.04,0.08,0.08,0.12,0.12c13.25,12.17,33.62,12.17,46.87,0c3.7-3.79,8.8-5.91,14.1-5.85V90
		c-8.71-0.07-17.11,3.2-23.47,9.15C122.84,102.92,117.77,105.03,112.5,105z"/>
	<path class="st0" d="M22.5,82.5h105V75c0-28.99-23.5-52.5-52.5-52.5S22.5,46,22.5,75V82.5z"/>
	<rect x="67.5" y="0" class="st0" width="15" height="15"/>
	<rect x="19.85" y="19.8" transform="matrix(0.7071 -0.7071 0.7071 0.7071 -11.2931 27.3338)" class="st0" width="15" height="15"/>
	<rect x="0" y="67.5" class="st0" width="15" height="15"/>
	<rect x="135" y="67.5" class="st0" width="15" height="15"/>
	<rect x="115.2" y="19.84" transform="matrix(0.7071 -0.7071 0.7071 0.7071 16.6057 94.7715)" class="st0" width="15" height="15"/>
</g>
</svg>
