<svg xmlns="http://www.w3.org/2000/svg" width="214.257" height="214.257" viewBox="0 0 214.257 214.257">
    <path id="Path_7470" data-name="Path 7470" d="M216.257-137.716V47.973a14.326,14.326,0,0,1-14.284,14.284H151.98V-30.588h21.426V-59.155H151.98V-94.865a7.163,7.163,0,0,1,7.142-7.142h21.426v-28.568H151.623a28.27,28.27,0,0,0-28.21,28.21v43.208H101.987v28.568h21.426V62.257H16.284A14.326,14.326,0,0,1,2,47.973V-137.716A14.326,14.326,0,0,1,16.284-152H201.973A14.326,14.326,0,0,1,216.257-137.716Z" transform="translate(-2 152)" fill="#4267b2"/>
</svg>
