<svg xmlns="http://www.w3.org/2000/svg" width="247.988" height="247.988" viewBox="0 0 247.988 247.988">
    <g id="Group_3065" data-name="Group 3065" transform="translate(0)">
        <path id="Path_7471" data-name="Path 7471" d="M336.988,64.99a31.09,31.09,0,0,1-31,31H120a31.09,31.09,0,0,1-31-31V-121a31.09,31.09,0,0,1,31-31H305.99a31.09,31.09,0,0,1,31,31Z" transform="translate(-89 152)" fill="#9100eb"/>
        <g id="Group_3064" data-name="Group 3064" transform="translate(30.999 30.999)">
            <g id="Group_3061" data-name="Group 3061">
                <path id="Path_7472" data-name="Path 7472" d="M232.116,41.491H146.87A50.427,50.427,0,0,1,96.5-8.879V-94.125A50.428,50.428,0,0,1,146.87-144.5h85.246a50.429,50.429,0,0,1,50.375,50.375V-8.879A50.428,50.428,0,0,1,232.116,41.491ZM146.87-129A34.912,34.912,0,0,0,112-94.125V-8.879A34.912,34.912,0,0,0,146.87,25.992h85.246A34.913,34.913,0,0,0,266.992-8.879V-94.125A34.913,34.913,0,0,0,232.116-129Z" transform="translate(-96.5 144.5)" fill="#fff"/>
            </g>
            <g id="Group_3062" data-name="Group 3062" transform="translate(46.498 46.498)">
                <path id="Path_7473" data-name="Path 7473" d="M154.248-40.254a46.552,46.552,0,0,1-46.5-46.5,46.552,46.552,0,0,1,46.5-46.5,46.552,46.552,0,0,1,46.5,46.5A46.552,46.552,0,0,1,154.248-40.254Zm0-77.5a31.036,31.036,0,0,0-31,31,31.036,31.036,0,0,0,31,31,31.036,31.036,0,0,0,31-31A31.036,31.036,0,0,0,154.248-117.751Z" transform="translate(-107.75 133.25)" fill="#fff"/>
            </g>
            <g id="Group_3063" data-name="Group 3063" transform="translate(131.744 32.936)">
                <circle id="Ellipse_224" data-name="Ellipse 224" cx="10.656" cy="10.656" r="10.656" fill="#fff"/>
            </g>
        </g>
    </g>
</svg>
