<?xml version="1.0" encoding="utf-8"?>
<!-- Generator: Adobe Illustrator 24.0.1, SVG Export Plug-In . SVG Version: 6.00 Build 0)  -->
<svg version="1.1" id="Layer_1" xmlns="http://www.w3.org/2000/svg" xmlns:xlink="http://www.w3.org/1999/xlink" x="0px" y="0px"
	 viewBox="0 0 200 200" style="enable-background:new 0 0 200 200;" xml:space="preserve">
<style type="text/css">
	.st0{fill:#5BDB98;}
</style>
<path class="st0" d="M187.94,130.88c-0.85,0-1.7,0.11-2.53,0.32c-14.75,3.71-31.64,7.62-45.05,8.46c-0.65,0.04-1.47,0.06-2.43,0.06
	c-10.22,0-26.38-1.89-29.31-3.42c-2.07-1.08-3.38-2.42-4.21-3.71h23.23c5.84,0,10.65-3.33,12.26-8.05h46.49
	c6.08,0,11.03-4.95,11.03-11.03V29.65c0-6.08-4.95-11.03-11.03-11.03H89.85c-6.08,0-11.03,4.95-11.03,11.03v70.91
	c-10.03,0.34-23.88,3.23-32.7,10.51c-3.54,2.93-6.1,4.92-8.15,6.53c-1.33,1.04-2.47,1.93-3.55,2.82c-4.35,3.58-8.12,6.66-29.85,6.66
	c-2.58,0-4.68,2.09-4.68,4.68v44.94c0,1.52,0.74,2.95,1.98,3.82c0.8,0.56,1.74,0.85,2.69,0.85c0.53,0,1.06-0.09,1.58-0.27
	c18.54-6.64,21.85-7.6,29.83-9.94l0.72-0.21c0.66-0.19,1.31-0.39,1.94-0.58c3.68-1.12,6.59-2.01,12.05-2.01
	c5.97,0,14.1,1.07,25.57,3.37c22.45,4.5,33.26,6.47,42.61,6.47h0c5.43,0,10.38-0.64,16.79-1.54c13.36-1.88,39.64-10.65,53.04-17.71
	c4.27-2.25,11.41-6.01,11.41-14.03v-0.3C200.11,138.12,195.11,130.88,187.94,130.88z M127.43,27.98h21.4v38.87h-21.4V27.98z
	 M89.85,27.98h28.22v43.55c0,2.58,2.09,4.68,4.68,4.68h30.75c2.58,0,4.68-2.09,4.68-4.68V27.98h28.22c0.92,0,1.67,0.75,1.67,1.67
	v83.85c0,0.92-0.75,1.67-1.67,1.67h-46.34c-1.32-5.48-5.85-9.38-11.64-9.75c-5.6-0.36-14.5-1.44-23.11-2.49
	c-6.29-0.76-12.29-1.49-17.13-1.96V29.65C88.18,28.73,88.93,27.98,89.85,27.98z M190.75,144.92c0,1.82-1.5,3.16-6.41,5.75
	c-12.44,6.55-37.67,14.99-49.99,16.73c-6.03,0.85-10.67,1.45-15.49,1.45c-8.04,0-17.23-1.57-40.77-6.29
	c-12.09-2.42-20.8-3.55-27.4-3.55c-6.86,0-10.89,1.23-14.78,2.42c-0.6,0.18-1.21,0.37-1.84,0.55l-0.72,0.21
	c-7.17,2.1-10.65,3.12-24.1,7.88v-33.68c19.51-0.45,25.1-3.8,31.11-8.74c0.99-0.81,2.1-1.68,3.38-2.68c2.1-1.64,4.71-3.68,8.35-6.69
	c7.03-5.81,19.5-8.4,28.74-8.4c1.06,0,2.07,0.04,3,0.11c5.05,0.39,12.48,1.29,20.36,2.25c8.74,1.06,17.78,2.16,23.63,2.54
	c1.86,0.12,3.11,1.4,3.27,3.32c0.02,0.32,0.05,1.82,0.05,2.97c0,1.49-2.08,2.18-3.49,2.18H98.31c-2.49,0-4.55,1.96-4.67,4.45
	c-0.02,0.45-0.42,11.11,10.64,16.9c6.02,3.16,26.51,4.49,33.65,4.49c1.16,0,2.17-0.03,3.01-0.08c14.17-0.88,31.58-4.91,46.75-8.72
	c0.09-0.02,0.17-0.03,0.25-0.03c1.06,0,2.81,2.12,2.81,4.38L190.75,144.92L190.75,144.92z"/>
</svg>
