<?xml version="1.0" encoding="utf-8"?>
<!-- Generator: Adobe Illustrator 25.0.0, SVG Export Plug-In . SVG Version: 6.00 Build 0)  -->
<svg version="1.1" id="Layer_1" xmlns="http://www.w3.org/2000/svg" xmlns:xlink="http://www.w3.org/1999/xlink" x="0px" y="0px"
	 viewBox="0 0 150 150" style="enable-background:new 0 0 150 150;" xml:space="preserve">
<style type="text/css">
	.st0{fill:#5BDB98;}
</style>
<path class="st0" d="M62.07,145.61H26.15c-7.21,0-13.08-5.87-13.08-13.08V33.81c0-7.21,5.87-13.08,13.08-13.08h20.56v3.27
	c0,10.82,8.8,19.61,19.61,19.61c10.81,0,19.61-8.8,19.61-19.61v-3.27h20.59c7.21,0,13.08,5.87,13.08,13.08v53.07
	c0,3.61,2.93,6.54,6.54,6.54c3.61,0,6.54-2.93,6.54-6.54V33.81c0-14.42-11.73-26.15-26.15-26.15H85.93v-9.81
	c0-3.61-2.93-6.54-6.54-6.54H53.25c-3.61,0-6.54,2.93-6.54,6.54v9.81H26.15C11.73,7.66,0,19.39,0,33.81v98.72
	c0,14.42,11.73,26.15,26.15,26.15h35.92c3.61,0,6.54-2.93,6.54-6.54S65.68,145.61,62.07,145.61z M59.78,4.39h13.08v19.61
	c0,3.6-2.93,6.54-6.54,6.54c-3.6,0-6.54-2.93-6.54-6.54V4.39z M110.45,79.58c-21.81,0-39.55,17.74-39.55,39.55
	s17.74,39.55,39.55,39.55c21.81,0,39.55-17.74,39.55-39.55S132.26,79.58,110.45,79.58z M110.45,145.61
	c-14.6,0-26.48-11.88-26.48-26.48s11.88-26.48,26.48-26.48s26.48,11.88,26.48,26.48S125.05,145.61,110.45,145.61z M126.46,119.13
	c0,3.61-2.93,6.54-6.54,6.54h-9.48c-3.61,0-6.54-2.93-6.54-6.54v-13.4c0-3.61,2.93-6.54,6.54-6.54c3.61,0,6.54,2.93,6.54,6.54v6.86
	h2.94C123.54,112.59,126.46,115.52,126.46,119.13z"/>
</svg>
