<?xml version="1.0" encoding="utf-8"?>
<!-- Generator: Adobe Illustrator 25.0.0, SVG Export Plug-In . SVG Version: 6.00 Build 0)  -->
<svg version="1.1" id="Layer_1" xmlns="http://www.w3.org/2000/svg" xmlns:xlink="http://www.w3.org/1999/xlink" x="0px" y="0px"
	 viewBox="0 0 150 150" style="enable-background:new 0 0 150 150;" xml:space="preserve">
<style type="text/css">
	.st0{fill:none;}
	.st1{fill:#60E99C;}
</style>
<path id="Path_2433" class="st0" d="M0,0h151v151H0V0z"/>
<path id="Path_2434" class="st1" d="M125.84,50.34h-18.88V25.17H18.88c-6.95,0-12.58,5.63-12.58,12.58l0,0v69.21h12.58
	c0,10.42,8.45,18.88,18.87,18.88s18.88-8.45,18.88-18.88h37.75c0,10.42,8.45,18.88,18.88,18.88s18.88-8.45,18.88-18.88h12.58V75.5
	L125.84,50.34z M37.75,116.4c-5.21,0-9.44-4.23-9.44-9.44s4.23-9.44,9.44-9.44s9.44,4.23,9.44,9.44c0.01,5.21-4.21,9.43-9.42,9.44
	C37.76,116.4,37.76,116.4,37.75,116.4z M122.69,59.77l12.36,15.73h-28.09V59.77H122.69z M113.25,116.4c-5.21,0-9.44-4.23-9.44-9.44
	s4.23-9.44,9.44-9.44s9.44,4.23,9.44,9.44c0.01,5.21-4.21,9.43-9.42,9.44C113.26,116.4,113.26,116.4,113.25,116.4z"/>
</svg>
