<?xml version="1.0" encoding="utf-8"?>
<!-- Generator: Adobe Illustrator 25.0.0, SVG Export Plug-In . SVG Version: 6.00 Build 0)  -->
<svg version="1.1" id="Layer_1" xmlns="http://www.w3.org/2000/svg" xmlns:xlink="http://www.w3.org/1999/xlink" x="0px" y="0px"
	 viewBox="0 0 150 150" style="enable-background:new 0 0 150 150;" xml:space="preserve">
<style type="text/css">
	.st0{fill:#FFFFFF;}
</style>
<g>
	<path class="st0" d="M143.01,127.36c-1.21-0.01-2.39-0.39-3.37-1.1L61.74,70.64l-77.91,55.61c-2.76,1.63-6.32,0.72-7.95-2.04
		c-1.44-2.43-0.92-5.53,1.22-7.37L58.37,58.8c2.02-1.43,4.72-1.43,6.73,0l81.27,58.05c2.6,1.88,3.18,5.51,1.3,8.11
		C146.59,126.46,144.86,127.35,143.01,127.36z"/>
	<path class="st0" d="M-2.12,92.53c-3.21,0-5.81-2.6-5.81-5.81V63.5c0-3.21,2.6-5.81,5.81-5.81H21.1c3.21,0,5.81,2.6,5.81,5.81
		c0,3.21-2.6,5.81-5.81,5.81H3.69v17.42C3.69,89.93,1.09,92.53-2.12,92.53z"/>
	<path class="st0" d="M113.99,208.63H84.96c-3.21,0-5.81-2.6-5.81-5.81v-40.64H44.32v40.64c0,3.21-2.6,5.81-5.81,5.81H9.49
		c-9.62,0-17.42-7.8-17.42-17.42v-58.05c0-3.21,2.6-5.81,5.81-5.81s5.81,2.6,5.81,5.81v58.05c0,3.21,2.6,5.81,5.81,5.81h23.22
		v-40.64c0-3.21,2.6-5.81,5.81-5.81h46.44c3.21,0,5.81,2.6,5.81,5.81v40.64h23.22c3.21,0,5.81-2.6,5.81-5.81v-58.05
		c0-3.21,2.6-5.81,5.81-5.81s5.81,2.6,5.81,5.81v58.05C131.4,200.84,123.6,208.63,113.99,208.63z"/>
</g>
</svg>
