<?xml version="1.0" encoding="utf-8"?>
<!-- Generator: Adobe Illustrator 24.0.1, SVG Export Plug-In . SVG Version: 6.00 Build 0)  -->
<svg version="1.1" id="Layer_1" xmlns="http://www.w3.org/2000/svg" xmlns:xlink="http://www.w3.org/1999/xlink" x="0px" y="0px"
	 viewBox="0 0 150 150" style="enable-background:new 0 0 150 150;" xml:space="preserve">
<style type="text/css">
	.st0{fill:#5BDB98;}
</style>
<path class="st0" d="M58.13,29.79H12.77c-2.91,0-5.27-2.36-5.27-5.27v0c0-2.91,2.36-5.27,5.27-5.27h45.35
	c2.91,0,5.27,2.36,5.27,5.27v0C63.4,27.43,61.04,29.79,58.13,29.79z M47.58,40.34h-34.8c-2.91,0-5.27,2.36-5.27,5.27v0
	c0,2.91,2.36,5.27,5.27,5.27h34.8c2.91,0,5.27-2.36,5.27-5.27v0C52.85,42.7,50.49,40.34,47.58,40.34z M37.03,61.43H12.77
	c-2.91,0-5.27,2.36-5.27,5.27v0c0,2.91,2.36,5.27,5.27,5.27h24.26c2.91,0,5.27-2.36,5.27-5.27v0C42.3,63.8,39.94,61.43,37.03,61.43z
	 M132.93,120.23H120.5c-2.18,6.14-8.04,10.55-14.91,10.55s-12.74-4.41-14.91-10.55H58.01c-2.18,6.14-8.04,10.55-14.91,10.55
	s-12.74-4.41-14.91-10.55h-4.86c-8.74,0-15.82-7.08-15.82-15.82V87.8c0-2.91,2.36-5.27,5.27-5.27h0c2.91,0,5.27,2.36,5.27,5.27
	v16.61c0,2.91,2.36,5.27,5.27,5.27h4.86c2.18-6.14,8.04-10.55,14.91-10.55s12.74,4.41,14.91,10.55h31.76V35.04
	c0-2.91-2.36-5.27-5.27-5.27h-5.27c-2.91,0-5.27-2.36-5.27-5.27v0c0-2.91,2.36-5.27,5.27-5.27h5.27c8.74,0,15.82,7.08,15.82,15.82
	v10.57h10.57c4.96,0,9.64,2.33,12.63,6.29l14.74,19.52c2.76,3.66,4.26,8.12,4.26,12.71v26.52
	C142.5,115.95,138.21,120.23,132.93,120.23z M100.31,56.16v19.78h28.12l-13.34-17.68c-0.99-1.31-2.56-2.1-4.21-2.1H100.31z
	 M48.37,114.96c0-2.91-2.37-5.27-5.27-5.27s-5.27,2.36-5.27,5.27c0,2.91,2.37,5.27,5.27,5.27S48.37,117.87,48.37,114.96z
	 M110.86,114.96c0-2.91-2.37-5.27-5.27-5.27s-5.27,2.36-5.27,5.27c0,2.91,2.37,5.27,5.27,5.27S110.86,117.87,110.86,114.96z
	 M131.95,106.88v-20.4h-31.64v13.56c1.65-0.59,3.42-0.91,5.27-0.91c6.88,0,12.74,4.41,14.91,10.55h8.65
	C130.7,109.69,131.95,108.43,131.95,106.88z"/>
</svg>
