<?xml version="1.0" encoding="utf-8"?>
<!-- Generator: Adobe Illustrator 25.0.0, SVG Export Plug-In . SVG Version: 6.00 Build 0)  -->
<svg version="1.1" id="Layer_1" xmlns="http://www.w3.org/2000/svg" xmlns:xlink="http://www.w3.org/1999/xlink" x="0px" y="0px"
	 viewBox="0 0 150 150" style="enable-background:new 0 0 150 150;" xml:space="preserve">
<style type="text/css">
	.st0{fill:#5BDB98;}
</style>
<g id="Icons">
	<g>
		<path class="st0" d="M75,45.17c-16.47,0-29.83,13.36-29.83,29.83S58.52,104.83,75,104.83c16.47,0,29.83-13.36,29.83-29.83
			S91.47,45.17,75,45.17z M75,89.83c-8.18,0-14.83-6.65-14.83-14.83S66.82,60.17,75,60.17S89.83,66.82,89.83,75
			S83.18,89.83,75,89.83z"/>
		<path class="st0" d="M150,82.5v-15h-15.52c-1.36-10.95-5.68-20.95-12.13-29.25l10.98-10.98l-10.6-10.61l-10.98,10.98
			c-8.29-6.45-18.3-10.75-29.25-12.13V0h-15v15.52c-10.95,1.37-20.95,5.68-29.25,12.13L27.27,16.67l-10.6,10.6l10.98,10.98
			c-6.45,8.29-10.75,18.3-12.13,29.25H0v15h15.52c1.37,10.95,5.68,20.96,12.13,29.25l-10.98,10.98l10.6,10.61l10.98-10.98
			c8.29,6.44,18.31,10.76,29.25,12.13V150h15v-15.52c10.95-1.36,20.96-5.68,29.25-12.13l10.98,10.98l10.6-10.61l-10.98-10.98
			c6.44-8.3,10.76-18.31,12.13-29.25H150z M75,120c-24.81,0-45-20.19-45-45s20.19-45,45-45s45,20.19,45,45S99.81,120,75,120z"/>
	</g>
</g>
</svg>
