<?xml version="1.0" encoding="utf-8"?>
<!-- Generator: Adobe Illustrator 25.0.0, SVG Export Plug-In . SVG Version: 6.00 Build 0)  -->
<svg version="1.1" id="Layer_1" xmlns="http://www.w3.org/2000/svg" xmlns:xlink="http://www.w3.org/1999/xlink" x="0px" y="0px"
	 viewBox="0 0 150 150" style="enable-background:new 0 0 150 150;" xml:space="preserve">
<style type="text/css">
	.st0{fill:#5BDB98;}
</style>
<g>
	<path class="st0" d="M150,128.43V45.09c0-12.23-10.84-22.19-24.18-22.19h-6.62v-1.33c0-12.24-10.84-22.19-24.18-22.19h-8.93H34.9
		H24.18C10.85-0.63,0,9.33,0,21.57v83.35c0,12.23,10.85,22.19,24.18,22.19h6.62v1.33c0,12.24,10.85,22.19,24.18,22.19h10.72h51.18
		h4.6h4.33C139.16,150.63,150,140.67,150,128.43z M116.89,143.36H65.71H54.98c-8.99,0-16.27-6.68-16.27-14.93v-1.33v-7.26V45.09
		c0-8.24,7.28-14.93,16.27-14.93h10.72h45.57h5.61h2.31h6.62c8.99,0,16.27,6.68,16.27,14.93v83.35c0,8.24-7.28,14.93-16.27,14.93
		h-4.33H116.89z"/>
	<path class="st0" d="M52.28,59.08h62.94c1.74,0,3.15-1.41,3.15-3.15s-1.41-3.15-3.15-3.15H52.28c-1.74,0-3.15,1.41-3.15,3.15
		S50.54,59.08,52.28,59.08z"/>
	<path class="st0" d="M62.22,77.31c0,1.74,1.41,3.15,3.15,3.15h58.98c1.74,0,3.15-1.41,3.15-3.15s-1.41-3.15-3.15-3.15H65.37
		C63.64,74.16,62.22,75.57,62.22,77.31z"/>
	<path class="st0" d="M110.7,98.69c0-1.74-1.41-3.15-3.15-3.15H52.28c-1.74,0-3.15,1.41-3.15,3.15s1.41,3.15,3.15,3.15h55.28
		C109.29,101.84,110.7,100.43,110.7,98.69z"/>
	<path class="st0" d="M127.5,120.07c0-1.74-1.41-3.15-3.15-3.15h-51.8c-1.74,0-3.15,1.41-3.15,3.15c0,1.74,1.41,3.15,3.15,3.15h51.8
		C126.09,123.22,127.5,121.81,127.5,120.07z"/>
</g>
</svg>
