<?xml version="1.0" encoding="utf-8"?>
<!-- Generator: Adobe Illustrator 25.0.0, SVG Export Plug-In . SVG Version: 6.00 Build 0)  -->
<svg version="1.1" id="Layer_1" xmlns="http://www.w3.org/2000/svg" xmlns:xlink="http://www.w3.org/1999/xlink" x="0px" y="0px"
	 viewBox="0 0 450 300" style="enable-background:new 0 0 450 300;" xml:space="preserve">
<style type="text/css">
	.st0{clip-path:url(#SVGID_2_);}
	.st1{fill:#FAFAFA;}
	.st2{fill:#FFEBD4;}
	.st3{fill:#FCFCFC;}
	.st4{fill:url(#SVGID_3_);}
	.st5{fill:#F5D9D0;}
	.st6{fill:#F5A48C;}
	.st7{fill:url(#SVGID_4_);}
	.st8{fill:url(#SVGID_5_);}
	.st9{fill:url(#SVGID_6_);}
	.st10{fill:url(#SVGID_7_);}
	.st11{opacity:0.38;fill:url(#SVGID_8_);}
	.st12{opacity:0.38;fill:url(#SVGID_9_);}
	.st13{opacity:0.38;fill:url(#SVGID_10_);}
	.st14{fill:url(#SVGID_11_);}
	.st15{fill:url(#SVGID_12_);}
	.st16{fill:url(#SVGID_13_);}
	.st17{fill:#3D8ED1;}
	.st18{fill:#B8B8B8;}
	.st19{opacity:0.18;fill:url(#SVGID_14_);}
	.st20{fill:url(#SVGID_15_);}
	.st21{fill:url(#SVGID_16_);}
	.st22{fill:url(#SVGID_17_);}
	.st23{fill:url(#SVGID_18_);}
	.st24{fill:url(#SVGID_19_);}
	.st25{fill:#51578F;}
	.st26{fill:url(#SVGID_20_);}
	.st27{fill:#454A7A;}
	.st28{fill:#51BE8F;}
	.st29{fill:#5BDB98;}
	.st30{fill:url(#SVGID_21_);}
	.st31{fill:url(#SVGID_22_);}
	.st32{fill:url(#SVGID_23_);}
	.st33{fill:url(#SVGID_24_);}
	.st34{fill:url(#SVGID_25_);}
	.st35{fill:url(#SVGID_26_);}
	.st36{fill:url(#SVGID_27_);}
	.st37{fill:url(#SVGID_28_);}
	.st38{fill:#CFD2E3;}
	.st39{fill:url(#SVGID_29_);}
	.st40{fill:url(#SVGID_30_);}
	.st41{fill:#F55C2C;}
	.st42{fill:url(#SVGID_31_);}
	.st43{fill:url(#SVGID_32_);}
	.st44{fill:url(#SVGID_33_);}
	.st45{fill:url(#SVGID_34_);}
	.st46{fill:url(#SVGID_35_);}
	.st47{fill:url(#SVGID_36_);}
	.st48{fill:url(#SVGID_37_);}
</style>
<g>
	<defs>
		<circle id="SVGID_1_" cx="225" cy="150" r="225"/>
	</defs>
	<clipPath id="SVGID_2_">
		<use xlink:href="#SVGID_1_"  style="overflow:visible;"/>
	</clipPath>
	<g class="st0">
		<rect x="-2.5" y="-78.73" class="st1" width="656.05" height="455.57"/>
		<polygon class="st2" points="653.54,118.7 653.54,373.37 -0.57,373.37 -0.57,176.7 8.49,176.7 8.49,127.03 34.92,127.03 
			34.92,152.33 60.58,152.33 70.73,164.14 81.03,164.14 81.03,102.93 104.73,102.93 104.73,118.7 124.84,118.7 124.84,149.15 
			151.86,149.15 151.86,110.94 173.19,110.94 173.19,127.02 184.27,127.02 193.87,115.85 204.79,115.85 204.79,78.81 235.32,78.81 
			235.32,133.78 266.53,133.78 266.53,147.03 278.63,147.03 278.63,127.03 324.74,127.03 324.74,149.15 342.38,149.15 342.38,118.7 
			369.28,118.7 369.28,164.14 370.85,164.14 370.85,102.93 394.56,102.93 394.56,118.7 414.66,118.7 414.66,149.15 441.67,149.15 
			441.67,110.94 463,110.94 463,127.02 474.1,127.02 483.7,115.85 494.61,115.85 494.61,78.81 525.13,78.81 525.13,133.78 
			556.36,133.78 556.36,147.03 568.45,147.03 568.45,127.03 592.73,127.03 592.73,149.15 632.19,149.15 632.19,118.7 		"/>
		<rect y="212.76" class="st3" width="654.13" height="116.55"/>
		<linearGradient id="SVGID_3_" gradientUnits="userSpaceOnUse" x1="325.5134" y1="171.7686" x2="325.5134" y2="239.7533">
			<stop  offset="0" style="stop-color:#F9F2E8"/>
			<stop  offset="1" style="stop-color:#FFF7F5"/>
		</linearGradient>
		<polygon class="st4" points="-2.51,211.1 -2.51,155.3 38.23,155.3 38.23,178.05 65.19,178.05 73.41,186.28 162.85,186.28 
			176.76,172.36 204.86,172.36 204.86,149 229.42,149 229.42,180.5 274.66,180.5 292.09,163.07 348.03,163.07 348.03,192.45 
			372.88,192.45 384.98,180.35 415.58,180.35 424.25,189.01 462.14,189.01 462.14,156.45 489.09,156.45 489.09,167.2 510.45,167.2 
			510.45,144.41 530.05,144.41 530.05,178.85 585.01,178.85 590.15,183.99 653.54,183.99 653.54,211.1 		"/>
		<g>
			<g>
				<path class="st5" d="M609.31,152.36c1.45-0.5,4.71-0.38,4.71-0.38c-0.68-0.49-1.86-0.53-2.95-0.43
					c2.94-1.43,5.43-3.05,5.43-3.05c-1.62-0.17-5.17,1-6.89,1.77c1.51-0.91,3.56-1.71,2.43-1.91c-1.5-0.27-3.59,2.1-4.14,2.69
					c1.76-4.46,2.8-9.09,2.8-9.09c-1.61,1.26-3.75,5.3-4.72,7.65c-0.3-1.89-0.95-4.26-2.36-4.96c0,0-0.44,1.14,0.61,4.28
					c0.25,0.76,0.49,1.46,0.7,2.06c-0.76-0.58-1.82-1.14-2.57-1.05c-1.5,0.17,0.55,0.45,1.16,0.94c0.1,0.08,0.21,0.18,0.33,0.27
					c-0.73-0.15-1.65-0.21-2.38,0.14c-1.42,0.69,2.24-0.02,3.06,0.4l0,0c0.16,0.11,0.32,0.21,0.49,0.29
					c-0.04,0.01-0.08,0.03-0.11,0.04c-1.91-0.23-5.34-0.51-8.02,0.97c-2.87,1.58,2.65,0.14,6.74-0.1c-1.38,0.55-2.94,1.46-3.68,2.94
					c0,0,1.92,0,3.58-1.31c0.54-0.42,1.1-0.78,1.62-1.06c0,0.01,0,0.02,0,0.04c-1.17,1.53-2.86,4.04-2.78,5.65
					c0,0,1.36-0.41,2.51-1.75c0.24-0.28,0.49-0.67,0.73-1.13c-0.23,1.84-0.28,4.1,0.44,5.79c1.45,3.38,1.58-2.22,1.75-3.32
					c0.08-0.52,0.16-2.54,0.03-4.21c0.02,0.08,0.04,0.15,0.07,0.23c-0.04,2.19,1.4,7.93,1.42,5.73c0.01-0.84-0.17-1.85-0.4-2.82
					c0.04,0.08,0.08,0.15,0.11,0.2c0.54,0.82,2.43,4.89,2.02,0.87c-0.13-1.31-0.53-2.48-1.01-3.46c1.99,1.43,3.67,3.73,3.89,3.44
					c0.26-0.35,0-1.4-0.87-2.88c-0.23-0.38-0.66-0.78-1.17-1.14c2.52,0.94,4.94,3,2.93,0.79c-0.41-0.45-0.87-0.79-1.36-1.05
					c1.71,0.2,2.99,0.33,2.99,0.33C616,153.88,612.15,152.94,609.31,152.36z M607.81,151.45c-0.03,0.03-0.07,0.06-0.1,0.08
					c0.03-0.08,0.06-0.15,0.09-0.23C607.8,151.34,607.8,151.4,607.81,151.45z"/>
				<g>
					<path class="st5" d="M607.64,211.1l-1.01-0.04c0.02-0.35,1.51-34.73,1.51-39.01c0-4.26-1.45-17.88-1.47-18.02l1-0.11
						c0.06,0.56,1.47,13.81,1.47,18.12C609.15,176.35,607.66,210.76,607.64,211.1z"/>
				</g>
			</g>
			<g>
				<path class="st5" d="M495.47,138.71c1.79-0.61,5.81-0.47,5.81-0.47c-0.84-0.61-2.29-0.66-3.63-0.53
					c3.63-1.76,6.69-3.76,6.69-3.76c-1.99-0.21-6.37,1.23-8.49,2.19c1.86-1.12,4.39-2.11,2.99-2.36c-1.85-0.33-4.43,2.59-5.1,3.31
					c2.16-5.49,3.45-11.21,3.45-11.21c-1.98,1.55-4.62,6.53-5.82,9.43c-0.37-2.33-1.18-5.24-2.9-6.11c0,0-0.54,1.4,0.75,5.27
					c0.31,0.93,0.6,1.8,0.86,2.53c-0.94-0.71-2.24-1.4-3.16-1.3c-1.84,0.22,0.68,0.55,1.43,1.16c0.13,0.1,0.26,0.22,0.4,0.33
					c-0.89-0.18-2.03-0.26-2.93,0.17c-1.75,0.85,2.76-0.03,3.77,0.49l0,0c0.2,0.14,0.4,0.26,0.6,0.36
					c-0.05,0.02-0.09,0.03-0.14,0.05c-2.35-0.28-6.58-0.63-9.88,1.19c-3.54,1.95,3.26,0.18,8.31-0.12c-1.7,0.67-3.63,1.8-4.54,3.63
					c0,0,2.36,0,4.41-1.61c0.66-0.52,1.36-0.96,2-1.3c0,0.01,0,0.03,0,0.04c-1.44,1.89-3.52,4.98-3.43,6.96c0,0,1.67-0.5,3.1-2.15
					c0.29-0.34,0.6-0.83,0.89-1.39c-0.28,2.27-0.34,5.06,0.54,7.13c1.78,4.16,1.95-2.74,2.15-4.1c0.09-0.64,0.2-3.14,0.04-5.19
					c0.03,0.09,0.05,0.19,0.08,0.28c-0.05,2.7,1.73,9.78,1.75,7.06c0.01-1.03-0.21-2.28-0.5-3.47c0.05,0.1,0.1,0.19,0.14,0.25
					c0.67,1,2.99,6.03,2.49,1.07c-0.16-1.61-0.65-3.05-1.24-4.27c2.46,1.76,4.52,4.59,4.79,4.23c0.32-0.43,0-1.72-1.08-3.55
					c-0.28-0.47-0.81-0.95-1.45-1.41c3.11,1.16,6.09,3.69,3.62,0.98c-0.5-0.55-1.07-0.97-1.68-1.3c2.11,0.25,3.68,0.4,3.68,0.4
					C503.71,140.59,498.97,139.43,495.47,138.71z M493.62,137.59c-0.04,0.03-0.08,0.07-0.13,0.1c0.04-0.1,0.08-0.19,0.12-0.29
					C493.61,137.46,493.61,137.53,493.62,137.59z"/>
				<g>
					<path class="st5" d="M493.41,211.1l-1.24-0.05c0.02-0.43,1.86-42.8,1.86-48.07c-0.01-5.25-1.79-22.03-1.81-22.2l1.23-0.13
						c0.07,0.69,1.81,17.02,1.81,22.33C495.28,168.28,493.43,210.68,493.41,211.1z"/>
				</g>
			</g>
			<g>
				<path class="st5" d="M290.57,152.06c1.45-0.5,4.71-0.38,4.71-0.38c-0.68-0.49-1.86-0.53-2.95-0.43
					c2.94-1.43,5.43-3.05,5.43-3.05c-1.62-0.17-5.17,1-6.89,1.77c1.51-0.91,3.56-1.71,2.43-1.91c-1.5-0.27-3.59,2.1-4.14,2.69
					c1.76-4.46,2.8-9.09,2.8-9.09c-1.61,1.26-3.75,5.3-4.72,7.65c-0.3-1.89-0.95-4.26-2.36-4.96c0,0-0.44,1.14,0.61,4.28
					c0.25,0.76,0.49,1.46,0.7,2.06c-0.76-0.58-1.82-1.14-2.57-1.05c-1.5,0.17,0.55,0.45,1.16,0.94c0.1,0.08,0.21,0.18,0.33,0.27
					c-0.73-0.15-1.65-0.21-2.38,0.14c-1.42,0.69,2.24-0.02,3.06,0.4l0,0c0.16,0.11,0.32,0.21,0.49,0.29
					c-0.04,0.01-0.08,0.03-0.11,0.04c-1.91-0.23-5.34-0.51-8.02,0.97c-2.87,1.58,2.65,0.14,6.74-0.1c-1.38,0.55-2.94,1.46-3.68,2.94
					c0,0,1.92,0,3.58-1.31c0.54-0.42,1.1-0.78,1.62-1.06c0,0.01,0,0.02,0,0.04c-1.17,1.53-2.86,4.04-2.78,5.65
					c0,0,1.36-0.41,2.51-1.75c0.24-0.28,0.49-0.67,0.73-1.13c-0.23,1.84-0.28,4.1,0.44,5.79c1.45,3.38,1.58-2.22,1.75-3.32
					c0.08-0.52,0.16-2.54,0.03-4.21c0.02,0.08,0.04,0.15,0.07,0.23c-0.04,2.19,1.4,7.93,1.42,5.73c0.01-0.84-0.17-1.85-0.4-2.82
					c0.04,0.08,0.08,0.15,0.11,0.2c0.54,0.82,2.43,4.89,2.02,0.87c-0.13-1.31-0.53-2.48-1.01-3.46c1.99,1.43,3.67,3.73,3.89,3.44
					c0.26-0.35,0-1.4-0.87-2.88c-0.23-0.38-0.66-0.77-1.17-1.14c2.52,0.94,4.94,3,2.93,0.79c-0.41-0.45-0.87-0.79-1.36-1.05
					c1.71,0.2,2.99,0.33,2.99,0.33C297.26,153.58,293.41,152.65,290.57,152.06z M289.07,151.15c-0.03,0.03-0.07,0.05-0.1,0.08
					c0.03-0.08,0.06-0.15,0.09-0.23C289.06,151.05,289.06,151.1,289.07,151.15z"/>
				<g>
					<path class="st5" d="M289.57,210.82l-1-0.08c0.23-2.9-0.84-28.13-1.51-37.15c-0.64-8.63,1.39-21.3,1.41-21.43l0.99,0.16
						c-0.02,0.13-2.03,12.68-1.4,21.19C288.67,181.76,289.82,207.69,289.57,210.82z"/>
				</g>
			</g>
			<g>
				<path class="st5" d="M400.22,143.91c1.45-0.5,4.71-0.38,4.71-0.38c-0.68-0.49-1.86-0.53-2.95-0.43
					c2.94-1.43,5.43-3.05,5.43-3.05c-1.62-0.17-5.17,1-6.89,1.77c1.51-0.91,3.56-1.71,2.43-1.91c-1.5-0.27-3.59,2.1-4.14,2.69
					c1.76-4.46,2.8-9.09,2.8-9.09c-1.61,1.26-3.75,5.3-4.72,7.65c-0.3-1.89-0.95-4.26-2.36-4.96c0,0-0.44,1.14,0.61,4.28
					c0.25,0.76,0.49,1.46,0.7,2.06c-0.76-0.58-1.82-1.14-2.57-1.05c-1.5,0.17,0.55,0.45,1.16,0.94c0.1,0.08,0.21,0.18,0.33,0.27
					c-0.73-0.15-1.65-0.21-2.38,0.14c-1.42,0.69,2.24-0.02,3.06,0.4l0,0c0.16,0.11,0.32,0.21,0.49,0.29
					c-0.04,0.01-0.08,0.03-0.11,0.04c-1.91-0.23-5.34-0.51-8.02,0.97c-2.87,1.58,2.65,0.14,6.74-0.1c-1.38,0.55-2.94,1.46-3.68,2.94
					c0,0,1.92,0,3.58-1.31c0.54-0.42,1.1-0.78,1.62-1.06c0,0.01,0,0.02,0,0.04c-1.17,1.53-2.86,4.04-2.78,5.65
					c0,0,1.36-0.41,2.51-1.75c0.24-0.28,0.49-0.67,0.73-1.13c-0.23,1.84-0.28,4.1,0.44,5.79c1.45,3.38,1.58-2.22,1.75-3.32
					c0.08-0.52,0.16-2.54,0.03-4.21c0.02,0.08,0.04,0.15,0.07,0.23c-0.04,2.19,1.4,7.93,1.42,5.73c0.01-0.84-0.17-1.85-0.4-2.82
					c0.04,0.08,0.08,0.15,0.11,0.2c0.54,0.82,2.43,4.89,2.02,0.87c-0.13-1.31-0.53-2.48-1.01-3.46c1.99,1.43,3.67,3.73,3.89,3.44
					c0.26-0.35,0-1.4-0.87-2.88c-0.23-0.38-0.66-0.77-1.17-1.14c2.52,0.94,4.94,3,2.93,0.79c-0.41-0.45-0.87-0.79-1.36-1.05
					c1.71,0.2,2.99,0.33,2.99,0.33C406.91,145.43,403.07,144.49,400.22,143.91z M398.72,143c-0.03,0.03-0.07,0.05-0.1,0.08
					c0.03-0.08,0.06-0.15,0.09-0.23C398.71,142.89,398.72,142.95,398.72,143z"/>
				<g>
					<path class="st5" d="M396.91,210.13l-1-0.08c0.02,1.81,2.06-23.97,1.51-29.14c-0.6-5.58-1.09-29.89,0.1-36.9l0.99,0.17
						c-1.18,6.95-0.69,31.08-0.09,36.63C398.98,186.06,397,211.13,396.91,210.13z"/>
				</g>
			</g>
			<g>
				<path class="st6" d="M161.64,147.97c1.45-0.5,4.71-0.38,4.71-0.38c-0.68-0.49-1.86-0.53-2.95-0.43
					c2.94-1.43,5.43-3.05,5.43-3.05c-1.62-0.17-5.17,1-6.89,1.77c1.51-0.91,3.56-1.71,2.43-1.91c-1.5-0.27-3.59,2.1-4.14,2.69
					c1.76-4.46,2.8-9.09,2.8-9.09c-1.61,1.26-3.75,5.3-4.72,7.65c-0.3-1.89-0.95-4.26-2.36-4.96c0,0-0.44,1.14,0.61,4.28
					c0.25,0.76,0.49,1.46,0.7,2.06c-0.76-0.58-1.82-1.14-2.57-1.05c-1.5,0.17,0.55,0.45,1.16,0.94c0.1,0.08,0.21,0.18,0.33,0.27
					c-0.73-0.15-1.65-0.21-2.38,0.14c-1.42,0.69,2.24-0.02,3.06,0.4l0,0c0.16,0.11,0.32,0.21,0.49,0.29
					c-0.04,0.01-0.08,0.03-0.11,0.04c-1.91-0.23-5.34-0.51-8.02,0.97c-2.87,1.58,2.65,0.14,6.74-0.1c-1.38,0.55-2.94,1.46-3.68,2.94
					c0,0,1.92,0,3.58-1.31c0.54-0.42,1.1-0.77,1.62-1.06c0,0.01,0,0.02,0,0.04c-1.17,1.53-2.86,4.04-2.78,5.65
					c0,0,1.36-0.41,2.51-1.75c0.24-0.28,0.49-0.67,0.73-1.13c-0.23,1.84-0.28,4.1,0.44,5.79c1.45,3.38,1.58-2.22,1.75-3.32
					c0.08-0.52,0.16-2.54,0.03-4.21c0.02,0.08,0.04,0.15,0.07,0.23c-0.04,2.19,1.4,7.93,1.42,5.73c0.01-0.84-0.17-1.85-0.4-2.82
					c0.04,0.08,0.08,0.15,0.11,0.2c0.54,0.82,2.43,4.89,2.02,0.87c-0.13-1.31-0.53-2.48-1.01-3.46c1.99,1.43,3.67,3.73,3.89,3.44
					c0.26-0.35,0-1.4-0.87-2.88c-0.23-0.38-0.66-0.78-1.17-1.14c2.52,0.94,4.94,3,2.93,0.79c-0.41-0.45-0.87-0.79-1.36-1.05
					c1.71,0.2,2.99,0.33,2.99,0.33C168.34,149.49,164.49,148.55,161.64,147.97z M160.14,147.06c-0.03,0.03-0.07,0.05-0.1,0.08
					c0.03-0.08,0.06-0.15,0.09-0.23C160.14,146.95,160.14,147.01,160.14,147.06z"/>
				<g>
					<path class="st6" d="M155.61,211.41l-1-0.05c0.02-0.35,1.76-35.13,1.76-39.09c0-4.01,3.14-24.56,3.27-25.43l0.99,0.15
						c-0.03,0.21-3.26,21.34-3.26,25.28C157.37,176.26,155.68,209.98,155.61,211.41z"/>
				</g>
			</g>
			<path class="st6" d="M112.04,211.1c0,0,3.14-11.25,17.85-8.89c14.71,2.35,13.89-4.21,20.73-4.21c6.84,0,11.17,6.17,20.03,6.63
				c8.86,0.46,12.54,6.48,20.68,6.48H112.04z"/>
			<linearGradient id="SVGID_4_" gradientUnits="userSpaceOnUse" x1="366.2276" y1="205.0634" x2="547.7773" y2="205.0634">
				<stop  offset="5.181350e-03" style="stop-color:#D6BAAF"/>
				<stop  offset="1" style="stop-color:#FFE7E0"/>
			</linearGradient>
			<path class="st7" d="M540.29,205.81c-5.25-2.16-8.66,5.29-17.07,3.74c-8.4-1.55-18.11-4.2-25.47-4.49
				c-7.35-0.29-10.5-1.82-14.18-2.85c-3.68-1.04-7.61,3.66-11.55,3.6c-3.94-0.06-4.99-4.66-11.29-6.5
				c-6.3-1.84-14.96,5.78-23.46,5.51c-4.04-0.12-7.06,1.29-9.12,2.8c-6.05-1.86-13.94-1.43-23.08-5.42
				c-12.6-5.5-16.8,4.19-27.3,4.52c-10.5,0.33-11.55,4.38-11.55,4.38h58.55h9.45h113.55C547.78,211.1,545.54,207.97,540.29,205.81z"
				/>
			<g>
				<path class="st5" d="M33.77,156.7c1.45-0.5,4.71-0.38,4.71-0.38c-0.68-0.49-1.86-0.53-2.95-0.43c2.94-1.43,5.43-3.05,5.43-3.05
					c-1.62-0.17-5.17,1-6.89,1.77c1.51-0.91,3.56-1.71,2.43-1.91c-1.5-0.27-3.59,2.1-4.14,2.69c1.76-4.46,2.8-9.09,2.8-9.09
					c-1.61,1.26-3.75,5.3-4.72,7.65c-0.3-1.89-0.95-4.26-2.36-4.96c0,0-0.44,1.14,0.61,4.28c0.25,0.76,0.49,1.46,0.7,2.06
					c-0.76-0.58-1.82-1.14-2.57-1.05c-1.5,0.17,0.55,0.45,1.16,0.94c0.1,0.08,0.21,0.18,0.33,0.27c-0.73-0.15-1.65-0.21-2.38,0.14
					c-1.42,0.69,2.24-0.02,3.06,0.4l0,0c0.16,0.11,0.32,0.21,0.49,0.29c-0.04,0.01-0.08,0.03-0.11,0.04
					c-1.91-0.23-5.34-0.51-8.02,0.97c-2.87,1.58,2.65,0.14,6.74-0.1c-1.38,0.55-2.94,1.46-3.68,2.94c0,0,1.92,0,3.58-1.31
					c0.54-0.42,1.1-0.78,1.62-1.06c0,0.01,0,0.02,0,0.04c-1.17,1.53-2.86,4.04-2.78,5.65c0,0,1.36-0.41,2.51-1.75
					c0.24-0.28,0.49-0.67,0.73-1.13c-0.23,1.84-0.28,4.1,0.44,5.79c1.45,3.38,1.58-2.22,1.75-3.32c0.08-0.52,0.16-2.54,0.03-4.21
					c0.02,0.08,0.04,0.15,0.07,0.23c-0.04,2.19,1.4,7.93,1.42,5.73c0.01-0.84-0.17-1.85-0.4-2.82c0.04,0.08,0.08,0.15,0.11,0.2
					c0.54,0.82,2.43,4.89,2.02,0.87c-0.13-1.31-0.53-2.48-1.01-3.46c1.99,1.43,3.67,3.73,3.89,3.44c0.26-0.35,0-1.4-0.87-2.88
					c-0.23-0.38-0.66-0.77-1.17-1.14c2.52,0.94,4.94,3,2.93,0.79c-0.41-0.45-0.87-0.79-1.36-1.05c1.71,0.2,2.99,0.33,2.99,0.33
					C40.47,158.22,36.62,157.28,33.77,156.7z M32.27,155.79c-0.03,0.03-0.07,0.06-0.1,0.08c0.03-0.08,0.06-0.15,0.09-0.23
					C32.27,155.68,32.27,155.73,32.27,155.79z"/>
				<g>
					<path class="st5" d="M32.66,210.43c0-0.04-0.27-3.73-1.63-10.64c-1.47-7.45,0.28-20.88,0.65-23.5
						c0.51-3.61-1.38-18.33-1.4-18.48l1-0.13c0.08,0.61,1.93,15.01,1.4,18.75c-0.36,2.59-2.1,15.87-0.66,23.16
						c1.38,6.99,1.65,10.73,1.65,10.77L32.66,210.43z"/>
				</g>
			</g>
			<path class="st6" d="M27.88,211.1c0,0,1.08-4.18,5.89-3.83c4.81,0.35,4.03-4.64,8.75-3.5c4.73,1.14,7.26,7.33,11.46,7.33H27.88z"
				/>
			<linearGradient id="SVGID_5_" gradientUnits="userSpaceOnUse" x1="278.6118" y1="207.6439" x2="314.1855" y2="207.6439">
				<stop  offset="5.181350e-03" style="stop-color:#D6BAAF"/>
				<stop  offset="1" style="stop-color:#FFE7E0"/>
			</linearGradient>
			<path class="st8" d="M278.61,211.1c0,0,3.94-8.8,12.86-6.55c8.93,2.24,6.17,3.94,13.91,3.09c7.74-0.85,8.79,3.46,8.79,3.46
				H278.61z"/>
		</g>
		<linearGradient id="SVGID_6_" gradientUnits="userSpaceOnUse" x1="-2.5122" y1="337.9779" x2="653.5656" y2="337.9779">
			<stop  offset="0" style="stop-color:#F9F9F9"/>
			<stop  offset="1" style="stop-color:#FFEBE6"/>
		</linearGradient>
		<path class="st9" d="M653.57,304.02v72.81H-2.51v-72.81c0,0,59.58,32.75,165.18,7.87C324.37,273.8,555.98,336.19,653.57,304.02z"
			/>
		<linearGradient id="SVGID_7_" gradientUnits="userSpaceOnUse" x1="325.5267" y1="352.1703" x2="325.5267" y2="131.2425">
			<stop  offset="0" style="stop-color:#F9F2E8"/>
			<stop  offset="1" style="stop-color:#FFF7F5"/>
		</linearGradient>
		<polygon class="st10" points="-2.51,211.1 -2.51,266.63 38.23,266.63 38.23,243.88 65.19,243.88 73.41,235.65 162.85,235.65 
			176.76,249.56 204.86,249.56 204.86,272.93 229.42,272.93 229.42,241.43 274.66,241.43 292.09,258.86 348.03,258.86 
			348.03,229.48 372.88,229.48 384.98,241.58 415.58,241.58 424.25,232.91 462.14,232.91 462.14,265.47 489.09,265.47 
			489.09,254.73 510.45,254.73 510.45,277.51 530.05,277.51 530.05,243.08 585.01,243.08 590.15,237.94 653.49,237.94 653.57,211.1 
					"/>
		<linearGradient id="SVGID_8_" gradientUnits="userSpaceOnUse" x1="241.6572" y1="312.8028" x2="263.8694" y2="312.8028">
			<stop  offset="0" style="stop-color:#FFDEBC"/>
			<stop  offset="1" style="stop-color:#BD856A"/>
		</linearGradient>
		<ellipse class="st11" cx="252.76" cy="312.8" rx="11.11" ry="4.18"/>
		<path class="st3" d="M-1.01,308.77c0,0,11.42,32.34,87.23,26.24c75.81-6.09,101.34-34.25,238.79-27.93
			c137.45,6.32,267.24,33.21,328.56-0.15c0,0-48.72,22.48-185.89,6.92c-137.17-15.56-215.43-11.41-264.63-4.27
			C153.86,316.71,80.59,347.22-1.01,308.77z"/>
		<path class="st3" d="M266.62,311.11c0,2.31-4.97,4.18-11.11,4.18s-11.11-1.87-11.11-4.18c0-2.31,4.97-4.18,11.11-4.18
			S266.62,308.8,266.62,311.11z"/>
		
			<linearGradient id="SVGID_9_" gradientUnits="userSpaceOnUse" x1="-11191.8076" y1="345.9783" x2="-11076.8457" y2="345.9783" gradientTransform="matrix(-1 0 0 1 -10916.0371 0)">
			<stop  offset="0" style="stop-color:#FFDEBC"/>
			<stop  offset="1" style="stop-color:#BD856A"/>
		</linearGradient>
		<ellipse class="st12" cx="218.29" cy="345.98" rx="57.48" ry="3.74"/>
		
			<linearGradient id="SVGID_10_" gradientUnits="userSpaceOnUse" x1="-11067.7188" y1="346.7669" x2="-10952.7568" y2="346.7669" gradientTransform="matrix(-1 0 0 1 -10916.0371 0)">
			<stop  offset="0" style="stop-color:#FFDEBC"/>
			<stop  offset="1" style="stop-color:#BD856A"/>
		</linearGradient>
		<ellipse class="st13" cx="94.2" cy="346.77" rx="57.48" ry="3.74"/>
		<g>
			<g>
				<g>
					
						<linearGradient id="SVGID_11_" gradientUnits="userSpaceOnUse" x1="-6426.0337" y1="-1612.3629" x2="-6466.7217" y2="-1654.9001" gradientTransform="matrix(-0.912 -0.4102 -0.4102 0.912 -6162.8037 -1119.1497)">
						<stop  offset="0" style="stop-color:#FFFFFF"/>
						<stop  offset="1" style="stop-color:#C7C7C7"/>
					</linearGradient>
					<path class="st14" d="M366.9,44.22c0-0.77-0.24-1.68-1.41-1.49l1.41-0.2L366.9,44.22z"/>
				</g>
			</g>
		</g>
		<g>
			<g>
				<g>
					<linearGradient id="SVGID_12_" gradientUnits="userSpaceOnUse" x1="44.0318" y1="291.4329" x2="134.4095" y2="127.4619">
						<stop  offset="0" style="stop-color:#60E99C"/>
						<stop  offset="1" style="stop-color:#B8EBFF"/>
					</linearGradient>
					<path class="st15" d="M66.29,295.53h43.91c24.25,0,43.91-19.66,43.91-43.91V170.8c0-24.25-19.66-43.91-43.91-43.91H66.29
						c-24.25,0-43.91,19.66-43.91,43.91v80.82C22.38,275.87,42.04,295.53,66.29,295.53z"/>
				</g>
				<g>
					<g>
						<g>
							
								<rect x="104.51" y="140.89" transform="matrix(-1 -1.224647e-16 1.224647e-16 -1 242.8969 285.638)" class="st3" width="33.88" height="3.86"/>
						</g>
					</g>
				</g>
				<g>
					<g>
						<g>
							
								<rect x="113.51" y="149.38" transform="matrix(-1 -1.224647e-16 1.224647e-16 -1 251.9029 302.6134)" class="st3" width="24.88" height="3.86"/>
						</g>
					</g>
				</g>
				<g>
					<g>
						<g>
							
								<rect x="77.22" y="157.86" transform="matrix(-1 -1.224647e-16 1.224647e-16 -1 215.6151 319.5887)" class="st3" width="61.17" height="3.86"/>
						</g>
					</g>
				</g>
				<g>
					<g>
						<g>
							<rect x="37.92" y="182.27" class="st3" width="41.97" height="3.86"/>
						</g>
					</g>
				</g>
				<g>
					<g>
						<g>
							<rect x="37.92" y="190.76" class="st3" width="56.83" height="3.86"/>
						</g>
					</g>
				</g>
				<g>
					<g>
						<g>
							<rect x="37.92" y="199.25" class="st3" width="75.76" height="3.86"/>
						</g>
					</g>
				</g>
				<g>
					<g>
						<g>
							<rect x="37.92" y="223.68" class="st3" width="46.22" height="3.86"/>
						</g>
					</g>
				</g>
				<g>
					<g>
						<g>
							<rect x="37.92" y="232.16" class="st3" width="63.94" height="3.86"/>
						</g>
					</g>
				</g>
				<g>
					<g>
						<g>
							<rect x="37.92" y="240.65" class="st3" width="61.41" height="3.86"/>
						</g>
					</g>
				</g>
				<g>
					<linearGradient id="SVGID_13_" gradientUnits="userSpaceOnUse" x1="66.8986" y1="129.7791" x2="175.1978" y2="14.3889">
						<stop  offset="0" style="stop-color:#60E99C"/>
						<stop  offset="1" style="stop-color:#B8EBFF"/>
					</linearGradient>
					<path class="st16" d="M85.71,119.4h65.9c16.48,0,29.85-13.36,29.85-29.85V59.7c0-16.48-13.36-29.85-29.85-29.85h-65.9
						c-16.48,0-29.85,13.36-29.85,29.85v29.85C55.87,106.03,69.23,119.4,85.71,119.4z"/>
				</g>
				<g>
					<g>
						<path class="st3" d="M74.04,92.07h24.12c1.44,0,2.61-1.17,2.61-2.61v-2.61c0-1.44-1.17-2.61-2.61-2.61H74.04
							c-1.44,0-2.61,1.17-2.61,2.61v2.61C71.43,90.9,72.6,92.07,74.04,92.07z"/>
					</g>
				</g>
				<g>
					<g>
						<path class="st3" d="M74.04,79.56h24.12c1.44,0,2.61-1.17,2.61-2.61v-2.61c0-1.44-1.17-2.61-2.61-2.61H74.04
							c-1.44,0-2.61,1.17-2.61,2.61v2.61C71.43,78.39,72.6,79.56,74.04,79.56z"/>
					</g>
				</g>
				<g>
					<g>
						<path class="st3" d="M74.04,67.05h24.12c1.44,0,2.61-1.17,2.61-2.61v-2.61c0-1.44-1.17-2.61-2.61-2.61H74.04
							c-1.44,0-2.61,1.17-2.61,2.61v2.61C71.43,65.89,72.6,67.05,74.04,67.05z"/>
					</g>
				</g>
				<path class="st3" d="M162.13,64.34c0-11.24-9.11-20.34-20.34-20.34c-11.24,0-20.34,9.11-20.34,20.34c0,0.39,0.01,0.77,0.03,1.16
					h-0.03c0,15.49,20.34,39.76,20.34,39.76s20.34-24.27,20.34-39.76h-0.03C162.12,65.11,162.13,64.73,162.13,64.34z M141.79,77.52
					c-7.28,0-13.18-5.9-13.18-13.18c0-7.28,5.9-13.18,13.18-13.18c7.28,0,13.18,5.9,13.18,13.18
					C154.97,71.62,149.07,77.52,141.79,77.52z"/>
				<g>
					<path class="st17" d="M149.77,253.63c0.55,0.27,1.4,0.44,2.24,0.44c2.59,0,4.09-1.67,4.09-4.28c0-2.79-1.66-4.39-4.15-4.39
						c-0.88,0-1.63,0.19-2.15,0.44l-0.33-1.12c0.36-0.19,1.2-0.47,2.53-0.47c3.3,0,5.56,2.26,5.56,5.59c0,3.49-2.26,5.38-5.26,5.38
						c-1.29,0-2.3-0.25-2.81-0.5L149.77,253.63z"/>
				</g>
				
					<rect x="278.3" y="104.12" transform="matrix(-1 -1.224647e-16 1.224647e-16 -1 563.6722 210.514)" class="st18" width="7.07" height="2.28"/>
				
					<rect x="212.31" y="104.12" transform="matrix(-1 -1.224647e-16 1.224647e-16 -1 437.1002 210.514)" class="st18" width="12.48" height="2.28"/>
				
					<rect x="245.79" y="104.12" transform="matrix(-1 -1.224647e-16 1.224647e-16 -1 504.0675 210.514)" class="st18" width="12.48" height="2.28"/>
				
					<rect x="181.7" y="104.12" transform="matrix(-1 -1.224647e-16 1.224647e-16 -1 370.401 210.514)" class="st18" width="7" height="2.28"/>
				
					<linearGradient id="SVGID_14_" gradientUnits="userSpaceOnUse" x1="-5471.1357" y1="-16.5057" x2="-5449.3853" y2="-16.5057" gradientTransform="matrix(-1 0 0 1 -5406.3604 0)">
					<stop  offset="0" style="stop-color:#D5E4FF"/>
					<stop  offset="1" style="stop-color:#EDFFFE"/>
				</linearGradient>
				<rect x="43.02" y="-16.88" class="st19" width="21.75" height="0.74"/>
				
					<linearGradient id="SVGID_15_" gradientUnits="userSpaceOnUse" x1="-5571.2729" y1="302.6599" x2="-5624.481" y2="113.6592" gradientTransform="matrix(-1 0 0 1 -5406.3604 0)">
					<stop  offset="0" style="stop-color:#EEA886"/>
					<stop  offset="0.7927" style="stop-color:#CF9174"/>
				</linearGradient>
				<path class="st20" d="M55.62,332.36l68.52,44.48h26.69l47.56-53.65c0,0,57.13-23.07,69.04-31.52c0.97-0.69,1.64-1.28,1.96-1.75
					c4.19-6.29-83.05-70.99-83.05-76.76c0-5.76-0.79-48.99-0.52-52.66c0.26-3.67,7.99-35.37,3.23-51.09c0,0-5.06-17.12-15.72-14.32
					c0,0-1.34,0.12-1.34,2.58c0,0.14,0.01,0.29,0.01,0.45c0.03,0.53,0.12,1.15,0.27,1.87c1.05,4.71-2.45,22.01-4.71,26.72
					c-2.27,4.72-8.21,13.62-9.61,21.31c-1.39,7.68-7.34,30.56-9.6,36.5c-2.27,5.94-8.39,16.07-9.26,21.66
					c-0.87,5.58-2.1,20.61-5.06,26.2c-2.97,5.58-11.62,34.75-19.47,44.18C106.7,285.98,55.62,332.36,55.62,332.36z"/>
				
					<linearGradient id="SVGID_16_" gradientUnits="userSpaceOnUse" x1="-5491.1338" y1="343.5932" x2="-5604.9795" y2="76.6442" gradientTransform="matrix(-1 0 0 1 -5406.3604 0)">
					<stop  offset="0" style="stop-color:#EEA886"/>
					<stop  offset="0.7927" style="stop-color:#CF9174"/>
					<stop  offset="0.8049" style="stop-color:#CC8E71"/>
					<stop  offset="0.9257" style="stop-color:#B4765A"/>
					<stop  offset="1" style="stop-color:#AB6D52"/>
				</linearGradient>
				<path class="st21" d="M59.09,329.2l25.83,9.04c0,0,40.22-43.17,54.54-53.65c14.32-10.48,5.59-47.85,7.69-56.25
					c2.1-8.39,1.74-26.19,6.98-34.2c5.24-8.01,5.94-26.22,6.98-34.6c1.05-8.38,5.59-14.67,10.9-33.19
					c5.2-18.12,0.21-27.84,0.01-28.24c0.03,0.52,0.12,1.14,0.28,1.87c1.05,4.72-2.45,22.01-4.72,26.72
					c-2.27,4.72-8.21,13.62-9.61,21.31c-1.39,7.68-7.34,30.56-9.6,36.5c-2.27,5.94-8.38,16.07-9.26,21.66
					c-0.87,5.59-2.1,20.61-5.06,26.2c-2.97,5.59-11.62,34.76-19.48,44.19C106.7,285.98,59.09,329.2,59.09,329.2z"/>
				
					<linearGradient id="SVGID_17_" gradientUnits="userSpaceOnUse" x1="-5577.5181" y1="305.0292" x2="-5595.9609" y2="201.7038" gradientTransform="matrix(-1 0 0 1 -5406.3604 0)">
					<stop  offset="0" style="stop-color:#EEA886"/>
					<stop  offset="0.7927" style="stop-color:#CF9174"/>
					<stop  offset="0.8049" style="stop-color:#CC8E71"/>
					<stop  offset="0.9257" style="stop-color:#B4765A"/>
					<stop  offset="1" style="stop-color:#AB6D52"/>
				</linearGradient>
				<path class="st22" d="M185.82,160.49c0,0-5.08,22.23-5.42,33.65c-0.34,11.41-8.46,23.51-10.3,38.55
					c-1.83,15.04,7.38,54.78,15.87,58.88C194.47,295.68,185.82,160.49,185.82,160.49z"/>
				
					<linearGradient id="SVGID_18_" gradientUnits="userSpaceOnUse" x1="-5614.0195" y1="326.5935" x2="-5688.6636" y2="203.5315" gradientTransform="matrix(-1 0 0 1 -5406.3604 0)">
					<stop  offset="0" style="stop-color:#EEA886"/>
					<stop  offset="0.3051" style="stop-color:#E29F7F"/>
					<stop  offset="0.7927" style="stop-color:#CF9174"/>
					<stop  offset="0.8049" style="stop-color:#CC8E71"/>
					<stop  offset="0.9257" style="stop-color:#B4765A"/>
					<stop  offset="1" style="stop-color:#AB6D52"/>
				</linearGradient>
				<path class="st23" d="M160.61,365.8l37.78-42.62c0,0,57.13-23.08,69.04-31.52H225.9c0,0,8.38,4.01-2.36,10.56
					c-10.74,6.55-49.52,13.36-51.87,20.17C169.32,329.21,191.53,317.34,160.61,365.8z"/>
				
					<linearGradient id="SVGID_19_" gradientUnits="userSpaceOnUse" x1="-5573.2812" y1="244.8466" x2="-5593.8906" y2="187.3844" gradientTransform="matrix(-1 0 0 1 -5406.3604 0)">
					<stop  offset="0" style="stop-color:#CF9174"/>
					<stop  offset="1" style="stop-color:#91624C"/>
				</linearGradient>
				<path class="st24" d="M185.82,160.49c0,0-7.6,29.08-4.8,38.86c2.79,9.78,4.8,24.45,4.8,24.45S185.67,172.63,185.82,160.49z"/>
				<path class="st25" d="M185.82,79.98v196.9c0,8.12,6.58,14.7,14.71,14.7h94.4c4.3,0,8.16-1.84,10.85-4.78
					c2.4-2.62,3.85-6.09,3.85-9.92V79.98c0-8.12-6.59-14.71-14.71-14.71h-94.4C192.4,65.27,185.82,71.85,185.82,79.98z"/>
				<linearGradient id="SVGID_20_" gradientUnits="userSpaceOnUse" x1="247.7204" y1="311.6404" x2="247.7204" y2="232.5377">
					<stop  offset="0" style="stop-color:#B6C4E3"/>
					<stop  offset="1" style="stop-color:#E8EFFF"/>
				</linearGradient>
				<rect x="195.23" y="75.14" class="st26" width="104.98" height="180.3"/>
				<ellipse class="st27" cx="247.73" cy="273.39" rx="12.95" ry="9.51"/>
				<polygon class="st28" points="43.27,341.51 95.36,376.84 163.53,376.84 167.85,371.84 75.73,310.37 				"/>
				<path class="st29" d="M-2.51,376.84h121.24l-62.77-40.98c-9.16-5.98-21.33-4.27-28.48,4L-2.51,376.84z"/>
				<path class="st3" d="M239.2,65.27l66.58,221.52c2.4-2.62,3.85-6.09,3.85-9.92V79.98c0-8.12-6.59-14.71-14.71-14.71H239.2z"/>
				<polygon class="st3" points="287.53,291.57 219.51,65.27 229.8,65.27 297.82,291.57 				"/>
				
					<linearGradient id="SVGID_21_" gradientUnits="userSpaceOnUse" x1="-5713.7124" y1="287.5851" x2="-5730.4854" y2="201.2742" gradientTransform="matrix(-1 0 0 1 -5406.3604 0)">
					<stop  offset="0" style="stop-color:#EEA886"/>
					<stop  offset="0.7927" style="stop-color:#CF9174"/>
					<stop  offset="0.8049" style="stop-color:#CC8E71"/>
					<stop  offset="0.9257" style="stop-color:#B4765A"/>
					<stop  offset="1" style="stop-color:#AB6D52"/>
				</linearGradient>
				<path class="st30" d="M319.68,228.19c0,0,8.38,7.29,8.31,13.18c-0.07,5.81-0.24,9.77-1.83,12.78
					c-1.21,2.28-16.21,21.94-19.53,21.7c-2.88-0.21-8.85-5.07-7.44-11.76c1.42-6.69,7.16-17.1,7.44-17.91v-20.89L319.68,228.19z"/>
				
					<linearGradient id="SVGID_22_" gradientUnits="userSpaceOnUse" x1="-5721.9351" y1="245.7472" x2="-5711.8047" y2="288.0143" gradientTransform="matrix(-1 0 0 1 -5406.3604 0)">
					<stop  offset="0" style="stop-color:#DE9C7D"/>
					<stop  offset="1" style="stop-color:#FFE0D1"/>
				</linearGradient>
				<path class="st31" d="M309.33,273.34c0,0-3.72-5.34-5.41-6.69c-1.69-1.35,8.99-18.72,13.99-14.13
					C322.92,257.12,316.43,267.26,309.33,273.34z"/>
				
					<linearGradient id="SVGID_23_" gradientUnits="userSpaceOnUse" x1="-5720.8291" y1="234.9329" x2="-5734.8013" y2="166.118" gradientTransform="matrix(-1 0 0 1 -5406.3604 0)">
					<stop  offset="0" style="stop-color:#EEA886"/>
					<stop  offset="0.7927" style="stop-color:#CF9174"/>
				</linearGradient>
				<path class="st32" d="M325.72,183.95c0,0,10.83,9.41,10.74,17.03c-0.09,7.51-0.31,12.62-2.36,16.5
					c-1.56,2.95-21.13,29.34-25.24,28.03c-4.1-1.31-11.44-6.55-9.61-15.2c1.83-8.65,9.26-22.09,9.61-23.14v-26.98L325.72,183.95z"/>
				
					<linearGradient id="SVGID_24_" gradientUnits="userSpaceOnUse" x1="-5726.5444" y1="206.6181" x2="-5715.0171" y2="257.0941" gradientTransform="matrix(-1 0 0 1 -5406.3604 0)">
					<stop  offset="0" style="stop-color:#DE9C7D"/>
					<stop  offset="1" style="stop-color:#FFE0D1"/>
				</linearGradient>
				<path class="st33" d="M312.36,242.28c0,0-4.8-6.9-6.99-8.65c-2.18-1.75,11.61-24.19,18.08-18.25
					C329.91,221.33,321.53,234.42,312.36,242.28z"/>
				
					<linearGradient id="SVGID_25_" gradientUnits="userSpaceOnUse" x1="-5724.1465" y1="196.2095" x2="-5723.6226" y2="94.1665" gradientTransform="matrix(-1 0 0 1 -5406.3604 0)">
					<stop  offset="0" style="stop-color:#EEA886"/>
					<stop  offset="0.2483" style="stop-color:#E4A180"/>
					<stop  offset="0.7927" style="stop-color:#CF9174"/>
					<stop  offset="0.8049" style="stop-color:#CC8E71"/>
					<stop  offset="0.9257" style="stop-color:#B4765A"/>
					<stop  offset="1" style="stop-color:#AB6D52"/>
				</linearGradient>
				<path class="st34" d="M325.72,149.75c0,0,10.83,9.41,10.74,17.03c-0.09,7.51-0.31,12.62-2.36,16.5
					c-1.56,2.95-21.13,29.34-25.24,28.03c-4.1-1.31-11.44-6.55-9.61-15.2c1.83-8.65,9.26-22.09,9.61-23.14V146L325.72,149.75z"/>
				
					<linearGradient id="SVGID_26_" gradientUnits="userSpaceOnUse" x1="-5723.9424" y1="178.071" x2="-5717.48" y2="223.1326" gradientTransform="matrix(-1 0 0 1 -5406.3604 0)">
					<stop  offset="0" style="stop-color:#DE9C7D"/>
					<stop  offset="1" style="stop-color:#FFE0D1"/>
				</linearGradient>
				<path class="st35" d="M312.36,208.09c0,0-4.8-6.9-6.99-8.65c-2.18-1.75,11.61-24.19,18.08-18.25
					C329.91,187.13,321.53,200.23,312.36,208.09z"/>
				
					<linearGradient id="SVGID_27_" gradientUnits="userSpaceOnUse" x1="-5731.4058" y1="151.6334" x2="-5699.6157" y2="104.1426" gradientTransform="matrix(-1 0 0 1 -5406.3604 0)">
					<stop  offset="0" style="stop-color:#EEA886"/>
					<stop  offset="0.7927" style="stop-color:#CF9174"/>
					<stop  offset="0.8049" style="stop-color:#CC8E71"/>
					<stop  offset="0.9257" style="stop-color:#B4765A"/>
					<stop  offset="1" style="stop-color:#AB6D52"/>
				</linearGradient>
				<path class="st36" d="M309.64,113.07l-0.77,34.32c18.78,9.96,25.5,3.67,26.29,2.1c0.79-1.57-16.51-27.51-19.12-31.18
					C313.41,114.65,309.64,113.07,309.64,113.07z"/>
				
					<linearGradient id="SVGID_28_" gradientUnits="userSpaceOnUse" x1="-5717.5552" y1="128.0355" x2="-5751.4385" y2="151.4396" gradientTransform="matrix(-1 0 0 1 -5406.3604 0)">
					<stop  offset="0" style="stop-color:#DE9C7D"/>
					<stop  offset="1" style="stop-color:#FFE0D1"/>
				</linearGradient>
				<path class="st37" d="M335.18,150.89c0,0-8.23-6.2-11.2-7.34c-2.97-1.14-8.28-14.33-5.24-15.46
					C324.85,125.82,337.38,149.62,335.18,150.89z"/>
				<rect x="202.37" y="104.5" class="st38" width="82.55" height="7.74"/>
				<rect x="202.37" y="117.92" class="st38" width="41.27" height="3.08"/>
				<rect x="202.37" y="123.1" class="st38" width="34.16" height="3.08"/>
				<rect x="210.39" y="154.69" class="st38" width="43.62" height="3.08"/>
				<rect x="210.39" y="159.88" class="st38" width="47.72" height="3.08"/>
				<linearGradient id="SVGID_29_" gradientUnits="userSpaceOnUse" x1="217.2829" y1="67.0993" x2="217.2829" y2="120.2184">
					<stop  offset="0" style="stop-color:#D62669"/>
					<stop  offset="1" style="stop-color:#F55C2C"/>
				</linearGradient>
				<path class="st39" d="M226.89,90.31c0-5.31-4.3-9.61-9.61-9.61s-9.61,4.3-9.61,9.61c0,0.18,0.01,0.37,0.02,0.55h-0.02
					c0,7.32,9.61,18.78,9.61,18.78s9.61-11.47,9.61-18.78h-0.02C226.89,90.67,226.89,90.49,226.89,90.31z M217.28,96.53
					c-3.44,0-6.23-2.79-6.23-6.23c0-3.44,2.79-6.23,6.23-6.23c3.44,0,6.23,2.79,6.23,6.23C223.51,93.74,220.72,96.53,217.28,96.53z"
					/>
				<rect x="202.37" y="194.16" class="st38" width="82.55" height="7.74"/>
				<rect x="202.37" y="206.53" class="st38" width="41.27" height="3.08"/>
				<rect x="202.37" y="211.71" class="st38" width="34.16" height="3.08"/>
				<linearGradient id="SVGID_30_" gradientUnits="userSpaceOnUse" x1="207.6732" y1="184.8254" x2="226.8926" y2="184.8254">
					<stop  offset="0" style="stop-color:#D62669"/>
					<stop  offset="1" style="stop-color:#F55C2C"/>
				</linearGradient>
				<path class="st40" d="M226.89,179.97c0-5.31-4.3-9.61-9.61-9.61s-9.61,4.3-9.61,9.61c0,0.18,0.01,0.37,0.02,0.55h-0.02
					c0,7.32,9.61,18.78,9.61,18.78s9.61-11.47,9.61-18.78h-0.02C226.89,180.33,226.89,180.15,226.89,179.97z M217.28,186.19
					c-3.44,0-6.23-2.79-6.23-6.23c0-3.44,2.79-6.23,6.23-6.23c3.44,0,6.23,2.79,6.23,6.23C223.51,183.4,220.72,186.19,217.28,186.19
					z"/>
				
					<rect x="210.76" y="143.44" transform="matrix(-1 -1.224647e-16 1.224647e-16 -1 504.0675 294.6113)" class="st38" width="82.55" height="7.74"/>
				<path class="st41" d="M272.17,231.21v7.89c-3.36,0-6.09,2.73-6.09,6.09h-36.71c0-3.36-2.73-6.09-6.09-6.09v-7.89
					c3.36,0,6.09-2.73,6.09-6.09h36.71C266.08,228.49,268.81,231.21,272.17,231.21z"/>
				<rect x="229.45" y="247.01" class="st41" width="36.66" height="1.13"/>
			</g>
			<g>
				<linearGradient id="SVGID_31_" gradientUnits="userSpaceOnUse" x1="282.8349" y1="378.8303" x2="201.9488" y2="31.567">
					<stop  offset="0" style="stop-color:#EEA886"/>
					<stop  offset="0.7927" style="stop-color:#CF9174"/>
				</linearGradient>
				<path class="st42" d="M358.46,308.72c-0.4,7.99-5.07,20.46-4.67,26.05c0.4,5.6-3.99,20.6-5.79,26.79
					c-1.38,4.75-2.65,9.84-2.81,15.27H241.02c-1.71-1.91-3.29-3.39-4.85-4.34c-4-2.41-16.13-9.13-21.86-17.86
					c-5.37-8.17-18.93-29.32-22.66-33.85c-3.73-4.53-14.13-20.52-17.33-23.99c-3.2-3.47-12.13-9.86-12.13-9.86
					c-1.92-1.54-3.47-9.71,5.37-12.59c0.37-0.13,0.76-0.24,1.16-0.34c10.13-2.54,33.85,12.53,37.45,19.46
					c3.6,6.93,15.07,21.59,18.26,24.12c3.19,2.53,11.59,8.12,16.79-0.8c1.42-2.44,2.98-6.5,4.5-11.16
					c3.97-12.21,7.62-28.55,7.62-30.75v-0.08c-0.13-2.53,1.55-37.25,0.81-45.45c-0.74-8.19-5.11-70.45-4.74-74.42
					c0.48-5.13,1.81-8.57,10.77-5.82c8.39,2.56,12.42,33.33,13.02,36.92c0.6,3.6,6.35,32.5,8.6,40.37c0.01-0.11,0.1-0.64,0.3-1.41
					c0-0.01,0-0.01,0-0.01c0.61-2.3,2.29-6.79,6.49-8.96c0.69-0.36,1.48-0.66,2.33-0.91c0.01-0.01,0.01-0.01,0.01-0.01
					c6.34-1.88,15.37,1.87,16.7,6.37c2.13,7.18,1.75,20.15,1.75,20.15s1.07-9.09,7.22-11.01c0.21-0.06,0.39-0.15,0.57-0.2
					c3.8-0.79,14.39,0,15.6,10c1.2,10,0.94,14.99,0.94,14.99s4.65-7.19,10.65-6.39c6,0.79,12,6.39,11,17.79
					C354.39,278.2,358.72,303.52,358.46,308.72z"/>
				<linearGradient id="SVGID_32_" gradientUnits="userSpaceOnUse" x1="338.1714" y1="302.249" x2="332.9528" y2="238.6893">
					<stop  offset="0" style="stop-color:#CF9174"/>
					<stop  offset="1" style="stop-color:#966A56"/>
				</linearGradient>
				<path class="st43" d="M333.74,258.67c0,0-0.57,23.12,1.86,28.26c3.09,6.51,3.2,4.66,3.2,4.66s-1.62-23.15-1.73-27.99
					C336.94,258.61,335.48,255.74,333.74,258.67z"/>
				<linearGradient id="SVGID_33_" gradientUnits="userSpaceOnUse" x1="309.8836" y1="275.7355" x2="310.9498" y2="240.0159">
					<stop  offset="0" style="stop-color:#CF9174"/>
					<stop  offset="1" style="stop-color:#966A56"/>
				</linearGradient>
				<path class="st44" d="M309.41,241.61c0,0,2.07,1.6,2.6,7.6c0.53,6,0.67,27.32,0.67,27.32l-5.6-0.8c0,0,2.15,0.34,2.33-2.93
					C309.71,267.41,309.39,243.48,309.41,241.61z"/>
				<linearGradient id="SVGID_34_" gradientUnits="userSpaceOnUse" x1="284.7207" y1="275.9583" x2="281.8641" y2="232.2001">
					<stop  offset="0" style="stop-color:#CF9174"/>
					<stop  offset="1" style="stop-color:#966A56"/>
				</linearGradient>
				<path class="st45" d="M281.82,226.42c0,0,3.6,45.23,1.6,48.2c-2,2.98-2.47,2.44-2.47,2.44s4.46-0.2,6.26-0.53
					C289.01,276.2,286.21,222.82,281.82,226.42z"/>
				<linearGradient id="SVGID_35_" gradientUnits="userSpaceOnUse" x1="229.5515" y1="319.8189" x2="153.847" y2="221.19">
					<stop  offset="0" style="stop-color:#E3A080"/>
					<stop  offset="1" style="stop-color:#AB6D52"/>
				</linearGradient>
				<path class="st46" d="M245.73,305.62c-0.01,0.56-0.92,49.9-3.7,41.55c-2.8-8.4-29.99-29.19-33.99-35.39
					c-4-6.2-10.75-18.62-22.39-27.79c-11.73-9.23-18.09-9.66-18.09-9.66c0.37-0.12,0.76-0.24,1.16-0.34
					c10.13-2.53,33.85,12.53,37.45,19.46c3.6,6.93,15.06,21.59,18.26,24.12c3.2,2.53,11.6,8.13,16.79-0.8
					C242.65,314.34,244.21,310.28,245.73,305.62z"/>
				<linearGradient id="SVGID_36_" gradientUnits="userSpaceOnUse" x1="260.9688" y1="169.0532" x2="264.2824" y2="144.2015">
					<stop  offset="0" style="stop-color:#DE9C7D"/>
					<stop  offset="1" style="stop-color:#FFE0D1"/>
				</linearGradient>
				<path class="st47" d="M258.67,172.6c0,0,7.6-1.47,10.66-0.93c0,0-3.19-22.08-8.6-23.19
					C251.68,146.61,254.14,152.08,258.67,172.6z"/>
				<linearGradient id="SVGID_37_" gradientUnits="userSpaceOnUse" x1="184.9635" y1="302.4205" x2="160.3728" y2="276.4302">
					<stop  offset="0" style="stop-color:#DE9C7D"/>
					<stop  offset="1" style="stop-color:#FFE0D1"/>
				</linearGradient>
				<path class="st48" d="M177.23,300.51c0,0,4.55-4.91,7.09-7.05c2.53-2.13-19.85-19.8-24.26-12.4
					C156.26,287.45,177.23,300.51,177.23,300.51z"/>
			</g>
		</g>
	</g>
</g>
</svg>
