<svg id="Group_1126" data-name="Group 1126" xmlns="http://www.w3.org/2000/svg" xmlns:xlink="http://www.w3.org/1999/xlink" width="236.701" height="236.437" viewBox="0 0 236.701 236.437">
    <defs>
        <clipPath id="clip-path">
            <rect id="Rectangle_2332" data-name="Rectangle 2332" width="236.701" height="236.436" rx="118" fill="none"/>
        </clipPath>
        <clipPath id="clip-path-2">
            <path id="Path_1249" data-name="Path 1249" d="M0,118.219A118.218,118.218,0,1,0,118.218,0,118.218,118.218,0,0,0,0,118.219" transform="translate(0 -0.001)" fill="none"/>
        </clipPath>
        <clipPath id="clip-path-3">
            <rect id="Rectangle_2323" data-name="Rectangle 2323" width="6.309" height="13.666" fill="none"/>
        </clipPath>
        <clipPath id="clip-path-4">
            <rect id="Rectangle_2326" data-name="Rectangle 2326" width="152.432" height="15.232" fill="none"/>
        </clipPath>
    </defs>
    <g id="Group_1125" data-name="Group 1125" clip-path="url(#clip-path)">
        <g id="Group_1124" data-name="Group 1124" transform="translate(0 0)">
            <g id="Group_1123" data-name="Group 1123" clip-path="url(#clip-path-2)">
                <path id="Path_1145" data-name="Path 1145" d="M236.436,118.219A118.218,118.218,0,1,1,118.218,0,118.218,118.218,0,0,1,236.436,118.219" transform="translate(0 -0.001)" fill="#fafafa"/>
                <path id="Path_1146" data-name="Path 1146" d="M620.334,183.5c.2-1.455-1.854-2.653-3.4-2.778a8.728,8.728,0,0,1-2.2-.19c-1.511-.527-2.114-2.478-3.589-3.1a4.218,4.218,0,0,0-3.44.487,8.978,8.978,0,0,1-3.318,1.291c-1.039.066-2.166-.319-3.075.189-.677.378-1.031,1.158-1.656,1.618a3.955,3.955,0,0,1-2.164.587,6.1,6.1,0,0,0-2.232.365,1.764,1.764,0,0,0-1.117,1.79Z" transform="translate(-390.186 -116.392)" fill="#f5f5f5"/>
                <rect id="Rectangle_2238" data-name="Rectangle 2238" width="29.012" height="91.944" transform="translate(35.789 93.029)" fill="#f5f5f5"/>
                <rect id="Rectangle_2239" data-name="Rectangle 2239" width="14.506" height="91.691" transform="translate(50.295 93.028)" fill="#ebebeb"/>
                <rect id="Rectangle_2240" data-name="Rectangle 2240" width="10.245" height="9.026" transform="translate(39.102 84.002)" fill="#f5f5f5"/>
                <rect id="Rectangle_2241" data-name="Rectangle 2241" width="2.442" height="9.026" transform="translate(46.905 84.002)" fill="#ebebeb"/>
                <path id="Path_1147" data-name="Path 1147" d="M97.22,270.008v-.527H129.5v.527" transform="translate(-63.848 -176.979)" fill="#e0e0e0"/>
                <rect id="Rectangle_2242" data-name="Rectangle 2242" width="2.456" height="5.178" transform="translate(41.516 96.965)" fill="#fafafa"/>
                <path id="Path_1148" data-name="Path 1148" d="M118.77,303.3c0,.055-3.248.1-7.252.1s-7.253-.044-7.253-.1,3.247-.1,7.253-.1,7.252.045,7.252.1" transform="translate(-68.474 -199.125)" fill="#e0e0e0"/>
                <rect id="Rectangle_2243" data-name="Rectangle 2243" width="2.456" height="5.178" transform="translate(56.148 96.965)" fill="#e0e0e0"/>
                <path id="Path_1149" data-name="Path 1149" d="M161.4,303.3c0,.055-3.247.1-7.252.1s-7.253-.044-7.253-.1,3.247-.1,7.253-.1,7.252.045,7.252.1" transform="translate(-96.469 -199.125)" fill="#e0e0e0"/>
                <rect id="Rectangle_2244" data-name="Rectangle 2244" width="2.456" height="5.178" transform="translate(56.148 107.245)" fill="#e0e0e0"/>
                <path id="Path_1150" data-name="Path 1150" d="M161.4,333.25c0,.055-3.247.1-7.252.1s-7.253-.044-7.253-.1,3.247-.1,7.253-.1,7.252.044,7.252.1" transform="translate(-96.469 -218.794)" fill="#e0e0e0"/>
                <rect id="Rectangle_2245" data-name="Rectangle 2245" width="2.456" height="5.178" transform="translate(56.148 117.836)" fill="#e0e0e0"/>
                <path id="Path_1151" data-name="Path 1151" d="M161.4,364.1c0,.055-3.247.1-7.252.1s-7.253-.044-7.253-.1,3.247-.1,7.253-.1,7.252.044,7.252.1" transform="translate(-96.469 -239.057)" fill="#e0e0e0"/>
                <rect id="Rectangle_2246" data-name="Rectangle 2246" width="2.456" height="5.178" transform="translate(56.148 128.427)" fill="#e0e0e0"/>
                <path id="Path_1152" data-name="Path 1152" d="M161.4,394.956c0,.055-3.247.1-7.252.1s-7.253-.044-7.253-.1,3.247-.1,7.253-.1,7.252.044,7.252.1" transform="translate(-96.469 -259.319)" fill="#e0e0e0"/>
                <rect id="Rectangle_2247" data-name="Rectangle 2247" width="2.456" height="5.178" transform="translate(56.148 138.715)" fill="#e0e0e0"/>
                <path id="Path_1153" data-name="Path 1153" d="M161.4,424.927c0,.055-3.247.1-7.252.1s-7.253-.044-7.253-.1,3.247-.1,7.253-.1,7.252.044,7.252.1" transform="translate(-96.469 -279.002)" fill="#e0e0e0"/>
                <rect id="Rectangle_2248" data-name="Rectangle 2248" width="2.456" height="5.178" transform="translate(56.148 149.044)" fill="#e0e0e0"/>
                <rect id="Rectangle_2249" data-name="Rectangle 2249" width="2.456" height="5.178" transform="translate(56.148 159.508)" fill="#e0e0e0"/>
                <path id="Path_1154" data-name="Path 1154" d="M161.4,455.019c0,.055-3.247.1-7.252.1s-7.253-.044-7.253-.1,3.247-.1,7.253-.1,7.252.044,7.252.1" transform="translate(-96.469 -298.765)" fill="#e0e0e0"/>
                <rect id="Rectangle_2250" data-name="Rectangle 2250" width="2.456" height="5.178" transform="translate(41.516 107.402)" fill="#fafafa"/>
                <path id="Path_1155" data-name="Path 1155" d="M118.77,333.707c0,.055-3.248.1-7.252.1s-7.253-.044-7.253-.1,3.247-.1,7.253-.1,7.252.044,7.252.1" transform="translate(-68.474 -219.094)" fill="#e0e0e0"/>
                <rect id="Rectangle_2251" data-name="Rectangle 2251" width="2.456" height="5.178" transform="translate(41.516 117.84)" fill="#fafafa"/>
                <path id="Path_1156" data-name="Path 1156" d="M118.77,364.113c0,.055-3.248.1-7.252.1s-7.253-.044-7.253-.1,3.247-.1,7.253-.1,7.252.044,7.252.1" transform="translate(-68.474 -239.063)" fill="#e0e0e0"/>
                <rect id="Rectangle_2252" data-name="Rectangle 2252" width="2.456" height="5.178" transform="translate(41.516 128.277)" fill="#fafafa"/>
                <path id="Path_1157" data-name="Path 1157" d="M118.77,394.521c0,.055-3.248.1-7.252.1s-7.253-.044-7.253-.1,3.247-.1,7.253-.1,7.252.044,7.252.1" transform="translate(-68.474 -259.033)" fill="#e0e0e0"/>
                <rect id="Rectangle_2253" data-name="Rectangle 2253" width="2.456" height="5.178" transform="translate(41.516 138.715)" fill="#fafafa"/>
                <path id="Path_1158" data-name="Path 1158" d="M118.77,424.927c0,.055-3.248.1-7.252.1s-7.253-.044-7.253-.1,3.247-.1,7.253-.1,7.252.044,7.252.1" transform="translate(-68.474 -279.002)" fill="#e0e0e0"/>
                <rect id="Rectangle_2254" data-name="Rectangle 2254" width="2.456" height="5.178" transform="translate(41.516 149.152)" fill="#fafafa"/>
                <path id="Path_1159" data-name="Path 1159" d="M118.77,455.333c0,.055-3.248.1-7.252.1s-7.253-.044-7.253-.1,3.247-.1,7.253-.1,7.252.044,7.252.1" transform="translate(-68.474 -298.971)" fill="#e0e0e0"/>
                <rect id="Rectangle_2255" data-name="Rectangle 2255" width="2.456" height="5.178" transform="translate(41.516 159.589)" fill="#fafafa"/>
                <rect id="Rectangle_2256" data-name="Rectangle 2256" width="41.819" height="132.534" transform="translate(137.459 72.06)" fill="#f5f5f5"/>
                <rect id="Rectangle_2257" data-name="Rectangle 2257" width="20.91" height="132.169" transform="translate(158.368 72.06)" fill="#ebebeb"/>
                <rect id="Rectangle_2258" data-name="Rectangle 2258" width="14.767" height="13.011" transform="translate(142.234 59.048)" fill="#f5f5f5"/>
                <rect id="Rectangle_2259" data-name="Rectangle 2259" width="3.52" height="13.011" transform="translate(153.482 59.048)" fill="#ebebeb"/>
                <path id="Path_1160" data-name="Path 1160" d="M390.3,208.476v-.759h46.528v.759" transform="translate(-256.325 -136.417)" fill="#e0e0e0"/>
                <rect id="Rectangle_2260" data-name="Rectangle 2260" width="3.54" height="7.464" transform="translate(145.714 77.735)" fill="#fafafa"/>
                <path id="Path_1161" data-name="Path 1161" d="M421.362,256.466c0,.079-4.681.142-10.454.142s-10.455-.064-10.455-.142,4.68-.143,10.455-.143,10.454.064,10.454.143" transform="translate(-262.993 -168.338)" fill="#e0e0e0"/>
                <rect id="Rectangle_2261" data-name="Rectangle 2261" width="3.54" height="7.464" transform="translate(166.805 77.735)" fill="#e0e0e0"/>
                <path id="Path_1162" data-name="Path 1162" d="M482.806,256.466c0,.079-4.681.142-10.454.142s-10.455-.064-10.455-.142,4.68-.143,10.455-.143,10.454.064,10.454.143" transform="translate(-303.346 -168.338)" fill="#e0e0e0"/>
                <rect id="Rectangle_2262" data-name="Rectangle 2262" width="3.54" height="7.464" transform="translate(166.805 92.554)" fill="#e0e0e0"/>
                <path id="Path_1163" data-name="Path 1163" d="M482.806,299.637c0,.079-4.681.142-10.454.142s-10.455-.064-10.455-.142,4.68-.142,10.455-.142,10.454.064,10.454.142" transform="translate(-303.346 -196.691)" fill="#e0e0e0"/>
                <rect id="Rectangle_2263" data-name="Rectangle 2263" width="3.54" height="7.464" transform="translate(166.805 107.819)" fill="#e0e0e0"/>
                <path id="Path_1164" data-name="Path 1164" d="M482.806,344.11c0,.079-4.681.142-10.454.142s-10.455-.064-10.455-.142,4.68-.142,10.455-.142,10.454.064,10.454.142" transform="translate(-303.346 -225.898)" fill="#e0e0e0"/>
                <rect id="Rectangle_2264" data-name="Rectangle 2264" width="3.54" height="7.464" transform="translate(166.805 123.085)" fill="#e0e0e0"/>
                <path id="Path_1165" data-name="Path 1165" d="M482.806,388.584c0,.079-4.681.142-10.454.142s-10.455-.064-10.455-.142,4.68-.142,10.455-.142,10.454.064,10.454.142" transform="translate(-303.346 -255.106)" fill="#e0e0e0"/>
                <rect id="Rectangle_2265" data-name="Rectangle 2265" width="3.54" height="7.464" transform="translate(166.805 137.915)" fill="#e0e0e0"/>
                <path id="Path_1166" data-name="Path 1166" d="M482.806,431.786c0,.079-4.681.142-10.454.142s-10.455-.064-10.455-.142,4.68-.142,10.455-.142,10.454.064,10.454.142" transform="translate(-303.346 -283.478)" fill="#e0e0e0"/>
                <rect id="Rectangle_2266" data-name="Rectangle 2266" width="3.54" height="7.464" transform="translate(166.805 152.804)" fill="#e0e0e0"/>
                <rect id="Rectangle_2267" data-name="Rectangle 2267" width="3.54" height="7.464" transform="translate(166.805 167.888)" fill="#e0e0e0"/>
                <path id="Path_1167" data-name="Path 1167" d="M482.806,475.162c0,.079-4.681.142-10.454.142s-10.455-.064-10.455-.142,4.68-.142,10.455-.142,10.454.064,10.454.142" transform="translate(-303.346 -311.965)" fill="#e0e0e0"/>
                <rect id="Rectangle_2268" data-name="Rectangle 2268" width="3.54" height="7.464" transform="translate(145.714 92.779)" fill="#fafafa"/>
                <path id="Path_1168" data-name="Path 1168" d="M421.362,300.3c0,.079-4.681.142-10.454.142s-10.455-.064-10.455-.142,4.68-.142,10.455-.142,10.454.064,10.454.142" transform="translate(-262.993 -197.123)" fill="#e0e0e0"/>
                <rect id="Rectangle_2269" data-name="Rectangle 2269" width="3.54" height="7.464" transform="translate(145.714 107.824)" fill="#fafafa"/>
                <path id="Path_1169" data-name="Path 1169" d="M421.362,344.126c0,.079-4.681.142-10.454.142s-10.455-.064-10.455-.142,4.68-.142,10.455-.142,10.454.064,10.454.142" transform="translate(-262.993 -225.908)" fill="#e0e0e0"/>
                <rect id="Rectangle_2270" data-name="Rectangle 2270" width="3.54" height="7.464" transform="translate(145.714 122.87)" fill="#fafafa"/>
                <path id="Path_1170" data-name="Path 1170" d="M421.362,387.956c0,.079-4.681.142-10.454.142s-10.455-.064-10.455-.142,4.68-.142,10.455-.142,10.454.064,10.454.142" transform="translate(-262.993 -254.693)" fill="#e0e0e0"/>
                <rect id="Rectangle_2271" data-name="Rectangle 2271" width="3.54" height="7.464" transform="translate(145.714 137.915)" fill="#fafafa"/>
                <path id="Path_1171" data-name="Path 1171" d="M421.362,431.786c0,.079-4.681.142-10.454.142s-10.455-.064-10.455-.142,4.68-.142,10.455-.142,10.454.064,10.454.142" transform="translate(-262.993 -283.478)" fill="#e0e0e0"/>
                <rect id="Rectangle_2272" data-name="Rectangle 2272" width="3.54" height="7.464" transform="translate(145.714 152.96)" fill="#fafafa"/>
                <path id="Path_1172" data-name="Path 1172" d="M421.362,475.616c0,.079-4.681.142-10.454.142s-10.455-.064-10.455-.142,4.68-.143,10.455-.143,10.454.064,10.454.143" transform="translate(-262.993 -312.263)" fill="#e0e0e0"/>
                <rect id="Rectangle_2273" data-name="Rectangle 2273" width="3.54" height="7.464" transform="translate(145.714 168.005)" fill="#fafafa"/>
                <rect id="Rectangle_2274" data-name="Rectangle 2274" width="22.847" height="72.408" transform="translate(171.188 132.18)" fill="#f5f5f5"/>
                <rect id="Rectangle_2275" data-name="Rectangle 2275" width="11.424" height="72.209" transform="translate(182.612 132.18)" fill="#ebebeb"/>
                <rect id="Rectangle_2276" data-name="Rectangle 2276" width="8.068" height="7.109" transform="translate(173.797 125.072)" fill="#f5f5f5"/>
                <rect id="Rectangle_2277" data-name="Rectangle 2277" width="1.923" height="7.109" transform="translate(179.942 125.072)" fill="#ebebeb"/>
                <path id="Path_1173" data-name="Path 1173" d="M493.166,384.281v-.415h25.42v.415" transform="translate(-323.882 -252.101)" fill="#e0e0e0"/>
                <rect id="Rectangle_2278" data-name="Rectangle 2278" width="1.934" height="4.078" transform="translate(175.698 135.281)" fill="#fafafa"/>
                <path id="Path_1174" data-name="Path 1174" d="M510.137,410.5c0,.043-2.558.078-5.711.078s-5.712-.035-5.712-.078,2.557-.078,5.712-.078,5.711.035,5.711.078" transform="translate(-327.525 -269.541)" fill="#e0e0e0"/>
                <rect id="Rectangle_2279" data-name="Rectangle 2279" width="1.934" height="4.078" transform="translate(187.221 135.281)" fill="#e0e0e0"/>
                <path id="Path_1175" data-name="Path 1175" d="M543.707,410.5c0,.043-2.558.078-5.712.078s-5.712-.035-5.712-.078,2.557-.078,5.712-.078,5.712.035,5.712.078" transform="translate(-349.572 -269.541)" fill="#e0e0e0"/>
                <rect id="Rectangle_2280" data-name="Rectangle 2280" width="1.934" height="4.078" transform="translate(187.221 143.377)" fill="#e0e0e0"/>
                <path id="Path_1176" data-name="Path 1176" d="M543.707,434.086c0,.043-2.558.078-5.712.078s-5.712-.035-5.712-.078,2.557-.078,5.712-.078,5.712.035,5.712.078" transform="translate(-349.572 -285.031)" fill="#e0e0e0"/>
                <rect id="Rectangle_2281" data-name="Rectangle 2281" width="1.934" height="4.078" transform="translate(187.221 151.717)" fill="#e0e0e0"/>
                <path id="Path_1177" data-name="Path 1177" d="M543.707,458.384c0,.043-2.558.078-5.712.078s-5.712-.035-5.712-.078,2.557-.078,5.712-.078,5.712.035,5.712.078" transform="translate(-349.572 -300.988)" fill="#e0e0e0"/>
                <rect id="Rectangle_2282" data-name="Rectangle 2282" width="1.934" height="4.078" transform="translate(187.221 160.058)" fill="#e0e0e0"/>
                <path id="Path_1178" data-name="Path 1178" d="M543.707,482.682c0,.043-2.558.078-5.712.078s-5.712-.035-5.712-.078,2.557-.078,5.712-.078,5.712.035,5.712.078" transform="translate(-349.572 -316.946)" fill="#e0e0e0"/>
                <rect id="Rectangle_2283" data-name="Rectangle 2283" width="1.934" height="4.078" transform="translate(187.221 168.16)" fill="#e0e0e0"/>
                <path id="Path_1179" data-name="Path 1179" d="M543.707,506.284c0,.043-2.558.078-5.712.078s-5.712-.035-5.712-.078,2.557-.078,5.712-.078,5.712.035,5.712.078" transform="translate(-349.572 -332.446)" fill="#e0e0e0"/>
                <rect id="Rectangle_2284" data-name="Rectangle 2284" width="1.934" height="4.078" transform="translate(187.221 176.294)" fill="#e0e0e0"/>
                <rect id="Rectangle_2285" data-name="Rectangle 2285" width="1.934" height="4.078" transform="translate(187.221 184.535)" fill="#e0e0e0"/>
                <path id="Path_1180" data-name="Path 1180" d="M543.707,529.981c0,.043-2.558.078-5.712.078s-5.712-.035-5.712-.078,2.557-.078,5.712-.078,5.712.035,5.712.078" transform="translate(-349.572 -348.009)" fill="#e0e0e0"/>
                <rect id="Rectangle_2286" data-name="Rectangle 2286" width="1.934" height="4.078" transform="translate(175.698 143.501)" fill="#fafafa"/>
                <path id="Path_1181" data-name="Path 1181" d="M510.137,434.446c0,.043-2.558.078-5.711.078s-5.712-.035-5.712-.078,2.557-.078,5.712-.078,5.711.035,5.711.078" transform="translate(-327.525 -285.267)" fill="#e0e0e0"/>
                <rect id="Rectangle_2287" data-name="Rectangle 2287" width="1.934" height="4.078" transform="translate(175.698 151.72)" fill="#fafafa"/>
                <path id="Path_1182" data-name="Path 1182" d="M510.137,458.392c0,.043-2.558.078-5.711.078s-5.712-.035-5.712-.078,2.557-.078,5.712-.078,5.711.035,5.711.078" transform="translate(-327.525 -300.993)" fill="#e0e0e0"/>
                <rect id="Rectangle_2288" data-name="Rectangle 2288" width="1.934" height="4.078" transform="translate(175.698 159.94)" fill="#fafafa"/>
                <path id="Path_1183" data-name="Path 1183" d="M510.137,482.338c0,.043-2.558.078-5.711.078s-5.712-.035-5.712-.078,2.557-.078,5.712-.078,5.711.035,5.711.078" transform="translate(-327.525 -316.72)" fill="#e0e0e0"/>
                <rect id="Rectangle_2289" data-name="Rectangle 2289" width="1.934" height="4.078" transform="translate(175.698 168.16)" fill="#fafafa"/>
                <path id="Path_1184" data-name="Path 1184" d="M510.137,506.284c0,.043-2.558.078-5.711.078s-5.712-.035-5.712-.078,2.557-.078,5.712-.078,5.711.035,5.711.078" transform="translate(-327.525 -332.446)" fill="#e0e0e0"/>
                <rect id="Rectangle_2290" data-name="Rectangle 2290" width="1.934" height="4.078" transform="translate(175.698 176.379)" fill="#fafafa"/>
                <path id="Path_1185" data-name="Path 1185" d="M510.137,530.231c0,.043-2.558.078-5.711.078s-5.712-.035-5.712-.078,2.557-.078,5.712-.078,5.711.035,5.711.078" transform="translate(-327.525 -348.173)" fill="#e0e0e0"/>
                <rect id="Rectangle_2291" data-name="Rectangle 2291" width="1.934" height="4.078" transform="translate(175.698 184.599)" fill="#fafafa"/>
                <rect id="Rectangle_2292" data-name="Rectangle 2292" width="24.597" height="46.682" transform="translate(54.858 157.906)" fill="#e0e0e0"/>
                <rect id="Rectangle_2293" data-name="Rectangle 2293" width="11.533" height="46.682" transform="translate(67.923 157.906)" fill="#ebebeb"/>
                <rect id="Rectangle_2294" data-name="Rectangle 2294" width="2.212" height="5.373" transform="translate(60.016 162.299)" fill="#f5f5f5"/>
                <rect id="Rectangle_2295" data-name="Rectangle 2295" width="2.212" height="5.373" transform="translate(60.016 183.329)" fill="#f5f5f5"/>
                <path id="Path_1186" data-name="Path 1186" d="M172.88,494.454c0,.046-2.925.084-6.532.084s-6.532-.037-6.532-.084,2.924-.084,6.532-.084,6.532.037,6.532.084" transform="translate(-104.958 -324.673)" fill="#f5f5f5"/>
                <rect id="Rectangle_2296" data-name="Rectangle 2296" width="2.212" height="5.373" transform="translate(60.016 172.894)" fill="#f5f5f5"/>
                <path id="Path_1187" data-name="Path 1187" d="M172.88,525.319c0,.046-2.925.084-6.532.084s-6.532-.037-6.532-.084,2.924-.084,6.532-.084,6.532.037,6.532.084" transform="translate(-104.958 -344.943)" fill="#f5f5f5"/>
                <rect id="Rectangle_2297" data-name="Rectangle 2297" width="2.212" height="5.373" transform="translate(70.372 162.299)" fill="#e0e0e0"/>
                <rect id="Rectangle_2298" data-name="Rectangle 2298" width="2.212" height="5.373" transform="translate(75.17 162.299)" fill="#e0e0e0"/>
                <rect id="Rectangle_2299" data-name="Rectangle 2299" width="2.212" height="5.373" transform="translate(70.372 172.495)" fill="#e0e0e0"/>
                <rect id="Rectangle_2300" data-name="Rectangle 2300" width="2.212" height="5.373" transform="translate(75.17 172.495)" fill="#e0e0e0"/>
                <rect id="Rectangle_2301" data-name="Rectangle 2301" width="2.212" height="5.373" transform="translate(70.372 182.691)" fill="#e0e0e0"/>
                <rect id="Rectangle_2302" data-name="Rectangle 2302" width="2.212" height="5.373" transform="translate(75.17 182.691)" fill="#e0e0e0"/>
                <rect id="Rectangle_2303" data-name="Rectangle 2303" width="28.296" height="1.17" transform="translate(53.009 156.777)" fill="#e0e0e0"/>
                <path id="Path_1188" data-name="Path 1188" d="M184.99,460.3c0,.046-5.5.084-12.278.084s-12.279-.037-12.279-.084,5.5-.084,12.279-.084,12.278.037,12.278.084" transform="translate(-105.363 -302.243)" fill="#ebebeb"/>
                <path id="Path_1189" data-name="Path 1189" d="M84.513,476.139H44.9l-.173-62.608H84.341Z" transform="translate(-29.373 -271.582)" fill="#ebebeb"/>
                <rect id="Rectangle_2304" data-name="Rectangle 2304" width="19.807" height="62.609" transform="translate(35.16 141.948)" fill="#e0e0e0"/>
                <rect id="Rectangle_2305" data-name="Rectangle 2305" width="13.989" height="12.325" transform="translate(19.876 129.623)" fill="#ebebeb"/>
                <rect id="Rectangle_2306" data-name="Rectangle 2306" width="3.334" height="12.325" transform="translate(30.531 129.623)" fill="#e0e0e0"/>
                <rect id="Rectangle_2307" data-name="Rectangle 2307" width="44.075" height="0.719" transform="translate(12.052 141.229)" fill="#e0e0e0"/>
                <rect id="Rectangle_2308" data-name="Rectangle 2308" width="3.353" height="7.07" transform="translate(23.172 147.324)" fill="#fff"/>
                <path id="Path_1190" data-name="Path 1190" d="M64.534,457.616c0,.075-4.434.135-9.9.135s-9.9-.06-9.9-.135,4.433-.135,9.9-.135,9.9.06,9.9.135" transform="translate(-29.374 -300.446)" fill="#e0e0e0"/>
                <rect id="Rectangle_2309" data-name="Rectangle 2309" width="3.353" height="7.07" transform="translate(43.152 147.324)" fill="#f5f5f5"/>
                <path id="Path_1191" data-name="Path 1191" d="M122.739,457.616c0,.075-4.434.135-9.9.135s-9.9-.06-9.9-.135,4.433-.135,9.9-.135,9.9.06,9.9.135" transform="translate(-67.6 -300.446)" fill="#ebebeb"/>
                <rect id="Rectangle_2310" data-name="Rectangle 2310" width="3.353" height="7.07" transform="translate(43.152 161.362)" fill="#f5f5f5"/>
                <path id="Path_1192" data-name="Path 1192" d="M122.739,498.511c0,.075-4.434.135-9.9.135s-9.9-.06-9.9-.135,4.433-.135,9.9-.135,9.9.06,9.9.135" transform="translate(-67.6 -327.304)" fill="#ebebeb"/>
                <rect id="Rectangle_2311" data-name="Rectangle 2311" width="3.353" height="7.071" transform="translate(43.152 175.823)" fill="#f5f5f5"/>
                <path id="Path_1193" data-name="Path 1193" d="M122.739,540.64c0,.075-4.434.135-9.9.135s-9.9-.06-9.9-.135,4.433-.135,9.9-.135,9.9.06,9.9.135" transform="translate(-67.6 -354.972)" fill="#ebebeb"/>
                <rect id="Rectangle_2312" data-name="Rectangle 2312" width="3.353" height="7.07" transform="translate(43.152 190.284)" fill="#f5f5f5"/>
                <path id="Path_1194" data-name="Path 1194" d="M122.739,582.769c0,.075-4.434.135-9.9.135s-9.9-.06-9.9-.135,4.433-.135,9.9-.135,9.9.061,9.9.135" transform="translate(-67.6 -382.639)" fill="#ebebeb"/>
                <rect id="Rectangle_2313" data-name="Rectangle 2313" width="3.353" height="7.07" transform="translate(23.172 161.576)" fill="#fff"/>
                <path id="Path_1195" data-name="Path 1195" d="M64.534,499.135c0,.075-4.434.135-9.9.135s-9.9-.06-9.9-.135,4.433-.135,9.9-.135,9.9.06,9.9.135" transform="translate(-29.374 -327.714)" fill="#e0e0e0"/>
                <rect id="Rectangle_2314" data-name="Rectangle 2314" width="3.353" height="7.07" transform="translate(23.172 175.828)" fill="#fff"/>
                <path id="Path_1196" data-name="Path 1196" d="M64.534,540.655c0,.075-4.434.135-9.9.135s-9.9-.06-9.9-.135,4.433-.135,9.9-.135,9.9.06,9.9.135" transform="translate(-29.374 -354.982)" fill="#e0e0e0"/>
                <rect id="Rectangle_2315" data-name="Rectangle 2315" width="3.353" height="7.07" transform="translate(23.172 190.08)" fill="#fff"/>
                <path id="Path_1197" data-name="Path 1197" d="M64.534,582.174c0,.074-4.434.135-9.9.135s-9.9-.06-9.9-.135,4.433-.135,9.9-.135,9.9.06,9.9.135" transform="translate(-29.374 -382.249)" fill="#e0e0e0"/>
                <path id="Path_1198" data-name="Path 1198" d="M636.027,296.354c.286-2.081-2.65-3.792-4.856-3.969a12.507,12.507,0,0,1-3.142-.272c-2.159-.753-3.022-3.543-5.129-4.431-1.576-.664-3.389-.073-4.916.7s-3.036,1.736-4.743,1.845c-1.484.095-3.1-.456-4.394.269-.967.54-1.475,1.655-2.366,2.313a5.643,5.643,0,0,1-3.093.839,8.713,8.713,0,0,0-3.189.521,2.521,2.521,0,0,0-1.6,2.558Z" transform="translate(-393.105 -188.744)" fill="#f5f5f5"/>
                <rect id="Rectangle_2316" data-name="Rectangle 2316" width="31.868" height="22.91" transform="translate(219.833 181.678)" fill="#ebebeb"/>
                <path id="Path_1199" data-name="Path 1199" d="M660.814,529.274c.045,0,0,4.837,0,4.837h-2.359v-4.837Z" transform="translate(-432.434 -347.596)" fill="#f5f5f5"/>
                <rect id="Rectangle_2317" data-name="Rectangle 2317" width="15.934" height="22.91" transform="translate(235.766 181.678)" fill="#e0e0e0"/>
                <rect id="Rectangle_2318" data-name="Rectangle 2318" width="4.266" height="3.019" transform="translate(220.804 200.103)" fill="#fff"/>
                <rect id="Rectangle_2319" data-name="Rectangle 2319" width="2.133" height="3.019" transform="translate(225.857 200.103)" fill="#fff"/>
                <rect id="Rectangle_2320" data-name="Rectangle 2320" width="20.75" height="14.917" transform="translate(227.924 166.761)" fill="#ebebeb"/>
                <path id="Path_1200" data-name="Path 1200" d="M677.272,485.816c.029,0,0,3.15,0,3.15h-1.536v-3.15Z" transform="translate(-443.783 -319.055)" fill="#f5f5f5"/>
                <rect id="Rectangle_2321" data-name="Rectangle 2321" width="2.778" height="1.966" transform="translate(228.556 178.758)" fill="#fff"/>
                <rect id="Rectangle_2322" data-name="Rectangle 2322" width="1.389" height="1.966" transform="translate(231.846 178.758)" fill="#fff"/>
                <path id="Path_1201" data-name="Path 1201" d="M65.966,187.293c.162-1.178-1.5-2.147-2.75-2.248a7.079,7.079,0,0,1-1.779-.154c-1.223-.426-1.711-2.006-2.9-2.51a3.416,3.416,0,0,0-2.784.394,7.276,7.276,0,0,1-2.686,1.045c-.84.054-1.753-.258-2.488.152-.548.306-.835.937-1.34,1.31a3.194,3.194,0,0,1-1.752.475,4.937,4.937,0,0,0-1.806.3,1.427,1.427,0,0,0-.9,1.449Z" transform="translate(-29.392 -119.671)" fill="#ebebeb"/>
                <path id="Path_1202" data-name="Path 1202" d="M684.973,257.2c.158-1.149-1.464-2.095-2.682-2.193a6.911,6.911,0,0,1-1.736-.15c-1.193-.416-1.669-1.957-2.833-2.448a3.331,3.331,0,0,0-2.715.384,7.087,7.087,0,0,1-2.62,1.02c-.82.052-1.71-.252-2.427.149-.534.3-.814.914-1.307,1.278a3.121,3.121,0,0,1-1.709.463,4.8,4.8,0,0,0-1.761.288,1.391,1.391,0,0,0-.882,1.413Z" transform="translate(-436.261 -165.666)" fill="#ebebeb"/>
                <path id="Path_1203" data-name="Path 1203" d="M138.734,200.518c.3-2.152-2.741-3.922-5.023-4.106a12.924,12.924,0,0,1-3.25-.281c-2.234-.778-3.126-3.664-5.305-4.584-1.629-.688-3.506-.076-5.085.719s-3.141,1.8-4.906,1.909c-1.535.1-3.2-.471-4.545.279-1,.559-1.525,1.712-2.448,2.393a5.841,5.841,0,0,1-3.2.867,9.018,9.018,0,0,0-3.3.539,2.607,2.607,0,0,0-1.651,2.646Z" transform="translate(-65.667 -125.602)" fill="#f5f5f5"/>
                <path id="Path_1204" data-name="Path 1204" d="M284.984,595.846c0,.05-52.415.09-117.058.09-64.665,0-117.069-.04-117.069-.09s52.4-.089,117.069-.089c64.642,0,117.058.04,117.058.089" transform="translate(-33.4 -391.258)" fill="#263238"/>
                <path id="Path_1205" data-name="Path 1205" d="M321.514,554.143a2.78,2.78,0,0,1,1.759,1.286,4.91,4.91,0,0,1,.662,2.12,8.672,8.672,0,0,1-.948,4.338,5.873,5.873,0,0,1-2.358-3.413c-.447-1.427-.389-4.279.884-4.331" transform="translate(-210.404 -363.928)" fill="#5bdb98"/>
                <path id="Path_1206" data-name="Path 1206" d="M333.073,575.677a2.373,2.373,0,0,1,.265-2.369,3.151,3.151,0,0,1,2.116-1.209,1.329,1.329,0,0,1,1.1.228,1.016,1.016,0,0,1,.236,1,2.057,2.057,0,0,1-.583.9,4.082,4.082,0,0,1-3.129,1.452" transform="translate(-218.608 -375.705)" fill="#5bdb98"/>
                <path id="Path_1207" data-name="Path 1207" d="M331.7,583.3a1.677,1.677,0,0,1-.021-.3c-.007-.211-.017-.483-.028-.811a8.337,8.337,0,0,1,.257-2.665,5.1,5.1,0,0,1,1.369-2.291,3.46,3.46,0,0,1,.657-.482,1.962,1.962,0,0,1,.2-.1.237.237,0,0,1,.072-.027,5.44,5.44,0,0,0-.877.662A5.265,5.265,0,0,0,332,579.56a8.978,8.978,0,0,0-.283,2.634c0,.342,0,.619,0,.811a1.6,1.6,0,0,1-.02.3" transform="translate(-217.801 -378.697)" fill="#263238"/>
                <path id="Path_1208" data-name="Path 1208" d="M324.118,560.48a.628.628,0,0,1,.042.122c.026.092.059.211.1.357.086.311.2.761.346,1.319.284,1.116.654,2.663,1.024,4.381s.669,3.281.87,4.414c.1.567.178,1.027.228,1.345l.055.367a.581.581,0,0,1,.012.129.6.6,0,0,1-.033-.126l-.074-.363c-.064-.329-.152-.783-.26-1.338-.22-1.13-.53-2.689-.9-4.406s-.728-3.265-.993-4.385l-.313-1.327c-.033-.148-.06-.268-.082-.361a.619.619,0,0,1-.022-.128" transform="translate(-212.861 -368.09)" fill="#263238"/>
                <path id="Path_1209" data-name="Path 1209" d="M318.112,579.891a5.555,5.555,0,0,0-3.836-3.322,1.171,1.171,0,0,0-1.239.252,1.15,1.15,0,0,0,.177,1.251,4.746,4.746,0,0,0,4.895,1.941" transform="translate(-205.502 -378.615)" fill="#5bdb98"/>
                <path id="Path_1210" data-name="Path 1210" d="M318.295,580.436a1.39,1.39,0,0,1,.275.054,2.718,2.718,0,0,1,.317.089c.12.043.263.079.41.147a4.858,4.858,0,0,1,.481.22,5.457,5.457,0,0,1,.527.3,6.166,6.166,0,0,1,1.07.888,6.044,6.044,0,0,1,.823,1.122,5.238,5.238,0,0,1,.266.546,4.433,4.433,0,0,1,.183.5,4.024,4.024,0,0,1,.113.421,2.415,2.415,0,0,1,.061.323,1.43,1.43,0,0,1,.03.278c-.023,0-.069-.394-.274-1a4.836,4.836,0,0,0-.193-.484,5.62,5.62,0,0,0-.27-.534,6.319,6.319,0,0,0-.815-1.1,6.44,6.44,0,0,0-1.047-.879,5.811,5.811,0,0,0-.514-.306c-.163-.094-.324-.162-.469-.228-.587-.252-.979-.336-.973-.358" transform="translate(-209.037 -381.195)" fill="#263238"/>
                <path id="Path_1211" data-name="Path 1211" d="M632.052,566.179a1.528,1.528,0,0,0-.57-1.374,3.813,3.813,0,0,1-1-1.175c-.312-.782.108-1.8-.425-2.449-.313-.384-.875-.512-1.152-.922a2.105,2.105,0,0,1-.25-.733,7.447,7.447,0,0,0-1.852-3.466,6.46,6.46,0,0,0,.727,3.34,4.238,4.238,0,0,1,.552,1.268c.116.744-.3,1.51-.116,2.241.209.835,1.147,1.394,1.192,2.254.038.727-.6,1.365-.549,2.091a1.963,1.963,0,0,0,.323.862,2.886,2.886,0,0,0,2.639,1.557l1.533.054Z" transform="translate(-411.637 -365.187)" fill="#5bdb98"/>
                <g id="Group_1119" data-name="Group 1119" transform="translate(215.152 190.873)" opacity="0.3">
                    <g id="Group_1118" data-name="Group 1118">
                        <g id="Group_1117" data-name="Group 1117" clip-path="url(#clip-path-3)">
                            <path id="Path_1212" data-name="Path 1212" d="M632.052,566.179a1.528,1.528,0,0,0-.57-1.374,3.813,3.813,0,0,1-1-1.175c-.312-.782.108-1.8-.425-2.449-.313-.384-.875-.512-1.152-.922a2.105,2.105,0,0,1-.25-.733,7.447,7.447,0,0,0-1.852-3.466,6.46,6.46,0,0,0,.727,3.34,4.238,4.238,0,0,1,.552,1.268c.116.744-.3,1.51-.116,2.241.209.835,1.147,1.394,1.192,2.254.038.727-.6,1.365-.549,2.091a1.963,1.963,0,0,0,.323.862,2.886,2.886,0,0,0,2.639,1.557l1.533.054Z" transform="translate(-626.788 -556.06)"/>
                        </g>
                    </g>
                </g>
                <path id="Path_1213" data-name="Path 1213" d="M644.588,559.693a1.228,1.228,0,0,0,.422-.009,2.563,2.563,0,0,0,.5-.126,2.118,2.118,0,0,0,.615-.337.857.857,0,0,0,.253-.337,1.57,1.57,0,0,0,.072-.458,4.437,4.437,0,0,1,.036-.5,1.364,1.364,0,0,1,.188-.493,3.757,3.757,0,0,0,.578-1.049,3.468,3.468,0,0,0-.042-1.344,2.85,2.85,0,0,1,.036-1.44c.164-.479.5-.912.669-1.453a7.356,7.356,0,0,0,.125-1.712,2.277,2.277,0,0,1,.2-.851c.124-.271.3-.527.43-.813a5.948,5.948,0,0,0,.395-1.873q.054-.484.11-.979a4.8,4.8,0,0,1,.17-.981,8.611,8.611,0,0,1,.367-.948,3.166,3.166,0,0,0,.178-.5,5.044,5.044,0,0,0,.049-.527,6.257,6.257,0,0,0-.041-1.061c-.042-.354-.105-.7-.143-1.059,0-.021,0-.042-.007-.061l-.008-.071-.063.032a2.367,2.367,0,0,0-.825.7,3.755,3.755,0,0,0-.507.934,11.51,11.51,0,0,0-.478,2.008,5.455,5.455,0,0,1-.629,1.854c-.168.273-.371.522-.549.788a2.174,2.174,0,0,0-.38.874c-.091.648.267,1.218.192,1.792a1.99,1.99,0,0,1-.279.8c-.139.245-.3.472-.458.7a4.442,4.442,0,0,0-.411.707,2.237,2.237,0,0,0-.188.768c-.037.517.036,1.007,0,1.47a3.385,3.385,0,0,1-.378,1.26c-.185.377-.392.718-.564,1.049a5.324,5.324,0,0,0-.233.488,2.4,2.4,0,0,0-.134.485,3.057,3.057,0,0,0-.012.875,2.207,2.207,0,0,0,.439,1.116,1.085,1.085,0,0,0,.124.134.6.6,0,0,0,.1.085c.057.042.087.061.087.061a1.933,1.933,0,0,1-.3-.293,2.22,2.22,0,0,1-.416-1.108,3.041,3.041,0,0,1,.02-.862,2.36,2.36,0,0,1,.136-.473,5.341,5.341,0,0,1,.234-.482c.174-.328.382-.667.572-1.047a3.436,3.436,0,0,0,.392-1.282c.04-.473-.031-.965.008-1.469a2.154,2.154,0,0,1,.185-.742,4.4,4.4,0,0,1,.407-.693c.155-.227.32-.454.463-.7a2.063,2.063,0,0,0,.292-.828c.074-.612-.28-1.185-.188-1.788a2.075,2.075,0,0,1,.367-.835c.175-.262.379-.511.552-.791a5.538,5.538,0,0,0,.644-1.885,11.5,11.5,0,0,1,.474-1.991,3.658,3.658,0,0,1,.494-.91,2.272,2.272,0,0,1,.79-.668l-.071-.039c0,.019,0,.041.007.062.039.358.1.71.144,1.059a6.106,6.106,0,0,1,.04,1.045,4.958,4.958,0,0,1-.047.511,3.082,3.082,0,0,1-.172.478,8.692,8.692,0,0,0-.369.959,4.892,4.892,0,0,0-.173,1q-.055.495-.109.98a5.884,5.884,0,0,1-.383,1.845c-.129.278-.3.534-.429.814a2.355,2.355,0,0,0-.206.883,7.35,7.35,0,0,1-.116,1.694c-.159.521-.493.957-.663,1.451a2.918,2.918,0,0,0-.033,1.475,3.439,3.439,0,0,1,.05,1.319,3.754,3.754,0,0,1-.565,1.036,1.414,1.414,0,0,0-.19.513,4.435,4.435,0,0,0-.032.5,1.554,1.554,0,0,1-.065.445.826.826,0,0,1-.238.323,2.108,2.108,0,0,1-.6.338,2.594,2.594,0,0,1-.491.133,1.944,1.944,0,0,1-.312.03c-.071,0-.107,0-.107,0" transform="translate(-422.816 -355.113)" fill="#263238"/>
                <path id="Path_1214" data-name="Path 1214" d="M650.916,543.385a.168.168,0,0,0-.015.047l-.034.138c-.03.121-.066.3-.124.531s-.2.484-.318.8-.249.678-.364,1.087-.22.863-.329,1.349a5.678,5.678,0,0,1-.491,1.5c-.126.249-.267.5-.38.777a3.632,3.632,0,0,0-.221.879,17.763,17.763,0,0,1-.33,1.855l-.867,3.542c-.273,1.085-.519,2.064-.726,2.888l-.482,1.95-.126.531c-.012.056-.022.1-.03.138a.169.169,0,0,0-.007.048.161.161,0,0,0,.017-.045l.04-.137.144-.526c.123-.466.3-1.128.512-1.942l.747-2.883.875-3.543a17.479,17.479,0,0,0,.33-1.862,3.532,3.532,0,0,1,.213-.859c.108-.268.247-.519.373-.771a5.72,5.72,0,0,0,.489-1.52c.105-.487.2-.94.316-1.348s.23-.772.348-1.086.247-.576.3-.81.082-.414.107-.537c.01-.057.018-.1.024-.14a.171.171,0,0,0,.005-.049" transform="translate(-424.302 -356.863)" fill="#263238"/>
                <path id="Path_1215" data-name="Path 1215" d="M636.266,550.406c1-.595,1.289-2.4.871-3.489a13.044,13.044,0,0,1-1.261-3.24,19.727,19.727,0,0,0,0-2.676c-.28-1.175-1.427-2.086-1.414-3.294.008-.679.393-1.316.363-1.994a5.62,5.62,0,0,0-1.07-2.221,11.582,11.582,0,0,1-.851-3.7,4.314,4.314,0,0,0-1.8-3.219,12.107,12.107,0,0,0-.357,3.242,21.659,21.659,0,0,1,.716,2.649c.049.68.083,1.36.125,2.04a6.533,6.533,0,0,0,.32,1.955c.182.475.474.906.609,1.4.254.921-.08,1.919.125,2.852.174.791.721,1.472.833,2.274.157,1.127-.572,2.3-.2,3.373a15.259,15.259,0,0,1,.749,1.513c.1.427-.009.88.079,1.309.141.692,1.46,1.228,2.165,1.186" transform="translate(-414.225 -345.823)" fill="#5bdb98"/>
                <path id="Path_1216" data-name="Path 1216" d="M632.62,529.659a.287.287,0,0,0,0,.06c.006.045.013.1.023.175.023.154.049.38.1.673s.208.625.328,1.024.255.857.367,1.371.21,1.082.31,1.694a7.118,7.118,0,0,0,.513,1.915c.141.32.3.64.416.981a4.418,4.418,0,0,1,.211,1.082,21.837,21.837,0,0,0,.294,2.332c.307,1.58.6,3.085.865,4.455l.745,3.628.511,2.444.144.664.04.172a.285.285,0,0,0,.017.058.273.273,0,0,0-.007-.06l-.031-.174-.125-.667-.48-2.451-.725-3.632-.856-4.453a22.1,22.1,0,0,1-.295-2.325,4.484,4.484,0,0,0-.218-1.1c-.122-.348-.281-.67-.422-.988a7.059,7.059,0,0,1-.516-1.892c-.1-.611-.2-1.181-.323-1.7s-.25-.975-.383-1.373-.283-.729-.343-1.015-.09-.515-.119-.667c-.013-.072-.024-.129-.032-.174a.281.281,0,0,0-.014-.059" transform="translate(-415.466 -347.849)" fill="#263238"/>
                <rect id="Rectangle_2324" data-name="Rectangle 2324" width="152.432" height="15.233" transform="translate(40.379 159.283)" fill="#5bdb98"/>
                <g id="Group_1122" data-name="Group 1122" transform="translate(40.379 159.283)" opacity="0.4">
                    <g id="Group_1121" data-name="Group 1121">
                        <g id="Group_1120" data-name="Group 1120" clip-path="url(#clip-path-4)">
                            <rect id="Rectangle_2325" data-name="Rectangle 2325" width="152.432" height="15.233" transform="translate(0)"/>
                        </g>
                    </g>
                </g>
                <rect id="Rectangle_2327" data-name="Rectangle 2327" width="44.996" height="14.109" transform="translate(114.792 176.441)" fill="#455a64"/>
                <path id="Path_1217" data-name="Path 1217" d="M242.813,495.421v18.651h15.362l6.158-8.926H376.515v-9.725Z" transform="translate(-159.465 -325.363)" fill="#263238"/>
                <path id="Path_1218" data-name="Path 1218" d="M114.365,321.312a1.143,1.143,0,0,0-1.187-1.08c-6.071.25-34.9,1.572-40.827,4.421-4.536,2.181-9.508,10.332-13.013,15.82-2.512,3.933-8.063,12.668-9.186,17.132a79.457,79.457,0,0,0-1.458,15.528l1.586,20.613H76.406l2.616-6.808a11.5,11.5,0,0,1,10.731-7.373h25.961v-34.21Z" transform="translate(-31.976 -210.309)" fill="#5bdb98"/>
                <path id="Path_1219" data-name="Path 1219" d="M72.508,339.759c-3.6,3.432-7.2,9.282-9.916,13.539-2.326,3.642-7.256,11.4-8.866,16.072-.03.087-.055.169-.082.254a3.976,3.976,0,0,0,2.4-1.423c.573-1.145,1.308-5.059,10.388-19.845,2.767-4.5,5.46-7.142,6.08-8.6" transform="translate(-35.229 -223.134)" fill="#455a64"/>
                <path id="Path_1220" data-name="Path 1220" d="M117.72,335.306c-6.68.381-21.161,1.358-25.788,2.944-6.028,2.067-12.793,18.018-13.113,18.718l-4.561,11.667a.509.509,0,0,0,.484.67H86.525a3.729,3.729,0,0,0,1.3-.235l31-11.548a3.584,3.584,0,0,0,2.332-3.358V338.555a3.253,3.253,0,0,0-3.439-3.25" transform="translate(-48.75 -220.205)" fill="#263238"/>
                <path id="Path_1221" data-name="Path 1221" d="M78.131,370.351s4.372-9.8,5.838-13c2.219-4.848,7.4-14.777,10.9-15.825,3.216-.965,12.464-2.141,25.482-2.885.041,0,.083,0,.124,0a2.11,2.11,0,0,1,2.105,2.11v15.964a1.937,1.937,0,0,1-1.255,1.807l-22.9,2.826a6.371,6.371,0,0,0-4.546,2.828l-3.968,6.049a2.073,2.073,0,0,1-.728.131Z" transform="translate(-51.312 -222.396)" fill="#455a64"/>
                <path id="Path_1222" data-name="Path 1222" d="M119.905,366.1l-7.8,8.669,4.308-28.787,1.077-.372-2.12,21.325a.627.627,0,0,0,.858.644Z" transform="translate(-73.626 -226.98)" fill="#263238"/>
                <path id="Path_1223" data-name="Path 1223" d="M47.209,478.1c-.028-.375.1-.679.289-.7l4.176-.386c.349-.032.663.614.7,1.388l.188,3.2c.031.514-.124.949-.354.989l-4.256.734c-.192.033-.375-.251-.4-.629Z" transform="translate(-31.001 -313.278)" fill="#ebebeb"/>
                <rect id="Rectangle_2328" data-name="Rectangle 2328" width="30.075" height="12.058" transform="translate(16.204 179.787)" fill="#263238"/>
                <path id="Path_1224" data-name="Path 1224" d="M143.564,515.954a16.454,16.454,0,1,0,16.69-16.215,16.454,16.454,0,0,0-16.69,16.215" transform="translate(-94.283 -328.198)" fill="#263238"/>
                <path id="Path_1225" data-name="Path 1225" d="M143.567,546.857c0,.014,0,.028,0,.042a16.454,16.454,0,0,0,32.9.475c0-.014,0-.028,0-.043Z" transform="translate(-94.283 -359.143)" fill="#263238"/>
                <path id="Path_1226" data-name="Path 1226" d="M157.846,525.4a11.552,11.552,0,1,0,11.717-11.384A11.552,11.552,0,0,0,157.846,525.4" transform="translate(-103.663 -337.577)" fill="#fafafa"/>
                <path id="Path_1227" data-name="Path 1227" d="M169.564,514.02A11.552,11.552,0,0,0,157.847,525.4l23.1.333a11.552,11.552,0,0,0-11.385-11.718" transform="translate(-103.664 -337.577)" fill="#e0e0e0"/>
                <path id="Path_1228" data-name="Path 1228" d="M171,534.107a7.037,7.037,0,1,0,7.137-6.935A7.037,7.037,0,0,0,171,534.107" transform="translate(-112.301 -346.215)" fill="#263238"/>
                <path id="Path_1229" data-name="Path 1229" d="M90.708,382.13H89.367a2.74,2.74,0,0,1-2.74-2.74V368.5a2.74,2.74,0,0,1,2.74-2.74h1.341a2.74,2.74,0,0,1,2.74,2.74V379.39a2.74,2.74,0,0,1-2.74,2.74" transform="translate(-56.891 -240.21)" fill="#263238"/>
                <path id="Path_1230" data-name="Path 1230" d="M77.745,403.862H77.4V386.553a3.117,3.117,0,0,1,3.114-3.113h.822v.343h-.822a2.773,2.773,0,0,0-2.77,2.77Z" transform="translate(-50.833 -251.821)" fill="#263238"/>
                <path id="Path_1231" data-name="Path 1231" d="M83.383,407.9l-.954-16.185a2.039,2.039,0,0,1,2.035-2.159v.343a1.7,1.7,0,0,0-1.693,1.8l.954,16.185Z" transform="translate(-54.132 -255.838)" fill="#263238"/>
                <rect id="Rectangle_2329" data-name="Rectangle 2329" width="4.628" height="5.359" transform="translate(25.704 150.482)" fill="#263238"/>
                <rect id="Rectangle_2330" data-name="Rectangle 2330" width="1.882" height="0.343" transform="translate(26.741 140.312)" fill="#263238"/>
                <path id="Path_1232" data-name="Path 1232" d="M86.48,330.839s.138-.021.409-.054l1.206-.143,4.666-.539,17.394-1.979c.927-.1,1.871-.224,2.85-.311a5.369,5.369,0,0,1,1.492.1,5.593,5.593,0,0,1,1.431.542,5.312,5.312,0,0,1,2.165,2.249,5,5,0,0,1,.5,1.549,6.051,6.051,0,0,1,.072.825q0,.411,0,.827c0,4.431.005,9.19.009,14.232,0,10.085.007,21.3.011,33.283v.087H118.6l-11.871,0H100.6a19.29,19.29,0,0,0-3.08.145,12.006,12.006,0,0,0-9.487,7.576A12,12,0,0,0,87.4,391.5l-.09.583-.043.291-.015.294-.03.587-.015.293,0,.037c.078-.077-.106.116-.092.1H82.178l-17.9,0h-.084v-.084c0-5.174,0-10.161.006-14.926q0-3.574,0-6.978,0-1.7,0-3.357c0-.552,0-1.1.006-1.645s.051-1.087.116-1.622a16.283,16.283,0,0,1,1.943-5.913l2.74-5.145,4.858-9.117,3.948-7.4.834-1.562c.137-.249.256-.5.4-.732a6.846,6.846,0,0,1,.462-.657,9.741,9.741,0,0,1,2.082-1.933,10.419,10.419,0,0,1,3.56-1.549,8.941,8.941,0,0,1,1.327-.216s-.113.02-.336.051-.554.092-.984.192a10.508,10.508,0,0,0-3.535,1.567,9.694,9.694,0,0,0-2.06,1.93,6.747,6.747,0,0,0-.455.652c-.142.23-.262.483-.4.732l-.828,1.565-3.928,7.414-4.84,9.126-2.731,5.149a16.156,16.156,0,0,0-1.92,5.868q-.095.795-.113,1.608c-.01.541,0,1.091,0,1.642q0,1.655,0,3.357,0,3.4,0,6.978c0,4.765,0,9.752.006,14.926l-.084-.084,17.9,0h4.933c.024-.017-.166.163-.086.082l0-.037.015-.3.03-.6.015-.3.044-.3.091-.591a12.139,12.139,0,0,1,.647-2.309,12.178,12.178,0,0,1,9.627-7.687,19.337,19.337,0,0,1,3.106-.147h6.123l11.871,0-.087.087c0-11.982.008-23.2.011-33.283,0-5.042.006-9.8.009-14.232a9.861,9.861,0,0,0-.069-1.632,4.873,4.873,0,0,0-.484-1.511,5.186,5.186,0,0,0-2.11-2.2,5.491,5.491,0,0,0-1.4-.532,5.27,5.27,0,0,0-1.458-.1c-.969.084-1.921.207-2.846.3l-17.4,1.928-4.669.51-1.208.128c-.272.028-.411.038-.411.038" transform="translate(-42.157 -215.276)" fill="#263238"/>
                <path id="Path_1233" data-name="Path 1233" d="M189.077,439.722c0-.01.094-.008.267-.039a1.852,1.852,0,0,0,.706-.281,1.8,1.8,0,0,0,.719-.935,2,2,0,0,0,.091-.739,1.814,1.814,0,0,0-.208-.8,1.78,1.78,0,0,0-1.547-.942l-2.264.007L181.65,436a1.761,1.761,0,0,0-1.744,1.56,1.965,1.965,0,0,0,.215,1.186,1.777,1.777,0,0,0,.859.763,2.7,2.7,0,0,0,1.117.136l1.1,0,1.974.011,2.859.028.777.017a.136.136,0,1,1,0,.035l-.777.016-2.859.028-1.974.011-1.1,0c-.191,0-.376.008-.58,0a1.908,1.908,0,0,1-1.542-.966,2.137,2.137,0,0,1-.24-1.287,1.93,1.93,0,0,1,1.915-1.717l5.191.006,2.267.01a1.909,1.909,0,0,1,1.655,1.03,1.928,1.928,0,0,1,.21.855,2.091,2.091,0,0,1-.111.773,1.858,1.858,0,0,1-.774.96,1.769,1.769,0,0,1-.738.259,1.088,1.088,0,0,1-.272,0" transform="translate(-118.03 -286.223)" fill="#263238"/>
                <path id="Path_1234" data-name="Path 1234" d="M193.863,434.454a49.567,49.567,0,0,1-5.887,0,49.5,49.5,0,0,1,5.887,0" transform="translate(-123.451 -285.266)" fill="#fff"/>
                <path id="Path_1235" data-name="Path 1235" d="M133.572,512.866l-2.739-.2c.717-9.834,1.767-15.717,3.211-17.985,2.775-4.359,5.532-5.146,8.589-5.668a40.507,40.507,0,0,1,8.485-.257l.681.027c5.726.223,17.719.024,17.84.023l.046,2.745c-.121,0-12.192.2-17.993-.024l-.685-.027a38.421,38.421,0,0,0-7.911.22c-2.73.466-4.546,1-6.735,4.436-.662,1.041-1.906,4.6-2.789,16.71" transform="translate(-85.923 -320.921)" fill="#263238"/>
                <rect id="Rectangle_2331" data-name="Rectangle 2331" width="135.238" height="90.043" transform="translate(85.179 79.92)" fill="#5bdb98"/>
                <path id="Path_1236" data-name="Path 1236" d="M384.362,324.808c0-.579-.028-33.605-.071-86.228l.071.071L252.2,238.67h-.011l.089-.089c0,30.651,0,59.825-.007,86.228l-.082-.082,132.169.082-132.169.082h-.082v-.082c0-26.4,0-55.577-.007-86.228v-.09h.1l132.158.019h.071v.071c-.043,52.623-.071,85.649-.071,86.228" transform="translate(-165.567 -156.627)" fill="#263238"/>
                <path id="Path_1237" data-name="Path 1237" d="M166.337,357.046c0,.006-.04.041-.125.105l-.379.273c-.331.234-.813.566-1.412.972-1.2.812-2.867,1.915-4.726,3.107s-3.56,2.247-4.8,3c-.619.375-1.122.675-1.473.877l-.406.23a.565.565,0,0,1-.148.07.573.573,0,0,1,.129-.1l.388-.258,1.443-.926,4.768-3.04,4.753-3.062,1.444-.924.4-.245a.584.584,0,0,1,.145-.076" transform="translate(-100.396 -234.486)" fill="#fafafa"/>
                <path id="Path_1238" data-name="Path 1238" d="M149.284,361.563c0,.005-.04.041-.125.105l-.379.273c-.331.234-.813.566-1.413.972-1.2.812-2.867,1.915-4.726,3.107s-3.56,2.247-4.8,3c-.619.375-1.122.675-1.473.877l-.406.23a.561.561,0,0,1-.148.07.58.58,0,0,1,.129-.1l.388-.258,1.442-.926,4.768-3.04,4.753-3.062,1.444-.924.4-.245a.572.572,0,0,1,.145-.075" transform="translate(-89.197 -237.453)" fill="#fafafa"/>
                <path id="Path_1239" data-name="Path 1239" d="M89.551,375.867a1.1,1.1,0,0,1-.105-.3c-.056-.2-.131-.484-.215-.841a12.25,12.25,0,0,1-.363-2.849,6.156,6.156,0,0,1,.654-2.795,4.01,4.01,0,0,1,.486-.728c.135-.156.221-.232.229-.225a11.053,11.053,0,0,0-.6,1.009,6.579,6.579,0,0,0-.588,2.74,14.76,14.76,0,0,0,.308,2.821,8.867,8.867,0,0,1,.2,1.169" transform="translate(-58.363 -241.765)" fill="#fafafa"/>
                <path id="Path_1240" data-name="Path 1240" d="M50.131,443a1.594,1.594,0,0,1-.019-.384c0-.247.006-.6.021-1.044.029-.881.092-2.1.2-3.44s.234-2.553.344-3.429c.055-.437.1-.791.143-1.035a1.545,1.545,0,0,1,.079-.376,1.629,1.629,0,0,1-.01.384l-.086,1.04c-.078.92-.18,2.111-.291,3.429-.1,1.319-.182,2.512-.249,3.432q-.045.614-.078,1.041a1.582,1.582,0,0,1-.051.381" transform="translate(-32.911 -284.56)" fill="#fafafa"/>
                <path id="Path_1241" data-name="Path 1241" d="M141.924,480.979c.007.036-.66.131-1.688.462a13.193,13.193,0,0,0-1.753.712,13.193,13.193,0,0,0-3.715,2.728,13.316,13.316,0,0,0-1.2,1.459c-.622.881-.913,1.489-.946,1.472a2.371,2.371,0,0,1,.191-.432,4.96,4.96,0,0,1,.263-.488c.111-.186.229-.4.388-.624a12.009,12.009,0,0,1,1.188-1.5A12.5,12.5,0,0,1,138.412,482a12.053,12.053,0,0,1,1.787-.684c.259-.086.5-.133.712-.184a5.041,5.041,0,0,1,.544-.1,2.394,2.394,0,0,1,.47-.053" transform="translate(-87.095 -315.876)" fill="#fafafa"/>
                <path id="Path_1242" data-name="Path 1242" d="M497.663,515.954a16.454,16.454,0,1,0,16.69-16.215,16.454,16.454,0,0,0-16.69,16.215" transform="translate(-326.834 -328.198)" fill="#263238"/>
                <path id="Path_1243" data-name="Path 1243" d="M497.666,546.857c0,.014,0,.028,0,.042a16.454,16.454,0,0,0,32.905.475c0-.014,0-.028,0-.043Z" transform="translate(-326.834 -359.143)" fill="#263238"/>
                <path id="Path_1244" data-name="Path 1244" d="M511.945,525.4a11.552,11.552,0,1,0,11.717-11.384A11.552,11.552,0,0,0,511.945,525.4" transform="translate(-336.214 -337.577)" fill="#fafafa"/>
                <path id="Path_1245" data-name="Path 1245" d="M523.664,514.02A11.552,11.552,0,0,0,511.947,525.4l23.1.333a11.552,11.552,0,0,0-11.384-11.718" transform="translate(-336.216 -337.577)" fill="#e0e0e0"/>
                <path id="Path_1246" data-name="Path 1246" d="M525.1,534.107a7.037,7.037,0,1,0,7.137-6.935,7.037,7.037,0,0,0-7.137,6.935" transform="translate(-344.852 -346.215)" fill="#263238"/>
                <path id="Path_1247" data-name="Path 1247" d="M482.442,516.159s-2.507-23.335,21.679-23.335c22.316,0,21.818,20.074,21.608,23.179h-3.5s1.783-19.783-18.108-19.783S485.962,516.4,485.962,516.4s-1.469-.078-3.52-.246" transform="translate(-316.79 -323.658)" fill="#455a64"/>
                <path id="Path_1248" data-name="Path 1248" d="M497.575,499.842a.848.848,0,0,1-.19.069c-.125.042-.313.089-.549.17a16.67,16.67,0,0,0-1.966.768,15.727,15.727,0,0,0-8.656,10.309,16.631,16.631,0,0,0-.416,2.069c-.039.247-.052.44-.073.571a.836.836,0,0,1-.035.2.852.852,0,0,1,0-.2c.008-.132.01-.327.039-.576a14.217,14.217,0,0,1,.362-2.092,15.379,15.379,0,0,1,8.727-10.392,14.2,14.2,0,0,1,2-.719c.24-.071.432-.107.56-.138a.879.879,0,0,1,.2-.034" transform="translate(-318.969 -328.266)" fill="#fafafa"/>
            </g>
        </g>
    </g>
</svg>
